<?xml version="1.0" encoding="UTF-8"?>
<svg id="Layer_1" xmlns="http://www.w3.org/2000/svg" version="1.1" viewBox="0 0 734.4 202">
  <!-- Generator: Adobe Illustrator 30.1.0, SVG Export Plug-In . SVG Version: 2.1.1 Build 136)  -->
  <path d="M460.7,78.8c0,1.5-.6,2.7-1.7,3.6l-4.8,3c-1.9-.2-3.7.6-5.3,2.3-.7,0-1.2.5-1.5,1.5v.3c-1,.7-2.1.8-3.4.6-1.8-.6-3.2-.9-4.1-1-1.2,0-2.4.4-3.5,1.1-1.3.8-1.4,1.7-.5,2.6v.2c-.2.9-.9,1.3-2.2,1.1l-3.6-1.3-.3-.3.3-.4c.2-.5.2-1-.2-1.6l.2-.4.5.2c2.2.5,3.2-.3,3.1-2.4,0-.8-.4-1.3-1.1-1.4-.8-.2-1.2-.5-1.3-1.2-.2-1.1.8-1.9,3-2.2h1.4c-.4-.4-.6-1-.8-1.6-.5-1.6-.2-3,.9-4.4,1.5-1.8,4.4-2.4,8.6-1.8,1.6.3,3.2.3,4.7,0l2.2-.5-.2.7c-.2,1.2.2,2.2,1.2,3.1.9.9,2,1.3,3.2,1.1.9,0,1.7-.6,2.2-1.6.5-1,.3-1.7-.8-2.2.7-.3,1.3-.4,2.1-.3,1.4.3,2,1.2,2,3h0ZM219.5,60.4c-.2.9.2,1.4,1,1.5v.3s-2.5-.3-2.5-.3l-.5.8c-.7.8-1.6.8-2.4.1-.7-.5-.9-1.3-.7-2.2.3-.9.8-1.3,1.7-1.1,0-.8.4-1.2,1.1-1.1.7,0,1.3.3,1.7.9.6-1,1.2-1.1,1.7-.2.3.6.3.9-.3,1-.7.1-1.1.3-1.1.3h.2ZM228.4,97.4c1.7-.1,2.8-.9,3.3-2.4.7,1.6,1.8,2.3,3.2,2l.7-.2c.5.3,1.3.3,2.2,0,.8-.3,1.4-.6,1.7-1.2l.2-.7c1,1.3,2.4,2.1,4.4,2.6l1.6.3h1.4c.8.5.8,1,0,1.5h0c-.9.5-1.6.4-2.2-.4.9,1.3.6,2.4-.8,3-1.5.8-2.6.5-3.5-.7-.6,1-1.5,1.2-2.7.5-1.1-.6-1.7-1.5-1.7-2.6-.5.9-1.3,1-2.3.3l-1.1-.9c-.7,1.1-1.7,1.1-3,.1l-1.2-1.2h0ZM204,79.7v.6c1,0,1.8.6,2.1,1.8.2.4.1.7,0,.9l-.9-.2c.2,1.2-.2,2.2-1.3,3.2-1.1,1-2.2,1.2-3.4.7-.9-.4-1.2-1-.8-1.7.6-1,.8-1.7.7-2.2-2.6,1.4-3.4.6-2.4-2.4-.8-.1-1.2-.3-1.1-.6l.3-.5c.6-.6,1.3-.9,2.1-1,.6,0,1.4.2,2.4.7,1,.5,1.7.8,2.3.8h0ZM120.8,95.1l-.3.3-.8.2-.6-.4c-.3.5-.6.7-1.1.6-.5,0-.8-.3-1.1-.8h-3.3c0,.8,0,1.3-.5,1.4-.3,0-.8-.1-1.3-.5-.5-.4-.7-.8-.8-1.2,0-.4.3-.6.9-.6-.9-.3-1.1-.8-.4-1.5s1.3-.8,2.2-.6l.2,1.2c1.1-.3,1.6,0,1.6,1.1l4.3.2c-.8-1,0-1.5,2.2-1.6,2.2,0,3.6.2,4,.5-.5-1.1-.2-1.5,1-1.3.4,0,.7.2.9.4.2.2.1.5-.3.7l2.2.2c.2-.7.8-1.1,1.8-1.1l2.4.4c.5-1.1,1.1-1.2,1.9-.3,0-.7.5-1.1,1.2-1.2.5,0,.8,0,1.1.4v.7l.2.6c-.5.5-.7,1.1-.6,1.7l-6.9-.3c-1.3.5-2.4.8-3.2,1.1-1.6.3-2.4,0-2.5-1.1h-1.5v.6l-2.7.3v-.3" fill="#efeab8" fill-rule="evenodd"/>
  <path d="M405.9,42c-5.8-3.1-10.2-5.4-13.3-6.8-5.4-2.6-9.5-4-12.2-4.4l-13.4-1.2c-2.7-.2-4.7-.5-6.2-1,1.8.9,3.3,1.4,4.8,1.6l6,.6c9.4,2,14.9,3.9,16.7,5.7,3,1.5,5,2.7,6.1,3.5,1.4,1.2.4,1.4-3.2.5-3.9-.8-7.9-1.3-12.2-1.3h0v.2s6.7,1.2,6.7,1.2c4.2,1,5.3,1.9,3.4,2.6-2.7-.3-5.5-.4-8.4,0v.2l9,1c4.5.7,3.8,1.1-2,1.1l-18.4.7c-4.6.5-8.4.4-11.4-.2l-12.6-1.1c-2.6-.4-2.9-1.1-1-2.2,1.4-.9,1.2-1.7-.4-2.2l-5.1-.5c-4.4,0-7.7-.7-9.6-1.8-.8-.5-.8-.7,0-.9.9-.2,2.6-.2,5.1,0,8.4.3,16.7-.2,24.8-1.6,3.1-.5,4.6-1,4.4-1.3l-7-.4-21.3.8-11.2-.3c-3.1-.8-6.1-1-8.8-.6l-6.5,1.1c5-.4,8.6-.2,10.8.5,1.6.5,3.5,1.9,5.6,4,1.8,1.7,3.5,2.7,5,2.9l4.8.4c3.2.7,4.9,1.3,5.2,1.8.4.7-1.1,1.2-4.5,1.8l-10.5,1.2,12.7.8c3.3.7,5.6,1.3,6.9,1.9,1.5.7,1.1,1.1-1.4,1.2-1.1,0-2.2-.3-3.4-.7l-2.6-.8c-1.9-.5-4.4,0-7.4,1.2-2.4.9-4.2,2.2-5.3,3.6-.9,1.3-3,2.6-6.3,3.9,6.5-2.3,10.2-3.5,11.2-3.6,1-.1,1.9,0,2.8.5.5.3,1.6,1,3.1,2.1,5.8,3,13.1,3.6,22,1.9v-.3c.1,0-4.3-1.7-4.3-1.7-2.4-1.1-4.3-1.7-5.6-1.8-2.6-.3-4.3-1-5.1-2.2-.7-1.1,1.3-1.3,6-.4l11.6.7c1.3-.1,2.6-.5,3.9-.9,3.2.4,6.2.2,9-.7,1.6-.5,4-1.5,7-2.9,4-.7,7.5-.7,10.5,0,1.7.3,3.8,1,6.5,2.1l13.6.7c1.6.1,2.2.5,1.9,1-.5.6-2.2,1.6-5.4,3.1l-15.1,4.6c-2.4.7-5.1,1-7.9.9-4.9-.1-8.2.4-9.9,1.6-2.1,1.5-.2,3.4,5.6,5.8,3.3,1.4,6.2,3.4,8.7,5.8,2.4,2.4,4.1,4.9,5.1,7.6,1,2.8,1,5.4,0,7.6-1.1,2.6-3.2,4.5-6.4,5.9-8.3,4-13.9,5.9-16.8,5.8-1.1,0-2.2-.3-3.3-.9-1.8-.9-3-1.3-3.5-1.6l-1.7-.4c-.5-1.9-1.6-3.7-3.2-5.4-2.6-2.7-5.2-3.8-7.9-3.2-2.1-2.7-5.5-2.6-10.3.4,0-1.7-.5-3.5-1.5-5.2-2-3.6-4.8-5.1-8.3-4.5-1.1-2.6-2.7-4.1-4.8-4.4l-5.9.4c-.4-1.2-1.1-2.3-2.1-3.3-1.5-1.4-3.3-2.4-5.4-2.9-2.3-.5-4.5-.3-6.5.7-2.4,1.1-4.3,3-5.8,5.7-5.9-2.3-10.3-1.2-13.2,3.1-1.7,2.6-2.6,5.3-2.8,8.2h-3.2c-2.6.5-4.3,1.5-5.3,3-2-.8-4-.9-6.2-.4-2.2.6-4.1,1.6-5.6,3.2-3.8,1.2-5.9,4-6.2,8.6-2.4,1.8-2.6,4.1-.7,6.9.8,1.1,1.7,2,2.8,2.8,1.1.8,1.9,1.2,2.6,1.3-2.1,2.3-3,5.1-2.7,8.2.3,3,1.5,5.3,3.6,6.8,1.4,3.4,3.9,5.3,7.2,5.6l3.8-.3c.3,2.2,1.2,4.4,2.8,6.5,2.1,2.8,4.4,4.3,7,4.6,1.3,1.6,3.2,2.8,5.6,3.6,2.3.8,4.6,1.1,7.1,1,3-.2,5.5-1.1,7.3-2.6,3.2,4.3,7.3,5.5,12,3.8,4.2,1.6,7.5,1.6,9.7-.2l1.9-1.9c.6-.5,1.2-.7,1.8-.5,3.5-.3,6.1-1.3,7.5-3.1.5-.5,1.1-1.9,2.2-4,3.8.4,7.5-.7,11.4-3.2,3.8-2.5,6-5.4,6.7-8.9,1,.3,2.2.5,3.4.5,5.3,0,9-3,11.2-8.8,1.5-3.3,3.3-5.6,5.6-6.7,1.8-.9,4-1.2,6.7-.9,1.6.2,4,.6,7.3,1.4l7.3.3c3.6-.7,6.8-2.2,9.5-4.3,2.7-2.1,4.5-4.5,5.6-7.3,1.1-2.9,1.2-5.9.3-8.8-.9-3.2-3-6-6.2-8.5-7.7-6.2-12.4-11.6-13.9-16.2-1.5-4.7.7-7,6.7-7,11,0,18.8-.6,23.3-1.8,5.5-1.5,7.5-4.2,6.1-7.9-1.6-3.5-3.7-5.8-6.3-6.7l-3-.9c-1.1-.5-1.9-1.1-2.6-2-1.6-1.7-3.7-2.3-6.2-1.8l-3,.7c-1.1.2-2.2,0-3-.3h-.2ZM325.3,64.5q0-.1,0,0ZM309.3,84.5c1.7.3,2.7,1.2,3,2.5v.5c-1.3,0-2.2-.6-2.7-1.6-.3-.5-.4-.9-.3-1.4h0ZM180.7,94.1h.8c-.6,0-.8-.3-.8-.7v.7ZM156.8,85.7v.6-.6ZM145.9,94.7h-.2c0-.1.1-.4.1-.4v.4h0ZM138.4,93q0,0,0,0ZM402.5,74.5h0c0,.1,0,.1,0,.1-.8,0-1.2-.3-1.3-.5.3-.4.5-.6.8-.4.3.2.5.4.5.8h0ZM387.3,75.1l-.3.3h.2c0,0,.1-.3.1-.3" fill="#e0d47f" fill-rule="evenodd"/>
  <path d="M361,49.2v.4c0,1.3-.5,2.4-1.7,3.1-1.3.8-2.4.6-3.2-.6-.7-.9-.6-2.1.2-3.3h0c.8-1.3,1.4-1.4,1.9-.4-.1-1.1.1-1.7.8-1.9.5-.2,1.1,0,1.8.4.7.4,1.1.9,1.1,1.4s-.3.8-.8,1.1h0ZM420.7,51.7c1.1-.3,1.4.5,1.1,2.5h-.2l-1.4.5c-1.3.7-2,1.9-2.2,3.7h0c-1.5.3-2.4-.2-2.6-1.5-.4-.3-.6-.8-.6-1.4-.6.8-1.5.7-2.8-.4-.5-.3-.7-.9-.6-1.8,0-.8.4-1.5,1-2.2,1.5-1.7,3.2-1.5,5.3.8.2-.5.5-.8,1.1-.7.2-.3.4-.5.8-.4.5,0,.8.3,1.1.8h0ZM415.3,54.5c-.3.4-.4.8-.4,1.1l.4-1.1h0ZM461.3,74c-1-.5-2.2-.5-3.6,0-1.3.4-2.2,1.1-2.4,1.9h1.3c.7-.2,1.3-.3,2.1-.2,1.4.2,2.1,1.2,2,3,0,1.5-.6,2.7-1.7,3.6l-4.8,3,1.3.2,3,.4c1.3-.2,2.5-1,3.8-2.4,2.1-.5,3.2-2.1,3.5-4.8.2-.8-.1-1.8-1.1-2.8-1-1.1-2.1-1.7-3.4-1.9h0ZM427.6,86.3c.3-3.7,2.7-5.3,7.2-4.7.2.6.5,1.1.8,1.6h-1.4c-2.2.3-3.2,1-3,2.2,0,.6.5,1,1.3,1.2.7.2,1.1.6,1.1,1.4,0,2.1-1,2.9-3.1,2.4l-.5-.2-.7-.3-.6-.5v.2c.2,0,.4.2.6.3,0,0,.6.7.6.7.3.6.4,1.1.2,1.6l-.3.4-.2.2c-1,0-2.2.3-3.6,1l-.2-.3c-.2.2-.5.3-.9.3-.6,0-1.3-.5-2-1.2-.7-.8-1-1.5-.9-2.2,0-.8.7-1.4,1.9-1.7-.8-.9-.3-1.4,1.6-1.5h2.3v-.9h0ZM424.9,95.9h.2c0,0-.5,1.1-.5,1.1-.8,1.3-.9,2.4-.3,3.3l4-.2c.8-.6,1.1-1.2,1.1-1.9h.2c0-.1,1,1.6,1,1.6.6.7,1.5,1,2.8,1v.2c.8-.2,1.4,0,2,.6,1,1,1.1,2.7.2,5.1-.6,1.8-1.7,3-3.2,3.5-1.4.5-3,.3-4.7-.5l-3.2-1.8-1.2-.6c-1.6-.8-3.3-1.2-5-.9-4.3.6-6.8,3.3-7.6,8.1-4-.3-7.4.1-10.1,1.4-.3.9-.9,1.3-2,1.1h-.2c-1.1-.3-1.6-.9-1.6-2h-1.7s-.3-.7-.3-.7c-.2,1.1-1.2,1.5-3,1.5-1.7,0-3-.5-3.7-1.3-.5,0-.8,0-1.2.5,1.4.6,1.9,1.7,1.5,3.2-.4,1.5-1.3,2.6-2.6,3.2-.9.4-2.1.3-3.7-.3l-1.3-.5c-.4.3-1.1.5-1.9.5-1.4,0-2.5-.6-3.4-1.6-.3.9-1.2,1.3-2.6,1.3-1.4,0-2.7-.6-3.9-1.7-.9.8-2.2,1.1-3.9.9-1.8-.2-3.2-.7-4.3-1.8l-1.5-1.8-.5-.2-.9,1.1c-.9.7-2,1.1-3.3,1.1-3.5.2-5.3-1-5.6-3.6-.3-2.1.8-3.8,3.2-5,2.1-1.1,3.8-1.2,5.5-.5-.5-.3-.5-.8-.2-1.2.4-.6,1.1-.9,2-1l2.9.2c1.1,0,1.9-.4,2.7-1.1,1.5-1.6,1.2-2.8-.9-3.7-1.6-.7-3-.7-4,0h-1c-1.2,0-2.2.4-3,1.2l-2.2,2.1c-.8.6-1.8.7-2.9.4-1-.3-1.9-1-2.7-1.9-.5-.6-.9-1.2-1.1-1.7-2.5,1.3-4.2,1-5.2-.8.1,1.4-.6,1.9-2.2,1.6-1.3-.3-2-1-2.1-2.2h0c0,0,0,0,0,0l-.8-.4c-.9-.6-1.2-1.3-.9-2.2-3.4-.3-5.1-1.4-5.4-3.4-.3-2.2,1.2-4.4,4.6-6.6,2.3-1.5,5.4-2.6,9.2-3.4l.2.7c-2.2.4-4.4,1.3-6.6,2.7-4.1,1.9-6,3.8-5.6,5.8.3,1.6,1.7,2.6,4.3,3.2l.2-.3c1.7-2.1,4.1-2.4,7.4-1.1.2-.5.6-1.1,1.3-1.7,1.6-1.6,3.2-2.4,4.6-2.5,1.7,0,3.2.3,4.5.9l2.2,1.6,1.2.7v-.6c.3-.8.6-1.4,1.3-2,.8-.8,2.3-1.1,4.3-.9,1.9.2,3.3.8,4.3,2.1l.9,1.7c.3.4.7.5,1,.3v-.5c.2-1.9,1.7-2.4,4.5-1.4v.2-.2c.7-.7,1.7-.9,3-.7,1.1.2,1.7.5,2,1.2.4-.3,1.1-.4,2.1-.3.9,0,1.6.5,2.1,1.3.4.8.5,1.7.3,2.8-.7,2.7-2.9,4.9-6.7,6.5-3.2,1.7-4.5,3.5-3.7,5.2.3.6.9,1.1,1.8,1.4l1.8.2c-.3-.4-.3-.8-.3-1.3,0-.6.5-1.2,1.3-1.5,1.9-.9,4.6-.5,8.1,1.3-.4-1.3.3-2.2,1.8-2.9,1.7-.7,3.8-.5,6.3.5-.8-.8-.7-1.7.6-2.6,1.3-.9,2.9-.9,4.8,0,1.7,1.1,3.1,1.7,4.4,1.7s2.7-.5,4.2-1.7c1.5.8,2.9.5,4.1-.7.8-.8,1.2-1.6,1.4-2.4-.7.7-1.7.7-3,0-1.9-1.1-2.5-2.7-1.7-4.8,1.1-2.9,3.6-3.8,7.4-3,1.4.3,3.6,1.8,6.6,4.3,2.6,1.6,4.6,1.1,6.2-1.7,1,.4,1.9.3,2.7-.4.8-.7,1.2-1.5,1.2-2.6-.5-.2-1-.5-1.3-1.1-.5-.7-.5-1.6-.2-2.7.3-1.1.8-1.8,1.5-2.3.7-.5,1.6-.6,2.7-.3l2.4.3-13.4,8.7ZM358.2,120.9l.3.4-.5.2c-.5.1-.9,0-1.3-.4-.2-.2,0-.5.4-.7.5-.2.8,0,1.2.5ZM309.6,86c-.3-.5-.3-1-.3-1.5,1.7.3,2.7,1.2,3,2.5v.5c-1.3,0-2.2-.6-2.7-1.6" fill="#e4da8d" fill-rule="evenodd"/>
  <path d="M423.9,37c-.9-1.2-1.7-1.6-2.3-1.5-.2,0-.6.5-1.5,1.3l-4.1.3c-.5.1-1.3.1-2.2,0-.9,0-1.7,0-2.3,0-.8.2-1.7.2-2.8,0l-1.5-.2c-.6-1.1-1.6-1.8-3-2-1.4-.2-2.1.2-2.2,1.1-.2-.4-.6-.6-1.2-.5-.6,0-1,.4-1.2.8l-5.7-.2-1.3-1.2c-.3-.2-.7,0-1.3.3-2-.3-3.1-.2-3.2.4l-4.3-.2-2.1-.2h-.1c-.8-.8-1.6-1.5-2.3-1.8-1.1-.5-1.9-.2-2.3,1-.3.2-.7.3-1.3.3-.4,0-.7.2-.8.5-.6-1.1-1.1-1.1-1.4,0-1.3-.9-2.4-1.3-3.2-1.1-.9.5-1.9.8-2.7,1-2.1.1-3.4.2-3.9,0-.8,0-1.1-.4-.9-.9-.4.2-.8,0-1.4-.2-.5-.3-.8-.6-.9-1.1-.4-1.1.9-1.3,3.9-.5,1.1.2,1.8,0,2.2-.4.3-.4.3-.8,0-1.5-.3-.6-.7-1.1-1.4-1.5-.3-.2-.5-.3-.8-.4l-.3-.4c-.5-.4-1.1-.6-1.8-.6v-.8c0-.2-.3,0-.5.2-.6.5-1.2.5-1.8,0-.6-.5-.4-.9.7-1.4,1.2,0,1.6-.4,1.2-1.1-.5-.8-1.6-1.5-3.5-2.1-1.4-.9-1.6-1.6-.7-2,.9-.5,2.2-.4,3.9.3,1.6,1.1,4.5,1.5,8.6,1.2l.4.2h1.5c1-.8,3.5-1.6,7.4-2.6-1.4,0-2.7-.3-3.8-.7-1.3-1.2-3.8-1.4-7.3-.5-1.1.8-1.8,1.1-2.2.9l-.3-.4-2.6.3h-.2c-1.7,0-2.3-.2-1.8-.6.8.3,1.3.3,1.8.2h.2c.5-.2.3-.5-.5-.9-.5-.6-.7-1-.6-1.1,0-.2.3-.2.8-.2,1.7,0,2.9-.2,3.6-.6.5-.8,2.2-1.2,5.2-1.2h4.3c-.9-.8-1.6-1.1-2.2-1-.9.5-1.4.7-1.7.8h-.3l-1.9-.5c-2.4-1.7-4.7-1.7-7,0-.5.4-.8.6-1,.5l-.5-.5c-.6-1-1.9-1.5-3.7-1.6l-2.3-.6c-.5-.2-.8-.4-.7-.6,0-.3,1.3-1.7,3.8-4.1.9-1.1,1.1-2,.5-2.6-.5-.5-1.5-.8-3-.9l-4.3.3c-1.6.3-2.7.8-3.3,1.4-1,1.2-1.1,2.1-.4,2.5.5.4,1.4.3,2.6-.2l-1-.7c-.9-1.3.7-1.7,4.8-1.4,2.1.2,2.5,1.1,1.3,2.6-1,1.3-2.2,2.2-3.6,2.7,0,.7-.4,1.4-1.2,2l-2.7,1.6c-.6-.6-1.6-.7-3-.3-1.6.5-3,1.4-4.5,3-.2-.7-1.2-1.2-3.2-1.3l-4.6.2c-1.1-.8-3.1-.6-5.9.7-.3-.3-1.4-.3-3.6,0l-9.6,1.1c2.7,0,8.3,0,16.8.4l2.5-.7c1.4-.4,2.3-.5,2.7-.2-1.2.6-.2,1,3,1.2,3.2.2,5.8,0,7.9-.5.4.3.5.6.1,1,0,.4,1.4.9,4,1.5,1.3,1.2,1.8,2.3,1.7,3.5-.2,1-.8,1.9-2.1,2.7-1.2.7-2.6,1.2-4.3,1.4-1.8.2-3.5.1-5.1-.3l-2.2-1.1c-.7-.3-1.3-.5-1.6-.5-.9,0-1.8,1.4-2.6,4.1-.4-1.2-1.2-1.8-2.3-2-1.3-.2-2.8.5-4.3,2-2.8-1.3-4.6-1.4-5.4-.3-.3.4-.4.9-.4,1.5s0,.5,0,.7c-.4.4-.7.8-.9,1.3,0-.8-.6-1.1-1.4-.9-.8.2-1.7.8-2.7,1.8-.2.5-.2.9,0,1.4.2.3.5.6.8.8-.4.5-1.2.7-2.4.5-1.6-.2-3-.7-4.1-1.6-1.1,1.9-2,2.5-2.5,2,.2-1.7-.6-3-2.4-3.9-1.1-.6-2.1-.7-2.7-.3l-2.6.4h0l-2.7.3c-.9,0-1.7-.4-2.4-1.3-2.6-3-5.8-4.2-9.4-3.6l-2.8.4h-.5c0,0,0,0,0,0-.6-1.3-1.3-2-2.2-2.3-.9-.3-1.7,0-2.4.8.8-1.9.3-2.4-1.5-1.6,0-1.7-.9-2-2.7-.9-.6-.7-1.3-.9-2.2-.5-.8.4-1,1.1-.5,1.9-1.2-.4-1.9-.3-2.3.3-.3.6-.2,1.1.3,1.4-.6,1-.3,1.6,1,1.9,1.3.3,2.3,0,3-1.1.4-.6.8-.9,1.3-1.1h.8c.4,0,.6.3.8.5,0,.2,0,.5,0,.8,0,.6.4.9,1.3.8.9-.2,1.5-.4,1.9-.8.4,0,1.1.3,2.3.8.8.5,1.4.6,1.9.5-.6.3-.9.6-.7,1,.2.5.6.7,1.4.7,0,.2,0,.5,0,.9,0,.4-.4.6-1.1.5,0,.5-.2.9-.5,1.3-.5.4-.9.6-1.4.6-1.3-.9-3.4-1.4-6.2-1.3-1.2,0-1.9.2-2.3.5-.4.4-.2,1,.7,1.7h-.7c-1.8-.6-3.6-.9-5.3-.8-1.8,0-2.9.6-3.2,1.6h-1.1c-1.1,0-1.8.6-2.2,1.9-.6-.3-1.2-.3-1.6,0-.2.2-.4.4-.4.6-1.1-.4-2.4-.4-4.1.2-2.7-.7-5.1-.8-7.3-.3-1.5.4-3.7,1.3-6.4,2.7-1.2.1-2.5.5-4.1,1h-.4c0,.1,0,0,0,0l-5.6.4-4.7.4-1.7-.2-1.2-.4c-3.1-.5-5.9-.5-8.3-.2l-3,.7,7.4.5,10.1.7,1.4-.2c2.9.4,6,.3,9.4-.5l2.3.5,5.1-.2,7.1-.9c3.8.8,6.5,1.2,8.1,1.4,2.8.3,4.9,0,6.4-1-.8.6-1.2,1.1-1.3,1.3,0,.2,0,.5.4.7-.3.2-.5.3-.4.6,0,.2.2.4.5.5.3.1.6.2.9.2.2,0,.4,0,.5-.2.2,0,.4.2.6.1.3.7.8,1.1,1.7,1.1.7,0,1.5-.1,2.2-.5l.5-.4c.7.8,1.4,1.4,2.2,1.9,1.4,1,2.6,1.1,3.5.4l.5-.4.9,1.2c1,1.4.6,2.1-1.1,1.9-1.3-.5-2.2-.5-2.8-.2-1.5-1.3-3-1.6-4.4-.9-.6.3-1,.6-1.1,1.1-.1.4-.1.7,0,1.1-2.1-.2-3.8.3-5.3,1.3-.7.5-1.3.7-1.9.7-.8,0-1.9-.3-3.2-1-1.1-.9-2.2-1.3-3.2-1.2-1.1,0-1.4.5-1,1.2-1.6-1-3-.7-4.3.9.3-1.5,0-2.4-.8-2.8-.7-.3-1.3-.3-1.9.3-.5-.3-1.1-.3-1.6-.3-.8,0-1.4.4-1.8.9-.5.5-.5,1-.3,1.4.3.5,1.1.8,2.4.9-.4.5-.5,1-.2,1.4.2.4.6.5,1.2.6.5,0,1.1-.1,1.4-.5.5-.4.7-.9.6-1.7.3,1.1.5,1.8.7,1.9.1,0,.4,0,.7-.5.3.4.7.6,1.2.5.5,0,.6-.5.4-1.3,1.7,2.5,2.7,2.7,3,.6.2.1.4.2.5.3h0c.7.3,1.6,0,2.7-.6l6-.3c1.4-1,2.2-1.5,2.4-1.5.4,0,1,.2,1.7.9l.2.5c.2.6.6,1.1,1.2,1.4.8.6,1.6.6,2.2.2l.5-.4.4.5c1.3,1.6,2.7,2.6,4.4,3,2,.4,3.2-.3,3.8-2.2,2.6,1.1,4.3,1.1,5.1,0h.7s1.6-.6,1.6-.6c.8,0,1.4-.1,1.8-.6h1.1c.6-.1,1-.5,1.3-1,.8.5,1.6.5,2.2.3.6-.3.5-.8-.3-1.5.5,0,.9,0,1.4-.3.5-.4.5-.7,0-1.1.8,0,1.2-.1,1.2-.6s-.4-.7-1.2-.6c-1.9-.9-3.1-.7-3.4.4l.2,1.1c0,.2.2.2.4.2-.9.9-1.6.9-2.1.3-.2-.3-.4,0-.7.9h0c0,.1,0,.1,0,.1-.3-.2-.6-.2-1.1,0-.9-1.3-1.6-1.9-2.4-1.9,0-1,0-2-.5-3.2-.6-1.6-1.4-1.9-2.5-.9.2-2.1-.5-3-2.2-2.8-.6.2-.8,0-.7-.3,0-.3.3-.7.8-1.1,1.4-1.1,2.3-.9,2.9.5,2.2,2.4,3.7,2.1,4.4-.8,1.6,1.1,2.7,1.6,3.4,1.6.9,0,1.5-.9,1.6-2.8,1,.7,1.7,1,2.3.8.3-.1.7-.6,1.3-1.5.6.5,1.1.8,1.6.7.4,0,.9-.5,1.5-1.2.9-.5,1.7-.6,2.3-.3h.1c.3.3.7.8,1.3,1.4-.7,0-1.3.2-1.7.4-1.3.5-1.1,1.2.6,1.8-1.7.6-2.6,1.3-2.7,2,0,.6.4,1.1,1.4,1.6.9.5,1.9.7,3,.7.9,0,1.6,0,2-.4l.3-.3h0s0,0,0,0c.5-.5.8-1.3.8-2.4s0-.6.3-.6.7.2,1.4.5c1.4.8,2.1,1.6,1.9,2.2-.2.6-.8.7-2,.3h-1.5s-.5.2-.5.2l-.3.4c-.4.9.3,1.3,1.9,1.3s3.8-.3,4.8-.7c.4-.2.8-.5,1.1-.8,1.4,0,2.8.2,4.3.6.5.2,2,.8,4.5,1.8,1.6.7,2.9,1,4,1,1.1,0,2.3-.6,3.5-1.5l3.2.5c1.6,0,3.2-.8,4.7-2.4,1.4-1,3.1-1.5,5.1-1.5s2.9.3,5.4.7c2.4.5,4.1.6,5.4.6,1.9,0,3.6-.7,5-1.8-.7.1-1.1-.3-1.3-1.4-.2-1.3-.9-1.6-2.2-.9-.5-.4-1.1-.6-1.8-.5-.7,0-.9.3-.6.9-.5,0-.8.2-.9.5-.2.4,0,.6.6.7v.2s-.8,0-.8,0c-.5,0-1.1-.2-1.6-.5-.5-.3-1-.5-1.5-.5h-.7c-.3.2-.5.3-.6.4h-.9c-.3,0-.9,0-1.5-.2h-.5c.2-.4,0-.7-.1-1.1,0-.1-.2-.2-.3-.3,0-.3,0-.5-.3-.6-.1,0-.3,0-.4.3,0,0-.2-.2-.4-.2h-.3c-.7-.3-1.2-.6-1.3-.7-.5-.4-.4-.8.2-1.3.5-.3.8-.4,1.1-.3.2,0,.3.3.3.5,0-.5.3-.7.8-.7h.3c.5-.5,1-.7,1.4-.7.3,0,.9.3,1.6.6.8.3,1.6.3,2.2.3.3.3.7.6.9.8.5.3.9.4,1.2,0l.3.2c0,.1.2.2.3.2h0c1.2.8,2.4.9,3.5.4.7-.3,1.6-.4,2.6-.3.5,0,1.4.3,3,.6,1.1.3,1.4.3,1.1,0-.3-.3-1-.6-2.1-.9-.9-.3-1.3-.4-1.1-.5l.3-.2c0,0,.1-.2,0-.3.7.3,1.3.3,1.9.2.7,0,.8-.4.5-.9.5.2,1,.3,1.5.2h.3c.5.3.8.4,1.1.5.5,0,.7-.2.6-.8.4.4.7.5,1,.4s.3-.3.2-.6c.5.2,1.3.3,2.6.5,1.4.1,2.4.1,3,0,1.1,0,2.9.2,5.3.2.3.4.7.5.9.5.3,0,.3-.4,0-1" fill="#c6b342" fill-rule="evenodd"/>
  <path d="M726.9,102.3c0,2.1-.9,3.7-2.5,4.9l-7,4.1c-2.8-.2-5.4.9-7.7,3.2-1,0-1.8.7-2.1,2v.4c-1.4.9-3.1,1.1-5,.8-2.6-.9-4.7-1.3-6-1.3-1.7,0-3.4.5-5.1,1.6-1.8,1.1-2.1,2.4-.7,3.6v.2c-.2,1.3-1.3,1.7-3.2,1.4l-5.3-1.7-.4-.4.4-.6c.3-.7.2-1.4-.2-2.2l.2-.6.8.2c3.1.7,4.6-.4,4.5-3.3,0-1.1-.6-1.7-1.6-1.9-1.1-.2-1.7-.7-1.8-1.6-.2-1.6,1.2-2.5,4.4-2.9h2c-.6-.6-.9-1.3-1.2-2.1-.7-2.1-.2-4.1,1.3-6,2.2-2.5,6.4-3.2,12.5-2.5,2.3.3,4.6.4,6.8.1l3.1-.7-.2,1c-.2,1.6.3,3,1.7,4.3,1.3,1.2,2.9,1.7,4.6,1.6,1.3-.1,2.5-.9,3.1-2.2.7-1.4.4-2.4-1.2-2.9,1-.4,2-.5,3-.4,2,.3,2.9,1.7,2.9,4h-.1ZM376.1,77.2c-.3,1.3.2,1.9,1.5,2v.4c0,0-3.7-.4-3.7-.4l-.7,1.1c-1,1-2.3,1.1-3.6.2-1-.7-1.3-1.7-1-3,.4-1.3,1.2-1.8,2.5-1.4,0-1.1.6-1.6,1.7-1.6,1,0,1.8.5,2.5,1.3.9-1.3,1.8-1.4,2.5-.3.5.8.4,1.2-.4,1.3-1,.2-1.5.3-1.5.5h.2ZM389,127.7c2.5-.2,4.1-1.3,4.8-3.3,1,2.2,2.6,3.2,4.6,2.8l1-.3c.8.4,1.8.4,3.1,0,1.2-.4,2-.9,2.5-1.6l.3-1c1.5,1.7,3.6,2.9,6.4,3.5l2.3.4h2c1.2.7,1.2,1.3,0,2h-.1c-1.3.7-2.4.5-3.2-.5,1.3,1.8.9,3.2-1.1,4.1-2.1,1-3.8.7-5.1-.9-.9,1.4-2.2,1.6-3.9.7-1.7-.9-2.5-2.1-2.5-3.6-.8,1.3-1.9,1.4-3.4.4l-1.5-1.3c-1,1.5-2.5,1.6-4.4.2l-1.7-1.6h0ZM353.5,103.5l-.2.9c1.7,0,2.8.9,3.2,2.4.2.6.2,1,0,1.2l-1.3-.3c.3,1.6-.3,3-1.8,4.3-1.6,1.3-3.2,1.6-4.9.9-1.3-.6-1.8-1.3-1.2-2.3.9-1.4,1.2-2.4,1-2.9-3.8,1.9-5,.8-3.4-3.2-1.2-.2-1.7-.5-1.5-.9l.5-.7c.9-.8,1.9-1.3,3-1.4.9,0,2,.2,3.4,1,1.5.7,2.5,1,3.3,1h-.1ZM232.6,124.6l-.4.4-1.2.2-.9-.5c-.4.6-.9.9-1.7.8-.7,0-1.2-.5-1.5-1.1h-4.8c.1,1.1,0,1.8-.7,1.9-.5,0-1.1-.2-1.8-.7-.7-.6-1-1.1-1.1-1.6,0-.6.4-.8,1.3-.8-1.3-.5-1.5-1.1-.6-2,.9-.9,2-1.1,3.1-.9l.3,1.6c1.7-.4,2.4,0,2.3,1.6l6.2.3c-1.2-1.4,0-2.1,3.2-2.1,3.2,0,5.2.2,5.9.7-.7-1.4-.2-2,1.5-1.8.6,0,1,.2,1.3.5.3.3.2.6-.4.9l3.1.3c.3-1,1.2-1.5,2.6-1.4l3.5.6c.7-1.6,1.7-1.7,2.8-.3.1-1,.7-1.5,1.7-1.6.7,0,1.2,0,1.5.5v.9l.2.8c-.7.7-1,1.5-.9,2.4l-10-.3c-1.8.7-3.4,1.1-4.7,1.4-2.3.4-3.5,0-3.7-1.4h-2.1v.9l-4,.4v-.4" fill="#efeab8" fill-rule="evenodd"/>
  <path d="M647.1,52.1c-8.4-4.3-14.9-7.4-19.4-9.3-7.9-3.6-13.8-5.5-17.8-6l-19.5-1.6c-3.9-.2-6.9-.7-9-1.4,2.6,1.2,4.8,1.9,6.9,2.1l8.8.8c13.6,2.7,21.6,5.3,24.3,7.8,4.4,2.1,7.3,3.6,8.8,4.8,2.1,1.7.6,1.9-4.7.7-5.6-1.1-11.5-1.8-17.7-1.8h-.1v.2c0,0,9.7,1.7,9.7,1.7,6.1,1.4,7.7,2.5,5,3.5-3.9-.5-8-.5-12.3-.1v.2l13.1,1.4c6.5,1,5.5,1.5-2.9,1.5l-26.8.9c-6.7.7-12.3.6-16.6-.3l-18.3-1.6c-3.7-.5-4.2-1.6-1.5-3,2-1.3,1.8-2.3-.6-3l-7.4-.6c-6.4-.1-11.2-.9-14-2.5-1.1-.6-1.1-1,0-1.2,1.3-.3,3.7-.2,7.4.1,12.3.5,24.3-.2,36.1-2.1,4.5-.7,6.6-1.4,6.4-1.8l-10.1-.5-31,1.1-16.2-.4c-4.5-1.1-8.8-1.4-12.8-.9l-9.4,1.4c7.3-.5,12.6-.2,15.7.7,2.3.7,5,2.5,8.2,5.5,2.6,2.3,5,3.6,7.2,4l7,.6c4.6.9,7.1,1.7,7.6,2.4.6.9-1.7,1.7-6.6,2.4l-15.3,1.6,18.5,1c4.8.9,8.1,1.8,10,2.6,2.2.9,1.5,1.5-2,1.6-1.6-.1-3.2-.5-4.9-.9l-3.7-1c-2.8-.6-6.4,0-10.7,1.7-3.6,1.3-6.1,2.9-7.7,4.9-1.3,1.8-4.4,3.6-9.2,5.3,9.5-3.1,14.9-4.7,16.2-4.9,1.5-.2,2.8,0,4.1.6.8.4,2.3,1.3,4.5,2.8,8.5,4.1,19.1,4.9,31.9,2.6l.2-.5-6.4-2.3c-3.5-1.5-6.2-2.3-8.1-2.5-3.8-.4-6.3-1.4-7.4-3-1-1.6,1.8-1.8,8.7-.6l16.9.9c2-.2,3.8-.6,5.7-1.3,4.7.5,9.1.2,13.1-1,2.4-.7,5.8-2,10.2-3.9,5.9-.9,10.9-1,15.2-.1,2.5.5,5.6,1.4,9.4,2.8l19.8.9c2.3.2,3.2.6,2.7,1.3-.7.8-3.2,2.2-7.9,4.3l-21.9,6.3c-3.6,1-7.4,1.4-11.5,1.2-7.1-.2-12,.5-14.4,2.2-3,2.1-.2,4.7,8.2,7.9,4.8,2,9.1,4.6,12.7,7.9,3.5,3.3,5.9,6.7,7.4,10.3,1.4,3.9,1.5,7.3,0,10.4-1.5,3.5-4.7,6.2-9.3,8.1-12,5.4-20.2,8-24.5,7.9-1.6,0-3.2-.5-4.8-1.2-2.6-1.2-4.3-1.8-5-2.1l-2.5-.6c-.7-2.5-2.3-5-4.7-7.4-3.8-3.7-7.6-5.2-11.5-4.4-3-3.7-8-3.5-15,.5,0-2.4-.7-4.7-2.2-7.1-2.9-4.9-6.9-7-12-6.2-1.6-3.6-3.9-5.6-7-6l-8.6.5c-.6-1.6-1.5-3.1-3-4.5-2.2-2-4.8-3.3-7.8-4-3.3-.7-6.5-.3-9.5.9-3.4,1.5-6.3,4.1-8.5,7.8-8.5-3.1-15-1.7-19.2,4.2-2.5,3.5-3.8,7.2-4,11.2l-4.7.2c-3.7.5-6.3,1.8-7.7,4-2.9-1.1-5.8-1.3-9-.5-3.2.8-5.9,2.2-8.2,4.4-5.5,1.6-8.5,5.5-9,11.7-3.5,2.4-3.8,5.6-1,9.4,1.1,1.4,2.5,2.7,4,3.8,1.5,1,2.8,1.6,3.8,1.7-3,3.2-4.4,6.9-3.9,11.2.4,4.1,2.2,7.2,5.3,9.3,2.1,4.7,5.6,7.2,10.5,7.7l5.6-.3c.4,3,1.8,6,4,8.9,3,3.9,6.4,5.9,10.1,6.2,2,2.1,4.7,3.8,8.1,4.9,3.3,1.1,6.7,1.6,10.3,1.3,4.4-.3,8-1.5,10.7-3.6,4.7,5.8,10.5,7.5,17.5,5.2,6.1,2.2,10.9,2.1,14.1-.2l2.8-2.6c.9-.7,1.8-1,2.6-.7,5.2-.4,8.8-1.8,11-4.2.7-.7,1.7-2.5,3.1-5.5,5.5.5,11-.9,16.6-4.4,5.5-3.4,8.7-7.4,9.8-12.1,1.5.5,3.1.7,5,.6,7.7-.1,13.1-4.1,16.2-12,2.1-4.5,4.8-7.6,8.1-9.1,2.6-1.3,5.8-1.7,9.7-1.3,2.3.2,5.8.9,10.5,1.9l10.6.4c5.3-1,9.9-2.9,13.9-5.8,3.9-2.8,6.6-6.2,8.2-10,1.6-4,1.8-8,.4-12-1.3-4.3-4.4-8.2-9-11.6-11.2-8.4-18-15.8-20.2-22.1-2.2-6.4,1-9.6,9.8-9.5,16,0,27.3-.8,33.8-2.5,8-2.1,10.9-5.7,8.8-10.8-2.3-4.8-5.3-7.9-9.2-9.1l-4.4-1.2c-1.6-.6-2.8-1.5-3.7-2.8-2.4-2.3-5.4-3.1-9-2.4l-4.3.9c-1.7.2-3.1,0-4.4-.4h-.2ZM530,82.8q0-.2,0,0ZM506.7,110.1c2.5.5,3.9,1.6,4.3,3.4v.7c-1.9-.1-3.2-.8-3.9-2.2-.4-.6-.6-1.3-.4-2h0ZM319.6,123.2h1.2c-.9-.1-1.2-.5-1.2-.9v.9ZM284.9,111.8v.8-.8ZM269,124l-.2-.2.2-.4v.6h0ZM258.1,121.7q.1,0,0,0ZM642.2,96.5v.2c0,0,0,0,0,0-1.2-.1-1.8-.3-1.9-.7.4-.6.7-.8,1.2-.6s.7.6.7,1.1h0ZM620.1,97.3l-.4.5h.2c0,.1.2-.5.2-.5" fill="#e0d47f" fill-rule="evenodd"/>
  <path d="M581.8,62v.5c.1,1.8-.7,3.2-2.5,4.3-1.8,1-3.4.8-4.7-.8-1-1.3-.9-2.8.3-4.5v-.2c1.3-1.6,2.2-1.7,2.9-.4-.2-1.4.2-2.4,1.1-2.6.7-.3,1.6-.1,2.6.5,1,.6,1.5,1.2,1.5,1.9s-.4,1.1-1.2,1.4h0ZM668.7,65.4c1.5-.5,2.1.7,1.7,3.4h-.2l-2,.7c-1.8,1-2.9,2.6-3.2,5.1h0c-2.1.4-3.4-.3-3.7-2-.6-.4-.9-1-.9-1.9-.9,1.1-2.2,1-4.1-.6-.7-.5-1-1.3-.9-2.4.1-1.1.6-2.1,1.5-2.9,2.1-2.4,4.7-2,7.7,1.1.2-.7.7-1,1.6-.9.2-.4.6-.6,1.2-.6.7,0,1.2.3,1.6,1h-.1ZM660.8,69.2c-.4.5-.6,1.1-.6,1.6l.6-1.4h0ZM727.8,95.8c-1.4-.6-3.1-.6-5.2,0-2,.5-3.1,1.4-3.4,2.6h1.8c1-.3,2-.4,3-.2,2,.3,3,1.7,2.9,4,0,2-.9,3.7-2.5,4.9l-7,4.1,1.8.3,4.4.5c1.8-.3,3.6-1.4,5.6-3.3,3-.6,4.7-2.8,5.1-6.6.3-1.1-.2-2.4-1.5-3.9-1.4-1.4-3.1-2.4-5-2.6h0ZM678.7,112.6c.5-5,3.9-7.2,10.4-6.4.3.8.7,1.6,1.2,2.2h-2c-3.1.4-4.6,1.4-4.4,2.9.1.8.7,1.4,1.8,1.6,1,.2,1.5.8,1.6,2,0,2.8-1.4,3.9-4.5,3.2l-.8-.2-1-.4-.9-.6-.2.2c.4,0,.7.2,1,.4,0,0,.9,1,.9,1,.5.8.6,1.5.2,2.2l-.4.6-.2.2c-1.4-.1-3.1.3-5.2,1.4l-.3-.4c-.3.3-.8.5-1.3.4-.9,0-1.9-.6-2.9-1.6-1-1-1.4-2-1.3-3,0-1.1,1-1.9,2.7-2.4-1.2-1.3-.4-1.9,2.3-2h3.3v-1.2h0ZM674.8,125.6h.2c0,.1-.8,1.5-.8,1.5-1.2,1.7-1.3,3.2-.5,4.5l5.9-.2c1.1-.8,1.7-1.6,1.5-2.6l.2-.2,1.5,2.4c.9,1,2.2,1.4,4.1,1.3v.2c1.1-.2,2,0,2.9.8,1.5,1.4,1.6,3.7.3,7-.9,2.5-2.5,4-4.6,4.7-2.1.7-4.4.5-6.9-.7l-4.6-2.5-1.7-.9c-2.4-1.1-4.8-1.6-7.2-1.3-6.2.8-9.9,4.5-11.1,11.1-5.8-.5-10.7.2-14.7,1.9-.4,1.2-1.3,1.7-2.9,1.4h-.3c-1.7-.4-2.4-1.3-2.3-2.8h-2.5c0,0-.4-1-.4-1-.3,1.4-1.8,2.1-4.4,2-2.5,0-4.4-.7-5.4-1.8-.7-.1-1.2.1-1.7.7,2,.8,2.8,2.3,2.1,4.3-.6,2.1-1.8,3.6-3.8,4.3-1.3.5-3.1.4-5.3-.4l-1.8-.6c-.6.5-1.5.7-2.8.7-2,0-3.7-.8-4.9-2.2-.5,1.2-1.7,1.8-3.7,1.7-2.1,0-4-.8-5.6-2.3-1.3,1-3.1,1.5-5.6,1.3-2.6-.2-4.7-1-6.2-2.5l-2.1-2.5-.7-.3-1.3,1.4c-1.3.9-2.9,1.4-4.8,1.5-5,.2-7.7-1.4-8.2-4.9-.4-2.9,1.2-5.1,4.7-6.8,3-1.4,5.6-1.7,8-.7-.7-.5-.7-1-.2-1.7.6-.8,1.6-1.3,2.9-1.4l4.2.3c1.5,0,2.8-.5,3.9-1.5,2.1-2.1,1.7-3.9-1.3-5.1-2.3-1-4.3-1-5.9,0h-1.4c-1.8,0-3.2.6-4.4,1.6l-3.2,2.8c-1.2.8-2.6,1-4.2.5-1.4-.5-2.7-1.4-3.9-2.6-.8-.8-1.3-1.6-1.7-2.4-3.6,1.7-6.1,1.3-7.5-1.1.2,2-.9,2.6-3.1,2.2-1.9-.4-2.9-1.4-3.1-2.9h.1c0-.1-.1-.1-.1-.1l-1.1-.6c-1.3-.8-1.8-1.8-1.3-3-4.9-.4-7.5-1.9-7.8-4.6-.4-2.9,1.8-6,6.6-9,3.3-2,7.8-3.6,13.4-4.6l.2.9c-3.1.5-6.4,1.7-9.6,3.7-6,2.5-8.8,5.2-8.2,7.9.4,2.2,2.5,3.6,6.3,4.3l.3-.3c2.5-2.8,6-3.3,10.7-1.6.2-.7.9-1.4,1.8-2.3,2.4-2.2,4.6-3.3,6.6-3.4,2.5,0,4.7.3,6.5,1.2l3.2,2.2,1.8,1v-.8c.4-1,.9-2,2-2.8,1.2-1.1,3.3-1.5,6.2-1.2,2.8.2,4.8,1.1,6.2,2.9l1.3,2.4c.5.6,1,.7,1.4.3v-.6c.3-2.6,2.5-3.2,6.5-2v.2-.2c1-.9,2.5-1.2,4.4-.9,1.5.2,2.5.7,2.9,1.6.6-.4,1.6-.5,3-.4,1.3,0,2.4.7,3.1,1.7.6,1,.7,2.4.4,3.8-1,3.7-4.2,6.7-9.7,8.9-4.7,2.4-6.6,4.8-5.4,7.1.5.9,1.3,1.6,2.6,1.9l2.6.3c-.4-.6-.5-1.1-.4-1.7.1-.9.7-1.6,1.8-2,2.8-1.2,6.7-.6,11.8,1.8-.6-1.7.4-3,2.6-4,2.5-1,5.6-.7,9.2.7-1.2-1.1-1-2.4.9-3.5,1.8-1.2,4.2-1.2,6.9,0,2.5,1.6,4.5,2.3,6.4,2.3s4-.7,6.1-2.3c2.1,1.1,4.2.7,6-1,1.1-1,1.8-2.2,2-3.3-1,1-2.5.9-4.3,0-2.8-1.5-3.6-3.7-2.5-6.6,1.6-3.9,5.2-5.2,10.8-4,2.1.5,5.2,2.4,9.6,5.8,3.7,2.2,6.7,1.5,9-2.3,1.5.5,2.8.4,4-.6,1.2-.9,1.7-2.1,1.7-3.6-.8-.3-1.4-.7-1.9-1.4-.7-1-.7-2.2-.3-3.6.5-1.4,1.2-2.5,2.1-3.1,1-.7,2.3-.8,3.9-.3l3.4.4-19.4,11.9ZM577.8,159.8l.4.6-.7.2c-.7.2-1.3,0-1.9-.5-.3-.3-.1-.6.6-1,.7-.3,1.2,0,1.7.7ZM507.2,112.1c-.4-.7-.5-1.3-.4-2,2.5.5,3.9,1.6,4.3,3.4v.7c-1.9-.1-3.2-.8-3.9-2.1" fill="#e4da8d" fill-rule="evenodd"/>
  <path d="M673.4,45.4c-1.3-1.6-2.5-2.2-3.3-2-.2,0-.9.6-2.1,1.8l-6,.5c-.8.2-1.8.2-3.1,0-1.3-.1-2.5-.1-3.3,0-1.1.2-2.5.2-4.1,0l-2.1-.3c-.9-1.6-2.3-2.5-4.4-2.7-2-.3-3.1.2-3.2,1.4-.2-.6-.9-.8-1.7-.7-.9.1-1.4.5-1.7,1.1l-8.3-.2-1.8-1.6c-.4-.2-1-.1-1.8.4-2.9-.4-4.5-.2-4.7.5l-6.2-.3-3-.2h-.2c-1.2-1.1-2.3-2-3.3-2.5-1.7-.7-2.7-.2-3.3,1.3-.4.2-1,.3-1.8.4-.6,0-1,.2-1.2.7-.9-1.6-1.5-1.6-2.1,0-1.9-1.3-3.4-1.7-4.7-1.4-1.3.7-2.7,1.1-3.9,1.3-3,.2-4.9.2-5.7,0-1.1-.1-1.5-.5-1.3-1.2-.6.2-1.2.1-2-.3-.7-.4-1.2-.9-1.3-1.4-.6-1.5,1.3-1.7,5.7-.7,1.5.2,2.6,0,3.1-.6.4-.5.4-1.1,0-2-.4-.8-1-1.6-2-2.1-.4-.3-.8-.5-1.2-.5l-.5-.6c-.7-.6-1.7-.9-2.6-.8v-1c0-.2-.4-.1-.7.2-.9.7-1.7.7-2.6,0-.9-.6-.6-1.3,1-1.9,1.8,0,2.3-.5,1.7-1.5-.7-1-2.4-2-5.2-2.9-2-1.2-2.3-2.1-1-2.7,1.3-.6,3.1-.5,5.6.5,2.3,1.4,6.5,2,12.4,1.6l.6.3h2.1c1.5-1.1,5.1-2.2,10.8-3.5-2.1,0-3.9-.4-5.6-1-1.9-1.6-5.5-1.9-10.7-.7-1.5,1-2.6,1.4-3.1,1.3l-.5-.5-3.8.3h-.2c-2.5,0-3.4-.2-2.6-.8,1.1.4,2,.5,2.6.3h.2c.7-.2.4-.7-.8-1.3-.7-.8-1-1.3-.9-1.6,0-.2.4-.3,1.2-.2,2.5,0,4.2-.2,5.2-.9.7-1.1,3.2-1.6,7.5-1.6h.6l5.7.2c-1.3-1.2-2.4-1.7-3.2-1.5-1.3.7-2.1,1-2.5,1h-.5l-2.7-.7c-3.4-2.4-6.8-2.4-10.1,0-.7.5-1.2.8-1.5.7l-.7-.7c-.9-1.3-2.7-2.1-5.3-2.2l-3.4-.8c-.7-.2-1.1-.5-1-.8,0-.4,1.8-2.3,5.5-5.6,1.3-1.6,1.7-2.7.8-3.6-.7-.7-2.1-1.1-4.3-1.3l-6.2.5c-2.3.5-3.9,1.1-4.8,1.9-1.4,1.7-1.6,2.8-.6,3.4.7.5,2,.4,3.8-.2l-1.4-1c-1.3-1.7,1-2.4,7-1.9,3,.3,3.6,1.5,1.9,3.6-1.5,1.8-3.2,3-5.3,3.7,0,1-.6,1.9-1.8,2.7l-3.9,2.2c-.9-.8-2.3-1-4.4-.4-2.3.6-4.4,2-6.5,4-.2-1-1.8-1.6-4.6-1.7l-6.6.3c-1.7-1.1-4.5-.8-8.6,1-.4-.5-2.1-.5-5.2,0l-14,1.4c3.9,0,12.1.1,24.4.5l3.6-1c2.1-.5,3.4-.6,3.9-.2-1.7.8-.2,1.4,4.4,1.6,4.6.3,8.5,0,11.5-.7.6.4.7.9.2,1.3,0,.5,2,1.2,5.8,2.1,1.8,1.6,2.6,3.2,2.5,4.8-.2,1.4-1.2,2.6-3.1,3.7-1.7,1-3.8,1.7-6.3,2-2.6.3-5.1.2-7.4-.5l-3.1-1.6c-1-.5-1.8-.7-2.3-.7-1.3,0-2.6,2-3.8,5.6-.6-1.6-1.7-2.5-3.3-2.8-2-.2-4,.7-6.3,2.8-4-1.7-6.6-1.9-7.8-.3-.4.5-.6,1.2-.6,2s0,.7.1.9c-.6.5-1,1.1-1.3,1.8-.1-1.1-.9-1.5-2-1.3-1.2.2-2.5,1-3.9,2.5-.3.6-.3,1.3,0,2,.2.5.7.8,1.2,1.1-.6.7-1.8.9-3.6.7-2.3-.3-4.4-1-6-2.1-1.7,2.5-2.9,3.4-3.6,2.7.2-2.4-.9-4.1-3.4-5.3-1.7-.8-3-.9-4-.4l-3.8.5h0l-3.9.5c-1.3,0-2.5-.5-3.4-1.8-3.8-4.1-8.4-5.7-13.7-4.9l-4.1.5h-.8c0-.1-.1-.1-.1-.1-.9-1.7-1.9-2.8-3.1-3.1-1.3-.3-2.5,0-3.4,1,1.1-2.5.4-3.2-2.1-2.2,0-2.3-1.3-2.7-3.9-1.3-.9-1-2-1.2-3.1-.7-1.2.6-1.5,1.4-.8,2.6-1.7-.6-2.8-.4-3.3.5-.4.8-.3,1.4.4,1.9-.9,1.4-.4,2.2,1.4,2.6,1.8.4,3.3,0,4.3-1.4.6-.8,1.2-1.3,2-1.5h1.2c.6,0,.9.3,1.1.6.1.3.1.7,0,1.1-.1.9.6,1.3,2,1,1.3-.2,2.2-.5,2.7-1,.6,0,1.7.3,3.3,1.1,1.1.6,2,.8,2.8.7-.9.3-1.3.8-1,1.4.2.6.9.9,2,.9,0,.2,0,.6,0,1.3,0,.5-.6.8-1.5.7,0,.6-.2,1.3-.8,1.8-.7.6-1.3.9-2,.9-2-1.3-4.9-1.9-9-1.7-1.7,0-2.8.2-3.3.7-.6.5-.2,1.3,1,2.3l-1,.2c-2.6-1-5.2-1.4-7.7-1.3-2.6,0-4.2.8-4.6,2.2l-1.5-.2c-1.5.1-2.6,1-3.2,2.8-.9-.4-1.7-.4-2.3.1-.3.3-.6.5-.6.8-1.5-.6-3.5-.5-6,.2-3.9-.9-7.5-1-10.5-.3-2.2.5-5.3,1.7-9.3,3.7-1.7.2-3.7.6-6,1.4l-.6.2v-.2l-8.2.6-6.9.5-2.5-.2-1.7-.5c-4.5-.6-8.5-.7-12.1-.2l-4.4,1,10.7.7,14.7,1,2-.3c4.2.5,8.8.3,13.7-.6l3.4.6,7.4-.2,10.3-1.3c5.5,1,9.4,1.7,11.8,1.9,4,.4,7.2,0,9.3-1.4-1.1.8-1.8,1.4-1.9,1.7-.1.3,0,.6.6,1-.4.2-.7.5-.6.8,0,.2.3.5.7.7.4.2.9.3,1.3.2.3,0,.6-.1.8-.2.2.1.6.2.9.2.4.9,1.2,1.4,2.5,1.5,1,0,2.1-.2,3.2-.7l.7-.5c1,1.1,2.1,2,3.1,2.6,2.1,1.3,3.7,1.5,5,.5l.7-.6,1.3,1.6c1.5,2,.9,2.8-1.6,2.6-1.8-.6-3.2-.7-4.1-.2-2.2-1.7-4.4-2.1-6.4-1.3-.9.3-1.4.8-1.7,1.6-.2.5-.2,1,0,1.5-3-.2-5.6.3-7.7,1.7-1,.6-2,1-2.7,1-1.2,0-2.8-.4-4.7-1.3-1.5-1.3-3.1-1.8-4.7-1.6-1.5.1-2,.7-1.5,1.6-2.3-1.4-4.4-1-6.2,1.3.5-2,0-3.3-1.2-3.9-1-.5-1.9-.3-2.8.4-.7-.3-1.5-.5-2.3-.4-1.1.1-2,.5-2.6,1.2-.7.7-.8,1.3-.4,1.9.5.7,1.7,1.1,3.4,1.2-.6.7-.7,1.4-.2,1.9.3.5.9.7,1.7.8.8,0,1.5-.2,2.1-.6.7-.5,1-1.3.9-2.4.4,1.6.7,2.4,1,2.6.2.1.6,0,1-.6.5.6,1,.8,1.8.7.7,0,.9-.7.6-1.7,2.5,3.4,3.9,3.6,4.3.8.2.2.6.3.7.4h.1c1,.3,2.4,0,3.9-.8l8.8-.5c2-1.3,3.2-2,3.4-2,.6-.1,1.4.3,2.5,1.3l.3.7c.3.8.9,1.4,1.7,2,1.2.8,2.3.9,3.1.2l.7-.5.6.7c1.8,2.2,3.9,3.5,6.4,4,2.9.5,4.7-.4,5.5-2.9,3.7,1.6,6.2,1.5,7.5-.1h1c0,0,2.3-.8,2.3-.8,1.2.1,2.1-.2,2.6-.9h1.5c.9-.2,1.4-.6,1.8-1.3,1.2.6,2.3.7,3.2.3.9-.5.7-1.1-.4-2,.7.1,1.3,0,2-.4.7-.5.7-1,0-1.6,1.2.1,1.7-.2,1.7-.9s-.6-1-1.7-.9c-2.8-1.2-4.5-1-4.9.5l.3,1.6c.1.2.3.3.6.3-1.3,1.2-2.3,1.3-3,.3-.2-.4-.6,0-1,1.3v.2h0c-.4-.3-.9-.2-1.5,0-1.3-1.8-2.4-2.6-3.4-2.5.1-1.3,0-2.8-.7-4.3-.9-2.2-2.1-2.6-3.7-1.2.2-2.8-.7-4.1-3.1-3.9-.9.2-1.2,0-1-.5,0-.5.5-1,1.2-1.6,2-1.6,3.4-1.3,4.2.7,3.2,3.2,5.3,2.8,6.4-1.1,2.3,1.4,3.9,2.2,4.9,2.2,1.3,0,2.1-1.3,2.3-3.8,1.4,1,2.5,1.3,3.3,1,.4-.2,1-.8,1.9-2,.9.7,1.7,1,2.3.9.6,0,1.3-.6,2.1-1.6,1.3-.7,2.5-.9,3.3-.3h.2c.4.4,1,1,1.8,1.9-1,0-1.8.3-2.5.6-1.8.7-1.5,1.6.9,2.5-2.5.9-3.8,1.7-3.9,2.7-.1.8.6,1.6,2,2.2,1.3.6,2.8.9,4.4,1,1.3,0,2.3-.1,2.9-.5l.4-.3h0c0,0,.1,0,.1,0,.7-.6,1.2-1.7,1.2-3.3s0-.8.4-.8,1,.2,2,.7c2.1,1.1,3,2.1,2.7,3-.2.8-1.2,1-2.9.4h-2.1c0,0-.7.3-.7.3l-.5.6c-.6,1.2.4,1.8,2.8,1.8s5.6-.3,7-1c.6-.3,1.2-.7,1.5-1.1,2.1,0,4.1.2,6.2.8.7.2,2.9,1,6.5,2.5,2.3,1,4.2,1.4,5.8,1.3,1.7-.1,3.3-.8,5.1-2l4.6.7c2.3,0,4.6-1.1,6.9-3.2,2.1-1.3,4.5-2,7.4-2s4.2.3,7.8,1c3.4.6,6,.9,7.8.8,2.8-.1,5.2-1,7.2-2.5-1,.2-1.7-.5-1.8-1.9-.2-1.8-1.3-2.2-3.1-1.3-.7-.5-1.6-.8-2.6-.7-1,0-1.3.5-.9,1.3-.8,0-1.2.2-1.3.7-.2.5,0,.8.9.9v.2c0,0-1.1,0-1.1,0-.8,0-1.6-.2-2.3-.6-.7-.3-1.5-.6-2.2-.7h-1c-.4.2-.7.5-.9.5h-1.3c-.5,0-1.3,0-2.2-.2h-.8c.2-.5.1-1-.2-1.5-.1-.2-.2-.3-.4-.3,0-.5-.1-.7-.4-.8-.2-.1-.4,0-.6.4,0-.1-.2-.2-.6-.2h-.4c-1-.5-1.7-.8-2-1-.7-.5-.6-1.1.3-1.7.7-.4,1.2-.5,1.6-.4.3.1.4.3.4.7,0-.6.4-1,1.1-1h.4c.7-.6,1.5-1,2.1-.9.5,0,1.3.3,2.3.8,1.2.3,2.3.5,3.2.4.5.5,1,.8,1.3,1,.7.5,1.3.5,1.7.1l.4.2c.1.2.3.2.4.3h0c1.8,1.1,3.5,1.3,5,.5,1-.4,2.3-.6,3.7-.4.7,0,2.1.3,4.3.8,1.5.3,2.1.3,1.7,0-.4-.4-1.4-.8-3.1-1.3-1.3-.3-1.8-.5-1.7-.7l.4-.2c.1-.1.2-.2,0-.4,1,.3,1.9.4,2.7.3,1-.1,1.2-.6.8-1.3.7.2,1.5.3,2.1.2h.4c.7.3,1.2.6,1.7.6.7,0,1-.3.9-1.1.6.5,1,.7,1.4.6s.4-.4.3-.8c.7.2,1.9.5,3.7.6,2,.2,3.5.2,4.4,0,1.7.1,4.2.2,7.7.2.5.5,1,.7,1.3.6.4-.1.4-.6.1-1.3" fill="#c6b342" fill-rule="evenodd"/>
  <path d="M5.7,89.4c0,1.7.6,2.9,1.9,3.9l5.2,3.3c2.1-.2,4,.7,5.8,2.5.8,0,1.3.6,1.6,1.6v.3c1.1.7,2.3.9,3.7.6,2-.7,3.5-1,4.5-1.1,1.3,0,2.6.4,3.8,1.2,1.4.9,1.6,1.9.6,2.9v.2c.2,1,1,1.4,2.4,1.1l4-1.4.3-.3-.3-.5c-.2-.6-.2-1.1.2-1.7l-.2-.5-.6.2c-2.3.6-3.4-.3-3.4-2.6,0-.9.4-1.4,1.2-1.5.8-.2,1.3-.6,1.4-1.3.2-1.2-.9-2-3.3-2.3h-1.5c.4-.5.7-1.1.9-1.7.6-1.7.2-3.3-1-4.8-1.7-2-4.8-2.6-9.4-2-1.7.3-3.4.3-5.1,0l-2.3-.6.2.8c.2,1.3-.2,2.4-1.3,3.4-1,1-2.2,1.4-3.4,1.2-1,0-1.8-.7-2.3-1.8-.6-1.1-.3-1.9.9-2.3-.7-.3-1.5-.4-2.3-.3-1.5.3-2.2,1.3-2.2,3.2h0ZM268.7,69.4c.2,1-.2,1.5-1.1,1.6v.3s2.8-.3,2.8-.3l.6.9c.8.8,1.7.9,2.7.1.8-.6,1-1.4.7-2.4-.3-1-.9-1.4-1.9-1.1,0-.9-.4-1.3-1.2-1.2-.8,0-1.4.4-1.8,1-.7-1.1-1.3-1.1-1.9-.2-.4.6-.3,1,.3,1.1.8.1,1.1.3,1.1.4h-.2ZM259,109.8c-1.9-.1-3.1-1-3.6-2.7-.8,1.8-2,2.5-3.4,2.2l-.7-.2c-.6.3-1.4.3-2.3,0-.9-.3-1.5-.7-1.8-1.3l-.2-.8c-1.1,1.4-2.7,2.3-4.8,2.8l-1.7.3h-1.5c-.9.6-.9,1.1,0,1.6h0c1,.6,1.8.4,2.4-.4-1,1.4-.7,2.6.8,3.3,1.6.8,2.9.6,3.8-.7.7,1.1,1.7,1.3,2.9.6,1.2-.7,1.8-1.7,1.8-2.9.6,1,1.4,1.1,2.5.3l1.1-1c.8,1.2,1.9,1.2,3.3.1l1.3-1.3h0ZM285.7,90.4v.7c-1.1,0-1.9.7-2.3,1.9-.2.5-.1.8,0,1l1-.2c-.2,1.3.2,2.4,1.4,3.4,1.2,1.1,2.4,1.3,3.7.7,1-.5,1.3-1.1.9-1.8-.6-1.1-.9-1.9-.8-2.3,2.9,1.5,3.7.6,2.6-2.6.9-.1,1.3-.4,1.1-.7l-.4-.6c-.7-.6-1.4-1-2.3-1.1-.6,0-1.5.2-2.6.8-1.1.6-1.9.8-2.5.8h0ZM376.4,107.3l.3.3.9.2.7-.4c.3.5.6.7,1.2.6.6,0,.9-.4,1.1-.9h3.6c0,.9,0,1.4.5,1.5.4,0,.8-.1,1.4-.6.6-.5.8-.9.8-1.3,0-.5-.3-.6-1-.6,1-.4,1.1-.9.5-1.6-.7-.7-1.5-.9-2.3-.7l-.2,1.3c-1.2-.3-1.8,0-1.7,1.2l-4.6.2c.9-1.1,0-1.7-2.4-1.7-2.4,0-3.9.2-4.4.6.6-1.1.2-1.6-1.1-1.5-.5,0-.8.2-1,.4-.2.2-.1.5.3.7l-2.3.2c-.2-.8-.9-1.2-2-1.1l-2.6.5c-.5-1.2-1.2-1.3-2.1-.3,0-.8-.6-1.2-1.3-1.3-.6,0-.9,0-1.1.4v.7l-.2.6c.6.6.8,1.2.7,1.9l7.5-.3c1.4.6,2.6.9,3.5,1.1,1.7.3,2.6,0,2.8-1.1h1.6v.7l3,.3v-.3" fill="#efeab8" fill-rule="evenodd"/>
  <path d="M65.5,49.3c6.3-3.4,11.2-5.9,14.5-7.5,5.9-2.9,10.3-4.4,13.3-4.8l14.6-1.3c2.9-.2,5.2-.6,6.8-1.1-1.9,1-3.6,1.5-5.2,1.7l-6.6.6c-10.2,2.2-16.2,4.2-18.2,6.3-3.3,1.7-5.5,2.9-6.6,3.9-1.6,1.3-.4,1.5,3.5.6,4.2-.9,8.6-1.4,13.3-1.5h0v.2s-7.3,1.3-7.3,1.3c-4.6,1.1-5.8,2-3.7,2.8,2.9-.4,6-.4,9.2,0v.2l-9.8,1.1c-4.9.8-4.1,1.2,2.2,1.2l20.1.7c5.1.6,9.2.5,12.5-.2l13.8-1.2c2.8-.4,3.1-1.2,1.1-2.4-1.5-1-1.3-1.8.5-2.4l5.5-.5c4.8,0,8.4-.7,10.5-2,.8-.5.8-.8,0-1-1-.2-2.8-.2-5.5,0-9.2.4-18.2-.2-27.1-1.7-3.4-.6-5-1.1-4.8-1.5l7.6-.4,23.3.9,12.2-.3c3.4-.9,6.6-1.1,9.6-.7l7,1.1c-5.5-.4-9.4-.2-11.8.6-1.7.6-3.8,2-6.2,4.4-1.9,1.8-3.8,2.9-5.4,3.2l-5.2.5c-3.4.7-5.3,1.4-5.7,1.9-.4.7,1.2,1.3,4.9,1.9l11.5,1.3-13.8.8c-3.6.7-6.1,1.4-7.5,2.1-1.7.7-1.1,1.2,1.5,1.3,1.2,0,2.4-.4,3.7-.7l2.8-.8c2.1-.5,4.8,0,8,1.3,2.7,1,4.6,2.3,5.7,4,1,1.4,3.3,2.9,6.9,4.2-7.1-2.5-11.2-3.8-12.2-3.9-1.1-.1-2.1,0-3.1.5-.6.3-1.7,1.1-3.4,2.3-6.3,3.3-14.3,3.9-24,2.1v-.4c-.1,0,4.6-1.8,4.6-1.8,2.6-1.2,4.6-1.8,6.1-2,2.9-.3,4.7-1.1,5.5-2.4.8-1.2-1.4-1.4-6.5-.5l-12.6.7c-1.5-.1-2.9-.5-4.3-1-3.5.4-6.8.2-9.8-.8-1.8-.6-4.3-1.6-7.7-3.1-4.4-.7-8.2-.8-11.4,0-1.8.4-4.2,1.1-7.1,2.3l-14.9.7c-1.7.1-2.4.5-2,1.1.5.6,2.4,1.8,5.9,3.4l16.4,5c2.7.8,5.5,1.1,8.6,1,5.3-.1,9,.4,10.8,1.8,2.3,1.7.2,3.7-6.1,6.3-3.6,1.6-6.8,3.7-9.5,6.3-2.6,2.6-4.5,5.4-5.5,8.3-1.1,3.1-1.1,5.8,0,8.3,1.1,2.8,3.5,4.9,6.9,6.5,9,4.3,15.1,6.4,18.3,6.3,1.2,0,2.4-.4,3.6-1,2-1,3.2-1.5,3.8-1.7l1.8-.5c.6-2,1.7-4,3.5-5.9,2.9-3,5.7-4.1,8.6-3.5,2.3-2.9,6-2.8,11.2.4,0-1.9.6-3.8,1.7-5.7,2.2-3.9,5.2-5.6,9-4.9,1.2-2.9,2.9-4.5,5.2-4.8l6.5.4c.4-1.3,1.1-2.5,2.3-3.6,1.7-1.6,3.6-2.6,5.8-3.2,2.5-.6,4.9-.3,7.1.7,2.6,1.2,4.7,3.3,6.3,6.2,6.4-2.5,11.2-1.3,14.4,3.4,1.9,2.8,2.9,5.7,3,9h3.5c2.8.6,4.7,1.6,5.7,3.3,2.2-.9,4.4-1,6.8-.4,2.4.6,4.5,1.8,6.2,3.5,4.1,1.3,6.4,4.4,6.8,9.3,2.6,1.9,2.9,4.5.7,7.5-.8,1.1-1.8,2.2-3,3-1.1.8-2.1,1.3-2.9,1.4,2.3,2.5,3.3,5.5,2.9,9-.3,3.3-1.7,5.7-4,7.4-1.6,3.7-4.2,5.8-7.9,6.2l-4.2-.3c-.3,2.4-1.3,4.8-3,7.1-2.3,3.1-4.8,4.7-7.6,5-1.5,1.7-3.5,3-6.1,3.9-2.5.9-5.1,1.2-7.7,1.1-3.3-.2-6-1.2-8-2.9-3.5,4.6-7.9,6-13.1,4.1-4.6,1.7-8.1,1.7-10.6-.2l-2.1-2.1c-.6-.6-1.3-.8-1.9-.6-3.9-.3-6.6-1.5-8.2-3.4-.5-.6-1.2-2-2.3-4.4-4.1.4-8.2-.7-12.5-3.5-4.1-2.7-6.5-5.9-7.4-9.7-1.1.4-2.3.6-3.7.5-5.7,0-9.8-3.3-12.2-9.6-1.6-3.6-3.6-6.1-6.1-7.3-1.9-1-4.4-1.3-7.3-1-1.7.2-4.3.7-7.9,1.5l-8,.3c-4-.8-7.4-2.3-10.4-4.6-2.9-2.3-4.9-4.9-6.1-8-1.2-3.2-1.3-6.4-.3-9.6,1-3.4,3.3-6.5,6.7-9.3,8.4-6.7,13.5-12.6,15.2-17.7,1.7-5.2-.8-7.7-7.4-7.6-12,0-20.5-.6-25.4-2-6-1.7-8.2-4.6-6.6-8.6,1.7-3.9,4-6.3,6.9-7.3l3.3-1c1.2-.5,2.1-1.2,2.8-2.2,1.8-1.8,4-2.5,6.8-1.9l3.2.7c1.2.2,2.3,0,3.3-.3h.2ZM153.4,73.9q0-.1,0,0ZM170.8,95.7c-1.9.4-2.9,1.3-3.2,2.7v.6c1.4,0,2.4-.6,2.9-1.7.3-.5.4-1,.3-1.6h0ZM311.1,106.2h-.9c.6,0,.9-.4.9-.7v.7ZM337.1,97v.6-.6ZM349,106.8h.2c0-.1-.1-.5-.1-.5v.5h0ZM357.2,105q0,0,0,0ZM69.1,84.8h0c0,.1,0,.1,0,.1.9,0,1.3-.3,1.4-.6-.3-.5-.6-.6-.9-.5-.3.2-.5.5-.6.9h0ZM85.7,85.4l.3.4h-.2c0,0-.1-.4-.1-.4" fill="#e0d47f" fill-rule="evenodd"/>
  <path d="M114.4,57.2v.4c0,1.4.6,2.6,1.9,3.4,1.4.8,2.6.6,3.5-.6.8-1,.7-2.3-.2-3.6h0c-.9-1.4-1.6-1.5-2.1-.5.1-1.1-.1-1.9-.8-2.1-.6-.2-1.2,0-2,.4-.7.5-1.1,1-1.1,1.5s.3.9.9,1.1h0ZM49.3,59.9c-1.1-.4-1.6.6-1.2,2.7h.2l1.5.6c1.4.8,2.2,2.1,2.4,4h0c1.6.3,2.6-.2,2.8-1.6.4-.3.6-.8.7-1.5.6.9,1.7.8,3.1-.5.6-.4.8-1,.7-1.9,0-.9-.5-1.7-1.1-2.3-1.6-1.9-3.5-1.6-5.8.9-.2-.6-.6-.8-1.2-.7-.2-.3-.5-.5-.9-.5-.5,0-.9.3-1.2.8h0ZM55.2,63c.3.4.5.9.4,1.2l-.4-1.1h0ZM4.9,84.3c1.1-.5,2.3-.5,3.9,0,1.5.4,2.3,1.1,2.6,2.1h-1.4c-.7-.2-1.5-.3-2.3-.2-1.5.2-2.3,1.3-2.2,3.2,0,1.6.6,2.9,1.9,3.9l5.2,3.3-1.4.2-3.3.4c-1.4-.2-2.7-1.1-4.2-2.6-2.3-.5-3.5-2.3-3.8-5.2-.2-.9.1-1.9,1.1-3.1,1.1-1.1,2.3-1.9,3.7-2.1h0ZM41.8,97.7c-.4-4-2.9-5.7-7.8-5.2-.2.6-.6,1.2-.9,1.7h1.5c2.3.3,3.4,1.1,3.3,2.3,0,.6-.6,1.1-1.4,1.3-.8.2-1.1.6-1.2,1.6,0,2.3,1.1,3.1,3.4,2.6l.6-.2.8-.3.7-.5v.2c-.2,0-.4.2-.6.3,0,0-.6.8-.6.8-.4.6-.4,1.2-.2,1.7l.3.5.2.2c1.1,0,2.3.3,3.9,1.1l.2-.3c.2.2.6.4,1,.3.7,0,1.4-.5,2.2-1.3.7-.8,1.1-1.6,1-2.4,0-.9-.7-1.5-2-1.9.9-1,.3-1.5-1.7-1.6h-2.5v-1h0ZM44.7,108.1h-.2c0,0,.6,1.2.6,1.2.9,1.4,1,2.6.4,3.6l-4.4-.2c-.8-.6-1.2-1.3-1.1-2.1h-.2c0-.1-1.1,1.7-1.1,1.7-.6.8-1.7,1.1-3.1,1.1v.2c-.8-.2-1.5,0-2.2.6-1.1,1.1-1.2,3-.2,5.6.7,2,1.8,3.2,3.4,3.8,1.6.6,3.3.4,5.2-.6l3.4-2,1.3-.7c1.8-.9,3.6-1.3,5.4-1,4.6.6,7.4,3.6,8.3,8.9,4.4-.4,8,.1,11,1.5.3,1,1,1.4,2.2,1.1h.2c1.2-.3,1.8-1,1.7-2.2h1.8s.3-.8.3-.8c.2,1.1,1.3,1.7,3.3,1.6,1.9,0,3.3-.6,4-1.5.5,0,.9,0,1.3.6-1.5.6-2.1,1.8-1.6,3.4.4,1.7,1.4,2.9,2.9,3.4,1,.4,2.3.3,4-.3l1.4-.5c.5.4,1.1.6,2.1.6,1.5,0,2.8-.6,3.7-1.8.4,1,1.3,1.4,2.8,1.4,1.6,0,3-.6,4.2-1.8,1,.8,2.3,1.2,4.2,1,2-.2,3.5-.8,4.6-2l1.6-2,.6-.2,1,1.1c1,.7,2.2,1.1,3.6,1.2,3.8.2,5.8-1.1,6.1-3.9.3-2.3-.9-4.1-3.5-5.4-2.3-1.1-4.2-1.3-6-.6.5-.4.6-.8.2-1.3-.5-.6-1.2-1-2.2-1.1l-3.1.2c-1.1,0-2.1-.4-2.9-1.2-1.6-1.7-1.3-3.1,1-4,1.7-.8,3.2-.8,4.4,0h1.1c1.3,0,2.4.5,3.3,1.3l2.4,2.3c.9.6,2,.8,3.1.4,1.1-.4,2-1.1,2.9-2.1.6-.6,1-1.3,1.2-1.9,2.7,1.4,4.6,1.1,5.7-.9-.1,1.6.6,2.1,2.3,1.7,1.4-.3,2.2-1.1,2.3-2.3h0c0,0,0,0,0,0l.8-.5c1-.6,1.3-1.5,1-2.4,3.7-.3,5.6-1.5,5.9-3.7.3-2.3-1.3-4.8-5-7.2-2.5-1.6-5.8-2.9-10.1-3.7l-.2.7c2.3.4,4.8,1.4,7.2,2.9,4.5,2,6.6,4.1,6.2,6.3-.3,1.7-1.9,2.9-4.7,3.4l-.2-.3c-1.9-2.3-4.5-2.7-8-1.2-.2-.6-.6-1.1-1.4-1.8-1.8-1.7-3.4-2.7-5-2.7-1.9,0-3.5.3-4.9,1l-2.4,1.8-1.3.8v-.6c-.3-.8-.7-1.6-1.5-2.2-.9-.9-2.5-1.2-4.6-1-2.1.2-3.6.9-4.6,2.3l-1,1.9c-.4.5-.7.6-1.1.3v-.5c-.2-2.1-1.9-2.6-4.9-1.6v.2-.2c-.7-.7-1.8-1-3.3-.7-1.1.2-1.9.6-2.2,1.3-.4-.3-1.2-.4-2.3-.3-1,0-1.8.6-2.3,1.4-.5.8-.6,1.9-.3,3,.7,3,3.2,5.4,7.3,7.1,3.5,1.9,4.9,3.8,4,5.7-.4.7-1,1.2-1.9,1.5l-2,.2c.3-.5.4-.9.3-1.4,0-.7-.6-1.3-1.4-1.6-2.1-1-5-.5-8.9,1.5.4-1.4-.3-2.4-2-3.2-1.9-.8-4.2-.6-6.9.6.9-.9.7-1.9-.6-2.8-1.4-1-3.1-1-5.2,0-1.8,1.2-3.4,1.8-4.8,1.8s-3-.6-4.6-1.8c-1.6.9-3.2.6-4.5-.8-.8-.8-1.3-1.7-1.5-2.7.8.8,1.8.7,3.2,0,2.1-1.2,2.7-2.9,1.8-5.2-1.2-3.1-3.9-4.2-8.1-3.2-1.6.4-3.9,1.9-7.2,4.6-2.8,1.8-5,1.2-6.7-1.8-1.1.4-2.1.3-3-.5-.9-.7-1.3-1.7-1.3-2.9.6-.2,1.1-.6,1.4-1.1.5-.8.6-1.7.2-2.9-.4-1.1-.9-2-1.6-2.5-.8-.6-1.7-.6-2.9-.3l-2.6.3,14.6,9.5ZM117.5,135.4l-.3.5.6.2c.6.1,1,0,1.4-.4.2-.2,0-.5-.4-.8-.5-.2-.9,0-1.3.6ZM170.5,97.3c.3-.6.4-1.1.3-1.6-1.9.4-2.9,1.3-3.2,2.8v.6c1.4,0,2.4-.6,2.9-1.7" fill="#e4da8d" fill-rule="evenodd"/>
  <path d="M45.8,43.9c1-1.3,1.8-1.8,2.5-1.6.2,0,.7.5,1.6,1.4l4.5.4c.6.1,1.4.1,2.3,0,1,0,1.9,0,2.5,0,.8.2,1.8.2,3.1,0l1.6-.2c.6-1.2,1.7-2,3.3-2.2,1.5-.2,2.3.2,2.4,1.1.2-.5.6-.6,1.3-.6.6,0,1.1.4,1.3.9l6.2-.2,1.4-1.3c.3-.2.8,0,1.4.3,2.2-.3,3.4-.2,3.5.4l4.6-.2,2.3-.2h.1c.9-.9,1.7-1.6,2.5-2,1.2-.6,2-.2,2.5,1.1.3.2.8.3,1.4.3.4,0,.7.2.9.6.6-1.2,1.1-1.2,1.6,0,1.4-1,2.6-1.4,3.5-1.1,1,.6,2,.9,2.9,1.1,2.3.1,3.7.2,4.3,0,.8,0,1.1-.4,1-1,.4.2.9,0,1.5-.2.6-.3.9-.7,1-1.1.4-1.2-1-1.4-4.3-.6-1.1.2-2,0-2.3-.5-.3-.4-.3-.9,0-1.6.3-.6.8-1.2,1.5-1.7.3-.2.6-.4.9-.4l.4-.5c.6-.5,1.2-.7,2-.6v-.8c0-.2.3,0,.6.2.6.6,1.3.6,2,0,.7-.5.4-1-.8-1.5-1.3,0-1.7-.4-1.3-1.2.5-.8,1.8-1.6,3.9-2.3,1.5-1,1.7-1.7.7-2.2-1-.5-2.3-.4-4.2.4-1.7,1.1-4.9,1.6-9.3,1.3l-.4.2h-1.6c-1.1-.9-3.8-1.7-8.1-2.8,1.6,0,2.9-.3,4.2-.8,1.4-1.3,4.1-1.5,8-.6,1.1.8,1.9,1.1,2.3,1l.4-.4,2.9.3h.2c1.9,0,2.5-.2,2-.6-.8.3-1.5.4-2,.2h-.2c-.6-.2-.3-.6.6-1,.6-.6.8-1.1.7-1.2,0-.2-.3-.2-.9-.2-1.9,0-3.2-.2-3.9-.7-.5-.9-2.4-1.3-5.7-1.3h-4.7c1-.8,1.8-1.2,2.4-1.1,1,.6,1.6.8,1.8.8h.4l2-.6c2.6-1.9,5.1-1.9,7.6,0,.6.4.9.6,1.1.6l.6-.6c.7-1.1,2-1.7,4-1.7l2.5-.6c.6-.2.8-.4.8-.6,0-.3-1.4-1.8-4.1-4.5-1-1.2-1.2-2.2-.6-2.9.6-.6,1.6-.9,3.2-1l4.6.4c1.7.4,2.9.9,3.6,1.5,1.1,1.3,1.2,2.3.4,2.7-.6.4-1.5.3-2.9-.2l1.1-.8c1-1.4-.8-1.9-5.2-1.5-2.3.2-2.7,1.2-1.4,2.9,1.1,1.4,2.4,2.4,4,3,0,.8.4,1.5,1.3,2.2l2.9,1.7c.6-.6,1.7-.8,3.3-.3,1.7.5,3.3,1.6,4.9,3.2.2-.8,1.3-1.3,3.4-1.4l5,.2c1.2-.9,3.4-.6,6.4.8.3-.4,1.6-.4,3.9,0l10.5,1.1c-2.9,0-9.1,0-18.3.4l-2.7-.8c-1.6-.4-2.5-.5-2.9-.2,1.3.6.2,1.1-3.3,1.3-3.4.2-6.3,0-8.6-.6-.4.3-.5.7-.1,1.1,0,.4-1.5,1-4.3,1.7-1.4,1.3-2,2.5-1.8,3.8.2,1.1.9,2.1,2.3,2.9,1.3.8,2.9,1.3,4.7,1.6,2,.2,3.8.1,5.6-.4l2.3-1.2c.8-.4,1.4-.6,1.7-.6,1,0,2,1.6,2.9,4.5.5-1.3,1.3-2,2.5-2.2,1.5-.2,3,.6,4.7,2.2,3-1.4,5-1.5,5.8-.3.3.4.5,1,.5,1.6s0,.6,0,.7c.4.4.7.9,1,1.4,0-.9.6-1.2,1.5-1,.9.2,1.9.8,2.9,2,.2.5.2,1,0,1.6-.2.4-.5.6-.9.9.4.6,1.3.7,2.7.6,1.7-.2,3.3-.8,4.5-1.7,1.2,2,2.2,2.7,2.7,2.2-.2-1.9.6-3.3,2.6-4.3,1.2-.6,2.3-.7,3-.3l2.9.4h0l2.9.4c1,0,1.8-.4,2.6-1.4,2.9-3.3,6.3-4.6,10.3-3.9l3.1.4h.6c0,0,0,0,0,0,.6-1.4,1.4-2.2,2.3-2.5,1-.3,1.8,0,2.6.8-.8-2-.3-2.6,1.6-1.7,0-1.8,1-2.2,2.9-1,.7-.8,1.5-1,2.3-.6.9.5,1.1,1.1.6,2.1,1.3-.5,2.1-.3,2.5.4.3.6.2,1.1-.3,1.5.7,1.1.3,1.8-1.1,2.1-1.4.3-2.5,0-3.2-1.1-.4-.6-.9-1-1.5-1.2h-.9c-.4,0-.7.3-.8.5,0,.2,0,.6,0,.9,0,.7-.4,1-1.5.8-1-.2-1.7-.4-2-.8-.4,0-1.2.3-2.5.9-.8.5-1.5.6-2.1.6.7.3,1,.6.8,1.1-.2.5-.6.7-1.5.7,0,.2,0,.5,0,1,0,.4.5.6,1.1.6,0,.5.2,1,.6,1.4.5.5,1,.7,1.5.7,1.5-1,3.7-1.5,6.7-1.4,1.3,0,2.1.2,2.5.6.5.4.2,1.1-.8,1.8h.8c2-.7,3.9-1,5.7-.9,2,0,3.2.6,3.4,1.7h1.1c1.1,0,2,.7,2.4,2.1.7-.3,1.3-.3,1.7,0,.2.2.4.4.4.6,1.1-.5,2.6-.4,4.5.2,2.9-.7,5.6-.8,7.9-.3,1.7.4,4,1.4,7,3,1.3.1,2.8.5,4.5,1.1h.4c0,.1,0,0,0,0l6.1.5,5.2.4,1.9-.2,1.3-.4c3.4-.5,6.4-.6,9.1-.2l3.3.8-8,.6-11,.8-1.5-.2c-3.1.4-6.6.3-10.3-.5l-2.5.5-5.5-.2-7.7-1c-4.1.8-7,1.3-8.9,1.5-3,.3-5.4,0-7-1.1.8.6,1.3,1.1,1.4,1.4s0,.5-.4.8c.3.2.5.4.4.6,0,.2-.2.4-.6.6-.3.1-.6.2-1,.2-.2,0-.4,0-.6-.2-.2,0-.4.2-.6.1-.3.7-.9,1.1-1.9,1.2-.8,0-1.6-.1-2.4-.6l-.5-.4c-.8.9-1.6,1.6-2.3,2.1-1.6,1.1-2.8,1.2-3.8.4l-.6-.5-1,1.3c-1.1,1.6-.7,2.3,1.2,2.1,1.4-.5,2.4-.6,3.1-.2,1.7-1.4,3.3-1.7,4.8-1,.6.3,1.1.6,1.2,1.2.1.4.1.8,0,1.2,2.3-.2,4.2.3,5.7,1.4.8.5,1.5.8,2,.8.9,0,2.1-.3,3.5-1.1,1.1-1,2.3-1.4,3.5-1.3,1.1,0,1.5.6,1.1,1.3,1.7-1.1,3.3-.8,4.6,1-.4-1.6,0-2.6.9-3.1.8-.4,1.4-.3,2.1.3.6-.3,1.1-.4,1.7-.3.8,0,1.5.4,2,1,.5.6.6,1.1.3,1.5-.4.6-1.2.9-2.6,1,.4.6.5,1.1.2,1.5-.2.4-.6.6-1.3.6-.6,0-1.1-.1-1.6-.5-.5-.4-.7-1-.7-1.9-.3,1.2-.6,1.9-.8,2.1-.1,0-.4,0-.8-.5-.4.5-.8.6-1.3.6s-.7-.6-.4-1.4c-1.8,2.7-2.9,2.9-3.2.6-.2.1-.4.2-.6.3h0c-.8.3-1.8,0-2.9-.6l-6.6-.4c-1.5-1.1-2.4-1.6-2.6-1.6-.4,0-1.1.2-1.8,1l-.2.6c-.2.6-.6,1.1-1.3,1.6-.9.6-1.7.7-2.3.2l-.5-.4-.4.6c-1.4,1.7-2.9,2.8-4.8,3.2-2.2.4-3.5-.3-4.1-2.3-2.8,1.2-4.6,1.2-5.6,0h-.8s-1.7-.6-1.7-.6c-.9,0-1.6-.1-2-.7h-1.1c-.6-.1-1.1-.5-1.4-1.1-.9.5-1.7.6-2.4.3-.6-.4-.6-.9.3-1.6-.5,0-1,0-1.5-.3-.6-.4-.6-.8,0-1.2-.9,0-1.3-.1-1.3-.7s.4-.8,1.3-.7c2.1-1,3.4-.8,3.7.4l-.2,1.2c0,.2-.2.2-.5.2,1,1,1.7,1,2.3.3.2-.3.4,0,.7,1h0c0,.1,0,.1,0,.1.3-.2.6-.2,1.1,0,1-1.4,1.8-2.1,2.6-2,0-1.1,0-2.2.5-3.4.6-1.7,1.6-2.1,2.8-1-.2-2.3.6-3.3,2.3-3.1.6.2.9,0,.8-.4,0-.4-.4-.8-.9-1.2-1.5-1.2-2.5-1-3.1.6-2.4,2.6-4,2.3-4.8-.9-1.7,1.1-2.9,1.7-3.7,1.8-1,0-1.6-1-1.7-3-1.1.8-1.9,1.1-2.5.8-.3-.1-.8-.6-1.4-1.6-.6.6-1.2.8-1.7.7-.5,0-1-.5-1.6-1.3-1-.6-1.8-.7-2.5-.3h-.1c-.3.3-.8.8-1.4,1.5.7,0,1.4.2,1.9.5,1.4.6,1.1,1.3-.6,2,1.9.7,2.9,1.4,2.9,2.2,0,.6-.4,1.2-1.5,1.7-1,.5-2.1.7-3.3.8-1,0-1.7,0-2.2-.4l-.3-.3h0s0,0,0,0c-.6-.5-.9-1.4-.9-2.7s0-.6-.3-.6-.8.2-1.5.6c-1.6.9-2.3,1.7-2,2.4.2.6.9.8,2.2.3h1.6s.6.2.6.2l.4.5c.4,1-.3,1.4-2.1,1.4s-4.2-.3-5.2-.8c-.5-.2-.9-.6-1.1-.9-1.6,0-3.1.2-4.6.6-.6.2-2.2.8-4.9,2-1.7.8-3.2,1.1-4.3,1.1-1.2,0-2.5-.6-3.8-1.6l-3.4.6c-1.7,0-3.4-.9-5.2-2.6-1.6-1.1-3.4-1.6-5.5-1.6s-3.1.3-5.8.8c-2.6.5-4.5.7-5.8.6-2.1,0-3.9-.8-5.4-2,.8.1,1.2-.4,1.4-1.5.2-1.4,1-1.7,2.3-1,.6-.4,1.2-.6,1.9-.6.8,0,1,.4.6,1,.6,0,.9.2,1,.6.2.4,0,.6-.6.7v.2s.8,0,.8,0c.6,0,1.2-.2,1.7-.5.6-.3,1.1-.5,1.7-.6h.7c.3.2.6.4.7.4h1c.4,0,1,0,1.7-.2h.6c-.2-.4,0-.8.1-1.2,0-.1.2-.2.3-.3,0-.4,0-.6.3-.6.1,0,.3,0,.4.3,0,0,.2-.2.5-.2h.3c.8-.4,1.3-.6,1.5-.8.5-.4.4-.9-.2-1.4-.5-.3-.9-.4-1.2-.3-.2,0-.3.3-.3.6,0-.5-.3-.8-.8-.8h-.3c-.6-.5-1.1-.8-1.6-.7-.4,0-1,.3-1.7.6-.9.3-1.7.4-2.4.3-.4.4-.7.6-1,.8-.6.4-1,.4-1.3,0l-.3.2c0,.1-.2.2-.3.2h0c-1.3.9-2.6,1-3.8.4-.8-.3-1.7-.5-2.8-.3-.5,0-1.6.3-3.2.6-1.1.3-1.6.3-1.2,0,.3-.3,1.1-.6,2.3-1,1-.3,1.4-.4,1.2-.6l-.3-.2c0,0-.1-.2,0-.3-.7.3-1.4.3-2,.2-.7,0-.9-.5-.6-1-.6.2-1.1.3-1.6.2h-.3c-.5.3-.9.5-1.2.5-.6,0-.8-.2-.7-.9-.4.4-.8.6-1.1.5s-.3-.3-.2-.6c-.5.2-1.4.4-2.8.5-1.5.1-2.6.1-3.3,0-1.2,0-3.2.2-5.7.2-.4.4-.7.6-1,.5-.3,0-.3-.5,0-1.1" fill="#c6b342" fill-rule="evenodd"/>
</svg>