<?xml version="1.0" encoding="UTF-8"?>
<svg id="Layer_1" xmlns="http://www.w3.org/2000/svg" version="1.1" viewBox="0 0 757.4 316.2">
  <!-- Generator: Adobe Illustrator 30.1.0, SVG Export Plug-In . SVG Version: 2.1.1 Build 136)  -->
  <path d="M746.3,160.1c0,3.2-1.3,5.8-3.7,7.7l-10.3,6.5c-4.1-.4-7.9,1.3-11.3,4.9-1.5,0-2.6,1.1-3.1,3.1v.6c-2.1,1.4-4.5,1.8-7.3,1.3-3.9-1.4-6.8-2-8.8-2.1-2.5,0-5,.8-7.5,2.4-2.7,1.8-3.1,3.7-1.1,5.6v.4c-.4,2-1.9,2.7-4.7,2.2l-7.7-2.7-.6-.6.6-.9c.5-1.1.4-2.2-.4-3.4l.4-.9,1.2.4c4.6,1.1,6.8-.6,6.7-5.1,0-1.7-.8-2.7-2.3-3-1.6-.4-2.5-1.2-2.7-2.5-.4-2.4,1.8-4,6.4-4.6h3c-.8-.9-1.4-2.1-1.8-3.3-1.1-3.3-.4-6.5,2-9.4,3.2-3.9,9.4-5,18.4-3.9,3.4.5,6.8.6,10,.2l4.6-1.1-.4,1.5c-.4,2.5.5,4.8,2.5,6.7,2,1.9,4.2,2.7,6.8,2.4,2-.2,3.6-1.3,4.6-3.5,1.1-2.2.6-3.7-1.7-4.6,1.4-.6,2.9-.8,4.4-.6,3,.5,4.3,2.6,4.2,6.3h-.2ZM231.5,120.9c-.5,2,.4,3,2.2,3.1v.6c0,0-5.4-.6-5.4-.6l-1.1,1.7c-1.5,1.6-3.3,1.8-5.2.3-1.5-1.2-2-2.7-1.4-4.8.5-2,1.8-2.8,3.7-2.2,0-1.7.8-2.5,2.4-2.4,1.5,0,2.7.7,3.6,2,1.4-2.1,2.6-2.2,3.7-.4.7,1.3.6,1.9-.5,2.1-1.5.3-2.2.5-2.2.7h.4ZM250.5,199.9c3.7-.3,6-2,7-5.2,1.5,3.5,3.9,4.9,6.8,4.3l1.4-.5c1.2.6,2.7.6,4.6,0,1.8-.6,3-1.3,3.6-2.5l.5-1.5c2.2,2.7,5.2,4.5,9.4,5.5l3.3.6h3c1.8,1.1,1.8,2.1,0,3.2h-.2c-2,1.1-3.5.8-4.7-.8,1.9,2.8,1.4,5-1.6,6.5-3.1,1.6-5.6,1.1-7.5-1.4-1.4,2.2-3.2,2.5-5.7,1.1-2.4-1.4-3.6-3.2-3.6-5.6-1.2,2-2.8,2.2-5,.6l-2.2-2c-1.5,2.3-3.7,2.4-6.5.3l-2.5-2.5h0ZM198.3,162.1l-.3,1.4c2.4,0,4.1,1.4,4.8,3.8.4.9.3,1.5,0,1.9l-2-.4c.4,2.5-.4,4.8-2.7,6.8-2.3,2.1-4.8,2.5-7.2,1.4-2-.9-2.6-2.1-1.7-3.6,1.3-2.2,1.8-3.7,1.5-4.6-5.6,3-7.3,1.3-5-5-1.7-.3-2.5-.7-2.2-1.4l.7-1.1c1.4-1.3,2.8-2,4.4-2.2,1.3,0,3,.4,5,1.5,2.2,1.1,3.7,1.6,4.9,1.6h-.2ZM20.8,195l-.6.6-1.7.4-1.4-.8c-.5,1-1.3,1.4-2.4,1.3-1.1,0-1.8-.7-2.2-1.8h-7.1c.2,1.8,0,2.8-1,3-.7,0-1.6-.3-2.7-1.1-1.1-.9-1.5-1.8-1.6-2.5,0-.9.5-1.3,2-1.3-2-.7-2.2-1.8-.9-3.2,1.4-1.3,2.9-1.8,4.6-1.3l.4,2.5c2.4-.6,3.5,0,3.3,2.4l9.1.4c-1.8-2.2,0-3.2,4.8-3.3,4.8,0,7.6.4,8.6,1.1-1.1-2.2-.4-3.1,2.2-2.9.9,0,1.5.4,2,.8.5.5.3,1-.6,1.4l4.6.5c.5-1.5,1.8-2.3,3.9-2.2l5.1.9c1-2.4,2.4-2.6,4.1-.5.2-1.5,1.1-2.3,2.5-2.5,1.1,0,1.8,0,2.2.8v1.4l.4,1.3c-1.1,1.1-1.5,2.3-1.3,3.7l-14.7-.5c-2.7,1.1-5,1.8-6.9,2.2-3.3.6-5.1,0-5.4-2.2h-3.1v1.3l-5.9.6v-.6" fill="#efeab8" fill-rule="evenodd"/>
  <path d="M629.3,81.5c-12.3-6.7-21.9-11.5-28.4-14.6-11.6-5.6-20.2-8.6-26.1-9.4l-28.6-2.5c-5.7-.4-10.1-1.1-13.2-2.2,3.8,1.9,7.1,3,10.2,3.3l12.9,1.3c20,4.2,31.8,8.3,35.6,12.2,6.4,3.2,10.7,5.7,13,7.6,3.1,2.6.8,3-6.8,1.1-8.3-1.8-16.9-2.8-26-2.9h-.2v.4c0,0,14.3,2.6,14.3,2.6,8.9,2.2,11.3,4,7.3,5.5-5.7-.7-11.7-.8-18-.2v.4l19.3,2.2c9.5,1.5,8.1,2.3-4.2,2.3l-39.3,1.4c-9.9,1.1-18,.9-24.4-.4l-26.9-2.4c-5.5-.8-6.1-2.4-2.2-4.7,3-2,2.6-3.6-.9-4.7l-10.8-1c-9.5-.2-16.4-1.4-20.5-3.9-1.6-1-1.6-1.5,0-1.9,1.9-.4,5.5-.4,10.8.2,18,.7,35.6-.4,53-3.3,6.7-1.2,9.7-2.2,9.4-2.9l-14.8-.8-45.5,1.7-23.8-.6c-6.7-1.7-13-2.2-18.7-1.3l-13.8,2.2c10.7-.8,18.5-.4,23,1.2,3.3,1.1,7.4,4,12.1,8.6,3.8,3.6,7.4,5.7,10.6,6.2l10.3.9c6.8,1.4,10.4,2.7,11.2,3.8.8,1.4-2.4,2.6-9.6,3.8l-22.5,2.5,27.1,1.6c7,1.4,11.9,2.8,14.7,4.1,3.2,1.4,2.2,2.3-3,2.5-2.3-.2-4.7-.7-7.2-1.4l-5.5-1.6c-4.1-1-9.5,0-15.8,2.6-5.2,2-9,4.6-11.2,7.7-2,2.8-6.5,5.6-13.5,8.3,13.9-4.9,21.9-7.4,23.9-7.6,2.2-.3,4.1,0,6,1,1.2.6,3.4,2.1,6.7,4.4,12.4,6.4,28,7.7,46.9,4.1l.3-.7-9.4-3.6c-5.1-2.3-9.1-3.6-11.9-3.9-5.6-.6-9.2-2.2-10.8-4.7-1.5-2.4,2.7-2.8,12.8-.9l24.7,1.4c2.9-.3,5.6-1,8.4-2,6.9.8,13.3.4,19.2-1.5,3.5-1.1,8.5-3.2,15-6.1,8.6-1.4,16-1.5,22.3-.2,3.6.7,8.2,2.2,13.9,4.4l29.1,1.4c3.4.3,4.7,1,4,2.1-1,1.3-4.8,3.5-11.6,6.7l-32.1,9.8c-5.2,1.5-10.8,2.2-16.8,1.9-10.4-.3-17.5.8-21.2,3.5-4.4,3.2-.4,7.3,12,12.3,7.1,3.1,13.3,7.2,18.6,12.4,5.1,5.1,8.7,10.5,10.8,16.2,2.1,6,2.2,11.4,0,16.3-2.2,5.5-6.8,9.6-13.6,12.7-17.6,8.5-29.6,12.6-35.9,12.4-2.3,0-4.7-.7-7.1-1.9-3.9-1.9-6.3-2.9-7.4-3.3l-3.6-.9c-1.1-4-3.4-7.8-6.9-11.6-5.6-5.9-11.2-8.1-16.9-6.9-4.4-5.8-11.7-5.5-22,.8,0-3.7-1.1-7.4-3.2-11.1-4.2-7.6-10.2-10.9-17.6-9.6-2.3-5.6-5.7-8.7-10.3-9.4l-12.7.8c-.8-2.5-2.2-4.9-4.4-7.1-3.2-3.1-7-5.1-11.4-6.2-4.9-1.1-9.5-.5-13.9,1.4-5,2.3-9.2,6.4-12.4,12.1-12.5-4.9-22-2.6-28.2,6.6-3.7,5.5-5.6,11.2-5.9,17.5l-6.8.3c-5.5.8-9.3,2.9-11.2,6.2-4.2-1.7-8.5-2-13.2-.8-4.7,1.3-8.7,3.5-12.1,6.9-8,2.5-12.5,8.6-13.2,18.3-5.1,3.8-5.6,8.7-1.4,14.8,1.6,2.2,3.6,4.2,5.9,5.9,2.2,1.6,4.1,2.5,5.6,2.7-4.4,4.9-6.4,10.8-5.7,17.5.6,6.5,3.2,11.2,7.7,14.5,3.1,7.3,8.3,11.3,15.4,12.1l8.2-.5c.6,4.8,2.6,9.4,5.9,13.9,4.4,6,9.4,9.2,14.8,9.7,2.9,3.3,6.8,5.9,11.9,7.7,4.9,1.8,9.9,2.4,15.1,2.1,6.5-.4,11.7-2.3,15.7-5.6,6.9,9.1,15.5,11.8,25.6,8.1,9,3.4,15.9,3.3,20.7-.4l4.1-4c1.3-1.2,2.6-1.5,3.8-1.2,7.6-.6,13-2.9,16.1-6.6,1-1.1,2.4-4,4.6-8.6,8,.8,16.1-1.4,24.4-6.8,8-5.3,12.8-11.6,14.4-18.9,2.2.7,4.6,1.1,7.3,1,11.2-.2,19.2-6.4,23.8-18.7,3.2-7.1,7.1-11.9,11.9-14.3,3.8-2,8.5-2.6,14.2-2,3.3.4,8.5,1.3,15.5,3l15.6.6c7.7-1.5,14.5-4.6,20.3-9.1,5.7-4.4,9.6-9.6,12-15.7,2.3-6.2,2.6-12.5.6-18.7-2-6.8-6.4-12.8-13.1-18.2-16.5-13.1-26.4-24.8-29.7-34.7-3.2-10.1,1.5-15,14.4-14.8,23.5,0,40.1-1.3,49.7-3.9,11.7-3.2,16-8.9,13-16.9-3.3-7.6-7.8-12.3-13.5-14.2l-6.4-1.9c-2.3-1-4.1-2.3-5.5-4.3-3.5-3.6-7.9-4.9-13.2-3.8l-6.3,1.4c-2.4.4-4.6,0-6.5-.6h-.4ZM457.3,129.7q0-.2,0,0ZM423.2,172.4c3.7.7,5.8,2.5,6.3,5.3v1.1c-2.8-.2-4.7-1.3-5.7-3.4-.6-1-.8-2-.6-3.1h0ZM148.6,192.9h1.8c-1.3-.2-1.8-.7-1.8-1.4v1.4ZM97.7,175v1.3-1.3ZM74.3,194.1l-.4-.3.3-.6v.9h0ZM58.3,190.5q.2,0,0,0ZM622.1,151.1v.3c0,0,0,0,0,0-1.7-.2-2.6-.5-2.8-1.1.5-.9,1.1-1.3,1.7-.9s1,.9,1.1,1.8h0ZM589.6,152.3l-.6.7.4.2.3-.9" fill="#e0d47f" fill-rule="evenodd"/>
  <path d="M533.4,97v.8c.2,2.8-1.1,5-3.7,6.7-2.7,1.6-5,1.3-6.9-1.3-1.5-2-1.3-4.4.5-7.1l.2-.3c1.8-2.5,3.1-2.7,4-.6-.3-2.2.3-3.7,1.6-4.1,1.1-.4,2.3-.2,3.9.8,1.4.9,2.2,1.9,2.2,3s-.6,1.8-1.8,2.2h0ZM661,102.4c2.2-.7,3.1,1.1,2.4,5.3h-.4l-3,1.2c-2.7,1.5-4.2,4.1-4.7,7.9v.2c-3.2.4-5-.6-5.5-3.3-.8-.6-1.3-1.6-1.4-3-1.3,1.8-3.2,1.5-6-.9-1.1-.7-1.5-2-1.3-3.8.2-1.8.9-3.2,2.2-4.6,3.2-3.7,6.9-3.2,11.3,1.7.4-1.1,1.1-1.6,2.3-1.4.4-.6.9-1,1.8-.9,1,0,1.8.5,2.3,1.6h-.2ZM649.4,108.4c-.6.8-.9,1.7-.8,2.4l.8-2.2v-.2ZM747.7,150c-2.1-1-4.6-1-7.7,0-2.9.8-4.6,2.2-5,4.1l2.7.2c1.4-.6,2.9-.8,4.4-.5,3,.5,4.4,2.6,4.2,6.3,0,3.2-1.3,5.8-3.7,7.7l-10.3,6.5,2.7.4,6.5.8c2.7-.4,5.3-2.2,8.2-5.1,4.4-1,6.8-4.4,7.5-10.3.5-1.8-.3-3.8-2.2-6-2.1-2.2-4.5-3.7-7.3-4.1h0ZM675.6,176.2c.7-7.8,5.8-11.2,15.3-10.1.5,1.3,1.1,2.4,1.8,3.4h-3c-4.6.6-6.8,2.2-6.4,4.6.2,1.3,1.1,2.2,2.7,2.5,1.5.4,2.2,1.3,2.3,3.1,0,4.4-2.1,6.1-6.7,5l-1.2-.4-1.5-.6-1.3-1-.3.4c.6,0,1.1.4,1.5.6,0,0,1.3,1.5,1.3,1.5.7,1.3.8,2.3.4,3.4l-.6.9-.4.4c-2.1-.2-4.6.5-7.7,2.2l-.5-.6c-.5.4-1.2.7-2,.6-1.3,0-2.8-1-4.2-2.5-1.4-1.6-2.1-3.1-2-4.7,0-1.8,1.4-3,4-3.7-1.8-2-.6-3,3.4-3.2l4.9-.2v-1.7h0ZM669.9,196.7l.4.2-1.2,2.2c-1.7,2.7-2,5-.7,7l8.6-.4c1.6-1.3,2.4-2.5,2.2-4l.4-.3,2.2,3.7c1.3,1.5,3.2,2.2,6,2.1v.4c1.6-.4,3,0,4.2,1.3,2.2,2.2,2.3,5.8.5,11-1.4,3.9-3.6,6.3-6.8,7.4-3.1,1.1-6.4.7-10.1-1.1l-6.8-3.9-2.5-1.3c-3.5-1.8-7-2.5-10.6-2-9.1,1.3-14.5,7.1-16.3,17.4-8.5-.7-15.8.3-21.6,3-.6,1.9-2,2.7-4.2,2.2h-.5c-2.4-.6-3.5-2-3.4-4.3h-3.6c0,0-.6-1.5-.6-1.5-.5,2.2-2.6,3.2-6.4,3.2-3.7,0-6.4-1.1-7.9-2.9-1-.2-1.8.2-2.5,1.2,3,1.3,4,3.6,3.2,6.8-.8,3.2-2.7,5.6-5.6,6.8-1.9.8-4.5.6-7.8-.6l-2.7-1c-.9.7-2.2,1.1-4,1.1-3,0-5.4-1.3-7.2-3.5-.7,1.9-2.5,2.8-5.5,2.7-3.1,0-5.8-1.3-8.3-3.6-1.9,1.6-4.6,2.3-8.3,2-3.9-.4-6.9-1.5-9.1-3.9l-3.2-3.9-1.1-.4-2,2.2c-1.9,1.4-4.2,2.2-7.1,2.3-7.4.4-11.3-2.2-12-7.6-.6-4.5,1.7-8,6.8-10.6,4.4-2.2,8.2-2.6,11.7-1.1-1-.7-1.1-1.6-.4-2.6.9-1.3,2.3-2,4.3-2.2l6.1.4c2.2,0,4.1-.8,5.8-2.3,3.2-3.3,2.5-6-1.9-7.9-3.4-1.5-6.3-1.5-8.6,0l-2.1-.2c-2.6.2-4.8,1.1-6.5,2.7l-4.7,4.4c-1.8,1.3-3.9,1.5-6.1.8-2.1-.7-4-2.2-5.7-4.1-1.2-1.3-2-2.5-2.4-3.7-5.3,2.7-9,2.1-11.1-1.8.3,3.1-1.3,4.1-4.6,3.4-2.8-.6-4.3-2.2-4.5-4.6l.2-.2h-.2l-1.6-.9c-2-1.3-2.6-2.9-2-4.8-7.2-.6-11-3-11.5-7.2-.6-4.6,2.6-9.4,9.7-14.1,4.9-3.2,11.4-5.6,19.7-7.2l.4,1.4c-4.6.8-9.4,2.7-14.1,5.8-8.8,4-12.9,8.1-12.1,12.4.6,3.4,3.7,5.6,9.2,6.8l.4-.5c3.7-4.4,8.8-5.2,15.8-2.4.4-1.1,1.3-2.2,2.7-3.6,3.5-3.4,6.8-5.2,9.7-5.3,3.7,0,6.9.5,9.5,1.9l4.7,3.5,2.6,1.5.2-1.3c.4-1.6,1.2-3.1,2.7-4.3,1.8-1.7,4.9-2.3,9.1-1.9,4.1.4,7.1,1.8,9.1,4.5l2,3.7c.7.9,1.4,1.1,2.1.5v-1c.5-4,3.7-5,9.5-3.1v.4l.2-.4c1.3-1.4,3.4-1.9,6.3-1.4,2.2.4,3.7,1.2,4.3,2.5.8-.6,2.3-.8,4.4-.6,2,0,3.5,1.1,4.5,2.7.9,1.6,1.1,3.7.6,5.9-1.4,5.8-6.2,10.5-14.2,13.9-6.9,3.7-9.6,7.5-7.9,11.1.7,1.3,2,2.4,3.8,3l3.9.5c-.5-.9-.7-1.8-.6-2.7.2-1.3,1.1-2.5,2.7-3.1,4-1.9,9.8-1,17.4,2.9-.8-2.7.5-4.7,3.9-6.2,3.7-1.5,8.2-1.2,13.5,1.1-1.8-1.8-1.4-3.7,1.3-5.5,2.7-1.9,6.1-1.9,10.2,0,3.6,2.4,6.7,3.6,9.4,3.6s5.8-1.2,9-3.6c3.2,1.7,6.2,1.2,8.8-1.5,1.6-1.6,2.6-3.4,3-5.2-1.5,1.5-3.6,1.4-6.3,0-4.1-2.3-5.3-5.8-3.6-10.3,2.3-6.1,7.6-8.2,15.8-6.3,3.1.7,7.7,3.8,14,9.1,5.5,3.5,9.8,2.3,13.1-3.6,2.2.8,4.1.6,5.8-.9,1.7-1.4,2.5-3.2,2.5-5.6-1.2-.5-2.1-1.2-2.8-2.2-1-1.5-1.1-3.4-.5-5.7.7-2.2,1.8-3.9,3.2-4.9,1.5-1.1,3.4-1.3,5.7-.5l5,.6-28.5,18.6ZM527.5,250.1l.5.9-1.1.4c-1.1.3-2,0-2.8-.8-.5-.4-.2-1,.8-1.5,1-.5,1.8,0,2.5,1.1ZM423.8,175.5c-.5-1.1-.7-2.1-.6-3.1,3.7.7,5.8,2.5,6.3,5.4v1.1c-2.8-.2-4.7-1.3-5.7-3.3" fill="#e4da8d" fill-rule="evenodd"/>
  <path d="M667.8,71c-2-2.5-3.6-3.5-4.9-3.2-.4,0-1.3,1-3.2,2.8l-8.8.7c-1.2.3-2.7.3-4.6,0-2-.2-3.7-.2-4.9,0-1.6.4-3.6.4-6,0l-3.1-.4c-1.3-2.4-3.4-3.9-6.4-4.2-3-.4-4.5.4-4.7,2.2-.4-.9-1.3-1.3-2.5-1.1-1.3.2-2.1.8-2.5,1.8l-12.1-.4-2.7-2.5c-.6-.4-1.5-.2-2.7.6-4.3-.6-6.6-.4-6.8.8l-9.1-.4-4.4-.4h-.3c-1.7-1.8-3.3-3.1-4.9-3.9-2.4-1.1-4-.4-4.9,2.1-.6.4-1.5.5-2.7.6-.8,0-1.4.4-1.8,1.1-1.3-2.4-2.2-2.4-3.1,0-2.8-2-5-2.7-6.8-2.2-2,1.1-4,1.8-5.8,2.1-4.4.3-7.2.4-8.4,0-1.6-.2-2.2-.8-1.9-1.9-.8.4-1.8.2-3-.4-1.1-.6-1.8-1.4-2-2.2-.8-2.3,2-2.7,8.4-1.1,2.2.4,3.9,0,4.6-.9.6-.8.6-1.8,0-3.1-.6-1.3-1.5-2.4-3-3.2-.6-.5-1.2-.7-1.8-.8l-.7-.9c-1.1-.9-2.4-1.3-3.9-1.3v-1.6c0-.4-.5-.2-1.1.4-1.3,1.1-2.5,1.1-3.9,0-1.3-1-.8-2,1.5-3,2.6,0,3.4-.8,2.5-2.3-1-1.6-3.5-3.1-7.6-4.5-3-1.9-3.4-3.3-1.4-4.2,1.9-1,4.6-.8,8.3.7,3.4,2.2,9.5,3.1,18.3,2.5l.8.4,3.2-.2c2.2-1.5,7.5-3.2,15.8-5.3-3.1,0-5.8-.6-8.2-1.5-2.8-2.5-8-3-15.7-1.2-2.2,1.6-3.8,2.2-4.6,2l-.7-.8-5.6.5h-.4c-3.7,0-5-.4-3.9-1.3,1.6.6,2.9.7,3.9.4h.4c1.1-.4.6-1.1-1.2-2-1.1-1.3-1.5-2.1-1.3-2.4,0-.4.6-.5,1.8-.4,3.7,0,6.2-.4,7.7-1.4,1-1.7,4.7-2.5,11.1-2.5h.9l8.4.3c-1.9-1.9-3.5-2.7-4.8-2.3-1.9,1.1-3.1,1.5-3.6,1.6h-.7l-4-1.1c-5-3.7-10-3.7-14.8,0-1.1.8-1.8,1.3-2.2,1.1l-1.1-1.1c-1.3-2.1-4-3.2-7.8-3.4l-5-1.3c-1.1-.4-1.6-.8-1.5-1.3,0-.6,2.7-3.6,8.1-8.8,2-2.4,2.4-4.2,1.2-5.6-1.1-1.2-3.2-1.8-6.3-2l-9.1.7c-3.3.7-5.7,1.7-7.1,3-2.1,2.6-2.3,4.4-.8,5.3,1.1.8,3,.6,5.6-.4l-2.1-1.5c-1.9-2.7,1.5-3.7,10.3-3,4.4.4,5.3,2.3,2.8,5.6-2.2,2.8-4.7,4.8-7.7,5.9,0,1.5-.8,3-2.6,4.2l-5.8,3.4c-1.3-1.3-3.4-1.5-6.5-.6-3.3,1-6.5,3.1-9.5,6.3-.4-1.5-2.6-2.5-6.8-2.7l-9.7.5c-2.4-1.8-6.7-1.3-12.6,1.5-.5-.7-3.1-.7-7.6,0l-20.5,2.2c5.8,0,17.7.2,35.8.8l5.3-1.5c3.1-.8,4.9-1,5.7-.4-2.5,1.3-.4,2.2,6.5,2.5,6.8.4,12.4,0,16.8-1.1.8.6,1,1.4.3,2.1,0,.8,3,1.9,8.5,3.2,2.7,2.5,3.9,5,3.6,7.5-.4,2.2-1.8,4.1-4.5,5.8-2.5,1.5-5.6,2.6-9.2,3.1-3.9.5-7.5.3-10.9-.7l-4.6-2.4c-1.5-.7-2.7-1.1-3.4-1.1-2,0-3.9,3.1-5.6,8.8-.9-2.5-2.5-3.9-4.9-4.3-2.9-.4-5.9,1.1-9.2,4.3-5.9-2.7-9.7-3-11.4-.5-.6.8-.9,1.9-.9,3.2s0,1.1.2,1.4c-.8.8-1.4,1.7-1.9,2.8-.2-1.7-1.3-2.3-3-2-1.8.4-3.7,1.6-5.8,3.9-.5,1-.5,2,0,3.1.4.7,1,1.3,1.7,1.8-.8,1.1-2.6,1.4-5.2,1.1-3.4-.4-6.4-1.5-8.8-3.3-2.4,4-4.2,5.3-5.3,4.2.4-3.7-1.3-6.5-5-8.4-2.4-1.3-4.4-1.4-5.9-.6l-5.6.8h0l-5.7.7c-1.9,0-3.6-.8-5-2.8-5.6-6.5-12.3-9-20.2-7.6l-6,.8-1.2-.2h-.2c-1.3-2.7-2.8-4.3-4.6-4.9-1.9-.5-3.6,0-5,1.6,1.6-4,.6-5-3.1-3.4,0-3.6-1.9-4.2-5.7-2-1.4-1.5-2.9-1.9-4.6-1.1-1.8.9-2.2,2.2-1.2,4.1-2.5-.9-4.1-.6-4.9.7-.6,1.3-.4,2.2.6,3-1.4,2.2-.6,3.5,2.1,4.1s4.9,0,6.3-2.2c.8-1.3,1.8-2,2.9-2.3h1.7c.8,0,1.3.5,1.6,1,.2.5.2,1.1,0,1.7-.2,1.4.8,2,2.9,1.6,1.9-.4,3.2-.8,4-1.6.8,0,2.4.5,4.9,1.8,1.6,1,3,1.3,4.1,1.1-1.4.5-1.9,1.3-1.5,2.2.4,1,1.3,1.4,3,1.4,0,.4,0,1,0,2,0,.8-.9,1.3-2.2,1.1,0,1-.4,2-1.2,2.8-1,.9-2,1.4-3,1.4-2.9-2-7.2-3-13.1-2.7-2.5,0-4.1.4-4.9,1.1-.9.8-.4,2.1,1.5,3.6l-1.5.3c-3.9-1.6-7.6-2.2-11.2-2.1-3.9,0-6.2,1.3-6.8,3.4l-2.2-.3c-2.2.2-3.9,1.6-4.7,4.3-1.4-.6-2.5-.6-3.4.2-.4.4-.8.8-.8,1.3-2.2-.9-5.1-.8-8.8.4-5.8-1.4-11-1.6-15.5-.5-3.2.8-7.8,2.7-13.7,5.8-2.5.3-5.4,1-8.8,2.2l-.8.3v-.4l-12,.9-10.1.8-3.7-.4-2.5-.8c-6.6-1-12.5-1.1-17.8-.4l-6.4,1.5,15.8,1.2,21.6,1.5,3-.5c6.1.8,12.9.5,20.2-1l5,1,10.8-.4,15.1-2c8,1.6,13.8,2.6,17.4,3,5.9.6,10.5,0,13.7-2.2-1.6,1.3-2.6,2.2-2.8,2.7-.2.4,0,1,.8,1.5-.6.4-1,.7-.8,1.3,0,.4.5.8,1.1,1.1s1.3.4,1.9.4c.5,0,.8-.2,1.2-.4.4.2.8.4,1.3.3.6,1.4,1.8,2.2,3.7,2.3,1.5,0,3.2-.3,4.7-1.2l1-.8c1.5,1.7,3.1,3.1,4.6,4.1,3.1,2.1,5.5,2.3,7.4.8l1.1-.9,2,2.5c2.2,3.1,1.4,4.4-2.3,4.1-2.7-1-4.8-1.1-6-.4-3.2-2.7-6.4-3.3-9.4-2-1.3.5-2.1,1.3-2.4,2.4-.3.8-.3,1.5,0,2.3-4.4-.4-8.2.5-11.2,2.7-1.5,1-2.9,1.5-4,1.5-1.7,0-4.1-.6-6.9-2.1-2.2-2-4.6-2.8-6.9-2.5-2.2.2-3,1.1-2.2,2.5-3.4-2.2-6.5-1.5-9.1,2,.7-3.1,0-5.1-1.7-6-1.5-.7-2.8-.5-4,.6-1.1-.5-2.2-.7-3.3-.6-1.6.2-3,.8-3.9,1.9-1,1.1-1.2,2.1-.5,3,.7,1.1,2.4,1.7,5,1.9-.8,1.2-1,2.2-.4,3,.4.8,1.3,1.2,2.5,1.3,1.2,0,2.2-.3,3.1-1,1-.8,1.4-2,1.4-3.7.5,2.4,1.1,3.8,1.5,4.1.3.2.8,0,1.5-1,.7.9,1.5,1.3,2.6,1.2,1.1,0,1.4-1.1.8-2.7,3.6,5.3,5.7,5.7,6.3,1.3.4.3.8.4,1.1.6h.2c1.5.5,3.5,0,5.8-1.3l12.9-.7c3-2.1,4.7-3.1,5-3.1.8-.2,2.1.4,3.6,2l.5,1.1c.4,1.3,1.3,2.2,2.5,3.1,1.8,1.3,3.3,1.4,4.6.4l1-.8.8,1.1c2.7,3.4,5.8,5.5,9.5,6.3,4.2.8,6.9-.6,8-4.6,5.5,2.4,9.1,2.3,11-.2h1.5c0,0,3.3-1.3,3.3-1.3,1.8.2,3.1-.3,3.9-1.4h2.2c1.3-.3,2.1-1,2.7-2.1,1.8,1,3.3,1.2,4.7.5,1.3-.7,1.1-1.8-.5-3.2,1,.2,2,0,3-.6,1.1-.8,1.1-1.5,0-2.4,1.7.2,2.5-.3,2.5-1.3s-.8-1.5-2.5-1.4c-4.1-1.9-6.6-1.5-7.2.8l.5,2.4c.2.4.5.4.9.4-1.9,1.9-3.4,2-4.4.5-.4-.6-.8,0-1.4,2v.3h0c-.5-.4-1.3-.4-2.2,0-1.9-2.8-3.5-4.1-5-4,.2-2.1,0-4.3-1-6.8-1.3-3.4-3.1-4.1-5.4-1.9.4-4.4-1.1-6.5-4.6-6-1.3.4-1.7,0-1.5-.7,0-.7.7-1.5,1.8-2.4,3-2.4,5-2,6.1,1.2,4.7,5,7.8,4.4,9.4-1.8,3.3,2.2,5.7,3.4,7.2,3.5,2,0,3.1-2,3.3-5.9,2.1,1.5,3.7,2.1,4.9,1.6.6-.3,1.5-1.3,2.8-3.1,1.3,1.1,2.4,1.6,3.3,1.4.9,0,2-1,3.1-2.5,2-1.2,3.6-1.3,4.9-.5h.3c.6.6,1.5,1.6,2.7,3-1.4,0-2.7.4-3.7.9-2.7,1.2-2.2,2.5,1.3,3.9-3.7,1.4-5.6,2.7-5.8,4.2-.2,1.3.8,2.4,3,3.4,2,1,4.1,1.4,6.5,1.5,2,0,3.4-.2,4.3-.8l.6-.5h0c0,0,.2,0,.2,0,1.1-1,1.7-2.7,1.7-5.2s0-1.3.5-1.3,1.5.4,3,1.2c3.1,1.8,4.4,3.3,4,4.7-.4,1.3-1.8,1.5-4.3.6h-3.1c0,0-1.1.4-1.1.4l-.7.9c-.8,1.9.5,2.8,4.1,2.8s8.2-.5,10.3-1.5c.9-.4,1.7-1.1,2.2-1.8,3.1,0,6,.4,9.1,1.3,1.1.4,4.2,1.6,9.5,3.9,3.4,1.5,6.2,2.2,8.5,2.1,2.4-.2,4.9-1.3,7.5-3.1l6.8,1.1c3.4,0,6.8-1.7,10.1-5,3.1-2.1,6.7-3.1,10.8-3.1s6.1.5,11.4,1.5c5,1,8.8,1.4,11.4,1.3,4.1-.2,7.6-1.5,10.6-3.9-1.5.3-2.4-.7-2.7-3-.4-2.8-1.9-3.4-4.6-2-1.1-.8-2.3-1.3-3.8-1.2-1.5,0-2,.7-1.3,2-1.2,0-1.8.4-2,1.2-.4.8,0,1.3,1.3,1.4v.4c0,0-1.6,0-1.6,0-1.2,0-2.3-.4-3.3-1-1.1-.5-2.2-1-3.2-1.2l-1.4-.2c-.6.5-1.1.9-1.4,1h-2c-.7,0-1.9,0-3.2-.4h-1.2c.4-.8.2-1.5-.3-2.3-.2-.3-.4-.4-.6-.5,0-.7-.2-1.1-.5-1.3-.3-.2-.5,0-.8.6,0-.2-.4-.4-.9-.4h-.5c-1.5-.7-2.5-1.3-2.9-1.5-1-.8-.8-1.7.5-2.7,1-.6,1.8-.8,2.3-.6.4.2.6.5.6,1.1,0-1,.6-1.5,1.6-1.5h.5c1.1-1,2.2-1.5,3.1-1.4.7,0,1.9.5,3.4,1.3,1.7.5,3.3.7,4.7.6.7.7,1.4,1.3,1.9,1.6,1.1.7,2,.8,2.5.2l.5.4c.2.3.4.4.6.4h0c2.6,1.7,5.1,2,7.4.8,1.5-.6,3.3-.9,5.5-.6,1,0,3.1.5,6.3,1.3,2.2.5,3.1.5,2.4,0-.6-.6-2.1-1.3-4.5-2-1.9-.5-2.7-.8-2.4-1.1l.5-.4c.2-.2.3-.4,0-.6,1.4.5,2.8.6,4,.5,1.4-.2,1.8-.9,1.2-2,1.1.4,2.2.5,3.2.4l.6-.2c1,.7,1.7,1.1,2.4,1.2,1.1,0,1.5-.4,1.3-1.7.8.8,1.5,1.1,2.1.9.5-.2.6-.6.5-1.3,1,.4,2.8.7,5.5,1,3,.3,5.1.3,6.4,0,2.4.2,6.2.4,11.2.4.7.8,1.4,1.1,2,1,.6-.2.6-.9.2-2.1" fill="#c6b342" fill-rule="evenodd"/>
  <path d="M690.4,134.4c0,2.5-1,4.5-2.9,5.9l-8,5c-3.2-.3-6.2,1.1-8.8,3.9-1.2,0-2,.8-2.5,2.4v.5c-1.6,1.1-3.5,1.4-5.7,1-3-1.1-5.3-1.5-6.9-1.6-2,0-3.9.6-5.8,1.9-2.1,1.4-2.4,2.9-.8,4.3v.3c-.3,1.5-1.5,2.1-3.6,1.8l-6-2.1-.5-.5.5-.7c.4-.8.3-1.7-.3-2.7l.3-.7.9.3c3.6.8,5.2-.5,5.2-4,0-1.3-.6-2.1-1.8-2.3-1.3-.3-2-.9-2.1-2-.3-1.9,1.4-3.1,5-3.6h2.3c-.6-.7-1-1.6-1.4-2.6-.8-2.6-.3-5,1.5-7.4,2.5-3,7.3-3.9,14.3-3,2.7.4,5.2.5,7.8.1l3.6-.8-.3,1.2c-.3,2,.3,3.7,2,5.2,1.5,1.5,3.3,2.1,5.2,1.9,1.5-.1,2.8-1.1,3.6-2.7.8-1.7.5-2.9-1.3-3.6,1.1-.5,2.2-.6,3.4-.5,2.3.4,3.4,2,3.3,4.9h-.1ZM290,103.9c-.4,1.5.3,2.3,1.7,2.4v.5c0,0-4.2-.5-4.2-.5l-.8,1.3c-1.2,1.3-2.6,1.4-4.1.2-1.2-.9-1.5-2.1-1.1-3.7.4-1.5,1.4-2.2,2.9-1.8,0-1.3.6-2,1.9-1.9,1.2,0,2.1.6,2.8,1.5,1.1-1.6,2-1.8,2.9-.3.6,1,.5,1.5-.4,1.6-1.2.2-1.8.4-1.8.6h.3ZM304.8,165.4c2.9-.2,4.7-1.5,5.5-4.1,1.2,2.7,3,3.9,5.2,3.4l1.1-.3c.9.5,2.1.5,3.6,0,1.4-.5,2.3-1.1,2.8-2l.4-1.2c1.7,2.1,4.1,3.5,7.3,4.3l2.6.5h2.3c1.4.8,1.4,1.6,0,2.4h-.1c-1.5.8-2.7.6-3.6-.6,1.5,2.2,1,3.9-1.3,5-2.4,1.3-4.3.8-5.8-1.1-1,1.7-2.5,2-4.4.8-1.9-1.1-2.8-2.5-2.8-4.3-.9,1.5-2.2,1.7-3.9.5l-1.8-1.5c-1.2,1.8-2.9,1.9-5,.2l-2-2h0ZM264.2,136l-.2,1.1c1.9,0,3.1,1.1,3.7,2.9.3.7.2,1.2,0,1.5l-1.5-.4c.4,2-.4,3.7-2.1,5.2-1.8,1.6-3.7,2-5.6,1.1-1.5-.7-2-1.6-1.3-2.8,1-1.7,1.4-2.9,1.2-3.6-4.3,2.3-5.7,1-3.9-3.9-1.3-.2-2-.6-1.8-1.1l.6-.8c1.1-1,2.2-1.5,3.4-1.7,1,0,2.3.3,3.9,1.2,1.7.8,2.9,1.3,3.8,1.3h-.1ZM126.2,161.6l-.5.5-1.3.3-1.1-.6c-.4.8-1,1.1-1.9,1-.8,0-1.4-.6-1.8-1.4h-5.5c.1,1.4,0,2.2-.8,2.3-.6,0-1.3-.2-2.1-.8-.8-.7-1.2-1.4-1.3-2,0-.7.4-1,1.5-1-1.5-.6-1.8-1.4-.7-2.4s2.2-1.4,3.6-1.1l.3,2c1.9-.5,2.7,0,2.6,1.9l7.1.4c-1.4-1.7,0-2.5,3.7-2.6,3.7,0,5.9.3,6.7.8-.8-1.8-.3-2.5,1.7-2.2.7,0,1.2.3,1.5.6s.2.8-.5,1.1l3.6.4c.3-1.2,1.4-1.8,3-1.8l4,.7c.8-1.9,1.9-2,3.2-.4.1-1.2.8-1.8,2-2,.8,0,1.4,0,1.8.6v1.1l.3,1c-.8.8-1.2,1.8-1.1,2.9l-11.4-.4c-2.1.8-3.9,1.4-5.4,1.8-2.6.5-4,0-4.2-1.8h-2.4v1l-4.5.5v-.5" fill="#efeab8" fill-rule="evenodd"/>
  <path d="M599.4,73.3c-9.6-5.2-17-9-22.1-11.3-9-4.3-15.8-6.7-20.3-7.3l-22.3-2c-4.4-.3-7.8-.8-10.3-1.7,2.9,1.5,5.5,2.3,7.9,2.6l10,1c15.5,3.3,24.7,6.4,27.7,9.5,5,2.5,8.3,4.4,10.1,5.9,2.4,2,.6,2.3-5.3.8-6.4-1.4-13.2-2.2-20.2-2.2h-.1v.3c0,0,11.1,2,11.1,2,6.9,1.7,8.8,3.1,5.7,4.3-4.4-.6-9.1-.6-14-.1v.3l15,1.7c7.4,1.2,6.3,1.8-3.3,1.8l-30.6,1.1c-7.7.8-14,.7-19-.3l-20.9-1.9c-4.3-.6-4.8-1.9-1.7-3.6,2.3-1.5,2-2.8-.7-3.6l-8.4-.8c-7.4-.1-12.7-1.1-16-3-1.3-.8-1.3-1.2,0-1.5,1.5-.3,4.3-.3,8.4.1,14,.6,27.7-.3,41.2-2.6,5.2-.9,7.6-1.7,7.3-2.2l-11.5-.6-35.4,1.3-18.6-.5c-5.2-1.3-10.1-1.7-14.6-1l-10.7,1.7c8.3-.6,14.4-.3,17.9.9,2.6.8,5.7,3.1,9.4,6.7,2.9,2.8,5.7,4.4,8.3,4.8l8,.7c5.2,1.1,8.1,2.1,8.7,2.9.6,1.1-1.9,2-7.5,2.9l-17.5,2,21.1,1.3c5.5,1.1,9.2,2.2,11.4,3.1,2.5,1.1,1.8,1.8-2.3,2-1.8-.1-3.6-.6-5.6-1.1l-4.3-1.3c-3.2-.8-7.4,0-12.2,2-4.1,1.5-7,3.6-8.8,6-1.5,2.2-5,4.3-10.5,6.4,10.9-3.8,17-5.7,18.5-6,1.7-.2,3.2,0,4.7.8.9.5,2.7,1.6,5.2,3.4,9.7,5,21.8,5.9,36.5,3.1l.2-.6-7.3-2.8c-4-1.8-7.1-2.8-9.2-3-4.3-.5-7.1-1.7-8.4-3.6-1.2-1.9,2.1-2.2,9.9-.7l19.3,1.1c2.2-.2,4.3-.8,6.5-1.5,5.4.6,10.4.3,14.9-1.2,2.7-.8,6.6-2.5,11.7-4.8,6.7-1.1,12.5-1.2,17.4-.1,2.8.6,6.4,1.7,10.8,3.4l22.6,1.1c2.7.2,3.6.8,3.1,1.6-.8,1-3.7,2.7-9,5.2l-25,7.6c-4.1,1.2-8.4,1.7-13.1,1.5-8.1-.2-13.6.6-16.4,2.7-3.4,2.5-.3,5.7,9.3,9.6,5.5,2.4,10.4,5.6,14.5,9.7,4,4,6.8,8.2,8.4,12.6,1.6,4.7,1.7,8.9,0,12.7-1.8,4.3-5.3,7.5-10.6,9.9-13.7,6.6-23,9.8-27.9,9.7-1.8,0-3.6-.6-5.5-1.5-3-1.5-4.9-2.2-5.7-2.6l-2.8-.7c-.8-3.1-2.7-6.1-5.4-9-4.3-4.6-8.7-6.3-13.2-5.4-3.4-4.5-9.1-4.3-17.1.6,0-2.9-.8-5.7-2.5-8.6-3.3-5.9-7.9-8.5-13.7-7.5-1.8-4.3-4.4-6.8-8-7.3l-9.9.6c-.6-2-1.8-3.8-3.4-5.5-2.5-2.4-5.5-4-8.9-4.8-3.8-.8-7.4-.4-10.9,1.1-3.9,1.8-7.1,5-9.7,9.4-9.7-3.8-17.1-2-21.9,5.1-2.9,4.3-4.3,8.8-4.6,13.6l-5.3.2c-4.3.6-7.2,2.2-8.8,4.8-3.3-1.3-6.7-1.5-10.3-.6-3.6,1-6.8,2.7-9.4,5.4-6.2,2-9.7,6.7-10.3,14.2-4,2.9-4.3,6.8-1.1,11.5,1.3,1.8,2.8,3.3,4.6,4.6,1.8,1.3,3.2,2,4.3,2.1-3.4,3.9-5,8.4-4.4,13.7.5,5,2.5,8.8,6,11.3,2.4,5.7,6.4,8.8,12,9.4l6.4-.4c.5,3.7,2,7.3,4.6,10.8,3.4,4.7,7.3,7.1,11.6,7.6,2.2,2.6,5.3,4.6,9.2,6,3.8,1.4,7.7,1.9,11.8,1.6,5-.3,9.1-1.8,12.2-4.3,5.4,7.1,12,9.2,20,6.3,7,2.7,12.4,2.6,16.1-.3l3.2-3.1c1-.9,2-1.2,2.9-.9,5.9-.5,10.1-2.2,12.5-5.1.8-.8,1.9-3.1,3.6-6.6,6.2.6,12.5-1.1,19-5.3,6.2-4.1,9.9-9,11.2-14.7,1.7.6,3.6.8,5.7.8,8.8-.1,14.9-5,18.5-14.6,2.5-5.5,5.5-9.2,9.2-11.1,2.9-1.5,6.7-2,11.1-1.5,2.6.3,6.6,1.1,12,2.3l12.1.5c6-1.2,11.3-3.6,15.8-7.1,4.4-3.4,7.5-7.5,9.3-12.2,1.8-4.8,2-9.7.5-14.6-1.5-5.2-5-9.9-10.2-14.1-12.8-10.2-20.5-19.2-23.1-26.9-2.5-7.8,1.2-11.7,11.2-11.6,18.3,0,31.2-1,38.6-3,9.1-2.5,12.5-6.9,10.1-13.2-2.6-5.9-6.1-9.6-10.5-11.1l-5-1.5c-1.8-.8-3.2-1.8-4.3-3.4-2.7-2.8-6.2-3.8-10.3-2.9l-4.9,1.1c-1.9.3-3.6,0-5-.5h-.3ZM465.7,110.8q0-.2,0,0ZM439.1,143.9c2.9.6,4.5,2,4.9,4.1v.8c-2.2-.1-3.6-1-4.4-2.7-.5-.8-.6-1.5-.5-2.4h0ZM225.6,159.9h1.4c-1-.1-1.4-.6-1.4-1.1v1.1ZM186,146v1-1ZM167.8,160.9l-.3-.2.2-.5v.7h0ZM155.4,158.1q.1,0,0,0ZM593.8,127.4v.2c0,0,0,0,0,0-1.3-.1-2-.4-2.2-.8.4-.7.8-1,1.3-.7s.8.7.8,1.4h0ZM568.6,128.3l-.5.6h.3c0,.1.2-.6.2-.6" fill="#e0d47f" fill-rule="evenodd"/>
  <path d="M524.9,85.4v.6c.1,2.2-.8,3.9-2.9,5.2-2.1,1.3-3.9,1-5.4-1-1.2-1.5-1-3.4.3-5.5v-.2c1.5-2,2.5-2.1,3.3-.5-.2-1.8.2-2.9,1.3-3.2.8-.4,1.8-.1,3,.6,1.1.7,1.8,1.5,1.8,2.3s-.5,1.4-1.4,1.8h0ZM624.1,89.6c1.8-.6,2.4.8,1.9,4.1h-.3l-2.3.9c-2.1,1.2-3.3,3.2-3.6,6.2h0c-2.5.5-3.9-.4-4.3-2.5-.6-.5-1-1.3-1.1-2.3-1,1.4-2.5,1.2-4.7-.7-.8-.6-1.2-1.5-1-2.9.1-1.4.7-2.5,1.7-3.6,2.5-2.9,5.4-2.5,8.8,1.3.3-.8.8-1.3,1.8-1.1.3-.5.7-.8,1.4-.7.8,0,1.4.4,1.8,1.3h-.1ZM615.1,94.2c-.5.6-.7,1.3-.6,1.9l.6-1.8h0ZM691.6,126.6c-1.6-.8-3.6-.8-6,0-2.2.6-3.6,1.8-3.9,3.2h2.1c1.1-.3,2.2-.5,3.4-.3,2.3.4,3.4,2,3.3,4.9,0,2.4-1,4.5-2.9,5.9l-8,5,2.1.4,5,.6c2.1-.4,4.1-1.7,6.4-4,3.4-.8,5.3-3.4,5.8-8,.4-1.4-.2-2.9-1.8-4.7-1.6-1.8-3.5-2.9-5.7-3.2h0ZM635.5,147c.6-6.1,4.5-8.8,11.9-7.8.3,1,.8,1.9,1.4,2.7h-2.3c-3.6.5-5.2,1.7-5,3.6.1,1,.8,1.7,2.1,2,1.2.3,1.8,1,1.8,2.4,0,3.4-1.6,4.8-5.2,3.9l-.9-.3-1.2-.5-1.1-.8-.2.3c.5,0,.8.3,1.2.5,0,0,1,1.2,1,1.2.6,1,.6,1.8.3,2.7l-.5.7-.3.3c-1.6-.1-3.6.4-6,1.7l-.3-.5c-.4.4-.9.6-1.5.5-1,0-2.2-.8-3.3-2-1.1-1.3-1.6-2.4-1.5-3.6,0-1.4,1.1-2.3,3.1-2.9-1.4-1.5-.5-2.3,2.7-2.4h3.8v-1.5h0ZM631,162.9h.3c0,.1-.9,1.8-.9,1.8-1.3,2.1-1.5,3.9-.6,5.5l6.7-.3c1.3-1,1.9-2,1.8-3.2l.3-.2,1.7,2.9c1,1.2,2.5,1.7,4.7,1.6v.3c1.3-.3,2.3,0,3.3,1,1.7,1.7,1.8,4.5.4,8.5-1,3-2.8,4.9-5.2,5.7-2.4.8-5,.6-7.8-.8l-5.2-3-2-1.1c-2.7-1.4-5.5-2-8.3-1.5-7.1,1-11.3,5.5-12.7,13.5-6.6-.6-12.2.2-16.8,2.3-.5,1.5-1.5,2.1-3.3,1.8h-.3c-1.9-.5-2.7-1.5-2.7-3.4h-2.8c0,0-.5-1.2-.5-1.2-.4,1.8-2,2.5-5,2.4-2.9,0-5-.8-6.2-2.2-.8-.1-1.4.1-2,.9,2.3,1,3.2,2.8,2.5,5.2-.6,2.5-2.1,4.3-4.3,5.2-1.5.6-3.5.5-6.1-.5l-2.1-.8c-.7.6-1.8.8-3.1.8-2.3,0-4.2-1-5.6-2.7-.6,1.5-2,2.2-4.3,2.1-2.4,0-4.5-1-6.4-2.8-1.5,1.3-3.6,1.8-6.4,1.5-3-.3-5.4-1.2-7.1-3l-2.5-3-.8-.3-1.5,1.8c-1.5,1.1-3.3,1.8-5.5,1.8-5.7.3-8.8-1.7-9.3-6-.5-3.5,1.3-6.2,5.3-8.3,3.4-1.8,6.4-2,9.1-.8-.8-.6-.8-1.3-.3-2,.7-1,1.8-1.5,3.4-1.7l4.8.4c1.8,0,3.2-.6,4.5-1.8,2.5-2.6,2-4.7-1.5-6.2-2.7-1.2-4.9-1.2-6.7,0h-1.6c-2,0-3.7.7-5,2l-3.6,3.4c-1.4,1-3,1.2-4.8.6-1.6-.6-3.1-1.7-4.4-3.2-.9-1-1.5-2-1.9-2.9-4.1,2.1-7,1.6-8.6-1.4.2,2.4-1,3.2-3.6,2.7-2.2-.5-3.4-1.7-3.5-3.6h.1c0-.1-.1-.1-.1-.1l-1.3-.7c-1.5-1-2-2.2-1.5-3.7-5.6-.5-8.5-2.3-9-5.6-.5-3.6,2-7.3,7.6-11,3.8-2.4,8.9-4.3,15.3-5.6l.3,1.1c-3.6.6-7.3,2.1-11,4.5-6.9,3.1-10,6.3-9.4,9.7.5,2.7,2.9,4.3,7.1,5.2l.4-.4c2.9-3.4,6.9-4.1,12.2-1.9.3-.8,1-1.8,2.1-2.8,2.7-2.7,5.2-4.1,7.6-4.1,2.9,0,5.4.4,7.4,1.5l3.6,2.7,2,1.2v-1c.4-1.3,1-2.4,2.2-3.4,1.4-1.3,3.8-1.8,7.1-1.5,3.2.3,5.5,1.4,7.1,3.5l1.5,2.9c.6.7,1.1.8,1.6.4v-.8c.4-3.2,2.9-3.9,7.4-2.4v.3-.3c1.1-1.1,2.8-1.5,5-1.1,1.8.3,2.9.9,3.4,2,.6-.5,1.8-.6,3.4-.5,1.5,0,2.7.8,3.5,2.1.7,1.3.8,2.9.5,4.6-1.1,4.5-4.8,8.2-11.1,10.8-5.4,2.9-7.5,5.8-6.2,8.6.6,1,1.5,1.9,2.9,2.3l3,.3c-.4-.7-.6-1.4-.5-2.1.1-1.1.8-2,2.1-2.4,3.2-1.5,7.6-.8,13.5,2.2-.6-2.1.4-3.6,3-4.8,2.9-1.2,6.4-.9,10.5.8-1.4-1.4-1.1-2.9,1-4.3,2.1-1.5,4.8-1.5,7.9,0,2.8,1.9,5.2,2.8,7.3,2.8s4.5-.9,7-2.8c2.5,1.3,4.8.9,6.9-1.2,1.3-1.3,2-2.7,2.3-4.1-1.2,1.2-2.8,1.1-4.9,0-3.2-1.8-4.1-4.5-2.8-8,1.8-4.8,5.9-6.4,12.3-4.9,2.4.6,6,2.9,10.9,7.1,4.3,2.7,7.6,1.8,10.2-2.8,1.7.6,3.2.5,4.5-.7,1.3-1.1,2-2.5,2-4.3-.9-.4-1.6-.9-2.2-1.8-.8-1.2-.8-2.7-.4-4.4.6-1.8,1.4-3,2.5-3.8,1.2-.8,2.7-1,4.4-.4l3.9.5-22.2,14.5ZM520.3,204.4l.4.7-.8.3c-.8.2-1.5,0-2.2-.6-.3-.4-.1-.8.6-1.2.8-.3,1.4,0,2,.8ZM439.6,146.4c-.4-.8-.6-1.6-.5-2.5,2.9.6,4.5,2,4.9,4.2v.8c-2.2-.1-3.6-1-4.4-2.6" fill="#e4da8d" fill-rule="evenodd"/>
  <path d="M629.4,65.1c-1.5-2-2.8-2.7-3.8-2.4-.3,0-1,.8-2.5,2.2l-6.9.6c-.9.2-2.1.2-3.6,0-1.5-.1-2.9-.1-3.8,0-1.3.3-2.8.3-4.7,0l-2.5-.4c-1-1.9-2.7-3-5-3.3-2.3-.3-3.5.3-3.6,1.8-.3-.7-1-1-2-.8s-1.6.6-2,1.4l-9.4-.3-2.1-2c-.5-.3-1.2-.1-2.1.5-3.4-.5-5.1-.3-5.3.6l-7.1-.3-3.4-.3h-.2c-1.3-1.4-2.6-2.4-3.8-3-1.9-.8-3.1-.3-3.8,1.6-.5.3-1.2.4-2.1.5-.6,0-1.1.3-1.4.8-1-1.9-1.8-1.9-2.4,0-2.2-1.5-3.9-2.1-5.3-1.8-1.5.8-3.1,1.4-4.5,1.6-3.4.2-5.6.3-6.5,0-1.3-.1-1.8-.6-1.5-1.5-.6.3-1.4.1-2.3-.4-.8-.5-1.4-1-1.5-1.8-.6-1.8,1.5-2.1,6.5-.8,1.8.3,3,0,3.6-.7.5-.6.5-1.4,0-2.4-.5-1-1.2-1.9-2.3-2.5-.5-.3-.9-.6-1.4-.6l-.6-.7c-.8-.7-1.9-1-3-1v-1.3c0-.3-.4-.1-.8.3-1,.8-2,.8-3,0-1-.8-.6-1.5,1.2-2.3,2,0,2.7-.6,2-1.8-.8-1.3-2.7-2.5-5.9-3.5-2.3-1.5-2.7-2.6-1.1-3.3,1.5-.8,3.6-.6,6.4.6,2.7,1.8,7.4,2.5,14.2,2l.6.4h2.5c1.7-1.3,5.8-2.7,12.3-4.3-2.4,0-4.5-.5-6.4-1.2-2.2-2-6.2-2.3-12.2-.9-1.8,1.3-2.9,1.8-3.6,1.5l-.6-.6-4.3.4h-.3c-2.9,0-3.9-.3-3-1,1.3.5,2.2.6,3,.4h.3c.8-.3.5-.8-.9-1.5-.8-1-1.2-1.6-1-1.9,0-.3.5-.3,1.4-.3,2.9,0,4.8-.3,6-1,.8-1.3,3.6-2,8.6-2h.7l6.5.2c-1.5-1.5-2.7-2.1-3.7-1.8-1.5.8-2.4,1.2-2.8,1.3h-.6l-3.1-.8c-3.9-2.9-7.8-2.9-11.5,0-.8.6-1.4,1-1.7.8l-.8-.8c-1.1-1.6-3.1-2.5-6.1-2.7l-3.8-1c-.8-.3-1.3-.6-1.2-1,0-.5,2.1-2.8,6.3-6.9,1.5-1.9,1.9-3.3.9-4.3-.8-.9-2.5-1.4-4.9-1.5l-7.1.6c-2.6.6-4.4,1.3-5.5,2.3-1.6,2-1.8,3.4-.6,4.1.8.6,2.3.5,4.3-.3l-1.6-1.2c-1.5-2.1,1.2-2.9,8-2.3,3.4.4,4.1,1.8,2.2,4.3-1.7,2.2-3.6,3.7-6,4.6,0,1.2-.6,2.3-2,3.3l-4.5,2.7c-1-1-2.7-1.2-5-.5-2.6.8-5,2.4-7.4,4.9-.3-1.2-2-2-5.2-2.1l-7.6.4c-1.9-1.4-5.2-1-9.8,1.2-.4-.6-2.4-.6-6,0l-16,1.8c4.5,0,13.8.1,27.9.6l4.1-1.2c2.4-.6,3.9-.8,4.4-.3-2,1-.3,1.7,5,2,5.2.4,9.7,0,13.1-.8.6.5.8,1.1.2,1.6,0,.6,2.3,1.5,6.6,2.5,2.1,2,3,3.9,2.8,5.8-.3,1.7-1.4,3.2-3.5,4.5-2,1.2-4.3,2-7.1,2.4-3,.3-5.8.2-8.5-.6l-3.6-1.9c-1.2-.6-2.1-.8-2.7-.8-1.5,0-3,2.4-4.3,6.9-.7-2-2-3-3.8-3.4-2.2-.3-4.6.8-7.1,3.4-4.6-2.1-7.6-2.3-8.9-.4-.5.6-.7,1.5-.7,2.4s0,.8.1,1.1c-.6.6-1.1,1.3-1.5,2.2-.1-1.3-1-1.8-2.3-1.5-1.4.3-2.9,1.3-4.5,3-.4.8-.4,1.5,0,2.4.3.6.8,1,1.3,1.4-.6.8-2,1.1-4.1.8-2.7-.4-5-1.2-6.9-2.6-1.9,3.1-3.3,4.1-4.1,3.3.3-2.9-1-5-3.9-6.5-1.9-1-3.4-1.1-4.5-.5l-4.3.6h0l-4.4.6c-1.5,0-2.8-.6-3.9-2.2-4.3-5-9.6-7-15.7-5.9l-4.7.6h-.9c0-.1-.1-.1-.1-.1-1-2.1-2.2-3.4-3.6-3.8-1.5-.4-2.8,0-3.9,1.3,1.3-3.1.5-3.9-2.5-2.7,0-2.8-1.5-3.3-4.4-1.5-1-1.2-2.2-1.5-3.6-.8-1.4.7-1.7,1.8-.9,3.2-2-.7-3.2-.5-3.8.6-.5,1-.4,1.8.5,2.3-1,1.7-.5,2.7,1.6,3.2,2.1.5,3.8,0,4.9-1.8.6-1,1.4-1.5,2.2-1.8h1.3c.6,0,1.1.4,1.3.8.1.3.1.8,0,1.3-.1,1,.6,1.5,2.2,1.3,1.5-.3,2.5-.6,3.1-1.3.6,0,1.9.4,3.8,1.4,1.3.8,2.3,1,3.2.8-1,.4-1.5,1-1.2,1.7.3.8,1,1.1,2.3,1.1,0,.3,0,.8,0,1.5,0,.6-.7,1-1.8.8,0,.8-.3,1.5-.9,2.2-.8.7-1.5,1.1-2.3,1.1-2.2-1.5-5.6-2.3-10.2-2.1-2,0-3.2.3-3.8.8-.7.6-.3,1.6,1.2,2.8l-1.2.2c-3-1.3-5.9-1.8-8.7-1.6-3,0-4.8,1-5.2,2.7l-1.8-.2c-1.8.1-3,1.3-3.6,3.4-1.1-.5-2-.5-2.7.1-.4.4-.6.6-.6,1-1.8-.7-4-.6-6.9.3-4.5-1.1-8.5-1.3-12-.4-2.5.6-6.1,2.1-10.6,4.5-2,.2-4.2.8-6.9,1.7l-.6.2v-.3l-9.3.7-7.8.6-2.9-.3-2-.6c-5.1-.8-9.7-.8-13.9-.3l-5,1.2,12.2.9,16.8,1.2,2.3-.4c4.8.6,10,.4,15.7-.8l3.8.8,8.4-.3,11.8-1.5c6.2,1.3,10.7,2,13.5,2.3,4.6.5,8.2,0,10.6-1.7-1.3,1-2,1.8-2.2,2.1-.1.4,0,.8.6,1.2-.5.3-.8.6-.6,1,0,.3.4.6.8.8.5.2,1,.4,1.5.3.4,0,.6-.1.9-.3.3.1.6.3,1,.2.5,1.1,1.4,1.8,2.9,1.8,1.2,0,2.4-.2,3.6-.9l.8-.6c1.2,1.3,2.4,2.4,3.6,3.2,2.4,1.6,4.3,1.8,5.7.6l.8-.7,1.5,2c1.7,2.4,1.1,3.4-1.8,3.1-2.1-.8-3.7-.8-4.7-.3-2.5-2.1-5-2.6-7.3-1.5-1,.4-1.6,1-1.9,1.9-.2.6-.2,1.2,0,1.8-3.4-.3-6.4.4-8.7,2.1-1.2.8-2.2,1.2-3.1,1.2-1.3,0-3.1-.5-5.4-1.6-1.8-1.5-3.6-2.2-5.4-2-1.8.1-2.3.8-1.7,2-2.7-1.7-5-1.2-7.1,1.5.6-2.4,0-4-1.3-4.7-1.2-.6-2.2-.4-3.1.5-.8-.4-1.8-.6-2.6-.5-1.3.1-2.3.6-3,1.5-.8.8-.9,1.6-.4,2.3.6.8,1.9,1.3,3.9,1.5-.6.9-.8,1.7-.3,2.3.4.6,1,.9,2,1,.9,0,1.8-.2,2.4-.8.8-.6,1.1-1.5,1.1-2.9.4,1.9.8,2.9,1.2,3.2.2.1.6,0,1.2-.8.6.7,1.2,1,2,.9.8,0,1-.8.6-2.1,2.8,4.1,4.4,4.4,4.9,1,.3.2.6.4.8.5h.1c1.2.4,2.7,0,4.5-1l10-.6c2.3-1.6,3.6-2.5,3.9-2.5.6-.1,1.6.4,2.8,1.5l.3.8c.4,1,1,1.8,2,2.4,1.4,1,2.6,1.1,3.6.3l.8-.6.6.8c2.1,2.7,4.5,4.3,7.3,4.9,3.3.6,5.4-.5,6.2-3.6,4.3,1.9,7.1,1.8,8.5-.1h1.2c0,0,2.6-1,2.6-1,1.4.1,2.4-.2,3-1.1h1.8c1-.2,1.6-.8,2.1-1.6,1.4.8,2.6.9,3.6.4,1-.6.8-1.4-.4-2.4.8.1,1.5,0,2.3-.5.8-.6.8-1.2,0-1.9,1.3.1,2-.2,2-1s-.6-1.2-2-1.1c-3.2-1.5-5.1-1.2-5.6.6l.3,1.9c.1.3.4.3.7.3-1.5,1.5-2.7,1.5-3.4.4-.3-.5-.6,0-1.1,1.5v.2h0c-.4-.3-1-.3-1.8,0-1.5-2.2-2.7-3.2-3.9-3.1.1-1.6,0-3.4-.8-5.2-1-2.7-2.4-3.2-4.2-1.5.3-3.4-.8-5-3.6-4.7-1,.3-1.3,0-1.2-.6,0-.6.6-1.2,1.4-1.9,2.3-1.9,3.9-1.5,4.8.9,3.6,3.9,6.1,3.4,7.3-1.4,2.6,1.8,4.4,2.7,5.6,2.7,1.5,0,2.5-1.5,2.6-4.6,1.6,1.2,2.9,1.6,3.8,1.3.5-.2,1.2-1,2.2-2.4,1,.8,1.9,1.3,2.6,1.1.7,0,1.5-.8,2.5-2,1.5-.9,2.8-1.1,3.8-.4h.2c.5.5,1.2,1.3,2.1,2.3-1.1,0-2.1.3-2.9.7-2.1.9-1.8,2,1,3-2.9,1.1-4.3,2.1-4.5,3.3-.1,1,.6,1.9,2.3,2.7,1.5.8,3.2,1.1,5,1.2,1.5,0,2.7-.1,3.4-.6l.5-.4h0c0,0,.1,0,.1,0,.8-.8,1.3-2.1,1.3-4.1s0-1,.4-1,1.2.3,2.3.9c2.4,1.4,3.4,2.6,3.1,3.6-.3,1-1.4,1.2-3.4.5h-2.5c0,0-.8.4-.8.4l-.6.7c-.6,1.5.4,2.2,3.2,2.2s6.4-.4,8-1.2c.7-.3,1.3-.8,1.8-1.4,2.4,0,4.7.3,7.1,1,.8.3,3.3,1.3,7.4,3,2.7,1.2,4.8,1.7,6.6,1.6,1.9-.1,3.8-1,5.8-2.4l5.2.8c2.7,0,5.2-1.3,7.8-3.9,2.4-1.6,5.2-2.4,8.4-2.4s4.8.4,8.9,1.2c3.9.8,6.9,1.1,8.9,1,3.2-.1,6-1.2,8.3-3-1.2.2-1.9-.6-2.1-2.3-.3-2.2-1.5-2.7-3.6-1.5-.8-.6-1.8-1-2.9-.9-1.2,0-1.5.6-1,1.5-.9,0-1.4.3-1.5.9-.3.6,0,1,1,1.1v.3c0,0-1.3,0-1.3,0-.9,0-1.8-.3-2.6-.8-.8-.4-1.7-.8-2.5-.9h-1.1c-.5.3-.8.6-1,.6h-1.5c-.6,0-1.5,0-2.5-.3h-.9c.3-.6.1-1.2-.2-1.8-.1-.2-.3-.3-.5-.4,0-.6-.1-.8-.4-1-.2-.1-.4,0-.6.5,0-.1-.3-.3-.7-.3h-.4c-1.2-.6-2-1-2.2-1.2-.8-.6-.6-1.3.4-2.1.8-.5,1.4-.6,1.8-.5.4.1.5.4.5.8,0-.8.5-1.2,1.3-1.2h.4c.8-.8,1.7-1.2,2.4-1.1.6,0,1.5.4,2.7,1,1.3.4,2.6.6,3.6.5.6.6,1.1,1,1.5,1.3.8.6,1.5.6,2,.1l.4.3c.1.2.4.3.5.3h0c2,1.3,4,1.5,5.7.6,1.2-.5,2.6-.7,4.3-.5.8,0,2.4.4,4.9,1,1.8.4,2.4.4,1.9,0-.5-.5-1.6-1-3.5-1.5-1.5-.4-2.1-.6-1.9-.8l.4-.3c.1-.1.2-.3,0-.5,1.1.4,2.2.5,3.1.4,1.1-.1,1.4-.7.9-1.5.8.3,1.7.4,2.5.3h.5c.8.4,1.3.7,1.9.8.8,0,1.2-.3,1-1.3.6.6,1.2.8,1.6.7.4-.1.5-.5.4-1,.8.3,2.2.6,4.3.8,2.3.2,4,.2,5,0,1.9.1,4.8.3,8.8.3.6.6,1.1.8,1.5.8.5-.1.5-.7.1-1.6" fill="#c6b342" fill-rule="evenodd"/>
  <path d="M656.1,117.7c0,2-.8,3.5-2.3,4.7l-6.3,4c-2.5-.2-4.8.8-6.9,3-.9,0-1.6.7-1.9,1.9v.4c-1.3.9-2.8,1.1-4.5.8-2.4-.8-4.2-1.2-5.4-1.3-1.5,0-3.1.5-4.6,1.5-1.7,1.1-1.9,2.3-.7,3.4v.2c-.2,1.2-1.2,1.6-2.9,1.4l-4.7-1.7-.4-.4.4-.6c.3-.7.2-1.3-.2-2.1l.2-.6.7.2c2.8.7,4.1-.4,4.1-3.1,0-1-.5-1.7-1.4-1.8-1-.2-1.5-.7-1.7-1.5-.2-1.5,1.1-2.4,3.9-2.8h1.8c-.5-.6-.8-1.3-1.1-2-.7-2-.2-4,1.2-5.8,2-2.4,5.7-3.1,11.2-2.4,2.1.3,4.1.4,6.1.1l2.8-.7-.2.9c-.2,1.5.3,2.9,1.5,4.1,1.2,1.2,2.6,1.6,4.1,1.5,1.2-.1,2.2-.8,2.8-2.1.7-1.3.4-2.3-1-2.8.9-.4,1.8-.5,2.7-.4,1.8.3,2.6,1.6,2.6,3.9h-.1ZM341.5,93.7c-.3,1.2.2,1.8,1.3,1.9v.4c0,0-3.3-.4-3.3-.4l-.7,1c-.9,1-2,1.1-3.2.2-.9-.7-1.2-1.6-.9-2.9.3-1.2,1.1-1.7,2.3-1.4,0-1,.5-1.5,1.5-1.5.9,0,1.7.4,2.2,1.2.8-1.3,1.6-1.4,2.3-.3.4.8.4,1.2-.3,1.3-.9.2-1.4.3-1.4.4h.2ZM353.1,142c2.3-.2,3.7-1.2,4.3-3.2.9,2.1,2.4,3,4.1,2.6l.9-.3c.7.4,1.6.4,2.8,0,1.1-.4,1.8-.8,2.2-1.5l.3-.9c1.3,1.6,3.2,2.8,5.7,3.4l2,.4h1.8c1.1.7,1.1,1.3,0,1.9h-.1c-1.2.7-2.1.5-2.9-.5,1.2,1.7.8,3.1-1,4-1.9,1-3.4.7-4.6-.9-.8,1.3-2,1.5-3.5.7-1.5-.8-2.2-2-2.2-3.4-.7,1.2-1.7,1.3-3,.4l-1.4-1.2c-.9,1.4-2.3,1.5-4,.2l-1.5-1.5h0ZM321.2,118.9l-.2.8c1.5,0,2.5.8,2.9,2.3.2.6.2.9,0,1.2l-1.2-.3c.3,1.5-.3,2.9-1.7,4.1-1.4,1.3-2.9,1.5-4.4.9-1.2-.6-1.6-1.3-1-2.2.8-1.3,1.1-2.3.9-2.8-3.4,1.8-4.5.8-3.1-3.1-1-.2-1.5-.4-1.4-.8l.4-.7c.8-.8,1.7-1.2,2.7-1.3.8,0,1.8.2,3.1.9,1.3.7,2.3,1,3,1h-.1ZM212.7,139l-.4.4-1,.2-.8-.5c-.3.6-.8.9-1.5.8-.7,0-1.1-.4-1.4-1.1h-4.3c.1,1.1,0,1.7-.6,1.8-.4,0-1-.2-1.6-.7-.7-.6-.9-1.1-1-1.5,0-.5.3-.8,1.2-.8-1.2-.4-1.4-1.1-.6-1.9s1.8-1.1,2.8-.8l.3,1.5c1.5-.4,2.1,0,2,1.5l5.6.3c-1.1-1.3,0-2,2.9-2,2.9,0,4.7.2,5.3.7-.7-1.4-.2-1.9,1.3-1.8.6,0,.9.2,1.2.5.3.3.2.6-.4.9l2.8.3c.3-.9,1.1-1.4,2.4-1.4l3.1.6c.6-1.5,1.5-1.6,2.5-.3.1-.9.7-1.4,1.5-1.5.7,0,1.1,0,1.4.5v.9l.2.8c-.7.7-.9,1.4-.8,2.3l-9-.3c-1.7.7-3.1,1.1-4.2,1.4-2,.4-3.1,0-3.3-1.4h-1.9v.8l-3.6.4v-.4" fill="#efeab8" fill-rule="evenodd"/>
  <path d="M584.6,69.7c-7.5-4.1-13.4-7-17.4-8.9-7.1-3.4-12.4-5.3-16-5.7l-17.5-1.5c-3.5-.2-6.2-.7-8.1-1.3,2.3,1.2,4.3,1.8,6.2,2l7.9.8c12.2,2.6,19.4,5.1,21.8,7.5,3.9,2,6.5,3.5,7.9,4.6,1.9,1.6.5,1.8-4.2.7-5.1-1.1-10.3-1.7-15.9-1.8h-.1v.2c0,0,8.7,1.6,8.7,1.6,5.4,1.3,6.9,2.4,4.5,3.4-3.5-.4-7.2-.5-11-.1v.2l11.8,1.3c5.8.9,4.9,1.4-2.6,1.4l-24,.9c-6,.7-11,.6-14.9-.3l-16.4-1.5c-3.4-.5-3.7-1.5-1.3-2.9,1.8-1.2,1.6-2.2-.5-2.9l-6.6-.6c-5.8-.1-10-.9-12.5-2.4-1-.6-1-.9,0-1.2,1.2-.3,3.4-.2,6.6.1,11,.4,21.8-.2,32.4-2,4.1-.7,5.9-1.3,5.7-1.8l-9.1-.5-27.8,1-14.6-.4c-4.1-1-7.9-1.3-11.4-.8l-8.4,1.4c6.5-.5,11.3-.2,14.1.7,2,.7,4.5,2.4,7.4,5.3,2.3,2.2,4.5,3.5,6.5,3.8l6.3.6c4.1.9,6.4,1.6,6.8,2.3.5.9-1.5,1.6-5.9,2.3l-13.8,1.5,16.6,1c4.3.9,7.3,1.7,9,2.5,2,.9,1.4,1.4-1.8,1.5-1.4-.1-2.9-.4-4.4-.9l-3.4-1c-2.5-.6-5.8,0-9.6,1.6-3.2,1.2-5.5,2.8-6.9,4.7-1.2,1.7-4,3.4-8.2,5.1,8.5-3,13.4-4.5,14.6-4.7,1.3-.2,2.5,0,3.7.6.7.4,2.1,1.3,4.1,2.7,7.6,3.9,17.1,4.7,28.7,2.5l.2-.4-5.7-2.2c-3.1-1.4-5.6-2.2-7.3-2.4-3.4-.4-5.6-1.3-6.6-2.9-.9-1.5,1.6-1.7,7.8-.5l15.1.9c1.8-.2,3.4-.6,5.1-1.2,4.2.5,8.1.2,11.7-.9,2.1-.7,5.2-1.9,9.2-3.7,5.3-.9,9.8-.9,13.6-.1,2.2.4,5,1.3,8.5,2.7l17.8.9c2.1.2,2.9.6,2.4,1.3-.6.8-2.9,2.1-7.1,4.1l-19.6,6c-3.2.9-6.6,1.3-10.3,1.2-6.4-.2-10.7.5-12.9,2.1-2.7,2-.2,4.5,7.3,7.5,4.3,1.9,8.1,4.4,11.4,7.6,3.1,3.1,5.3,6.4,6.6,9.9,1.3,3.7,1.3,7,0,10-1.4,3.4-4.2,5.9-8.3,7.8-10.8,5.2-18.1,7.7-21.9,7.6-1.4,0-2.9-.4-4.3-1.2-2.4-1.2-3.8-1.8-4.5-2l-2.2-.6c-.7-2.4-2.1-4.8-4.2-7.1-3.4-3.6-6.8-4.9-10.3-4.2-2.7-3.5-7.1-3.4-13.4.5,0-2.3-.7-4.5-2-6.8-2.6-4.7-6.2-6.7-10.8-5.9-1.4-3.4-3.5-5.3-6.3-5.7l-7.8.5c-.5-1.5-1.4-3-2.7-4.3-2-1.9-4.3-3.1-7-3.8-3-.7-5.8-.3-8.5.9-3.1,1.4-5.6,3.9-7.6,7.4-7.6-3-13.4-1.6-17.2,4-2.3,3.4-3.4,6.9-3.6,10.7l-4.2.2c-3.4.5-5.7,1.8-6.9,3.8-2.6-1-5.2-1.2-8.1-.5-2.9.8-5.3,2.1-7.4,4.2-4.9,1.5-7.6,5.3-8.1,11.2-3.1,2.3-3.4,5.3-.9,9,1,1.4,2.2,2.6,3.6,3.6,1.4,1,2.5,1.5,3.4,1.6-2.7,3-3.9,6.6-3.5,10.7.4,4,2,6.9,4.7,8.9,1.9,4.5,5.1,6.9,9.4,7.4l5-.3c.4,2.9,1.6,5.8,3.6,8.5,2.7,3.7,5.7,5.6,9.1,5.9,1.8,2,4.2,3.6,7.3,4.7,3,1.1,6.1,1.5,9.2,1.3,4-.3,7.1-1.4,9.6-3.4,4.2,5.6,9.5,7.2,15.7,4.9,5.5,2.1,9.7,2,12.6-.2l2.5-2.5c.8-.7,1.6-.9,2.3-.7,4.6-.4,7.9-1.8,9.8-4,.6-.7,1.5-2.4,2.8-5.2,4.9.5,9.8-.9,14.9-4.2,4.9-3.2,7.8-7.1,8.8-11.6,1.3.4,2.8.7,4.5.6,6.9-.1,11.7-3.9,14.6-11.4,1.9-4.3,4.3-7.3,7.3-8.7,2.3-1.2,5.2-1.6,8.7-1.2,2,.2,5.2.8,9.5,1.8l9.5.4c4.7-.9,8.9-2.8,12.4-5.6,3.5-2.7,5.9-5.9,7.3-9.6,1.4-3.8,1.6-7.6.4-11.4-1.2-4.1-3.9-7.8-8-11.1-10.1-8-16.1-15.1-18.2-21.2-2-6.2.9-9.2,8.8-9.1,14.4,0,24.5-.8,30.4-2.4,7.1-2,9.8-5.4,7.9-10.3-2-4.6-4.8-7.5-8.2-8.7l-3.9-1.2c-1.4-.6-2.5-1.4-3.4-2.6-2.1-2.2-4.8-3-8.1-2.3l-3.9.9c-1.5.2-2.8,0-4-.4h-.2ZM479.5,99.1q0-.1,0,0ZM458.6,125.2c2.3.4,3.5,1.5,3.8,3.2v.7c-1.7-.1-2.9-.8-3.5-2.1-.4-.6-.5-1.2-.4-1.9h0ZM290.8,137.7h1.1c-.8-.1-1.1-.4-1.1-.9v.9ZM259.7,126.7v.8-.8ZM245.4,138.5l-.2-.2.2-.4v.6h0ZM235.6,136.3q.1,0,0,0ZM580.2,112.2v.2c0,0,0,0,0,0-1-.1-1.6-.3-1.7-.7.3-.6.7-.8,1-.6s.6.6.7,1.1h0ZM560.3,112.9l-.4.4h.2c0,.1.2-.4.2-.4" fill="#e0d47f" fill-rule="evenodd"/>
  <path d="M526,79.1v.5c.1,1.7-.7,3.1-2.3,4.1-1.6,1-3.1.8-4.2-.8-.9-1.2-.8-2.7.3-4.3v-.2c1.2-1.5,2-1.7,2.6-.4-.2-1.4.2-2.3,1-2.5.7-.3,1.4-.1,2.4.5.9.5,1.4,1.2,1.4,1.8s-.4,1.1-1.1,1.4h0ZM603.9,82.4c1.4-.4,1.9.7,1.5,3.2h-.2l-1.8.7c-1.6.9-2.6,2.5-2.9,4.8h0c-1.9.4-3.1-.3-3.4-1.9-.5-.4-.8-1-.8-1.8-.8,1.1-2,.9-3.7-.6-.7-.4-.9-1.2-.8-2.3.1-1.1.5-2,1.3-2.8,1.9-2.3,4.2-1.9,6.9,1,.2-.7.7-1,1.4-.9.2-.4.5-.6,1.1-.6.6,0,1.1.3,1.4,1h-.1ZM596.8,86c-.4.5-.5,1-.5,1.5l.5-1.4h0ZM656.9,111.5c-1.3-.6-2.8-.6-4.7,0-1.8.5-2.8,1.4-3.1,2.5h1.7c.9-.3,1.8-.4,2.7-.2,1.8.3,2.7,1.6,2.6,3.8,0,1.9-.8,3.5-2.3,4.7l-6.3,4,1.6.3,4,.5c1.6-.3,3.2-1.3,5-3.1,2.7-.6,4.2-2.7,4.6-6.3.3-1.1-.2-2.3-1.4-3.7-1.3-1.4-2.8-2.3-4.5-2.5h0ZM612.9,127.5c.4-4.8,3.5-6.9,9.3-6.2.3.8.7,1.5,1.1,2.1h-1.8c-2.8.4-4.1,1.3-3.9,2.8.1.8.7,1.3,1.7,1.5.9.2,1.4.8,1.4,1.9,0,2.7-1.3,3.7-4.1,3.1l-.7-.2-.9-.4-.8-.6-.2.2c.4,0,.7.2.9.4,0,0,.8.9.8.9.4.8.5,1.4.2,2.1l-.4.6-.2.2c-1.3-.1-2.8.3-4.7,1.3l-.3-.4c-.3.3-.7.4-1.2.4-.8,0-1.7-.6-2.6-1.5-.9-1-1.3-1.9-1.2-2.9,0-1.1.9-1.8,2.4-2.3-1.1-1.2-.4-1.8,2.1-1.9h3v-1.2h0ZM609.4,140h.2c0,.1-.7,1.4-.7,1.4-1,1.6-1.2,3.1-.4,4.3l5.3-.2c1-.8,1.5-1.5,1.4-2.5l.2-.2,1.3,2.3c.8.9,2,1.3,3.7,1.3v.2c1-.2,1.8,0,2.6.8,1.3,1.3,1.4,3.6.3,6.7-.8,2.4-2.2,3.9-4.1,4.5-1.9.7-3.9.4-6.2-.7l-4.1-2.4-1.5-.8c-2.1-1.1-4.3-1.5-6.5-1.2-5.6.8-8.9,4.3-10,10.6-5.2-.4-9.6.2-13.2,1.8-.4,1.2-1.2,1.6-2.6,1.4h-.3c-1.5-.4-2.1-1.2-2.1-2.6h-2.2c0,0-.4-.9-.4-.9-.3,1.4-1.6,2-3.9,1.9-2.3,0-3.9-.7-4.8-1.8-.6-.1-1.1.1-1.5.7,1.8.8,2.5,2.2,1.9,4.1-.5,2-1.6,3.4-3.4,4.1-1.2.5-2.8.4-4.8-.4l-1.6-.6c-.5.4-1.4.7-2.5.7-1.8,0-3.3-.8-4.4-2.1-.4,1.2-1.5,1.7-3.4,1.6-1.9,0-3.6-.8-5.1-2.2-1.2,1-2.8,1.4-5.1,1.2-2.4-.2-4.2-.9-5.6-2.4l-1.9-2.4-.7-.3-1.2,1.4c-1.2.9-2.6,1.4-4.3,1.4-4.5.2-6.9-1.3-7.3-4.7-.4-2.8,1-4.9,4.2-6.5,2.7-1.4,5-1.6,7.1-.7-.6-.4-.7-1-.2-1.6.5-.8,1.4-1.2,2.6-1.3l3.7.3c1.4,0,2.5-.5,3.5-1.4,1.9-2,1.5-3.7-1.2-4.8-2.1-.9-3.9-.9-5.3,0h-1.3c-1.6,0-2.9.6-4,1.5l-2.9,2.7c-1.1.8-2.4.9-3.7.5-1.3-.4-2.4-1.3-3.5-2.5-.7-.8-1.2-1.5-1.5-2.3-3.2,1.6-5.5,1.3-6.8-1.1.2,1.9-.8,2.5-2.8,2.1-1.7-.4-2.6-1.3-2.8-2.8h.1c0-.1-.1-.1-.1-.1l-1-.6c-1.2-.8-1.6-1.8-1.2-2.9-4.4-.4-6.7-1.8-7-4.4-.4-2.8,1.6-5.7,5.9-8.6,3-1.9,7-3.4,12-4.4l.2.9c-2.8.5-5.7,1.7-8.6,3.5-5.4,2.4-7.9,4.9-7.4,7.6.4,2.1,2.3,3.4,5.6,4.1l.3-.3c2.3-2.7,5.4-3.2,9.6-1.5.2-.7.8-1.4,1.6-2.2,2.1-2.1,4.1-3.2,5.9-3.2,2.3,0,4.2.3,5.8,1.2l2.9,2.1,1.6.9v-.8c.3-1,.8-1.9,1.8-2.6,1.1-1,3-1.4,5.6-1.2,2.5.2,4.3,1.1,5.6,2.8l1.2,2.3c.4.5.9.7,1.3.3v-.6c.3-2.5,2.3-3.1,5.8-1.9v.2-.2c.9-.9,2.2-1.2,4-.9,1.4.2,2.3.7,2.6,1.5.5-.4,1.4-.5,2.7-.4,1.2,0,2.1.7,2.8,1.7.5,1,.7,2.3.4,3.6-.9,3.6-3.8,6.4-8.7,8.5-4.2,2.3-5.9,4.6-4.8,6.8.4.8,1.2,1.5,2.3,1.8l2.4.3c-.3-.6-.4-1.1-.4-1.7.1-.8.7-1.5,1.7-1.9,2.5-1.2,6-.6,10.6,1.8-.5-1.7.3-2.9,2.4-3.8,2.3-.9,5-.7,8.2.7-1.1-1.1-.9-2.3.8-3.4,1.7-1.2,3.7-1.2,6.2,0,2.2,1.5,4.1,2.2,5.7,2.2s3.6-.7,5.5-2.2c1.9,1,3.8.7,5.4-.9,1-1,1.6-2.1,1.8-3.2-.9.9-2.2.9-3.9,0-2.5-1.4-3.2-3.5-2.2-6.3,1.4-3.7,4.7-5,9.7-3.8,1.9.4,4.7,2.3,8.6,5.6,3.4,2.1,6,1.4,8-2.2,1.3.5,2.5.4,3.6-.6,1-.9,1.5-2,1.5-3.4-.7-.3-1.3-.7-1.7-1.4-.6-.9-.7-2.1-.3-3.5.4-1.4,1.1-2.4,1.9-3,.9-.7,2.1-.8,3.5-.3l3.1.4-17.4,11.4ZM522.4,172.7l.3.6-.7.2c-.7.2-1.2,0-1.7-.5-.3-.3-.1-.6.5-.9.6-.3,1.1,0,1.5.7ZM459,127.1c-.3-.7-.4-1.3-.4-1.9,2.3.4,3.5,1.5,3.8,3.3v.7c-1.7-.1-2.9-.8-3.5-2" fill="#e4da8d" fill-rule="evenodd"/>
  <path d="M608.1,63.2c-1.2-1.5-2.2-2.1-3-1.9-.2,0-.8.6-1.9,1.7l-5.4.4c-.7.2-1.7.2-2.8,0-1.2-.1-2.3-.1-3,0-1,.2-2.2.2-3.7,0l-1.9-.3c-.8-1.5-2.1-2.4-3.9-2.6-1.8-.3-2.8.2-2.9,1.4-.2-.6-.8-.8-1.5-.7s-1.3.5-1.5,1.1l-7.4-.2-1.7-1.5c-.4-.2-.9-.1-1.7.4-2.6-.4-4-.2-4.2.5l-5.6-.3-2.7-.2h-.2c-1-1.1-2-1.9-3-2.4-1.5-.7-2.4-.2-3,1.3-.4.2-.9.3-1.7.4-.5,0-.9.2-1.1.7-.8-1.5-1.4-1.5-1.9,0-1.7-1.2-3.1-1.7-4.2-1.4-1.2.7-2.4,1.1-3.5,1.3-2.7.2-4.4.2-5.1,0-1-.1-1.4-.5-1.2-1.2-.5.2-1.1.1-1.8-.3-.7-.4-1.1-.8-1.2-1.4-.5-1.4,1.2-1.6,5.1-.7,1.4.2,2.4,0,2.8-.5.4-.5.4-1.1,0-1.9-.4-.8-.9-1.5-1.8-2-.4-.3-.7-.4-1.1-.5l-.4-.6c-.7-.5-1.5-.8-2.4-.8v-1c0-.2-.3-.1-.7.2-.8.7-1.5.7-2.4,0-.8-.6-.5-1.2.9-1.8,1.6,0,2.1-.5,1.5-1.4-.6-1-2.1-1.9-4.6-2.8-1.8-1.2-2.1-2-.9-2.6,1.2-.6,2.8-.5,5.1.4,2.1,1.4,5.8,1.9,11.2,1.5l.5.3h1.9c1.3-1,4.6-2.1,9.7-3.4-1.9,0-3.5-.4-5-.9-1.7-1.5-4.9-1.8-9.6-.7-1.4,1-2.3,1.4-2.8,1.2l-.4-.5-3.4.3h-.2c-2.3,0-3-.2-2.4-.8,1,.4,1.8.4,2.4.3h.2c.7-.2.4-.7-.7-1.2-.7-.8-.9-1.3-.8-1.5,0-.2.4-.3,1.1-.2,2.3,0,3.8-.2,4.7-.8.6-1,2.9-1.5,6.8-1.5h.5l5.1.2c-1.2-1.2-2.1-1.6-2.9-1.4-1.2.7-1.9.9-2.2,1h-.4l-2.4-.7c-3.1-2.3-6.1-2.3-9.1,0-.7.5-1.1.8-1.3.7l-.7-.7c-.8-1.3-2.4-2-4.8-2.1l-3-.8c-.7-.2-1-.5-.9-.8,0-.4,1.6-2.2,4.9-5.4,1.2-1.5,1.5-2.6.7-3.4-.7-.7-1.9-1.1-3.8-1.2l-5.6.4c-2,.4-3.5,1-4.3,1.8-1.3,1.6-1.4,2.7-.5,3.2.7.5,1.8.4,3.4-.2l-1.3-.9c-1.2-1.7.9-2.3,6.3-1.8,2.7.3,3.2,1.4,1.7,3.4-1.3,1.7-2.9,2.9-4.7,3.6,0,.9-.5,1.8-1.6,2.6l-3.5,2.1c-.8-.8-2.1-.9-4-.4-2,.6-4,1.9-5.8,3.9-.2-.9-1.6-1.5-4.1-1.6l-5.9.3c-1.5-1.1-4.1-.8-7.7.9-.3-.4-1.9-.4-4.7,0l-12.5,1.4c3.5,0,10.8.1,21.9.5l3.2-.9c1.9-.5,3-.6,3.5-.2-1.5.8-.2,1.3,4,1.5,4.1.3,7.6,0,10.3-.7.5.4.6.8.2,1.3,0,.5,1.8,1.2,5.2,2,1.6,1.5,2.4,3,2.2,4.6-.2,1.3-1.1,2.5-2.8,3.5-1.5.9-3.4,1.6-5.6,1.9-2.4.3-4.6.2-6.7-.4l-2.8-1.5c-.9-.4-1.7-.7-2.1-.7-1.2,0-2.4,1.9-3.4,5.4-.6-1.5-1.5-2.4-3-2.6-1.8-.2-3.6.7-5.6,2.6-3.6-1.7-5.9-1.8-7-.3-.4.5-.6,1.2-.6,1.9s0,.7.1.9c-.5.5-.9,1-1.2,1.7-.1-1-.8-1.4-1.8-1.2-1.1.2-2.3,1-3.5,2.4-.3.6-.3,1.2,0,1.9.2.4.6.8,1,1.1-.5.7-1.6.9-3.2.7-2.1-.3-3.9-.9-5.4-2-1.5,2.4-2.6,3.2-3.2,2.6.2-2.3-.8-4-3.1-5.1-1.5-.8-2.7-.9-3.6-.4l-3.4.5h0l-3.5.4c-1.2,0-2.2-.5-3.1-1.7-3.4-4-7.5-5.5-12.3-4.7l-3.7.5h-.7c0-.1-.1-.1-.1-.1-.8-1.6-1.7-2.6-2.8-3-1.2-.3-2.2,0-3.1,1,1-2.4.4-3.1-1.9-2.1,0-2.2-1.2-2.6-3.5-1.2-.8-.9-1.8-1.2-2.8-.7-1.1.6-1.3,1.4-.7,2.5-1.5-.5-2.5-.4-3,.4-.4.8-.3,1.4.4,1.8-.8,1.3-.4,2.1,1.3,2.5s3,0,3.9-1.4c.5-.8,1.1-1.2,1.8-1.4h1c.5,0,.8.3,1,.6.1.3.1.7,0,1-.1.8.5,1.2,1.8,1,1.2-.2,2-.5,2.4-1,.5,0,1.5.3,3,1.1,1,.6,1.8.8,2.5.7-.8.3-1.2.8-.9,1.3.2.6.8.9,1.8.9,0,.2,0,.6,0,1.2,0,.5-.5.8-1.4.7,0,.6-.2,1.2-.7,1.7-.6.6-1.2.8-1.8.8-1.8-1.2-4.4-1.8-8-1.6-1.5,0-2.5.2-3,.7-.5.5-.2,1.3.9,2.2l-.9.2c-2.4-1-4.7-1.4-6.9-1.3-2.4,0-3.8.8-4.1,2.1l-1.4-.2c-1.4.1-2.4,1-2.9,2.6-.8-.4-1.5-.4-2.1.1-.3.3-.5.5-.5.8-1.4-.6-3.1-.5-5.4.2-3.5-.9-6.7-1-9.5-.3-2,.5-4.8,1.6-8.4,3.6-1.5.2-3.3.6-5.4,1.3l-.5.2v-.2l-7.3.6-6.2.5-2.3-.2-1.5-.5c-4-.6-7.6-.7-10.9-.2l-3.9.9,9.6.7,13.2.9,1.8-.3c3.7.5,7.9.3,12.3-.6l3,.6,6.6-.2,9.2-1.2c4.9,1,8.4,1.6,10.6,1.8,3.6.4,6.4,0,8.4-1.3-1,.8-1.6,1.4-1.7,1.6-.1.3,0,.6.5.9-.4.2-.6.4-.5.8,0,.2.3.5.7.7.4.2.8.3,1.2.2.3,0,.5-.1.7-.2.2.1.5.2.8.2.4.9,1.1,1.4,2.3,1.4.9,0,1.9-.2,2.9-.7l.6-.5c.9,1,1.9,1.9,2.8,2.5,1.9,1.3,3.4,1.4,4.5.5l.7-.6,1.2,1.5c1.3,1.9.8,2.7-1.4,2.5-1.7-.6-2.9-.7-3.7-.2-2-1.7-3.9-2-5.7-1.2-.8.3-1.3.8-1.5,1.5-.2.5-.2.9,0,1.4-2.7-.2-5,.3-6.9,1.6-.9.6-1.8.9-2.4.9-1,0-2.5-.4-4.2-1.3-1.4-1.2-2.8-1.7-4.2-1.5-1.4.1-1.8.7-1.3,1.5-2.1-1.3-4-.9-5.6,1.2.4-1.9,0-3.1-1-3.7-.9-.4-1.7-.3-2.5.4-.7-.3-1.4-.4-2-.4-1,.1-1.8.5-2.4,1.2-.6.7-.7,1.3-.3,1.8.4.7,1.5,1,3.1,1.2-.5.7-.6,1.3-.2,1.8.3.5.8.7,1.5.8.7,0,1.4-.2,1.9-.6.6-.5.9-1.2.8-2.3.3,1.5.7,2.3.9,2.5.2.1.5,0,.9-.6.4.6.9.8,1.6.7.7,0,.8-.7.5-1.6,2.2,3.2,3.5,3.5,3.9.8.2.2.5.3.7.4h.1c.9.3,2.1,0,3.5-.8l7.9-.4c1.8-1.3,2.9-1.9,3.1-1.9.5-.1,1.3.3,2.2,1.2l.3.7c.3.8.8,1.4,1.5,1.9,1.1.8,2,.8,2.8.2l.6-.5.5.7c1.6,2.1,3.5,3.4,5.8,3.8,2.6.5,4.2-.4,4.9-2.8,3.4,1.5,5.6,1.4,6.7-.1h.9c0,0,2-.8,2-.8,1.1.1,1.9-.2,2.4-.8h1.4c.8-.2,1.3-.6,1.6-1.3,1.1.6,2,.7,2.9.3.8-.4.7-1.1-.3-1.9.6.1,1.2,0,1.8-.4.7-.5.7-.9,0-1.5,1,.1,1.5-.2,1.5-.8s-.5-.9-1.5-.8c-2.5-1.2-4-.9-4.4.5l.3,1.5c.1.2.3.3.5.3-1.2,1.2-2.1,1.2-2.7.3-.2-.4-.5,0-.9,1.2v.2h0c-.3-.3-.8-.2-1.4,0-1.2-1.7-2.1-2.5-3.1-2.4.1-1.3,0-2.6-.6-4.1-.8-2.1-1.9-2.5-3.3-1.2.2-2.7-.7-4-2.8-3.7-.8.2-1,0-.9-.4,0-.4.4-.9,1.1-1.5,1.8-1.5,3-1.2,3.7.7,2.9,3.1,4.8,2.7,5.7-1.1,2,1.4,3.5,2.1,4.4,2.1,1.2,0,1.9-1.2,2-3.6,1.3.9,2.3,1.3,3,1,.4-.2.9-.8,1.7-1.9.8.7,1.5,1,2,.9.6,0,1.2-.6,1.9-1.5,1.2-.7,2.2-.8,3-.3h.2c.4.4.9,1,1.6,1.8-.9,0-1.6.3-2.3.6-1.7.7-1.4,1.5.8,2.4-2.3.8-3.4,1.6-3.5,2.6-.1.8.5,1.5,1.8,2.1,1.2.6,2.5.9,4,.9,1.2,0,2.1-.1,2.6-.5l.4-.3h0c0,0,.1,0,.1,0,.7-.6,1-1.6,1-3.2s0-.8.3-.8.9.2,1.8.7c1.9,1.1,2.7,2,2.4,2.9-.2.8-1.1.9-2.6.4h-1.9c0,0-.7.3-.7.3l-.4.6c-.5,1.2.3,1.7,2.5,1.7s5-.3,6.3-.9c.5-.3,1-.7,1.4-1.1,1.9,0,3.7.2,5.6.8.7.2,2.6,1,5.8,2.4,2.1.9,3.8,1.3,5.2,1.3,1.5-.1,3-.8,4.6-1.9l4.1.7c2.1,0,4.1-1,6.2-3.1,1.9-1.3,4.1-1.9,6.6-1.9s3.7.3,7,.9c3.1.6,5.4.8,7,.8,2.5-.1,4.7-.9,6.5-2.4-.9.2-1.5-.4-1.6-1.8-.2-1.7-1.2-2.1-2.8-1.2-.7-.5-1.4-.8-2.3-.7-.9,0-1.2.4-.8,1.2-.7,0-1.1.2-1.2.7-.2.5,0,.8.8.9v.2c0,0-1,0-1,0-.7,0-1.4-.2-2-.6-.7-.3-1.3-.6-2-.7h-.9c-.4.2-.7.4-.8.5h-1.2c-.4,0-1.2,0-2-.2h-.7c.2-.5.1-.9-.2-1.4-.1-.2-.2-.3-.4-.3,0-.4-.1-.7-.3-.8-.2-.1-.3,0-.5.4,0-.1-.2-.2-.6-.2h-.3c-.9-.4-1.5-.8-1.8-.9-.6-.5-.5-1,.3-1.7.6-.4,1.1-.5,1.4-.4.3.1.4.3.4.7,0-.6.4-.9,1-.9h.3c.7-.6,1.3-.9,1.9-.9.4,0,1.2.3,2.1.8,1,.3,2,.4,2.9.4.4.4.9.8,1.2,1,.7.4,1.2.5,1.5.1l.3.2c.1.2.3.2.4.3h0c1.6,1,3.1,1.2,4.5.5.9-.4,2-.6,3.4-.4.6,0,1.9.3,3.8.8,1.4.3,1.9.3,1.5,0-.4-.4-1.3-.8-2.8-1.2-1.2-.3-1.7-.5-1.5-.7l.3-.2c.1-.1.2-.2,0-.4.9.3,1.7.4,2.4.3.9-.1,1.1-.6.7-1.2.7.2,1.3.3,1.9.2h.4c.6.3,1,.5,1.5.6.7,0,.9-.3.8-1,.5.5.9.7,1.3.6s.4-.4.3-.8c.6.2,1.7.4,3.4.6,1.8.2,3.1.2,3.9,0,1.5.1,3.8.2,6.9.2.4.5.9.7,1.2.6.4-.1.4-.5.1-1.3" fill="#c6b342" fill-rule="evenodd"/>
</svg>