<?xml version="1.0" encoding="UTF-8"?>
<svg id="Layer_1" xmlns="http://www.w3.org/2000/svg" version="1.1" viewBox="0 0 773.7 248.9">
  <!-- Generator: Adobe Illustrator 30.1.0, SVG Export Plug-In . SVG Version: 2.1.1 Build 136)  -->
  <path d="M384.6,50.3c-7.5-4.1-13.4-7-17.4-8.9-7.1-3.4-12.4-5.3-16-5.7l-17.5-1.5c-3.5-.2-6.2-.7-8.1-1.3,2.3,1.2,4.3,1.8,6.2,2l7.9.8c12.2,2.6,19.4,5.1,21.8,7.5,3.9,2,6.5,3.5,7.9,4.6,1.9,1.6.5,1.8-4.2.7-5.1-1.1-10.3-1.7-15.9-1.8h-.1v.2c0,0,8.7,1.6,8.7,1.6,5.4,1.3,6.9,2.4,4.5,3.4-3.5-.4-7.1-.5-11-.1v.2l11.8,1.3c5.8.9,4.9,1.4-2.6,1.4l-24,.9c-6,.7-11,.6-14.9-.3l-16.4-1.5c-3.4-.5-3.7-1.5-1.3-2.9,1.8-1.2,1.6-2.2-.6-2.9l-6.6-.6c-5.8-.1-10-.9-12.5-2.4-1-.6-1-.9,0-1.2,1.2-.3,3.4-.2,6.6.1,11,.4,21.8-.2,32.4-2,4.1-.7,5.9-1.3,5.7-1.8l-9.1-.5-27.8,1-14.6-.4c-4.1-1-7.9-1.3-11.4-.8l-8.4,1.4c6.5-.5,11.3-.2,14.1.7,2,.7,4.5,2.4,7.4,5.3,2.3,2.2,4.5,3.5,6.5,3.8l6.3.6c4.1.9,6.4,1.6,6.8,2.3.5.9-1.5,1.6-5.9,2.3l-13.8,1.5,16.6,1c4.3.9,7.3,1.7,9,2.5,2,.9,1.4,1.4-1.8,1.5-1.4-.1-2.9-.4-4.4-.9l-3.4-1c-2.5-.6-5.8,0-9.6,1.6-3.2,1.2-5.5,2.8-6.9,4.7-1.2,1.7-4,3.4-8.2,5.1,8.5-3,13.4-4.5,14.6-4.7,1.3-.2,2.5,0,3.7.6.7.4,2.1,1.3,4.1,2.7,7.6,3.9,17.1,4.7,28.7,2.5l.2-.4-5.7-2.2c-3.1-1.4-5.6-2.2-7.3-2.4-3.4-.4-5.6-1.3-6.6-2.9-.9-1.5,1.7-1.7,7.8-.6l15.1.9c1.8-.2,3.4-.6,5.1-1.2,4.2.5,8.1.2,11.7-.9,2.1-.7,5.2-1.9,9.2-3.7,5.3-.9,9.8-.9,13.6-.1,2.2.4,5,1.3,8.5,2.7l17.8.9c2.1.2,2.9.6,2.4,1.3-.6.8-2.9,2.1-7.1,4.1l-19.6,6c-3.2.9-6.6,1.3-10.3,1.2-6.4-.2-10.7.5-12.9,2.1-2.7,2-.2,4.5,7.3,7.5,4.3,1.9,8.1,4.4,11.4,7.6,3.1,3.1,5.3,6.4,6.6,9.9,1.3,3.7,1.3,7,0,10-1.4,3.4-4.2,5.9-8.3,7.8-10.8,5.2-18.1,7.7-21.9,7.6-1.4,0-2.9-.4-4.3-1.2-2.4-1.2-3.9-1.8-4.5-2l-2.2-.6c-.7-2.4-2.1-4.8-4.2-7.1-3.4-3.6-6.8-4.9-10.3-4.2-2.7-3.5-7.1-3.4-13.4.5,0-2.3-.7-4.5-2-6.8-2.6-4.7-6.2-6.7-10.8-5.9-1.4-3.4-3.5-5.3-6.3-5.7l-7.8.5c-.5-1.5-1.4-3-2.7-4.3-2-1.9-4.3-3.1-7-3.8-3-.7-5.8-.3-8.5.9-3.1,1.4-5.6,3.9-7.6,7.4-7.6-3-13.4-1.6-17.2,4-2.3,3.4-3.4,6.9-3.6,10.7l-4.2.2c-3.4.5-5.7,1.8-6.9,3.8-2.6-1-5.2-1.2-8.1-.5-2.9.8-5.3,2.1-7.4,4.2-4.9,1.5-7.6,5.3-8.1,11.2-3.1,2.3-3.4,5.3-.9,9,1,1.4,2.2,2.6,3.6,3.6,1.4,1,2.5,1.5,3.4,1.6-2.7,3-3.9,6.6-3.5,10.7.4,4,2,6.9,4.7,8.9,1.9,4.5,5.1,6.9,9.4,7.4l5-.3c.4,2.9,1.6,5.8,3.6,8.5,2.7,3.7,5.7,5.6,9.1,5.9,1.8,2,4.2,3.6,7.3,4.7,3,1.1,6,1.5,9.2,1.3,4-.3,7.2-1.4,9.6-3.4,4.2,5.6,9.5,7.2,15.7,5,5.5,2.1,9.7,2,12.6-.2l2.5-2.5c.8-.7,1.6-.9,2.3-.7,4.6-.4,7.9-1.8,9.8-4,.6-.7,1.5-2.4,2.8-5.2,4.9.5,9.8-.9,14.9-4.2,4.9-3.2,7.8-7.1,8.8-11.6,1.3.4,2.8.7,4.5.6,6.9-.1,11.7-3.9,14.6-11.4,1.9-4.3,4.3-7.3,7.3-8.7,2.3-1.2,5.2-1.6,8.7-1.2,2,.2,5.2.8,9.5,1.8l9.5.4c4.7-.9,8.9-2.8,12.4-5.6,3.5-2.7,5.9-5.9,7.3-9.6,1.4-3.8,1.6-7.6.4-11.4-1.2-4.1-3.9-7.8-8-11.1-10.1-8-16.1-15.1-18.1-21.2-2-6.2.9-9.2,8.8-9.1,14.4,0,24.5-.8,30.4-2.4,7.1-2,9.8-5.4,7.9-10.3-2-4.6-4.8-7.5-8.2-8.7l-3.9-1.2c-1.4-.6-2.5-1.4-3.4-2.6-2.1-2.2-4.8-3-8.1-2.3l-3.9.9c-1.5.2-2.8,0-4-.4h-.2ZM262.9,137.9h1.2c0,.1-1.3.5-1.3.5v-.5h.1ZM216.8,163.1h-.1c0-.1.1,0,.1,0" fill="#d9cc6e" fill-rule="evenodd"/>
  <path d="M212.7,68.4c-.5-.6-.9-.9-1.2-.8,0,0-.3.2-.8.7l-2.2.2c-.3,0-.7,0-1.2,0-.5,0-.9,0-1.2,0-.4.1-.9.1-1.5,0h-.8c-.3-.7-.9-1-1.6-1.2s-1.2.1-1.2.6c-.1-.2-.3-.3-.6-.2-.3,0-.5.2-.6.4h-3.1c0-.1-.7-.7-.7-.7-.2-.1-.4,0-.7.1-1-.1-1.7,0-1.7.2h-2.3c0-.1-1.1-.2-1.1-.2h0c-.4-.4-.8-.8-1.2-.9-.6-.3-1-.1-1.2.5-.2.1-.4.1-.7.1s-.3.1-.4.3c-.3-.6-.6-.6-.8,0-.7-.5-1.3-.7-1.7-.5-.5.3-.9.4-1.4.5-1.1,0-1.8,0-2.1,0-.4,0-.6-.2-.5-.5-.2.1-.4,0-.7-.1-.3-.2-.5-.3-.5-.6-.2-.6.5-.7,2.1-.3.6,0,.9,0,1.2-.2.2-.2.2-.4,0-.8-.2-.3-.4-.6-.7-.8l-.4-.2-.2-.2c-.3-.2-.6-.3-.9-.3v-.4c0,0-.1,0-.3.1-.3.2-.7.2-.9,0-.3-.2-.2-.5.4-.8.7,0,.9-.2.6-.6-.2-.4-.9-.8-1.9-1.1-.7-.5-.9-.8-.4-1,.5-.2,1.2-.2,2.1.2.9.6,2.4.8,4.6.6h.2c0,.1.8.1.8.1.5-.4,1.9-.9,4-1.4-.8,0-1.4-.2-2-.4-.7-.7-2-.7-3.9-.3-.6.4-.9.6-1.2.5l-.2-.2h-1.4c0,.1-.1.1-.1.1-.9,0-1.3,0-1-.3.4.1.8.2,1,.1h0c.2-.1.1-.2-.3-.5-.3-.3-.4-.5-.3-.6,0-.1.2-.1.4-.1.9,0,1.5,0,1.9-.3.2-.4,1.2-.6,2.8-.6h2.3c-.5-.4-.9-.6-1.2-.6-.5.2-.8.4-.9.4h-.2l-.9-.3c-1.3-.9-2.5-.9-3.7,0-.2.2-.4.3-.6.3l-.2-.3c-.4-.5-1-.8-2-.9l-1.2-.3c-.3-.1-.4-.2-.4-.3,0-.2.7-.9,2-2.3.5-.6.6-1,.3-1.4-.2-.3-.8-.4-1.5-.5l-2.3.2c-.8.2-1.4.4-1.8.8-.5.7-.6,1-.2,1.3.3.2.8.2,1.4,0l-.5-.4c-.4-.7.4-.9,2.6-.8,1.1.1,1.3.6.7,1.4-.5.7-1.2,1.2-1.9,1.5,0,.4-.2.7-.7,1l-1.4.8c-.3-.3-.8-.4-1.6-.1-.9.2-1.6.8-2.4,1.6-.1-.4-.7-.6-1.7-.7h-2.4c-.6-.3-1.7-.2-3.1.5-.1-.2-.8-.2-1.9,0l-5.1.6c1.4,0,4.5,0,9,.2l1.3-.4c.8-.2,1.2-.2,1.4,0-.7.3-.1.6,1.6.7s3.1,0,4.2-.3c.2.2.2.3,0,.5,0,.2.7.4,2.1.8.7.6,1,1.2.9,1.9-.1.6-.5,1-1.2,1.4-.6.4-1.4.7-2.3.8s-1.9,0-2.7-.2l-1.2-.6c-.4-.2-.7-.3-.9-.3-.5,0-.9.8-1.4,2.2-.2-.6-.7-.9-1.2-1-.7-.1-1.5.3-2.3,1-1.5-.7-2.4-.7-2.9-.1-.2.2-.2.5-.2.8v.3c-.1.2-.3.4-.4.7,0-.4-.3-.6-.7-.5s-.9.4-1.4,1c-.1.2-.1.5,0,.8.1.2.3.3.4.4-.2.3-.7.4-1.3.3-.9-.1-1.6-.4-2.3-.8-.6,1-1,1.3-1.3,1,.1-.9-.3-1.6-1.3-2.1-.6-.3-1.1-.3-1.5-.1l-1.4.2-1.4.2c-.5,0-.9-.2-1.2-.7-1.4-1.6-3.1-2.3-5.1-1.9l-1.5.2h-.3c0,0,0,0,0,0-.3-.7-.7-1-1.2-1.2-.4-.1-.9,0-1.3.4.4-1,.2-1.3-.8-.9,0-.9-.5-1-1.4-.5-.3-.4-.7-.5-1.2-.2-.4.2-.6.6-.3,1-.6-.2-1-.2-1.2.2-.2.3-.1.6.2.8-.3.5-.2.9.5,1,.7.2,1.2,0,1.6-.5.2-.3.5-.5.7-.6h.4c.2,0,.3.1.4.2,0,.1,0,.2,0,.4,0,.3.2.5.7.4.5-.1.8-.2,1-.4.2,0,.6.1,1.2.4.4.2.8.3,1,.3-.3.1-.5.3-.4.6.1.2.3.4.8.4v.5c0,.2-.2.3-.6.3,0,.2-.1.5-.3.7-.2.2-.5.3-.8.3-.7-.5-1.8-.7-3.2-.7-.7,0-1,.1-1.2.3-.2.2-.1.5.4.9h-.4c-.9-.3-1.9-.5-2.8-.4-1,0-1.5.3-1.7.9h-.6c-.6,0-.9.3-1.2,1-.3-.2-.6-.1-.9,0-.1.1-.2.2-.2.3-.5-.2-1.3-.2-2.3.1-1.4-.4-2.7-.4-3.8-.1-.8.2-2,.7-3.4,1.5-.6,0-1.3.2-2.2.5h-.2c0,0,0,0,0,0l-3,.2-2.5.2h-.9c0,0-.7-.3-.7-.3-1.6-.3-3.1-.3-4.5-.1l-1.6.4,4,.3,5.4.4h.7c1.5.1,3.2,0,5.1-.3l1.2.2h2.7c0-.1,3.8-.6,3.8-.6,2,.4,3.4.7,4.3.8,1.5.1,2.6,0,3.4-.6-.4.3-.7.6-.7.7,0,.1,0,.2.2.4-.4.2-.6.4-.5.8,0,.2.3.5.7.7.4.2.8.3,1.2.2.3,0,.5-.1.7-.2.2.1.5.2.8.2.1.4.4.6.9.6.4,0,.8,0,1.2-.3l.2-.2c.4.4.8.8,1.2,1,.8.5,1.4.6,1.8.2l.3-.2.5.7c.5.8.3,1.1-.6,1-.7-.2-1.2-.3-1.5,0-.8-.7-1.6-.9-2.3-.5-.3.1-.5.3-.6.6v.6c-1.1-.1-2,.1-2.9.7-.4.2-.7.4-.9.4-.4,0-1-.1-1.8-.5-.6-.5-1.2-.7-1.8-.7-.6,0-.8.3-.6.7-.9-.5-1.6-.4-2.3.5.2-.8,0-1.3-.4-1.5-.4-.2-.7-.1-1,.2-.3-.1-.5-.2-.9-.2-.4,0-.7.2-.9.5-.2.2-.3.5-.1.8.2.3.6.4,1.3.5-.2.3-.2.5-.1.7s.3.3.6.3.6-.1.8-.3c.2-.2.3-.5.3-.9.1.6.2.9.4,1,0,0,.2,0,.4-.3.2.2.4.3.6.3.3,0,.4-.2.2-.7.9,1.3,1.4,1.4,1.6.3.1,0,.2.1.2.1h0c.4.1.9,0,1.4-.3l3.2-.2c.8-.5,1.2-.8,1.3-.8.2,0,.5.1.9.5v.2c.2.3.4.6.7.8.4.3.9.3,1.2,0l.2-.2.2.3c.7.9,1.4,1.4,2.3,1.6,1,.2,1.8-.2,2-1.2,1.4.6,2.3.6,2.8,0h.3l.9-.3c.4,0,.8,0,.9-.3h.6c.3,0,.6-.2.7-.5.4.2.8.3,1.2.1.3-.2.3-.4-.1-.8.2,0,.5,0,.8-.1.3-.2.3-.4,0-.6.4,0,.7,0,.7-.3s-.2-.4-.7-.3c-1-.4-1.6-.4-1.8.2v.6c.1,0,.2.1.3.1-.5.5-.9.5-1.2.1,0-.1-.2,0-.3.5-.1,0-.3,0-.6.1-.5-.7-.9-1-1.3-1,0-.5,0-1.1-.2-1.7-.3-.9-.8-1-1.4-.5.1-1.2-.3-1.6-1.2-1.5-.3.1-.4,0-.4-.2s.2-.4.5-.6c.7-.6,1.2-.5,1.5.3,1.2,1.3,2,1.1,2.4-.4.8.6,1.4.9,1.8.9.5,0,.8-.5.8-1.5.5.4.9.5,1.2.4.2,0,.4-.3.7-.8.3.3.6.4.9.3.2,0,.5-.3.8-.7.5-.3.9-.3,1.2-.1h0c.2.2.4.4.7.8-.4,0-.7.1-.9.2-.7.3-.6.6.3.9-.9.3-1.4.7-1.4,1,0,.3.2.6.7.9.5.2,1,.3,1.7.4.5,0,.8,0,1-.2l.2-.2c.3-.3.4-.7.4-1.3s0-.3.1-.3.4,0,.8.3c.8.4,1.1.8,1,1.2s-.4.4-1,.2h-1.1c0,.1-.2.3-.2.3-.2.4.1.7,1,.7s2-.1,2.5-.4c.2-.1.4-.3.6-.4.8,0,1.5.1,2.3.3.3.1,1,.4,2.4,1,.9.4,1.5.6,2.1.5.6,0,1.2-.3,1.9-.8l1.7.3c.9,0,1.7-.4,2.5-1.3.8-.5,1.6-.8,2.7-.8s1.5.1,2.9.4c1.3.2,2.2.3,2.9.3,1,0,1.9-.3,2.6-.9-.4,0-.6-.2-.7-.8-.1-.7-.5-.9-1.2-.5-.2-.2-.5-.3-.9-.3-.4,0-.5.2-.3.5-.3,0-.5.1-.5.3,0,.2,0,.3.3.3v.2c0,0-1,0-1,0-.7,0-1.4-.2-2-.6-.7-.3-1.3-.6-2-.7h-.9c-.4.2-.7.4-.8.5h-1.2c-.4,0-1.2,0-2-.2h-.7c.2-.5.1-.9-.2-1.4-.1-.2-.2-.3-.4-.3,0-.4-.1-.7-.3-.8-.2-.1-.3,0-.5.4,0-.1-.2-.2-.6-.2h-.3c-.9-.4-1.5-.8-1.8-.9-.6-.5-.5-1,.3-1.7.6-.4,1.1-.5,1.4-.4.3.1.4.3.4.7,0-.6.4-.9,1-.9h.3c.7-.6,1.3-.9,1.9-.9.4,0,1.2.3,2.1.8,1,.3,2,.4,2.9.4.4.4.9.8,1.2,1,.7.4,1.2.5,1.5.1l.3.2c.1.2.3.2.4.3h0c1.6,1,3.1,1.2,4.5.5.9-.4,2-.5,3.4-.4.6,0,1.9.3,3.9.8,1.4.3,1.9.3,1.5,0-.4-.4-1.3-.8-2.8-1.2-1.2-.3-1.6-.5-1.5-.7l.3-.2c.1-.1.2-.2,0-.4.9.3,1.7.4,2.4.3.9-.1,1.1-.5.7-1.2.7.2,1.3.3,1.9.2h.4c.6.3,1,.6,1.5.6.7,0,.9-.3.8-1,.5.5.9.7,1.3.6s.4-.4.3-.8c.6.2,1.7.4,3.4.6,1.8.2,3.1.2,3.9,0,1.5.1,3.8.2,6.9.2.4.5.9.7,1.2.6.4-.1.4-.6.1-1.3" fill="#a38917" fill-rule="evenodd"/>
  <path d="M313.6,9.1c-.9,1.2,0,2.2,2.5,3.1-.3,0-.5.2-.6.5,0,.3.1.6.6.9-1.7-.4-2.5,0-2.5,1.4s.7,2.1,2,2c.8.1,1.2.8,1.2,2.1s-.5,1.7-1.6,1.4c0,.6-.4,1-1.1,1.5-.8.4-1.4.3-2-.2h-1.8c-.3-.1-.7-.5-1.2-1.3l-1.4-2.4c-1.6-2-3.6-2.2-6.2-.5l-2.3,1.5c-.7.3-1.4.5-2,.5-1.3,0-2.1-.9-2.2-2.5-1.2,0-2-.3-2.9-1.2-1-1.2-.3-2.7,2-4.4-1.9-.6-3.1-1.5-3.6-3-.4-1.3-.1-2.6.8-3.9.9-1.3,2.3-2.3,4-2.6h4.1c0,.1,3.4,0,3.4,0,.2-.8.9-1.4,2.3-1.8,1.4-.4,2.5-.3,3.4.4,1.6.9,2.5,2.4,2.7,4.3.2,1.6.9,3,2.1,4.1h.2ZM422.6,95.8c.7,0,1.2.2,1.5.5.5-.3,1.2-.9,2-1.7,1.2-1.2,2.3-1.4,3.4-.7,1.2-1.1,2.7-1,4.6.3.6.4,1,.9,1.3,1.4l1.5-.3c1.6-.2,2.3.5,2.1,2,.3-.8.9-1.2,1.6-1.2s1.4.3,2.1.8c1.8,1.5,2,2.9.5,4.2-.7.7-1.5.8-2.5.3l-.7-.4h-.1l-1,.7c-.5,0-.9,0-1.2-.4h0c0-.1-.6.6-.6.6-.4.8-.8,1.2-1.2,1.4h-1.9c-.6-.4-.9-.9-.9-1.7-.2.7-.8.9-1.9.8s-1.7-.6-1.9-1.2c.4-.8.4-1.3-.2-1.8h-.4c0-.1-.3.8-.3.8-.6.9-1.3,1.2-2.1,1-.8-.6-1.4-.9-2-.9h-1.2c-.4.1-.8-.1-.9-.6.3-.9.4-1.5.1-1.9h-1.9c0,0-.7.6-.7.6h-1c-.6-.4-.9-.8-.8-1.2h.1c.6.5,1,.3,1.3-.4.3.4.7.4,1,.3l.3-.2.2-.6h.1c.2-.4.7-.5,1.3-.5h.4ZM393.1,120.9c0,1.7-.7,3.1-2,4.1l-5.4,3.4c-2.1-.2-4.2.7-6,2.6-.8,0-1.4.6-1.7,1.7v.3c-1.1.8-2.4.9-3.8.7-2-.7-3.6-1-4.7-1.1-1.3,0-2.6.4-4,1.3-1.4.9-1.6,1.9-.6,2.9v.2c-.2,1-1,1.4-2.5,1.2l-4.1-1.4-.3-.3.3-.5c.2-.6.2-1.2-.2-1.8l.2-.5.6.2c2.4.6,3.6-.3,3.5-2.7,0-.9-.4-1.4-1.2-1.6-.9-.2-1.3-.6-1.4-1.3-.2-1.3.9-2.1,3.4-2.4h1.6c-.4-.5-.7-1.1-.9-1.8-.6-1.8-.2-3.4,1-5,1.7-2,5-2.7,9.7-2,1.8.3,3.6.3,5.2.1l2.4-.6-.2.8c-.2,1.3.2,2.5,1.3,3.5,1,1,2.3,1.4,3.6,1.3,1-.1,1.9-.7,2.4-1.9.6-1.2.3-2-.9-2.4.8-.3,1.5-.4,2.3-.3,1.5.3,2.3,1.4,2.3,3.4h0ZM121.9,100.3c-.2,1,.2,1.6,1.3,1.7v.3c0,0-2.9-.3-2.9-.3l-.6.9c-.8.9-1.8.9-2.8.2-.8-.6-1-1.4-.8-2.5.3-1,.9-1.5,2-1.2,0-.9.4-1.3,1.3-1.3.8,0,1.4.4,1.9,1,.7-1.1,1.4-1.2,2-.2.4.7.3,1-.3,1.1-.8.1-1.2.3-1.2.4h0ZM131.9,141.8c2-.1,3.2-1,3.7-2.8.8,1.9,2,2.6,3.6,2.3l.8-.2c.6.3,1.4.3,2.4,0,.9-.3,1.5-.7,1.9-1.3l.2-.8c1.2,1.4,2.8,2.4,4.9,2.9l1.8.3h1.6c.9.6.9,1.1,0,1.7h-.1c-1,.6-1.9.4-2.5-.4,1,1.5.7,2.6-.9,3.4-1.6.9-3,.6-4-.8-.7,1.2-1.7,1.3-3,.5-1.3-.7-1.9-1.7-1.9-2.9-.6,1-1.5,1.2-2.6.3l-1.2-1c-.8,1.2-2,1.3-3.4.1l-1.3-1.3h0ZM104.5,121.9v.7c1.2,0,2,.7,2.4,2,.2.5.1.8,0,1l-1-.2c.2,1.3-.2,2.5-1.4,3.5-1.2,1.1-2.5,1.3-3.8.8-1-.5-1.4-1.1-.9-1.9.7-1.2.9-1.9.8-2.4-3,1.6-3.9.7-2.6-2.6-.9-.1-1.3-.4-1.2-.7l.4-.6c.7-.7,1.5-1,2.3-1.2.7,0,1.5.2,2.6.8,1.2.6,2,.9,2.5.9h0ZM11,139.3l-.3.3-.9.2-.7-.4c-.3.5-.7.8-1.3.7s-.9-.4-1.2-.9h-3.8c.1.9,0,1.5-.5,1.6-.4,0-.9-.1-1.4-.6-.6-.5-.8-.9-.9-1.3,0-.5.3-.7,1-.7-1-.4-1.2-.9-.5-1.6.7-.7,1.5-.9,2.4-.7l.2,1.3c1.3-.3,1.9,0,1.8,1.3l4.8.2c-.9-1.2,0-1.7,2.5-1.8,2.5,0,4,.2,4.5.6-.6-1.2-.2-1.7,1.2-1.5.5,0,.8.2,1,.4.2.2.1.5-.3.8l2.4.2c.2-.8.9-1.2,2-1.2l2.7.5c.5-1.3,1.3-1.4,2.2-.3.1-.8.5-1.2,1.3-1.3.5,0,.9,0,1.2.4v.8l.2.7c-.5.6-.8,1.2-.7,2l-7.7-.3c-1.4.6-2.6.9-3.7,1.2-1.8.3-2.7,0-2.9-1.2h-1.7v.7l-3.1.3v-.3" fill="#efeab8" fill-rule="evenodd"/>
  <path d="M263.2,78.7l12.5-2.4c5.6-.6,11.3.2,17.2,2.4,7.8,4.1,13.5,6.7,17.1,7.7l4.3,1.1c.6.2,1,.5,1.3.8.3.3.4.8.4,1.2,0,1-.3,1.8-.9,2.3-.6.3-1.8.7-3.7.9-2.6.8-4.3,1.5-5,2.1-.9.8-.8,1.7.2,2.7,4.8,2.5,8,4.6,9.6,6.3,1.4.9,3.4,2,5.9,3.2.6.4,1.2.7,1.6,1h1.1c0-.1,2.5.2,2.5.2,2.3.6,2.9,1.6,1.9,3,.4-.5,1.2-.9,2.1-1,1.2-.2,1.9.1,2.4.8.4.6.5,1.3.1,2v.2c.5.3.5,1,0,2.1-.5,1.2-1.3,1.6-2.3,1.1,0,.5-.2.9-.5,1.4.2.1.5.3.8.5,1.2,1,1.3,2,.4,3-.9,1.3-2.1,1.9-3.7,1.6l-8.1-.6c-5.9,2.6-11.5,4.8-16.7,6.7l-5.8,3.4c-2.6,1.3-5.9,2.3-9.8,2.9-2.3,1.1-5.9,1.8-10.6,2.1-2.9.2-9.5.4-19.7.5-4.3-.3-7.8-.3-10.2.1l-.2-.8,3.9-.6,21.2-1.9c7.3.2,12.9-.9,16.8-3.4l5.1-3.7c1.7-1.3,3.4-2.3,5.2-3.2h1.9c1.3,0,2-.3,2-1l1-.4c.9-.6,1.2-1.4.8-2.3-.3-.7-.9-.9-1.8-.7l-2.3.6c-2.4.3-3.9,0-4.6-1-.6-.9-.6-1.6-.2-2.4.4-.7,1.2-1.1,2.1-1v-.7c-3.2.7-5.2.4-5.9-.8-.8-1.2-.7-2.1.4-2.8h3.1c-.5-1.5,0-2.5,1.6-3.1,1.4-.5,2.8-.5,4,0,1.2.6,1.9,1.4,2.1,2.7v.6h.1c0-.1.5-.8.5-.8l1.4-2c.6-.7,1.3-.9,2.3-.8,2,.3,2.8,1.4,2.4,3.4.4-1.9,1.7-2.4,3.9-1.6,1,.4,1.8.9,2.1,1.7.3.7.3,1.6,0,2.6-.5,1.5-1.8,2.5-3.8,2.9l-1.2.2,1.1.4h1.6c2.4-.9,3.6-2.4,3.5-4.5,0-.7-.2-1.3-.5-2-.6-1.2-1.8-2.4-3.4-3.6l-6.2-4.1c-2.3-1.3-4.1-2.5-5.4-3.4-2.5-1.8-3.9-3.2-4-4.5-.1-1.4,1.4-2.5,4.3-3.2,1.3-.3,2-.6,2.4-.9.5-.5.3-1.3-.4-2.3,1.3-.3,1.4-.9.2-1.7-1-.8-2-1.2-2.9-1.4l-6-.7-3-.4-2.6-1.4c-.9-.4-2-.6-3.4-.4.4.7.6,1.4.5,2.3,0,1.2-.5,2.1-1.3,3-.9.9-1.8,1.3-2.8,1.3s-2-.7-2.8-1.9v-.4c.6-.2.9-.7.9-1.2,0-.6-.4-1-1.2-1.5-.8-.5-1.4-.7-2-.4-.7.2-.9,1-.9,2.2-.5-1.2-1.2-1-2.1.3-.8-.9-2-1-3.6-.5-1.8.6-3.3,1.6-4.5,3-1,1.2-2.8,1.8-4.9,1.9-2.9.1-4.8.4-5.7.7v1.2c.8.3,1.8.6,3.1.7l7.1.5c3,.4,5.1,1.3,6.4,2.8.7.9,1.1,2,1,3.5,0,1.4-.4,2.5-1.2,3.5-1.2,1.8-3.6,2.4-7.2,1.9l-7.4-.3c-1.3.2-2.3.8-2.6,1.7-.4,1.2-.9,2.1-1.4,2.9-1,1.4-2.8,1.6-5.4.9-1.8-.6-3.1-1.3-3.9-2.2l-.8-1.3h-.8c0-.1,0,0,0,0-.7.1-.9.4-.9,1,0,.8.3,1.4,1,2,1.8,1.7,3.7,2.7,5.7,3.2,1.3.3,3,0,5-1l4.7-2.5c2.7-1.2,5-1.7,7-1.4l3.1.5c1.2.2,2.3.2,3.2,0,2.8-.7,4.7-.8,5.9-.5,1.8.4,2.8,1,3,1.7.3.7.2,1.2-.1,1.2l-1.3.3-1.5.5c-.6.2-.7.7-.5,1.4,0,.2.9.6,2.7,1.2l2.7.7c1,.4,1.6,1,1.6,1.9,0,1-.5,1.4-1.6,1.2l-3-.3c-1,.4-1.5,1.2-1.6,2.1,0,.7.1,1.3.6,1.8-.7-.3-1.4,0-2.1.7-.9,1-1,2-.5,3.1.3.5.8.9,1.4,1-1,1.7-2.9,2.5-5.3,2.5l-2.9-.7c-1.3-.4-2.3-.7-2.9-.6-.6,0-1,.3-1.5.8l-1.3.9h-2.9l-3.6-.6h-.3c0,0,.2.2.2.2.9.8.7,1.7-.9,2.5-1.7.9-3.1,1.4-4.5,1.4l-8.9-.9c-5.1-.3-9.7.5-14,2.3-2.5,1-4.2,2.3-5.1,3.6-.4.6-.7,1.4-.9,2.6-.2,1.2-.5,2.1-.8,2.6s-1.8,1.5-4.3,3c-1.3.7-2,1.7-2.4,2.8h-1.8c-3-.4-4.6-1.6-4.9-3.6-.3-1.8.3-3.9,1.7-6.1,1.4-2.3,2.9-3.1,4.5-2.5-1.8-.9-2.4-2.5-1.8-4.8.6-2.4,1.8-4,3.5-4.9,1.5-.7,3.2-1,5.3-.8h.6c0-.8.6-1.7,1.6-2.6,1.3-1.2,2.8-1.8,4.4-2,.8-.1,2.3-.1,4.5,0l4.5-.3c1.3-.3,2.8-1.2,4.3-2.6,1.8-1.7,1.9-2.9.1-3.5.9.2,1.6,0,2.3-.3.7-.4.9-1,.7-2-.2-.7-1.3-1.4-3.3-2.3-2.1-.8-3.4-1.8-3.7-2.9l.2-1.8c0-.5-.3-.7-.9-.8-.8,2-2.1,2.9-4,2.5-.9-.1-1.4-.4-1.8-.9l-.3-.6-.2.4-1.2-1c-.3-.4-.6-.9-.8-1.7,0-.3-.6-.4-1.4-.4h-2c0,.1-2.1-.4-2.1-.4l-1.4-.6c-9.4.6-16,.7-20,.5l-12.3-.7c-2.2.6-3.6,1.2-4.2,1.6-1.2.7-1.7,1.7-1.5,3,.1,1.4,1,2.4,2.7,3.1,1.6.7,2.7.6,3.4-.2.9-.2,1.6.2,2.4,1.3.7,1.1.3,1.5-.9,1.3-1-.2-1.4,0-1.3.5,0,.7-.1,1.1-.6,1.2,1.7.8,2.9.5,3.6-.7.4-.6,1-.8,1.6-.7.6.1.6.4,0,.9.6.6.7,1.5.2,2.8-.5,1.2-1.4,1.4-2.6.6-.3.9-1.3,1.2-3.2.8-1.9-.4-2.7-1.4-2.3-3.2-.2-.4-.6-.5-1.2-.3-.8.2-1.4,0-2-.4-1.4.2-2.3,0-2.8-.9-.5-.8-.5-1.6-.1-2.7-1.1.7-2,.4-2.9-.7-.9.1-1.5-.2-1.5-.8s0-.6.2-.9c-.7-.3-.9-.9-.7-1.9l1.9-.3c-.2-.9-1.6-1.3-4.1-1.2-1.9.1-3.5.4-5,.8l-2.6.8h-2.7c-.7-.1-.4-.4.6-.7,1.3-.4,1.9-.7,1.9-1h-1.6c.1-.6.2-1,.4-1.3h-3.9c-6.4.2-10.3.7-11.7,1.6-2.1,1.3-3.4,2.1-3.6,2.5-.7.8-.2,1.5,1.4,2.1,2.2,2.5,3.5,3.9,3.8,4.1,1,.6,2.4.1,4.2-1.4,1.8-1.5,3.5-1.9,5.2-1.2,1.5.7,2.5,1.8,3,3.4,1.3,1.2,2.3,2.5,2.9,3.9.6,1.4.5,2.4-.2,2.9l6.7-.2c.6.4,1,.8,1.2,1.3.2.4.1.7-.2.9.7.5,1,1.5.8,3-.2,1.5-.7,2.4-1.5,2.8,1.6,1,2.4,2.1,2.3,3.3,0,.9-.6,1.8-1.6,2.5-.6,1-1.7,1.8-3.2,2.2l-1.8.2c0,.8-.6,1.4-1.8,2,.7.9.3,1.9-1,3-1.3,1-2.9,1.8-5,2.3-3.5.8-6.2.5-8-.9,1-.5,1-1.1,0-1.7h-1.6l-1.8-.3c-2.1-.5-3.8-1.5-4.9-2.9l-.2.8c-.4.6-1,1-1.9,1.3-1,.3-1.8.3-2.4,0l-.4-.2-.3.5c-1.5.4-2.7-.4-3.6-2.3-.5,1.7-1.8,2.6-3.7,2.8h0c-2.1.1-3.5-1-4.2-3.2-2.5,1.3-4.5,1.7-5.7,1.2-1-.4-1.6-1.4-1.5-2.9h-.7c-16.3.4-27.4.7-33.5.7s-5.9.2-5.6.5c.2.2,1.4.6,3.6,1.2l-14,.7c.6.7.6,1.3.1,1.9-.7.9-1.1,1.5-1.1,1.8,1,1.3,1.1,2.4.1,3.2h-3.7c-.3,1.3-.9,2.1-2,2.7-1.2.7-2.3.4-3.1-.7-1.2-.2-1.9-.9-2.1-2.3-.3-1.5.5-3,2.3-4.5-1.6-.8-1.9-1.6-.9-2.5.5-.4,1.3-.7,2.3-.9h-14.2v.7c0,.8-.5,1.4-1.4,2-.9.6-1.9.8-2.9.7-1-.1-1.9-.6-2.3-1.6-.3,2-1.8,3.1-4.5,3.1s-1.9-.1-2.5-.5c-.7-.4-.9-.9-.8-1.4-1.3.9-2.4.5-3.2-1-.4-.7-.6-1.3-.6-1.9s.2-1.4.7-2l-.2-.7c0-.2,0-.5,0-.8.1-.4.3-.9.6-1.3.7-1,1.5-1.7,2.4-2,.7-.2,1.8-.3,3.5,0,.3-.9,1.2-1.4,2.6-1.7,2.1-.4,3.7,0,4.9,1.2-.4-.5-.5-1-.2-1.8.3-.7.9-1.2,1.8-1.7,2.2-1.2,3.6-.8,4.3,1.2l.4-.7h.6c0-1,.5-1.9,1.5-2.4.7-.3,1.3-.4,1.9-.2-.2-.4-.2-.8-.1-1.1l.3-.4c-.7-.1-1.1-.5-1.4-1.3-.5-1.3-.2-2.5.8-3.7.8-.9,2-1.5,3.7-1.6,1.8-.2,2.9.2,3.2,1.2l1.2-.5c-1.3-.4-1.3-1.2,0-2.1,1.3-.9,2.4-1.3,3.4-1.1,2,.4,2.9,1.6,2.8,3.7.6-.4,1.4-.5,2.5-.3,1.3.3,1.6.9.8,1.9,1.7.2,2.6,1,2.6,2.5l21.8-1.3c-.1.3.3.6,1.2.7-1.2,3.4-.3,4.2,2.6,2.6.2.5-.1,1.3-.8,2.5-.5.8-.2,1.4.9,1.9,1.3.6,2.5.3,3.7-.8,1.2-1,1.7-2.2,1.5-3.5.5.4.8.4,1,.3.2-.2.2-.5,0-1-.4-1.3-1.2-2-2.5-2v-.7h.2l-.4-1.2,2,.5c.8.2,1.2-.1,1.3-.9l-1.2-.2.2-.9c.7.1,1.2,0,1.3-.5.2-.4.2-.9,0-1.6-.8-1.6-2.1-2.2-4.2-1.8l-2.3.7c-.8.2-1.5,0-2.1-.7-.3-.2-.5-.8-.7-1.7-.9-.2-1.3-.8-1.4-1.9-.2-1.2.5-1.8,2.1-1.8,1.6,0,2.3.5,2.2,1.6-.5,1.8,1.2,2.4,5.3,1.9,1.9-.2,3,.4,3.3,1.7.1.5,0,1.8-.2,3.9-.2,1.2,1.1,2,3.8,2.6l5,.6c.1-.4.3-.8.7-1.2.7-.8,1.6-1.3,2.8-1.4s2.4.2,3.8.9l2.1,1.2c-.3-.7,0-1.3.8-2,.9-.7,1.9-1.2,3.2-1.5l-.2-.4c-.4-.8-.3-1.9.4-3.2,2.1-1.3,3.5-1.2,4.1.4v-.9c.8-.1,1.5.2,2.2.8.7.7,1.3,1.1,1.9,1.1,1,0,1.5-.3,1.5-1.2s-.2-.9-.4-1.2c-.4.5-1,.6-1.8.1v-.6c-.2.5-.8.4-1.6-.4l-.9-1.2v-.3c-1.5-.4-1.8-1.3-.9-2.6.6-1,1.5-2,2.8-2.9-.7-.5-1.2-.9-1.5-.9l.7-.7-5.2-.4-4.9-.6-5-1v-.3h2.8c0,0,2.4.3,2.4.3l2.7-.4,3.1.6c1.2.2,2.1.1,2.9-.4,0-.9-.4-1.5-1.2-1.9l.6-.9c.7-.2,1.3-.1,1.8.3l-.2-.9c-.1-.7,0-1.3.5-1.6l2.4-.2h.2c.2-.2.4-.3.8-.4l2-.5h-.2c-.4-.5-.3-1,.3-1.6-.5.2-.9.2-1.3-.2l-.8-.3c-1.2-.5-1.4-1.2-.8-2.1h.7c-.2-.6,0-.9.5-1.1h.2c0-.1-.2-.3-.2-.3-.3.6-.8.7-1.4.2-.6-.4-.9-1-.7-1.6-.7-.3-.3-.7,1.2-1.2,1.5-.4,2.9-.1,4.3.7-.8-.5-.9-1-.4-1.5.4-.5.8-.7,1.2-.4-.6-.7-.3-1.3.8-1.6,1-.3,2-.1,2.8.7,1.8-1.1,2.6,0,2.4,3.4.3-.6.8-.9,1.4-.8.7,0,.8.6.5,1.5.4-.9,1.2-1.2,2.1-.9.9.3,1.6.9,2.1,1.9v.7c4-.4,13-.6,27.2-.4,12.5.2,21.3.3,26.3.6h.3c0,0,2,2.3,2,2.3.8.8,1.8,1.4,3,1.8l3.2,1,.4.2c.7.4,1.3.9,1.7,1.7l.5,1-.4.2h.5c0,0,.1,0,.1,0,.8,0,1.2.4,1.4,1.2.4-1.8,1.4-2.6,3.1-2.6s.9.2,1.3.4l.4-1.1c.5-1.2,1.2-1.9,2.3-2.3,1.2-.4,2.3-.2,3.4.4.9.6,1.5,1.4,1.7,2.4-.1-2.5,1.2-4.2,3.8-5.2,2.1-.8,3.6-.5,4.5,1l.2.4v-.6c.3-1,.7-1.7,1.3-1.8-.2-.2-.2-.4-.2-.8,0-.7.3-1.4,1-2.1.7-.8,1.5-1.2,2.3-1.2l.9.2.4.3h0l-.3-.4c-.5-.7-.7-1.5-.3-2.6-1.3,1-2.6,1.2-3.9.8-1.4-.5-1.9-1.6-1.6-3.4.2-1.5,1.4-2.5,3.7-2.9h2.2c0-.3.3-.8.6-1.4.9-1.6,2.1-2.6,3.4-2.8,1.8-.3,3.5-.2,5.3.5,1,.4,1.8,1,2.3,1.7l.4.9v-.2ZM240.9,104.9q0-.1,0,0ZM222.9,127.4c1.9.4,3,1.3,3.4,2.8v.6c-1.5-.1-2.5-.7-3-1.8-.3-.5-.4-1-.3-1.6h0ZM78.3,138.2h.9c-.7-.1-.9-.4-.9-.8v.8ZM51.4,128.8v.7-.7ZM39.2,138.9h-.2c0-.1.1-.4.1-.4v.5h0ZM30.8,137q0,0,0,0ZM327.6,116.1v.2c0,0,0,0,0,0-.9-.1-1.4-.3-1.5-.6.3-.5.6-.7.9-.5.3.2.5.5.6.9ZM310.5,116.8l-.3.4h.2c0,.1.1-.4.1-.4" fill="#d9cc6e" fill-rule="evenodd"/>
  <path d="M649.4,79.4c-9.6-4.8-17-8.3-22.1-10.5-9-4-15.8-6.2-20.3-6.8l-22.3-1.8c-4.4-.3-7.8-.8-10.3-1.6,2.9,1.4,5.5,2.1,7.9,2.4l10,.9c15.5,3.1,24.7,6,27.7,8.8,5,2.3,8.3,4.1,10.1,5.5,2.4,1.9.6,2.1-5.3.8-6.4-1.3-13.2-2-20.2-2.1h-.1v.3c0,0,11.1,1.9,11.1,1.9,6.9,1.6,8.8,2.9,5.7,4-4.4-.5-9.1-.6-14-.1v.3l15,1.6c7.4,1.1,6.3,1.7-3.3,1.7l-30.6,1c-7.7.8-14,.6-19-.3l-20.9-1.8c-4.3-.6-4.8-1.8-1.7-3.4,2.3-1.4,2-2.6-.7-3.4l-8.4-.7c-7.4-.1-12.7-1-16-2.8-1.3-.7-1.3-1.1,0-1.4,1.5-.3,4.3-.3,8.4.1,14,.5,27.7-.3,41.2-2.4,5.2-.8,7.6-1.6,7.3-2.1l-11.6-.6-35.4,1.2-18.5-.5c-5.2-1.2-10.1-1.6-14.6-1l-10.7,1.6c8.3-.6,14.4-.3,17.9.8,2.6.8,5.7,2.9,9.4,6.2,2.9,2.6,5.7,4.1,8.3,4.5l8,.6c5.2,1,8.1,1.9,8.7,2.7.6,1-1.9,1.9-7.5,2.7l-17.5,1.8,21.1,1.2c5.5,1,9.2,2,11.4,2.9,2.5,1,1.8,1.7-2.3,1.8-1.8-.1-3.6-.5-5.6-1l-4.3-1.2c-3.2-.7-7.4,0-12.2,1.9-4.1,1.4-7,3.3-8.8,5.6-1.5,2-5,4-10.5,6,10.9-3.5,17-5.3,18.6-5.5,1.7-.2,3.2,0,4.7.7.9.5,2.7,1.5,5.2,3.2,9.7,4.6,21.8,5.5,36.5,2.9l.2-.5-7.3-2.6c-4-1.7-7.1-2.6-9.2-2.8-4.3-.5-7.1-1.6-8.4-3.4-1.2-1.8,2.1-2,9.9-.7l19.2,1c2.2-.2,4.3-.7,6.5-1.4,5.4.6,10.4.3,14.9-1.1,2.7-.8,6.6-2.3,11.7-4.4,6.7-1,12.5-1.1,17.4-.1,2.8.5,6.4,1.6,10.8,3.2l22.6,1c2.7.2,3.6.7,3.1,1.5-.8.9-3.7,2.5-9,4.8l-25,7.1c-4.1,1.1-8.4,1.6-13.1,1.4-8.1-.2-13.7.6-16.5,2.5-3.4,2.3-.3,5.3,9.3,8.9,5.5,2.2,10.4,5.2,14.5,9,4,3.7,6.8,7.6,8.4,11.7,1.6,4.4,1.7,8.3,0,11.8-1.8,4-5.3,7-10.6,9.2-13.7,6.1-23,9.1-27.9,9-1.8,0-3.6-.5-5.5-1.4-3-1.4-4.9-2.1-5.7-2.4l-2.8-.7c-.8-2.9-2.7-5.7-5.4-8.4-4.3-4.2-8.7-5.8-13.2-5-3.4-4.2-9.1-4-17.1.6,0-2.7-.8-5.3-2.5-8-3.3-5.5-7.9-7.9-13.7-7-1.8-4-4.4-6.3-8-6.8l-9.9.6c-.6-1.8-1.8-3.5-3.4-5.1-2.5-2.2-5.5-3.7-8.9-4.5-3.8-.8-7.4-.4-10.9,1-3.9,1.7-7.1,4.6-9.7,8.8-9.7-3.5-17.1-1.9-21.9,4.7-2.9,4-4.3,8.1-4.6,12.7l-5.3.2c-4.3.6-7.2,2.1-8.8,4.5-3.3-1.2-6.6-1.4-10.3-.6-3.6.9-6.8,2.5-9.4,5-6.2,1.8-9.7,6.2-10.3,13.2-4,2.7-4.3,6.3-1.1,10.7,1.3,1.6,2.8,3.1,4.6,4.3,1.8,1.2,3.2,1.8,4.3,1.9-3.4,3.6-5,7.8-4.4,12.7.5,4.7,2.5,8.1,6,10.5,2.4,5.3,6.4,8.2,12,8.7l6.4-.4c.5,3.4,2,6.8,4.6,10,3.4,4.4,7.3,6.6,11.5,7,2.2,2.4,5.3,4.3,9.2,5.5,3.8,1.3,7.7,1.8,11.8,1.5,5-.3,9.1-1.7,12.2-4,5.4,6.6,12,8.5,20,5.9,7,2.5,12.4,2.4,16.1-.3l3.2-2.9c1-.8,2-1.1,2.9-.8,5.9-.5,10.1-2.1,12.5-4.7.8-.8,1.9-2.9,3.6-6.2,6.2.6,12.5-1,19-4.9,6.2-3.8,9.9-8.4,11.2-13.7,1.7.5,3.6.8,5.7.7,8.8-.1,14.9-4.6,18.5-13.5,2.5-5.1,5.5-8.6,9.2-10.3,2.9-1.4,6.7-1.9,11.1-1.4,2.6.3,6.6,1,12,2.1l12.1.5c6-1.1,11.3-3.3,15.8-6.6,4.4-3.2,7.5-7,9.3-11.3,1.8-4.5,2-9,.5-13.5-1.5-4.9-5-9.2-10.2-13.1-12.8-9.5-20.5-17.9-23.1-25-2.5-7.3,1.2-10.9,11.2-10.7,18.3,0,31.2-.9,38.6-2.8,9.1-2.3,12.5-6.4,10.1-12.2-2.6-5.5-6.1-8.9-10.5-10.3l-5-1.4c-1.8-.7-3.2-1.7-4.3-3.1-2.7-2.6-6.2-3.5-10.3-2.7l-4.9,1c-1.9.3-3.6,0-5-.5h-.3ZM494.5,183h1.5c0,.1-1.7.6-1.7.6v-.6h.1ZM435.9,212.8h-.1c0-.1.1,0,.1,0" fill="#d9cc6e" fill-rule="evenodd"/>
  <path d="M430.8,100.8c-.6-.7-1.2-1-1.5-.9,0,0-.4.3-1,.8l-2.8.3c-.4,0-.8,0-1.5,0-.6,0-1.1,0-1.5,0-.5.1-1.1.1-1.9,0h-1c-.4-.8-1.1-1.2-2-1.4-.9-.1-1.5.1-1.5.7-.1-.3-.4-.4-.8-.3-.4,0-.6.3-.8.5h-3.9c0-.1-.8-.8-.8-.8-.2-.1-.5,0-.8.1-1.3-.1-2.1,0-2.2.3h-2.9c0-.1-1.4-.3-1.4-.3h0c-.5-.5-1-.9-1.5-1.1-.8-.3-1.3-.1-1.5.6-.2.1-.5.1-.8.1s-.4.1-.6.3c-.4-.7-.8-.7-1,0-.9-.6-1.6-.8-2.2-.6-.6.3-1.2.5-1.8.6-1.4,0-2.3,0-2.7,0-.5,0-.8-.3-.6-.6-.2.1-.5,0-.9-.1-.4-.2-.6-.4-.6-.7-.3-.7.6-.8,2.7-.3.8,0,1.2,0,1.5-.3.2-.2.2-.5,0-.9s-.5-.7-.9-1l-.6-.3-.3-.3c-.4-.3-.8-.4-1.2-.4v-.5c0,0-.1,0-.4.1-.4.3-.8.3-1.2,0-.4-.3-.3-.6.5-.9.8,0,1.1-.3.8-.7-.3-.5-1.1-.9-2.4-1.3-.9-.6-1.1-1-.5-1.2s1.5-.3,2.7.2c1.1.7,3,.9,5.8.7h.3c0,.1,1,.1,1,.1.6-.5,2.4-1,5-1.6-1,0-1.8-.2-2.6-.5-.8-.8-2.5-.8-5-.3-.7.5-1.2.7-1.5.6l-.2-.3h-1.8c0,.1-.1.1-.1.1-1.2,0-1.6,0-1.3-.4.5.1,1,.2,1.3.1h0c.3-.1.1-.3-.4-.6-.3-.4-.5-.6-.4-.7,0-.1.2-.1.6-.1,1.2,0,2,0,2.4-.4.3-.5,1.5-.7,3.6-.7h2.9c-.6-.5-1.1-.7-1.5-.6-.6.3-1,.5-1.2.5h-.2l-1.2-.3c-1.6-1.1-3.2-1.1-4.8,0-.3.3-.6.4-.7.3l-.3-.3c-.5-.6-1.3-1-2.5-1l-1.5-.4c-.4-.1-.5-.3-.5-.4,0-.2.8-1,2.6-2.7.6-.7.8-1.2.4-1.6-.3-.3-1-.5-2-.6l-2.9.2c-1,.2-1.8.5-2.2.9-.6.8-.8,1.2-.3,1.6.4.3,1,.2,1.8,0l-.7-.5c-.6-.8.5-1.1,3.3-.9,1.4.1,1.7.7.9,1.7-.6.8-1.5,1.4-2.4,1.8,0,.5-.3.8-.8,1.2l-1.8,1c-.4-.4-1-.5-2-.1-1.1.3-2.1.9-3,1.9-.1-.5-.8-.7-2.2-.8h-3.1c-.8-.4-2.2-.3-4,.6-.1-.2-1-.2-2.5,0l-6.5.7c1.8,0,5.7,0,11.4.3l1.7-.5c1-.3,1.5-.3,1.8,0-.8.4-.1.7,2,.8,2.2.1,3.9,0,5.3-.3.3.2.3.4,0,.6,0,.2.9.5,2.7,1,.8.7,1.3,1.4,1.1,2.2-.1.6-.6,1.2-1.5,1.7-.8.5-1.8.8-2.9.9-1.2.1-2.4,0-3.4-.2l-1.5-.7c-.5-.2-.8-.3-1.1-.3-.6,0-1.2.9-1.8,2.6-.3-.7-.8-1.1-1.5-1.2-.9-.1-1.9.3-2.9,1.2-1.9-.8-3.1-.8-3.6-.1-.2.3-.3.6-.3.9v.4c-.1.2-.4.5-.6.8,0-.5-.4-.7-.9-.6-.6.1-1.2.5-1.8,1.2-.1.3-.1.6,0,.9.1.2.4.4.6.5-.3.3-.8.5-1.7.3-1.1-.1-2-.5-2.9-1-.8,1.2-1.3,1.6-1.7,1.2.1-1.1-.4-1.9-1.6-2.5-.8-.4-1.4-.4-1.9-.1l-1.8.3-1.8.2c-.6,0-1.1-.3-1.5-.8-1.8-1.9-4-2.7-6.4-2.3l-1.9.3h-.4c0,0,0,0,0,0-.4-.8-.9-1.2-1.5-1.4-.6-.1-1.1,0-1.6.5.5-1.2.2-1.5-1-1,0-1-.6-1.2-1.8-.6-.4-.5-.8-.6-1.5-.3-.6.3-.7.7-.4,1.2-.8-.3-1.3-.2-1.5.2s-.1.7.2.9c-.4.6-.2,1,.6,1.2.8.2,1.5,0,2-.6.3-.4.6-.6.9-.7h.6c.3,0,.4.1.5.3,0,.1,0,.3,0,.5,0,.4.3.6.9.5.6-.1,1.1-.3,1.3-.5.3,0,.8.1,1.5.5.5.3,1,.4,1.3.3-.4.1-.6.4-.5.6.1.3.4.5,1,.5v.6c0,.3-.3.4-.8.3,0,.3-.1.6-.4.8-.3.3-.6.4-1,.4-.9-.6-2.2-.8-4.1-.8-.8,0-1.3.1-1.5.3-.2.2-.1.6.5,1h-.5c-1.2-.4-2.4-.6-3.6-.5-1.3,0-2,.4-2.2,1h-.7c-.8,0-1.2.4-1.5,1.2-.4-.2-.8-.1-1.1,0-.1.1-.2.3-.3.4-.7-.3-1.7-.3-2.9.1-1.8-.5-3.4-.5-4.9-.1-1.1.2-2.5.8-4.3,1.8-.8,0-1.7.3-2.8.6h-.3c0,0,0,0,0,0l-3.9.3-3.2.2h-1.1c0,0-.8-.3-.8-.3-2-.3-3.9-.4-5.7-.1l-2,.5,5,.4,6.9.5h.9c2,.1,4.1,0,6.4-.4l1.5.3h3.4c0-.1,4.8-.7,4.8-.7,2.5.5,4.3.8,5.5.9,1.9.1,3.4,0,4.3-.6-.5.4-.8.6-.8.8,0,.1,0,.3.3.5-.5.3-.8.5-.6.9,0,.3.4.6.8.8.5.2,1,.3,1.5.3.4,0,.6-.1.9-.3.3.1.6.3,1,.2.1.5.6.7,1.1.7.5,0,1,0,1.5-.4l.3-.2c.5.5,1,.9,1.5,1.2,1,.6,1.8.7,2.3.3l.3-.3.6.8c.6.9.4,1.3-.8,1.2-.8-.3-1.5-.3-2,0-1-.8-2-1-2.9-.6-.4.1-.6.4-.8.7v.7c-1.4-.1-2.6.1-3.6.8-.5.3-.8.5-1.2.5-.6,0-1.3-.1-2.2-.6-.8-.6-1.5-.8-2.2-.8-.8,0-1,.3-.7.8-1.1-.6-2-.5-2.9.6.2-.9,0-1.5-.5-1.8-.5-.2-.8-.1-1.3.2-.4-.1-.7-.3-1.1-.2-.5,0-.9.3-1.2.6-.3.3-.4.6-.1.9.2.3.8.5,1.6.6-.3.3-.3.6-.1.8.1.3.4.4.8.4s.7-.1,1-.3c.3-.3.4-.6.4-1,.1.7.3,1.1.5,1.2,0,0,.3,0,.5-.3.2.3.5.4.8.4.4,0,.5-.3.3-.8,1.1,1.6,1.8,1.7,2,.4.1,0,.2.1.3.1h0c.5.1,1.1,0,1.8-.4l4.1-.2c1-.6,1.5-.9,1.7-.9.3,0,.6.1,1.1.6v.3c.3.4.6.7.9.9.6.4,1.1.4,1.5,0l.3-.2.3.3c.8,1,1.8,1.6,2.9,1.9,1.3.3,2.2-.2,2.6-1.4,1.8.7,2.9.7,3.5,0h.4l1.1-.4c.6,0,1,0,1.2-.4h.7c.4,0,.7-.3.8-.6.6.3,1,.4,1.5.1.4-.2.4-.5-.1-1,.3,0,.6,0,1-.1.4-.3.4-.5,0-.7.6,0,.8,0,.8-.4s-.3-.5-.8-.4c-1.3-.5-2-.5-2.2.3v.7c.1,0,.3.1.4.1-.6.6-1.1.6-1.5.1,0-.1-.2,0-.4.6-.1,0-.4,0-.7.1-.6-.8-1.1-1.2-1.6-1.2,0-.6,0-1.3-.3-2-.4-1-1-1.2-1.8-.6.1-1.4-.3-1.9-1.5-1.8-.4.1-.5,0-.5-.2s.3-.5.6-.7c.9-.7,1.5-.6,1.9.3,1.5,1.5,2.5,1.3,3-.5,1,.7,1.8,1,2.2,1,.6,0,1-.6,1-1.8.6.5,1.2.6,1.5.5.2,0,.5-.4.8-.9.4.3.8.5,1.1.4.3,0,.6-.3,1-.8.6-.3,1.2-.4,1.5-.1h0c.2.2.5.5.8.9-.5,0-.8.1-1.2.3-.8.4-.7.7.4,1.1-1.2.4-1.8.8-1.8,1.2,0,.4.2.7.9,1,.6.3,1.3.4,2.1.5.6,0,1,0,1.3-.3l.2-.2c.4-.3.6-.8.6-1.6s0-.4.1-.4.5,0,1,.4c1,.5,1.4,1,1.3,1.4-.1.4-.6.5-1.3.2h-1.4c0,.1-.2.4-.2.4-.3.5.1.8,1.3.8s2.6-.1,3.2-.5c.3-.1.5-.3.8-.5,1,0,1.9.1,2.9.4.4.1,1.3.5,3.1,1.2,1.1.5,2,.7,2.7.6.8,0,1.5-.4,2.4-.9l2.2.3c1.1,0,2.2-.5,3.2-1.5,1-.6,2.1-.9,3.4-.9s2,.1,3.6.5c1.6.3,2.8.4,3.6.4,1.3,0,2.5-.4,3.4-1.1-.5,0-.8-.3-.8-.9-.1-.8-.6-1-1.5-.6-.3-.3-.7-.4-1.2-.3-.5,0-.6.2-.4.6-.4,0-.6.1-.6.4,0,.3,0,.4.4.4v.3c0,0-1.3,0-1.3,0-.9,0-1.8-.3-2.6-.7-.8-.4-1.7-.7-2.5-.8h-1.1c-.5.3-.8.5-1,.6h-1.5c-.6,0-1.5,0-2.5-.3h-.9c.3-.6.1-1.1-.2-1.7-.1-.2-.3-.3-.5-.4,0-.5-.1-.8-.4-.9-.2-.1-.4,0-.6.5,0-.1-.3-.3-.7-.3h-.4c-1.2-.5-2-.9-2.2-1.1-.8-.6-.6-1.2.3-1.9.8-.5,1.4-.6,1.8-.5.4.1.5.4.5.8,0-.7.5-1.1,1.3-1.1h.4c.8-.7,1.7-1.1,2.4-1,.6,0,1.5.4,2.7.9,1.3.4,2.6.5,3.6.5.6.5,1.1.9,1.5,1.2.8.5,1.5.6,2,.1l.4.3c.1.2.4.3.5.3h0c2,1.2,4,1.4,5.7.6,1.2-.5,2.6-.7,4.3-.5.8,0,2.4.4,4.9.9,1.8.4,2.4.4,1.9,0-.5-.5-1.6-.9-3.5-1.4-1.5-.4-2.1-.6-1.9-.8l.4-.3c.1-.1.2-.3,0-.5,1.1.4,2.2.5,3.1.3,1.1-.1,1.4-.6.9-1.4.8.3,1.7.4,2.5.3h.5c.8.4,1.3.6,1.9.7.8,0,1.2-.3,1-1.2.6.6,1.2.8,1.6.7.4-.1.5-.5.3-.9.8.3,2.2.5,4.3.7,2.3.2,4,.2,5,0,1.9.1,4.8.3,8.8.3.6.6,1.1.8,1.5.7.5-.1.5-.7.1-1.5" fill="#a38917" fill-rule="evenodd"/>
  <path d="M559.1,30.7c-1.1,1.4,0,2.6,3.2,3.6-.4,0-.6.3-.8.6,0,.4.1.7.8,1-2.1-.5-3.2,0-3.2,1.7s.8,2.5,2.6,2.4c1,.1,1.5.9,1.5,2.5s-.7,2-2,1.7c0,.7-.5,1.2-1.4,1.8-1,.5-1.8.4-2.6-.3h-2.3c-.4-.1-.8-.6-1.5-1.6l-1.8-2.8c-2-2.4-4.6-2.6-7.8-.6l-2.9,1.8c-.9.4-1.8.6-2.5.6-1.7,0-2.7-1-2.8-3-1.5,0-2.6-.4-3.6-1.4-1.3-1.4-.4-3.2,2.6-5.2-2.4-.7-4-1.8-4.5-3.5-.5-1.6-.1-3.1,1-4.6s2.9-2.7,5-3.1h5.2c0,.1,4.3,0,4.3,0,.2-.9,1.2-1.7,2.9-2.1,1.8-.5,3.2-.3,4.3.5,2,1.1,3.2,2.9,3.4,5.1.2,1.9,1.1,3.5,2.7,4.8h.2ZM697.8,133.1c.8,0,1.5.3,1.9.6.6-.4,1.5-1,2.5-2,1.5-1.4,2.9-1.7,4.3-.8,1.5-1.3,3.4-1.2,5.8.3.8.5,1.3,1,1.6,1.7l2-.4c2-.2,2.9.6,2.7,2.3.4-1,1.1-1.4,2.1-1.4s1.8.3,2.7,1c2.2,1.8,2.5,3.4.6,5-.9.8-2,.9-3.2.4l-.8-.5h-.1l-1.3.8c-.7,0-1.2,0-1.5-.5h0c0-.1-.8.7-.8.7-.5.9-1,1.4-1.5,1.6h-2.4c-.8-.5-1.2-1.1-1.2-1.9-.3.8-1.1,1.1-2.4,1-1.3-.1-2.2-.7-2.4-1.4.6-.9.5-1.6-.2-2.1h-.6c0-.1-.4.9-.4.9-.8,1-1.7,1.4-2.7,1.2-1-.7-1.8-1.1-2.5-1.1h-1.5c-.6.1-1-.1-1.2-.7.4-1,.5-1.8.1-2.3h-2.5c0,0-.9.7-.9.7h-1.3c-.8-.5-1.1-1-1-1.4h.1c.7.6,1.3.4,1.7-.5.4.5.8.5,1.3.3l.4-.3.2-.6h.1c.3-.5.8-.6,1.6-.6h.6ZM660.3,162.8c0,2-.8,3.6-2.5,4.8l-6.9,4c-2.7-.2-5.3.8-7.6,3.1-1,0-1.8.7-2.1,2v.4c-1.4.9-3,1.1-4.9.8-2.6-.8-4.6-1.2-6-1.3-1.7,0-3.4.5-5,1.5-1.8,1.1-2,2.3-.8,3.4v.3c-.3,1.2-1.3,1.7-3.2,1.4l-5.2-1.7-.4-.4.4-.6c.3-.6.2-1.4-.3-2.1l.2-.6.8.3c3.1.7,4.5-.4,4.5-3.2,0-1-.6-1.7-1.5-1.9-1.1-.2-1.7-.7-1.8-1.6-.2-1.5,1.2-2.5,4.3-2.9h2c-.5-.6-.9-1.3-1.2-2.1-.8-2.1-.3-4,1.3-5.8,2.2-2.4,6.3-3.2,12.3-2.4,2.3.3,4.5.4,6.7.1l3.1-.7-.3.9c-.2,1.6.3,3,1.7,4.2,1.3,1.2,2.9,1.7,4.5,1.5,1.3-.1,2.4-.8,3.1-2.2.8-1.4.4-2.3-1.1-2.9,1-.4,1.9-.5,2.9-.4,2,.3,2.9,1.6,2.9,4h0ZM315.1,138.5c-.3,1.2.3,1.9,1.7,2v.4c0,0-3.6-.4-3.6-.4l-.7,1c-1.1,1-2.2,1.1-3.5.2-1-.7-1.3-1.7-1-3,.4-1.2,1.2-1.8,2.5-1.4,0-1,.5-1.6,1.6-1.5,1,0,1.8.5,2.4,1.2.9-1.3,1.8-1.4,2.5-.3.5.8.4,1.2-.4,1.3-1,.1-1.5.3-1.5.5h0ZM327.9,187.6c2.5-.1,4.1-1.2,4.7-3.2,1,2.2,2.6,3.1,4.5,2.7l1-.3c.8.4,1.8.4,3.1,0,1.2-.4,2-.8,2.4-1.6l.3-1c1.5,1.7,3.5,2.8,6.2,3.4l2.2.4h2c1.2.6,1.2,1.3,0,2h-.1c-1.3.7-2.4.5-3.1-.5,1.3,1.8.9,3.1-1.1,4-2.1,1-3.8.7-5-.9-.9,1.4-2.2,1.6-3.8.7-1.6-.8-2.4-2-2.4-3.4-.8,1.2-1.9,1.4-3.3.4l-1.5-1.2c-1,1.4-2.5,1.5-4.3.1l-1.7-1.6h0ZM292.9,164.1v.8c1.5,0,2.6.8,3.1,2.3.2.6.1,1,0,1.2l-1.3-.3c.3,1.6-.3,3-1.8,4.2-1.5,1.3-3.2,1.6-4.8.9-1.3-.6-1.8-1.3-1.1-2.2.8-1.4,1.2-2.3,1-2.9-3.8,1.9-4.9.8-3.4-3.1-1.1-.1-1.7-.5-1.5-.8l.5-.7c.9-.8,1.9-1.2,2.9-1.4.8,0,2,.3,3.4.9,1.5.7,2.5,1,3.2,1h0ZM173.9,184.6l-.4.4-1.1.3-.9-.5c-.3.6-.8.9-1.6.8-.8-.1-1.2-.5-1.5-1.1h-4.8c.1,1.1,0,1.8-.6,1.9-.5,0-1.1-.1-1.8-.7-.7-.6-1.1-1.1-1.1-1.6,0-.6.4-.8,1.3-.8-1.3-.5-1.5-1.1-.6-1.9.9-.8,1.9-1.1,3.1-.8l.3,1.6c1.6-.4,2.4,0,2.2,1.5l6.1.3c-1.2-1.4,0-2,3.2-2.1,3.2,0,5.1.3,5.7.7-.8-1.4-.3-2,1.5-1.8.6,0,1.1.3,1.3.5.3.3.1.6-.4.9l3.1.3c.3-1,1.2-1.4,2.6-1.4l3.4.6c.6-1.5,1.6-1.6,2.8-.3.1-.9.7-1.4,1.7-1.6.7,0,1.2,0,1.5.5v.9l.3.8c-.7.7-1,1.4-.9,2.3l-9.8-.3c-1.8.7-3.4,1.1-4.7,1.4-2.2.4-3.4,0-3.6-1.4h-2.2v.8l-3.9.4v-.4" fill="#efeab8" fill-rule="evenodd"/>
  <path d="M495,112.9l16-2.9c7.1-.7,14.4.3,21.9,2.9,9.9,4.9,17.2,7.9,21.8,9.1l5.5,1.3c.8.3,1.3.6,1.7,1,.3.4.5.9.5,1.4,0,1.2-.4,2.1-1.1,2.7-.8.4-2.3.8-4.7,1-3.3.9-5.5,1.8-6.4,2.5-1.1.9-1.1,2,.3,3.2,6.1,3,10.2,5.5,12.2,7.4,1.8,1.1,4.3,2.3,7.6,3.8.8.5,1.5.8,2.1,1.2h1.4c0-.1,3.2.3,3.2.3,2.9.7,3.7,1.9,2.5,3.5.5-.6,1.5-1,2.7-1.2,1.5-.2,2.5.1,3.1.9.6.7.6,1.5.1,2.4v.3c.6.4.6,1.2,0,2.5-.7,1.4-1.7,1.9-2.9,1.3,0,.6-.2,1.1-.6,1.6.3.1.6.3,1,.6,1.5,1.2,1.6,2.3.5,3.5-1.2,1.6-2.7,2.2-4.7,1.9l-10.4-.7c-7.6,3.1-14.6,5.7-21.2,7.9l-7.4,4c-3.4,1.5-7.6,2.7-12.5,3.4-2.9,1.3-7.5,2.1-13.5,2.5-3.6.3-12,.5-25.1.6-5.5-.4-9.9-.4-13,.1l-.2-.9,5-.7,26.9-2.2c9.2.2,16.4-1.1,21.4-4l6.5-4.4c2.2-1.5,4.3-2.7,6.6-3.8h2.5c1.7,0,2.5-.4,2.5-1.2l1.3-.5c1.2-.7,1.5-1.6,1-2.7-.4-.8-1.1-1-2.3-.8l-2.9.7c-3,.4-5,0-5.9-1.2-.7-1-.8-1.9-.3-2.8.6-.8,1.5-1.3,2.7-1.2v-.8c-4.1.8-6.6.5-7.5-.9-1-1.4-.8-2.5.5-3.3h4c-.6-1.8,0-3,2-3.7,1.8-.6,3.5-.6,5,0,1.5.7,2.4,1.7,2.7,3.2v.7h.1c0-.1.7-1,.7-1l1.8-2.4c.8-.8,1.7-1,2.9-.9,2.5.4,3.6,1.7,3.1,4,.6-2.2,2.2-2.8,5-1.9,1.3.5,2.2,1.1,2.7,2,.4.8.4,1.9,0,3.1-.6,1.8-2.2,3-4.8,3.4l-1.5.2,1.4.5h2.1c3.1-1,4.5-2.8,4.5-5.3,0-.8-.2-1.6-.6-2.3-.8-1.4-2.2-2.9-4.3-4.3l-7.9-4.8c-2.9-1.6-5.2-3-6.9-4-3.2-2.1-5-3.8-5-5.3-.1-1.7,1.8-3,5.5-3.8,1.6-.4,2.6-.7,3.1-1.1.6-.6.4-1.6-.6-2.7,1.7-.3,1.8-1,.3-2-1.3-.9-2.5-1.4-3.6-1.7l-7.6-.8-3.8-.5-3.3-1.7c-1.1-.5-2.5-.7-4.3-.5.6.8.8,1.7.7,2.7,0,1.4-.6,2.5-1.7,3.5-1.1,1-2.2,1.6-3.5,1.6s-2.6-.8-3.5-2.2v-.5c.8-.3,1.2-.8,1.1-1.4,0-.7-.5-1.2-1.5-1.8-1-.6-1.8-.8-2.6-.5-.8.3-1.2,1.2-1.1,2.6-.6-1.4-1.5-1.2-2.7.4-1-1.1-2.6-1.2-4.6-.6-2.2.7-4.2,1.9-5.7,3.5-1.3,1.4-3.5,2.1-6.3,2.2-3.7.1-6.2.5-7.3.8v1.4c1,.4,2.3.7,3.9.8l9.1.6c3.8.5,6.5,1.6,8.1,3.2.9,1,1.4,2.4,1.3,4.1,0,1.6-.6,3-1.5,4.2-1.5,2.1-4.6,2.9-9.1,2.2l-9.5-.4c-1.7.3-2.9,1-3.4,2-.5,1.4-1.1,2.5-1.8,3.4-1.3,1.6-3.6,1.9-6.9,1-2.2-.7-3.9-1.6-5-2.6l-1-1.6h-1c0-.1,0,0,0,0-.8.1-1.2.5-1.2,1.2,0,.9.4,1.7,1.3,2.4,2.2,1.9,4.7,3.2,7.3,3.8,1.7.3,3.8,0,6.4-1.2l6-3c3.4-1.4,6.4-2,8.9-1.7l3.9.6c1.5.3,2.9.3,4.1,0,3.5-.8,6-.9,7.5-.6,2.2.5,3.6,1.2,3.8,2,.3.8.3,1.4-.1,1.4l-1.7.3-1.9.6c-.7.3-.9.8-.6,1.7,0,.3,1.2.7,3.4,1.4l3.4.8c1.3.5,2,1.2,2,2.3,0,1.2-.6,1.7-2,1.4l-3.8-.4c-1.3.5-2,1.4-2.1,2.5,0,.8.1,1.6.8,2.1-.9-.4-1.8,0-2.7.8-1.2,1.2-1.3,2.4-.6,3.7.4.6,1,1,1.8,1.2-1.3,2-3.6,3-6.8,3l-3.6-.8c-1.6-.5-2.9-.8-3.7-.6-.7,0-1.3.4-2,.9l-1.7,1.1h-3.7l-4.6-.7h-.4c0,0,.2.3.2.3,1.2.9.8,1.9-1.2,3-2.2,1.1-4,1.7-5.7,1.6l-11.3-1.1c-6.4-.3-12.4.6-17.9,2.7-3.1,1.2-5.3,2.7-6.5,4.2-.5.7-.9,1.7-1.2,3.1-.3,1.4-.6,2.5-1,3.1-.4.6-2.2,1.8-5.5,3.5-1.6.8-2.6,2-3,3.3h-2.2c-3.8-.5-5.9-1.9-6.2-4.3-.4-2.1.4-4.6,2.2-7.2,1.8-2.7,3.6-3.6,5.7-3-2.2-1.1-3-3-2.2-5.7.8-2.8,2.2-4.7,4.5-5.8,1.9-.8,4.1-1.2,6.8-.9h.8c0-1,.8-2,2-3.1,1.7-1.4,3.6-2.1,5.6-2.4,1-.1,2.9-.1,5.7,0l5.7-.4c1.7-.4,3.6-1.4,5.5-3.1,2.3-2,2.4-3.4.1-4.2,1.1.2,2.1,0,2.9-.4s1.1-1.2.8-2.3c-.2-.8-1.6-1.7-4.2-2.7-2.7-.9-4.3-2.1-4.7-3.4l.2-2.1c0-.6-.4-.8-1.2-.9-1.1,2.4-2.7,3.4-5.1,3-1.1-.1-1.8-.5-2.2-1.1l-.4-.7-.3.5-1.5-1.2c-.4-.5-.8-1.1-1.1-2,0-.4-.7-.5-1.8-.5h-2.5c0,.1-2.7-.5-2.7-.5l-1.8-.7c-11.9.7-20.4.8-25.4.6l-15.6-.8c-2.8.7-4.6,1.4-5.4,1.9-1.5.8-2.1,2-2,3.5.1,1.6,1.3,2.9,3.4,3.6,2,.8,3.4.7,4.3-.3,1.1-.3,2.1.3,3,1.6.8,1.3.4,1.8-1.2,1.6-1.3-.2-1.8,0-1.7.6,0,.8-.1,1.3-.8,1.4,2.2.9,3.6.6,4.6-.8.6-.7,1.3-.9,2-.8.8.1.8.5,0,1,.8.7.8,1.8.2,3.3-.6,1.4-1.8,1.7-3.3.7-.4,1.1-1.7,1.4-4.1.9-2.4-.5-3.4-1.7-2.9-3.8-.2-.5-.7-.6-1.5-.4-1,.2-1.8,0-2.5-.5-1.8.3-2.9,0-3.6-1-.6-.9-.6-1.9-.1-3.2-1.4.8-2.6.5-3.6-.8-1.2.1-1.9-.2-1.9-1s0-.7.3-1c-.9-.4-1.2-1.1-.8-2.3l2.4-.4c-.3-1-2-1.5-5.2-1.4-2.4.1-4.5.5-6.4.9l-3.4.9h-3.4c-.8-.1-.6-.5.7-.8,1.6-.5,2.4-.8,2.4-1.2h-2.1c.1-.7.3-1.2.5-1.6h-5c-8.2.3-13.2.8-14.9,1.9-2.7,1.6-4.3,2.5-4.6,2.9-.8.9-.2,1.8,1.8,2.5,2.8,3,4.4,4.5,4.8,4.8,1.3.7,3.1.1,5.3-1.7,2.2-1.8,4.5-2.3,6.6-1.4,2,.8,3.2,2.1,3.8,4,1.7,1.4,2.9,3,3.6,4.6.8,1.7.6,2.8-.3,3.4l8.5-.3c.8.5,1.3.9,1.5,1.5.3.5.1.8-.2,1,.9.6,1.3,1.8,1,3.5-.2,1.8-.8,2.9-1.9,3.3,2,1.2,3.1,2.5,2.9,3.9,0,1.1-.8,2.1-2,3-.8,1.2-2.2,2.1-4.1,2.6l-2.2.3c0,.9-.8,1.7-2.2,2.3.8,1.1.4,2.3-1.3,3.6-1.6,1.2-3.7,2.1-6.4,2.7-4.5.9-7.9.6-10.2-1,1.3-.7,1.3-1.3,0-2h-2l-2.2-.3c-2.7-.6-4.8-1.8-6.2-3.4l-.3,1c-.5.7-1.3,1.2-2.4,1.6-1.3.4-2.3.4-3.1,0l-.6-.3-.4.6c-2,.5-3.4-.5-4.5-2.7-.6,2-2.2,3.1-4.7,3.3h0c-2.7.1-4.5-1.2-5.3-3.8-3.2,1.6-5.7,2-7.3,1.4-1.3-.5-2-1.7-2-3.4h-.9c-20.7.5-34.9.8-42.6.8s-7.6.2-7.1.6c.2.3,1.8.7,4.6,1.4l-17.8.8c.8.8.8,1.6.1,2.2-.9,1.1-1.4,1.8-1.4,2.1,1.3,1.5,1.4,2.8.1,3.8h-4.7c-.4,1.5-1.2,2.5-2.5,3.2-1.5.8-2.9.5-3.9-.8-1.5-.2-2.4-1-2.7-2.7-.4-1.8.6-3.6,2.9-5.3-2-1-2.4-2-1.1-3,.6-.5,1.6-.8,2.9-1h-18.1v.8c0,.9-.6,1.7-1.8,2.4-1.2.7-2.4.9-3.6.8-1.3-.1-2.4-.7-2.9-1.9-.4,2.4-2.2,3.7-5.7,3.7s-2.4-.1-3.2-.6c-.9-.5-1.2-1-1-1.7-1.6,1-3,.7-4.1-1.2-.5-.8-.8-1.5-.8-2.2s.3-1.7.9-2.3l-.3-.8c0-.3,0-.6,0-.9.1-.5.4-1,.8-1.6.8-1.2,1.9-2,3.1-2.3.8-.3,2.2-.3,4.4,0,.4-1,1.5-1.7,3.3-1.9,2.7-.5,4.8,0,6.2,1.4-.6-.6-.6-1.2-.3-2.1.4-.8,1.1-1.4,2.2-2,2.8-1.4,4.6-1,5.5,1.4l.6-.8h.8c0-1.2.7-2.2,2-2.9.8-.4,1.6-.5,2.4-.3-.2-.5-.3-.9-.1-1.3l.4-.5c-.8-.1-1.4-.7-1.8-1.6-.6-1.6-.3-3,1.1-4.4,1.1-1.1,2.6-1.8,4.8-1.9,2.2-.2,3.6.3,4.1,1.4l1.5-.6c-1.7-.5-1.7-1.4,0-2.5,1.6-1,3.1-1.5,4.3-1.3,2.5.5,3.6,2,3.6,4.4.7-.5,1.8-.6,3.2-.3,1.7.4,2,1.1,1.1,2.2,2.2.3,3.3,1.2,3.4,3l27.8-1.6c-.1.4.4.7,1.5.8-1.5,4-.4,5,3.4,3.1.2.6-.1,1.6-1,2.9-.6.9-.2,1.6,1.2,2.2,1.6.7,3.2.4,4.8-.9,1.5-1.2,2.2-2.6,1.9-4.2.6.5,1,.5,1.3.3.3-.3.3-.7,0-1.2-.5-1.5-1.5-2.3-3.2-2.3v-.8h.2l-.6-1.4,2.6.6c1,.3,1.5-.1,1.6-1.1l-1.5-.3.3-1.1c.8.1,1.5,0,1.7-.6.3-.5.3-1.1,0-1.9-1-1.9-2.7-2.6-5.3-2.1l-2.9.8c-1.1.2-2,0-2.7-.8-.4-.3-.6-1-.9-2-1.1-.2-1.7-.9-1.8-2.2-.2-1.4.7-2.1,2.7-2.1,2,0,2.9.6,2.8,1.9-.6,2.1,1.5,2.8,6.7,2.3,2.4-.2,3.8.5,4.2,2,.1.6,0,2.1-.2,4.6-.2,1.4,1.4,2.4,4.8,3.1l6.4.7c.1-.5.4-.9.9-1.4.9-1,2-1.6,3.5-1.7,1.5-.1,3.1.3,4.8,1.1l2.7,1.4c-.4-.8,0-1.6,1-2.3,1.1-.8,2.5-1.4,4.1-1.8l-.3-.5c-.5-.9-.4-2.2.5-3.8,2.7-1.6,4.4-1.4,5.2.5v-1c1-.1,2,.2,2.8,1,.9.8,1.7,1.3,2.4,1.3,1.3,0,2-.4,2-1.4s-.3-1-.6-1.4c-.6.6-1.3.7-2.3.1v-.7c-.3.6-1,.5-2.1-.5l-1.2-1.4v-.4c-1.9-.5-2.2-1.5-1.1-3.1.8-1.2,1.9-2.3,3.5-3.4-.9-.7-1.5-1-1.9-1.1l.9-.8-6.6-.5-6.2-.7-6.4-1.2v-.4h3.5c0,0,3.1.4,3.1.4l3.4-.5,3.9.7c1.5.3,2.7.1,3.7-.5,0-1-.5-1.8-1.5-2.2l.7-1.1c.8-.2,1.7-.1,2.3.3l-.3-1c-.1-.8,0-1.5.6-1.9l3.1-.2h.2c.2-.3.6-.4,1-.5l2.6-.6h-.3c-.6-.6-.4-1.2.4-1.9-.6.3-1.2.2-1.7-.3l-1-.3c-1.5-.6-1.8-1.4-1-2.5h.8c-.2-.7,0-1.1.6-1.3h.3c0-.1-.3-.4-.3-.4-.4.7-1,.8-1.8.3-.8-.5-1.1-1.2-.9-1.9-.9-.4-.4-.8,1.5-1.4,1.9-.5,3.7-.1,5.5.8-1-.6-1.1-1.2-.5-1.8.5-.6,1-.8,1.5-.5-.7-.8-.4-1.5,1.1-1.9,1.3-.4,2.6-.1,3.6.8,2.3-1.3,3.4,0,3.1,4,.4-.7,1-1,1.8-1,.8,0,1,.7.6,1.8.5-1,1.5-1.4,2.7-1,1.1.3,2,1.1,2.7,2.3v.8c5-.5,16.6-.7,34.6-.5,16,.2,27.2.4,33.5.7h.4c0,0,2.6,2.7,2.6,2.7,1,.9,2.2,1.7,3.8,2.1l4.1,1.2.5.3c.9.5,1.6,1.1,2.1,2l.6,1.2-.5.2h.6c0,0,.1,0,.1,0,1,0,1.5.5,1.8,1.4.5-2.1,1.8-3.1,4-3.1s1.2.3,1.7.5l.6-1.3c.6-1.4,1.5-2.2,2.9-2.7,1.5-.5,2.9-.3,4.3.5,1.2.7,1.9,1.7,2.2,2.9-.1-2.9,1.5-4.9,4.8-6.1,2.7-1,4.6-.6,5.7,1.2l.3.5v-.7c.4-1.2.9-1.9,1.6-2.1-.2-.3-.3-.5-.3-.9,0-.8.4-1.7,1.3-2.5.9-.9,1.9-1.4,2.9-1.4l1.2.3.6.3h0l-.4-.5c-.7-.8-.8-1.8-.4-3.1-1.7,1.2-3.3,1.4-4.9.9-1.8-.6-2.5-1.9-2-4,.3-1.8,1.8-2.9,4.8-3.4h2.8c0-.4.4-1,.8-1.6,1.2-1.9,2.7-3.1,4.3-3.3,2.2-.4,4.5-.2,6.7.6,1.3.5,2.2,1.2,2.9,2l.6,1v-.2ZM466.5,143.9q0-.1,0,0ZM443.6,170.5c2.5.5,3.9,1.6,4.3,3.3v.7c-1.9-.1-3.1-.8-3.8-2.1-.4-.6-.5-1.2-.4-1.9h0ZM259.6,183.3h1.2c-.8-.1-1.2-.5-1.2-.9v.9ZM225.5,172.1v.8-.8ZM209.8,184.1h-.2c0-.1.1-.5.1-.5v.6h0ZM199.1,181.8q0,0,0,0ZM577,157.2v.2c0,0,0,0,0,0-1.1-.1-1.8-.3-1.9-.7.3-.6.8-.8,1.1-.6.4.2.6.6.8,1.1ZM555.2,158l-.4.5h.3c0,.1.1-.5.1-.5" fill="#d9cc6e" fill-rule="evenodd"/>
  <path d="M719.6,85.7c-6.9-3.7-12.2-6.4-15.8-8.1-6.5-3.1-11.2-4.8-14.5-5.2l-15.9-1.4c-3.2-.2-5.6-.6-7.3-1.2,2.1,1.1,3.9,1.7,5.6,1.9l7.2.7c11.1,2.4,17.6,4.6,19.8,6.8,3.5,1.8,6,3.1,7.2,4.2,1.7,1.4.5,1.6-3.8.6-4.6-1-9.4-1.6-14.5-1.6h-.1v.2c0,0,8,1.4,8,1.4,5,1.2,6.3,2.2,4,3.1-3.1-.4-6.5-.4-10,0v.2l10.7,1.2c5.3.9,4.5,1.3-2.3,1.3l-21.9.8c-5.5.6-10,.5-13.5-.2l-15-1.4c-3-.4-3.4-1.4-1.2-2.6,1.6-1.1,1.4-2-.5-2.6l-6-.6c-5.2-.1-9.1-.8-11.4-2.1-.9-.6-.9-.9,0-1.1,1-.2,3-.2,6,0,10,.4,19.8-.2,29.5-1.8,3.7-.7,5.4-1.2,5.2-1.6l-8.2-.4-25.3.9-13.2-.3c-3.7-1-7.2-1.2-10.4-.8l-7.7,1.2c6-.5,10.2-.2,12.8.6,1.9.6,4.1,2.2,6.7,4.8,2.1,2,4.1,3.1,5.9,3.4l5.7.5c3.8.8,5.8,1.5,6.2,2.1.5.8-1.3,1.4-5.3,2.1l-12.5,1.4,15,.9c3.9.8,6.6,1.6,8.2,2.2,1.8.8,1.2,1.3-1.7,1.4-1.3,0-2.6-.4-4-.8l-3-.9c-2.3-.6-5.2,0-8.8,1.4-2.9,1.1-5,2.6-6.2,4.3-1.1,1.6-3.6,3.1-7.5,4.6,7.8-2.7,12.2-4.1,13.2-4.2,1.2-.2,2.3,0,3.3.6.7.3,1.9,1.1,3.7,2.4,6.9,3.6,15.5,4.2,26,2.2l.2-.4-5.2-2c-2.8-1.3-5-2-6.6-2.1-3.1-.4-5.1-1.2-6-2.6-.9-1.3,1.5-1.5,7.1-.5l13.8.8c1.6-.1,3.1-.6,4.7-1.1,3.8.4,7.4.2,10.6-.9,2-.6,4.7-1.8,8.4-3.4,4.8-.8,8.9-.9,12.4-.1,2,.4,4.6,1.2,7.7,2.4l16.2.8c1.9.1,2.6.6,2.2,1.1-.6.7-2.7,2-6.5,3.7l-17.9,5.4c-2.9.8-6,1.2-9.3,1.1-5.8-.2-9.8.4-11.8,1.9-2.5,1.8-.2,4.1,6.7,6.8,3.9,1.7,7.4,4,10.3,6.9,2.8,2.8,4.8,5.8,6,9,1.2,3.3,1.2,6.3,0,9-1.2,3.1-3.8,5.3-7.5,7.1-9.8,4.7-16.5,7-20,6.9-1.3,0-2.6-.4-4-1.1-2.1-1-3.5-1.6-4.1-1.8l-2-.5c-.6-2.2-1.9-4.4-3.9-6.5-3.1-3.2-6.2-4.5-9.4-3.8-2.5-3.2-6.5-3-12.2.5,0-2.1-.6-4.1-1.8-6.2-2.4-4.2-5.7-6.1-9.8-5.3-1.3-3.1-3.2-4.9-5.7-5.2l-7,.5c-.5-1.4-1.2-2.7-2.5-4-1.8-1.7-3.9-2.8-6.4-3.5-2.7-.6-5.3-.3-7.8.8-2.8,1.3-5.1,3.6-6.9,6.8-7-2.7-12.2-1.4-15.7,3.7-2,3.1-3.1,6.2-3.3,9.8l-3.8.2c-3,.4-5.2,1.6-6.2,3.4-2.4-.9-4.8-1.1-7.4-.4-2.6.7-4.8,1.9-6.7,3.8-4.5,1.4-7,4.8-7.4,10.2-2.8,2.1-3.1,4.9-.8,8.2.9,1.2,2,2.3,3.3,3.3,1.2.9,2.3,1.4,3.1,1.5-2.5,2.8-3.6,6-3.2,9.8.3,3.6,1.8,6.3,4.3,8.1,1.7,4,4.6,6.3,8.5,6.7l4.6-.3c.3,2.6,1.4,5.2,3.3,7.7,2.5,3.3,5.2,5.1,8.2,5.4,1.6,1.9,3.8,3.3,6.6,4.2,2.7,1,5.5,1.4,8.4,1.2,3.6-.2,6.5-1.3,8.7-3.1,3.8,5.1,8.6,6.6,14.2,4.5,5,1.9,8.8,1.9,11.5-.2l2.3-2.2c.7-.7,1.5-.9,2.1-.7,4.2-.3,7.2-1.6,9-3.7.5-.6,1.3-2.2,2.5-4.8,4.5.5,9-.8,13.5-3.8,4.5-3,7.1-6.5,8-10.5,1.2.4,2.6.6,4.1.5,6.2,0,10.6-3.5,13.2-10.4,1.8-4,3.9-6.6,6.6-8,2.1-1.1,4.8-1.4,7.9-1.1,1.8.2,4.7.8,8.6,1.7l8.7.3c4.3-.8,8-2.5,11.3-5,3.1-2.5,5.3-5.4,6.6-8.7,1.3-3.4,1.5-6.9.4-10.4-1.1-3.8-3.5-7.1-7.3-10.1-9.2-7.3-14.7-13.8-16.5-19.3-1.8-5.6.8-8.3,8-8.2,13,0,22.3-.7,27.6-2.1,6.5-1.8,8.9-4.9,7.2-9.4-1.9-4.2-4.4-6.9-7.5-7.9l-3.5-1.1c-1.3-.5-2.3-1.3-3.1-2.4-1.9-2-4.4-2.7-7.3-2.1l-3.5.8c-1.3.2-2.5,0-3.6-.3h-.2ZM609,165.4h1.1c0,0-1.2.4-1.2.4v-.4h0ZM567.1,188.3h-.1c0-.1.1,0,.1,0" fill="#d9cc6e" fill-rule="evenodd"/>
  <path d="M563.4,102.2c-.5-.6-.8-.8-1.1-.7,0,0-.3.2-.7.6l-2,.2c-.2,0-.6,0-1,0-.5,0-.8,0-1.1,0-.3.1-.8.1-1.3,0h-.7c-.3-.6-.8-.9-1.5-1-.6-.1-1,0-1.1.5-.1-.2-.2-.3-.5-.2-.3,0-.5.2-.6.4h-2.8c0-.1-.6-.7-.6-.7-.2,0-.4,0-.6.1-.9-.1-1.5,0-1.5.2h-2.1c0-.1-1-.2-1-.2h0c-.4-.4-.8-.7-1.1-.9-.5-.2-1,0-1.1.4-.2.1-.4.1-.6.1s-.3.1-.4.2c-.3-.6-.5-.6-.7,0-.7-.4-1.2-.6-1.5-.5-.5.2-.9.4-1.3.4-1,0-1.7,0-2,0-.4,0-.5-.2-.5-.4-.2.1-.3,0-.7-.1-.3-.1-.4-.3-.4-.5-.2-.6.4-.6,1.9-.2.5,0,.9,0,1-.2.2-.1.2-.4,0-.7-.1-.3-.3-.6-.6-.8l-.4-.2-.2-.2c-.2-.2-.5-.3-.8-.3v-.4s0,0-.2.1c-.3.2-.6.2-.8,0-.3-.2-.2-.4.3-.7.6,0,.8-.2.5-.6-.2-.4-.8-.7-1.7-1-.6-.4-.8-.8-.3-.9s1-.2,1.9.1c.8.6,2.1.7,4.1.6h.2c0,.1.8.1.8.1.5-.4,1.7-.8,3.6-1.2-.7,0-1.3-.2-1.8-.4-.6-.6-1.8-.6-3.5-.2-.5.4-.9.6-1,.4l-.2-.2h-1.2c0,.1,0,.1,0,.1-.9,0-1.2,0-.9-.3.3,0,.7.1.9,0h0c.2,0,0-.2-.3-.4-.2-.3-.4-.4-.3-.6,0,0,.2,0,.4,0,.8,0,1.4,0,1.8-.3.2-.4,1-.6,2.5-.6h2.1c-.5-.4-.8-.6-1.1-.5-.4.2-.7.4-.8.4h-.2l-.8-.2c-1.2-.9-2.3-.9-3.4,0-.2.2-.4.3-.5.2l-.2-.2c-.4-.4-1-.8-1.8-.8l-1.1-.3c-.2,0-.3-.2-.3-.3,0-.1.6-.8,1.8-2,.5-.6.5-1,.2-1.2-.2-.2-.7-.4-1.4-.5l-2.1.2c-.8.1-1.3.4-1.6.7-.5.6-.6.9-.2,1.2.2.2.7.2,1.3,0l-.5-.3c-.4-.6.3-.9,2.3-.7,1,0,1.2.5.7,1.3-.5.7-1,1.1-1.8,1.4,0,.4-.2.6-.6.9l-1.3.8c-.3-.3-.8-.3-1.4,0-.8.2-1.5.7-2.2,1.4,0-.4-.6-.6-1.5-.6h-2.2c-.5-.3-1.5-.2-2.8.4-.1-.1-.7-.1-1.8,0l-4.7.5c1.3,0,4,0,8.2.2l1.2-.4c.7-.2,1.1-.2,1.3,0-.6.3-.1.5,1.4.6,1.6,0,2.8,0,3.8-.2.2.1.2.3,0,.4,0,.1.6.4,2,.8.6.6.9,1.1.8,1.7-.1.5-.5.9-1,1.3-.6.4-1.2.6-2.1.7-.8.1-1.7,0-2.5-.1l-1-.6c-.3-.1-.6-.2-.8-.2-.5,0-.8.7-1.3,2-.2-.6-.6-.9-1.1-.9-.6-.1-1.3.2-2.1.9-1.3-.6-2.2-.6-2.6-.1-.2.2-.2.5-.2.7v.3c-.1.2-.3.4-.4.6,0-.4-.2-.6-.6-.4-.4,0-.9.3-1.3.9,0,.2,0,.4,0,.7.1.2.2.3.4.4-.2.2-.6.3-1.2.2-.8-.1-1.4-.4-2-.8-.6.9-1,1.2-1.2.9.1-.9-.3-1.4-1.1-1.9-.5-.3-1-.3-1.4-.1l-1.3.2-1.3.2c-.4,0-.8-.2-1.1-.6-1.3-1.4-2.9-2.1-4.6-1.8l-1.4.2h-.2s0,0,0,0c-.3-.6-.7-1-1.1-1.1-.4-.1-.8,0-1.1.4.4-.9.1-1.2-.7-.8,0-.8-.4-.9-1.3-.4-.3-.4-.6-.5-1-.2-.4.2-.5.6-.3,1-.5-.2-.9-.2-1.1.1-.1.3,0,.6.2.7-.3.5-.2.8.4.9.6.2,1.1,0,1.5-.4.2-.3.4-.4.6-.6h.4c.2,0,.3.1.4.2,0,0,0,.2,0,.3,0,.3.2.4.6.4.5-.1.8-.2,1-.4.2,0,.5.1,1.1.4.3.2.7.3.9.2-.3,0-.4.3-.4.5.1.2.3.3.7.3v.4c0,.2-.2.3-.5.2,0,.2-.1.5-.3.6-.2.2-.4.3-.7.3-.7-.4-1.6-.7-3-.6-.6,0-1,.1-1.1.2-.1.2-.1.4.4.8h-.4c-.9-.3-1.7-.4-2.5-.4-.9,0-1.4.3-1.6.8h-.5c-.5,0-.8.3-1,1-.3-.2-.5-.1-.8,0-.1,0-.2.2-.2.3-.5-.2-1.2-.2-2,.1-1.3-.4-2.5-.4-3.5-.1-.8.2-1.8.6-3.1,1.4-.6,0-1.2.2-2,.4h-.2c0,0,0,0,0,0l-2.8.2-2.3.2h-.8c0,0-.6-.2-.6-.2-1.5-.2-2.8-.3-4.1-.1l-1.4.4,3.6.3,5,.3h.6c1.4.1,3,0,4.6-.3l1.1.2h2.4c0-.1,3.5-.6,3.5-.6,1.8.3,3.1.6,4,.7,1.3.1,2.4,0,3.1-.5-.3.3-.6.5-.6.6,0,0,0,.2.2.3-.4.2-.5.4-.4.7,0,.2.2.5.6.6.4.1.7.2,1.1.2.2,0,.4,0,.6-.2.2.1.5.2.7.1,0,.4.4.5.8.6.4,0,.8,0,1.1-.3h.2c.4.2.7.6,1.1.8.7.4,1.2.6,1.6.2l.2-.2.5.6c.4.7.3,1-.6.9-.6-.2-1.1-.2-1.4,0-.7-.6-1.5-.8-2.1-.4-.3.1-.4.3-.5.6v.6c-1-.1-1.9,0-2.6.6-.4.2-.6.4-.9.4-.4,0-.9-.1-1.6-.4-.5-.4-1-.7-1.6-.6-.6,0-.7.2-.5.6-.8-.4-1.5-.4-2.1.4.1-.7,0-1.1-.4-1.4-.4-.1-.6,0-.9.2-.2-.1-.5-.2-.8-.2-.3,0-.6.2-.8.5-.2.2-.3.4-.1.7.1.2.5.4,1.1.4-.2.2-.2.4-.1.6.1.2.3.3.6.3s.5,0,.7-.2c.2-.2.3-.4.3-.8,0,.6.2.9.3,1,0,0,.2,0,.4-.2.1.2.4.3.6.3.3,0,.3-.2.2-.6.8,1.2,1.3,1.3,1.5.3.1,0,.1,0,.2,0h0c.4.1.8,0,1.3-.3h3c.7-.6,1.1-.8,1.2-.8.2,0,.5,0,.8.4v.2c.2.3.4.6.6.7.4.3.8.3,1,0h.2c0-.1.2.1.2.1.6.8,1.3,1.2,2.1,1.4,1,.2,1.6-.1,1.9-1.1,1.2.6,2.1.6,2.5,0h.3l.8-.3c.4,0,.7,0,.9-.3h.5c.3,0,.5-.2.6-.5.4.2.8.3,1,.1.3-.1.2-.4-.1-.8.2,0,.5,0,.7-.1.2-.2.2-.3,0-.5.4,0,.6,0,.6-.3s-.2-.4-.6-.3c-1-.4-1.5-.4-1.6.2v.6c.1,0,.2.1.3.1-.4.4-.8.4-1,0,0,0-.1,0-.3.4-.1,0-.3,0-.5.1-.5-.6-.8-.9-1.2-.9,0-.5,0-1-.2-1.6-.3-.8-.7-.9-1.2-.4.1-1.1-.2-1.5-1.1-1.4-.3.1-.3,0-.3-.1s.2-.4.4-.6c.6-.6,1.1-.4,1.4.2,1,1.1,1.8,1,2.1-.4.7.5,1.3.8,1.6.8.5,0,.7-.4.8-1.3.5.3.9.4,1.1.3.1,0,.4-.3.6-.7.3.2.5.4.8.3.2,0,.5-.2.7-.6.4-.2.8-.3,1.1,0h0c.1.1.4.3.6.7-.4,0-.6.1-.9.2-.6.3-.5.6.3.9-.9.3-1.3.6-1.3.9,0,.3.1.6.6.8.5.2,1,.3,1.5.3.5,0,.8,0,1-.2h.1c.3-.4.4-.8.4-1.3s0-.3.1-.3.4,0,.7.3c.7.4,1,.8.9,1,0,.3-.4.4-.9.2h-1c0,0-.1.3-.1.3-.2.4.1.6.9.6s1.9,0,2.3-.3c.2-.1.3-.2.5-.4.7,0,1.4.1,2,.3.2.1,1,.4,2.2.9.8.4,1.4.5,2,.5.5,0,1.1-.3,1.7-.7l1.5.2c.8,0,1.5-.3,2.3-1.1.7-.4,1.5-.7,2.5-.7s1.4,0,2.6.3c1.2.2,2,.3,2.6.3,1,0,1.8-.3,2.4-.8-.3,0-.5-.2-.6-.7,0-.6-.5-.8-1-.4-.2-.2-.5-.3-.9-.2-.3,0-.4.2-.3.4-.3,0-.5.1-.5.3,0,.2,0,.3.3.3v.2c0,0-.9,0-.9,0-.7,0-1.3-.2-1.8-.6-.6-.3-1.2-.6-1.8-.6h-.8c-.3.2-.6.4-.8.4h-1.1c-.4,0-1,0-1.8-.2h-.7c.2-.4,0-.9-.2-1.3,0-.1-.2-.2-.3-.3,0-.4,0-.6-.3-.7-.2-.1-.3,0-.5.4,0-.1-.2-.2-.5-.2h-.3c-.9-.4-1.4-.7-1.6-.8-.5-.4-.4-.9.2-1.5.6-.4,1-.4,1.3-.4.2.1.3.3.3.6,0-.6.3-.9.9-.9h.3c.6-.6,1.2-.8,1.7-.8.4,0,1,.3,1.9.7,1,.3,1.9.4,2.6.3.4.4.8.7,1,.9.6.4,1.1.4,1.4,0l.3.2c0,.2.2.2.3.2h0c1.5,1,2.9,1.1,4.1.5.8-.4,1.8-.5,3-.4.5,0,1.7.3,3.5.7,1.2.3,1.7.3,1.3,0-.3-.3-1.1-.7-2.5-1.1-1-.3-1.5-.5-1.3-.6l.3-.2c0-.1.2-.2,0-.4.8.3,1.5.4,2.2.2.8,0,1-.5.7-1.1.6.2,1.2.3,1.8.2h.3c.5.3,1,.5,1.3.6.6,0,.9-.2.8-1,.5.5.9.6,1.2.5.3,0,.3-.3.2-.7.5.2,1.5.4,3,.6,1.7.1,2.9.1,3.5,0,1.4.1,3.5.2,6.2.2.4.4.8.6,1.1.6.3-.1.3-.5,0-1.1" fill="#a38917" fill-rule="evenodd"/>
  <path d="M655.1,48.3c-.8,1.1,0,2,2.2,2.8-.3,0-.5.2-.6.4,0,.3.1.6.6.8-1.5-.4-2.2,0-2.2,1.3s.6,1.9,1.8,1.9c.8,0,1.1.7,1.1,1.9s-.5,1.6-1.4,1.3c0,.6-.4.9-1,1.3-.7.4-1.3.3-1.9-.2h-1.6c-.3,0-.6-.4-1.1-1.2l-1.3-2.1c-1.5-1.9-3.3-2-5.6-.5l-2,1.4c-.7.3-1.2.4-1.8.4-1.2,0-1.9-.8-2-2.3-1,0-1.8-.3-2.6-1.1-1-1.1-.3-2.5,1.8-4-1.8-.5-2.8-1.4-3.2-2.7-.3-1.2,0-2.3.8-3.5.9-1.2,2.1-2.1,3.6-2.4h3.7c0,.1,3.1,0,3.1,0,.2-.7.8-1.3,2-1.6,1.2-.4,2.3-.2,3,.3,1.5.9,2.3,2.2,2.5,3.9.2,1.4.8,2.7,2,3.7h.2ZM754.2,127.1c.6,0,1,.2,1.3.5.5-.3,1.1-.8,1.8-1.6,1.1-1.1,2.1-1.3,3-.6,1-1,2.5-.9,4.1.2.6.3.9.8,1.2,1.3l1.4-.3c1.4-.2,2.1.4,1.9,1.8.3-.8.8-1.1,1.5-1.1s1.2.2,1.9.8c1.6,1.4,1.8,2.7.5,3.9-.7.6-1.4.7-2.3.3l-.6-.4h0l-.9.6c-.5,0-.8,0-1.1-.4h0c0,0-.6.5-.6.5-.3.7-.7,1.1-1,1.2h-1.7c-.5-.4-.8-.8-.8-1.5-.2.6-.8.9-1.7.8-1,0-1.5-.5-1.7-1.1.4-.7.4-1.2-.1-1.6h-.4c0,0-.3.7-.3.7-.5.8-1.2,1.1-1.9,1-.7-.6-1.3-.8-1.8-.8h-1c-.4,0-.7-.1-.8-.6.3-.8.3-1.3,0-1.8h-1.8c0,0-.7.5-.7.5h-.9c-.6-.4-.8-.8-.8-1.1h0c.5.5.9.3,1.2-.3.3.3.6.4,1,.2l.3-.2v-.5h.2c.2-.3.6-.5,1.1-.5h.4ZM727.4,149.9c0,1.6-.6,2.8-1.8,3.7l-4.9,3.1c-2-.2-3.8.6-5.5,2.3-.8,0-1.2.5-1.5,1.5v.3c-1,.7-2.1.8-3.5.6-1.8-.7-3.3-.9-4.2-1-1.2,0-2.4.3-3.6,1.2-1.3.8-1.5,1.8-.5,2.7v.2c-.2,1-.9,1.3-2.2,1.1l-3.7-1.3-.3-.3.3-.4c.2-.5.1-1.1-.2-1.6l.2-.5.5.2c2.2.5,3.2-.3,3.2-2.5,0-.8-.4-1.3-1.1-1.4-.8-.2-1.2-.6-1.3-1.2-.2-1.1.8-1.9,3-2.2h1.5c-.3-.4-.7-1-.8-1.6-.6-1.6-.2-3.1.9-4.5,1.6-1.8,4.5-2.4,8.8-1.8,1.6.2,3.2.3,4.8,0l2.2-.5-.2.7c-.2,1.2.2,2.3,1.2,3.2,1,.9,2.1,1.3,3.2,1.2,1,0,1.7-.7,2.2-1.7.5-1.1.3-1.8-.8-2.2.7-.3,1.3-.4,2.1-.3,1.4.2,2.1,1.2,2.1,3.1h0ZM480.8,131.2c-.2.9.2,1.4,1.2,1.5v.3c0,0-2.6-.3-2.6-.3l-.5.8c-.8.8-1.6.8-2.5.2-.7-.6-1-1.3-.7-2.3.2-.9.9-1.3,1.8-1,0-.8.3-1.2,1.1-1.2.7,0,1.3.3,1.7.9.7-1,1.2-1,1.8-.2.4.6.3.9-.2,1-.7,0-1.1.2-1.1.3h0ZM489.9,169c1.8-.1,2.9-1,3.4-2.5.8,1.7,1.8,2.3,3.2,2l.7-.2c.6.3,1.3.3,2.2,0,.9-.3,1.4-.7,1.7-1.2l.2-.8c1,1.3,2.5,2.2,4.5,2.6l1.6.3h1.5c.9.5.9,1,0,1.5h-.1c-.9.6-1.7.4-2.2-.3.9,1.3.6,2.4-.8,3.1-1.5.8-2.7.6-3.6-.7-.6,1-1.5,1.2-2.7.5-1.1-.7-1.7-1.6-1.7-2.7-.6.9-1.4,1.1-2.4.3l-1.1-1c-.8,1.1-1.8,1.2-3.1,0l-1.2-1.2h0ZM465,150.9v.7c1.1,0,1.9.7,2.2,1.8.1.4.1.8,0,.9l-1-.2c.2,1.2-.2,2.3-1.3,3.2-1.1,1-2.3,1.2-3.5.7-.9-.4-1.2-1-.8-1.7.6-1.1.9-1.8.7-2.2-2.7,1.5-3.5.6-2.4-2.4-.8,0-1.2-.3-1.1-.6l.4-.6c.6-.6,1.4-.9,2.1-1.1.6,0,1.4.2,2.4.7,1.1.5,1.8.8,2.3.8h0ZM380,166.7l-.3.3-.8.2-.6-.4c-.2.5-.6.7-1.1.6-.5,0-.9-.3-1-.8h-3.5c.1.8,0,1.3-.5,1.5-.3,0-.8-.1-1.3-.6s-.8-.8-.8-1.2c0-.5.2-.6.9-.6-.9-.3-1.1-.8-.4-1.5.6-.6,1.3-.8,2.2-.6l.2,1.2c1.1-.3,1.7,0,1.6,1.2l4.3.2c-.8-1,0-1.5,2.3-1.6,2.3,0,3.6.2,4.1.6-.6-1.1-.2-1.6,1-1.4.5,0,.8.2,1,.4.2.2,0,.5-.3.7l2.2.2c.2-.8.9-1.1,1.9-1.1l2.4.4c.5-1.2,1.1-1.2,2-.2.1-.7.5-1.1,1.2-1.2.5,0,.9,0,1,.4v.7l.2.6c-.5.6-.7,1.1-.6,1.8l-7-.2c-1.3.5-2.4.8-3.4,1-1.6.3-2.5,0-2.6-1.1h-1.5v.7l-2.8.3v-.3" fill="#efeab8" fill-rule="evenodd"/>
  <path d="M609.3,111.5l11.4-2.2c5-.5,10.2.2,15.7,2.2,7.1,3.8,12.3,6.1,15.5,7l3.9,1c.6.2.9.5,1.2.8.2.3.4.7.4,1.1,0,.9-.3,1.6-.8,2.1-.5.3-1.6.6-3.3.8-2.3.7-3.9,1.3-4.5,2-.8.7-.8,1.5.2,2.4,4.3,2.3,7.2,4.2,8.8,5.7,1.3.9,3,1.8,5.4,3,.5.3,1,.7,1.5.9h1c0,0,2.2.2,2.2.2,2,.5,2.7,1.4,1.8,2.7.4-.4,1-.8,2-.9,1-.2,1.8,0,2.2.7.4.6.5,1.2,0,1.8v.2c.5.3.5.9,0,1.9-.5,1.1-1.2,1.4-2.1,1,0,.4-.2.8-.5,1.2.2,0,.5.2.7.4,1,.9,1.1,1.8.3,2.7-.8,1.2-2,1.7-3.3,1.5l-7.4-.6c-5.4,2.3-10.5,4.3-15.1,6.1l-5.3,3.1c-2.4,1.2-5.4,2.1-8.9,2.6-2.1,1-5.4,1.6-9.7,1.9-2.6.2-8.6.3-17.9.4-4-.3-7.1-.3-9.2.1l-.2-.7,3.5-.5,19.2-1.7c6.6.2,11.7-.8,15.2-3l4.7-3.4c1.5-1.1,3.1-2.1,4.7-2.9h1.8c1.2,0,1.8-.3,1.8-.9l1-.4c.8-.5,1.1-1.2.7-2.1-.2-.6-.8-.8-1.6-.7l-2,.6c-2.2.3-3.6,0-4.2-.9-.5-.8-.5-1.5-.2-2.2.4-.7,1-1,2-.9v-.6c-2.9.6-4.7.4-5.4-.7-.7-1.1-.6-1.9.4-2.6h2.8c-.5-1.4,0-2.3,1.5-2.8,1.3-.5,2.5-.5,3.6,0,1.1.5,1.8,1.3,2,2.5v.5h.1c0,0,.5-.8.5-.8l1.2-1.8c.5-.6,1.2-.8,2-.7,1.8.3,2.5,1.3,2.2,3,.4-1.7,1.5-2.2,3.5-1.4,1,.3,1.6.8,2,1.5.3.7.3,1.5,0,2.4-.5,1.4-1.6,2.3-3.5,2.6l-1.1.2,1,.3h1.5c2.2-.8,3.2-2.1,3.2-4,0-.6-.1-1.2-.5-1.8-.5-1.1-1.6-2.2-3.1-3.3l-5.7-3.7c-2-1.2-3.7-2.3-4.9-3.1-2.3-1.6-3.6-2.9-3.6-4.1,0-1.3,1.2-2.3,4-2.9,1.2-.3,1.8-.6,2.2-.8.5-.5.3-1.2-.4-2.1,1.2-.2,1.3-.8.2-1.6-1-.7-1.8-1.1-2.6-1.3l-5.5-.6-2.7-.4-2.3-1.3c-.8-.4-1.8-.5-3.1-.4.4.6.6,1.3.5,2.1,0,1.1-.4,1.9-1.2,2.7-.8.8-1.6,1.2-2.5,1.2s-1.9-.6-2.5-1.7v-.4c.5-.2.8-.6.8-1,0-.5-.4-1-1.1-1.4-.7-.4-1.3-.6-1.8-.3-.6.2-.8.9-.8,2-.5-1.1-1.1-1-2,.3-.7-.8-1.8-.9-3.3-.4-1.6.6-3,1.4-4.1,2.7-.9,1-2.5,1.6-4.5,1.7-2.6,0-4.4.3-5.2.7v1.1c.7.3,1.6.5,2.8.6l6.5.4c2.7.3,4.6,1.2,5.8,2.5.7.8,1,1.8,1,3.2,0,1.2-.4,2.3-1,3.2-1.1,1.7-3.3,2.2-6.5,1.7l-6.8-.3c-1.2.2-2.1.8-2.4,1.6-.3,1.1-.8,1.9-1.2,2.6-.9,1.2-2.5,1.5-4.9.8-1.6-.6-2.8-1.2-3.5-2l-.7-1.2h-.7c0,0,0,0,0,0-.6,0-.9.3-.9.9,0,.7.2,1.3.9,1.8,1.6,1.5,3.3,2.5,5.2,2.9,1.2.2,2.7,0,4.5-.9l4.3-2.3c2.5-1.1,4.5-1.5,6.3-1.3l2.8.5c1,.2,2,.2,2.9,0,2.5-.6,4.2-.7,5.4-.5,1.6.4,2.5.9,2.7,1.5.2.7.2,1.1,0,1.1l-1.2.2-1.3.4c-.5.2-.7.6-.5,1.3,0,.2.8.6,2.5,1.1l2.5.7c.9.4,1.4.9,1.4,1.8,0,.9-.4,1.3-1.4,1.1l-2.7-.3c-.9.3-1.4,1.1-1.5,2,0,.7,0,1.2.5,1.6-.7-.3-1.3,0-2,.6-.8,1-1,1.9-.5,2.9.3.4.7.8,1.2.9-.9,1.6-2.6,2.3-4.8,2.3l-2.6-.6c-1.2-.4-2.1-.6-2.7-.5-.5,0-1,.3-1.4.7l-1.2.8h-2.7l-3.3-.5h-.3c0,0,.1.2.1.2.9.7.6,1.5-.8,2.3-1.5.8-2.9,1.3-4,1.2l-8.1-.8c-4.6-.2-8.8.4-12.8,2.1-2.2.9-3.8,2.1-4.6,3.2-.4.6-.7,1.3-.9,2.4s-.5,1.9-.8,2.3-1.6,1.3-3.9,2.7c-1.2.7-1.9,1.5-2.2,2.6h-1.6c-2.7-.4-4.2-1.4-4.5-3.3-.3-1.6.2-3.5,1.5-5.5,1.3-2.1,2.6-2.8,4.1-2.3-1.6-.8-2.1-2.3-1.6-4.4.5-2.1,1.6-3.6,3.2-4.4,1.3-.7,3-.9,4.8-.7h.5c0-.8.6-1.6,1.5-2.4,1.2-1,2.5-1.6,4-1.8.7,0,2.1,0,4.1,0l4-.3c1.2-.3,2.5-1.1,3.9-2.4,1.7-1.6,1.7-2.6.1-3.2.8.1,1.5,0,2.1-.3.6-.3.8-.9.6-1.8-.2-.6-1.2-1.3-3-2-1.9-.7-3.1-1.6-3.4-2.7l.2-1.7c0-.4-.3-.7-.9-.7-.8,1.8-1.9,2.6-3.6,2.3-.8,0-1.3-.4-1.6-.8l-.3-.5-.2.3-1.1-1c-.3-.3-.5-.8-.8-1.5,0-.3-.5-.4-1.3-.4h-1.8c0,0-2-.3-2-.3l-1.3-.6c-8.5.5-14.6.7-18.2.5l-11.2-.7c-2,.5-3.3,1-3.8,1.4-1,.6-1.5,1.6-1.4,2.7.1,1.2.9,2.2,2.5,2.8,1.5.6,2.5.6,3-.2.8-.2,1.5.2,2.2,1.2.6,1,.3,1.4-.8,1.2-.9-.2-1.3,0-1.2.4,0,.6-.1,1-.5,1.1,1.5.7,2.6.5,3.3-.7.4-.5.9-.7,1.5-.6.5,0,.5.3,0,.8.5.5.6,1.4.1,2.5-.4,1.1-1.2,1.3-2.3.5-.2.9-1.2,1.1-3,.7-1.7-.3-2.5-1.3-2.1-2.9-.2-.3-.5-.4-1.1-.3-.7.2-1.3,0-1.8-.3-1.2.2-2.1,0-2.5-.8-.5-.7-.5-1.5,0-2.5-1,.6-1.9.3-2.6-.7-.8.1-1.3-.1-1.3-.8s0-.5.2-.8c-.7-.3-.9-.8-.6-1.8l1.7-.3c-.2-.8-1.5-1.2-3.8-1-1.7,0-3.2.3-4.5.7l-2.4.7h-2.5c-.6,0-.4-.3.5-.6,1.2-.4,1.7-.7,1.7-1h-1.5c.1-.5.2-.9.4-1.2h-3.6c-5.8.2-9.4.7-10.6,1.4-1.9,1.2-3,2-3.3,2.2-.6.7-.1,1.3,1.3,2,2,2.3,3.2,3.5,3.5,3.7.9.6,2.2,0,3.8-1.3,1.6-1.4,3.2-1.8,4.8-1,1.4.6,2.3,1.6,2.7,3,1.2,1.1,2.1,2.3,2.6,3.6.5,1.3.5,2.2-.2,2.6l6-.2c.6.3.9.7,1.1,1.2.2.4,0,.7-.2.8.7.4.9,1.3.7,2.7-.2,1.3-.6,2.2-1.3,2.6,1.4.9,2.2,1.9,2.1,3,0,.8-.5,1.6-1.5,2.3-.5,1-1.5,1.6-3,2l-1.6.2c0,.7-.5,1.3-1.6,1.8.6.8.3,1.8-.9,2.8-1.2,1-2.7,1.6-4.5,2.1-3.2.7-5.7.4-7.3-.8.9-.5,1-1,0-1.5h-1.4l-1.6-.2c-2-.4-3.5-1.3-4.5-2.7l-.2.8c-.4.6-.9,1-1.7,1.2-.9.3-1.6.3-2.2,0l-.4-.2-.3.5c-1.4.3-2.5-.3-3.2-2.1-.5,1.6-1.6,2.4-3.4,2.5h0c-2,0-3.2-.9-3.8-2.9-2.3,1.2-4,1.5-5.2,1-1-.4-1.5-1.3-1.4-2.6h-.7c-14.8.4-24.9.7-30.4.7s-5.4.2-5.1.4c.2.2,1.3.6,3.3,1.1l-12.7.6c.6.6.6,1.2.1,1.7-.6.8-1,1.3-1,1.6,1,1.2,1,2.2.1,2.9h-3.4c-.3,1.2-.9,2-1.8,2.5-1.1.6-2.1.3-2.8-.6-1.1-.2-1.8-.8-1.9-2.1-.3-1.3.5-2.8,2.1-4.1-1.5-.8-1.7-1.5-.8-2.3.5-.4,1.2-.7,2.1-.8h-12.9v.6c0,.7-.5,1.3-1.2,1.8-.9.6-1.7.7-2.6.6-1,0-1.7-.5-2.1-1.4-.3,1.8-1.6,2.8-4,2.8s-1.7,0-2.3-.4c-.6-.4-.9-.8-.7-1.3-1.2.8-2.2.5-3-.9-.4-.6-.5-1.2-.5-1.7s.2-1.3.6-1.8l-.2-.6c0-.2,0-.4,0-.7,0-.3.3-.8.5-1.2.6-.9,1.4-1.5,2.2-1.8.6-.2,1.6-.2,3.1,0,.3-.8,1-1.3,2.4-1.5,1.9-.3,3.4,0,4.4,1.1-.4-.5-.4-1-.2-1.6.3-.6.8-1.1,1.6-1.5,2-1.1,3.3-.8,4,1.1l.4-.6h.6c0-1,.5-1.7,1.4-2.2.6-.3,1.1-.3,1.7-.2-.1-.3-.2-.7,0-1l.3-.4c-.6,0-1-.5-1.3-1.2-.5-1.2-.2-2.3.8-3.4.8-.8,1.8-1.3,3.4-1.5,1.6-.2,2.6.2,2.9,1.1l1-.4c-1.2-.4-1.2-1.1,0-1.9,1.2-.8,2.2-1.2,3.1-1,1.8.3,2.6,1.5,2.6,3.4.5-.4,1.2-.4,2.3-.2,1.2.3,1.5.9.8,1.7,1.5.2,2.4.9,2.4,2.3l19.9-1.2c-.1.3.3.6,1.1.7-1.1,3-.3,3.8,2.4,2.4.1.4-.1,1.2-.8,2.2-.5.7-.1,1.2.9,1.7,1.1.6,2.3.3,3.4-.7,1.1-1,1.5-2,1.4-3.2.4.3.8.4.9.2.2-.2.2-.5,0-.9-.4-1.2-1.1-1.8-2.3-1.8v-.7h.2l-.4-1,1.9.4c.7.2,1.1,0,1.1-.8l-1-.2.2-.9c.6,0,1,0,1.2-.4.2-.4.2-.9,0-1.5-.7-1.4-2-2-3.8-1.7l-2,.6c-.8.1-1.4,0-2-.6-.2-.2-.4-.8-.6-1.5-.8-.2-1.2-.7-1.3-1.7-.1-1.1.5-1.6,1.9-1.6,1.5,0,2.1.4,2,1.4-.4,1.6,1.1,2.2,4.8,1.8,1.7-.2,2.7.3,3,1.6.1.4,0,1.6-.1,3.5-.2,1.1,1,1.9,3.4,2.4l4.6.6c0-.3.3-.7.6-1.1.6-.8,1.4-1.2,2.5-1.3,1,0,2.2.2,3.4.9l1.9,1.1c-.2-.6,0-1.2.8-1.8.8-.6,1.8-1.1,2.9-1.4l-.2-.3c-.4-.7-.2-1.7.3-3,1.9-1.2,3.2-1.1,3.8.3v-.8c.7,0,1.4.2,2,.8.7.7,1.2,1,1.7,1,1,0,1.4-.3,1.4-1.1s-.2-.8-.4-1.1c-.4.4-1,.6-1.6,0v-.5c-.2.5-.7.3-1.5-.3l-.9-1.1v-.3c-1.4-.3-1.6-1.2-.8-2.3.5-.9,1.3-1.8,2.5-2.6-.7-.5-1.1-.8-1.4-.8l.6-.6-4.7-.3-4.4-.5-4.6-.9v-.3h2.5c0,0,2.2.3,2.2.3l2.5-.4,2.8.5c1,.2,2,0,2.6-.3,0-.8-.4-1.3-1.1-1.7l.5-.9c.6-.1,1.2,0,1.7.2l-.2-.8c-.1-.7,0-1.2.5-1.5l2.2-.2h.1c.2-.2.4-.3.8-.4l1.9-.5h-.2c-.4-.4-.3-.9.3-1.4-.5.2-.9.2-1.2-.2l-.7-.2c-1.1-.4-1.2-1.1-.7-1.9h.6c-.1-.6,0-.8.5-1h.2c0,0-.2-.3-.2-.3-.3.6-.8.6-1.3.2-.5-.4-.8-.9-.6-1.5-.6-.3-.3-.6,1.1-1,1.4-.4,2.6-.1,3.9.6-.7-.4-.8-.9-.4-1.3.4-.5.7-.6,1.1-.4-.5-.6-.2-1.1.8-1.5.9-.3,1.8,0,2.5.6,1.6-1,2.4,0,2.2,3.1.2-.6.7-.8,1.3-.8.6,0,.8.5.5,1.4.3-.8,1-1.1,1.9-.8.8.2,1.5.9,2,1.8v.7c3.6-.4,11.8-.5,24.7-.4,11.4.2,19.4.3,24,.6h.3c0,0,1.8,2.1,1.8,2.1.7.7,1.6,1.3,2.7,1.6l3,.9.3.2c.7.3,1.2.8,1.5,1.5l.5,1h-.3c0,.1.4.1.4.1,0,0,.1,0,.1,0,.7,0,1.1.3,1.3,1,.3-1.6,1.3-2.3,2.8-2.3s.9.2,1.2.4l.4-1c.5-1.1,1.1-1.7,2.1-2.1,1.1-.3,2.1-.2,3,.4.9.6,1.4,1.3,1.6,2.2-.1-2.2,1-3.8,3.4-4.7,2-.8,3.3-.4,4.1,1l.2.3v-.5c.3-1,.7-1.5,1.2-1.6-.2-.2-.2-.4-.2-.7,0-.6.2-1.3,1-1.9.7-.7,1.3-1,2.1-1l.9.2.4.2h0l-.3-.4c-.5-.6-.6-1.3-.3-2.3-1.2.9-2.4,1.1-3.5.7-1.3-.4-1.8-1.4-1.5-3.1.2-1.4,1.3-2.2,3.4-2.6h2c0-.3.2-.8.5-1.2.8-1.5,1.9-2.4,3.1-2.6,1.6-.3,3.2-.2,4.8.4,1,.4,1.6.9,2.1,1.5l.4.8v-.2ZM589,135.4q0,0,0,0ZM572.6,155.8c1.8.3,2.8,1.2,3,2.5v.6c-1.3,0-2.2-.6-2.7-1.6-.3-.5-.3-1-.3-1.5h0ZM441.2,165.6h.9c-.6,0-.9-.3-.9-.7v.7ZM416.8,157.1v.6-.6ZM405.6,166.3h-.1c0,0,.1-.4.1-.4v.5h0ZM398,164.5q0,0,0,0ZM667.9,145.6v.2s0,0,0,0c-.8,0-1.2-.2-1.4-.5.2-.5.6-.6.8-.5.3.2.4.5.5.8ZM652.3,146.2l-.3.3h.2c0,.1.1-.3.1-.3" fill="#d9cc6e" fill-rule="evenodd"/>
</svg>