<?xml version="1.0" encoding="UTF-8"?>
<svg id="Layer_1" xmlns="http://www.w3.org/2000/svg" version="1.1" viewBox="0 0 841.6 386.9">
  <!-- Generator: Adobe Illustrator 30.1.0, SVG Export Plug-In . SVG Version: 2.1.1 Build 136)  -->
  <path d="M394.2,296.3l-.2-.2.2.3h0M477.9,250.5l2.2.2-2.4.7v-.9ZM699.2,91.1c-13.7-7.4-24.3-12.8-31.6-16.2-12.9-6.2-22.5-9.6-29-10.4l-31.8-2.8c-6.3-.4-11.2-1.2-14.7-2.4,4.2,2.1,7.9,3.3,11.3,3.7l14.3,1.4c22.2,4.7,35.3,9.2,39.6,13.6,7.1,3.6,11.9,6.3,14.4,8.4,3.4,2.9.9,3.3-7.6,1.2-9.2-2-18.8-3.1-28.9-3.2h-.2v.4c.1,0,15.9,2.9,15.9,2.9,9.9,2.4,12.6,4.4,8.1,6.1-6.3-.8-13-.9-20-.2h0v.4c0,0,21.4,2.4,21.4,2.4,10.6,1.7,9,2.6-4.7,2.6l-43.7,1.6c-11,1.2-20,1-27.1-.5l-29.9-2.7c-6.1-.9-6.8-2.7-2.4-5.2,3.3-2.2,2.9-4-1-5.2l-12-1.1c-10.5-.2-18.2-1.6-22.8-4.3-1.8-1.1-1.8-1.7,0-2.1,2.1-.5,6.1-.4,12,.2,20,.8,39.6-.4,58.9-3.7,7.4-1.3,10.8-2.4,10.4-3.2l-16.5-.9-50.6,1.9-26.5-.7c-7.4-1.9-14.4-2.4-20.8-1.5l-15.3,2.5c11.9-.9,20.5-.4,25.6,1.3,3.7,1.2,8.2,4.4,13.4,9.6,4.2,4,8.2,6.3,11.8,6.9l11.4,1c7.5,1.6,11.6,3,12.4,4.2.9,1.6-2.7,2.9-10.7,4.2l-25,2.8,30.1,1.8c7.8,1.6,13.2,3.1,16.3,4.5,3.6,1.6,2.5,2.6-3.3,2.8-2.6-.2-5.2-.8-8-1.6l-6.1-1.8c-4.6-1.1-10.5-.1-17.5,2.9-5.8,2.2-10,5.1-12.5,8.6-2.2,3.1-7.2,6.2-15,9.2,15.5-5.4,24.3-8.2,26.5-8.5,2.4-.3,4.6,0,6.7,1.1,1.3.7,3.8,2.3,7.4,4.9,13.8,7.1,31.1,8.5,52.1,4.5l.3-.8-10.4-4c-5.7-2.6-10.1-4-13.2-4.3-6.2-.7-10.2-2.4-12-5.2-1.7-2.7,3-3.1,14.2-1l27.5,1.6c3.2-.3,6.2-1.1,9.3-2.2,7.7.9,14.8.4,21.3-1.7,3.9-1.2,9.4-3.5,16.7-6.8,9.6-1.6,17.8-1.7,24.8-.2,4,.8,9.1,2.4,15.4,4.9l32.3,1.6c3.8.3,5.2,1.1,4.4,2.3-1.1,1.4-5.3,3.9-12.9,7.4l-35.7,10.9c-5.8,1.7-12,2.4-18.7,2.1-11.6-.3-19.5.9-23.5,3.9-4.9,3.6-.4,8.1,13.3,13.7,7.9,3.4,14.8,8,20.7,13.8,5.7,5.7,9.7,11.7,12,18,2.3,6.7,2.4,12.7,0,18.1-2.5,6.1-7.6,10.7-15.1,14.1-19.6,9.4-32.9,14-39.9,13.8-2.6,0-5.2-.8-7.9-2.1-4.3-2.1-7-3.2-8.2-3.7l-4-1c-1.2-4.4-3.8-8.7-7.7-12.9-6.2-6.5-12.4-9-18.8-7.7-4.9-6.4-13-6.1-24.4.9,0-4.1-1.2-8.2-3.6-12.3-4.7-8.5-11.3-12.1-19.6-10.7-2.6-6.2-6.3-9.7-11.4-10.4l-14.1.9c-.9-2.8-2.5-5.4-4.9-7.9-3.6-3.4-7.8-5.7-12.7-6.9-5.4-1.2-10.6-.6-15.5,1.6-5.6,2.6-10.2,7.1-13.8,13.5-13.9-5.4-24.4-2.9-31.3,7.3-4.1,6.1-6.2,12.5-6.6,19.5l-7.6.3c-6.1.9-10.3,3.2-12.5,6.9-4.7-1.9-9.5-2.2-14.7-.9-5.2,1.4-9.7,3.9-13.4,7.7-8.9,2.8-13.9,9.6-14.7,20.3-5.7,4.2-6.2,9.7-1.6,16.4,1.8,2.5,4,4.7,6.6,6.6,2.5,1.8,4.6,2.8,6.2,3-4.9,5.5-7.1,12-6.3,19.5.7,7.2,3.6,12.5,8.6,16.1,3.4,8.1,9.2,12.6,17.1,13.4l9.1-.6c.7,5.3,2.9,10.5,6.6,15.4,4.9,6.7,10.4,10.2,16.5,10.8,3.2,3.7,7.6,6.6,13.2,8.5,5.4,2,11,2.7,16.8,2.3,7.2-.5,13-2.6,17.4-6.2,7.7,10.1,17.2,13.1,28.5,9,10,3.8,17.7,3.7,23-.4l4.6-4.5c1.4-1.3,2.9-1.7,4.2-1.3,8.4-.7,14.4-3.2,17.9-7.3,1.1-1.2,2.7-4.4,5.1-9.5,8.9.9,17.9-1.6,27.1-7.6,8.9-5.9,14.2-12.9,16-21,2.4.8,5.1,1.2,8.1,1.1,12.5-.2,21.3-7.1,26.5-20.8,3.5-7.9,7.9-13.2,13.2-15.9,4.2-2.2,9.5-2.9,15.8-2.2,3.7.4,9.4,1.5,17.2,3.3l17.3.7c8.6-1.7,16.1-5.1,22.6-10.1,6.3-4.9,10.7-10.7,13.3-17.4,2.6-6.9,2.9-13.9.7-20.8-2.2-7.5-7.1-14.2-14.6-20.2-18.3-14.6-29.3-27.5-33-38.5-3.6-11.2,1.7-16.7,16-16.5,26.1,0,44.6-1.4,55.2-4.3,13-3.6,17.8-9.9,14.4-18.8-3.7-8.4-8.7-13.7-15-15.8l-7.1-2.1c-2.6-1.1-4.6-2.6-6.1-4.8-3.9-4-8.8-5.4-14.7-4.2l-7,1.6c-2.7.4-5.1.1-7.2-.7Z" fill="#d9cc6e" fill-rule="evenodd"/>
  <path d="M386.8,124c-.9-1.1-1.7-1.6-2.2-1.4-.1,0-.6.4-1.4,1.2l-4,.4c-.5.1-1.2.1-2.1,0-.9-.1-1.6-.1-2.2,0-.7.2-1.6.2-2.7,0l-1.4-.2c-.6-1.1-1.6-1.7-2.9-1.9-1.3-.2-2.1.2-2.2,1.1-.2-.4-.5-.6-1.1-.4-.6,0-.9.4-1.1.8l-5.6-.2-1.2-1.1c-.3-.2-.7-.1-1.2.2-1.9-.2-3-.1-3.1.4l-4.2-.2-2-.2h-.1c-.7-.8-1.5-1.4-2.2-1.7-1.1-.5-1.9-.2-2.2.9-.3.2-.7.2-1.2.2s-.6.2-.8.5c-.6-1.1-1.1-1.1-1.4,0-1.3-.9-2.3-1.2-3.1-1-.9.5-1.7.8-2.6.9-2,.1-3.3.1-3.9,0-.7,0-1.1-.4-.9-.9-.3.2-.7.1-1.3-.2-.6-.3-.9-.6-.9-1.1-.4-1.1.9-1.2,3.8-.5,1.1.1,1.7,0,2.1-.4.3-.3.3-.8,0-1.4-.3-.6-.7-1.1-1.3-1.5l-.8-.4-.4-.4c-.5-.4-1.1-.6-1.7-.6v-.7c0-.1-.2,0-.5.2-.6.4-1.2.4-1.7,0-.6-.4-.4-.9.7-1.4,1.2,0,1.6-.4,1.1-1.1-.4-.7-1.6-1.4-3.4-2-1.3-.9-1.6-1.5-.7-1.9.9-.4,2.1-.4,3.8.3,1.6,1.1,4.3,1.4,8.3,1.1l.4.2h1.5c.9-.8,3.4-1.6,7.2-2.5-1.4,0-2.6-.3-3.7-.7-1.2-1.2-3.6-1.3-7.1-.5-1,.7-1.7,1.1-2.1.9l-.3-.4-2.5.2h-.2c-1.7,0-2.3-.1-1.8-.6.7.2,1.4.3,1.8.2h.1c.4-.2.2-.4-.6-.9-.5-.6-.7-.9-.6-1.1,0-.2.3-.2.8-.2,1.7,0,2.8-.1,3.5-.6.4-.7,2.1-1.1,5.1-1.1h4.2c0,.1,0,.1,0,.1h0c-.9-.9-1.6-1.2-2.1-1.1-.9.4-1.4.7-1.7.7h-.3c0,0,0,0,0,0l-1.7-.5c-2.3-1.7-4.6-1.7-6.8,0-.4.4-.8.6-1,.5l-.4-.5c-.7-.9-1.9-1.5-3.6-1.6l-2.2-.6c-.5-.2-.7-.4-.7-.6,0-.3,1.2-1.6,3.7-4.1.9-1.1,1.1-1.9.5-2.5-.4-.5-1.4-.8-2.8-.9l-4.2.3c-1.5.3-2.6.8-3.2,1.4-.9,1.2-1.1,1.9-.4,2.4.5.4,1.4.3,2.6-.1l-1-.7c-.8-1.2.7-1.7,4.7-1.4,2,.2,2.4,1.1,1.3,2.6-.9,1.3-2.1,2.2-3.5,2.7,0,.7-.4,1.3-1.2,1.9l-2.6,1.5c-.6-.6-1.5-.7-2.9-.2-1.6.4-3,1.4-4.3,2.9-.2-.7-1.2-1.1-3.1-1.2l-4.4.2c-1.1-.8-3.1-.6-5.7.7-.2-.3-1.4-.3-3.5,0l-9.3,1c2.6,0,8.1.1,16.3.4l2.4-.7c1.4-.4,2.2-.4,2.6-.1-1.2.6-.2,1,2.9,1.2,3.1.2,5.6,0,7.6-.5.4.3.4.6.1.9,0,.3,1.3.8,3.9,1.5,1.2,1.1,1.8,2.2,1.6,3.4-.2,1-.9,1.9-2.1,2.6-1.1.7-2.5,1.2-4.2,1.4-1.7.2-3.4.1-4.9-.3l-2.1-1.1c-.7-.3-1.2-.5-1.6-.5-.9,0-1.7,1.4-2.6,4-.4-1.1-1.2-1.7-2.2-1.9-1.3-.2-2.7.5-4.2,1.9-2.7-1.2-4.4-1.3-5.2-.2-.3.4-.4.9-.4,1.4v.6c-.2.3-.6.7-.8,1.2,0-.7-.5-1.1-1.3-.9-.8.2-1.7.7-2.6,1.8-.2.4-.2.9,0,1.4.2.3.5.6.8.8-.4.5-1.2.7-2.4.5-1.6-.2-2.9-.7-4.1-1.5-1.1,1.8-1.9,2.4-2.4,1.9.2-1.7-.6-2.9-2.3-3.9-1.1-.6-2-.6-2.7-.2l-2.6.4h0l-2.6.3c-.9,0-1.6-.4-2.2-1.2-2.6-2.9-5.7-4.1-9.2-3.5l-2.7.4h-.5c0-.1-.1-.1-.1-.1-.6-1.2-1.3-1.9-2.1-2.2-.8-.2-1.6,0-2.3.7.7-1.8.3-2.3-1.4-1.6,0-1.6-.9-1.9-2.6-.9-.6-.7-1.2-.9-2.1-.4-.8.4-1,1.1-.6,1.9-1.1-.4-1.9-.3-2.2.3-.3.6-.2,1.1.3,1.4-.6,1-.3,1.6.9,1.9,1.2.3,2.2,0,2.9-.9.4-.6.9-.9,1.3-1.1h.8c.4,0,.6.2.7.4.1.2.1.4,0,.7,0,.6.4.9,1.3.7.9-.2,1.5-.4,1.9-.7.4,0,1.1.2,2.2.8.7.4,1.4.6,1.9.5-.6.2-.9.6-.7,1,.2.4.6.7,1.4.7,0,.1,0,.4,0,.9,0,.4-.4.6-1.1.5,0,.4-.2.9-.6,1.2-.4.4-.9.6-1.4.6-1.3-.9-3.2-1.3-5.9-1.2-1.2,0-1.9.2-2.2.5s-.2.9.7,1.6h-.7c-1.7-.6-3.4-.9-5.1-.8-1.8,0-2.8.6-3.1,1.6h-1c-1.1,0-1.7.6-2.1,1.9-.6-.3-1.1-.2-1.6,0-.2.2-.3.4-.4.6-1-.4-2.4-.4-4.1.2-2.6-.7-4.9-.7-7-.2-1.5.3-3.6,1.2-6.2,2.7-1.1,0-2.4.4-4,.9h-.4c0,.1,0,0,0,0l-5.5.4-4.6.3h-1.6c0-.1-1.2-.5-1.2-.5-2.9-.5-5.6-.6-8.1-.2l-2.9.7,7.2.6,9.9.7,1.3-.2c2.8.4,5.9.2,9.2-.4l2.2.4,4.9-.2,6.9-.9c3.6.7,6.2,1.2,7.9,1.4,2.7.2,4.8,0,6.2-1-.7.6-1.2,1-1.2,1.2-.1.2,0,.4.4.7-.7.4-1.1.8-.9,1.4,0,.4.5.9,1.2,1.2.7.3,1.4.5,2.1.4.5,0,.9-.2,1.3-.4.4.2.9.4,1.4.3.2.7.8,1,1.6,1.1.7,0,1.5-.1,2.2-.6l.4-.3c.7.7,1.4,1.4,2.1,1.9,1.4.9,2.5,1.1,3.3.4l.5-.4.9,1.2c.9,1.4.6,2-1.1,1.8-1.2-.4-2.2-.5-2.8-.1-1.4-1.2-2.9-1.6-4.2-.9-.6.2-.9.6-1.1,1.1,0,.3,0,.7,0,1.1-2-.2-3.7.2-5.2,1.2-.7.4-1.2.7-1.7.7-.8,0-1.9-.2-3.2-.9-1.1-.9-2.1-1.3-3.2-1.2-1.1.1-1.4.5-1,1.2-1.6-.9-2.9-.7-4.2.9.3-1.4,0-2.3-.7-2.7-.7-.3-1.2-.2-1.8.3-.5-.2-1-.4-1.6-.3-.7,0-1.3.4-1.7.9-.4.4-.6.9-.2,1.4.3.5,1.1.8,2.3.9-.4.5-.4.9-.2,1.3.2.4.6.6,1.1.6.6,0,1-.2,1.4-.5.4-.4.6-.9.6-1.6.2,1.1.4,1.7.7,1.9.1,0,.4,0,.7-.5.3.4.7.6,1.1.6.6,0,.7-.4.4-1.2,1.6,2.4,2.6,2.6,2.9.6.2.1.3.2.4.2h.1c.7.2,1.6,0,2.6-.6l5.9-.3c1.4-.9,2.2-1.4,2.4-1.4.4-.1.9.2,1.6.9l.2.4c.2.6.6,1.1,1.1,1.4.8.6,1.6.6,2.1.1l.4-.3.4.5h0c1.2,1.6,2.6,2.5,4.2,2.9,1.9.4,3.2-.3,3.7-2.1,2.5,1.1,4.2,1.1,5,0h0c0,0,.6,0,.6,0l1.6-.6c.8,0,1.4-.1,1.7-.6h1c.6-.1,1-.4,1.2-.9.8.4,1.5.6,2.1.2.6-.3.5-.8-.2-1.5.4.1.9,0,1.4-.2.5-.4.5-.7,0-1.1.8,0,1.2-.1,1.2-.6s-.4-.7-1.2-.6c-1.9-.8-2.9-.7-3.2.4l.2,1.1c0,.1.2.2.4.2-.9.9-1.6.9-2.1.2-.1-.2-.3,0-.6.9h0c-.2,0-.6,0-1,.2-.9-1.3-1.6-1.9-2.3-1.8,0-.9,0-2-.4-3.1-.6-1.6-1.4-1.9-2.5-.9.2-2.1-.5-3-2.1-2.8-.6.2-.7,0-.7-.3,0-.3.4-.7.9-1.1,1.3-1.1,2.2-.9,2.7.5,2.1,2.3,3.6,2,4.3-.8,1.4,1.1,2.6,1.6,3.2,1.6.9,0,1.4-.9,1.5-2.7.9.7,1.7.9,2.2.7.3-.1.7-.6,1.2-1.4.6.5,1.1.7,1.6.6.4,0,.9-.5,1.4-1.2.9-.5,1.7-.6,2.2-.2h.1c.3.3.7.7,1.2,1.4-.7,0-1.2.2-1.7.4-1.2.6-1,1.1.6,1.7-1.7.6-2.6,1.2-2.6,1.9-.1.6.3,1.1,1.3,1.6.9.4,1.9.6,3,.7.9,0,1.5,0,1.9-.4l.3-.3h0c.6-.5.8-1.2.8-2.4,0-.4,0-.6.2-.6.2,0,.7.1,1.4.6,1.4.8,2,1.5,1.8,2.1-.2.6-.8.7-1.9.3h-1.4c0,0-.6.2-.6.2l-.3.4c-.4.8.2,1.2,1.9,1.2s3.7-.2,4.6-.7c.4-.2.7-.5,1.1-.8,1.4,0,2.7.2,4.1.6.5.2,1.9.7,4.4,1.8,1.6.7,2.8,1,3.9.9,1.1,0,2.2-.6,3.4-1.4l3.1.5c1.6,0,3.1-.7,4.6-2.3,1.4-.9,3-1.4,4.9-1.4s2.8.2,5.2.7c2.3.4,4,.6,5.2.6,1.9,0,3.5-.6,4.8-1.7-.7,0-1.1-.4-1.2-1.4-.2-1.2-.9-1.6-2.1-.9-.4-.4-1-.6-1.7-.5-.7,0-.9.3-.6.9-.6,0-.9.2-.9.6-.1.4,0,.6.6.6v.4c-.1,0-1.8.1-1.8.1-1.3,0-2.6-.4-3.7-1.1-1.2-.6-2.4-1.1-3.6-1.3l-1.6-.2h0c-.7.6-1.2,1-1.5,1.1h-2.2c-.8.1-2.1,0-3.6-.4h-1.3c.4-.9.2-1.7-.3-2.6-.2-.3-.4-.5-.7-.6,0-.8-.2-1.2-.6-1.4-.3-.2-.6,0-.9.7-.1-.2-.4-.4-1-.4h-.2c0,0-.2,0-.2,0h-.2c-1.7-.8-2.8-1.4-3.2-1.7-1.1-.9-.9-1.9.5-3,1.1-.7,2-.9,2.6-.7.5.2.7.6.7,1.2,0-1.1.7-1.7,1.8-1.7h.6c1.2-1.1,2.4-1.7,3.4-1.6.8,0,2.1.6,3.8,1.4,1.9.6,3.7.8,5.2.7.8.8,1.6,1.4,2.1,1.8,1.2.8,2.2.9,2.8.2l.6.4c.2.3.5.4.7.5h.1c2.9,1.9,5.7,2.2,8.2.9,1.7-.7,3.7-1,6.1-.7,1.1.1,3.4.6,7,1.4,2.5.6,3.4.6,2.7,0-.7-.7-2.3-1.4-5-2.2-2.1-.6-3-.9-2.7-1.2l.6-.4c.2-.2.3-.4.1-.7,1.6.6,3.1.7,4.4.5,1.6-.2,2-1,1.3-2.2,1.2.4,2.4.6,3.5.4l.7-.2c1.1.8,1.9,1.2,2.7,1.3,1.2.1,1.7-.5,1.5-1.9.9.9,1.7,1.2,2.3,1,.6-.2.7-.7.5-1.4,1.1.4,3.1.8,6.1,1.1,3.3.3,5.7.3,7.1,0,2.7.2,6.9.4,12.5.4.8.9,1.6,1.2,2.2,1.1.7-.2.7-1,.2-2.3" fill="#a38917" fill-rule="evenodd"/>
  <path d="M19.9,253l-.6.6-1.6.4-1.3-.8c-.5.9-1.2,1.4-2.3,1.2s-1.7-.7-2.1-1.7h-6.9c.2,1.7-.1,2.7-.9,2.9-.7.1-1.6-.2-2.6-1.1-1-.9-1.5-1.7-1.6-2.4-.1-.9.5-1.2,1.9-1.2-1.9-.7-2.2-1.7-.9-3,1.3-1.3,2.7-1.7,4.4-1.3l.4,2.4c2.3-.6,3.4.1,3.2,2.3l8.7.4c-1.7-2.1-.1-3.1,4.6-3.2,4.6,0,7.3.4,8.2,1.1-1.1-2.2-.4-3.1,2.1-2.7.9.1,1.5.4,1.9.8.4.4.2.9-.6,1.4l4.4.4c.4-1.5,1.7-2.2,3.7-2.2l4.9.9c.9-2.3,2.3-2.5,4-.5.2-1.4,1-2.2,2.4-2.4,1-.1,1.7.1,2.1.8v1.4c0,0,.4,1.2.4,1.2-1,1.1-1.4,2.2-1.3,3.6l-14-.5c-2.6,1.1-4.8,1.7-6.7,2.1-3.2.6-4.9-.1-5.2-2.2h-3.1c0,0,0,1.3,0,1.3l-5.6.6v-.6M189.9,221.4l-.2,1.3c2.3,0,3.9,1.3,4.6,3.6.3.9.2,1.5,0,1.8l-1.9-.4c.4,2.4-.4,4.6-2.6,6.4-2.2,2-4.6,2.4-6.9,1.4-1.9-.9-2.5-2-1.6-3.4,1.2-2.1,1.7-3.5,1.4-4.4-5.4,2.9-7,1.2-4.8-4.8-1.6-.2-2.4-.7-2.2-1.3l.7-1.1c1.3-1.2,2.7-1.9,4.2-2.1,1.2,0,2.8.4,4.8,1.4,2.1,1.1,3.6,1.6,4.6,1.6ZM239.8,257.6c3.6-.2,5.8-1.9,6.7-5,1.5,3.4,3.7,4.7,6.5,4.1l1.4-.4c1.1.6,2.6.6,4.4,0,1.7-.6,2.8-1.3,3.4-2.4l.4-1.5c2.1,2.6,5,4.3,8.9,5.2l3.2.6h2.9c1.7,1,1.7,2,0,3h-.2c-1.9,1.1-3.4.8-4.5-.7,1.8,2.7,1.3,4.8-1.6,6.2-3,1.6-5.4,1.1-7.2-1.4-1.3,2.1-3.1,2.4-5.4,1-2.3-1.3-3.4-3.1-3.4-5.3-1.1,1.9-2.7,2.1-4.7.6l-2.2-1.9c-1.5,2.2-3.6,2.3-6.2.2l-2.4-2.4ZM221.6,182c-.4,1.9.4,2.9,2.4,3v.6c-.1,0-5.2-.6-5.2-.6l-1,1.6c-1.5,1.6-3.2,1.7-5,.3-1.4-1.1-1.9-2.6-1.4-4.6.5-1.9,1.7-2.7,3.6-2.1,0-1.6.7-2.4,2.3-2.3,1.4,0,2.6.7,3.4,1.9,1.3-2,2.5-2.1,3.6-.4.7,1.2.6,1.8-.5,2-1.4.2-2.2.5-2.2.7ZM714.7,219.5c0,3.1-1.2,5.6-3.6,7.4l-9.8,6.2c-3.9-.3-7.6,1.3-10.9,4.7-1.5,0-2.5,1.1-3,3.1v.6c-2,1.4-4.3,1.7-7,1.2-3.7-1.3-6.6-1.9-8.5-2-2.4,0-4.8.7-7.2,2.3-2.6,1.7-2.9,3.5-1.1,5.3v.4c-.4,1.9-1.8,2.6-4.5,2.2l-7.4-2.6-.6-.6.6-.9c.4-1,.3-2.1-.4-3.2l.3-.9,1.1.4c4.4,1,6.5-.6,6.4-4.9,0-1.6-.8-2.6-2.2-2.9-1.6-.3-2.4-1.1-2.6-2.4-.3-2.3,1.7-3.8,6.1-4.4h2.9c-.7-.9-1.3-2-1.7-3.2-1.1-3.2-.4-6.2,1.9-9,3.1-3.7,9-4.9,17.6-3.7,3.3.5,6.5.6,9.5.2l4.4-1.1-.4,1.4c-.3,2.4.4,4.6,2.4,6.4,1.9,1.8,4.1,2.6,6.5,2.3,1.9-.2,3.4-1.3,4.4-3.4,1.1-2.1.6-3.6-1.6-4.4,1.4-.6,2.7-.7,4.2-.6,2.8.5,4.1,2.5,4.1,6.1ZM768.3,173.8c1.2.1,2.1.4,2.7.9.9-.6,2.2-1.6,3.6-3.1,2.2-2.2,4.2-2.6,6.1-1.2,2.1-2,4.9-1.8,8.3.5,1.1.7,1.8,1.6,2.3,2.6l2.8-.6c2.9-.3,4.2.9,3.8,3.6.6-1.5,1.6-2.2,3-2.2s2.5.5,3.8,1.5c3.2,2.7,3.6,5.3.9,7.7-1.3,1.2-2.8,1.4-4.6.6l-1.2-.8h-.2c0,0-1.8,1.2-1.8,1.2-1,.1-1.7-.1-2.2-.8v-.2c-.1,0-1.1,1.3-1.1,1.3-.7,1.4-1.4,2.2-2.1,2.5l-3.4-.2c-1.1-.6-1.7-1.5-1.7-2.8-.4,1.2-1.5,1.7-3.4,1.5-1.9-.2-3.1-1-3.4-2.2.8-1.4.7-2.4-.3-3.2l-.8-.2-.6,1.6h0c-1.1,1.6-2.4,2.2-3.8,1.9-1.4-1.1-2.6-1.7-3.6-1.7l-2.1.2c-.8,0-1.4-.4-1.7-1.3.6-1.6.7-2.7.2-3.5h-3.5c0-.1-1.3,1-1.3,1h-1.9c-1.1-.8-1.6-1.5-1.5-2.1l.2.2c1,.7,1.8.4,2.4-.9.6.7,1.2.8,1.9.5l.6-.4.3-1h.2c.4-.7,1.2-.9,2.3-.9h.7ZM570.1,16.2c-1.6,2.1,0,4,4.5,5.6-.6.1-.9.4-1.1.9-.1.6.2,1.1,1.1,1.6-3-.8-4.5,0-4.5,2.6s1.2,3.8,3.7,3.7c1.5.2,2.2,1.4,2.2,3.8s-1,3.1-2.9,2.6c0,1.1-.7,1.9-2,2.7-1.4.7-2.6.6-3.7-.4l-3.3-.2c-.6,0-1.2-.7-2.1-2.2l-2.6-4.3c-2.9-3.7-6.6-4-11.2-.9l-4.1,2.8h0c-1.3.6-2.5.9-3.6.9-2.4,0-3.8-1.6-4-4.6-2.1.1-3.7-.6-5.2-2.2-1.9-2.2-.6-4.9,3.7-8-3.5-1-5.7-2.8-6.5-5.4-.7-2.4-.2-4.7,1.5-7.1,1.7-2.4,4.2-4.1,7.2-4.8l7.4.2,6.2-.2c.3-1.4,1.7-2.6,4.1-3.2,2.5-.7,4.6-.5,6.1.7,2.9,1.7,4.6,4.4,4.9,7.8.3,2.9,1.6,5.4,3.9,7.4Z" fill="#efeab8" fill-rule="evenodd"/>
  <path d="M564.6,212.1l-.6.7.4.2.2-.9M595.7,210.9v.2c.1,0,0,0,0,0h0c-1.6-.2-2.5-.5-2.7-1.1.5-.9,1.1-1.2,1.6-.9.6.3.9.9,1.1,1.7ZM55.9,248.7q.2,0,0,0h0ZM71.2,252.2l-.3-.2.2-.6v.9ZM93.5,233.8h0v1.2-1.2ZM142.3,250.9h1.7c-1.2-.2-1.7-.7-1.7-1.4v1.4ZM405.2,231.3c3.5.7,5.5,2.4,6.1,5.1v1.1c-2.7-.2-4.5-1.2-5.4-3.2-.6-.9-.7-1.9-.6-2.9ZM437.9,190.4h0q0-.3,0,0h0ZM478.5,142.7l22.8-4.4c10.1-1,20.5.4,31.3,4.4,14.2,7.5,24.6,12.2,31.1,14l7.8,2c1.1.4,1.8.9,2.4,1.5.5.6.7,1.4.7,2.2,0,1.9-.6,3.2-1.6,4.1-1.1.6-3.3,1.2-6.7,1.6-4.7,1.4-7.8,2.7-9.1,3.9-1.6,1.4-1.5,3.1.4,4.9,8.7,4.6,14.5,8.4,17.5,11.4,2.6,1.7,6.1,3.6,10.8,5.9,1.1.7,2.1,1.3,3,1.9l2-.2,4.5.6c4.1,1.1,5.3,2.9,3.5,5.4.7-.9,2.1-1.6,3.9-1.9,2.1-.3,3.5.2,4.4,1.4.8,1.1.9,2.3.2,3.7l-.2.4c1.1.6,1.1,1.9.2,3.9-1,2.2-2.4,2.9-4.2,2,0,.9-.3,1.7-.9,2.5.4.2.9.5,1.4.9,2.1,1.8,2.3,3.6.7,5.4-1.7,2.4-3.9,3.4-6.7,2.9l-14.8-1.1c-10.8,4.7-20.9,8.7-30.3,12.2l-10.6,6.2c-4.8,2.3-10.8,4.1-17.8,5.2-4.2,2-10.7,3.3-19.3,3.9-5.2.4-17.2.7-35.8.9-7.9-.6-14.1-.6-18.5.2l-.3-1.4,7.1-1.1,38.5-3.4c13.2.3,23.4-1.7,30.5-6.1l9.3-6.7c3.1-2.3,6.2-4.2,9.4-5.9h3.5c2.4,0,3.6-.6,3.6-1.9l1.9-.7c1.7-1.1,2.2-2.5,1.4-4.2-.5-1.2-1.6-1.6-3.3-1.3l-4.1,1.1c-4.3.6-7.1,0-8.4-1.8-1-1.6-1.1-3-.4-4.3.8-1.3,2.1-2,3.9-1.9v-1.2c-5.8,1.2-9.4.7-10.7-1.4-1.4-2.2-1.2-3.9.7-5.1l5.7-.2c-.9-2.6,0-4.4,2.9-5.5,2.6-1,5-1,7.2,0,2.2,1,3.5,2.6,3.9,4.9v1.1l.2-.2,1-1.3,2.5-3.7c1.1-1.2,2.4-1.6,4.1-1.4,3.6.6,5.1,2.6,4.4,6.1.8-3.4,3.1-4.3,7.1-2.9,1.9.7,3.2,1.7,3.9,3.1.6,1.3.6,2.9,0,4.8-.9,2.8-3.2,4.6-6.9,5.2l-2.2.3,2,.7h3c4.4-1.6,6.5-4.3,6.4-8.1,0-1.2-.3-2.4-.9-3.6-1.1-2.2-3.2-4.4-6.2-6.6l-11.3-7.4c-4.1-2.4-7.4-4.6-9.9-6.2-4.6-3.2-7.1-5.9-7.2-8.1-.2-2.6,2.5-4.6,7.9-5.9,2.3-.6,3.7-1.1,4.4-1.7.9-.9.6-2.4-.8-4.2,2.4-.5,2.6-1.6.4-3.1-1.9-1.4-3.6-2.2-5.2-2.6l-10.9-1.3-5.4-.7-4.7-2.6c-1.6-.8-3.6-1.1-6.1-.8.8,1.2,1.1,2.6,1,4.1,0,2.1-.9,3.9-2.4,5.4-1.6,1.6-3.2,2.4-5,2.4-2,0-3.7-1.2-5-3.4v-.7c1.1-.4,1.7-1.2,1.6-2.1,0-1-.7-1.9-2.2-2.8-1.4-.9-2.6-1.2-3.7-.7-1.2.4-1.7,1.8-1.6,4-.9-2.1-2.2-1.9-3.9.6-1.4-1.7-3.7-1.9-6.6-.9-3.2,1.1-6,2.9-8.2,5.4-1.9,2.1-5,3.2-9,3.4-5.3.2-8.8.7-10.4,1.3v2.1c1.4.6,3.3,1,5.6,1.2l13,.9c5.4.7,9.3,2.4,11.6,5,1.3,1.6,2,3.7,1.9,6.3-.1,2.5-.8,4.6-2.1,6.4-2.2,3.3-6.6,4.4-13,3.4l-13.5-.6c-2.4.4-4.1,1.5-4.8,3.1-.7,2.2-1.6,3.9-2.5,5.2-1.8,2.5-5.1,3-9.8,1.6-3.2-1.1-5.6-2.4-7.1-4l-1.4-2.4-1.4-.2v.2c-1.2.2-1.7.7-1.7,1.8-.1,1.4.5,2.6,1.8,3.7,3.2,3,6.7,4.9,10.4,5.8,2.4.5,5.4-.1,9.1-1.9l8.6-4.6c4.9-2.1,9.1-3,12.7-2.6l5.6.9c2.1.4,4.1.4,5.8,0,5-1.2,8.5-1.4,10.7-.9,3.2.8,5.1,1.8,5.4,3,.5,1.3.4,2.1-.2,2.1l-2.4.5-2.7.9c-1,.4-1.3,1.2-.9,2.6.1.4,1.7,1.1,4.9,2.2l4.9,1.3c1.9.8,2.9,1.9,2.9,3.5.1,1.9-.9,2.6-2.9,2.2l-5.4-.6c-1.8.7-2.8,2.1-3,3.9-.1,1.3.2,2.4,1.1,3.2-1.3-.6-2.6-.1-3.9,1.3-1.7,1.9-1.9,3.7-.9,5.7.6.9,1.4,1.6,2.5,1.9-1.9,3.1-5.2,4.6-9.7,4.6l-5.2-1.2c-2.3-.8-4.1-1.2-5.3-1-1,.1-1.9.6-2.8,1.4l-2.4,1.7h-5.3c0,0-6.6-1-6.6-1h-.6c0,.1.3.4.3.4,1.7,1.4,1.2,3-1.7,4.6-3.1,1.7-5.7,2.6-8.1,2.5l-16.2-1.7c-9.2-.5-17.7.9-25.5,4.2-4.5,1.9-7.6,4.1-9.3,6.5-.7,1.1-1.3,2.6-1.7,4.8-.4,2.2-.9,3.8-1.5,4.7-.6.9-3.2,2.7-7.8,5.4-2.3,1.3-3.7,3-4.3,5.1l-3.2-.2c-5.4-.6-8.4-2.7-8.9-6.4-.6-3.3.5-7.1,3.1-11.1,2.6-4.1,5.2-5.6,8.2-4.6-3.2-1.7-4.3-4.6-3.2-8.8,1.1-4.3,3.2-7.3,6.4-8.9,2.7-1.3,5.9-1.8,9.7-1.4l1.1.2c.1-1.7,1.1-3.3,2.9-4.9,2.4-2.1,5.1-3.2,8-3.7,1.4-.2,4.2-.2,8.2,0l8.1-.6c2.4-.6,5.1-2.2,7.8-4.7,3.3-3.1,3.4-5.2.2-6.4,1.6.3,3,.1,4.2-.6,1.2-.7,1.6-1.9,1.2-3.6-.3-1.2-2.3-2.6-6-4.1-3.8-1.4-6.1-3.2-6.7-5.3l.3-3.3c0-.9-.6-1.3-1.7-1.4-1.5,3.7-3.9,5.2-7.3,4.6-1.6-.2-2.6-.8-3.2-1.7l-.6-1.1-.4.7-2.2-1.9c-.6-.7-1.1-1.7-1.5-3.1-.1-.6-1-.8-2.6-.8l-3.6.2-3.9-.9-2.6-1.1c-17,1-29.1,1.3-36.3.9l-22.3-1.3c-4,1.1-6.6,2.1-7.7,2.9-2.1,1.2-3,3.1-2.8,5.4.2,2.5,1.8,4.4,4.9,5.6,2.9,1.2,4.9,1.1,6.1-.4,1.6-.4,3,.4,4.3,2.4,1.2,2,.6,2.8-1.7,2.4-1.8-.3-2.6,0-2.4.9.1,1.2-.2,2-1.1,2.2,3.1,1.4,5.2.9,6.6-1.3.8-1.1,1.8-1.4,2.9-1.2,1.1.2,1.1.7.1,1.6,1.1,1.1,1.2,2.8.3,5.1-.9,2.2-2.5,2.6-4.7,1-.5,1.7-2.4,2.1-5.9,1.4-3.4-.7-4.9-2.6-4.2-5.8-.3-.7-1-.9-2.2-.6-1.4.3-2.6,0-3.6-.7-2.5.4-4.2-.1-5.1-1.6-.9-1.4-.9-3-.2-4.9-2,1.2-3.7.7-5.2-1.3-1.7.2-2.7-.3-2.7-1.5,0-.6.1-1.1.4-1.6-1.3-.6-1.7-1.7-1.2-3.5l3.4-.6c-.4-1.6-2.9-2.3-7.5-2.1-3.4.2-6.4.7-9.1,1.4l-4.8,1.4-4.9.2c-1.2-.4-.8-.9,1-1.5,2.3-.7,3.4-1.3,3.4-1.9h-3c.2-1.1.4-1.9.7-2.4h-7.1c-11.7.4-18.8,1.3-21.3,2.9-3.9,2.4-6.1,3.9-6.6,4.5-1.2,1.4-.3,2.7,2.6,3.9,4,4.6,6.3,7,6.9,7.4,1.8,1.1,4.4.2,7.6-2.6,3.2-2.8,6.4-3.5,9.5-2.1,2.8,1.2,4.6,3.2,5.4,6.1,2.4,2.2,4.2,4.6,5.2,7.1,1.1,2.6.9,4.3-.4,5.2l12.1-.4c1.1.7,1.8,1.4,2.2,2.3.4.8.2,1.3-.3,1.6,1.3.9,1.8,2.7,1.4,5.4-.3,2.7-1.2,4.4-2.7,5.1,2.9,1.8,4.4,3.8,4.2,6-.1,1.7-1.1,3.2-2.9,4.6-1.1,1.9-3.1,3.2-5.9,4l-3.2.4c0,1.4-1.1,2.6-3.2,3.6,1.2,1.7.6,3.5-1.8,5.5-2.3,1.9-5.3,3.2-9.1,4.1-6.4,1.4-11.3.9-14.6-1.6,1.8-1,1.9-2,.1-3h-2.9l-3.2-.5c-3.9-.9-6.9-2.7-8.9-5.3l-.4,1.5c-.7,1.1-1.8,1.9-3.4,2.4-1.8.6-3.3.6-4.4,0l-.8-.4-.6.9c-2.8.7-4.9-.7-6.5-4.1-.9,3.1-3.2,4.8-6.7,5h-.1c-3.9.2-6.4-1.8-7.6-5.9-4.6,2.4-8.1,3.1-10.4,2.1-1.9-.8-2.9-2.6-2.8-5.2l-1.3-.2c-29.6,1-49.9,1.5-60.9,1.5s-10.8.3-10.1.9c.3.4,2.6,1.1,6.6,2.2l-25.4,1.3c1.1,1.2,1.1,2.4.2,3.4-1.3,1.7-2,2.7-2,3.2,1.9,2.3,2,4.3.2,5.9l-6.7.2c-.6,2.1-1.7,3.7-3.6,4.7-2.2,1.2-4.1.7-5.6-1.2-2.2-.3-3.5-1.6-3.8-4.1-.6-2.7.9-5.5,4.2-8.2-2.9-1.5-3.4-3-1.6-4.6.9-.8,2.3-1.3,4.1-1.6h-25.8l.2,1.2c-.1,1.4-1.1,2.6-2.7,3.7-1.7,1.1-3.4,1.4-5.2,1.2-1.9-.2-3.4-1.1-4.2-2.9-.6,3.7-3.2,5.7-8.1,5.7-1.9,0-3.4-.2-4.6-.9-1.3-.7-1.7-1.6-1.4-2.6-2.3,1.6-4.3,1-5.9-1.9-.7-1.2-1.1-2.3-1.1-3.4,0-1.4.4-2.6,1.3-3.6l-.4-1.2c0-.4,0-.9.1-1.4.2-.7.6-1.6,1.1-2.4,1.2-1.8,2.7-3,4.4-3.6,1.2-.4,3.2-.5,6.3,0,.6-1.6,2.1-2.6,4.7-3,3.8-.7,6.8,0,8.9,2.1-.8-.9-.9-1.9-.4-3.2.6-1.2,1.6-2.2,3.2-3.1,4-2.2,6.6-1.5,7.9,2.2l.8-1.2h1.1c0-1.9,1-3.4,2.8-4.4,1.2-.6,2.3-.7,3.4-.4-.3-.7-.4-1.4-.2-2l.6-.8c-1.2-.2-2-1-2.6-2.4-.9-2.4-.4-4.6,1.5-6.7,1.5-1.7,3.7-2.7,6.8-3,3.2-.3,5.2.4,5.8,2.2l2.1-.9c-2.4-.8-2.4-2.1,0-3.8,2.3-1.6,4.4-2.3,6.2-2,3.6.7,5.2,3,5.1,6.8,1-.8,2.5-.9,4.6-.5,2.4.6,2.9,1.7,1.5,3.4,3.1.4,4.7,1.9,4.8,4.6l39.7-2.4c-.2.6.6,1.1,2.2,1.3-2.2,6.1-.6,7.7,4.8,4.8.3.9-.2,2.4-1.5,4.5-.9,1.4-.3,2.5,1.7,3.4,2.3,1.1,4.6.6,6.8-1.4,2.2-1.9,3.1-4,2.7-6.4.9.7,1.5.8,1.9.5.4-.4.4-1,.1-1.9-.7-2.3-2.2-3.6-4.6-3.6l.2-1.3h.1l-.8-2.1,3.7.9c1.4.4,2.1-.2,2.3-1.7l-2.1-.4.4-1.7c1.2.2,2.1,0,2.4-.9.4-.8.4-1.7-.1-2.9-1.4-2.9-3.9-4-7.6-3.3l-4.1,1.2c-1.5.3-2.8-.1-3.9-1.2-.5-.4-.9-1.5-1.3-3.1h0c-1.6-.3-2.4-1.4-2.6-3.4-.3-2.2,1-3.2,3.9-3.3,2.9,0,4.2.9,4,2.9-.9,3.2,2.2,4.3,9.6,3.5,3.4-.3,5.4.7,6,3.1.2.9.1,3.2-.3,7.1-.3,2.1,2,3.7,6.9,4.8l9.1,1.1c.2-.7.6-1.4,1.3-2.1,1.3-1.5,2.9-2.4,5-2.6,2.1-.2,4.4.4,6.9,1.7l3.8,2.1c-.5-1.2,0-2.4,1.5-3.6,1.6-1.2,3.5-2.2,5.9-2.8l-.4-.7c-.7-1.4-.5-3.4.7-5.9,3.8-2.4,6.3-2.2,7.5.7v-1.6c1.4-.2,2.8.3,4,1.5,1.3,1.3,2.4,2,3.4,2,1.9,0,2.8-.6,2.8-2.1,0-.9-.4-1.6-.8-2.2-.8.9-1.9,1.1-3.3.2v-1c-.4.9-1.4.7-3-.7l-1.7-2.2v-.6c-2.7-.7-3.2-2.3-1.6-4.7,1.1-1.8,2.7-3.6,5-5.2-1.3-1-2.2-1.6-2.7-1.7l1.3-1.2-9.4-.7-8.9-1-9.1-1.8v-.6c0,0,5-.1,5-.1l4.4.7,4.9-.8,5.6,1.1c2.1.4,3.9.2,5.3-.7,0-1.6-.7-2.7-2.2-3.4l1-1.7c1.2-.3,2.4-.2,3.3.5l-.4-1.6c-.2-1.3.1-2.3.9-3l4.4-.3.3-.2c.3-.2.8-.4,1.5-.6l3.7-1-.4-.2c-.8-.7-.6-1.6.6-2.7-.9.4-1.7.3-2.4-.4l-1.4-.5c-2.1-.9-2.5-2.2-1.4-3.9h1.2c-.3-1.1,0-1.7.9-2l.4-.2-.4-.4c-.6,1.1-1.5,1.2-2.6.4-1.1-.8-1.6-1.8-1.3-3-1.3-.6-.6-1.3,2.2-2.1,2.7-.7,5.3-.2,7.8,1.2-1.4-.9-1.6-1.8-.7-2.7.7-.9,1.4-1.2,2.1-.8-1-1.3-.5-2.3,1.5-3,1.9-.6,3.7-.2,5.1,1.2,3.3-2,4.8,0,4.4,6.1.5-1.1,1.4-1.6,2.6-1.5,1.2,0,1.5,1,.9,2.8.7-1.6,2.1-2.1,3.9-1.6,1.6.5,2.9,1.7,3.9,3.5v1.3c7.2-.8,23.7-1.1,49.4-.8,22.8.3,38.8.6,47.9,1.1h.6c0,.1,3.7,4.2,3.7,4.2,1.4,1.4,3.2,2.6,5.4,3.2l5.9,1.8.7.4c1.3.7,2.3,1.7,3,3.1l.9,1.9-.7.3h.9c0-.1.2-.1.2-.1,1.4,0,2.2.7,2.6,2.1.7-3.2,2.6-4.7,5.7-4.7.9,0,1.7.4,2.4.8l.8-2c.9-2.1,2.2-3.4,4.2-4.1,2.2-.7,4.2-.4,6.1.8,1.7,1.1,2.7,2.6,3.1,4.4-.2-4.5,2.1-7.6,6.9-9.4,3.9-1.5,6.6-.9,8.1,1.9l.4.7v-.6c0,0,.2-.4.2-.4.4-1.9,1.1-3,2.1-3.2-.3-.4-.4-.8-.4-1.4-.1-1.2.5-2.6,1.9-3.9,1.3-1.4,2.7-2.1,4.2-2.1l1.7.4.8.5h-.1c0,0-.6-.7-.6-.7-1-1.2-1.2-2.7-.6-4.7-2.4,1.8-4.7,2.2-7,1.4-2.6-.9-3.5-2.9-2.9-6.1.4-2.7,2.6-4.5,6.8-5.3h4c.1-.6.5-1.5,1.1-2.5,1.7-2.9,3.8-4.7,6.2-5.1,3.2-.6,6.4-.3,9.6.9,1.9.8,3.2,1.8,4.1,3l.8,1.6Z" fill="#e0d47f" fill-rule="evenodd"/>
  <path d="M288.6,165.2v-1.3c5.6-1.3,13.5-2,23.6-2,7.6-.8,26-1.2,55.4-1.2s9.9.4,13,1.4c2.1.5,3.8,1.5,5.4,3.1v.4c-9.1-.4-25.1-.7-47.9-1.1-25.8-.3-42.3,0-49.4.7M549.3,223.3c.4-.3.7,0,1,.7l-1-.7ZM478.4,142.7l22.8-4.4c10.1-.9,20.6.5,31.4,4.4,14.2,7.4,24.5,12.1,31.1,14l7.8,2.1,2.4,1.4c.6.7.8,1.4.8,2.2,0,1.9-.6,3.2-1.7,4-1.1.7-3.2,1.2-6.6,1.7-4.7,1.4-7.8,2.7-9.1,3.9-1.7,1.4-1.6,3,.3,4.9,8.7,4.6,14.5,8.4,17.5,11.4l10.8,5.9,2.9,1.9,2.1-.3-6.2-3.6c-2.7-1.3-6.2-3.7-10.6-7.4-3.9-3.2-7.7-5.4-11.3-6.7-4.2-2.1-5.5-3.9-3.8-5.5,1.4-1.4,5.1-2.6,10.9-3.2l5.2-1.5c.8-.6,1.1-1.9.9-4.2-.2-1.8-.6-3.2-1.3-4.1l-1.1-1.2c-1.7-1.2-5.7-2.5-12-3.9-2.8-.4-5.4-1.4-7.8-2.7-3.4-2-6.6-3.6-9.7-4.7-.6-1.7-4.9-3.9-12.7-6.6-5.5-2.6-13.1-3.7-22.8-3.6-9.6.1-19.8,1.5-30.8,4.2l.7,1.6ZM477.2,165.9c4.1-.2,7.1-1.4,9-3.4,2.3-2.5,5.1-4.3,8.2-5.4,3-1.1,5.2-.7,6.7.9l-.2.2c-1.7,2.6-1.9,4.9-.4,6.9,1.9,2.4,4.1,2.7,6.7,1.2,2.5-1.6,3.7-3.7,3.6-6.4,1.4,2.2,3.1,3.4,5,3.4,1.8,0,3.5-.8,5-2.4,1.6-1.6,2.3-3.4,2.4-5.4.1-1.6-.2-2.9-.9-4.1,2.4-.3,4.4,0,6.1.7l4.7,2.6,5.3.7c2.6-.2,6.2.2,11,1.3,1.6.4,3.3,1.2,5.2,2.6,2.2,1.6,2.1,2.6-.4,3.2,1.4,1.8,1.7,3.2.8,4.2-.7.6-2.1,1.2-4.4,1.7-5.4,1.3-8.1,3.2-7.9,5.9.2,2.3,2.6,5,7.2,8.2l9.9,6.2c1.9,1.4,5.7,3.9,11.3,7.4,3,2.2,5.1,4.4,6.1,6.6l-1.2.6c-.7-1.3-2-2.4-4-3.1-3.9-1.4-6.2-.5-7,2.9.7-3.6-.7-5.6-4.4-6.1-1.7-.2-3.1.2-4.1,1.4l-2.6,3.8-1.2.3c-.4-2.3-1.7-3.9-3.9-4.9-2.2-1.1-4.6-1.1-7.2-.1-2.8,1.1-3.8,2.9-2.9,5.6l-5.7.2c-1.9,1.2-2.2,2.9-.8,5.1,1.4,2.1,5,2.6,10.8,1.4v1.2c-1.9,0-3.2.6-3.9,1.9-.7,1.4-.6,2.8.4,4.3,1.3,1.8,4.1,2.4,8.4,1.9l4.1-1.1c1.7-.3,2.7.1,3.3,1.3.7,1.7.2,3.1-1.5,4.2l-1.9.7c.1,1.4-1.1,2-3.5,1.9h-3.5c-3.2,1.7-6.3,3.6-9.4,5.9l-9.3,6.7c-7.1,4.4-17.2,6.5-30.5,6.1l-38.4,3.4-7.1,1.1c-7.9,1.6-14.2,3.9-18.8,6.9-6.7,4.6-9.8,9.1-9.2,13.5.4,4.1,4.1,6.4,11,6.9-.7,1.8,0,3.4,1.8,4.6l1.6.8v.2c-1,1.3-2.6,1.9-4.7,1.9-2.6,0-5-.9-7.1-2.5l-1.2,1.6c-.8,3.2-3.4,5.3-7.7,6.1-5.4.9-8.4-.9-9-5.6-2.2,2.8-5.2,2.7-9.1-.3-3.5-2.8-5.4-5.5-5.6-8.1-.1-1.1,0-2.1.2-3.1.6-2.1,2-3.8,4.3-5.1,4.6-2.7,7.2-4.5,7.8-5.4.6-.9,1.1-2.4,1.4-4.6.4-2.2,1-3.8,1.8-4.9,1.7-2.4,4.7-4.5,9.2-6.4,7.8-3.3,16.3-4.7,25.5-4.2l16.1,1.7c2.4,0,5.1-.7,8.2-2.4,2.9-1.6,3.5-3.2,1.7-4.7l.2-.3,6.6.9h5.4c0,0,2.4-1.7,2.4-1.7.9-.8,1.8-1.2,2.8-1.4,1.2-.2,2.9.1,5.2.9l5.2,1.2c4.6,0,7.8-1.6,9.7-4.7-1.1-.3-1.9-.9-2.4-1.9-1.1-1.9-.8-3.9.9-5.7,1.3-1.4,2.6-1.8,3.9-1.3-.9-.8-1.2-1.9-1.2-3.2.2-1.9,1.2-3.2,3-3.9l5.4.6c2.1.4,3.1-.3,3-2.2,0-1.6-1.1-2.7-3-3.5l-4.8-1.3c-3.2-1.1-4.8-1.8-4.9-2.2-.4-1.3,0-2.1.9-2.6l2.7-1,2.4-.5c.6,0,.7-.7.2-2.1-.4-1.2-2.2-2.1-5.4-2.9-2.2-.6-5.7-.3-10.8.9-1.7.3-3.7.3-5.7,0l-5.6-1c-3.6-.3-7.8.6-12.7,2.6l-8.5,4.6c-3.7,1.8-6.7,2.5-9.1,1.9-3.7-.9-7.2-2.8-10.4-5.8-1.3-1.1-1.9-2.2-1.8-3.6,0-1.1.5-1.7,1.6-1.9h1.5c.3.8.7,1.6,1.4,2.4,1.4,1.6,3.8,3,7.1,4.1,4.7,1.4,8,.9,9.8-1.6.9-1.3,1.7-3,2.4-5.2.8-1.6,2.4-2.6,4.9-3.1l13.5.6c6.4,1.1,10.7,0,13-3.3,1.2-1.7,1.9-3.9,2-6.4,0-2.6-.6-4.7-1.9-6.3-2.2-2.6-6.1-4.3-11.5-5l-13-.9-5.6-1.2v-2.1c1.6-.7,5.1-1.1,10.4-1.3Z" fill="#cebd51" fill-rule="evenodd"/>
  <path d="M405.9,234.3c-.5-1-.7-2-.6-3,3.6.7,5.6,2.4,6.1,5.2v1c-2.7-.2-4.5-1.2-5.4-3.2M505.1,305.7l.5.9-1,.3c-1.1.2-1.9,0-2.7-.7-.4-.4-.2-.9.8-1.4.9-.4,1.7-.1,2.4,1ZM641.4,254.5l.4.2-1.1,2.1c-1.6,2.6-1.9,4.8-.7,6.7l8.3-.3c1.6-1.2,2.3-2.4,2.1-3.9l.3-.2,2.1,3.5c1.2,1.4,3.1,2.1,5.7,2v.4c1.6-.3,2.9,0,4.1,1.2,2.1,2.1,2.2,5.6.4,10.5-1.3,3.7-3.4,6-6.4,7.1-2.9,1.1-6.1.7-9.6-1l-6.5-3.7-2.4-1.3c-3.4-1.7-6.7-2.4-10.2-1.9-4.7.6-7.5,2.2-8.5,4.9-.7,1.7-.6,3.3.2,4.6l1.1,1.1c-2.2.4-4.1,2.1-5.9,4.9-1.2,1.8-1.9,3.5-2.2,5.1l-2.1-1.3c-2.9-1.7-6.2-2.2-9.8-1.7-8.7,1.2-13.9,6.8-15.6,16.7-8.2-.7-15,.2-20.7,2.9-.6,1.8-1.9,2.6-4.1,2.2h-.4c-2.3-.6-3.4-1.9-3.3-4.1h-3.4c0,.1-.6-1.4-.6-1.4-.4,2.1-2.5,3.1-6.1,3.1-3.6-.1-6.1-1.1-7.6-2.7-.9-.2-1.7.2-2.4,1.1,2.9,1.2,3.9,3.4,3.1,6.5-.8,3.1-2.6,5.3-5.4,6.5-1.8.7-4.3.6-7.5-.6l-2.6-.9c-.9.7-2.2,1.1-3.9,1.1-2.9,0-5.2-1.2-6.9-3.4-.7,1.8-2.4,2.7-5.2,2.6-2.9-.1-5.6-1.2-7.9-3.4-1.8,1.6-4.4,2.2-7.9,1.9-3.7-.3-6.6-1.5-8.7-3.7l-3-3.7-1.1-.4-1.9,2.2c-1.8,1.4-4.1,2.1-6.8,2.2-7.1.4-10.9-2.1-11.4-7.3-.6-4.3,1.6-7.7,6.6-10.2,4.2-2.2,7.9-2.5,11.2-1.1-.9-.7-1.1-1.6-.3-2.5.9-1.2,2.2-1.9,4.1-2.1l5.9.4c2.2,0,4-.7,5.5-2.2,3.1-3.2,2.4-5.7-1.8-7.6-3.3-1.4-6.1-1.4-8.2,0l-2-.2c-2.5.2-4.6,1-6.2,2.6l-4.5,4.2c-1.7,1.2-3.7,1.4-5.9.7-2-.7-3.8-2.1-5.4-4-1.1-1.2-1.9-2.4-2.3-3.6-5.1,2.6-8.6,2-10.6-1.7.2,2.9-1.2,4-4.4,3.2-2.7-.6-4.1-2.1-4.3-4.4l.2-.2h-.2c0,0-1.6-.9-1.6-.9-1.9-1.2-2.5-2.7-1.9-4.6-6.9-.6-10.5-2.9-11-6.9-.6-4.4,2.5-9,9.3-13.5,4.6-3,10.9-5.3,18.8-6.9l.4,1.4c-4.4.8-8.9,2.6-13.5,5.5-8.4,3.8-12.3,7.7-11.5,11.9.6,3.2,3.5,5.4,8.8,6.4l.4-.5c3.5-4.2,8.5-5,15-2.3.3-1,1.2-2.1,2.6-3.4,3.4-3.3,6.5-5,9.3-5.1,3.6-.1,6.6.5,9.2,1.8l4.5,3.4,2.5,1.5.2-1.2c.3-1.6,1.1-2.9,2.6-4.1,1.7-1.6,4.6-2.2,8.7-1.8,3.9.3,6.8,1.7,8.7,4.3l1.9,3.5c.7.9,1.4,1.1,2,.5v-.9c.4-3.9,3.5-4.9,9.2-2.9v.3c0,0,.2-.3.2-.3,1.2-1.4,3.2-1.8,6.1-1.4,2.2.3,3.6,1.1,4.1,2.4.8-.6,2.2-.7,4.2-.6,1.9.1,3.4,1,4.3,2.6.9,1.6,1.1,3.5.6,5.7-1.4,5.6-5.9,10-13.6,13.2-6.7,3.6-9.2,7.1-7.6,10.6.7,1.3,1.9,2.3,3.6,2.9l3.7.4c-.5-.9-.7-1.7-.6-2.6.2-1.3,1.1-2.4,2.6-3.1,3.9-1.8,9.4-.9,16.7,2.7-.7-2.6.5-4.5,3.7-5.9,3.6-1.5,7.9-1.1,12.9,1.1-1.7-1.7-1.4-3.5,1.2-5.2,2.6-1.8,5.9-1.8,9.7,0,3.4,2.3,6.4,3.4,8.9,3.4,2.7,0,5.6-1.1,8.6-3.4,3.1,1.6,5.9,1.1,8.5-1.5,1.6-1.6,2.5-3.2,2.8-5-1.4,1.4-3.4,1.4-6.1,0-3.9-2.2-5.1-5.5-3.4-9.8,2.2-5.9,7.3-7.9,15.2-6,2.9.7,7.4,3.6,13.4,8.7,5.2,3.4,9.4,2.2,12.5-3.4,2.1.8,3.9.6,5.6-.9,1.6-1.4,2.4-3.1,2.4-5.3-1.1-.4-2-1.1-2.7-2.1-.9-1.4-1.1-3.2-.4-5.4.7-2.1,1.7-3.7,3-4.7,1.4-1.1,3.2-1.2,5.4-.5l4.8.6ZM646.9,235c.7-7.5,5.6-10.7,14.7-9.7.4,1.2,1,2.3,1.7,3.2h-2.9c-4.4.6-6.4,2.1-6.1,4.4.2,1.2,1.1,2.1,2.6,2.4,1.4.3,2.2,1.2,2.2,2.9.1,4.2-2,5.9-6.4,4.9l-1.1-.3-1.4-.6-1.3-.9-.2.3h0c.6.1,1.1.3,1.5.6h0c0,.1,1.2,1.4,1.2,1.4.7,1.2.7,2.2.3,3.2l-.6.9-.3.3c-2-.2-4.4.5-7.4,2.1l-.4-.6c-.4.4-1.1.7-1.9.6-1.3-.1-2.7-.9-4.1-2.4-1.4-1.6-2-3.1-1.9-4.5.1-1.7,1.4-2.9,3.8-3.5-1.7-1.9-.6-2.9,3.3-3l4.7-.2v-1.6ZM716,209.9c-2-.9-4.4-.9-7.3,0-2.7.8-4.4,2.1-4.9,4h0l2.6.2c1.4-.6,2.7-.7,4.2-.5,2.8.4,4.2,2.5,4.1,6.1,0,3.1-1.2,5.6-3.5,7.4l-9.9,6.2,2.6.4,6.2.8c2.6-.4,5.1-2.1,7.8-4.9,4.2-.9,6.6-4.2,7.2-9.9.4-1.7-.2-3.6-2.2-5.7-2-2.2-4.3-3.5-7-3.9ZM699,135.7c1.6,0,3.1-.7,4.6-2l4-3.2c1.4-.6,3.2-.9,5.3-.7,2.4,0,3.7.9,3.9,2.4,1.9-.9,3.2-.3,3.9,2,.4,1.4.6,2.9.4,4.2l1.6,1.3c1.7,1.4,3.9,2.2,6.7,2.3,2.7,0,5-.6,6.9-1.9,3.1-2.1,4.6-4.8,4.5-8.4l-1.4-4c1.2-.7,2.1-1.8,2.5-3.2h.2c1.9-1.2,3.1-1.8,3.6-1.8,1.3,0,2.6.5,3.9,1.8l.8.9h2.4c1.4,0,2.7.4,3.9,1.2l1.4.9,2.1,1.7c-.7.2-.9.7-.4,1.7.6,1.1.6,2,0,2.6-.8.8-2.2,1.2-4.1,1.1-1.9-.1-3.3-.6-4.2-1.3l-.7-1.1c-1,3.3-2.6,4.2-4.7,2.6.6.6.7,1.4.4,2.5-.4,1.3-1.2,2.2-2.2,2.8l-3,.4h-.2c0,0-3.1.2-3.1.2-.6.3-1.1.9-1.5,1.9l-1.2,2.1-.5.3c0,.6-.4,1.3-1.6,2.1-1.8,1.2-3.4,1.7-4.7,1.6l-3.4-1.6-2.9,2.1c-1.1,1.5-2.6,1.8-4.6.9-1.2,1.5-3.4,1.4-6.6-.4h-3.8c-1.1-.3-2.2-1.7-3.7-4l-3.3-4.2c-.3-.6-.7-2.4-1.3-5.6ZM621.8,170c-.6.8-.9,1.6-.8,2.3l.8-2.1v-.2ZM633,164.3c2.2-.7,2.9,1,2.3,5.1h-.4c0,0-2.9,1.1-2.9,1.1-2.6,1.4-4.1,4-4.5,7.6v.2c-3.1.4-4.8-.6-5.2-3.2-.8-.6-1.2-1.6-1.3-2.9-1.2,1.7-3.1,1.4-5.8-.9-1.1-.7-1.5-1.9-1.3-3.6.2-1.7.9-3.1,2.1-4.4,3.1-3.6,6.7-3.1,10.9,1.6.3-1.1,1.1-1.6,2.2-1.4.3-.6.9-.9,1.7-.9.9,0,1.7.5,2.2,1.6ZM646.4,102h.2c2.3.9,4.1.7,5.2-.4,1.1-1.1,1.3-2.4.8-4.1-.4-1.8-1.4-3-2.9-3.4-1.7-.6-3.7.1-5.7,2.1l-2.6.9-.2.9h.6c2.7.6,4.3,1.9,4.6,4.1ZM510.8,159.1v.8c.2,2.7-1,4.8-3.5,6.4-2.6,1.6-4.8,1.2-6.7-1.2-1.4-1.9-1.3-4.2.4-6.8l.2-.2c1.7-2.4,2.9-2.6,3.9-.6-.2-2.2.2-3.6,1.6-4,1.1-.4,2.2-.2,3.7.7,1.4.9,2.1,1.8,2.2,2.8,0,.9-.6,1.7-1.7,2.1Z" fill="#e4da8d" fill-rule="evenodd"/>
  <path d="M697.6,177.4c.7-.7,1.4-.8,2.2-.4.7,1.4.2,2.1-1.4,2.1s-1.9-.6-.8-1.6" fill="#e7df99" fill-rule="evenodd"/>
  <path d="M400.2,172l1.7,2.4-.4.3-5.9-1.9c-2.2-.7-4-1.8-5.4-3.2l-3.7-4.1,5.5.4c2.8.3,5.6,2.4,8.2,6.1M553,203.4l-.3-.3v-.7l1.2-.3-.9,1.3ZM578.1,206.1c.1,3.8-2,6.5-6.4,8.1h-3c0,.1-2-.7-2-.7l2.2-.2c3.7-.7,6-2.4,6.9-5.2.7-1.9.7-3.6,0-4.9l1.2-.6c.6,1.2.9,2.4.9,3.6ZM595.8,210.8v.2c-1.7-.1-2.6-.4-2.7-1,.6-.9,1.1-1.2,1.7-.9.6.3.9.9,1.1,1.7ZM662.6,266.1c2.1,2.1,2.2,5.6.4,10.6-1.3,3.6-3.4,5.9-6.4,7-2.9,1.1-6.1.7-9.6-.9l-6.5-3.8c-1.9,0-3.6.3-4.9,1.1l-1.9,1.5.6.7h4.3c0,.1,3.9,1.9,3.9,1.9,7.2,2.6,12.5,3.5,16.2,2.6,2.9-.7,5.3-2.3,7.3-4.9,1.8-2.4,2.9-5.2,3.2-8.2.3-3.2-.3-5.7-1.9-7.8l-2.6-2.2h-.4c0,0-3.7-.2-3.7-.2.2.8-.5,1.2-2.2,1.3v.3c1.6-.3,2.9,0,4.1,1.2ZM766.8,125.6c-.2-2.5,1.1-3.9,3.8-4.1,2.6-.2,4.6.4,6,1.9v.2c0,0-.1.3-.1.3v.2c0,0,.6-.3.6-.3,1.8,1.9,2.5,3.7,1.9,5.6-.3,1-1.1,1.8-2.2,2.4h-2.6c.4.7,0,1.3-1.2,1.7-1.5.6-2.7.3-3.7-.9l-1.3-2.7h0c0-.1-.5.2-.5.2-1.7,1.4-3.3,1.6-4.9.7l-2.1-1.6-2.1-1.8-1.3-.9.6-.9c1.1-1.8,2-2.8,2.6-3,3.1-1.1,5.4-.1,6.7,3.1Z" fill="#e7df99" fill-rule="evenodd"/>
  <path d="M638.8,341.9h-1.1c0,.1-1.7,0-1.7,0,.2-.9.4-1.4.7-1.5l1.7.3.3,1.2M687.3,243.8h0c0,0,.5.2.5.2l-.2-.6-.2.4ZM697.4,243.2h-.2c0,.1.3.9.3.9v-.9ZM738.2,304.3l1.5.5-.6-1-.9.5ZM699.8,176.9c.7,1.4.2,2.1-1.4,2.1s-1.8-.6-.7-1.6c.6-.7,1.4-.8,2.2-.4ZM570.9,15.4c.9-.9,2.1-1.6,3.5-1.7,1.4-.2,2.3.1,2.5.9,3.2-2,5.9-2.3,8.1-.9,3.5-.2,5.9,1.2,7.1,4.3,1.4,3.5.8,6.3-2,8.5-6.4,2.9-9.5,4.5-9.6,4.8-.1.6,3.6,1.1,11.3,1.4,7.3-1.2,15-.9,23,1.1,7.7,1.8,14.5,4.7,20.3,8.8,6,4.2,9.9,8.9,11.7,14,1.9,5.6,1.1,11-2.6,16.3-3.9,5.7-5.9,11.5-6.1,17.5-.1,4.6.9,6.8,3.1,6.7l-.2.9h.6c2.7.6,4.3,1.9,4.7,4.1v2.1c10.4,8.9,20.7,6.7,31-6.4,6.7-7.7,16.3-12.4,28.8-14.1l17.8-.9c-.6-1.5-.1-2.7,1.2-3.8h3.7c-1.4-2.2-1.6-4.1-.6-5.6,1-1.4,2.6-2.1,4.7-2.3,2.1-.2,3.7.3,5,1.4,1.4,1.3,1.7,3.1.7,5.2,3.2-2.4,5.9-3.4,8-2.9,1.8.4,2.7,1.6,2.6,3.6.2,1.9,2.4,3.4,6.6,4.4,4.4.8,7.9.2,10.5-1.7,3.4-2.7,6.8-3.6,10.1-2.6,2.6.7,4.2,1.9,4.7,3.5,3.7-4.7,8-6.1,12.8-4.2,4.4,1.8,6.6,4.1,6.2,7,4.5.2,6.8,1.6,7,4.3.2,1.7-.4,3-1.6,3.9,1.3.9,2.1,2.4,2.4,4.4l2.4-.7c2.1-.4,3.9-.1,5.5.9l3.2,2.9c1.1,1.2,2.2,1.9,3.3,2.1l5.1.4c1.8.4,3.4,1.3,4.6,2.8,1.3,1.7,1.5,3.6.4,5.4,1.8.6,3.1,1.6,3.7,3,2.4-.4,3.7,1.1,4,4.4l-.4,1.7c.7.4,1,1.3,1.1,2.6,0,1.6-.4,2.8-1.2,3.6.7-.1,1.2.5,1.7,1.9.4,1.7-.1,3.6-1.7,5.6-1.3,1.7-3.1,2.7-5.4,3-1.8.3-3.4,0-4.6-.8l-1.1.7-3.2,1.6c-3.1.9-5.6.6-7.8-.7-1-.7-1.9-2.3-2.9-4.9-.7-1.7-1-2.9-.8-3.7l-2.9-.7c-1.7.6-4.1.2-7.1-1.2-3.1-1.4-4.7-3.9-5.1-7.4-.2-3.6.7-6.5,2.6-8.8l.2-.2h-.2c0,.1-2.2,0-2.2,0-2.2-.6-3.9-2-5.3-4.4-.5-1.2-.8-2.2-.9-3.2-2.7,2.4-5.7,3.5-8.9,3.2-2.9-.4-5.2-1.6-7.2-3.6-2.7.6-4.8,0-6.3-1.9-1.3-1.7-1.7-3.6-1.4-5.7,0-2.1-1.6-3.5-4.6-4.4l-9.4-.7-11.4-.7-12-.7c-10.4.3-22.7,4.2-36.8,11.8-4.1,2.1-5.6,3.9-4.8,5.4.7,1.1,2.2,1.7,4.6,1.7,3.4.9,5.9,2.7,7.2,5.4l.2.4h0c0,0,.2.4.2.4l-.2-.8c4.1-1.8,7.4-2,9.8-.6,2.3,1.2,3.2,3.2,2.9,6.1l1.9-.6,2.3.2c.5-2.3,2.1-4.1,4.8-5.2,3.6-1.7,7-1.9,10.3-.5,1.8.7,3.5,1.9,5.1,3.7,1.8,1.9,2.7,3.7,2.9,5.4l-.2,3.2c-.4,1.4-1.2,2.4-2.4,3.2l1.3,3.9c.1,3.6-1.4,6.4-4.5,8.4-1.9,1.2-4.2,1.9-6.9,1.8-2.7,0-4.9-.8-6.6-2.2l-1.7-1.4c.2-1.3,0-2.7-.4-4.2-.7-2.3-2-2.9-3.9-2-.2-1.4-1.5-2.2-3.9-2.4-2.1-.1-3.9.1-5.2.8-.7.3-2,1.3-4.1,3.1-1.4,1.3-3,2-4.6,2-5.6,0-9.9-2.1-12.7-6.1-1.2-1.6-1.6-2.9-1.1-4,.3-.7.9-1.1,1.8-1.4h.6c.6-.9.9-2,.9-3.2.2-1.9-.2-3.6-1.4-5-1.1-1.2-2.7-1.9-4.6-1.9s-2.5.5-2.9,1.6c-2.4.6-4.1,2.1-5.2,4.4-1.4,3.1-.9,6.2,1.3,9.7,2.2,5.2,5.1,9.9,8.7,13.9,3.4,3.9,6.3,5.9,8.6,6.2l14.1,12.2c1.8,1.5,3.6,2.6,5.4,3.1,5.1.8,9,1.7,11.9,2.7l2.1.4h3.2c-1.8-.9-2.2-1.7-1.3-2.4,1.1-.8,1.9-.6,2.6.7l.2-1.1c3.1,0,4.7.9,4.8,2.8,1.2-.2,1.9.2,2.3,1l1.6-1.3-.5-2c-.2-.7.1-1.3,1.1-1.8,1.1-.4,2.3-.1,3.6,1.1.4-.9,1.3-.9,2.6,0,1.5,1,1.7,2.2.7,3.7h3.7c0,0,.8.4.8.4.7-.8,1.7-1.2,3.1-1.3,1.4,0,2.2.4,2.6,1.4l1.2-.8c1.4-.7,2.1-.4,2,.9.7-1.4,1.7-1.7,3.1-1.1,1.4.7,1.9,1.7,1.4,3.2,1.2-.2,1.8,0,2,.6l-.2,1.4c-1.1,0-1.9.2-2.3.7v.2c-.1,0-.5,1-.5,1l-.6.4c-.7.3-1.4.1-1.9-.6-.6,1.3-1.4,1.6-2.4.9l-.2-.2-1.8-1.6-2.7.2-.7.5c.6.3.9.7.9,1.3.2.9-.1,1.8-.9,2.6-.9.8-2.2.7-3.9-.4h-.2c0,0,0,.6,0,.6-1.1.2-2.1-.2-2.9-1.2l-.3-.4-1.2.4c-1.7.2-2.6-.9-2.4-3.1l-3.1.2-3,.4-1.9-1.1-.5-.4v.5l-4.6.4c-2.2,0-4.9-.9-8.2-2.5h0c-1.4,0-2.4.1-2.7.6-.4.6.1,1.2,1.5,1.7l4.1,2.6c4.4,2.6,8.9,6.4,13.4,11.6,7.1,8.1,11.1,16.2,11.9,24.2,1.1,9.7,0,17.7-3.4,23.9-3.6,6.7-10.7,13.2-21.3,19.5-7.5,4.2-16.4,6.4-26.8,6.4-3.8,0-6.6.4-8.1,1.1-2.3,1.1-4.1,3.2-5.4,6.6-2.7,7-1.4,12,3.7,14.9,2.1,1.2,4.4,1.5,6.7,1.1,2.5-.6,4.5-1.9,5.9-4.1,2.7-4,6.6-5.7,11.7-5.2,4.6.3,7.1,1.4,7.4,3.1,7-6.8,14-8.7,21-5.6,2.8,1.2,5.1,3,6.7,5.4,1.6,2.4,2.3,4.8,2.1,7.2,1.1,5.1.2,9.5-2.6,13.5-2.4,3.4-5.1,4.8-8,4.1,2.3,4.1,3.3,8.6,3,13.4-.5,7.2-4.4,10.2-11.7,9,2.5,4.7,2.1,9-1.1,13-3.3,4.1-7.9,5.6-13.9,4.7-11.2-2.9-19.6-6-25.2-9.3-6.9-4.1-11.4-9.4-13.2-16,0,3.4-.7,5.5-2.1,6.2-1.8.9-5.4.5-10.8-1.4,11.4,5.2,16.3,9.7,14.5,13.5,3.8,3.8,4.5,8.1,2.1,12.7-2.4,4.6-5.7,6-10,4.2-.3,3.2-1.4,4.1-3.3,2.8.9,3.1.4,4.3-1.3,3.8,3.7,5.2,2.9,10.1-2.4,14.7-5.6,4.8-13.6,6.4-23.9,4.7-1.7,3.1-3.1,4.7-3.9,4.7l-1.4-1.7c-6.4,3.4-13.7,3.7-21.7.9-4.7-1.7-8.4-4.1-11.2-7.3-8.1-3.1-13.4-8.4-15.9-15.9-4.4,2.8-9.2,4-14.4,3.6-4.7-.6-9.2-2.4-13.4-5.4-4.1-3.1-7.1-6.6-8.9-10.7-2-4.4-2.1-8.6-.4-12.5v-1.8c0-4.3,1.3-8.4,3.9-12.3,2-2.9,4.4-5.4,7.1-7.3h.1c2.1.2,3.5-.5,4.1-2.3,5.6-2.7,12.5-3.6,20.7-2.9,1.7-9.9,6.9-15.4,15.6-16.7,3.6-.5,6.9.1,9.9,1.8l2,1.3c.3-1.7,1.1-3.4,2.2-5.2,1.7-2.9,3.7-4.5,5.9-4.9l-1.1-1.1c-.9-1.3-.9-2.9-.2-4.6,1.1-2.6,3.9-4.2,8.6-4.9,3.4-.4,6.7.2,10.1,1.9l2.4,1.3c-1.9,0-3.6.3-4.9,1.1l-1.9,1.5-.2.2-.7,1.2,1.5-.7h4.2c0,.1,4,1.9,4,1.9,7.1,2.6,12.5,3.5,16.2,2.6,2.9-.7,5.3-2.3,7.3-4.9,1.8-2.4,2.9-5.2,3.2-8.2.3-3.2-.3-5.7-1.9-7.8l-2.6-2.2h-.3c-1.6.6-2.7.5-3.7-.2.2.8-.6,1.2-2.2,1.3-2.6,0-4.6-.6-5.7-2.1l-2-3.5-.8-1.1c-.9-1.2-1.6-1.4-2.3-.8.9.1,1.7.4,2.1.9l.6,1.3c.2,1.4-.6,2.7-2.1,3.9l-8.3.4c-1.2-1.9-.9-4.2.7-6.7l1.1-2.1.2-.4.2-.6c.2-.9,0-1.7-.5-2.4l1.7-1.1h0c2.9-1.6,5.4-2.3,7.4-2.1h.9c0,.1,7.5,2.8,7.5,2.8,2.6.4,4.1-.3,4.4-2.2v-.3c-1.8-1.8-1.4-3.6,1.1-5.4,2.4-1.6,4.8-2.3,7.2-2.2,1.9,0,4.8.7,8.5,2,2.7.6,5,.2,6.9-1.2v-.6c.6-1.9,1.6-3,3.1-3.1,3.3-3.4,6.9-5,10.9-4.7l2.6.4,6.2.7c2.6-.4,5.1-2.1,7.8-4.9,4.2-.9,6.6-4.2,7.2-9.9.5-1.7-.2-3.6-2.2-5.7-1.9-2.2-4.3-3.6-7-4-2-.9-4.4-.9-7.2,0-2.7.8-4.4,2.2-4.9,4.1h2.6c2.2,1.1,2.7,2.6,1.7,4.6-1,2.1-2.5,3.1-4.5,3.3-2.4.3-4.6-.4-6.5-2.2-1.9-1.8-2.7-4-2.4-6.4l.4-1.4c1.1-3.4,3.9-5.6,8.5-6.7,3.2-.7,7.9-.6,14.2.2l5.2-1.3c2.6-1.1,3.4-2.2,2.4-3.2l.6-.2,2.7-4.1c.4-1.9.2-4.2-.6-6.6-.8-2.4-1.8-4-3-4.6-1.9-.2-3.2-.8-4.1-1.7-1.6-1.9-2.9-3.2-4.1-3.9-3.1-1.7-4.6-1.4-4.8.9,0,.7.2,1.9.6,3.4.1,1.4-.4,2.4-1.7,2.9h-2.1c.5,1,.4,2.2-.1,3.7-1.1,2.6-2.9,3.7-5.5,3.5-.9,0-2.5-.9-4.9-2.4-1.8-1.2-3.4-1.5-4.6-.9-1.2.6-1.7,2.1-1.7,4.3.1,2.6-.1,4.4-.7,5.2-.8,1.3-2.1,2.2-3.9,2.5-1.9.4-2.9-.4-3.1-2.2-.6-.2-1.6.1-2.9.8h-3.2c0-.1-1.2-2.1-1.2-2.1-.9.9-2.3,1.3-4.4,1.1-2.3-.2-4.4-.9-6.3-2.2-2.3-1.4-3.8-3.8-4.5-7.1l-.9-2.4h0c0,0-.7-1.1-.7-1.1l.2,1.2c0,.9-.6,1.4-1.6,1.6-.9.1-1.7-.2-2.4-1.1,0-.9-.4-1.4-1.3-1.3-.9,0-1.1.5-.8,1.3,1.3,1.6,1.2,3.4,0,5.4-1.4,2.1-3.5,2.6-6.2,1.3-1.5.7-3.5.2-6-1.2-2.8-1.7-4.5-4.1-5-7.1-.4.6-1,.9-1.9.8-.9,0-1.6-.5-2.2-1.2l.4-.6-.8.2-.2-.4-.6.4c-1.1.7-2.1.5-3.1-.5-1.4-1.2-1.9-3.4-1.7-6.3v-1.7c0,0,0-.2,0-.2.4-3.6,1.9-6.2,4.5-7.6l2.9-1.1h.4c0,0,2.8-.7,2.8-.7l1.4-.2.4,1.5c.1-.4.4-.7.8-.9.4-.2.9-.2,1.6,0v-.8c0,0,3.2-.2,3.2-.2,4.2-1,7.5-3.1,10-6.2l7.1-11.5c2.2-2,3.6-4.9,4.3-8.6,1.5-7.4-.9-14.6-7.1-21.7-4.8-4.6-8.7-6.4-11.7-5.7-1.8.4-3.9,2.6-6.3,6.2-2.5,3.6-4.7,5.8-6.7,6.5-3.2,1-7.5-.6-12.8-4.7-1.7,3.1-4,4.1-7.1,3.2-2.7-.8-4.9-2.9-6.6-6.2l-.9-.2c-.3,1.2-1.1,1.9-2.4,2.1-1.4,0-2.4-1.3-3.1-3.9-3.1-.8-4.6-2.1-4.2-3.9.2-1.3,1.1-2.6,2.6-3.8l-1.1-.9c-1.3-1.7-1.2-3.3.4-4.9,1.7-1.7,3.9-2.2,6.5-1.7h.3c.1-.7.5-1.2,1.1-1.6.7-.5,1.5-.5,2.4,0l.9.6c1.7,0,2.2-.7,1.4-2.1-.8-1.6-.7-2.4.5-2.6.7,0,1.8.5,3.2,1.7l1.7-.4c.3-.4.4-.8.1-1.2l.8-1.2,1.2-.6c.9-.7,1.4-1.7,1.4-2.7,0-1.4-.6-2.4-2.1-3.1-1.3-.6-2.3-.4-3.1.4l-3.3.7c-1.5.7-2.9.9-4.1.6l-1.8-1.7c-.7.4-1.4.6-2.2.5-1.1-.3-1.6-1.1-1.4-2.4,0-.5.7-1.3,2.2-2.5,1.3-1.1,1.8-1.9,1.6-2.5-.3-.6-1.1-.5-2.4.4-1.2.8-2.1,1.2-2.9,1.2l-2.2-.6-.7-.7c-2.2-.2-3.3-1.2-3.5-3-.1-1.1,0-1.9.6-2.5-2.2-1.1-2.2-2.1-.2-3.1l4.7.2c.3.9.8,1.4,1.6,1.6.7,0,1.2-.5,1.4-1.6,0-1.7.6-2.7,1.7-3.2,1-.6,3.2-.9,6.5-1.1l6.2-.2c2.2,1.7,2.9,4,1.9,6.9.7.8.2,1.6-1.3,2.3l-.4-.6h-.1l.4.6c-1.3.6-1.8,1.1-1.4,1.4,2.7-.6,3.9,0,3.7,1.7-.2,1.4-.7,2.3-1.6,2.6v.2c.3,1.3.7,2.2,1.3,2.7,2.9,1.4,4.8.1,5.8-3.9,1.4-5.6,3.2-9.2,5.5-10.6,7.9-4.5,9.5-11,5-19.7-3.7-5.8-8.2-9.5-13.7-11-5.9-.8-10.3-1.8-13.1-3.1-10.4-2.6-19.4-1.2-27.1,4.1l-.2,1.1c-.4,1.3-1.2,2.2-2.1,2.6l-2.6.2h0l-1.4,1.1-3.1-.4c-.9-.5-1.4-1.4-1.7-2.6-.1-.6,0-1,.2-1.3l-3.4.4c.4.6.7,1.6.7,2.9,0,2.4-.5,3.8-1.7,4.1l-1.4,1.9c-1.3,1-2.8,1.5-4.5,1.6-2.6,0-4.4-.2-5.7-1l-2.3-3.2c-1.7,2.7-4.4,3.1-8.1,1.2-1.4-.8-2.6-1.9-3.2-3.5-.4-1.1-.6-2.1-.5-3-.9-.7-1.5-1.4-1.6-2.2-.1-1.1.4-2.1,1.6-3,1.2-.9,2.1-1.1,2.9-.4-.9-1.5-1-3-.2-4.6h0c0-.1,4.1-2.9,4.1-2.9,4.6-3.1,8.4-2.8,11.2.9l2.6,4.3c.8,1.4,1.4,2.2,2,2.2.7,1.2,1.9,1.2,3.3.2,1.1,1,2.3,1.1,3.7.4,1.4-.7,2.1-1.7,2.1-2.7,1.9.5,2.9-.4,2.9-2.6s-.7-3.6-2.2-3.7c-2.6,0-3.8-1.2-3.8-3.8s1.5-3.4,4.5-2.6c-.8-.5-1.2-1-1.1-1.6.1-.6.5-.9,1.1-.9-4.6-1.7-6.1-3.6-4.5-5.6l.9-.9Z" fill="#ede7af" fill-rule="evenodd"/>
  <path d="M505.5,306.5l-.9.4c-1.1.2-2,0-2.7-.8-.4-.4-.2-.9.8-1.4,1-.5,1.8-.2,2.4.9l.5.9" fill="#ede7af" fill-rule="evenodd"/>
  <path d="M638.8,341.9h-1.1c0,.1-1.7,0-1.7,0,.2-.9.4-1.4.7-1.5l1.7.3.3,1.2M687.3,243.8h0c0,0,.5.2.5.2l-.2-.6-.2.4ZM697.4,243.2h-.2c0,.1.3.9.3.9v-.9ZM738.2,304.3l1.5.5-.6-1-.9.5ZM699.8,176.9c.7,1.4.2,2.1-1.4,2.1s-1.8-.6-.7-1.6c.6-.7,1.4-.8,2.2-.4ZM570.9,15.4c.9-.9,2.1-1.6,3.5-1.7,1.4-.2,2.3.1,2.5.9,3.2-2,5.9-2.3,8.1-.9,3.5-.2,5.9,1.2,7.1,4.3,1.4,3.5.8,6.3-2,8.5-6.4,2.9-9.5,4.5-9.6,4.8-.1.6,3.6,1.1,11.3,1.4,7.3-1.2,15-.9,23,1.1,7.7,1.8,14.5,4.7,20.3,8.8,6,4.2,9.9,8.9,11.7,14,1.9,5.6,1.1,11-2.6,16.3-3.9,5.7-5.9,11.5-6.1,17.5-.1,4.6.9,6.8,3.1,6.7l-.2.9h.6c2.7.6,4.3,1.9,4.7,4.1v2.1c10.4,8.9,20.7,6.7,31-6.4,6.7-7.7,16.3-12.4,28.8-14.1l17.8-.9c-.6-1.5-.1-2.7,1.2-3.8h3.7c-1.4-2.2-1.6-4.1-.6-5.6,1-1.4,2.6-2.1,4.7-2.3,2.1-.2,3.7.3,5,1.4,1.4,1.3,1.7,3.1.7,5.2,3.2-2.4,5.9-3.4,8-2.9,1.8.4,2.7,1.6,2.6,3.6.2,1.9,2.4,3.4,6.6,4.4,4.4.8,7.9.2,10.5-1.7,3.4-2.7,6.8-3.6,10.1-2.6,2.6.7,4.2,1.9,4.7,3.5,3.7-4.7,8-6.1,12.8-4.2,4.4,1.8,6.6,4.1,6.2,7,4.5.2,6.8,1.6,7,4.3.2,1.7-.4,3-1.6,3.9,1.3.9,2.1,2.4,2.4,4.4l2.4-.7c2.1-.4,3.9-.1,5.5.9l3.2,2.9c1.1,1.2,2.2,1.9,3.3,2.1l5.1.4c1.8.4,3.4,1.3,4.6,2.8,1.3,1.7,1.5,3.6.4,5.4,1.8.6,3.1,1.6,3.7,3,2.4-.4,3.7,1.1,4,4.4l-.4,1.7c.7.4,1,1.3,1.1,2.6,0,1.6-.4,2.8-1.2,3.6.7-.1,1.2.5,1.7,1.9.4,1.7-.1,3.6-1.7,5.6-1.3,1.7-3.1,2.7-5.4,3-1.8.3-3.4,0-4.6-.8l-1.1.7-3.2,1.6c-3.1.9-5.6.6-7.8-.7-1-.7-1.9-2.3-2.9-4.9-.7-1.7-1-2.9-.8-3.7l-2.9-.7c-1.7.6-4.1.2-7.1-1.2-3.1-1.4-4.7-3.9-5.1-7.4-.2-3.6.7-6.5,2.6-8.8l.2-.2h-.2c0,.1-2.2,0-2.2,0-2.2-.6-3.9-2-5.3-4.4-.5-1.2-.8-2.2-.9-3.2-2.7,2.4-5.7,3.5-8.9,3.2-2.9-.4-5.2-1.6-7.2-3.6-2.7.6-4.8,0-6.3-1.9-1.3-1.7-1.7-3.6-1.4-5.7,0-2.1-1.6-3.5-4.6-4.4l-9.4-.7-11.4-.7-12-.7c-10.4.3-22.7,4.2-36.8,11.8-4.1,2.1-5.6,3.9-4.8,5.4.7,1.1,2.2,1.7,4.6,1.7,3.4.9,5.9,2.7,7.2,5.4l.2.4h0c0,0,.2.4.2.4l-.2-.8c4.1-1.8,7.4-2,9.8-.6,2.3,1.2,3.2,3.2,2.9,6.1l1.9-.6,2.3.2c.5-2.3,2.1-4.1,4.8-5.2,3.6-1.7,7-1.9,10.3-.5,1.8.7,3.5,1.9,5.1,3.7,1.8,1.9,2.7,3.7,2.9,5.4l-.2,3.2c-.4,1.4-1.2,2.4-2.4,3.2l1.3,3.9c.1,3.6-1.4,6.4-4.5,8.4-1.9,1.2-4.2,1.9-6.9,1.8-2.7,0-4.9-.8-6.6-2.2l-1.7-1.4c.2-1.3,0-2.7-.4-4.2-.7-2.3-2-2.9-3.9-2-.2-1.4-1.5-2.2-3.9-2.4-2.1-.1-3.9.1-5.2.8-.7.3-2,1.3-4.1,3.1-1.4,1.3-3,2-4.6,2-5.6,0-9.9-2.1-12.7-6.1-1.2-1.6-1.6-2.9-1.1-4,.3-.7.9-1.1,1.8-1.4h.6c.6-.9.9-2,.9-3.2.2-1.9-.2-3.6-1.4-5-1.1-1.2-2.7-1.9-4.6-1.9s-2.5.5-2.9,1.6c-2.4.6-4.1,2.1-5.2,4.4-1.4,3.1-.9,6.2,1.3,9.7,2.2,5.2,5.1,9.9,8.7,13.9,3.4,3.9,6.3,5.9,8.6,6.2l14.1,12.2c1.8,1.5,3.6,2.6,5.4,3.1,5.1.8,9,1.7,11.9,2.7l2.1.4h3.2c-1.8-.9-2.2-1.7-1.3-2.4,1.1-.8,1.9-.6,2.6.7l.2-1.1c3.1,0,4.7.9,4.8,2.8,1.2-.2,1.9.2,2.3,1l1.6-1.3-.5-2c-.2-.7.1-1.3,1.1-1.8,1.1-.4,2.3-.1,3.6,1.1.4-.9,1.3-.9,2.6,0,1.5,1,1.7,2.2.7,3.7h3.7c0,0,.8.4.8.4.7-.8,1.7-1.2,3.1-1.3,1.4,0,2.2.4,2.6,1.4l1.2-.8c1.4-.7,2.1-.4,2,.9.7-1.4,1.7-1.7,3.1-1.1,1.4.7,1.9,1.7,1.4,3.2,1.2-.2,1.8,0,2,.6l-.2,1.4c-1.1,0-1.9.2-2.3.7v.2c-.1,0-.5,1-.5,1l-.6.4c-.7.3-1.4.1-1.9-.6-.6,1.3-1.4,1.6-2.4.9l-.2-.2-1.8-1.6-2.7.2-.7.5c.6.3.9.7.9,1.3.2.9-.1,1.8-.9,2.6-.9.8-2.2.7-3.9-.4h-.2c0,0,0,.6,0,.6-1.1.2-2.1-.2-2.9-1.2l-.3-.4-1.2.4c-1.7.2-2.6-.9-2.4-3.1l-3.1.2-3,.4-1.9-1.1-.5-.4v.5l-4.6.4c-2.2,0-4.9-.9-8.2-2.5h0c-1.4,0-2.4.1-2.7.6-.4.6.1,1.2,1.5,1.7l4.1,2.6c4.4,2.6,8.9,6.4,13.4,11.6,7.1,8.1,11.1,16.2,11.9,24.2,1.1,9.7,0,17.7-3.4,23.9-3.6,6.7-10.7,13.2-21.3,19.5-7.5,4.2-16.4,6.4-26.8,6.4-3.8,0-6.6.4-8.1,1.1-2.3,1.1-4.1,3.2-5.4,6.6-2.7,7-1.4,12,3.7,14.9,2.1,1.2,4.4,1.5,6.7,1.1,2.5-.6,4.5-1.9,5.9-4.1,2.7-4,6.6-5.7,11.7-5.2,4.6.3,7.1,1.4,7.4,3.1,7-6.8,14-8.7,21-5.6,2.8,1.2,5.1,3,6.7,5.4,1.6,2.4,2.3,4.8,2.1,7.2,1.1,5.1.2,9.5-2.6,13.5-2.4,3.4-5.1,4.8-8,4.1,2.3,4.1,3.3,8.6,3,13.4-.5,7.2-4.4,10.2-11.7,9,2.5,4.7,2.1,9-1.1,13-3.3,4.1-7.9,5.6-13.9,4.7-11.2-2.9-19.6-6-25.2-9.3-6.9-4.1-11.4-9.4-13.2-16,0,3.4-.7,5.5-2.1,6.2-1.8.9-5.4.5-10.8-1.4,11.4,5.2,16.3,9.7,14.5,13.5,3.8,3.8,4.5,8.1,2.1,12.7-2.4,4.6-5.7,6-10,4.2-.3,3.2-1.4,4.1-3.3,2.8.9,3.1.4,4.3-1.3,3.8,3.7,5.2,2.9,10.1-2.4,14.7-5.6,4.8-13.6,6.4-23.9,4.7-1.7,3.1-3.1,4.7-3.9,4.7l-1.4-1.7c-6.4,3.4-13.7,3.7-21.7.9-4.7-1.7-8.4-4.1-11.2-7.3-8.1-3.1-13.4-8.4-15.9-15.9-4.4,2.8-9.2,4-14.4,3.6-4.7-.6-9.2-2.4-13.4-5.4-4.1-3.1-7.1-6.6-8.9-10.7-2-4.4-2.1-8.6-.4-12.5v-1.8c0-4.3,1.3-8.4,3.9-12.3,2-2.9,4.4-5.4,7.1-7.3h.1c2.1.2,3.5-.5,4.1-2.3,5.6-2.7,12.5-3.6,20.7-2.9,1.7-9.9,6.9-15.4,15.6-16.7,3.6-.5,6.9.1,9.9,1.8l2,1.3c.3-1.7,1.1-3.4,2.2-5.2,1.7-2.9,3.7-4.5,5.9-4.9l-1.1-1.1c-.9-1.3-.9-2.9-.2-4.6,1.1-2.6,3.9-4.2,8.6-4.9,3.4-.4,6.7.2,10.1,1.9l2.4,1.3c-1.9,0-3.6.3-4.9,1.1l-1.9,1.5-.2.2-.7,1.2,1.5-.7h4.2c0,.1,4,1.9,4,1.9,7.1,2.6,12.5,3.5,16.2,2.6,2.9-.7,5.3-2.3,7.3-4.9,1.8-2.4,2.9-5.2,3.2-8.2.3-3.2-.3-5.7-1.9-7.8l-2.6-2.2h-.3c-1.6.6-2.7.5-3.7-.2.2.8-.6,1.2-2.2,1.3-2.6,0-4.6-.6-5.7-2.1l-2-3.5-.8-1.1c-.9-1.2-1.6-1.4-2.3-.8.9.1,1.7.4,2.1.9l.6,1.3c.2,1.4-.6,2.7-2.1,3.9l-8.3.4c-1.2-1.9-.9-4.2.7-6.7l1.1-2.1.2-.4.2-.6c.2-.9,0-1.7-.5-2.4l1.7-1.1h0c2.9-1.6,5.4-2.3,7.4-2.1h.9c0,.1,7.5,2.8,7.5,2.8,2.6.4,4.1-.3,4.4-2.2v-.3c-1.8-1.8-1.4-3.6,1.1-5.4,2.4-1.6,4.8-2.3,7.2-2.2,1.9,0,4.8.7,8.5,2,2.7.6,5,.2,6.9-1.2v-.6c.6-1.9,1.6-3,3.1-3.1,3.3-3.4,6.9-5,10.9-4.7l2.6.4,6.2.7c2.6-.4,5.1-2.1,7.8-4.9,4.2-.9,6.6-4.2,7.2-9.9.5-1.7-.2-3.6-2.2-5.7-1.9-2.2-4.3-3.6-7-4-2-.9-4.4-.9-7.2,0-2.7.8-4.4,2.2-4.9,4.1h2.6c2.2,1.1,2.7,2.6,1.7,4.6-1,2.1-2.5,3.1-4.5,3.3-2.4.3-4.6-.4-6.5-2.2-1.9-1.8-2.7-4-2.4-6.4l.4-1.4c1.1-3.4,3.9-5.6,8.5-6.7,3.2-.7,7.9-.6,14.2.2l5.2-1.3c2.6-1.1,3.4-2.2,2.4-3.2l.6-.2,2.7-4.1c.4-1.9.2-4.2-.6-6.6-.8-2.4-1.8-4-3-4.6-1.9-.2-3.2-.8-4.1-1.7-1.6-1.9-2.9-3.2-4.1-3.9-3.1-1.7-4.6-1.4-4.8.9,0,.7.2,1.9.6,3.4.1,1.4-.4,2.4-1.7,2.9h-2.1c.5,1,.4,2.2-.1,3.7-1.1,2.6-2.9,3.7-5.5,3.5-.9,0-2.5-.9-4.9-2.4-1.8-1.2-3.4-1.5-4.6-.9-1.2.6-1.7,2.1-1.7,4.3.1,2.6-.1,4.4-.7,5.2-.8,1.3-2.1,2.2-3.9,2.5-1.9.4-2.9-.4-3.1-2.2-.6-.2-1.6.1-2.9.8h-3.2c0-.1-1.2-2.1-1.2-2.1-.9.9-2.3,1.3-4.4,1.1-2.3-.2-4.4-.9-6.3-2.2-2.3-1.4-3.8-3.8-4.5-7.1l-.9-2.4h0c0,0-.7-1.1-.7-1.1l.2,1.2c0,.9-.6,1.4-1.6,1.6-.9.1-1.7-.2-2.4-1.1,0-.9-.4-1.4-1.3-1.3-.9,0-1.1.5-.8,1.3,1.3,1.6,1.2,3.4,0,5.4-1.4,2.1-3.5,2.6-6.2,1.3-1.5.7-3.5.2-6-1.2-2.8-1.7-4.5-4.1-5-7.1-.4.6-1,.9-1.9.8-.9,0-1.6-.5-2.2-1.2l.4-.6-.8.2-.2-.4-.6.4c-1.1.7-2.1.5-3.1-.5-1.4-1.2-1.9-3.4-1.7-6.3v-1.7c0,0,0-.2,0-.2.4-3.6,1.9-6.2,4.5-7.6l2.9-1.1h.4c0,0,2.8-.7,2.8-.7l1.4-.2.4,1.5c.1-.4.4-.7.8-.9.4-.2.9-.2,1.6,0v-.8c0,0,3.2-.2,3.2-.2,4.2-1,7.5-3.1,10-6.2l7.1-11.5c2.2-2,3.6-4.9,4.3-8.6,1.5-7.4-.9-14.6-7.1-21.7-4.8-4.6-8.7-6.4-11.7-5.7-1.8.4-3.9,2.6-6.3,6.2-2.5,3.6-4.7,5.8-6.7,6.5-3.2,1-7.5-.6-12.8-4.7-1.7,3.1-4,4.1-7.1,3.2-2.7-.8-4.9-2.9-6.6-6.2l-.9-.2c-.3,1.2-1.1,1.9-2.4,2.1-1.4,0-2.4-1.3-3.1-3.9-3.1-.8-4.6-2.1-4.2-3.9.2-1.3,1.1-2.6,2.6-3.8l-1.1-.9c-1.3-1.7-1.2-3.3.4-4.9,1.7-1.7,3.9-2.2,6.5-1.7h.3c.1-.7.5-1.2,1.1-1.6.7-.5,1.5-.5,2.4,0l.9.6c1.7,0,2.2-.7,1.4-2.1-.8-1.6-.7-2.4.5-2.6.7,0,1.8.5,3.2,1.7l1.7-.4c.3-.4.4-.8.1-1.2l.8-1.2,1.2-.6c.9-.7,1.4-1.7,1.4-2.7,0-1.4-.6-2.4-2.1-3.1-1.3-.6-2.3-.4-3.1.4l-3.3.7c-1.5.7-2.9.9-4.1.6l-1.8-1.7c-.7.4-1.4.6-2.2.5-1.1-.3-1.6-1.1-1.4-2.4,0-.5.7-1.3,2.2-2.5,1.3-1.1,1.8-1.9,1.6-2.5-.3-.6-1.1-.5-2.4.4-1.2.8-2.1,1.2-2.9,1.2l-2.2-.6-.7-.7c-2.2-.2-3.3-1.2-3.5-3-.1-1.1,0-1.9.6-2.5-2.2-1.1-2.2-2.1-.2-3.1l4.7.2c.3.9.8,1.4,1.6,1.6.7,0,1.2-.5,1.4-1.6,0-1.7.6-2.7,1.7-3.2,1-.6,3.2-.9,6.5-1.1l6.2-.2c2.2,1.7,2.9,4,1.9,6.9.7.8.2,1.6-1.3,2.3l-.4-.6h-.1l.4.6c-1.3.6-1.8,1.1-1.4,1.4,2.7-.6,3.9,0,3.7,1.7-.2,1.4-.7,2.3-1.6,2.6v.2c.3,1.3.7,2.2,1.3,2.7,2.9,1.4,4.8.1,5.8-3.9,1.4-5.6,3.2-9.2,5.5-10.6,7.9-4.5,9.5-11,5-19.7-3.7-5.8-8.2-9.5-13.7-11-5.9-.8-10.3-1.8-13.1-3.1-10.4-2.6-19.4-1.2-27.1,4.1l-.2,1.1c-.4,1.3-1.2,2.2-2.1,2.6l-2.6.2h0l-1.4,1.1-3.1-.4c-.9-.5-1.4-1.4-1.7-2.6-.1-.6,0-1,.2-1.3l-3.4.4c.4.6.7,1.6.7,2.9,0,2.4-.5,3.8-1.7,4.1l-1.4,1.9c-1.3,1-2.8,1.5-4.5,1.6-2.6,0-4.4-.2-5.7-1l-2.3-3.2c-1.7,2.7-4.4,3.1-8.1,1.2-1.4-.8-2.6-1.9-3.2-3.5-.4-1.1-.6-2.1-.5-3-.9-.7-1.5-1.4-1.6-2.2-.1-1.1.4-2.1,1.6-3,1.2-.9,2.1-1.1,2.9-.4-.9-1.5-1-3-.2-4.6h0c0-.1,4.1-2.9,4.1-2.9,4.6-3.1,8.4-2.8,11.2.9l2.6,4.3c.8,1.4,1.4,2.2,2,2.2.7,1.2,1.9,1.2,3.3.2,1.1,1,2.3,1.1,3.7.4,1.4-.7,2.1-1.7,2.1-2.7,1.9.5,2.9-.4,2.9-2.6s-.7-3.6-2.2-3.7c-2.6,0-3.8-1.2-3.8-3.8s1.5-3.4,4.5-2.6c-.8-.5-1.2-1-1.1-1.6.1-.6.5-.9,1.1-.9-4.6-1.7-6.1-3.6-4.5-5.6l.9-.9Z" fill="#e1d683" fill-rule="evenodd"/>
  <path d="M505.5,306.5l-.9.4c-1.1.2-2,0-2.7-.8-.4-.4-.2-.9.8-1.4,1-.5,1.8-.2,2.4.9l.5.9" fill="#583900" fill-rule="evenodd"/>
  <path d="M385.9,165.5v-.4.4M638.8,342h-1.1c0,0-1.7,0-1.7,0,.2-.9.5-1.4.8-1.5l1.7.2.2,1.2ZM687.3,243.8h0c0,.1.5.2.5.2l-.4-.2ZM697.4,243.3h-.2c0,0,.4.9.4.9v-.9ZM634.3,282.3l-1.5.7.7-1.2.2-.2.6.7ZM738.3,304.3l1.4.6-.6-1.1-.9.5ZM639.4,168.6l1.1-.2v.7l-.8,1-.3-1.5ZM406.1,180.1h.2c0,.1-.9.3-.9.3l.7-.3ZM20,253.6h0v-.6.6ZM633.4,187.3h0c0-.1.4-.6.4-.6l-.4.6ZM618.5,78.5h-.1c0,0-.4-.5-.4-.5l.5.5ZM702.1,112.9h0v.3c.1,0,0-.3,0-.3ZM564.4,213l-.4-.2.6-.7-.2.9ZM456.9,160.1h-.1c0-.1.1,0,.1,0ZM651.4,243.6l-1.1-1.3h0c0,0,1.4.4,1.4.4l-.2.9ZM650.8,248.1l.4-.4.6.6-1-.2ZM456.3,159.5l.7.7-.8-.6.6.3-.4-.4Z" fill="#ccc" fill-rule="evenodd"/>
  <path d="M420.2,195.2l.4-.7-.4.7M687.2,243.9h.5c0,.1-.5,0-.5,0ZM640.6,168.5h1.6c0-.1.1.7.1.7h-1.7v-.7ZM702.2,112.9v.3c.1,0,.1.1.1.1v.3c.1,0-.1-.7-.1-.7ZM618.5,78.5l-.4-.5h0l.5.5Z" fill="#e6dbc4" fill-rule="evenodd"/>
  <path d="M142.3,249.5v1.4h1.7c-1.2-.2-1.7-.7-1.7-1.4M254.5,256.3l-1.4.4.6-.9.8.4ZM443.5,195.1h1.4c0,.1-1.4.1-1.4.1h0Z" fill="#fc9" fill-rule="evenodd"/>
  <path d="M639.5,134.3c-1.9-2.4-3.4-3.4-4.6-3.1-.3,0-1.3.9-3,2.7l-8.4.7c-1.1.2-2.6.2-4.4,0-1.9-.2-3.5-.2-4.7,0-1.6.3-3.4.4-5.7.1l-3-.4c-1.2-2.3-3.3-3.7-6.1-4.1-2.8-.4-4.3.3-4.5,2.2-.4-.9-1.2-1.2-2.4-1-1.2.2-2,.8-2.4,1.7l-11.7-.4-2.6-2.4c-.6-.4-1.5-.2-2.6.6-4.1-.6-6.3-.3-6.6.7l-8.7-.4-4.2-.3h-.2c-1.6-1.7-3.2-3-4.7-3.7-2.3-1.1-3.8-.4-4.6,2-.6.3-1.4.5-2.6.6-.8,0-1.4.3-1.7,1-1.2-2.3-2.2-2.3-2.9,0-2.7-1.9-4.9-2.6-6.6-2.1-1.9,1.1-3.8,1.7-5.5,2-4.2.2-6.9.3-8.1.1-1.6-.2-2.2-.7-1.8-1.8-.7.3-1.7.2-2.9-.4-1.1-.6-1.7-1.3-1.9-2.2-.8-2.2,1.9-2.6,8.1-1.1,2.2.3,3.7,0,4.4-.9.6-.7.6-1.7,0-3.1-.6-1.2-1.5-2.3-2.8-3.1-.6-.4-1.1-.7-1.7-.8l-.7-.9c-1.1-.9-2.3-1.3-3.7-1.2h0c0,0,0-1.6,0-1.6-.1-.3-.5-.2-1.1.3-1.2,1.1-2.4,1-3.7,0-1.3-.9-.8-1.9,1.4-2.8,2.5,0,3.3-.8,2.4-2.2-.9-1.6-3.4-3-7.2-4.3-2.8-1.8-3.2-3.2-1.4-4.1,1.8-.9,4.4-.7,7.9.7,3.2,2.2,9.1,3,17.5,2.4l.8.4,3.1-.2c2.1-1.4,7.1-3.1,15.2-5.1-2.9,0-5.6-.6-7.9-1.5-2.7-2.4-7.7-2.8-15-1.1-2.1,1.6-3.6,2.2-4.4,1.9l-.7-.8-5.4.5h-.4c-3.6,0-4.7-.4-3.7-1.2,1.6.6,2.7.7,3.7.4h.3c1-.4.6-1-1.1-1.9-1.1-1.2-1.5-2-1.3-2.3,0-.3.6-.4,1.7-.4,3.5,0,5.9-.4,7.3-1.3.9-1.6,4.5-2.4,10.6-2.4h.9l8,.2h0,0c-1.8-1.8-3.4-2.6-4.6-2.2-1.8,1-2.9,1.5-3.4,1.6h-.7c0,0,0,0,0,0l-3.8-1.1c-4.8-3.6-9.5-3.6-14.2,0-1,.8-1.7,1.2-2.1,1.1l-1.1-1.1c-1.3-2-3.8-3.1-7.5-3.3l-4.7-1.2c-1.1-.3-1.6-.7-1.5-1.2,0-.6,2.6-3.4,7.7-8.5,1.9-2.3,2.3-4.1,1.1-5.3-1-1.1-3-1.7-6-1.9l-8.7.7c-3.2.7-5.4,1.6-6.8,2.8-2,2.5-2.2,4.2-.8,5.1,1.1.7,2.9.6,5.3-.3l-2-1.5c-1.8-2.6,1.5-3.6,9.9-2.9,4.2.4,5.1,2.2,2.7,5.3-2.1,2.7-4.5,4.6-7.4,5.6,0,1.4-.8,2.8-2.5,4.1l-5.5,3.2c-1.2-1.2-3.3-1.4-6.2-.6-3.2.9-6.2,2.9-9.1,6.1-.3-1.5-2.5-2.4-6.4-2.6l-9.3.4c-2.3-1.7-6.4-1.2-12,1.4-.5-.7-2.9-.7-7.3,0l-19.7,2.2c5.6,0,17,.2,34.3.7l5.1-1.5c2.9-.8,4.7-.9,5.4-.3-2.4,1.2-.4,2.1,6.2,2.4,6.5.4,11.9,0,16.1-1,.8.6.9,1.3.2,2,0,.7,2.8,1.8,8.1,3.1,2.6,2.4,3.7,4.7,3.4,7.2-.3,2.1-1.7,3.9-4.3,5.5-2.4,1.5-5.4,2.5-8.8,2.9-3.7.4-7.1.2-10.4-.7l-4.4-2.3c-1.4-.7-2.6-1.1-3.3-1-1.9.1-3.7,2.9-5.4,8.4-.9-2.4-2.4-3.7-4.7-4.1-2.7-.4-5.7,1-8.8,4.1-5.7-2.6-9.3-2.8-11-.5-.6.8-.9,1.8-.9,3s0,1,.2,1.4c-.7.7-1.4,1.6-1.8,2.7-.2-1.6-1.2-2.2-2.9-1.9-1.7.3-3.6,1.6-5.5,3.7-.4.9-.4,1.9,0,2.9.4.7.9,1.2,1.6,1.7-.8,1.1-2.5,1.4-5,1.1-3.3-.4-6.1-1.5-8.4-3.2-2.3,3.8-4.1,5.1-5.1,4.1.4-3.5-1.2-6.2-4.9-8.1-2.3-1.2-4.2-1.4-5.6-.6l-5.4.7h-.1l-5.4.7c-1.8,0-3.4-.8-4.9-2.7-5.4-6.2-11.8-8.6-19.3-7.3l-5.8.7-1.1-.2h-.2c-1.2-2.6-2.7-4.1-4.4-4.6-1.8-.5-3.4,0-4.9,1.6,1.6-3.8.6-4.9-3-3.3,0-3.4-1.8-4.1-5.4-1.9-1.3-1.5-2.7-1.8-4.4-1-1.7.9-2.1,2.2-1.1,4-2.4-.9-4-.6-4.6.7-.6,1.2-.4,2.2.6,2.9-1.3,2.1-.6,3.4,2,4,2.6.6,4.6-.1,6.1-2.1.8-1.2,1.7-1.9,2.7-2.2h1.6c.8.1,1.3.5,1.6.9.2.4.2,1-.1,1.6-.2,1.3.7,1.9,2.7,1.6,1.8-.3,3.1-.8,3.8-1.6.8,0,2.3.5,4.6,1.7,1.6.9,2.9,1.2,3.9,1.1-1.3.5-1.8,1.2-1.5,2.1.3.9,1.2,1.4,2.8,1.4-.1.3-.1.9,0,1.9-.1.8-.9,1.2-2.2,1.1,0,.9-.4,1.9-1.1,2.7-.9.9-1.9,1.3-2.9,1.3-2.7-1.9-6.9-2.8-12.5-2.6-2.4,0-3.9.4-4.6,1.1-.9.8-.4,2,1.4,3.4l-1.5.2c-3.7-1.6-7.3-2.2-10.8-2-3.7.1-5.9,1.2-6.5,3.3l-2.2-.2c-2.2.2-3.7,1.6-4.5,4.1-1.3-.6-2.4-.6-3.2.2-.4.4-.7.8-.8,1.2-2.1-.9-4.9-.7-8.4.4-5.6-1.4-10.5-1.6-14.8-.5-3.1.7-7.5,2.6-13.1,5.6-2.4.2-5.2.9-8.4,2.1l-.7.2v-.3c0,0-11.5.9-11.5.9l-9.6.7-3.6-.3-2.4-.8c-6.3-.9-12-1.1-17-.3l-6.1,1.4,15.1,1.1,20.7,1.5,2.8-.4c5.9.8,12.3.5,19.3-.9l4.7.9,10.4-.3,14.5-1.9c7.7,1.6,13.2,2.5,16.6,2.8,5.7.6,10-.1,13.1-2.1-1.6,1.2-2.5,2.1-2.7,2.6s0,.9.8,1.5c-1.6.8-2.2,1.8-1.9,2.9.2,1,1,1.9,2.4,2.6,1.4.7,2.9.9,4.4.9,1.1,0,2-.4,2.7-.9.8.6,1.9.8,3.1.7.6,1.4,1.7,2.1,3.5,2.2,1.5.1,3-.2,4.5-1.1l.9-.7c1.4,1.6,2.9,2.9,4.4,3.9,2.9,2,5.2,2.2,7.1.8l1-.9,1.9,2.4c2.1,2.9,1.3,4.2-2.2,3.9-2.6-.9-4.6-1.1-5.8-.3-3.1-2.6-6.1-3.2-9-1.9-1.2.5-2,1.2-2.3,2.3-.2.7-.2,1.5,0,2.2-4.2-.4-7.8.5-10.8,2.6-1.4.9-2.7,1.4-3.8,1.5-1.6,0-3.9-.6-6.7-2-2.2-1.9-4.4-2.7-6.7-2.4-2.2.2-2.9,1-2.1,2.4-3.3-2.1-6.2-1.4-8.7,1.9.7-3,.1-4.9-1.6-5.8-1.4-.7-2.7-.5-3.9.6-1.1-.5-2.1-.7-3.2-.6-1.6.2-2.8.7-3.7,1.8s-1.1,2-.5,2.9c.7,1.1,2.3,1.6,4.9,1.8-.8,1.1-.9,2.1-.4,2.9.4.7,1.2,1.1,2.4,1.2,1.1,0,2.1-.2,2.9-.9.9-.8,1.4-1.9,1.3-3.5.5,2.3,1,3.6,1.4,3.9.2.2.7-.1,1.4-.9.7.9,1.5,1.2,2.5,1.1,1.1-.1,1.3-1,.8-2.6,3.4,5.1,5.4,5.4,6,1.2.4.2.7.4,1.1.6h.2c1.5.5,3.4,0,5.6-1.2l12.4-.7c2.9-2,4.5-3,4.9-3.1.8-.2,2,.4,3.4,1.9l.4,1c.4,1.2,1.2,2.1,2.4,2.9,1.7,1.2,3.2,1.3,4.4.3l.9-.7.8,1.1h0c2.6,3.2,5.6,5.2,9,6.1,4.1.8,6.6-.6,7.7-4.4,5.2,2.3,8.7,2.2,10.5-.2h.2c0,0,1.3.1,1.3.1l3.2-1.3c1.7.2,2.9-.2,3.7-1.3h2.1c1.2-.2,2-.9,2.6-2,1.7.9,3.2,1.1,4.5.5,1.2-.7,1.1-1.7-.5-3.1.9.2,1.9,0,2.9-.6,1.1-.7,1.1-1.5,0-2.3,1.6.2,2.4-.2,2.4-1.3s-.8-1.5-2.4-1.3c-4-1.8-6.3-1.5-6.9.8l.4,2.3c.2.3.4.4.9.4-1.8,1.8-3.2,1.9-4.2.5-.3-.6-.8,0-1.4,1.9v.2h-.1c-.5-.4-1.2-.4-2.1,0-1.8-2.7-3.4-3.9-4.8-3.8.2-2-.1-4.1-.9-6.4-1.2-3.3-2.9-3.9-5.2-1.8.4-4.2-1.1-6.2-4.4-5.8-1.2.3-1.6.1-1.4-.7.1-.7.7-1.5,1.7-2.3,2.8-2.3,4.7-1.9,5.9,1.1,4.5,4.8,7.5,4.2,8.9-1.7,3.2,2.2,5.4,3.3,6.9,3.4,1.9,0,3-1.9,3.2-5.7,2,1.5,3.6,2,4.6,1.6.6-.2,1.5-1.2,2.7-3.1,1.2,1.1,2.3,1.6,3.2,1.4.9-.1,1.9-.9,3-2.4,1.9-1.1,3.4-1.3,4.6-.5h.2c.6.6,1.5,1.6,2.6,2.9-1.4.1-2.6.4-3.6.9-2.6,1.1-2.2,2.4,1.2,3.7-3.5,1.3-5.3,2.6-5.5,4.1-.2,1.2.7,2.3,2.8,3.2,1.9.9,4,1.4,6.2,1.4,1.9,0,3.2-.2,4.1-.8l.6-.5h0c0,0,0-.1,0-.1h.2c1.1-.9,1.6-2.6,1.6-5,0-.8.1-1.2.5-1.2.4,0,1.4.3,2.9,1.1,2.9,1.7,4.2,3.2,3.8,4.5-.4,1.2-1.7,1.4-4.1.6h-3.1c0-.1-1.1.4-1.1.4l-.7.9c-.8,1.8.5,2.7,4,2.7s7.9-.5,9.8-1.4c.9-.4,1.6-1,2.2-1.7,2.9,0,5.8.4,8.7,1.2,1.1.3,4.1,1.6,9.1,3.7,3.2,1.4,5.9,2.1,8.1,2,2.3-.2,4.7-1.2,7.2-3l6.5,1.1c3.2,0,6.5-1.6,9.7-4.9,2.9-2,6.4-3,10.4-3s5.9.5,10.9,1.4c4.8.9,8.5,1.3,10.9,1.2,3.9-.2,7.4-1.4,10.2-3.7-1.4.2-2.3-.7-2.6-2.9-.3-2.7-1.8-3.3-4.4-1.9-1.1-.8-2.2-1.2-3.6-1.1-1.5,0-1.9.7-1.2,1.9-1.1,0-1.7.4-1.9,1.1-.3.8.1,1.2,1.2,1.4l-.2.9-3.6.2c-2.8-.2-5.5-.9-8-2.2-2.4-1.3-4.9-2.2-7.4-2.7l-3.2-.3v.2c-1.6,1.2-2.7,1.9-3.3,2.1h-4.6c-1.7.2-4.3-.1-7.6-.9h-2.7c.7-1.9.6-3.6-.6-5.4-.5-.7-1-1.1-1.5-1.2-.1-1.7-.5-2.6-1.1-2.9-.7-.4-1.4,0-2.1,1.4-.2-.5-.9-.7-2-.7h-.6c0,0-.4,0-.4,0l-.6.2c-3.7-1.9-5.9-3.2-6.6-3.8-2.2-2-1.9-4.1,1-6.3,2.3-1.5,4.1-2,5.4-1.5,1,.4,1.5,1.2,1.5,2.6.2-2.3,1.4-3.6,3.9-3.6h1.3c2.7-2.4,5.1-3.5,7.2-3.3,1.6.2,4.3,1.1,8,2.9,4.2,1.2,7.8,1.7,10.9,1.6,1.7,1.7,3.2,2.9,4.4,3.7,2.6,1.8,4.6,2,6,.6l1.2,1c.6.6,1.1.9,1.5,1.1h.2c0,0,.1.1.1.1,6.1,3.9,11.9,4.5,17.3,1.8,3.6-1.6,7.8-2.1,12.7-1.6,2.4.2,7.2,1.2,14.6,3,5.3,1.3,7.2,1.2,5.9-.2-1.4-1.4-4.9-2.9-10.5-4.5-4.4-1.2-6.3-2-5.6-2.6l1.3-.9c.6-.4.6-.8.2-1.4,3.4,1.1,6.5,1.5,9.3,1.1,3.3-.5,4.2-2.1,2.7-4.7,2.6.9,5,1.1,7.4.7l1.7-.4c2.1,1.6,4,2.5,5.7,2.7,2.4.2,3.4-1.1,3.1-4.1,1.9,1.9,3.6,2.7,4.8,2.1,1.1-.5,1.4-1.4,1-2.8,2.2.9,6.5,1.6,12.8,2.3,6.9.7,11.9.7,14.9-.1,5.7.4,14.5.7,26.3.7,1.7,1.9,3.3,2.7,4.7,2.3,1.4-.4,1.5-2.1.4-4.8" fill="#c6b342" fill-rule="evenodd"/>
</svg>