<?xml version="1.0" encoding="UTF-8"?>
<svg id="Layer_1" xmlns="http://www.w3.org/2000/svg" version="1.1" viewBox="0 0 820.4 209.3">
  <!-- Generator: Adobe Illustrator 30.1.0, SVG Export Plug-In . SVG Version: 2.1.1 Build 136)  -->
  <path d="M564.3,87.3c0,1.8-.7,3.1-2,4.2l-5.6,3.5c-2.3-.2-4.3.7-6.2,2.7-.8,0-1.4.6-1.7,1.7v.3c-1.1.8-2.5,1-4,.7-2.1-.7-3.7-1.1-4.8-1.1-1.4,0-2.7.4-4.1,1.3-1.5,1-1.7,2-.6,3v.2c-.2,1.1-1,1.5-2.6,1.2l-4.2-1.5-.3-.3.3-.5c.2-.6.2-1.2-.2-1.9l.2-.5.6.2c2.5.6,3.7-.3,3.6-2.8,0-.9-.4-1.5-1.3-1.6-.9-.2-1.4-.6-1.5-1.4-.2-1.3,1-2.2,3.5-2.5h1.6c-.4-.5-.7-1.1-1-1.8-.6-1.8-.2-3.5,1.1-5.1,1.8-2.1,5.1-2.7,10-2.1,1.9.3,3.7.3,5.4,0l2.5-.6-.2.8c-.2,1.4.2,2.6,1.4,3.6,1.1,1,2.3,1.5,3.7,1.3,1.1,0,2-.7,2.5-1.9.6-1.2.3-2-.9-2.5.8-.3,1.6-.4,2.4-.3,1.6.3,2.4,1.4,2.3,3.4h0ZM283.8,65.9c-.2,1.1.2,1.6,1.2,1.7v.3s-2.9-.3-2.9-.3l-.6.9c-.8.9-1.8,1-2.8.1-.8-.6-1.1-1.5-.8-2.6.3-1.1,1-1.5,2-1.2,0-.9.4-1.4,1.3-1.3.8,0,1.5.4,2,1.1.7-1.1,1.4-1.2,2-.2.4.7.3,1-.3,1.1-.8.1-1.2.3-1.2.4h.2ZM294.1,108.9c2-.1,3.3-1.1,3.8-2.8.8,1.9,2.1,2.7,3.7,2.4l.8-.2c.6.3,1.5.3,2.5,0,1-.3,1.6-.7,2-1.4l.2-.8c1.2,1.5,2.8,2.5,5.1,3l1.8.3h1.6c1,.6,1,1.1,0,1.7h0c-1.1.6-1.9.4-2.6-.4,1,1.5.7,2.7-.9,3.5-1.7.9-3,.6-4.1-.8-.7,1.2-1.8,1.4-3.1.6-1.3-.7-2-1.8-2-3-.6,1.1-1.5,1.2-2.7.3l-1.2-1.1c-.8,1.3-2,1.3-3.5.1l-1.4-1.4h0ZM265.7,88.3v.7c1.2,0,2.1.7,2.5,2.1.2.5.1.8,0,1l-1.1-.2c.2,1.4-.2,2.6-1.5,3.7-1.3,1.1-2.6,1.4-3.9.8-1.1-.5-1.4-1.1-.9-2,.7-1.2,1-2,.8-2.5-3,1.6-4,.7-2.7-2.7-.9-.1-1.4-.4-1.2-.7l.4-.6c.7-.7,1.5-1.1,2.4-1.2.7,0,1.6.2,2.7.8,1.2.6,2,.9,2.6.9h0ZM169,106.3l-.3.3-.9.2-.7-.4c-.3.5-.7.8-1.3.7-.6,0-1-.4-1.2-1h-3.9c0,1,0,1.5-.5,1.6-.4,0-.9-.1-1.5-.6-.6-.5-.8-1-.9-1.4,0-.5.3-.7,1.1-.7-1.1-.4-1.2-1-.5-1.7s1.6-1,2.5-.7l.2,1.4c1.3-.3,1.9,0,1.8,1.3l5,.2c-1-1.2,0-1.8,2.6-1.8,2.6,0,4.2.2,4.7.6-.6-1.2-.2-1.7,1.2-1.6.5,0,.8.2,1.1.4.2.2.1.5-.3.8l2.5.2c.2-.8,1-1.3,2.1-1.2l2.8.5c.5-1.3,1.3-1.4,2.3-.3,0-.8.6-1.3,1.4-1.4.6,0,1,0,1.2.4v.8l.2.7c-.6.6-.8,1.3-.7,2l-8-.3c-1.5.6-2.7,1-3.8,1.2-1.8.3-2.8,0-2.9-1.2h-1.7v.7l-3.2.3v-.3" fill="#efeab8" fill-rule="evenodd"/>
  <path d="M500.6,44.4c-6.7-3.6-11.9-6.3-15.5-7.9-6.3-3-11-4.7-14.2-5.1l-15.6-1.4c-3.1-.2-5.5-.6-7.2-1.2,2.1,1,3.9,1.6,5.5,1.8l7,.7c10.9,2.3,17.3,4.5,19.4,6.7,3.5,1.8,5.8,3.1,7.1,4.1,1.7,1.4.4,1.6-3.7.6-4.5-1-9.2-1.5-14.2-1.6h0v.2s7.8,1.4,7.8,1.4c4.9,1.2,6.2,2.2,4,3-3.1-.4-6.4-.4-9.8,0v.2l10.5,1.2c5.2.8,4.4,1.3-2.3,1.3l-21.4.8c-5.4.6-9.8.5-13.3-.2l-14.7-1.3c-3-.4-3.3-1.3-1.2-2.6,1.6-1.1,1.4-2-.5-2.6l-5.9-.5c-5.1,0-8.9-.8-11.2-2.1-.9-.5-.9-.8,0-1,1-.2,3-.2,5.9,0,9.8.4,19.4-.2,28.9-1.8,3.6-.6,5.3-1.2,5.1-1.6l-8.1-.4-24.8.9-13-.3c-3.6-.9-7.1-1.2-10.2-.7l-7.5,1.2c5.8-.4,10.1-.2,12.6.6,1.8.6,4,2.2,6.6,4.7,2.1,2,4,3.1,5.8,3.4l5.6.5c3.7.8,5.7,1.5,6.1,2.1.4.8-1.3,1.4-5.2,2.1l-12.3,1.4,14.8.9c3.8.8,6.5,1.5,8,2.2,1.8.8,1.2,1.3-1.6,1.4-1.3,0-2.6-.4-3.9-.8l-3-.9c-2.3-.5-5.1,0-8.6,1.4-2.8,1.1-4.9,2.5-6.1,4.2-1.1,1.5-3.5,3-7.4,4.5,7.6-2.6,11.9-4,13-4.2,1.2-.1,2.3,0,3.3.5.6.3,1.9,1.1,3.6,2.4,6.8,3.5,15.3,4.2,25.6,2.2v-.4c.1,0-5-2-5-2-2.8-1.3-5-2-6.5-2.1-3-.3-5-1.2-5.9-2.6-.8-1.3,1.5-1.5,7-.5l13.5.8c1.6-.1,3-.5,4.6-1.1,3.8.4,7.3.2,10.4-.8,1.9-.6,4.6-1.7,8.2-3.3,4.7-.8,8.7-.8,12.2,0,2,.4,4.5,1.2,7.6,2.4l15.8.8c1.9.1,2.6.5,2.2,1.1-.5.7-2.6,1.9-6.3,3.6l-17.5,5.3c-2.8.8-5.9,1.2-9.2,1-5.7-.1-9.6.4-11.5,1.9-2.4,1.8-.2,4,6.5,6.7,3.9,1.7,7.3,3.9,10.2,6.8,2.8,2.8,4.8,5.7,5.9,8.8,1.1,3.3,1.2,6.2,0,8.9-1.2,3-3.7,5.2-7.4,6.9-9.6,4.6-16.1,6.9-19.6,6.8-1.3,0-2.6-.4-3.9-1-2.1-1-3.4-1.6-4-1.8l-2-.5c-.6-2.2-1.9-4.3-3.8-6.3-3-3.2-6.1-4.4-9.2-3.8-2.4-3.1-6.4-3-12,.4,0-2-.6-4-1.8-6-2.3-4.2-5.5-5.9-9.6-5.2-1.3-3-3.1-4.8-5.6-5.1l-6.9.4c-.4-1.4-1.2-2.6-2.4-3.9-1.8-1.7-3.8-2.8-6.2-3.4-2.6-.6-5.2-.3-7.6.8-2.7,1.3-5,3.5-6.8,6.6-6.8-2.6-12-1.4-15.4,3.6-2,3-3,6.1-3.2,9.6h-3.7c-3,.6-5.1,1.7-6.1,3.5-2.3-.9-4.7-1.1-7.2-.4-2.6.7-4.8,1.9-6.6,3.8-4.4,1.4-6.8,4.7-7.2,10-2.8,2.1-3,4.8-.8,8,.9,1.2,2,2.3,3.2,3.2,1.2.9,2.3,1.4,3,1.5-2.4,2.7-3.5,5.9-3.1,9.6.3,3.5,1.8,6.1,4.2,7.9,1.7,4,4.5,6.2,8.4,6.6l4.5-.3c.3,2.6,1.4,5.1,3.2,7.6,2.4,3.3,5.1,5,8.1,5.3,1.6,1.8,3.7,3.2,6.5,4.2,2.6,1,5.4,1.3,8.2,1.1,3.5-.2,6.4-1.3,8.5-3,3.8,5,8.4,6.4,14,4.4,4.9,1.9,8.7,1.8,11.3-.2l2.3-2.2c.7-.6,1.4-.8,2.1-.6,4.1-.3,7.1-1.6,8.8-3.6.5-.6,1.3-2.2,2.5-4.7,4.4.4,8.8-.8,13.3-3.7,4.4-2.9,7-6.3,7.8-10.3,1.2.4,2.5.6,4,.5,6.1,0,10.4-3.5,13-10.2,1.7-3.9,3.9-6.5,6.5-7.8,2.1-1.1,4.7-1.4,7.7-1.1,1.8.2,4.6.7,8.4,1.6l8.5.3c4.2-.8,7.9-2.5,11.1-5,3.1-2.4,5.2-5.2,6.5-8.5,1.3-3.4,1.4-6.8.3-10.2-1.1-3.7-3.5-7-7.2-9.9-9-7.2-14.4-13.5-16.2-18.9-1.8-5.5.8-8.2,7.8-8.1,12.8,0,21.9-.7,27.1-2.1,6.4-1.8,8.7-4.9,7.1-9.2-1.8-4.1-4.3-6.7-7.4-7.7l-3.5-1c-1.3-.5-2.3-1.3-3-2.4-1.9-2-4.3-2.6-7.2-2.1l-3.4.8c-1.3.2-2.5,0-3.5-.3h-.2ZM406.8,70.7q0-.1,0,0ZM388.3,93.9c2,.4,3.1,1.4,3.4,2.9v.6c-1.5,0-2.6-.7-3.1-1.9-.3-.5-.4-1.1-.3-1.7h0ZM238.6,105.1h1c-.7,0-1-.4-1-.8v.8ZM210.9,95.3v.7-.7ZM198.2,105.8h-.2c0-.1.1-.5.1-.5v.5h0ZM189.4,103.8q0,0,0,0ZM496.7,82.3h0c0,.1,0,.1,0,.1-.9,0-1.4-.3-1.5-.6.3-.5.6-.7.9-.5.3.2.5.5.6,1h0ZM478.9,83l-.3.4h.2c0,0,.1-.4.1-.4" fill="#e0d47f" fill-rule="evenodd"/>
  <path d="M448.3,52.9v.4c0,1.5-.6,2.7-2,3.6-1.5.9-2.7.7-3.8-.7-.8-1.1-.7-2.4.2-3.9h0c1-1.5,1.7-1.6,2.2-.5-.1-1.2.1-2,.9-2.3.6-.2,1.3,0,2.1.4.8.5,1.2,1,1.2,1.6s-.3,1-1,1.2h0ZM517.8,55.8c1.2-.4,1.7.6,1.3,2.9h-.2l-1.6.6c-1.5.8-2.3,2.3-2.6,4.3h0c-1.7.3-2.7-.2-3-1.7-.4-.3-.7-.9-.7-1.6-.7,1-1.8.8-3.3-.5-.6-.4-.8-1.1-.7-2.1s.5-1.8,1.2-2.5c1.7-2,3.8-1.7,6.2.9.2-.6.6-.9,1.3-.8.2-.3.5-.5,1-.5.5,0,1,.3,1.3.9h0ZM511.5,59.1c-.3.4-.5.9-.4,1.3l.4-1.2h0ZM565.1,81.8c-1.1-.5-2.5-.5-4.2,0-1.6.4-2.5,1.2-2.7,2.3h1.5c.8-.2,1.6-.3,2.4-.2,1.6.2,2.4,1.4,2.3,3.4,0,1.7-.7,3.1-2,4.2l-5.6,3.5,1.5.2,3.5.4c1.5-.2,2.9-1.2,4.5-2.8,2.4-.5,3.7-2.4,4.1-5.6.2-1-.1-2.1-1.2-3.3-1.1-1.2-2.5-2-4-2.3h0ZM525.8,96c.4-4.3,3.1-6.1,8.3-5.5.2.7.6,1.3,1,1.9h-1.6c-2.5.3-3.7,1.2-3.5,2.5,0,.7.6,1.2,1.5,1.4.8.2,1.2.7,1.3,1.7,0,2.4-1.1,3.3-3.6,2.7l-.6-.2-.8-.3-.7-.5v.2c.2,0,.4.2.7.3,0,0,.7.8.7.8.4.7.4,1.3.2,1.9l-.3.5-.2.2c-1.1,0-2.5.3-4.2,1.2l-.2-.3c-.2.2-.6.4-1.1.3-.7,0-1.5-.5-2.3-1.4-.8-.9-1.1-1.7-1.1-2.6,0-1,.8-1.6,2.2-2-1-1.1-.3-1.6,1.9-1.7h2.6v-1h0ZM522.7,107.2h.2c0,0-.6,1.3-.6,1.3-.9,1.5-1.1,2.7-.4,3.8l4.7-.2c.9-.7,1.3-1.4,1.2-2.2h.2c0-.1,1.2,1.9,1.2,1.9.7.8,1.8,1.2,3.3,1.1v.2c.9-.2,1.6,0,2.3.7,1.2,1.2,1.3,3.2.2,6-.7,2.1-2,3.4-3.7,4-1.7.6-3.5.4-5.5-.6l-3.7-2.1-1.4-.7c-1.9-1-3.8-1.4-5.8-1.1-5,.7-7.9,3.9-8.9,9.5-4.7-.4-8.6.1-11.8,1.6-.3,1-1.1,1.5-2.3,1.2h-.2c-1.3-.3-1.9-1.1-1.9-2.4h-2s-.3-.8-.3-.8c-.2,1.2-1.4,1.8-3.5,1.7-2,0-3.5-.6-4.3-1.6-.5,0-1,0-1.4.6,1.6.7,2.2,2,1.7,3.7-.4,1.8-1.5,3-3,3.7-1,.4-2.5.3-4.3-.3l-1.5-.5c-.5.4-1.2.6-2.2.6-1.6,0-2.9-.7-3.9-1.9-.4,1-1.4,1.5-3,1.5-1.7,0-3.2-.7-4.5-2-1,.9-2.5,1.3-4.5,1.1-2.1-.2-3.8-.8-5-2.1l-1.7-2.1-.6-.2-1.1,1.2c-1,.8-2.3,1.2-3.9,1.3-4,.2-6.2-1.2-6.5-4.2-.3-2.5.9-4.4,3.7-5.8,2.4-1.2,4.5-1.4,6.4-.6-.5-.4-.6-.9-.2-1.4.5-.7,1.3-1.1,2.4-1.2l3.3.2c1.2,0,2.3-.4,3.1-1.3,1.7-1.8,1.4-3.3-1-4.3-1.9-.8-3.4-.8-4.7,0h-1.1c-1.4,0-2.6.5-3.5,1.4l-2.6,2.4c-1,.7-2.1.8-3.3.4-1.1-.4-2.2-1.2-3.1-2.3-.6-.7-1.1-1.4-1.3-2-2.9,1.5-4.9,1.1-6-1,.1,1.7-.7,2.3-2.5,1.9-1.5-.3-2.4-1.2-2.5-2.5h0c0,0,0,0,0,0l-.9-.5c-1.1-.7-1.4-1.6-1.1-2.6-3.9-.3-6-1.6-6.3-3.9-.3-2.5,1.4-5.1,5.3-7.7,2.6-1.7,6.2-3,10.7-3.9l.2.8c-2.5.4-5.1,1.5-7.7,3.1-4.8,2.2-7,4.4-6.6,6.8.3,1.9,2,3,5,3.7l.2-.3c2-2.4,4.8-2.8,8.6-1.3.2-.6.7-1.2,1.5-2,1.9-1.9,3.7-2.8,5.3-2.9,2,0,3.8.3,5.2,1l2.6,1.9,1.4.8v-.7c.3-.9.7-1.7,1.6-2.4,1-.9,2.6-1.3,5-1,2.3.2,3.9,1,5,2.5l1.1,2c.4.5.8.6,1.1.3v-.5c.2-2.2,2-2.7,5.2-1.7v.2-.2c.8-.8,2-1,3.5-.8,1.2.2,2,.6,2.4,1.4.4-.3,1.3-.4,2.4-.3,1.1,0,1.9.6,2.5,1.5.5.9.6,2,.3,3.2-.8,3.2-3.4,5.7-7.7,7.6-3.8,2-5.2,4.1-4.3,6,.4.7,1.1,1.3,2.1,1.6l2.1.2c-.3-.5-.4-1-.3-1.5,0-.7.6-1.4,1.5-1.7,2.2-1,5.3-.5,9.5,1.6-.4-1.5.3-2.6,2.1-3.4,2-.8,4.5-.6,7.4.6-1-1-.8-2,.7-3,1.5-1,3.3-1,5.5,0,2,1.3,3.6,2,5.1,2s3.2-.6,4.9-2c1.7.9,3.4.6,4.8-.8.9-.9,1.4-1.9,1.6-2.8-.8.8-2,.8-3.4,0-2.3-1.3-2.9-3.1-2-5.6,1.3-3.3,4.2-4.5,8.6-3.4,1.7.4,4.2,2.1,7.7,5,3,1.9,5.3,1.3,7.2-2,1.2.4,2.3.3,3.2-.5.9-.8,1.4-1.8,1.4-3-.6-.2-1.1-.6-1.5-1.2-.5-.8-.6-1.9-.2-3.1.4-1.2,1-2.1,1.7-2.6.8-.6,1.9-.7,3.1-.3l2.7.3-15.5,10.2ZM445.1,136.3l.3.5-.6.2c-.6.1-1.1,0-1.5-.4-.2-.2,0-.5.4-.8.5-.2,1,0,1.4.6ZM388.6,95.6c-.3-.6-.4-1.1-.3-1.7,2,.4,3.1,1.4,3.4,2.9v.6c-1.5,0-2.6-.7-3.1-1.8" fill="#e4da8d" fill-rule="evenodd"/>
  <path d="M521.6,38.7c-1.1-1.4-2-1.9-2.6-1.7-.2,0-.7.5-1.7,1.5l-4.8.4c-.6.1-1.5.1-2.5,0-1.1,0-2,0-2.6,0-.9.2-2,.2-3.3,0l-1.7-.2c-.7-1.3-1.9-2.1-3.5-2.3-1.6-.2-2.5.2-2.6,1.2-.2-.5-.7-.7-1.4-.6-.7,0-1.1.4-1.4,1l-6.6-.2-1.5-1.4c-.3-.2-.8,0-1.5.3-2.4-.3-3.6-.2-3.7.4l-5-.2-2.4-.2h-.1c-.9-1-1.8-1.7-2.6-2.1-1.3-.6-2.2-.2-2.6,1.1-.3.2-.8.3-1.5.3-.4,0-.8.2-1,.6-.7-1.3-1.2-1.3-1.7,0-1.5-1.1-2.7-1.5-3.7-1.2-1.1.6-2.2,1-3.1,1.1-2.4.1-3.9.2-4.6,0-.9,0-1.2-.4-1-1-.4.2-1,0-1.6-.2-.6-.3-1-.7-1.1-1.2-.4-1.3,1.1-1.5,4.6-.6,1.2.2,2.1,0,2.5-.5.3-.4.3-1,0-1.7-.3-.7-.8-1.3-1.6-1.8-.3-.2-.6-.4-1-.4l-.4-.5c-.6-.5-1.3-.7-2.1-.7v-.9c0-.2-.3,0-.6.2-.7.6-1.4.6-2.1,0-.7-.5-.4-1.1.8-1.6,1.4,0,1.9-.4,1.4-1.3-.5-.9-1.9-1.7-4.1-2.5-1.6-1-1.9-1.8-.8-2.3,1-.5,2.5-.4,4.5.4,1.9,1.2,5.2,1.7,10,1.4l.4.2h1.7c1.2-.9,4.1-1.9,8.6-3-1.7,0-3.1-.3-4.5-.8-1.5-1.4-4.4-1.6-8.5-.6-1.2.9-2.1,1.2-2.5,1.1l-.4-.4-3,.3h-.2c-2,0-2.7-.2-2.1-.7.9.3,1.6.4,2.1.2h.2c.6-.2.3-.6-.6-1.1-.6-.7-.8-1.1-.7-1.3,0-.2.3-.2,1-.2,2,0,3.4-.2,4.2-.7.5-.9,2.6-1.4,6-1.4h5.1c-1-.9-1.9-1.3-2.6-1.1-1,.6-1.7.8-2,.9h-.4l-2.2-.6c-2.7-2-5.4-2-8.1,0-.6.4-1,.7-1.2.6l-.6-.6c-.7-1.1-2.2-1.8-4.3-1.9l-2.7-.7c-.6-.2-.9-.4-.8-.7,0-.3,1.5-2,4.4-4.8,1.1-1.3,1.3-2.3.6-3-.6-.6-1.7-1-3.4-1.1l-5,.4c-1.8.4-3.1.9-3.9,1.6-1.1,1.4-1.3,2.4-.4,2.9.6.4,1.6.3,3-.2l-1.1-.8c-1-1.5.8-2,5.6-1.6,2.4.2,2.9,1.3,1.5,3-1.2,1.5-2.6,2.6-4.2,3.2,0,.8-.4,1.6-1.4,2.3l-3.1,1.9c-.7-.7-1.9-.8-3.5-.3-1.8.5-3.5,1.7-5.2,3.4-.2-.8-1.4-1.4-3.7-1.5l-5.3.2c-1.3-1-3.6-.7-6.9.8-.3-.4-1.7-.4-4.2,0l-11.2,1.2c3.1,0,9.7,0,19.5.4l2.9-.8c1.7-.4,2.7-.5,3.1-.2-1.4.7-.2,1.2,3.5,1.4,3.7.2,6.8,0,9.2-.6.4.3.5.7.1,1.1,0,.4,1.6,1,4.6,1.8,1.5,1.4,2.1,2.7,2,4.1-.2,1.2-1,2.3-2.5,3.1-1.4.8-3,1.4-5,1.7-2.1.2-4.1.1-5.9-.4l-2.5-1.3c-.8-.4-1.5-.6-1.9-.6-1.1,0-2.1,1.7-3,4.8-.5-1.4-1.4-2.1-2.6-2.4-1.6-.2-3.2.6-5,2.4-3.2-1.5-5.3-1.6-6.2-.3-.3.4-.5,1-.5,1.7s0,.6,0,.8c-.4.4-.8.9-1,1.5,0-.9-.7-1.3-1.6-1.1-1,.2-2,.9-3.1,2.1-.2.5-.2,1.1,0,1.7.2.4.5.7.9,1-.4.6-1.4.8-2.8.6-1.9-.2-3.5-.8-4.8-1.8-1.3,2.2-2.3,2.9-2.9,2.3.2-2-.7-3.5-2.7-4.6-1.3-.7-2.4-.8-3.2-.3l-3,.4h0l-3.1.4c-1,0-2-.4-2.7-1.5-3-3.5-6.7-4.9-11-4.2l-3.3.4h-.6c0,0,0,0,0,0-.7-1.5-1.5-2.4-2.5-2.6-1-.3-2,0-2.7.9.9-2.2.3-2.7-1.7-1.9,0-2-1-2.3-3.1-1.1-.7-.8-1.6-1-2.5-.6-1,.5-1.2,1.2-.6,2.3-1.4-.5-2.3-.3-2.6.4-.3.7-.2,1.2.3,1.6-.7,1.2-.3,1.9,1.1,2.3s2.6,0,3.4-1.2c.4-.7,1-1.1,1.6-1.3h.9c.4,0,.7.3.9.5,0,.2,0,.6,0,.9,0,.7.4,1.1,1.6.9,1-.2,1.8-.4,2.2-.9.4,0,1.3.3,2.6,1,.9.5,1.6.7,2.3.6-.7.3-1,.7-.8,1.2.2.5.7.8,1.6.8,0,.2,0,.5,0,1.1,0,.4-.5.7-1.2.6,0,.5-.2,1.1-.6,1.5-.5.5-1.1.7-1.6.7-1.6-1.1-3.9-1.6-7.2-1.5-1.4,0-2.3.2-2.6.6-.5.4-.2,1.1.8,2h-.8c-2.1-.7-4.2-1.1-6.1-1-2.1,0-3.4.7-3.7,1.9h-1.2c-1.2,0-2.1.7-2.6,2.2-.7-.3-1.4-.3-1.9,0-.2.2-.4.4-.4.7-1.2-.5-2.8-.4-4.8.2-3.1-.8-6-.9-8.4-.3-1.8.4-4.3,1.5-7.5,3.2-1.4.1-2.9.5-4.8,1.2h-.4c0,.1,0,0,0,0l-6.5.5-5.5.4-2-.2-1.4-.4c-3.6-.5-6.8-.6-9.7-.2l-3.5.8,8.6.6,11.8.8,1.6-.2c3.3.4,7,.3,11-.5l2.7.5,5.9-.2,8.2-1.1c4.4.9,7.5,1.4,9.5,1.6,3.2.3,5.7,0,7.5-1.2-.9.7-1.4,1.2-1.5,1.5s0,.5.4.8c-.3.2-.5.4-.4.7,0,.2.2.4.6.6.3.1.7.2,1,.2.2,0,.4,0,.6-.2.2,0,.4.2.7.1.3.8,1,1.2,2,1.3.8,0,1.7-.1,2.6-.6l.5-.4c.8.9,1.7,1.7,2.5,2.3,1.7,1.1,3,1.3,4,.4l.6-.5,1.1,1.4c1.2,1.7.7,2.4-1.3,2.2-1.5-.5-2.6-.6-3.3-.2-1.8-1.5-3.5-1.8-5.1-1.1-.7.3-1.1.7-1.3,1.3-.1.4-.1.8,0,1.3-2.4-.2-4.5.3-6.1,1.5-.8.5-1.6.8-2.2.8-.9,0-2.2-.3-3.8-1.1-1.2-1.1-2.5-1.5-3.8-1.4-1.2,0-1.6.6-1.2,1.4-1.9-1.2-3.5-.8-5,1.1.4-1.7,0-2.8-.9-3.3-.8-.4-1.5-.3-2.2.3-.6-.3-1.2-.4-1.8-.3-.9,0-1.6.4-2.1,1-.5.6-.6,1.1-.3,1.6.4.6,1.3.9,2.7,1-.4.6-.5,1.2-.2,1.6.2.4.7.6,1.4.7.6,0,1.2-.1,1.7-.5.5-.4.8-1.1.7-2,.3,1.3.6,2.1.8,2.3.1,0,.4,0,.8-.5.4.5.8.7,1.4.6s.7-.6.4-1.5c2,2.9,3.1,3.1,3.4.7.2.1.4.2.6.3h0c.8.3,1.9,0,3.1-.7l7-.4c1.6-1.1,2.6-1.7,2.7-1.7.4,0,1.1.2,2,1.1l.2.6c.2.7.7,1.2,1.4,1.7,1,.7,1.8.7,2.5.2l.5-.4.4.6c1.5,1.9,3.1,3,5.1,3.4,2.3.4,3.8-.3,4.4-2.5,3,1.3,5,1.3,6,0h.8s1.8-.7,1.8-.7c1,0,1.7-.1,2.1-.7h1.2c.7-.1,1.1-.5,1.5-1.1,1,.5,1.8.6,2.6.3.7-.4.6-1-.3-1.7.5,0,1.1,0,1.6-.3.6-.4.6-.8,0-1.3.9,0,1.4-.1,1.4-.7s-.4-.8-1.4-.7c-2.3-1-3.6-.8-3.9.4l.2,1.3c0,.2.2.2.5.2-1,1-1.9,1.1-2.4.3-.2-.3-.4,0-.8,1.1h0c0,.1,0,.1,0,.1-.3-.2-.7-.2-1.2,0-1-1.5-1.9-2.3-2.7-2.2,0-1.1,0-2.4-.5-3.7-.7-1.9-1.7-2.3-2.9-1,.2-2.4-.6-3.5-2.5-3.3-.7.2-.9,0-.8-.4,0-.4.4-.8,1-1.3,1.6-1.3,2.7-1.1,3.3.6,2.6,2.7,4.3,2.4,5.1-1,1.8,1.2,3.1,1.9,3.9,1.9,1.1,0,1.7-1.1,1.8-3.2,1.1.8,2,1.1,2.6.9.3-.1.8-.7,1.5-1.7.7.6,1.3.9,1.8.8.5,0,1.1-.5,1.7-1.4,1.1-.6,2-.7,2.6-.3h.1c.3.3.8.9,1.5,1.6-.8,0-1.5.2-2,.5-1.5.6-1.2,1.4.7,2.1-2,.7-3,1.5-3.1,2.3,0,.7.4,1.3,1.6,1.9,1.1.5,2.3.8,3.5.8,1.1,0,1.9,0,2.4-.4l.3-.3h0s0,0,0,0c.6-.5.9-1.5.9-2.8s0-.7.3-.7.8.2,1.6.6c1.7,1,2.4,1.8,2.2,2.6-.2.7-1,.8-2.4.3h-1.7s-.6.2-.6.2l-.4.5c-.4,1,.3,1.5,2.3,1.5s4.5-.3,5.6-.8c.5-.2.9-.6,1.2-1,1.7,0,3.3.2,5,.7.6.2,2.3.9,5.2,2.1,1.9.8,3.4,1.2,4.6,1.1,1.3,0,2.6-.7,4.1-1.7l3.7.6c1.9,0,3.7-.9,5.5-2.7,1.7-1.1,3.6-1.7,5.9-1.7s3.3.3,6.2.8c2.7.5,4.8.7,6.2.7,2.3,0,4.2-.8,5.8-2.1-.8.1-1.3-.4-1.5-1.6-.2-1.5-1-1.9-2.5-1.1-.6-.4-1.3-.7-2.1-.6-.8,0-1.1.4-.7,1.1-.6,0-1,.2-1.1.6-.2.4,0,.7.7.8v.2s-.9,0-.9,0c-.6,0-1.3-.2-1.8-.5-.6-.3-1.2-.5-1.8-.6h-.8c-.3.2-.6.4-.7.4h-1.1c-.4,0-1,0-1.8-.2h-.6c.2-.4,0-.8-.1-1.3,0-.1-.2-.2-.3-.3,0-.4,0-.6-.3-.7-.1,0-.3,0-.4.3,0,0-.2-.2-.5-.2h-.3c-.8-.4-1.4-.7-1.6-.8-.5-.4-.4-.9.2-1.5.5-.3,1-.4,1.3-.3.2,0,.3.3.3.6,0-.5.3-.8.9-.8h.3c.6-.5,1.2-.8,1.7-.8.4,0,1,.3,1.9.7.9.3,1.8.4,2.6.3.4.4.8.7,1,.9.6.4,1.1.4,1.4,0l.3.2c0,.1.2.2.3.2h0c1.4.9,2.8,1.1,4,.4.8-.3,1.8-.5,3-.3.5,0,1.7.3,3.4.7,1.2.3,1.7.3,1.3,0-.3-.3-1.1-.7-2.5-1.1-1-.3-1.5-.4-1.3-.6l.3-.2c0,0,.1-.2,0-.3.8.3,1.5.3,2.2.2.8,0,1-.5.6-1.1.6.2,1.2.3,1.7.2h.3c.5.3.9.5,1.3.5.6,0,.8-.2.7-.9.4.4.8.6,1.1.5.3,0,.3-.3.2-.7.5.2,1.5.4,3,.5,1.6.1,2.8.1,3.5,0,1.3,0,3.4.2,6.1.2.4.4.8.6,1.1.5.3,0,.3-.5,0-1.1" fill="#c6b342" fill-rule="evenodd"/>
  <path d="M764.1,110c0,2.1-.9,3.7-2.5,4.9l-7,4.1c-2.8-.2-5.4.9-7.7,3.1-1,0-1.8.7-2.1,2v.4c-1.4.9-3.1,1.1-5,.8-2.6-.9-4.7-1.3-6-1.3-1.7,0-3.4.5-5.1,1.5-1.8,1.1-2.1,2.3-.7,3.5v.2c-.2,1.3-1.3,1.7-3.2,1.4l-5.3-1.7-.4-.4.4-.6c.3-.7.2-1.4-.2-2.2l.2-.6.8.2c3.1.7,4.6-.4,4.5-3.3,0-1.1-.6-1.7-1.6-1.9-1.1-.2-1.7-.7-1.8-1.6-.2-1.5,1.2-2.5,4.4-2.9h2c-.6-.6-.9-1.3-1.2-2.1-.7-2.1-.2-4.1,1.3-6,2.2-2.5,6.4-3.2,12.5-2.5,2.3.3,4.6.4,6.8.1l3.1-.7-.2,1c-.2,1.6.3,3,1.7,4.2,1.3,1.2,2.9,1.7,4.6,1.5,1.3-.1,2.5-.9,3.1-2.2.7-1.4.4-2.3-1.2-2.9,1-.4,2-.5,3-.4,2,.3,2.9,1.7,2.9,4h-.1ZM413.4,85.1c-.3,1.3.2,1.9,1.5,2v.4c0,0-3.7-.4-3.7-.4l-.7,1.1c-1,1-2.3,1.1-3.6.2-1-.7-1.3-1.7-1-3,.4-1.3,1.2-1.8,2.5-1.4,0-1.1.6-1.6,1.7-1.5,1,0,1.8.5,2.5,1.3.9-1.3,1.8-1.4,2.5-.3.5.8.4,1.2-.4,1.3-1,.2-1.5.3-1.5.5h.2ZM426.4,135.3c2.5-.2,4.1-1.3,4.8-3.3,1,2.2,2.6,3.1,4.6,2.7l1-.3c.8.4,1.8.4,3.1,0,1.2-.4,2-.9,2.5-1.6l.3-1c1.5,1.7,3.6,2.9,6.4,3.5l2.3.4h2c1.2.7,1.2,1.3,0,2h-.1c-1.3.7-2.4.5-3.2-.5,1.3,1.8.9,3.2-1.1,4.1-2.1,1-3.8.7-5.1-.9-.9,1.4-2.2,1.6-3.9.7-1.7-.9-2.5-2.1-2.5-3.5-.8,1.3-1.9,1.4-3.4.4l-1.5-1.3c-1,1.5-2.5,1.5-4.4.2l-1.7-1.6h0ZM390.8,111.3l-.2.9c1.7,0,2.8.9,3.2,2.4.2.6.2,1,0,1.2l-1.3-.3c.3,1.6-.3,3-1.8,4.3-1.6,1.3-3.2,1.6-4.9.9-1.3-.6-1.8-1.3-1.2-2.3.9-1.4,1.2-2.3,1-2.9-3.8,1.9-5,.8-3.4-3.2-1.2-.2-1.7-.5-1.5-.9l.5-.7c.9-.8,1.9-1.3,3-1.4.9,0,2,.2,3.4,1,1.5.7,2.5,1,3.3,1h-.1ZM269.9,132.2l-.4.4-1.2.2-.9-.5c-.4.6-.9.9-1.7.8-.7,0-1.2-.5-1.5-1.1h-4.8c.1,1.1,0,1.8-.7,1.9-.5,0-1.1-.2-1.8-.7-.7-.6-1-1.1-1.1-1.6,0-.6.4-.8,1.3-.8-1.3-.5-1.5-1.1-.6-2,.9-.9,2-1.1,3.1-.9l.3,1.6c1.7-.4,2.4,0,2.3,1.5l6.2.3c-1.2-1.4,0-2.1,3.2-2.1,3.2,0,5.2.2,5.9.7-.7-1.4-.2-2,1.5-1.8.6,0,1,.2,1.3.5.3.3.2.6-.4.9l3.1.3c.3-1,1.2-1.5,2.6-1.4l3.5.6c.7-1.5,1.7-1.7,2.8-.3.1-1,.7-1.5,1.7-1.6.7,0,1.2,0,1.5.5v.9l.2.8c-.7.7-1,1.5-.9,2.3l-10-.3c-1.8.7-3.4,1.1-4.7,1.4-2.3.4-3.5,0-3.7-1.4h-2.1v.9l-4,.4v-.4" fill="#efeab8" fill-rule="evenodd"/>
  <path d="M684.4,60.1c-8.4-4.2-14.9-7.3-19.4-9.3-7.9-3.5-13.8-5.5-17.8-6l-19.5-1.6c-3.9-.2-6.9-.7-9-1.4,2.6,1.2,4.8,1.9,6.9,2.1l8.8.8c13.6,2.7,21.6,5.3,24.3,7.8,4.4,2.1,7.3,3.6,8.8,4.8,2.1,1.7.6,1.9-4.7.7-5.6-1.1-11.5-1.8-17.7-1.8h-.1v.2c0,0,9.7,1.7,9.7,1.7,6.1,1.4,7.7,2.5,5,3.5-3.9-.5-8-.5-12.3-.1v.2l13.1,1.4c6.5,1,5.5,1.5-2.9,1.5l-26.8.9c-6.7.7-12.3.6-16.6-.3l-18.3-1.5c-3.7-.5-4.2-1.5-1.5-3,2-1.3,1.8-2.3-.6-3l-7.4-.6c-6.4-.1-11.2-.9-14-2.5-1.1-.6-1.1-1,0-1.2,1.3-.3,3.7-.2,7.4.1,12.3.5,24.3-.2,36.1-2.1,4.5-.7,6.6-1.4,6.4-1.8l-10.1-.5-31,1.1-16.2-.4c-4.5-1.1-8.8-1.4-12.8-.9l-9.4,1.4c7.3-.5,12.6-.2,15.7.7,2.3.7,5,2.5,8.2,5.5,2.6,2.3,5,3.6,7.2,3.9l7,.6c4.6.9,7.1,1.7,7.6,2.4.6.9-1.7,1.7-6.6,2.4l-15.3,1.6,18.5,1c4.8.9,8.1,1.8,10,2.6,2.2.9,1.5,1.5-2,1.6-1.6-.1-3.2-.5-4.9-.9l-3.7-1c-2.8-.6-6.4,0-10.7,1.7-3.6,1.3-6.1,2.9-7.7,4.9-1.3,1.8-4.4,3.5-9.2,5.3,9.5-3.1,14.9-4.7,16.2-4.9,1.5-.2,2.8,0,4.1.6.8.4,2.3,1.3,4.5,2.8,8.5,4.1,19.1,4.9,31.9,2.6l.2-.5-6.4-2.3c-3.5-1.5-6.2-2.3-8.1-2.5-3.8-.4-6.3-1.4-7.4-3-1-1.5,1.8-1.8,8.7-.6l16.9.9c2-.2,3.8-.6,5.7-1.3,4.7.5,9.1.2,13.1-1,2.4-.7,5.8-2,10.2-3.9,5.9-.9,10.9-1,15.2-.1,2.5.5,5.6,1.4,9.4,2.8l19.8.9c2.3.2,3.2.6,2.7,1.3-.7.8-3.2,2.2-7.9,4.2l-21.9,6.2c-3.6,1-7.4,1.4-11.5,1.2-7.1-.2-12,.5-14.4,2.2-3,2.1-.2,4.6,8.2,7.8,4.8,1.9,9.1,4.6,12.7,7.9,3.5,3.3,5.9,6.7,7.4,10.3,1.4,3.8,1.5,7.3,0,10.4-1.5,3.5-4.7,6.1-9.3,8.1-12,5.4-20.2,8-24.5,7.9-1.6,0-3.2-.5-4.8-1.2-2.6-1.2-4.3-1.8-5-2.1l-2.5-.6c-.7-2.5-2.3-5-4.7-7.4-3.8-3.7-7.6-5.2-11.5-4.4-3-3.7-8-3.5-15,.5,0-2.3-.7-4.7-2.2-7-2.9-4.9-6.9-6.9-12-6.1-1.6-3.5-3.9-5.6-7-6l-8.6.5c-.6-1.6-1.5-3.1-3-4.5-2.2-1.9-4.8-3.3-7.8-3.9-3.3-.7-6.5-.3-9.5.9-3.4,1.5-6.3,4.1-8.5,7.7-8.5-3.1-15-1.7-19.2,4.2-2.5,3.5-3.8,7.2-4,11.2l-4.7.2c-3.7.5-6.3,1.8-7.7,3.9-2.9-1.1-5.8-1.3-9-.5-3.2.8-5.9,2.2-8.2,4.4-5.5,1.6-8.5,5.5-9,11.6-3.5,2.4-3.8,5.6-1,9.4,1.1,1.4,2.5,2.7,4,3.8,1.5,1,2.8,1.6,3.8,1.7-3,3.1-4.4,6.9-3.9,11.2.4,4.1,2.2,7.2,5.3,9.2,2.1,4.6,5.6,7.2,10.5,7.7l5.6-.3c.4,3,1.8,6,4,8.8,3,3.8,6.4,5.8,10.1,6.2,2,2.1,4.7,3.8,8.1,4.9,3.3,1.1,6.7,1.5,10.3,1.3,4.4-.3,8-1.5,10.7-3.5,4.7,5.8,10.5,7.5,17.5,5.1,6.1,2.2,10.9,2.1,14.1-.2l2.8-2.6c.9-.7,1.8-1,2.6-.7,5.1-.4,8.8-1.8,11-4.2.7-.7,1.7-2.5,3.1-5.4,5.5.5,11-.9,16.6-4.3,5.5-3.4,8.7-7.4,9.8-12,1.5.5,3.1.7,5,.6,7.7-.1,13.1-4.1,16.2-11.9,2.1-4.5,4.8-7.6,8.1-9.1,2.6-1.3,5.8-1.7,9.7-1.3,2.3.2,5.8.9,10.5,1.9l10.6.4c5.3-1,9.9-2.9,13.9-5.8,3.9-2.8,6.6-6.1,8.2-10,1.6-3.9,1.8-8,.4-11.9-1.3-4.3-4.4-8.1-9-11.6-11.2-8.4-18-15.7-20.2-22-2.2-6.4,1-9.6,9.8-9.4,16,0,27.3-.8,33.8-2.5,8-2.1,10.9-5.7,8.8-10.8-2.3-4.8-5.3-7.8-9.2-9l-4.4-1.2c-1.6-.6-2.8-1.5-3.7-2.7-2.4-2.3-5.4-3.1-9-2.4l-4.3.9c-1.7.2-3.1,0-4.4-.4h-.2ZM567.2,90.7q0-.2,0,0ZM544,117.8c2.5.5,3.9,1.6,4.3,3.4v.7c-1.9-.1-3.2-.8-3.9-2.2-.4-.6-.6-1.3-.4-1.9h0ZM357,130.8h1.2c-.9-.1-1.2-.5-1.2-.9v.9ZM322.3,119.5v.8-.8ZM306.4,131.6l-.2-.2.2-.4v.6h0ZM295.5,129.4q.1,0,0,0ZM679.5,104.3v.2c0,0,0,0,0,0-1.2-.1-1.8-.3-1.9-.7.4-.6.7-.8,1.2-.6s.7.6.7,1.1h0ZM657.4,105l-.4.5h.2c0,.1.2-.5.2-.5" fill="#e0d47f" fill-rule="evenodd"/>
  <path d="M619.1,69.9v.5c.1,1.8-.7,3.2-2.5,4.2-1.8,1-3.4.8-4.7-.8-1-1.3-.9-2.8.3-4.5v-.2c1.3-1.6,2.2-1.7,2.9-.4-.2-1.4.2-2.3,1.1-2.6.7-.3,1.6-.1,2.6.5,1,.6,1.5,1.2,1.5,1.9s-.4,1.1-1.2,1.4h0ZM706,73.3c1.5-.5,2.1.7,1.7,3.4h-.2l-2,.7c-1.8,1-2.9,2.6-3.2,5h0c-2.1.4-3.4-.3-3.7-2-.6-.4-.9-1-.9-1.9-.9,1.1-2.2,1-4.1-.6-.7-.5-1-1.3-.9-2.4.1-1.1.6-2.1,1.5-2.9,2.1-2.3,4.7-2,7.7,1.1.2-.7.7-1,1.6-.9.2-.4.6-.6,1.2-.6.7,0,1.2.3,1.6,1h-.1ZM698.1,77.1c-.4.5-.6,1.1-.6,1.5l.6-1.4h0ZM765.1,103.6c-1.4-.6-3.1-.6-5.2,0-2,.5-3.1,1.4-3.4,2.6h1.8c1-.3,2-.4,3-.2,2,.3,3,1.7,2.9,4,0,2-.9,3.7-2.5,4.9l-7,4.1,1.8.3,4.4.5c1.8-.3,3.6-1.4,5.6-3.3,3-.6,4.7-2.8,5.1-6.5.3-1.1-.2-2.4-1.5-3.8-1.4-1.4-3.1-2.3-5-2.6h0ZM716,120.3c.5-5,3.9-7.2,10.4-6.4.3.8.7,1.5,1.2,2.2h-2c-3.1.4-4.6,1.4-4.4,2.9.1.8.7,1.4,1.8,1.6,1,.2,1.5.8,1.6,1.9,0,2.8-1.4,3.9-4.5,3.2l-.8-.2-1-.4-.9-.6-.2.2c.4,0,.7.2,1,.4,0,0,.9,1,.9,1,.5.8.6,1.5.2,2.2l-.4.6-.2.2c-1.4-.1-3.1.3-5.2,1.4l-.3-.4c-.3.3-.8.5-1.3.4-.9,0-1.9-.6-2.9-1.6-1-1-1.4-2-1.3-3,0-1.1,1-1.9,2.7-2.3-1.2-1.3-.4-1.9,2.3-2h3.3v-1.2h0ZM712.1,133.2h.2c0,.1-.8,1.5-.8,1.5-1.2,1.7-1.3,3.2-.5,4.5l5.9-.2c1.1-.8,1.7-1.6,1.5-2.6l.2-.2,1.5,2.3c.9,1,2.2,1.4,4.1,1.3v.2c1.1-.2,2,0,2.9.8,1.5,1.4,1.6,3.7.3,7-.9,2.5-2.5,4-4.6,4.7-2.1.7-4.4.5-6.9-.7l-4.6-2.5-1.7-.9c-2.4-1.1-4.8-1.6-7.2-1.3-6.2.8-9.9,4.5-11.1,11-5.8-.5-10.7.2-14.7,1.9-.4,1.2-1.3,1.7-2.9,1.4h-.3c-1.7-.4-2.4-1.3-2.3-2.7h-2.5c0,0-.4-1-.4-1-.3,1.4-1.8,2.1-4.4,2-2.5,0-4.4-.7-5.4-1.8-.7-.1-1.2.1-1.7.7,2,.8,2.8,2.3,2.1,4.3-.6,2.1-1.8,3.5-3.8,4.3-1.3.5-3.1.4-5.3-.4l-1.8-.6c-.6.5-1.5.7-2.8.7-2,0-3.7-.8-4.9-2.2-.5,1.2-1.7,1.8-3.7,1.7-2.1,0-4-.8-5.6-2.3-1.3,1-3.1,1.5-5.6,1.3-2.6-.2-4.7-1-6.2-2.5l-2.1-2.5-.7-.3-1.3,1.4c-1.3.9-2.9,1.4-4.8,1.5-5,.2-7.7-1.4-8.2-4.9-.4-2.9,1.2-5.1,4.7-6.8,3-1.4,5.6-1.7,8-.7-.7-.5-.7-1-.2-1.7.6-.8,1.6-1.3,2.9-1.4l4.2.3c1.5,0,2.8-.5,3.9-1.5,2.1-2.1,1.7-3.8-1.3-5-2.3-1-4.3-1-5.9,0h-1.4c-1.8,0-3.2.6-4.4,1.6l-3.2,2.8c-1.2.8-2.6,1-4.2.5-1.4-.5-2.7-1.4-3.9-2.6-.8-.8-1.3-1.6-1.7-2.3-3.6,1.7-6.1,1.3-7.5-1.1.2,1.9-.9,2.6-3.1,2.2-1.9-.4-2.9-1.4-3.1-2.9h.1c0-.1-.1-.1-.1-.1l-1.1-.6c-1.3-.8-1.8-1.8-1.3-3-4.9-.4-7.5-1.9-7.8-4.6-.4-2.9,1.8-6,6.6-9,3.3-2,7.8-3.5,13.4-4.6l.2.9c-3.1.5-6.4,1.7-9.6,3.7-6,2.5-8.8,5.2-8.2,7.9.4,2.2,2.5,3.5,6.3,4.3l.3-.3c2.5-2.8,6-3.3,10.7-1.5.2-.7.9-1.4,1.8-2.3,2.4-2.2,4.6-3.3,6.6-3.4,2.5,0,4.7.3,6.5,1.2l3.2,2.2,1.8,1v-.8c.4-1,.9-1.9,2-2.7,1.2-1.1,3.3-1.5,6.2-1.2,2.8.2,4.8,1.1,6.2,2.9l1.3,2.3c.5.6,1,.7,1.4.3v-.6c.3-2.6,2.5-3.2,6.5-1.9v.2-.2c1-.9,2.5-1.2,4.4-.9,1.5.2,2.5.7,2.9,1.6.6-.4,1.6-.5,3-.4,1.3,0,2.4.7,3.1,1.7.6,1,.7,2.3.4,3.8-1,3.7-4.2,6.7-9.7,8.8-4.7,2.3-6.6,4.7-5.4,7,.5.9,1.3,1.5,2.6,1.9l2.6.3c-.4-.6-.5-1.1-.4-1.7.1-.9.7-1.6,1.8-2,2.8-1.2,6.7-.6,11.8,1.8-.6-1.7.4-3,2.6-3.9,2.5-1,5.6-.7,9.2.7-1.2-1.1-1-2.3.9-3.5,1.8-1.2,4.2-1.2,6.9,0,2.5,1.5,4.5,2.3,6.4,2.3s4-.7,6.1-2.3c2.1,1.1,4.2.7,6-1,1.1-1,1.8-2.2,2-3.3-1,1-2.5.9-4.3,0-2.8-1.5-3.6-3.7-2.5-6.5,1.6-3.9,5.2-5.2,10.8-4,2.1.5,5.2,2.4,9.6,5.8,3.7,2.2,6.7,1.5,9-2.3,1.5.5,2.8.4,4-.6,1.2-.9,1.7-2.1,1.7-3.5-.8-.3-1.4-.7-1.9-1.4-.7-1-.7-2.2-.3-3.6.5-1.4,1.2-2.5,2.1-3.1,1-.7,2.3-.8,3.9-.3l3.4.4-19.4,11.8ZM615.1,167.2l.4.6-.7.2c-.7.2-1.3,0-1.9-.5-.3-.3-.1-.6.6-1,.7-.3,1.2,0,1.7.7ZM544.4,119.8c-.4-.7-.5-1.3-.4-2,2.5.5,3.9,1.6,4.3,3.4v.7c-1.9-.1-3.2-.8-3.9-2.1" fill="#e4da8d" fill-rule="evenodd"/>
  <path d="M710.6,53.4c-1.3-1.6-2.5-2.2-3.3-2-.2,0-.9.6-2.1,1.8l-6,.5c-.8.2-1.8.2-3.1,0-1.3-.1-2.5-.1-3.3,0-1.1.2-2.5.2-4.1,0l-2.1-.3c-.9-1.5-2.3-2.5-4.4-2.7-2-.3-3.1.2-3.2,1.4-.2-.6-.9-.8-1.7-.7s-1.4.5-1.7,1.1l-8.3-.2-1.8-1.6c-.4-.2-1-.1-1.8.4-2.9-.4-4.5-.2-4.7.5l-6.2-.3-3-.2h-.2c-1.2-1.1-2.3-2-3.3-2.5-1.7-.7-2.7-.2-3.3,1.3-.4.2-1,.3-1.8.4-.6,0-1,.2-1.2.7-.9-1.5-1.5-1.5-2.1,0-1.9-1.3-3.4-1.7-4.7-1.4-1.3.7-2.7,1.1-3.9,1.3-3,.2-4.9.2-5.7,0-1.1-.1-1.5-.5-1.3-1.2-.6.2-1.2.1-2-.3-.7-.4-1.2-.9-1.3-1.4-.6-1.5,1.3-1.7,5.7-.7,1.5.2,2.6,0,3.1-.6.4-.5.4-1.1,0-2-.4-.8-1-1.5-2-2.1-.4-.3-.8-.5-1.2-.5l-.5-.6c-.7-.6-1.7-.9-2.6-.8v-1c0-.2-.4-.1-.7.2-.9.7-1.7.7-2.6,0-.9-.6-.6-1.3,1-1.9,1.8,0,2.3-.5,1.7-1.5-.7-1-2.4-2-5.1-2.9-2-1.2-2.3-2.1-1-2.7,1.3-.6,3.1-.5,5.6.5,2.3,1.4,6.5,2,12.4,1.6l.6.3h2.1c1.5-1.1,5.1-2.2,10.8-3.5-2.1,0-3.9-.4-5.6-1-1.9-1.6-5.5-1.9-10.7-.7-1.5,1-2.6,1.4-3.1,1.3l-.5-.5-3.8.3h-.2c-2.5,0-3.4-.2-2.6-.8,1.1.4,2,.5,2.6.3h.2c.7-.2.4-.7-.8-1.3-.7-.8-1-1.3-.9-1.5,0-.2.4-.3,1.2-.2,2.5,0,4.2-.2,5.2-.9.7-1.1,3.2-1.6,7.5-1.6h.6l5.7.2c-1.3-1.2-2.4-1.7-3.2-1.5-1.3.7-2.1,1-2.5,1h-.5l-2.7-.7c-3.4-2.3-6.8-2.3-10.1,0-.7.5-1.2.8-1.5.7l-.7-.7c-.9-1.3-2.7-2.1-5.3-2.2l-3.4-.8c-.7-.2-1.1-.5-1-.8,0-.4,1.8-2.3,5.5-5.6,1.3-1.5,1.7-2.7.8-3.5-.7-.7-2.1-1.1-4.3-1.3l-6.2.5c-2.3.5-3.9,1.1-4.8,1.9-1.4,1.7-1.6,2.8-.6,3.4.7.5,2,.4,3.8-.2l-1.4-1c-1.3-1.7,1-2.3,7-1.9,3,.3,3.6,1.5,1.9,3.5-1.5,1.8-3.2,3-5.3,3.7,0,1-.6,1.9-1.8,2.7l-3.9,2.2c-.9-.8-2.3-1-4.4-.4-2.3.6-4.4,1.9-6.5,4-.2-1-1.8-1.6-4.6-1.7l-6.6.3c-1.7-1.1-4.5-.8-8.6,1-.4-.5-2.1-.5-5.2,0l-14,1.4c3.9,0,12.1.1,24.4.5l3.6-1c2.1-.5,3.4-.6,3.9-.2-1.7.8-.2,1.4,4.4,1.6,4.6.3,8.5,0,11.5-.7.6.4.7.9.2,1.3,0,.5,2,1.2,5.8,2.1,1.8,1.6,2.6,3.1,2.5,4.7-.2,1.4-1.2,2.6-3.1,3.7-1.7,1-3.8,1.7-6.3,1.9-2.6.3-5.1.2-7.4-.5l-3.1-1.5c-1-.5-1.8-.7-2.3-.7-1.3,0-2.6,1.9-3.8,5.6-.6-1.6-1.7-2.5-3.3-2.7-2-.2-4,.7-6.3,2.7-4-1.7-6.6-1.9-7.8-.3-.4.5-.6,1.2-.6,2s0,.7.1.9c-.6.5-1,1.1-1.3,1.8-.1-1.1-.9-1.5-2-1.3-1.2.2-2.5,1-3.9,2.5-.3.6-.3,1.3,0,1.9.2.5.7.8,1.2,1.1-.6.7-1.8.9-3.6.7-2.3-.3-4.4-1-6-2.1-1.7,2.5-2.9,3.4-3.6,2.7.2-2.3-.9-4.1-3.4-5.3-1.7-.8-3-.9-4-.4l-3.8.5h0l-3.9.5c-1.3,0-2.5-.5-3.4-1.8-3.8-4.1-8.4-5.7-13.7-4.9l-4.1.5h-.8c0-.1-.1-.1-.1-.1-.9-1.7-1.9-2.7-3.1-3.1-1.3-.3-2.5,0-3.4,1,1.1-2.5.4-3.2-2.1-2.2,0-2.3-1.3-2.7-3.9-1.3-.9-1-2-1.2-3.1-.7-1.2.6-1.5,1.4-.8,2.6-1.7-.6-2.8-.4-3.3.5-.4.8-.3,1.4.4,1.9-.9,1.4-.4,2.2,1.4,2.6s3.3,0,4.3-1.4c.6-.8,1.2-1.3,2-1.5h1.2c.6,0,.9.3,1.1.6.1.3.1.7,0,1.1-.1.9.6,1.3,2,1,1.3-.2,2.2-.5,2.7-1,.6,0,1.7.3,3.3,1.1,1.1.6,2,.8,2.8.7-.9.3-1.3.8-1,1.4.2.6.9.9,2,.9,0,.2,0,.6,0,1.3,0,.5-.6.8-1.5.7,0,.6-.2,1.3-.8,1.8-.7.6-1.3.9-2,.9-2-1.3-4.9-1.9-9-1.7-1.7,0-2.8.2-3.3.7-.6.5-.2,1.3,1,2.3l-1,.2c-2.6-1-5.2-1.4-7.7-1.3-2.6,0-4.2.8-4.6,2.2l-1.5-.2c-1.5.1-2.6,1-3.2,2.7-.9-.4-1.7-.4-2.3.1-.3.3-.6.5-.6.8-1.5-.6-3.5-.5-6,.2-3.9-.9-7.5-1-10.5-.3-2.2.5-5.3,1.7-9.3,3.7-1.7.2-3.7.6-6,1.4l-.6.2v-.2l-8.2.6-6.9.5-2.5-.2-1.7-.5c-4.5-.6-8.5-.7-12.1-.2l-4.4,1,10.7.7,14.7,1,2-.3c4.2.5,8.8.3,13.7-.6l3.4.6,7.4-.2,10.3-1.3c5.5,1,9.4,1.7,11.8,1.9,4,.4,7.2,0,9.3-1.4-1.1.8-1.8,1.4-1.9,1.7-.1.3,0,.6.6,1-.4.2-.7.5-.6.8,0,.2.3.5.7.7.4.2.9.3,1.3.2.3,0,.6-.1.8-.2.2.1.6.2.9.2.4.9,1.2,1.4,2.5,1.5,1,0,2.1-.2,3.2-.7l.7-.5c1,1.1,2.1,1.9,3.1,2.6,2.1,1.3,3.7,1.5,5,.5l.7-.6,1.3,1.6c1.5,1.9.9,2.8-1.6,2.6-1.8-.6-3.2-.7-4.1-.2-2.2-1.7-4.4-2.1-6.4-1.3-.9.3-1.4.8-1.7,1.5-.2.5-.2,1,0,1.5-3-.2-5.6.3-7.7,1.7-1,.6-2,1-2.7,1-1.2,0-2.8-.4-4.7-1.3-1.5-1.3-3.1-1.8-4.7-1.6-1.5.1-2,.7-1.5,1.6-2.3-1.4-4.4-1-6.2,1.3.5-2,0-3.3-1.2-3.8-1-.5-1.9-.3-2.8.4-.7-.3-1.5-.5-2.3-.4-1.1.1-2,.5-2.6,1.2-.7.7-.8,1.3-.4,1.9.5.7,1.7,1.1,3.4,1.2-.6.7-.7,1.4-.2,1.9.3.5.9.7,1.7.8.8,0,1.5-.2,2.1-.6.7-.5,1-1.3.9-2.3.4,1.5.7,2.4,1,2.6.2.1.6,0,1-.6.5.6,1,.8,1.8.7.7,0,.9-.7.6-1.7,2.5,3.4,3.9,3.6,4.3.8.2.2.6.3.7.4h.1c1,.3,2.4,0,3.9-.8l8.8-.5c2-1.3,3.2-2,3.4-2,.6-.1,1.4.3,2.5,1.3l.3.7c.3.8.9,1.4,1.7,1.9,1.2.8,2.3.9,3.1.2l.7-.5.6.7c1.8,2.2,3.9,3.5,6.4,4,2.9.5,4.7-.4,5.5-2.9,3.7,1.5,6.2,1.5,7.5-.1h1c0,0,2.3-.8,2.3-.8,1.2.1,2.1-.2,2.6-.9h1.5c.9-.2,1.4-.6,1.8-1.3,1.2.6,2.3.7,3.2.3.9-.5.7-1.1-.4-2,.7.1,1.3,0,2-.4.7-.5.7-1,0-1.5,1.2.1,1.7-.2,1.7-.9s-.6-1-1.7-.9c-2.8-1.2-4.5-1-4.9.5l.3,1.5c.1.2.3.3.6.3-1.3,1.2-2.3,1.3-3,.3-.2-.4-.6,0-1,1.3v.2h0c-.4-.3-.9-.2-1.5,0-1.3-1.8-2.4-2.6-3.4-2.5.1-1.3,0-2.7-.7-4.3-.9-2.2-2.1-2.6-3.7-1.2.2-2.8-.7-4.1-3.1-3.8-.9.2-1.2,0-1-.5,0-.5.5-1,1.2-1.5,2-1.5,3.4-1.3,4.2.7,3.2,3.2,5.3,2.8,6.4-1.1,2.3,1.4,3.9,2.2,4.9,2.2,1.3,0,2.1-1.3,2.3-3.8,1.4,1,2.5,1.3,3.3,1,.4-.2,1-.8,1.9-2,.9.7,1.7,1,2.3.9.6,0,1.3-.6,2.1-1.6,1.3-.7,2.5-.9,3.3-.3h.2c.4.4,1,1,1.8,1.9-1,0-1.8.3-2.5.6-1.8.7-1.5,1.6.9,2.5-2.5.9-3.8,1.7-3.9,2.7-.1.8.6,1.5,2,2.2,1.3.6,2.8.9,4.4,1,1.3,0,2.3-.1,2.9-.5l.4-.3h0c0,0,.1,0,.1,0,.7-.6,1.2-1.7,1.2-3.3s0-.8.4-.8,1,.2,2,.7c2.1,1.1,3,2.1,2.7,3-.2.8-1.2,1-2.9.4h-2.1c0,0-.7.3-.7.3l-.5.6c-.6,1.2.4,1.8,2.8,1.8s5.6-.3,7-1c.6-.3,1.2-.7,1.5-1.1,2.1,0,4.1.2,6.2.8.7.2,2.9,1,6.5,2.5,2.3,1,4.2,1.4,5.8,1.3,1.7-.1,3.3-.8,5.1-2l4.6.7c2.3,0,4.6-1.1,6.9-3.2,2.1-1.3,4.5-2,7.4-2s4.2.3,7.8,1c3.4.6,6,.9,7.8.8,2.8-.1,5.2-1,7.2-2.5-1,.2-1.7-.5-1.8-1.9-.2-1.8-1.3-2.2-3.1-1.3-.7-.5-1.6-.8-2.6-.7-1,0-1.3.5-.9,1.3-.8,0-1.2.2-1.3.7-.2.5,0,.8.9.9v.2c0,0-1.1,0-1.1,0-.8,0-1.6-.2-2.3-.6-.7-.3-1.5-.6-2.2-.7h-1c-.4.2-.7.5-.9.5h-1.3c-.5,0-1.3,0-2.2-.2h-.8c.2-.5.1-1-.2-1.5-.1-.2-.2-.3-.4-.3,0-.5-.1-.7-.4-.8-.2-.1-.4,0-.6.4,0-.1-.2-.2-.6-.2h-.4c-1-.5-1.7-.8-2-1-.7-.5-.6-1.1.3-1.7.7-.4,1.2-.5,1.6-.4.3.1.4.3.4.7,0-.6.4-1,1.1-1h.4c.7-.6,1.5-1,2.1-.9.5,0,1.3.3,2.3.8,1.2.3,2.3.5,3.2.4.5.5,1,.8,1.3,1,.7.5,1.3.5,1.7.1l.4.2c.1.2.3.2.4.3h0c1.8,1.1,3.5,1.3,5,.5,1-.4,2.3-.6,3.7-.4.7,0,2.1.3,4.3.8,1.5.3,2.1.3,1.7,0-.4-.4-1.4-.8-3.1-1.3-1.3-.3-1.8-.5-1.7-.7l.4-.2c.1-.1.2-.2,0-.4,1,.3,1.9.4,2.7.3,1-.1,1.2-.6.8-1.3.7.2,1.5.3,2.1.2h.4c.7.3,1.2.6,1.7.6.7,0,1-.3.9-1.1.6.5,1,.7,1.4.6.4-.1.4-.4.3-.8.7.2,1.9.5,3.7.6,2,.2,3.5.2,4.4,0,1.7.1,4.2.2,7.7.2.5.5,1,.7,1.3.6.4-.1.4-.6.1-1.3" fill="#c6b342" fill-rule="evenodd"/>
  <path d="M5.5,96.3c0,1.6.6,2.9,1.8,3.8l5.1,3.2c2.1-.2,4,.7,5.7,2.5.8,0,1.3.5,1.6,1.6v.3c1,.7,2.2.9,3.6.6,1.9-.7,3.4-1,4.4-1,1.3,0,2.5.4,3.7,1.2,1.3.9,1.5,1.8.5,2.8v.2c.2,1,.9,1.3,2.3,1.1l3.9-1.3.3-.3-.3-.4c-.2-.5-.2-1.1.2-1.7l-.2-.4-.6.2c-2.3.5-3.4-.3-3.3-2.6,0-.9.4-1.3,1.2-1.5.8-.2,1.3-.6,1.3-1.3.2-1.2-.9-2-3.2-2.3h-1.5c.4-.4.7-1,.9-1.7.5-1.7.2-3.2-1-4.7-1.6-1.9-4.7-2.5-9.2-1.9-1.7.3-3.4.3-5,0l-2.3-.5.2.8c.2,1.3-.2,2.4-1.3,3.3-1,.9-2.1,1.3-3.4,1.2-1,0-1.8-.7-2.3-1.8-.5-1.1-.3-1.8.9-2.3-.7-.3-1.4-.4-2.2-.3-1.5.3-2.2,1.3-2.1,3.1h0ZM262.7,76.7c.2,1-.2,1.5-1.1,1.6v.3s2.7-.3,2.7-.3l.5.9c.8.8,1.7.9,2.6.1.8-.6,1-1.3.7-2.4-.3-1-.9-1.4-1.8-1.1,0-.9-.4-1.3-1.2-1.2-.8,0-1.3.4-1.8,1-.7-1-1.3-1.1-1.8-.2-.4.6-.3.9.3,1,.8.1,1.1.3,1.1.4h-.2ZM253.2,116.2c-1.8-.1-3-1-3.5-2.6-.8,1.8-1.9,2.5-3.4,2.2l-.7-.2c-.6.3-1.3.3-2.3,0-.9-.3-1.5-.7-1.8-1.3l-.2-.8c-1.1,1.3-2.6,2.2-4.7,2.7l-1.7.3h-1.5c-.9.5-.9,1,0,1.6h0c1,.5,1.8.4,2.3-.4-.9,1.4-.7,2.5.8,3.2,1.6.8,2.8.5,3.7-.7.7,1.1,1.6,1.3,2.8.5,1.2-.7,1.8-1.6,1.8-2.8.6,1,1.4,1.1,2.5.3l1.1-1c.8,1.2,1.8,1.2,3.2.1l1.3-1.3h0ZM279.3,97.3v.7c-1.1,0-1.9.7-2.2,1.9-.2.4-.1.8,0,.9l1-.2c-.2,1.3.2,2.4,1.3,3.4,1.2,1,2.4,1.3,3.6.7,1-.4,1.3-1,.9-1.8-.6-1.1-.9-1.8-.8-2.3,2.8,1.5,3.6.6,2.5-2.5.9-.1,1.3-.4,1.1-.7l-.4-.5c-.7-.6-1.4-1-2.2-1.1-.6,0-1.5.2-2.5.8-1.1.5-1.8.8-2.4.8h0ZM368,113.8l.3.3.9.2.7-.4c.3.5.6.7,1.2.6.5,0,.9-.4,1.1-.9h3.6c0,.9,0,1.4.5,1.5.4,0,.8-.1,1.3-.5.5-.4.8-.9.8-1.3,0-.4-.3-.6-1-.6,1-.4,1.1-.9.4-1.6-.7-.7-1.4-.9-2.3-.7l-.2,1.3c-1.2-.3-1.8,0-1.7,1.2l-4.5.2c.9-1.1,0-1.6-2.4-1.7-2.4,0-3.8.2-4.3.5.5-1.1.2-1.6-1.1-1.4-.4,0-.8.2-1,.4-.2.2-.1.5.3.7l-2.3.2c-.2-.8-.9-1.2-1.9-1.1l-2.6.4c-.5-1.2-1.2-1.3-2.1-.3,0-.8-.5-1.2-1.3-1.3-.5,0-.9,0-1.1.4v.7l-.2.6c.5.5.8,1.2.7,1.8l7.3-.3c1.3.5,2.5.9,3.5,1.1,1.7.3,2.6,0,2.7-1.1h1.6v.7l2.9.3v-.3" fill="#efeab8" fill-rule="evenodd"/>
  <path d="M64,57.1c6.2-3.3,10.9-5.8,14.2-7.3,5.8-2.8,10.1-4.3,13-4.7l14.3-1.3c2.8-.2,5-.5,6.6-1.1-1.9.9-3.6,1.5-5.1,1.7l-6.4.6c-10,2.1-15.9,4.1-17.8,6.1-3.2,1.6-5.4,2.8-6.5,3.8-1.5,1.3-.4,1.5,3.4.5,4.1-.9,8.5-1.4,13-1.4h0v.2s-7.1,1.3-7.1,1.3c-4.5,1.1-5.7,2-3.6,2.7,2.8-.4,5.8-.4,9,0v.2l-9.6,1.1c-4.8.8-4,1.2,2.1,1.2l19.6.7c4.9.5,9,.4,12.2-.2l13.4-1.2c2.7-.4,3.1-1.2,1.1-2.3-1.5-1-1.3-1.8.4-2.3l5.4-.5c4.7,0,8.2-.7,10.3-1.9.8-.5.8-.8,0-.9-.9-.2-2.7-.2-5.4,0-9,.4-17.8-.2-26.5-1.7-3.3-.6-4.9-1.1-4.7-1.4l7.4-.4,22.7.9,11.9-.3c3.3-.9,6.5-1.1,9.4-.7l6.9,1.1c-5.4-.4-9.2-.2-11.5.6-1.7.5-3.7,2-6,4.3-1.9,1.8-3.7,2.8-5.3,3.1l-5.1.4c-3.4.7-5.2,1.3-5.6,1.9-.4.7,1.2,1.3,4.8,1.9l11.2,1.3-13.5.8c-3.5.7-5.9,1.4-7.3,2-1.6.7-1.1,1.2,1.5,1.3,1.2,0,2.3-.4,3.6-.7l2.7-.8c2.1-.5,4.7,0,7.9,1.3,2.6,1,4.5,2.3,5.6,3.9,1,1.4,3.2,2.8,6.7,4.1-7-2.4-10.9-3.7-11.9-3.8-1.1-.1-2.1,0-3,.5-.6.3-1.7,1-3.3,2.2-6.2,3.2-14,3.8-23.4,2v-.4c-.1,0,4.5-1.8,4.5-1.8,2.6-1.2,4.5-1.8,5.9-1.9,2.8-.3,4.6-1.1,5.4-2.3.8-1.2-1.3-1.4-6.4-.4l-12.4.7c-1.4-.1-2.8-.5-4.2-1-3.5.4-6.7.2-9.6-.8-1.8-.5-4.2-1.6-7.5-3.1-4.3-.7-8-.8-11.1,0-1.8.4-4.1,1.1-6.9,2.2l-14.5.7c-1.7.1-2.3.5-2,1,.5.6,2.4,1.8,5.8,3.3l16.1,4.9c2.6.8,5.4,1.1,8.4.9,5.2-.1,8.8.4,10.6,1.8,2.2,1.6.2,3.6-6,6.2-3.6,1.5-6.7,3.6-9.3,6.2-2.6,2.6-4.4,5.3-5.4,8.1-1,3-1.1,5.7,0,8.1,1.1,2.7,3.4,4.8,6.8,6.3,8.8,4.2,14.8,6.3,17.9,6.2,1.2,0,2.3-.4,3.6-.9,1.9-.9,3.1-1.4,3.7-1.7l1.8-.4c.5-2,1.7-3.9,3.5-5.8,2.8-2.9,5.6-4,8.5-3.5,2.2-2.9,5.8-2.7,11,.4,0-1.8.5-3.7,1.6-5.5,2.1-3.8,5.1-5.4,8.8-4.8,1.2-2.8,2.8-4.4,5.1-4.7l6.3.4c.4-1.3,1.1-2.4,2.2-3.6,1.6-1.5,3.5-2.6,5.7-3.1,2.4-.5,4.8-.3,7,.7,2.5,1.2,4.6,3.2,6.2,6.1,6.2-2.4,11-1.3,14.1,3.3,1.8,2.7,2.8,5.6,3,8.8h3.4c2.7.5,4.6,1.6,5.6,3.2,2.1-.9,4.3-1,6.6-.4,2.3.6,4.4,1.8,6,3.5,4,1.3,6.2,4.3,6.6,9.1,2.6,1.9,2.8,4.4.7,7.4-.8,1.1-1.8,2.1-3,3-1.1.8-2.1,1.3-2.8,1.3,2.2,2.5,3.2,5.4,2.8,8.8-.3,3.2-1.6,5.6-3.9,7.2-1.5,3.6-4.1,5.7-7.7,6l-4.1-.3c-.3,2.4-1.3,4.7-3,6.9-2.2,3-4.7,4.6-7.4,4.9-1.4,1.7-3.4,3-5.9,3.8-2.4.9-4.9,1.2-7.6,1-3.2-.2-5.8-1.2-7.8-2.8-3.5,4.5-7.7,5.9-12.8,4-4.5,1.7-8,1.7-10.3-.2l-2.1-2c-.6-.6-1.3-.8-1.9-.6-3.8-.3-6.5-1.4-8-3.3-.5-.5-1.2-2-2.3-4.3-4,.4-8-.7-12.2-3.4-4-2.7-6.4-5.8-7.2-9.4-1.1.4-2.3.5-3.6.5-5.6,0-9.6-3.2-11.9-9.4-1.6-3.6-3.6-5.9-5.9-7.1-1.9-1-4.3-1.3-7.1-1-1.7.2-4.2.7-7.7,1.5l-7.8.3c-3.9-.8-7.2-2.3-10.2-4.5-2.8-2.2-4.8-4.8-6-7.8-1.2-3.1-1.3-6.2-.3-9.4,1-3.4,3.2-6.4,6.6-9.1,8.2-6.6,13.2-12.4,14.8-17.3,1.6-5-.8-7.5-7.2-7.4-11.7,0-20.1-.6-24.8-1.9-5.8-1.6-8-4.5-6.5-8.5,1.7-3.8,3.9-6.2,6.7-7.1l3.2-.9c1.2-.5,2.1-1.2,2.7-2.2,1.8-1.8,4-2.4,6.6-1.9l3.1.7c1.2.2,2.3,0,3.2-.3h.2ZM149.9,81.1q0-.1,0,0ZM167,102.4c-1.8.4-2.9,1.3-3.1,2.7v.5c1.4,0,2.3-.6,2.8-1.7.3-.5.4-1,.3-1.5h0ZM304.1,112.7h-.9c.6,0,.9-.4.9-.7v.7ZM329.6,103.7v.6-.6ZM341.2,113.3h.2c0-.1-.1-.4-.1-.4v.4h0ZM349.2,111.5q0,0,0,0ZM67.6,91.8h0c0,.1,0,.1,0,.1.9,0,1.3-.3,1.4-.5-.3-.4-.5-.6-.9-.4s-.5.4-.5.9h0ZM83.8,92.4l.3.4h-.2c0,0-.1-.4-.1-.4" fill="#e0d47f" fill-rule="evenodd"/>
  <path d="M111.9,64.8v.4c0,1.4.5,2.5,1.8,3.3,1.3.8,2.5.6,3.5-.6.8-1,.7-2.2-.2-3.6h0c-.9-1.4-1.5-1.5-2-.4.1-1.1-.1-1.8-.8-2.1-.5-.2-1.2,0-1.9.4-.7.4-1.1.9-1.1,1.5s.3.9.9,1.1h0ZM48.2,67.5c-1.1-.4-1.5.5-1.2,2.7h.2l1.5.6c1.3.8,2.1,2.1,2.3,4h0c1.6.3,2.5-.2,2.7-1.6.4-.3.6-.8.7-1.5.6.9,1.6.8,3-.4.5-.4.8-1,.7-1.9,0-.9-.4-1.6-1.1-2.3-1.6-1.8-3.5-1.6-5.7.9-.2-.5-.5-.8-1.2-.7-.2-.3-.4-.5-.9-.4-.5,0-.9.3-1.2.8h0ZM54,70.5c.3.4.4.9.4,1.2l-.4-1.1h0ZM4.8,91.3c1-.5,2.3-.5,3.8,0,1.4.4,2.3,1.1,2.5,2.1h-1.3c-.7-.2-1.4-.3-2.2-.2-1.5.2-2.2,1.3-2.1,3.1,0,1.6.6,2.9,1.8,3.8l5.1,3.2-1.3.2-3.2.4c-1.3-.2-2.7-1.1-4.1-2.6-2.2-.5-3.4-2.2-3.7-5.1-.2-.9.1-1.9,1.1-3,1-1.1,2.2-1.8,3.6-2.1h0ZM40.8,104.4c-.4-3.9-2.9-5.6-7.6-5-.2.6-.5,1.2-.9,1.7h1.5c2.3.3,3.4,1.1,3.2,2.3,0,.6-.5,1.1-1.3,1.3-.8.2-1.1.6-1.2,1.5,0,2.2,1,3.1,3.3,2.5l.6-.2.8-.3.7-.5v.2c-.2,0-.4.2-.6.3,0,0-.6.8-.6.8-.4.6-.4,1.2-.2,1.7l.3.4.2.2c1,0,2.3.3,3.8,1.1l.2-.3c.2.2.6.4,1,.3.7,0,1.4-.5,2.1-1.3.7-.8,1-1.6,1-2.3,0-.9-.7-1.5-2-1.8.9-1,.3-1.5-1.7-1.6h-2.4v-.9h0ZM43.7,114.6h-.2c0,0,.6,1.2.6,1.2.9,1.3,1,2.5.4,3.5l-4.3-.2c-.8-.6-1.2-1.3-1.1-2h-.2c0-.1-1.1,1.7-1.1,1.7-.6.8-1.6,1.1-3,1v.2c-.8-.2-1.5,0-2.1.6-1.1,1.1-1.2,2.9-.2,5.5.7,1.9,1.8,3.1,3.4,3.7,1.5.5,3.2.4,5-.5l3.4-1.9,1.3-.7c1.8-.9,3.5-1.3,5.3-1,4.5.6,7.2,3.6,8.1,8.7,4.3-.4,7.9.1,10.8,1.5.3.9,1,1.3,2.1,1.1h.2c1.2-.3,1.8-1,1.7-2.2h1.8s.3-.8.3-.8c.2,1.1,1.3,1.6,3.2,1.6,1.8,0,3.2-.5,4-1.4.5,0,.9,0,1.3.6-1.5.6-2,1.8-1.6,3.4.4,1.6,1.3,2.8,2.8,3.4.9.4,2.2.3,3.9-.3l1.3-.5c.4.4,1.1.5,2,.5,1.5,0,2.7-.6,3.6-1.8.4.9,1.3,1.4,2.7,1.3,1.5,0,2.9-.6,4.1-1.8.9.8,2.3,1.2,4.1,1,1.9-.2,3.5-.8,4.5-1.9l1.6-1.9.5-.2,1,1.1c.9.7,2.1,1.1,3.6,1.2,3.7.2,5.7-1.1,6-3.8.3-2.2-.9-4-3.4-5.3-2.2-1.1-4.1-1.3-5.8-.5.5-.4.5-.8.2-1.3-.4-.6-1.2-1-2.2-1.1l-3.1.2c-1.1,0-2.1-.4-2.9-1.2-1.6-1.7-1.3-3,.9-4,1.7-.8,3.1-.8,4.3,0h1c1.3,0,2.4.4,3.2,1.3l2.3,2.2c.9.6,1.9.8,3.1.4,1-.4,2-1.1,2.8-2.1.6-.6,1-1.3,1.2-1.8,2.7,1.3,4.5,1,5.5-.9-.1,1.5.6,2.1,2.3,1.7,1.4-.3,2.2-1.1,2.2-2.3h0c0,0,0,0,0,0l.8-.4c1-.6,1.3-1.4,1-2.4,3.6-.3,5.5-1.5,5.8-3.6.3-2.3-1.3-4.7-4.9-7.1-2.4-1.6-5.7-2.8-9.8-3.6l-.2.7c2.3.4,4.7,1.3,7.1,2.9,4.4,2,6.4,4,6,6.2-.3,1.7-1.8,2.8-4.6,3.4l-.2-.3c-1.8-2.2-4.4-2.6-7.9-1.2-.2-.5-.6-1.1-1.3-1.8-1.8-1.7-3.4-2.6-4.9-2.7-1.8,0-3.5.3-4.8.9l-2.3,1.8-1.3.8v-.6c-.3-.8-.7-1.5-1.4-2.2-.9-.9-2.4-1.2-4.5-.9-2.1.2-3.6.9-4.5,2.2l-1,1.8c-.4.4-.7.5-1,.3v-.5c-.2-2-1.8-2.5-4.8-1.5v.2-.2c-.7-.7-1.8-.9-3.2-.7-1.1.2-1.8.6-2.2,1.3-.4-.3-1.2-.4-2.2-.3-1,0-1.8.5-2.2,1.3-.4.8-.5,1.8-.3,3,.7,2.9,3.1,5.3,7.1,6.9,3.5,1.8,4.8,3.7,4,5.5-.4.7-1,1.2-1.9,1.5l-1.9.2c.3-.4.4-.9.3-1.3,0-.7-.5-1.3-1.3-1.6-2-.9-4.9-.5-8.7,1.4.4-1.3-.3-2.3-1.9-3.1-1.8-.8-4.1-.6-6.7.5.9-.9.7-1.8-.6-2.7-1.3-.9-3.1-.9-5.1,0-1.8,1.2-3.3,1.8-4.7,1.8s-2.9-.6-4.5-1.8c-1.6.9-3.1.6-4.4-.8-.8-.8-1.3-1.7-1.5-2.6.8.8,1.8.7,3.1,0,2.1-1.2,2.7-2.9,1.8-5.1-1.2-3.1-3.8-4.1-7.9-3.1-1.5.4-3.8,1.9-7,4.5-2.7,1.8-4.9,1.2-6.6-1.8-1.1.4-2.1.3-2.9-.4-.9-.7-1.3-1.6-1.3-2.8.6-.2,1-.6,1.4-1.1.5-.8.5-1.7.2-2.8-.4-1.1-.9-1.9-1.6-2.4-.8-.5-1.7-.6-2.8-.3l-2.5.3,14.3,9.3ZM114.8,141.3l-.3.4.5.2c.5.1,1,0,1.4-.4.2-.2,0-.5-.4-.8-.5-.2-.9,0-1.3.5ZM166.6,104c.3-.5.4-1,.3-1.6-1.8.4-2.9,1.3-3.1,2.7v.5c1.4,0,2.3-.6,2.8-1.7" fill="#e4da8d" fill-rule="evenodd"/>
  <path d="M44.8,51.8c1-1.3,1.8-1.8,2.4-1.6.2,0,.7.5,1.6,1.4l4.4.4c.6.1,1.3.1,2.3,0,1,0,1.8,0,2.4,0,.8.2,1.8.2,3,0l1.6-.2c.6-1.2,1.7-1.9,3.2-2.1,1.5-.2,2.2.2,2.3,1.1.2-.4.6-.6,1.3-.5s1,.4,1.3.9l6.1-.2,1.3-1.3c.3-.2.8,0,1.3.3,2.2-.3,3.3-.2,3.4.4l4.5-.2,2.2-.2h.1c.9-.9,1.7-1.6,2.4-1.9,1.2-.5,2-.2,2.4,1,.3.2.8.3,1.3.3.4,0,.7.2.9.5.6-1.2,1.1-1.2,1.5,0,1.4-1,2.5-1.3,3.4-1.1,1,.5,2,.9,2.9,1,2.2.1,3.6.2,4.2,0,.8,0,1.1-.4.9-.9.4.2.9,0,1.5-.2.5-.3.9-.7,1-1.1.4-1.2-1-1.3-4.2-.5-1.1.2-1.9,0-2.3-.4-.3-.4-.3-.9,0-1.6.3-.6.8-1.2,1.5-1.6.3-.2.6-.4.9-.4l.4-.4c.5-.4,1.2-.7,1.9-.6v-.8c0-.2.3,0,.5.2.6.5,1.3.5,1.9,0,.7-.5.4-1-.8-1.5-1.3,0-1.7-.4-1.3-1.2.5-.8,1.8-1.6,3.8-2.2,1.5-.9,1.7-1.7.7-2.1-.9-.5-2.3-.4-4.1.4-1.7,1.1-4.8,1.6-9.1,1.3l-.4.2h-1.6c-1.1-.9-3.7-1.7-7.9-2.7,1.5,0,2.9-.3,4.1-.8,1.4-1.3,4-1.5,7.8-.6,1.1.8,1.9,1.1,2.3,1l.4-.4,2.8.3h.2c1.8,0,2.5-.2,1.9-.6-.8.3-1.4.4-1.9.2h-.2c-.5-.2-.3-.5.6-1,.5-.6.8-1,.7-1.2,0-.2-.3-.2-.9-.2-1.8,0-3.1-.2-3.8-.7-.5-.9-2.3-1.3-5.5-1.3h-4.6c.9-.8,1.8-1.2,2.4-1,.9.5,1.5.8,1.8.8h.4l2-.5c2.5-1.8,5-1.8,7.4,0,.5.4.9.6,1.1.5l.5-.5c.7-1,2-1.6,3.9-1.7l2.5-.6c.5-.2.8-.4.8-.6,0-.3-1.3-1.8-4-4.4-1-1.2-1.2-2.1-.6-2.8.5-.6,1.6-.9,3.1-1l4.5.4c1.7.4,2.8.9,3.6,1.5,1,1.3,1.2,2.2.4,2.7-.5.4-1.5.3-2.8-.2l1-.8c.9-1.3-.8-1.8-5.1-1.5-2.2.2-2.7,1.2-1.4,2.8,1.1,1.4,2.3,2.4,3.9,2.9,0,.8.4,1.5,1.3,2.1l2.9,1.7c.6-.6,1.7-.8,3.2-.3,1.7.5,3.2,1.5,4.8,3.1.2-.8,1.3-1.3,3.4-1.3l4.9.2c1.2-.9,3.3-.6,6.3.8.3-.4,1.5-.4,3.8,0l10.3,1.1c-2.9,0-8.9,0-17.9.4l-2.7-.8c-1.5-.4-2.5-.5-2.8-.2,1.3.6.2,1.1-3.2,1.3-3.4.2-6.2,0-8.4-.5-.4.3-.5.7-.1,1,0,.4-1.5.9-4.2,1.6-1.3,1.3-1.9,2.5-1.8,3.7.2,1.1.9,2.1,2.2,2.9,1.3.8,2.8,1.3,4.6,1.5,1.9.2,3.7.1,5.4-.4l2.3-1.2c.8-.4,1.3-.5,1.7-.5,1,0,1.9,1.5,2.8,4.4.4-1.3,1.3-1.9,2.4-2.2,1.4-.2,3,.5,4.6,2.2,3-1.3,4.9-1.5,5.7-.3.3.4.4.9.4,1.6s0,.5,0,.7c.4.4.7.9.9,1.4,0-.9.6-1.2,1.5-1,.9.2,1.8.8,2.9,1.9.2.5.2,1,0,1.5-.2.4-.5.6-.9.9.4.5,1.3.7,2.6.5,1.7-.2,3.2-.8,4.4-1.7,1.2,2,2.1,2.7,2.7,2.1-.2-1.8.6-3.2,2.5-4.2,1.2-.6,2.2-.7,2.9-.3l2.8.4h0l2.8.4c.9,0,1.8-.4,2.5-1.4,2.8-3.2,6.2-4.5,10.1-3.8l3,.4h.6c0,0,0,0,0,0,.6-1.3,1.4-2.2,2.3-2.4.9-.3,1.8,0,2.5.8-.8-2-.3-2.5,1.6-1.7,0-1.8.9-2.1,2.8-1,.7-.8,1.4-.9,2.3-.5.9.4,1.1,1.1.6,2.1,1.3-.4,2.1-.3,2.4.4.3.6.2,1.1-.3,1.5.7,1.1.3,1.8-1,2.1-1.3.3-2.4,0-3.1-1.1-.4-.6-.9-1-1.4-1.2h-.9c-.4,0-.7.3-.8.5,0,.2,0,.5,0,.9,0,.7-.4,1-1.4.8-.9-.2-1.6-.4-2-.8-.4,0-1.2.3-2.4.9-.8.5-1.5.6-2.1.5.7.3.9.6.8,1.1-.2.5-.6.7-1.5.7,0,.2,0,.5,0,1,0,.4.4.6,1.1.5,0,.5.2,1,.6,1.4.5.4,1,.7,1.5.7,1.4-1,3.6-1.5,6.6-1.3,1.3,0,2.1.2,2.4.5.4.4.2,1-.8,1.8h.8c1.9-.7,3.8-1,5.6-.9,1.9,0,3.1.6,3.4,1.7h1.1c1.1,0,1.9.7,2.3,2,.7-.3,1.3-.3,1.7,0,.2.2.4.4.4.6,1.1-.4,2.6-.4,4.4.2,2.9-.7,5.5-.8,7.7-.3,1.6.4,3.9,1.3,6.8,2.9,1.3.1,2.7.5,4.4,1.1h.4c0,.1,0,0,0,0l6,.4,5,.4,1.8-.2,1.3-.4c3.3-.5,6.2-.5,8.9-.2l3.2.8-7.9.6-10.8.8-1.5-.2c-3.1.4-6.4.3-10.1-.5l-2.5.5-5.4-.2-7.6-1c-4,.8-6.9,1.3-8.7,1.5-3,.3-5.3,0-6.8-1.1.8.6,1.3,1.1,1.4,1.3,0,.2,0,.5-.4.8.3.2.5.4.4.6,0,.2-.2.4-.5.5-.3.1-.6.2-.9.2-.2,0-.4,0-.6-.2-.2,0-.4.2-.6.1-.3.7-.9,1.1-1.8,1.2-.8,0-1.6-.1-2.3-.6l-.5-.4c-.8.9-1.5,1.5-2.3,2.1-1.5,1-2.7,1.2-3.7.4l-.5-.4-1,1.3c-1.1,1.5-.7,2.2,1.2,2,1.3-.5,2.4-.5,3-.2,1.6-1.3,3.2-1.7,4.7-1,.6.3,1,.6,1.2,1.2.1.4.1.8,0,1.2,2.2-.2,4.1.3,5.6,1.3.8.5,1.4.8,2,.8.9,0,2-.3,3.5-1,1.1-1,2.3-1.4,3.5-1.3,1.1,0,1.5.5,1.1,1.3,1.7-1.1,3.2-.8,4.5,1-.4-1.6,0-2.6.9-3,.8-.4,1.4-.3,2,.3.5-.3,1.1-.4,1.7-.3.8,0,1.5.4,1.9.9.5.5.6,1,.3,1.5-.4.5-1.2.9-2.5.9.4.6.5,1.1.2,1.5-.2.4-.6.6-1.3.6-.6,0-1.1-.1-1.5-.5-.5-.4-.7-1-.7-1.8-.3,1.2-.5,1.9-.8,2.1-.1,0-.4,0-.8-.5-.4.4-.8.6-1.3.6-.5,0-.7-.5-.4-1.3-1.8,2.7-2.8,2.8-3.1.6-.2.1-.4.2-.5.3h0c-.8.3-1.8,0-2.9-.6l-6.4-.4c-1.5-1-2.3-1.6-2.5-1.6-.4,0-1,.2-1.8,1l-.2.5c-.2.6-.6,1.1-1.3,1.5-.9.6-1.7.7-2.3.2l-.5-.4-.4.5c-1.3,1.7-2.9,2.7-4.7,3.1-2.1.4-3.5-.3-4-2.3-2.7,1.2-4.5,1.2-5.5,0h-.8s-1.7-.6-1.7-.6c-.9,0-1.5-.1-1.9-.7h-1.1c-.6-.1-1-.5-1.3-1-.9.5-1.7.6-2.3.3-.6-.4-.5-.9.3-1.6-.5,0-1,0-1.5-.3-.5-.4-.5-.8,0-1.2-.9,0-1.3-.1-1.3-.7s.4-.8,1.3-.7c2.1-.9,3.3-.8,3.6.4l-.2,1.2c0,.2-.2.2-.4.2.9.9,1.7,1,2.2.3.2-.3.4,0,.7,1h0c0,.1,0,.1,0,.1.3-.2.6-.2,1.1,0,.9-1.4,1.8-2.1,2.5-2,0-1,0-2.2.5-3.4.6-1.7,1.5-2.1,2.7-.9-.2-2.2.5-3.2,2.3-3,.6.2.9,0,.8-.4,0-.4-.4-.8-.9-1.2-1.5-1.2-2.5-1-3.1.6-2.3,2.5-3.9,2.2-4.7-.9-1.7,1.1-2.8,1.7-3.6,1.8-1,0-1.6-1-1.7-3-1,.8-1.8,1-2.4.8-.3-.1-.8-.6-1.4-1.6-.6.5-1.2.8-1.7.7-.4,0-1-.5-1.6-1.3-1-.6-1.8-.7-2.4-.3h-.1c-.3.3-.8.8-1.3,1.5.7,0,1.3.2,1.8.4,1.3.6,1.1,1.3-.6,1.9,1.8.7,2.8,1.3,2.9,2.1,0,.6-.4,1.2-1.5,1.7-1,.5-2.1.7-3.2.8-1,0-1.7,0-2.2-.4l-.3-.3h0s0,0,0,0c-.5-.5-.9-1.3-.9-2.6s0-.6-.3-.6-.8.2-1.5.6c-1.5.9-2.2,1.7-2,2.3.2.6.9.8,2.2.3h1.6s.5.2.5.2l.4.4c.4.9-.3,1.4-2.1,1.4s-4.1-.3-5.1-.8c-.4-.2-.9-.5-1.1-.9-1.5,0-3,.2-4.5.6-.5.2-2.1.8-4.8,1.9-1.7.8-3.1,1.1-4.2,1-1.2,0-2.4-.6-3.7-1.6l-3.4.5c-1.7,0-3.4-.9-5-2.5-1.5-1-3.3-1.6-5.4-1.6s-3.1.3-5.7.8c-2.5.5-4.4.7-5.7.6-2.1,0-3.8-.8-5.3-1.9.8.1,1.2-.4,1.3-1.5.2-1.4.9-1.7,2.3-1,.5-.4,1.2-.6,1.9-.6.8,0,1,.4.6,1,.6,0,.9.2,1,.6.2.4,0,.6-.6.7v.2s.8,0,.8,0c.6,0,1.2-.2,1.7-.5.5-.3,1.1-.5,1.6-.6h.7c.3.2.5.4.7.4h1c.4,0,.9,0,1.6-.2h.6c-.2-.4,0-.8.1-1.2,0-.1.2-.2.3-.3,0-.4,0-.5.3-.6.1,0,.3,0,.4.3,0,0,.2-.2.4-.2h.3c.8-.4,1.3-.6,1.4-.8.5-.4.4-.9-.2-1.3-.5-.3-.9-.4-1.2-.3-.2,0-.3.3-.3.5,0-.5-.3-.8-.8-.8h-.3c-.5-.5-1.1-.8-1.5-.7-.4,0-.9.3-1.7.6-.9.3-1.7.4-2.3.3-.4.4-.7.6-.9.8-.5.4-1,.4-1.3,0l-.3.2c0,.1-.2.2-.3.2h0c-1.3.9-2.6,1-3.7.4-.8-.3-1.7-.4-2.7-.3-.5,0-1.5.3-3.1.6-1.1.3-1.5.3-1.2,0,.3-.3,1-.6,2.2-1,.9-.3,1.3-.4,1.2-.5l-.3-.2c0,0-.1-.2,0-.3-.7.3-1.4.3-2,.2-.7,0-.9-.4-.6-1-.5.2-1.1.3-1.6.2h-.3c-.5.3-.9.4-1.2.5-.5,0-.8-.2-.7-.9-.4.4-.8.5-1,.4-.3,0-.3-.3-.2-.6-.5.2-1.4.4-2.7.5-1.5.1-2.6.1-3.2,0-1.2,0-3.1.2-5.6.2-.4.4-.7.5-1,.5-.3,0-.3-.4,0-1" fill="#c6b342" fill-rule="evenodd"/>
  <path d="M815.4,97.2c0,1.5-.6,2.6-1.7,3.5l-4.7,2.9c-1.9-.2-3.6.6-5.1,2.2-.7,0-1.2.5-1.4,1.4v.3c-.9.7-2,.8-3.3.6-1.8-.6-3.1-.9-4-.9-1.1,0-2.3.4-3.4,1.1-1.2.8-1.4,1.7-.5,2.5v.2c-.2.9-.9,1.2-2.1,1l-3.5-1.2-.3-.3.3-.4c.2-.5.2-1-.2-1.6l.2-.4.5.2c2.1.5,3.1-.3,3-2.3,0-.8-.4-1.2-1.1-1.3-.7-.2-1.1-.5-1.2-1.1-.2-1.1.8-1.8,2.9-2.1h1.3c-.4-.4-.6-.9-.8-1.5-.5-1.5-.2-2.9.9-4.3,1.5-1.8,4.3-2.3,8.3-1.8,1.6.2,3.1.3,4.5,0l2.1-.5-.2.7c-.2,1.1.2,2.2,1.1,3,.9.9,1.9,1.2,3.1,1.1.9,0,1.6-.6,2.1-1.6.5-1,.3-1.7-.8-2.1.7-.3,1.3-.4,2-.3,1.3.2,2,1.2,1.9,2.9h0ZM581.6,79.4c-.2.9.2,1.3,1,1.4v.3s-2.5-.3-2.5-.3l-.5.8c-.7.7-1.5.8-2.4.1-.7-.5-.9-1.2-.7-2.2.2-.9.8-1.3,1.7-1,0-.8.4-1.1,1.1-1.1.7,0,1.2.3,1.6.9.6-.9,1.2-1,1.7-.2.3.6.3.9-.2.9-.7.1-1,.2-1,.3h.2ZM590.2,115.3c1.7-.1,2.7-.9,3.2-2.4.7,1.6,1.8,2.2,3.1,2l.7-.2c.5.3,1.2.3,2.1,0,.8-.3,1.3-.6,1.6-1.1l.2-.7c1,1.2,2.4,2,4.3,2.5l1.5.3h1.3c.8.5.8.9,0,1.4h0c-.9.5-1.6.4-2.1-.4.9,1.3.6,2.3-.7,2.9-1.4.7-2.5.5-3.4-.7-.6,1-1.5,1.1-2.6.5-1.1-.6-1.6-1.5-1.6-2.5-.5.9-1.3,1-2.2.3l-1-.9c-.7,1.1-1.7,1.1-2.9.1l-1.1-1.1h0ZM566.5,98.1v.6c1,0,1.7.6,2,1.7.2.4.1.7,0,.9l-.9-.2c.2,1.1-.2,2.2-1.2,3.1-1.1.9-2.2,1.1-3.3.7-.9-.4-1.2-.9-.8-1.6.6-1,.8-1.7.7-2.1-2.5,1.3-3.3.6-2.3-2.3-.8-.1-1.1-.3-1-.6l.3-.5c.6-.6,1.3-.9,2-1,.6,0,1.3.2,2.3.7,1,.5,1.7.7,2.2.7h0ZM485.9,113.1l-.3.3-.8.2-.6-.4c-.2.4-.6.7-1.1.6-.5,0-.8-.3-1-.8h-3.2c0,.8,0,1.3-.4,1.3-.3,0-.7-.1-1.2-.5-.5-.4-.7-.8-.7-1.1,0-.4.2-.6.9-.6-.9-.3-1-.8-.4-1.4s1.3-.8,2.1-.6l.2,1.1c1.1-.3,1.6,0,1.5,1.1l4.1.2c-.8-1,0-1.5,2.2-1.5,2.2,0,3.5.2,3.9.5-.5-1-.2-1.4,1-1.3.4,0,.7.2.9.4s.1.4-.3.7l2.1.2c.2-.7.8-1.1,1.8-1l2.3.4c.4-1.1,1.1-1.2,1.9-.2,0-.7.5-1.1,1.1-1.1.5,0,.8,0,1,.4v.7l.2.6c-.5.5-.7,1.1-.6,1.7l-6.7-.2c-1.2.5-2.3.8-3.1,1-1.5.3-2.3,0-2.5-1h-1.4v.6l-2.7.3v-.3" fill="#efeab8" fill-rule="evenodd"/>
  <path d="M762.2,61.5c-5.6-3-9.9-5.2-12.9-6.6-5.3-2.5-9.2-3.9-11.9-4.3l-13-1.1c-2.6-.2-4.6-.5-6-1,1.7.9,3.2,1.3,4.6,1.5l5.8.6c9.1,1.9,14.4,3.8,16.2,5.6,2.9,1.5,4.9,2.6,5.9,3.4,1.4,1.2.4,1.3-3.1.5-3.8-.8-7.7-1.3-11.8-1.3h0v.2s6.5,1.2,6.5,1.2c4,1,5.1,1.8,3.3,2.5-2.6-.3-5.3-.4-8.2,0v.2l8.7,1c4.3.7,3.7,1.1-1.9,1.1l-17.9.7c-4.5.5-8.2.4-11.1-.2l-12.2-1.1c-2.5-.4-2.8-1.1-1-2.1,1.3-.9,1.2-1.6-.4-2.1l-4.9-.4c-4.3,0-7.4-.7-9.3-1.8-.7-.4-.7-.7,0-.9.9-.2,2.5-.2,4.9,0,8.2.3,16.2-.2,24.1-1.5,3-.5,4.4-1,4.3-1.3l-6.7-.4-20.7.8-10.8-.3c-3-.8-5.9-1-8.5-.6l-6.3,1c4.9-.4,8.4-.2,10.5.5,1.5.5,3.4,1.8,5.5,3.9,1.7,1.6,3.4,2.6,4.8,2.8l4.7.4c3.1.7,4.7,1.2,5.1,1.7.4.7-1.1,1.2-4.4,1.7l-10.2,1.1,12.3.7c3.2.7,5.4,1.3,6.7,1.8,1.5.7,1,1.1-1.3,1.1-1.1,0-2.1-.3-3.3-.7l-2.5-.7c-1.9-.4-4.3,0-7.2,1.2-2.4.9-4.1,2.1-5.1,3.5-.9,1.3-2.9,2.5-6.1,3.8,6.3-2.2,9.9-3.4,10.8-3.5,1-.1,1.9,0,2.7.4.5.3,1.6.9,3,2,5.6,2.9,12.7,3.5,21.3,1.8v-.3c.1,0-4.1-1.6-4.1-1.6-2.3-1.1-4.1-1.6-5.4-1.8-2.5-.3-4.2-1-4.9-2.1-.7-1.1,1.2-1.3,5.8-.4l11.2.7c1.3-.1,2.5-.4,3.8-.9,3.1.4,6,.2,8.7-.7,1.6-.5,3.8-1.4,6.8-2.8,3.9-.7,7.3-.7,10.1,0,1.6.3,3.7,1,6.3,2l13.2.7c1.6.1,2.1.4,1.8.9-.4.6-2.2,1.6-5.3,3l-14.6,4.5c-2.4.7-4.9,1-7.6.9-4.7-.1-8,.4-9.6,1.6-2,1.5-.2,3.3,5.4,5.6,3.2,1.4,6,3.3,8.5,5.6,2.3,2.3,4,4.8,4.9,7.4.9,2.7,1,5.2,0,7.4-1,2.5-3.1,4.4-6.2,5.8-8,3.8-13.4,5.7-16.3,5.6-1.1,0-2.1-.3-3.2-.9-1.8-.9-2.9-1.3-3.4-1.5l-1.6-.4c-.5-1.8-1.6-3.6-3.1-5.3-2.5-2.7-5.1-3.7-7.7-3.1-2-2.6-5.3-2.5-10,.4,0-1.7-.5-3.4-1.5-5-1.9-3.5-4.6-4.9-8-4.4-1.1-2.5-2.6-4-4.7-4.3l-5.8.4c-.4-1.1-1-2.2-2-3.2-1.5-1.4-3.2-2.3-5.2-2.8-2.2-.5-4.3-.2-6.3.7-2.3,1.1-4.2,2.9-5.6,5.5-5.7-2.2-10-1.2-12.8,3-1.7,2.5-2.5,5.1-2.7,8h-3.1c-2.5.5-4.2,1.4-5.1,2.9-1.9-.8-3.9-.9-6-.4-2.1.6-4,1.6-5.5,3.1-3.6,1.1-5.7,3.9-6,8.3-2.3,1.7-2.5,4-.7,6.7.7,1,1.6,1.9,2.7,2.7,1,.7,1.9,1.1,2.5,1.2-2,2.2-2.9,4.9-2.6,8,.3,2.9,1.5,5.1,3.5,6.6,1.4,3.3,3.8,5.1,7,5.5l3.7-.2c.3,2.2,1.2,4.3,2.7,6.3,2,2.7,4.3,4.2,6.7,4.4,1.3,1.5,3.1,2.7,5.4,3.5,2.2.8,4.5,1.1,6.9.9,2.9-.2,5.3-1.1,7.1-2.5,3.1,4.1,7,5.4,11.6,3.7,4.1,1.6,7.2,1.5,9.4-.2l1.9-1.8c.6-.5,1.2-.7,1.7-.5,3.4-.3,5.9-1.3,7.3-3,.4-.5,1.1-1.8,2.1-3.9,3.6.4,7.3-.7,11.1-3.1,3.6-2.4,5.8-5.3,6.5-8.6,1,.3,2.1.5,3.3.4,5.1,0,8.7-2.9,10.8-8.5,1.4-3.2,3.2-5.4,5.4-6.5,1.7-.9,3.9-1.2,6.5-.9,1.5.2,3.8.6,7,1.3l7.1.3c3.5-.7,6.6-2.1,9.2-4.1,2.6-2,4.4-4.4,5.4-7.1,1.1-2.8,1.2-5.7.3-8.5-.9-3.1-2.9-5.8-6-8.3-7.5-6-12-11.2-13.5-15.7-1.5-4.6.7-6.8,6.5-6.7,10.7,0,18.2-.6,22.6-1.8,5.3-1.5,7.3-4,5.9-7.7-1.5-3.4-3.6-5.6-6.1-6.5l-2.9-.9c-1.1-.4-1.9-1.1-2.5-2-1.6-1.6-3.6-2.2-6-1.7l-2.9.7c-1.1.2-2.1,0-2.9-.3h-.2ZM684.1,83.4q0-.1,0,0ZM668.6,102.8c1.7.3,2.6,1.1,2.9,2.4v.5c-1.3,0-2.1-.6-2.6-1.6-.3-.4-.4-.9-.3-1.4h0ZM543.9,112.1h.8c-.6,0-.8-.3-.8-.7v.7ZM520.8,103.9v.6-.6ZM510.2,112.6h-.2c0-.1.1-.4.1-.4v.4h0ZM502.9,111q0,0,0,0ZM759,93.1h0c0,.1,0,.1,0,.1-.8,0-1.2-.2-1.3-.5.2-.4.5-.6.8-.4s.4.4.5.8h0ZM744.2,93.6l-.3.3h.2c0,0,.1-.3.1-.3" fill="#e0d47f" fill-rule="evenodd"/>
  <path d="M718.7,68.5v.4c0,1.3-.5,2.3-1.7,3-1.2.7-2.3.6-3.1-.6-.7-.9-.6-2,.2-3.2h0c.8-1.3,1.4-1.3,1.8-.4-.1-1,.1-1.7.7-1.9.5-.2,1.1,0,1.8.4.7.4,1,.9,1,1.3s-.3.8-.8,1h0ZM776.6,71c1-.3,1.4.5,1.1,2.4h-.2l-1.3.5c-1.2.7-1.9,1.9-2.1,3.6h0c-1.4.3-2.3-.2-2.5-1.4-.4-.3-.6-.7-.6-1.3-.6.8-1.5.7-2.7-.4-.5-.3-.7-.9-.6-1.7,0-.8.4-1.5,1-2.1,1.4-1.7,3.1-1.4,5.1.8.2-.5.5-.7,1.1-.7.2-.3.4-.4.8-.4.4,0,.8.2,1.1.7h0ZM771.3,73.7c-.3.4-.4.8-.4,1.1l.4-1h0ZM816,92.6c-.9-.4-2.1-.4-3.5,0-1.3.4-2.1,1-2.3,1.9h1.2c.7-.2,1.3-.3,2-.2,1.3.2,2,1.2,1.9,2.9,0,1.4-.6,2.6-1.7,3.5l-4.7,2.9,1.2.2,2.9.4c1.2-.2,2.4-1,3.7-2.3,2-.4,3.1-2,3.4-4.7.2-.8-.1-1.7-1-2.7-.9-1-2-1.7-3.3-1.9h0ZM783.3,104.5c.3-3.6,2.6-5.1,6.9-4.6.2.6.5,1.1.8,1.6h-1.3c-2.1.3-3.1,1-2.9,2.1,0,.6.5,1,1.2,1.1.7.2,1,.6,1.1,1.4,0,2-.9,2.8-3,2.3l-.5-.2-.7-.3-.6-.4v.2c.2,0,.4.2.6.3,0,0,.6.7.6.7.3.6.4,1.1.2,1.6l-.3.4-.2.2c-.9,0-2.1.2-3.5,1l-.2-.3c-.2.2-.5.3-.9.3-.6,0-1.3-.4-1.9-1.1-.7-.7-.9-1.4-.9-2.1,0-.8.7-1.3,1.8-1.7-.8-.9-.3-1.3,1.6-1.4h2.2v-.9h0ZM780.7,113.8h.2c0,0-.5,1.1-.5,1.1-.8,1.2-.9,2.3-.3,3.2l3.9-.2c.7-.6,1.1-1.1,1-1.8h.2c0-.1,1,1.6,1,1.6.6.7,1.5,1,2.7.9v.2c.7-.2,1.3,0,1.9.6,1,1,1.1,2.7.2,5-.6,1.8-1.6,2.9-3.1,3.4-1.4.5-2.9.3-4.6-.5l-3.1-1.8-1.1-.6c-1.6-.8-3.2-1.1-4.8-.9-4.1.6-6.6,3.2-7.4,7.9-3.9-.3-7.2.1-9.8,1.3-.3.9-.9,1.2-1.9,1h-.2c-1.1-.3-1.6-.9-1.6-2h-1.6s-.3-.7-.3-.7c-.2,1-1.2,1.5-2.9,1.4-1.7,0-2.9-.5-3.6-1.3-.4,0-.8,0-1.1.5,1.3.6,1.8,1.6,1.4,3.1-.4,1.5-1.2,2.5-2.5,3.1-.9.4-2,.3-3.6-.3l-1.2-.4c-.4.3-1,.5-1.8.5-1.3,0-2.5-.6-3.3-1.6-.3.9-1.1,1.3-2.5,1.2-1.4,0-2.7-.6-3.8-1.6-.9.7-2.1,1.1-3.8.9-1.8-.2-3.1-.7-4.1-1.8l-1.4-1.8-.5-.2-.9,1c-.9.7-1.9,1-3.2,1.1-3.4.2-5.1-1-5.4-3.5-.3-2,.8-3.6,3.1-4.8,2-1,3.7-1.2,5.3-.5-.4-.3-.5-.7-.2-1.2.4-.6,1.1-.9,2-1l2.8.2c1,0,1.9-.4,2.6-1.1,1.4-1.5,1.1-2.7-.9-3.6-1.6-.7-2.9-.7-3.9,0h-.9c-1.2,0-2.2.4-2.9,1.1l-2.1,2c-.8.6-1.8.7-2.8.4-.9-.3-1.8-1-2.6-1.9-.5-.6-.9-1.1-1.1-1.7-2.4,1.2-4.1.9-5-.8.1,1.4-.6,1.9-2.1,1.6-1.3-.3-2-1-2-2.1h0c0,0,0,0,0,0l-.7-.4c-.9-.6-1.2-1.3-.9-2.2-3.3-.3-5-1.3-5.2-3.3-.3-2.1,1.2-4.3,4.4-6.4,2.2-1.4,5.2-2.5,9-3.3l.2.7c-2.1.4-4.3,1.2-6.4,2.6-4,1.8-5.8,3.7-5.5,5.6.3,1.6,1.7,2.5,4.2,3.1l.2-.2c1.7-2,4-2.4,7.2-1.1.2-.5.6-1,1.2-1.6,1.6-1.6,3.1-2.4,4.4-2.4,1.7,0,3.1.2,4.3.9l2.1,1.6,1.2.7v-.6c.2-.7.6-1.4,1.3-2,.8-.8,2.2-1.1,4.1-.9,1.9.2,3.2.8,4.1,2l.9,1.7c.3.4.7.5.9.2v-.4c.2-1.8,1.7-2.3,4.3-1.4v.2-.2c.7-.7,1.6-.9,2.9-.7,1,.2,1.7.5,2,1.1.4-.3,1.1-.4,2-.3.9,0,1.6.5,2,1.2.4.7.5,1.7.3,2.7-.7,2.7-2.8,4.8-6.5,6.3-3.1,1.7-4.4,3.4-3.6,5,.3.6.9,1.1,1.7,1.3l1.8.2c-.2-.4-.3-.8-.3-1.2,0-.6.5-1.1,1.2-1.4,1.8-.9,4.5-.4,7.9,1.3-.4-1.2.2-2.1,1.8-2.8,1.7-.7,3.7-.5,6.1.5-.8-.8-.7-1.7.6-2.5,1.2-.9,2.8-.9,4.6,0,1.6,1.1,3,1.6,4.3,1.6s2.7-.5,4.1-1.6c1.4.8,2.8.5,4-.7.7-.7,1.2-1.6,1.3-2.4-.7.7-1.6.7-2.9,0-1.9-1.1-2.4-2.6-1.6-4.7,1.1-2.8,3.5-3.7,7.2-2.9,1.4.3,3.5,1.7,6.4,4.1,2.5,1.6,4.5,1.1,6-1.6,1,.4,1.9.3,2.7-.4.8-.7,1.1-1.5,1.1-2.5-.5-.2-.9-.5-1.3-1-.4-.7-.5-1.6-.2-2.6.3-1,.8-1.8,1.4-2.2.7-.5,1.6-.6,2.6-.2l2.3.3-13,8.5ZM716,138.1l.2.4-.5.2c-.5.1-.9,0-1.3-.4-.2-.2,0-.4.4-.7.4-.2.8,0,1.1.5ZM668.9,104.2c-.2-.5-.3-.9-.3-1.4,1.7.3,2.6,1.1,2.9,2.5v.5c-1.3,0-2.1-.6-2.6-1.5" fill="#e4da8d" fill-rule="evenodd"/>
  <path d="M779.7,56.7c-.9-1.1-1.6-1.6-2.2-1.4-.2,0-.6.4-1.4,1.3l-4,.3c-.5.1-1.2.1-2.1,0-.9,0-1.7,0-2.2,0-.7.2-1.6.2-2.7,0l-1.4-.2c-.6-1.1-1.6-1.8-2.9-1.9-1.3-.2-2,.2-2.1,1-.2-.4-.6-.6-1.1-.5s-.9.4-1.1.8l-5.5-.2-1.2-1.1c-.3-.2-.7,0-1.2.3-2-.3-3-.2-3.1.4l-4.1-.2-2-.2h-.1c-.8-.8-1.5-1.4-2.2-1.8-1.1-.5-1.8-.2-2.2.9-.3.2-.7.2-1.2.3-.4,0-.7.2-.8.5-.6-1.1-1-1.1-1.4,0-1.3-.9-2.3-1.2-3.1-1-.9.5-1.8.8-2.6.9-2,.1-3.3.2-3.8,0-.7,0-1-.4-.9-.9-.4.2-.8,0-1.3-.2-.5-.3-.8-.6-.9-1-.4-1.1.9-1.2,3.8-.5,1,.2,1.8,0,2.1-.4.3-.4.3-.8,0-1.4-.3-.6-.7-1.1-1.3-1.5-.3-.2-.5-.3-.8-.4l-.3-.4c-.5-.4-1.1-.6-1.8-.6v-.7c0-.2-.2,0-.5.2-.6.5-1.1.5-1.8,0-.6-.4-.4-.9.7-1.3,1.2,0,1.6-.4,1.1-1.1-.4-.7-1.6-1.4-3.4-2-1.3-.9-1.6-1.5-.7-1.9.9-.4,2.1-.4,3.8.3,1.6,1,4.3,1.4,8.3,1.1l.4.2h1.4c1-.8,3.4-1.6,7.2-2.5-1.4,0-2.6-.3-3.7-.7-1.3-1.1-3.6-1.3-7.1-.5-1,.7-1.7,1-2.1.9l-.3-.4-2.5.2h-.2c-1.7,0-2.2-.2-1.8-.6.7.3,1.3.3,1.8.2h.2c.5-.2.3-.5-.5-.9-.5-.6-.7-.9-.6-1.1,0-.2.3-.2.8-.2,1.7,0,2.8-.2,3.5-.6.4-.8,2.1-1.1,5-1.1h4.2c-.9-.7-1.6-1.1-2.2-.9-.9.5-1.4.7-1.6.7h-.3l-1.8-.5c-2.3-1.7-4.5-1.7-6.7,0-.5.4-.8.6-1,.5l-.5-.5c-.6-.9-1.8-1.5-3.6-1.6l-2.2-.6c-.5-.2-.7-.4-.7-.6,0-.3,1.2-1.6,3.7-4,.9-1.1,1.1-1.9.5-2.5-.5-.5-1.4-.8-2.9-.9l-4.1.3c-1.5.3-2.6.8-3.2,1.3-.9,1.2-1.1,2-.4,2.4.5.4,1.3.3,2.5-.2l-.9-.7c-.9-1.2.7-1.7,4.7-1.3,2,.2,2.4,1.1,1.3,2.5-1,1.3-2.1,2.2-3.5,2.7,0,.7-.4,1.3-1.2,1.9l-2.6,1.6c-.6-.6-1.6-.7-2.9-.3-1.5.4-2.9,1.4-4.3,2.9-.2-.7-1.2-1.1-3.1-1.2l-4.4.2c-1.1-.8-3-.6-5.7.7-.2-.3-1.4-.3-3.5,0l-9.3,1c2.6,0,8.1,0,16.3.4l2.4-.7c1.4-.4,2.2-.4,2.6-.2-1.1.6-.2,1,2.9,1.1,3.1.2,5.6,0,7.6-.5.4.3.4.6.1.9,0,.4,1.3.9,3.8,1.5,1.2,1.1,1.8,2.2,1.6,3.4-.2,1-.8,1.9-2,2.6-1.1.7-2.5,1.2-4.2,1.4-1.8.2-3.4.1-4.9-.3l-2.1-1.1c-.7-.3-1.2-.5-1.6-.5-.9,0-1.8,1.4-2.5,4-.4-1.1-1.1-1.8-2.2-2-1.3-.2-2.7.5-4.2,2-2.7-1.2-4.4-1.3-5.2-.2-.3.4-.4.9-.4,1.4s0,.5,0,.7c-.4.4-.7.8-.9,1.3,0-.8-.6-1.1-1.3-.9-.8.2-1.7.7-2.6,1.8-.2.4-.2.9,0,1.4.2.3.4.6.8.8-.4.5-1.2.7-2.4.5-1.6-.2-2.9-.7-4-1.5-1.1,1.8-1.9,2.4-2.4,1.9.2-1.7-.6-2.9-2.3-3.8-1.1-.6-2-.7-2.7-.3l-2.5.4h0l-2.6.3c-.9,0-1.6-.4-2.3-1.3-2.5-2.9-5.6-4.1-9.2-3.5l-2.7.4h-.5c0,0,0,0,0,0-.6-1.2-1.3-2-2.1-2.2-.9-.2-1.6,0-2.3.7.7-1.8.3-2.3-1.4-1.6,0-1.6-.9-1.9-2.6-.9-.6-.7-1.3-.9-2.1-.5-.8.4-1,1-.5,1.9-1.1-.4-1.9-.3-2.2.3-.3.6-.2,1,.3,1.3-.6,1-.3,1.6.9,1.9,1.2.3,2.2,0,2.9-1,.4-.6.8-.9,1.3-1.1h.8c.4,0,.6.2.7.4,0,.2,0,.5,0,.8,0,.6.4.9,1.3.7.9-.2,1.5-.4,1.8-.7.4,0,1.1.2,2.2.8.7.4,1.3.6,1.9.5-.6.2-.9.6-.7,1,.2.4.6.7,1.3.7,0,.2,0,.4,0,.9,0,.4-.4.6-1,.5,0,.4-.2.9-.5,1.3-.4.4-.9.6-1.3.6-1.3-.9-3.3-1.3-6-1.2-1.1,0-1.9.2-2.2.5-.4.4-.2.9.7,1.6h-.7c-1.8-.6-3.5-.9-5.1-.8-1.8,0-2.8.6-3.1,1.6h-1c-1,0-1.8.6-2.1,1.8-.6-.3-1.1-.3-1.6,0-.2.2-.4.4-.4.6-1-.4-2.3-.4-4,.2-2.6-.7-5-.7-7-.2-1.5.4-3.6,1.2-6.2,2.7-1.1.1-2.5.4-4,1h-.4c0,.1,0,0,0,0l-5.4.4-4.6.4-1.7-.2-1.1-.4c-3-.4-5.7-.5-8.1-.2l-2.9.7,7.2.5,9.8.7,1.3-.2c2.8.4,5.8.2,9.2-.4l2.2.4,4.9-.2,6.9-.9c3.6.7,6.3,1.2,7.9,1.3,2.7.3,4.8,0,6.2-1-.7.6-1.2,1-1.3,1.2,0,.2,0,.4.4.7-.3.2-.4.3-.4.6,0,.2.2.4.5.5.3.1.6.2.9.2.2,0,.4,0,.5-.2.2,0,.4.2.6.1.3.7.8,1,1.7,1.1.7,0,1.4-.1,2.1-.5l.4-.4c.7.8,1.4,1.4,2.1,1.9,1.4.9,2.5,1.1,3.4.4l.5-.4.9,1.1c1,1.4.6,2-1.1,1.8-1.2-.4-2.2-.5-2.7-.2-1.5-1.2-2.9-1.5-4.3-.9-.6.2-.9.6-1.1,1.1-.1.4-.1.7,0,1.1-2-.2-3.7.2-5.1,1.2-.7.4-1.3.7-1.8.7-.8,0-1.8-.3-3.1-.9-1-.9-2.1-1.3-3.1-1.1-1,0-1.3.5-1,1.1-1.6-1-2.9-.7-4.1.9.3-1.4,0-2.3-.8-2.7-.7-.3-1.3-.2-1.8.3-.5-.2-1-.3-1.5-.3-.7,0-1.3.4-1.8.9-.4.5-.5.9-.2,1.3.3.5,1.1.8,2.3.9-.4.5-.4,1-.2,1.3.2.4.6.5,1.1.6.5,0,1-.1,1.4-.4.4-.4.7-.9.6-1.7.2,1.1.5,1.7.7,1.9.1,0,.4,0,.7-.4.3.4.7.6,1.2.5.5,0,.6-.5.4-1.2,1.6,2.4,2.6,2.6,2.9.6.2.1.4.2.5.3h0c.7.2,1.6,0,2.6-.6l5.8-.3c1.3-.9,2.1-1.4,2.3-1.4.4,0,.9.2,1.6.9l.2.5c.2.6.6,1,1.1,1.4.8.6,1.5.6,2.1.2l.4-.4.4.5c1.2,1.6,2.6,2.5,4.3,2.9,1.9.4,3.1-.3,3.6-2.1,2.5,1.1,4.1,1.1,5,0h.7s1.5-.6,1.5-.6c.8,0,1.4-.1,1.8-.6h1c.6-.1.9-.4,1.2-.9.8.4,1.5.5,2.1.2.6-.3.5-.8-.2-1.4.4,0,.9,0,1.3-.3.5-.4.5-.7,0-1.1.8,0,1.1-.1,1.1-.6s-.4-.7-1.1-.6c-1.9-.9-3-.7-3.3.4l.2,1.1c0,.2.2.2.4.2-.9.9-1.6.9-2,.2-.2-.3-.4,0-.7.9h0c0,.1,0,.1,0,.1-.2-.2-.6-.2-1,0-.9-1.3-1.6-1.9-2.3-1.8,0-.9,0-2-.4-3.1-.6-1.6-1.4-1.9-2.5-.9.2-2-.5-2.9-2.1-2.7-.6.2-.8,0-.7-.3,0-.3.3-.7.8-1.1,1.3-1.1,2.2-.9,2.8.5,2.1,2.3,3.6,2,4.3-.8,1.5,1,2.6,1.6,3.3,1.6.9,0,1.4-.9,1.5-2.7.9.7,1.7.9,2.2.7.3-.1.7-.6,1.3-1.4.6.5,1.1.7,1.5.7.4,0,.9-.4,1.4-1.1.9-.5,1.6-.6,2.2-.2h.1c.3.3.7.7,1.2,1.3-.7,0-1.2.2-1.7.4-1.2.5-1,1.1.6,1.8-1.7.6-2.5,1.2-2.6,1.9,0,.6.4,1.1,1.3,1.6.9.4,1.9.7,2.9.7.9,0,1.6,0,2-.4l.3-.2h0s0,0,0,0c.5-.4.8-1.2.8-2.4s0-.6.2-.6.7.2,1.3.5c1.4.8,2,1.5,1.8,2.1-.2.6-.8.7-2,.3h-1.4s-.5.2-.5.2l-.3.4c-.4.9.2,1.3,1.9,1.3s3.7-.2,4.7-.7c.4-.2.8-.5,1-.8,1.4,0,2.7.2,4.1.6.5.2,1.9.7,4.3,1.8,1.6.7,2.8,1,3.8.9,1.1,0,2.2-.6,3.4-1.4l3.1.5c1.6,0,3.1-.8,4.6-2.3,1.4-.9,3-1.4,4.9-1.4s2.8.2,5.2.7c2.3.4,4,.6,5.2.6,1.9,0,3.5-.7,4.8-1.8-.7.1-1.1-.3-1.2-1.3-.2-1.3-.9-1.6-2.1-.9-.5-.4-1.1-.6-1.7-.5-.7,0-.9.3-.6.9-.5,0-.8.2-.9.5-.2.4,0,.6.6.7v.2s-.7,0-.7,0c-.5,0-1.1-.2-1.5-.4-.5-.2-1-.4-1.5-.5h-.7c-.3.2-.5.3-.6.4h-.9c-.3,0-.9,0-1.5-.2h-.5c.2-.4,0-.7-.1-1.1,0-.1-.2-.2-.3-.2,0-.3,0-.5-.2-.6-.1,0-.2,0-.4.3,0,0-.2-.2-.4-.2h-.2c-.7-.3-1.1-.6-1.3-.7-.4-.4-.4-.8.2-1.2.4-.3.8-.4,1.1-.3.2,0,.3.2.3.5,0-.4.3-.7.7-.7h.2c.5-.4,1-.7,1.4-.7.3,0,.9.2,1.6.6.8.2,1.5.3,2.1.3.3.3.7.6.9.7.5.3.9.4,1.1,0l.2.2c0,.1.2.2.3.2h0c1.2.8,2.3.9,3.4.4.7-.3,1.5-.4,2.5-.3.4,0,1.4.2,2.9.6,1,.2,1.4.2,1.1,0-.3-.3-.9-.6-2-.9-.9-.2-1.2-.4-1.1-.5l.2-.2c0,0,.1-.2,0-.3.7.2,1.3.3,1.8.2.7,0,.8-.4.5-.9.5.2,1,.2,1.4.2h.3c.4.2.8.4,1.1.4.5,0,.7-.2.6-.8.4.4.7.5.9.4.2,0,.3-.3.2-.6.4.2,1.3.3,2.5.4,1.3.1,2.3.1,2.9,0,1.1,0,2.8.2,5.1.2.3.4.7.5.9.4.3,0,.3-.4,0-.9" fill="#c6b342" fill-rule="evenodd"/>
</svg>