<?xml version="1.0" encoding="UTF-8"?>
<svg id="Layer_1" xmlns="http://www.w3.org/2000/svg" version="1.1" viewBox="0 0 807 281.1">
  <!-- Generator: Adobe Illustrator 30.1.0, SVG Export Plug-In . SVG Version: 2.1.1 Build 136)  -->
  <path d="M497.5,116.6c0,2.2-.8,3.8-2.5,5.1l-6.8,4.3c-2.8-.2-5.3.9-7.6,3.3-1,0-1.7.7-2.1,2.1v.4c-1.4,1-3,1.2-4.9.8-2.6-.9-4.6-1.3-5.9-1.4-1.7,0-3.4.5-5,1.6-1.8,1.2-2,2.5-.7,3.7v.2c-.2,1.3-1.3,1.8-3.1,1.5l-5.2-1.8-.4-.4.4-.6c.3-.7.2-1.4-.2-2.3l.2-.6.8.2c3.1.7,4.5-.4,4.4-3.4,0-1.1-.5-1.8-1.6-2-1.1-.2-1.7-.8-1.8-1.7-.2-1.6,1.2-2.6,4.3-3.1h2c-.5-.6-.9-1.4-1.2-2.2-.7-2.2-.2-4.3,1.3-6.3,2.2-2.6,6.2-3.4,12.2-2.6,2.3.4,4.5.4,6.7.1l3.1-.7-.2,1c-.2,1.7.3,3.2,1.7,4.4,1.3,1.3,2.8,1.8,4.5,1.6,1.3-.1,2.4-.9,3.1-2.3.7-1.4.4-2.5-1.1-3.1,1-.4,1.9-.5,2.9-.4,2,.4,2.9,1.7,2.8,4.2h-.1ZM154.3,90.5c-.3,1.3.2,2,1.4,2.1v.4c0,0-3.6-.4-3.6-.4l-.7,1.1c-1,1.1-2.2,1.2-3.5.2-1-.8-1.3-1.8-1-3.2.4-1.3,1.2-1.9,2.5-1.5,0-1.1.5-1.7,1.6-1.6,1,0,1.8.5,2.4,1.3.9-1.4,1.7-1.5,2.5-.3.5.8.4,1.3-.4,1.4-1,.2-1.5.4-1.5.5h.2ZM167,143.2c2.5-.2,4-1.3,4.7-3.5,1,2.3,2.6,3.3,4.5,2.9l1-.3c.8.4,1.8.4,3.1,0,1.2-.4,2-.9,2.4-1.7l.3-1c1.4,1.8,3.5,3,6.2,3.7l2.2.4h2c1.2.7,1.2,1.4,0,2.1h-.1c-1.3.7-2.3.5-3.1-.5,1.3,1.9.9,3.4-1.1,4.3-2.1,1.1-3.7.7-5-1-.9,1.4-2.2,1.7-3.8.7-1.6-.9-2.4-2.2-2.4-3.7-.8,1.3-1.9,1.4-3.3.4l-1.5-1.3c-1,1.6-2.5,1.6-4.3.2l-1.7-1.7h0ZM132.2,118l-.2.9c1.6,0,2.7.9,3.2,2.5.2.6.2,1,0,1.3l-1.3-.3c.3,1.7-.3,3.2-1.8,4.5-1.6,1.4-3.2,1.7-4.8,1-1.3-.6-1.7-1.4-1.1-2.4.8-1.4,1.2-2.5,1-3.1-3.7,2-4.9.8-3.4-3.4-1.1-.2-1.7-.5-1.5-.9l.5-.7c.9-.8,1.9-1.3,2.9-1.4.8,0,2,.2,3.4,1,1.4.7,2.5,1.1,3.2,1.1h-.1ZM13.9,139.9l-.4.4-1.1.2-.9-.5c-.4.7-.8,1-1.6.8-.7,0-1.2-.5-1.5-1.2H3.5c.1,1.2,0,1.9-.7,2-.5,0-1.1-.2-1.8-.7-.7-.6-1-1.2-1.1-1.7,0-.6.4-.8,1.3-.8-1.3-.5-1.5-1.2-.6-2.1.9-.9,1.9-1.2,3.1-.9l.3,1.7c1.6-.4,2.3,0,2.2,1.6l6.1.3c-1.2-1.4,0-2.2,3.2-2.2,3.2,0,5.1.2,5.8.7-.7-1.5-.2-2.1,1.4-1.9.6,0,1,.2,1.3.5.3.3.2.7-.4,1l3.1.3c.3-1,1.2-1.6,2.6-1.5l3.4.6c.7-1.6,1.6-1.7,2.8-.4.1-1,.7-1.6,1.7-1.7.7,0,1.2,0,1.5.5v1l.2.8c-.7.7-1,1.6-.9,2.5l-9.8-.4c-1.8.7-3.4,1.2-4.6,1.5-2.2.4-3.4,0-3.6-1.5h-2.1v.9l-3.9.4v-.4" fill="#efeab8" fill-rule="evenodd"/>
  <path d="M419.5,64.3c-8.2-4.4-14.6-7.7-19-9.7-7.7-3.7-13.5-5.8-17.4-6.2l-19.1-1.7c-3.8-.2-6.7-.7-8.8-1.4,2.5,1.3,4.7,2,6.8,2.2l8.6.8c13.3,2.8,21.2,5.5,23.8,8.2,4.3,2.2,7.1,3.8,8.6,5,2,1.7.5,2-4.6.7-5.5-1.2-11.3-1.9-17.3-1.9h-.1v.2c0,0,9.5,1.7,9.5,1.7,5.9,1.4,7.6,2.6,4.9,3.7-3.8-.5-7.8-.5-12-.1v.2l12.8,1.4c6.4,1,5.4,1.6-2.8,1.6l-26.2,1c-6.6.7-12,.6-16.3-.3l-17.9-1.6c-3.7-.5-4.1-1.6-1.4-3.1,2-1.3,1.7-2.4-.6-3.1l-7.2-.7c-6.3-.1-10.9-1-13.7-2.6-1.1-.7-1.1-1,0-1.3,1.3-.3,3.7-.2,7.2.1,12,.5,23.8-.2,35.3-2.2,4.4-.8,6.5-1.4,6.2-1.9l-9.9-.5-30.4,1.1-15.9-.4c-4.4-1.1-8.6-1.4-12.5-.9l-9.2,1.5c7.1-.5,12.3-.2,15.4.8,2.2.7,4.9,2.6,8,5.8,2.5,2.4,4.9,3.8,7.1,4.1l6.8.6c4.5,1,7,1.8,7.4,2.5.5,1-1.6,1.7-6.4,2.5l-15,1.7,18.1,1.1c4.7,1,7.9,1.9,9.8,2.7,2.2,1,1.5,1.6-2,1.7-1.6-.1-3.1-.5-4.8-1l-3.7-1.1c-2.8-.7-6.3,0-10.5,1.7-3.5,1.3-6,3.1-7.5,5.2-1.3,1.9-4.3,3.7-9,5.5,9.3-3.2,14.6-4.9,15.9-5.1,1.4-.2,2.8,0,4,.7.8.4,2.3,1.4,4.4,2.9,8.3,4.3,18.7,5.1,31.3,2.7l.2-.5-6.2-2.4c-3.4-1.6-6.1-2.4-7.9-2.6-3.7-.4-6.1-1.4-7.2-3.1-1-1.6,1.8-1.9,8.5-.6l16.5,1c1.9-.2,3.7-.7,5.6-1.3,4.6.5,8.9.2,12.8-1,2.3-.7,5.6-2.1,10-4.1,5.8-1,10.7-1,14.9-.1,2.4.5,5.5,1.4,9.2,2.9l19.4,1c2.3.2,3.1.7,2.6,1.4-.7.8-3.2,2.3-7.7,4.4l-21.4,6.5c-3.5,1-7.2,1.4-11.2,1.3-7-.2-11.7.5-14.1,2.3-2.9,2.2-.2,4.9,8,8.2,4.7,2,8.9,4.8,12.4,8.3,3.4,3.4,5.8,7,7.2,10.8,1.4,4,1.4,7.6,0,10.9-1.5,3.7-4.6,6.4-9.1,8.5-11.8,5.6-19.7,8.4-23.9,8.3-1.6,0-3.1-.5-4.7-1.3-2.6-1.3-4.2-1.9-4.9-2.2l-2.4-.6c-.7-2.6-2.3-5.2-4.6-7.7-3.7-3.9-7.4-5.4-11.3-4.6-2.9-3.8-7.8-3.7-14.6.5,0-2.5-.7-4.9-2.2-7.4-2.8-5.1-6.8-7.3-11.8-6.4-1.6-3.7-3.8-5.8-6.8-6.2l-8.5.5c-.5-1.7-1.5-3.2-2.9-4.7-2.2-2-4.7-3.4-7.6-4.1-3.2-.7-6.4-.4-9.3,1-3.4,1.6-6.1,4.3-8.3,8.1-8.3-3.2-14.6-1.7-18.8,4.4-2.5,3.7-3.7,7.5-4,11.7l-4.6.2c-3.7.5-6.2,1.9-7.5,4.1-2.8-1.1-5.7-1.3-8.8-.5-3.1.8-5.8,2.3-8,4.6-5.3,1.7-8.3,5.8-8.8,12.2-3.4,2.5-3.7,5.8-1,9.8,1.1,1.5,2.4,2.8,4,4,1.5,1.1,2.8,1.7,3.7,1.8-2.9,3.3-4.3,7.2-3.8,11.7.4,4.3,2.2,7.5,5.2,9.7,2,4.9,5.5,7.6,10.3,8l5.5-.4c.4,3.2,1.7,6.3,4,9.2,2.9,4,6.2,6.1,9.9,6.5,1.9,2.2,4.6,4,7.9,5.1,3.2,1.2,6.6,1.6,10.1,1.4,4.3-.3,7.8-1.6,10.4-3.7,4.6,6.1,10.3,7.9,17.1,5.4,6,2.3,10.6,2.2,13.8-.2l2.8-2.7c.8-.8,1.7-1,2.5-.8,5-.4,8.6-1.9,10.7-4.4.7-.7,1.6-2.6,3.1-5.7,5.3.5,10.7-1,16.3-4.6,5.3-3.5,8.5-7.7,9.6-12.6,1.4.5,3.1.7,4.9.7,7.5-.1,12.8-4.3,15.9-12.5,2.1-4.7,4.7-7.9,7.9-9.5,2.5-1.3,5.7-1.7,9.5-1.3,2.2.2,5.6.9,10.3,2l10.4.4c5.2-1,9.7-3.1,13.6-6.1,3.8-2.9,6.4-6.4,8-10.4,1.6-4.1,1.7-8.3.4-12.5-1.3-4.5-4.3-8.5-8.8-12.1-11-8.8-17.6-16.5-19.8-23.1-2.2-6.7,1-10,9.6-9.9,15.7,0,26.8-.8,33.1-2.6,7.8-2.2,10.7-5.9,8.6-11.3-2.2-5-5.2-8.2-9-9.5l-4.3-1.3c-1.6-.7-2.8-1.6-3.7-2.9-2.3-2.4-5.3-3.2-8.8-2.5l-4.2,1c-1.6.2-3.1,0-4.3-.4h-.2ZM304.9,96.4q0-.2,0,0ZM282.1,124.8c2.5.5,3.8,1.7,4.2,3.5v.7c-1.9-.1-3.1-.8-3.8-2.3-.4-.7-.5-1.3-.4-2h0ZM99.1,138.5h1.2c-.8-.1-1.2-.5-1.2-1v1ZM65.1,126.5v.8-.8ZM49.6,139.3l-.2-.2.2-.4v.6h0ZM38.9,136.9q.1,0,0,0ZM414.7,110.6v.2c0,0,0,0,0,0-1.1-.1-1.7-.4-1.9-.7.4-.6.7-.8,1.1-.6.4.2.7.6.7,1.2h0ZM393.1,111.4l-.4.5h.2c0,.1.2-.5.2-.5" fill="#e0d47f" fill-rule="evenodd"/>
  <path d="M355.6,74.6v.5c.1,1.9-.7,3.4-2.5,4.4-1.8,1.1-3.4.8-4.6-.8-1-1.3-.9-2.9.3-4.7v-.2c1.3-1.7,2.2-1.8,2.8-.4-.2-1.5.2-2.5,1.1-2.8.7-.3,1.6-.1,2.6.5,1,.6,1.5,1.3,1.5,2s-.4,1.2-1.2,1.5h0ZM440.6,78.2c1.5-.5,2,.7,1.6,3.5h-.2l-2,.8c-1.8,1-2.8,2.8-3.1,5.3h0c-2.1.4-3.4-.3-3.7-2.1-.5-.4-.8-1.1-.9-2-.8,1.2-2.2,1-4-.6-.7-.5-1-1.3-.9-2.5.1-1.2.6-2.2,1.4-3.1,2.1-2.5,4.6-2.1,7.6,1.1.2-.7.7-1.1,1.6-1,.2-.4.6-.7,1.2-.6.7,0,1.2.4,1.6,1.1h-.1ZM432.9,82.1c-.4.5-.6,1.1-.5,1.6l.5-1.5h0ZM498.5,109.9c-1.4-.7-3.1-.7-5.1,0-1.9.5-3.1,1.5-3.4,2.8h1.8c1-.3,1.9-.4,2.9-.2,2,.3,2.9,1.7,2.8,4.2,0,2.1-.8,3.8-2.5,5.1l-6.8,4.3,1.8.3,4.3.5c1.8-.3,3.5-1.4,5.5-3.4,2.9-.7,4.6-2.9,5-6.8.3-1.2-.2-2.5-1.5-4-1.4-1.5-3-2.5-4.9-2.8h0ZM450.4,127.4c.5-5.2,3.8-7.5,10.2-6.7.3.8.7,1.6,1.2,2.3h-2c-3.1.4-4.5,1.4-4.3,3.1.1.8.7,1.4,1.8,1.7,1,.2,1.5.8,1.6,2,0,2.9-1.4,4.1-4.4,3.4l-.8-.2-1-.4-.9-.7-.2.2c.4,0,.7.2,1,.4,0,0,.8,1,.8,1,.5.8.5,1.6.2,2.3l-.4.6-.2.2c-1.4-.1-3.1.4-5.1,1.4l-.3-.4c-.3.3-.8.5-1.3.4-.9,0-1.9-.7-2.8-1.7-1-1.1-1.4-2.1-1.3-3.1,0-1.2,1-2,2.6-2.5-1.2-1.3-.4-2,2.3-2.1h3.2v-1.3h0ZM446.6,141h.2c0,.1-.8,1.6-.8,1.6-1.1,1.8-1.3,3.4-.5,4.7l5.8-.2c1.1-.8,1.6-1.7,1.5-2.7l.2-.2,1.4,2.5c.8,1,2.2,1.4,4,1.4v.2c1.1-.2,2,0,2.8.8,1.4,1.4,1.6,3.9.3,7.3-.9,2.6-2.4,4.2-4.5,4.9-2,.7-4.3.5-6.7-.7l-4.5-2.6-1.7-.9c-2.3-1.2-4.7-1.7-7.1-1.3-6.1.8-9.7,4.7-10.9,11.6-5.7-.5-10.5.2-14.4,2-.4,1.3-1.3,1.8-2.8,1.5h-.3c-1.6-.4-2.3-1.3-2.3-2.9h-2.4c0,0-.4-1-.4-1-.3,1.5-1.7,2.2-4.3,2.1-2.5,0-4.3-.7-5.3-1.9-.7-.1-1.2.1-1.7.8,2,.8,2.7,2.4,2.1,4.5-.5,2.2-1.8,3.7-3.7,4.5-1.3.5-3,.4-5.2-.4l-1.8-.7c-.6.5-1.5.7-2.7.7-2,0-3.6-.8-4.8-2.3-.5,1.3-1.7,1.9-3.7,1.8-2,0-3.9-.8-5.5-2.4-1.3,1.1-3.1,1.6-5.5,1.3-2.6-.2-4.6-1-6.1-2.6l-2.1-2.6-.7-.3-1.3,1.5c-1.3,1-2.8,1.5-4.7,1.6-4.9.2-7.6-1.4-8-5.1-.4-3,1.1-5.3,4.6-7.1,2.9-1.5,5.5-1.7,7.8-.7-.7-.5-.7-1.1-.2-1.7.6-.8,1.6-1.3,2.9-1.4l4.1.3c1.5,0,2.8-.5,3.8-1.6,2.1-2.2,1.7-4-1.3-5.3-2.3-1-4.2-1-5.8,0h-1.4c-1.7,0-3.2.6-4.3,1.7l-3.1,2.9c-1.2.8-2.6,1-4.1.5-1.4-.5-2.6-1.4-3.8-2.8-.8-.8-1.3-1.7-1.6-2.5-3.5,1.8-6,1.4-7.4-1.2.2,2-.8,2.8-3.1,2.3-1.9-.4-2.9-1.4-3-3.1h.1c0-.1-.1-.1-.1-.1l-1.1-.6c-1.3-.8-1.7-1.9-1.3-3.2-4.8-.4-7.3-2-7.7-4.8-.4-3.1,1.7-6.2,6.5-9.4,3.2-2.1,7.6-3.7,13.1-4.8l.2,1c-3.1.5-6.2,1.8-9.4,3.8-5.9,2.6-8.6,5.4-8,8.3.4,2.3,2.5,3.7,6.1,4.5l.3-.4c2.5-2.9,5.9-3.5,10.5-1.6.2-.7.8-1.5,1.8-2.4,2.3-2.3,4.5-3.5,6.5-3.5,2.5,0,4.6.4,6.4,1.3l3.1,2.3,1.7,1v-.8c.4-1.1.9-2,1.9-2.9,1.2-1.1,3.2-1.6,6.1-1.3,2.8.2,4.7,1.2,6.1,3l1.3,2.5c.5.6,1,.7,1.4.4v-.7c.3-2.7,2.5-3.4,6.4-2v.2-.2c1-1,2.4-1.3,4.3-1,1.5.2,2.5.8,2.9,1.7.5-.4,1.6-.5,2.9-.4,1.3,0,2.3.7,3,1.8.6,1.1.7,2.5.4,4-1,3.9-4.1,7-9.5,9.2-4.6,2.5-6.4,5-5.3,7.4.5.9,1.3,1.6,2.5,2l2.6.3c-.4-.6-.5-1.2-.4-1.8.1-.9.7-1.7,1.8-2.1,2.7-1.3,6.5-.7,11.6,1.9-.5-1.8.4-3.1,2.6-4.1,2.5-1,5.5-.8,9,.7-1.2-1.2-1-2.5.8-3.7,1.8-1.3,4.1-1.3,6.8,0,2.4,1.6,4.4,2.4,6.2,2.4s3.9-.8,6-2.4c2.1,1.1,4.1.8,5.9-1,1.1-1.1,1.7-2.3,2-3.5-1,1-2.4,1-4.2,0-2.8-1.6-3.5-3.8-2.4-6.8,1.6-4.1,5.1-5.5,10.6-4.2,2,.5,5.1,2.5,9.4,6.1,3.7,2.3,6.5,1.6,8.8-2.4,1.4.5,2.8.4,3.9-.6,1.1-1,1.7-2.2,1.7-3.7-.8-.3-1.4-.8-1.9-1.5-.7-1-.7-2.3-.3-3.8.5-1.5,1.2-2.6,2.1-3.2,1-.7,2.3-.8,3.8-.4l3.4.4-19,12.4ZM351.7,176.6l.4.6-.7.2c-.7.2-1.3,0-1.9-.5-.3-.3-.1-.7.5-1,.7-.3,1.2,0,1.7.7ZM282.5,126.9c-.4-.7-.5-1.4-.4-2.1,2.5.5,3.8,1.7,4.2,3.6v.7c-1.9-.1-3.1-.8-3.8-2.2" fill="#e4da8d" fill-rule="evenodd"/>
  <path d="M445.2,57.2c-1.3-1.7-2.4-2.3-3.2-2.1-.2,0-.9.7-2.1,1.9l-5.9.5c-.8.2-1.8.2-3.1,0-1.3-.1-2.5-.1-3.2,0-1.1.2-2.4.2-4,0l-2.1-.3c-.8-1.6-2.3-2.6-4.3-2.8-2-.3-3,.2-3.1,1.5-.2-.6-.8-.8-1.7-.7-.8.1-1.4.5-1.7,1.2l-8.1-.2-1.8-1.7c-.4-.2-1-.1-1.8.4-2.9-.4-4.4-.2-4.6.5l-6.1-.3-2.9-.2h-.2c-1.1-1.2-2.2-2.1-3.2-2.6-1.6-.7-2.6-.2-3.2,1.4-.4.2-1,.4-1.8.4-.5,0-1,.2-1.2.7-.8-1.6-1.5-1.6-2,0-1.9-1.3-3.4-1.8-4.6-1.5-1.3.7-2.6,1.2-3.8,1.4-2.9.2-4.8.2-5.6,0-1.1-.1-1.5-.5-1.3-1.3-.5.2-1.2.1-2-.3-.7-.4-1.2-.9-1.3-1.5-.5-1.6,1.3-1.8,5.6-.7,1.5.2,2.6,0,3.1-.6.4-.5.4-1.2,0-2.1-.4-.8-1-1.6-2-2.2-.4-.3-.8-.5-1.2-.5l-.5-.6c-.7-.6-1.6-.9-2.6-.8v-1.1c0-.2-.4-.1-.7.2-.8.7-1.7.7-2.6,0-.9-.7-.5-1.3,1-2,1.7,0,2.3-.5,1.7-1.6-.7-1.1-2.3-2.1-5-3-2-1.3-2.3-2.2-1-2.8,1.3-.7,3.1-.5,5.5.5,2.3,1.5,6.4,2.1,12.2,1.7l.5.3h2.1c1.4-1.1,5-2.3,10.6-3.7-2,0-3.8-.4-5.5-1-1.9-1.7-5.3-2-10.4-.8-1.5,1.1-2.5,1.5-3.1,1.3l-.5-.5-3.7.4h-.2c-2.5,0-3.3-.2-2.6-.8,1.1.4,1.9.5,2.6.3h.2c.7-.2.4-.7-.8-1.3-.7-.8-1-1.4-.9-1.6,0-.2.4-.3,1.2-.2,2.5,0,4.1-.2,5.1-.9.7-1.1,3.1-1.7,7.4-1.7h.6l5.6.2c-1.3-1.3-2.3-1.8-3.2-1.6-1.3.7-2,1-2.4,1.1h-.5l-2.6-.7c-3.4-2.5-6.7-2.5-9.9,0-.7.5-1.2.8-1.4.7l-.7-.7c-.9-1.4-2.6-2.2-5.2-2.3l-3.3-.8c-.7-.2-1.1-.5-1-.8,0-.4,1.8-2.4,5.4-5.9,1.3-1.6,1.6-2.8.8-3.7-.7-.8-2.1-1.2-4.2-1.3l-6.1.5c-2.2.5-3.8,1.1-4.7,2-1.4,1.7-1.6,2.9-.5,3.5.7.5,2,.4,3.7-.2l-1.4-1c-1.3-1.8,1-2.5,6.8-2,2.9.3,3.5,1.6,1.9,3.7-1.4,1.9-3.1,3.2-5.2,3.9,0,1-.5,2-1.7,2.8l-3.8,2.3c-.8-.8-2.3-1-4.3-.4-2.2.7-4.3,2-6.4,4.2-.2-1-1.7-1.7-4.5-1.8l-6.5.3c-1.6-1.2-4.4-.8-8.4,1-.4-.5-2-.5-5.1,0l-13.7,1.5c3.8,0,11.8.1,23.9.5l3.5-1c2-.5,3.3-.7,3.8-.2-1.7.8-.2,1.4,4.3,1.7,4.5.3,8.3,0,11.2-.7.5.4.7.9.2,1.4,0,.5,2,1.3,5.6,2.2,1.8,1.7,2.6,3.3,2.4,5-.2,1.4-1.2,2.8-3,3.8-1.7,1-3.7,1.7-6.1,2-2.6.3-5,.2-7.3-.5l-3.1-1.6c-1-.5-1.8-.7-2.3-.7-1.3,0-2.6,2-3.7,5.9-.6-1.7-1.7-2.6-3.2-2.9-1.9-.2-4,.7-6.1,2.9-4-1.8-6.5-2-7.6-.4-.4.5-.6,1.3-.6,2.1s0,.7.1,1c-.5.5-1,1.1-1.3,1.9-.1-1.1-.8-1.6-2-1.3-1.2.2-2.5,1.1-3.8,2.6-.3.7-.3,1.3,0,2,.2.5.7.8,1.1,1.2-.5.7-1.7,1-3.5.7-2.3-.3-4.3-1-5.9-2.2-1.6,2.6-2.8,3.5-3.5,2.8.2-2.5-.8-4.3-3.4-5.6-1.6-.8-2.9-1-3.9-.4l-3.7.5h0l-3.8.5c-1.3,0-2.4-.5-3.4-1.9-3.7-4.3-8.2-6-13.4-5.1l-4,.5h-.8c0-.1-.1-.1-.1-.1-.8-1.8-1.9-2.9-3.1-3.2-1.3-.4-2.4,0-3.4,1.1,1.1-2.6.4-3.4-2.1-2.3,0-2.4-1.3-2.8-3.8-1.3-.9-1-1.9-1.3-3.1-.7-1.2.6-1.4,1.5-.8,2.8-1.7-.6-2.8-.4-3.2.5-.4.8-.3,1.5.4,2-.9,1.4-.4,2.3,1.4,2.8s3.2,0,4.2-1.5c.5-.8,1.2-1.3,1.9-1.6h1.1c.5,0,.9.4,1.1.7.1.3.1.7,0,1.1-.1.9.5,1.3,1.9,1.1,1.3-.2,2.2-.5,2.6-1.1.5,0,1.6.4,3.2,1.2,1.1.7,2,.8,2.8.7-.9.4-1.3.8-1,1.4.2.7.8,1,2,1,0,.2,0,.7,0,1.3,0,.5-.6.8-1.5.7,0,.7-.2,1.3-.8,1.9-.7.6-1.3.9-2,.9-1.9-1.3-4.8-2-8.8-1.8-1.7,0-2.8.2-3.2.7-.6.5-.2,1.4,1,2.4l-1,.2c-2.6-1.1-5.1-1.5-7.5-1.4-2.6,0-4.1.8-4.5,2.3l-1.5-.2c-1.5.1-2.6,1.1-3.1,2.9-.9-.4-1.7-.4-2.3.1-.3.3-.5.5-.5.8-1.5-.6-3.4-.5-5.9.2-3.8-1-7.3-1.1-10.3-.4-2.2.5-5.2,1.8-9.1,3.9-1.7.2-3.6.7-5.9,1.4l-.5.2v-.2l-8,.6-6.7.5-2.5-.2-1.7-.5c-4.4-.7-8.3-.7-11.9-.2l-4.3,1,10.5.8,14.4,1,2-.3c4.1.5,8.6.4,13.4-.7l3.3.7,7.2-.2,10.1-1.3c5.3,1.1,9.2,1.7,11.6,2,4,.4,7,0,9.1-1.4-1.1.8-1.7,1.5-1.9,1.8-.1.3,0,.7.5,1-.4.2-.7.5-.5.8,0,.2.3.5.7.7.4.2.8.3,1.3.2.3,0,.5-.1.8-.2.2.1.5.2.8.2.4,1,1.2,1.5,2.5,1.6,1,0,2.1-.2,3.1-.8l.7-.5c1,1.1,2,2,3.1,2.8,2,1.4,3.7,1.6,4.9.5l.7-.6,1.3,1.7c1.4,2,.9,2.9-1.6,2.7-1.8-.7-3.2-.7-4-.2-2.2-1.8-4.3-2.2-6.2-1.3-.8.4-1.4.8-1.6,1.6-.2.5-.2,1,0,1.6-2.9-.2-5.5.4-7.5,1.8-1,.7-1.9,1-2.6,1-1.1,0-2.7-.4-4.6-1.4-1.5-1.3-3.1-1.9-4.6-1.7-1.5.1-2,.7-1.4,1.7-2.3-1.4-4.3-1-6.1,1.3.5-2.1,0-3.4-1.1-4-1-.5-1.9-.4-2.7.4-.7-.4-1.5-.5-2.2-.4-1.1.1-2,.5-2.6,1.3-.7.7-.8,1.4-.4,2,.5.7,1.6,1.1,3.4,1.3-.5.8-.7,1.4-.2,2,.3.5.8.8,1.7.8.8,0,1.5-.2,2-.7.7-.5,1-1.3.9-2.5.4,1.6.7,2.5,1,2.8.2.1.5,0,1-.7.5.6,1,.8,1.7.8.7,0,.9-.7.5-1.8,2.4,3.5,3.8,3.8,4.2.8.2.2.5.3.7.4h.1c1,.4,2.3,0,3.8-.8l8.6-.5c2-1.4,3.1-2.1,3.4-2.1.5-.1,1.4.3,2.4,1.3l.3.7c.3.8.8,1.5,1.7,2,1.2.8,2.2.9,3.1.2l.7-.5.5.7c1.8,2.3,3.8,3.7,6.3,4.2,2.8.5,4.6-.4,5.3-3.1,3.7,1.6,6.1,1.6,7.3-.1h1c0,0,2.2-.8,2.2-.8,1.2.1,2-.2,2.6-.9h1.5c.8-.2,1.4-.7,1.8-1.4,1.2.7,2.2.8,3.1.4.8-.5.7-1.2-.4-2.1.7.1,1.3,0,2-.4.7-.5.7-1,0-1.6,1.1.1,1.7-.2,1.7-.9s-.5-1-1.7-.9c-2.8-1.3-4.4-1-4.8.5l.3,1.6c.1.2.3.3.6.3-1.3,1.3-2.3,1.3-2.9.4-.2-.4-.5,0-1,1.3v.2h0c-.4-.3-.8-.2-1.5,0-1.3-1.9-2.3-2.8-3.4-2.6.1-1.4,0-2.9-.7-4.5-.8-2.3-2-2.8-3.6-1.3.2-2.9-.7-4.3-3.1-4-.8.2-1.1,0-1-.5,0-.5.5-1,1.2-1.6,2-1.6,3.3-1.3,4.1.8,3.1,3.4,5.2,2.9,6.2-1.2,2.2,1.5,3.8,2.3,4.8,2.3,1.3,0,2.1-1.3,2.2-4,1.4,1,2.5,1.4,3.2,1.1.4-.2,1-.8,1.9-2.1.8.7,1.6,1.1,2.2,1,.6,0,1.3-.7,2.1-1.7,1.3-.8,2.4-.9,3.2-.4h.2c.4.4,1,1.1,1.8,2-1,0-1.8.3-2.5.6-1.8.8-1.5,1.7.8,2.6-2.5.9-3.7,1.8-3.8,2.8-.1.8.5,1.6,2,2.3,1.3.7,2.8,1,4.3,1,1.3,0,2.3-.1,2.9-.5l.4-.4h0c0,0,.1,0,.1,0,.7-.7,1.1-1.8,1.1-3.5s0-.8.4-.8,1,.2,2,.8c2,1.2,2.9,2.2,2.6,3.1-.2.8-1.2,1-2.9.4h-2.1c0,0-.7.3-.7.3l-.5.6c-.5,1.3.4,1.9,2.8,1.9s5.5-.4,6.8-1c.6-.3,1.1-.7,1.5-1.2,2,0,4,.2,6.1.8.7.2,2.8,1.1,6.4,2.6,2.3,1,4.1,1.4,5.6,1.4,1.6-.1,3.2-.8,5-2.1l4.5.7c2.3,0,4.5-1.1,6.7-3.4,2-1.4,4.4-2.1,7.2-2.1s4.1.4,7.6,1c3.4.7,5.9.9,7.6.8,2.8-.1,5.1-1,7.1-2.6-1,.2-1.6-.5-1.8-2-.2-1.9-1.3-2.3-3.1-1.3-.7-.5-1.6-.8-2.5-.8-1,0-1.3.5-.8,1.3-.8,0-1.2.2-1.3.8-.2.5,0,.8.8,1v.2c0,0-1.1,0-1.1,0-.8,0-1.6-.2-2.2-.7-.7-.4-1.4-.7-2.2-.8h-1c-.4.2-.7.5-.9.5h-1.3c-.5,0-1.3,0-2.2-.2h-.8c.2-.5.1-1-.2-1.6-.1-.2-.2-.3-.4-.4,0-.5-.1-.7-.4-.8-.2-.1-.4,0-.5.4,0-.1-.2-.2-.6-.2h-.4c-1-.5-1.7-.8-1.9-1-.7-.5-.5-1.1.3-1.8.7-.4,1.2-.5,1.6-.4.3.1.4.4.4.7,0-.7.4-1,1.1-1h.4c.7-.7,1.4-1,2-1,.5,0,1.3.4,2.3.8,1.1.4,2.2.5,3.1.4.5.5,1,.8,1.3,1.1.7.5,1.3.5,1.7.1l.4.2c.1.2.3.2.4.3h0c1.7,1.1,3.4,1.3,4.9.5,1-.4,2.2-.6,3.7-.4.7,0,2,.4,4.2.8,1.5.4,2,.4,1.6,0-.4-.4-1.4-.8-3-1.3-1.3-.4-1.8-.5-1.6-.7l.4-.2c.1-.1.2-.2,0-.4,1,.4,1.9.4,2.6.3,1-.1,1.2-.6.8-1.3.7.2,1.4.4,2.1.2h.4c.7.4,1.1.6,1.6.7.7,0,1-.3.9-1.1.5.5,1,.7,1.4.6.4-.1.4-.4.3-.8.7.2,1.9.5,3.7.7,2,.2,3.4.2,4.3,0,1.6.1,4.1.2,7.5.2.5.5,1,.7,1.3.7.4-.1.4-.6.1-1.4" fill="#c6b342" fill-rule="evenodd"/>
  <path d="M763.4,142.3c0,2.9-1.1,5.1-3.3,6.8l-9.1,5.8c-3.7-.3-7,1.2-10.1,4.4-1.4,0-2.3,1-2.8,2.8v.6c-1.8,1.3-4,1.6-6.5,1.1-3.4-1.2-6.1-1.8-7.8-1.8-2.2,0-4.5.7-6.6,2.2-2.4,1.6-2.7,3.3-1,5v.3c-.3,1.8-1.7,2.4-4.2,2l-6.9-2.4-.6-.6.6-.8c.4-1,.3-1.9-.3-3l.3-.8,1,.3c4.1,1,6-.6,5.9-4.6,0-1.5-.7-2.4-2.1-2.6-1.4-.3-2.2-1-2.4-2.2-.3-2.2,1.6-3.5,5.7-4.1h2.6c-.7-.8-1.2-1.8-1.6-3-1-3-.3-5.8,1.8-8.4,2.9-3.4,8.3-4.5,16.3-3.4,3,.5,6,.6,8.9.2l4.1-1-.3,1.4c-.3,2.2.4,4.2,2.2,5.9,1.8,1.7,3.8,2.4,6,2.2,1.8-.2,3.2-1.2,4.1-3.1,1-1.9.6-3.3-1.5-4.1,1.3-.6,2.6-.7,3.9-.6,2.6.5,3.8,2.3,3.8,5.6h-.2ZM305.8,107.4c-.4,1.8.3,2.6,1.9,2.8v.6c0,0-4.8-.6-4.8-.6l-1,1.5c-1.4,1.4-3,1.6-4.6.2-1.4-1-1.8-2.4-1.3-4.2.5-1.8,1.6-2.5,3.3-2,0-1.5.7-2.2,2.2-2.2,1.4,0,2.4.6,3.2,1.8,1.2-1.8,2.3-2,3.3-.4.6,1.1.6,1.7-.5,1.8-1.4.2-2,.5-2,.6h.3ZM322.6,177.7c3.3-.2,5.4-1.8,6.2-4.6,1.4,3.1,3.4,4.4,6,3.8l1.3-.4c1,.6,2.4.6,4.1,0,1.6-.6,2.6-1.2,3.2-2.2l.4-1.4c1.9,2.4,4.6,4,8.3,4.9l3,.6h2.6c1.6,1,1.6,1.8,0,2.8h-.2c-1.8,1-3.1.7-4.2-.7,1.7,2.5,1.2,4.5-1.4,5.8-2.8,1.4-5,1-6.6-1.3-1.2,1.9-2.9,2.2-5,1-2.2-1.2-3.2-2.9-3.2-5-1,1.8-2.5,1.9-4.4.6l-2-1.8c-1.4,2.1-3.3,2.2-5.8.2l-2.2-2.2h0ZM276.2,144.1l-.2,1.2c2.2,0,3.6,1.2,4.2,3.4.3.8.2,1.4,0,1.7l-1.8-.4c.4,2.2-.4,4.2-2.4,6-2.1,1.8-4.2,2.2-6.4,1.3-1.8-.8-2.3-1.8-1.5-3.2,1.1-1.9,1.6-3.3,1.4-4.1-5,2.6-6.5,1.1-4.5-4.5-1.5-.2-2.2-.6-2-1.2l.6-1c1.2-1.1,2.5-1.8,3.9-1.9,1.1,0,2.6.3,4.5,1.4,1.9,1,3.3,1.4,4.3,1.4h-.2ZM118.5,173.4l-.6.6-1.5.3-1.2-.7c-.5.9-1.1,1.3-2.2,1.1-1,0-1.6-.6-2-1.6h-6.3c.2,1.6,0,2.5-.9,2.6-.6,0-1.4-.2-2.4-1-1-.8-1.4-1.6-1.4-2.2,0-.8.5-1.1,1.8-1.1-1.8-.6-2-1.6-.8-2.8,1.2-1.2,2.6-1.6,4.1-1.2l.4,2.2c2.2-.6,3.1,0,3,2.2l8.1.4c-1.6-1.9,0-2.9,4.2-3,4.2,0,6.8.3,7.7,1-1-2-.3-2.8,1.9-2.6.8,0,1.4.3,1.8.7.4.4.2.9-.6,1.3l4.1.4c.4-1.4,1.6-2.1,3.4-2l4.6.8c.9-2.2,2.2-2.3,3.7-.5.2-1.4,1-2.1,2.2-2.2,1,0,1.6,0,2,.7v1.3l.3,1.1c-1,1-1.4,2.1-1.2,3.3l-13-.5c-2.4,1-4.5,1.6-6.2,2-3,.6-4.6,0-4.8-2h-2.8v1.2l-5.2.6v-.6" fill="#efeab8" fill-rule="evenodd"/>
  <path d="M659.4,72.5c-11-5.9-19.4-10.2-25.3-13-10.3-5-18-7.7-23.2-8.3l-25.4-2.2c-5-.3-9-1-11.8-1.9,3.4,1.7,6.3,2.6,9,3l11.4,1.1c17.8,3.8,28.2,7.4,31.7,10.9,5.7,2.9,9.5,5,11.5,6.7,2.7,2.3.7,2.6-6.1,1-7.4-1.6-15-2.5-23.1-2.6h-.2v.3c0,0,12.7,2.3,12.7,2.3,7.9,1.9,10.1,3.5,6.5,4.9-5-.6-10.4-.7-16-.2v.3l17.1,1.9c8.5,1.4,7.2,2.1-3.8,2.1l-35,1.3c-8.8,1-16,.8-21.7-.4l-23.9-2.2c-4.9-.7-5.4-2.2-1.9-4.2,2.6-1.8,2.3-3.2-.8-4.2l-9.6-.9c-8.4-.2-14.6-1.3-18.2-3.4-1.4-.9-1.4-1.4,0-1.7,1.7-.4,4.9-.3,9.6.2,16,.6,31.7-.3,47.1-3,5.9-1,8.6-1.9,8.3-2.6l-13.2-.7-40.5,1.5-21.2-.6c-5.9-1.5-11.5-1.9-16.6-1.2l-12.2,2c9.5-.7,16.4-.3,20.5,1,3,1,6.6,3.5,10.7,7.7,3.4,3.2,6.6,5,9.4,5.5l9.1.8c6,1.3,9.3,2.4,9.9,3.4.7,1.3-2.2,2.3-8.6,3.4l-20,2.2,24.1,1.4c6.2,1.3,10.6,2.5,13,3.6,2.9,1.3,2,2.1-2.6,2.2-2.1-.2-4.2-.6-6.4-1.3l-4.9-1.4c-3.7-.9-8.4,0-14,2.3-4.6,1.8-8,4.1-10,6.9-1.8,2.5-5.8,5-12,7.4,12.4-4.3,19.4-6.6,21.2-6.8,1.9-.2,3.7,0,5.4.9,1,.6,3,1.8,5.9,3.9,11,5.7,24.9,6.8,41.7,3.6l.2-.6-8.3-3.2c-4.6-2.1-8.1-3.2-10.6-3.4-5-.6-8.2-1.9-9.6-4.2-1.4-2.2,2.4-2.5,11.4-.8l22,1.3c2.6-.2,5-.9,7.4-1.8,6.2.7,11.8.3,17-1.4,3.1-1,7.5-2.8,13.4-5.4,7.7-1.3,14.2-1.4,19.8-.2,3.2.6,7.3,1.9,12.3,3.9l25.8,1.3c3,.2,4.2.9,3.5,1.8-.9,1.1-4.2,3.1-10.3,5.9l-28.6,8.7c-4.6,1.4-9.6,1.9-15,1.7-9.3-.2-15.6.7-18.8,3.1-3.9,2.9-.3,6.5,10.6,11,6.3,2.7,11.8,6.4,16.6,11,4.6,4.6,7.8,9.4,9.6,14.4,1.8,5.4,1.9,10.2,0,14.5-2,4.9-6.1,8.6-12.1,11.3-15.7,7.5-26.3,11.2-31.9,11-2.1,0-4.2-.6-6.3-1.7-3.4-1.7-5.6-2.6-6.6-3l-3.2-.8c-1-3.5-3-7-6.2-10.3-5-5.2-9.9-7.2-15-6.2-3.9-5.1-10.4-4.9-19.5.7,0-3.3-1-6.6-2.9-9.8-3.8-6.8-9-9.7-15.7-8.6-2.1-5-5-7.8-9.1-8.3l-11.3.7c-.7-2.2-2-4.3-3.9-6.3-2.9-2.7-6.2-4.6-10.2-5.5-4.3-1-8.5-.5-12.4,1.3-4.5,2.1-8.2,5.7-11,10.8-11.1-4.3-19.5-2.3-25,5.8-3.3,4.9-5,10-5.3,15.6l-6.1.2c-4.9.7-8.2,2.6-10,5.5-3.8-1.5-7.6-1.8-11.8-.7-4.2,1.1-7.8,3.1-10.7,6.2-7.1,2.2-11.1,7.7-11.8,16.2-4.6,3.4-5,7.8-1.3,13.1,1.4,2,3.2,3.8,5.3,5.3,2,1.4,3.7,2.2,5,2.4-3.9,4.4-5.7,9.6-5,15.6.6,5.8,2.9,10,6.9,12.9,2.7,6.5,7.4,10.1,13.7,10.7l7.3-.5c.6,4.2,2.3,8.4,5.3,12.3,3.9,5.4,8.3,8.2,13.2,8.6,2.6,3,6.1,5.3,10.6,6.8,4.3,1.6,8.8,2.2,13.4,1.8,5.8-.4,10.4-2.1,13.9-5,6.2,8.1,13.8,10.5,22.8,7.2,8,3,14.2,3,18.4-.3l3.7-3.6c1.1-1,2.3-1.4,3.4-1,6.7-.6,11.5-2.6,14.3-5.8.9-1,2.2-3.5,4.1-7.6,7.1.7,14.3-1.3,21.7-6.1,7.1-4.7,11.4-10.3,12.8-16.8,1.9.6,4.1,1,6.5.9,10-.2,17-5.7,21.2-16.6,2.8-6.3,6.3-10.6,10.6-12.7,3.4-1.8,7.6-2.3,12.6-1.8,3,.3,7.5,1.2,13.8,2.6l13.8.6c6.9-1.4,12.9-4.1,18.1-8.1,5-3.9,8.6-8.6,10.6-13.9,2.1-5.5,2.3-11.1.6-16.6-1.8-6-5.7-11.4-11.7-16.2-14.6-11.7-23.4-22-26.4-30.8-2.9-9,1.4-13.4,12.8-13.2,20.9,0,35.7-1.1,44.2-3.4,10.4-2.9,14.2-7.9,11.5-15-3-6.7-7-11-12-12.6l-5.7-1.7c-2.1-.9-3.7-2.1-4.9-3.8-3.1-3.2-7-4.3-11.8-3.4l-5.6,1.3c-2.2.3-4.1,0-5.8-.6h-.3ZM506.5,115.3q0-.2,0,0ZM476.2,153.2c3.3.6,5.1,2.2,5.6,4.7v1c-2.5-.2-4.2-1.1-5-3-.6-.9-.7-1.8-.6-2.7h0ZM232.1,171.4h1.6c-1.1-.2-1.6-.6-1.6-1.3v1.3ZM186.8,155.5v1.1-1.1ZM166.1,172.6l-.3-.2.2-.6v.8h0ZM151.8,169.4q.2,0,0,0ZM653,134.3v.2c0,0,0,0,0,0-1.5-.2-2.3-.5-2.5-1,.5-.8,1-1.1,1.5-.8.6.3.9.8,1,1.6h0ZM624.1,135.4l-.6.6.3.2.2-.8" fill="#e0d47f" fill-rule="evenodd"/>
  <path d="M574.2,86.2v.7c.2,2.5-1,4.5-3.3,5.9-2.4,1.4-4.5,1.1-6.2-1.1-1.4-1.8-1.2-3.9.4-6.3l.2-.2c1.6-2.2,2.7-2.4,3.6-.6-.2-2,.2-3.3,1.4-3.7,1-.4,2.1-.2,3.4.7,1.3.8,2,1.7,2,2.6s-.6,1.6-1.6,2h0ZM687.5,91c2-.6,2.7,1,2.2,4.7h-.3l-2.6,1c-2.4,1.4-3.8,3.7-4.2,7v.2c-2.8.4-4.5-.6-4.9-3-.7-.6-1.1-1.4-1.2-2.6-1.1,1.6-2.9,1.4-5.4-.8-1-.6-1.4-1.8-1.2-3.4.2-1.6.8-2.9,1.9-4.1,2.8-3.3,6.2-2.8,10.1,1.5.3-1,1-1.4,2.1-1.3.3-.6.8-.9,1.6-.8.9,0,1.6.5,2.1,1.4h-.2ZM677.2,96.3c-.6.7-.8,1.5-.7,2.2l.7-2v-.2ZM764.6,133.4c-1.8-.9-4.1-.9-6.8,0-2.6.7-4.1,2-4.5,3.7l2.4.2c1.3-.6,2.6-.7,3.9-.5,2.6.4,3.9,2.3,3.8,5.6,0,2.8-1.1,5.1-3.3,6.8l-9.1,5.8,2.4.4,5.8.7c2.4-.4,4.7-1.9,7.3-4.6,3.9-.9,6.1-3.9,6.6-9.1.4-1.6-.2-3.4-2-5.4-1.8-2-4-3.3-6.5-3.7h0ZM700.6,156.6c.6-7,5.1-10,13.6-9,.4,1.1,1,2.2,1.6,3h-2.6c-4.1.6-6,1.9-5.7,4.1.2,1.1,1,1.9,2.4,2.2,1.4.3,2,1.1,2.1,2.7,0,3.9-1.8,5.4-5.9,4.5l-1-.3-1.4-.6-1.2-.9-.2.3c.6,0,1,.3,1.4.6,0,0,1.1,1.4,1.1,1.4.6,1.1.7,2.1.3,3l-.6.8-.3.3c-1.8-.2-4.1.5-6.8,1.9l-.4-.6c-.4.4-1,.6-1.8.6-1.2,0-2.5-.9-3.8-2.2-1.3-1.4-1.8-2.8-1.8-4.2,0-1.6,1.3-2.6,3.5-3.3-1.6-1.8-.6-2.6,3-2.8l4.3-.2v-1.5h0ZM695.4,174.8l.3.2-1,1.9c-1.5,2.4-1.8,4.5-.6,6.2l7.7-.3c1.4-1.1,2.2-2.2,2-3.6l.3-.2,1.9,3.3c1.1,1.4,2.9,1.9,5.4,1.8v.3c1.4-.3,2.6,0,3.8,1.1,1.9,1.9,2.1,5.2.4,9.8-1.2,3.4-3.2,5.6-6,6.6-2.7,1-5.7.6-9-1l-6-3.4-2.2-1.2c-3.1-1.6-6.2-2.2-9.4-1.8-8.1,1.1-12.9,6.3-14.5,15.4-7.6-.6-14,.2-19.2,2.6-.6,1.7-1.8,2.4-3.8,2h-.4c-2.2-.6-3.1-1.8-3-3.8h-3.2c0,0-.6-1.4-.6-1.4-.4,2-2.3,2.9-5.7,2.8-3.3,0-5.7-1-7-2.6-.9-.2-1.6.2-2.2,1,2.6,1.1,3.6,3.2,2.8,6-.7,2.9-2.4,5-5,6-1.7.7-4,.6-7-.6l-2.4-.9c-.8.6-2,1-3.6,1-2.6,0-4.8-1.1-6.4-3.1-.6,1.7-2.2,2.5-4.9,2.4-2.7,0-5.2-1.1-7.4-3.2-1.7,1.4-4.1,2.1-7.4,1.8-3.4-.3-6.2-1.4-8.1-3.4l-2.8-3.4-1-.4-1.8,2c-1.7,1.3-3.8,2-6.3,2.1-6.6.3-10.1-1.9-10.6-6.8-.6-4,1.5-7.1,6.1-9.4,3.9-2,7.3-2.3,10.4-1-.9-.6-1-1.4-.3-2.3.8-1.1,2.1-1.8,3.8-1.9l5.4.4c2,0,3.7-.7,5.1-2.1,2.8-3,2.2-5.4-1.7-7-3-1.4-5.6-1.4-7.7,0l-1.8-.2c-2.3.2-4.2,1-5.8,2.4l-4.2,3.9c-1.6,1.1-3.4,1.4-5.4.7-1.8-.6-3.5-1.9-5-3.7-1-1.1-1.8-2.2-2.2-3.3-4.7,2.4-8,1.8-9.8-1.6.2,2.7-1.1,3.7-4.1,3-2.5-.6-3.8-1.9-4-4.1l.2-.2h-.2l-1.4-.8c-1.8-1.1-2.3-2.6-1.8-4.2-6.4-.6-9.8-2.6-10.2-6.4-.6-4.1,2.3-8.3,8.6-12.6,4.3-2.8,10.2-5,17.5-6.4l.3,1.3c-4.1.7-8.3,2.4-12.6,5.1-7.8,3.5-11.4,7.2-10.7,11,.6,3,3.3,5,8.2,6l.4-.5c3.3-3.9,7.8-4.6,14-2.2.3-1,1.1-2,2.4-3.2,3.1-3,6-4.6,8.6-4.7,3.3,0,6.2.5,8.5,1.7l4.2,3.1,2.3,1.4.2-1.1c.3-1.4,1-2.7,2.4-3.8,1.6-1.5,4.3-2.1,8.1-1.7,3.7.3,6.3,1.6,8.1,4l1.8,3.3c.6.8,1.3,1,1.8.5v-.9c.4-3.6,3.3-4.5,8.5-2.7v.3l.2-.3c1.1-1.3,3-1.7,5.6-1.3,2,.3,3.3,1,3.8,2.2.7-.6,2.1-.7,3.9-.6,1.8,0,3.1,1,4,2.4.8,1.4,1,3.3.6,5.3-1.3,5.2-5.5,9.4-12.6,12.3-6.2,3.3-8.6,6.6-7,9.8.6,1.2,1.8,2.2,3.4,2.6l3.4.4c-.5-.8-.6-1.6-.6-2.4.2-1.2,1-2.2,2.4-2.8,3.6-1.7,8.7-.9,15.4,2.6-.7-2.4.5-4.2,3.4-5.5,3.3-1.4,7.3-1,12,1-1.6-1.6-1.3-3.3,1.1-4.9,2.4-1.7,5.4-1.7,9,0,3.2,2.2,5.9,3.2,8.3,3.2s5.2-1,8-3.2c2.8,1.5,5.5,1,7.8-1.4,1.4-1.4,2.3-3,2.6-4.6-1.4,1.4-3.2,1.3-5.6,0-3.7-2.1-4.7-5.1-3.2-9.1,2.1-5.4,6.8-7.3,14.1-5.6,2.7.6,6.8,3.4,12.5,8.1,4.9,3.1,8.7,2.1,11.7-3.2,1.9.7,3.7.6,5.2-.8,1.5-1.3,2.2-2.9,2.2-5-1-.4-1.8-1-2.5-2-.9-1.4-1-3-.4-5,.6-2,1.6-3.4,2.8-4.3,1.4-1,3-1.1,5-.5l4.5.6-25.4,16.6ZM568.9,222.3l.5.8-1,.3c-1,.2-1.8,0-2.5-.7-.4-.4-.2-.9.7-1.4.9-.4,1.6,0,2.2,1ZM476.7,156c-.5-1-.6-1.8-.6-2.8,3.3.6,5.1,2.2,5.6,4.8v1c-2.5-.2-4.2-1.1-5-3" fill="#e4da8d" fill-rule="evenodd"/>
  <path d="M693.6,63.1c-1.8-2.2-3.2-3.1-4.3-2.8-.3,0-1.2.9-2.8,2.5l-7.8.6c-1,.2-2.4.2-4.1,0-1.8-.2-3.3-.2-4.3,0-1.4.3-3.2.3-5.4,0l-2.8-.4c-1.1-2.2-3-3.4-5.7-3.8-2.6-.4-4,.3-4.2,2-.3-.8-1.1-1.1-2.2-1s-1.8.7-2.2,1.6l-10.8-.3-2.4-2.2c-.6-.3-1.4-.2-2.4.6-3.8-.6-5.8-.3-6.1.7l-8.1-.4-3.9-.3h-.2c-1.5-1.6-3-2.8-4.3-3.4-2.2-1-3.5-.3-4.3,1.8-.6.3-1.4.5-2.4.6-.7,0-1.3.3-1.6,1-1.1-2.2-2-2.2-2.7,0-2.5-1.8-4.5-2.4-6.1-2-1.8,1-3.5,1.6-5.1,1.8-3.9.2-6.4.3-7.4,0-1.4-.2-2-.7-1.7-1.7-.7.3-1.6.2-2.6-.4-1-.6-1.6-1.2-1.8-2-.7-2.1,1.8-2.4,7.4-1,2,.3,3.4,0,4.1-.8.6-.7.6-1.6,0-2.8-.6-1.1-1.4-2.2-2.6-2.9-.6-.4-1-.6-1.6-.7l-.6-.8c-1-.8-2.2-1.2-3.4-1.1v-1.4c0-.3-.5-.2-1,.3-1.1,1-2.2,1-3.4,0-1.2-.9-.7-1.8,1.4-2.6,2.3,0,3-.7,2.2-2.1-.9-1.4-3.1-2.8-6.7-4-2.6-1.7-3-3-1.3-3.8,1.7-.9,4.1-.7,7.4.6,3,2,8.5,2.8,16.2,2.2l.7.4,2.8-.2c1.9-1.4,6.6-2.9,14.1-4.7-2.7,0-5.1-.6-7.3-1.4-2.5-2.2-7.1-2.6-13.9-1-2,1.4-3.4,2-4.1,1.8l-.6-.7-5,.5h-.3c-3.3,0-4.4-.3-3.4-1.1,1.4.6,2.6.6,3.4.4h.3c1-.3.6-1-1-1.8-1-1.1-1.4-1.8-1.2-2.2,0-.3.6-.4,1.6-.3,3.3,0,5.5-.3,6.8-1.2.9-1.5,4.2-2.2,9.8-2.2h.8l7.4.2c-1.7-1.7-3.1-2.4-4.2-2.1-1.7,1-2.7,1.4-3.2,1.4h-.6l-3.5-1c-4.5-3.3-8.9-3.3-13.2,0-1,.7-1.6,1.1-1.9,1l-1-1c-1.2-1.8-3.5-2.9-7-3l-4.4-1.1c-1-.3-1.4-.7-1.4-1.1,0-.6,2.4-3.2,7.2-7.8,1.8-2.2,2.2-3.8,1-5-1-1-2.8-1.6-5.6-1.8l-8.1.6c-3,.6-5,1.5-6.3,2.6-1.8,2.3-2.1,3.9-.7,4.7,1,.7,2.6.6,5-.3l-1.8-1.4c-1.7-2.4,1.4-3.3,9.1-2.6,3.9.4,4.7,2.1,2.5,5-1.9,2.5-4.2,4.2-6.9,5.2,0,1.4-.7,2.6-2.3,3.8l-5.1,3c-1.1-1.1-3-1.4-5.8-.6-3,.9-5.8,2.7-8.5,5.6-.3-1.4-2.3-2.2-6-2.4l-8.6.4c-2.2-1.6-5.9-1.1-11.2,1.4-.5-.6-2.7-.6-6.8,0l-18.2,2c5.1,0,15.8.2,31.8.7l4.7-1.4c2.7-.7,4.4-.9,5-.3-2.2,1.1-.3,1.9,5.8,2.2,6,.4,11,0,15-1,.7.6.9,1.2.2,1.8,0,.7,2.6,1.7,7.5,2.9,2.4,2.2,3.4,4.4,3.2,6.6-.3,1.9-1.6,3.7-4,5.1-2.2,1.4-5,2.3-8.2,2.7-3.4.4-6.6.2-9.7-.6l-4.1-2.2c-1.4-.6-2.4-1-3-1-1.8,0-3.4,2.7-5,7.8-.8-2.2-2.2-3.4-4.3-3.8-2.6-.3-5.3,1-8.2,3.8-5.3-2.4-8.6-2.6-10.2-.5-.6.7-.8,1.7-.8,2.8s0,1,.2,1.3c-.7.7-1.3,1.5-1.7,2.5-.2-1.5-1.1-2.1-2.6-1.8-1.6.3-3.3,1.4-5.1,3.4-.4.9-.4,1.8,0,2.7.3.6.9,1.1,1.5,1.6-.7,1-2.3,1.3-4.6,1-3-.4-5.7-1.4-7.8-3-2.2,3.5-3.8,4.7-4.7,3.8.3-3.3-1.1-5.8-4.5-7.4-2.2-1.1-3.9-1.3-5.2-.6l-5,.7h0l-5,.6c-1.7,0-3.2-.7-4.5-2.5-5-5.8-11-8-17.9-6.8l-5.4.7-1-.2h-.2c-1.1-2.4-2.5-3.8-4.1-4.3-1.7-.5-3.2,0-4.5,1.4,1.4-3.5.6-4.5-2.8-3,0-3.2-1.7-3.8-5-1.8-1.2-1.4-2.6-1.7-4.1-1-1.6.8-1.9,2-1,3.7-2.2-.8-3.7-.6-4.3.6-.6,1.1-.4,2,.6,2.6-1.2,1.9-.6,3.1,1.8,3.7s4.3,0,5.6-2c.7-1.1,1.6-1.8,2.6-2.1h1.5c.7,0,1.2.5,1.4.9.2.4.2,1,0,1.5-.2,1.2.7,1.8,2.6,1.4,1.7-.3,2.9-.7,3.5-1.4.7,0,2.2.5,4.3,1.6,1.4.9,2.6,1.1,3.7,1-1.2.5-1.7,1.1-1.4,1.9.3.9,1.1,1.3,2.6,1.3,0,.3,0,.9,0,1.8,0,.7-.8,1.1-2,1,0,.9-.3,1.8-1,2.5-.9.8-1.8,1.2-2.6,1.2-2.6-1.8-6.4-2.6-11.7-2.4-2.2,0-3.7.3-4.3,1-.8.7-.3,1.8,1.4,3.2l-1.4.2c-3.4-1.4-6.8-2-10-1.8-3.4,0-5.5,1.1-6,3l-2-.2c-2,.2-3.4,1.4-4.2,3.8-1.2-.6-2.2-.6-3,.2-.4.4-.7.7-.7,1.1-2-.8-4.6-.7-7.8.3-5.1-1.3-9.8-1.4-13.8-.5-2.9.7-7,2.4-12.2,5.2-2.2.2-4.8.9-7.8,1.9l-.7.2v-.3l-10.6.8-9,.7-3.3-.3-2.2-.7c-5.8-.9-11.1-1-15.8-.3l-5.7,1.4,14,1,19.2,1.4,2.6-.4c5.4.7,11.4.5,17.9-.9l4.4.9,9.6-.3,13.4-1.8c7.1,1.4,12.2,2.3,15.4,2.6,5.3.6,9.4,0,12.2-1.9-1.4,1.1-2.3,2-2.5,2.4s0,.9.7,1.4c-.6.3-.9.6-.7,1.1,0,.3.4.7,1,1,.6.2,1.1.4,1.7.3.4,0,.7-.2,1-.3.3.2.7.3,1.1.2.6,1.3,1.6,2,3.3,2.1,1.4,0,2.8-.2,4.2-1l.9-.7c1.4,1.5,2.7,2.7,4.1,3.7,2.7,1.8,4.9,2.1,6.6.7l1-.8,1.8,2.2c1.9,2.7,1.2,3.9-2.1,3.6-2.4-.9-4.2-1-5.4-.3-2.9-2.4-5.7-3-8.3-1.8-1.1.5-1.8,1.1-2.2,2.2-.2.7-.2,1.4,0,2.1-3.9-.3-7.3.5-10,2.4-1.4.9-2.6,1.4-3.5,1.4-1.5,0-3.6-.6-6.2-1.8-2-1.8-4.1-2.5-6.2-2.2-2,.2-2.6,1-1.9,2.2-3-1.9-5.8-1.4-8.1,1.8.6-2.8,0-4.6-1.5-5.4-1.4-.6-2.5-.5-3.6.6-1-.5-2-.6-3-.6-1.4.2-2.6.7-3.4,1.7-.9,1-1,1.8-.5,2.6.6,1,2.2,1.5,4.5,1.7-.7,1-.9,1.9-.3,2.6.4.7,1.1,1,2.2,1.1,1,0,2-.2,2.7-.9.9-.7,1.3-1.8,1.2-3.3.5,2.2,1,3.4,1.4,3.7.2.2.7,0,1.4-.9.6.8,1.4,1.1,2.3,1,1,0,1.2-1,.7-2.4,3.2,4.7,5,5,5.6,1.1.3.2.7.4,1,.6h.2c1.4.5,3.1,0,5.1-1.1l11.4-.6c2.6-1.8,4.2-2.8,4.5-2.8.7-.2,1.8.4,3.2,1.8l.4,1c.4,1.1,1.1,2,2.2,2.7,1.6,1.1,3,1.2,4.1.3l.9-.7.7,1c2.4,3,5.1,4.9,8.4,5.6,3.8.7,6.2-.6,7.1-4.1,4.9,2.2,8.1,2.1,9.8-.2h1.4c0,0,3-1.1,3-1.1,1.6.2,2.7-.2,3.4-1.2h2c1.1-.2,1.8-.9,2.4-1.8,1.6.9,3,1,4.2.5,1.1-.6,1-1.6-.5-2.8.9.2,1.8,0,2.6-.6,1-.7,1-1.4,0-2.2,1.5.2,2.2-.2,2.2-1.2s-.7-1.4-2.2-1.2c-3.7-1.7-5.8-1.4-6.4.7l.4,2.2c.2.3.4.4.8.4-1.7,1.7-3,1.8-3.9.5-.3-.6-.7,0-1.3,1.8v.2h0c-.5-.4-1.1-.3-2,0-1.7-2.5-3.1-3.7-4.5-3.5.2-1.8,0-3.8-.9-6-1.1-3-2.7-3.7-4.8-1.7.3-3.9-1-5.8-4.1-5.4-1.1.3-1.5,0-1.4-.6,0-.6.6-1.4,1.6-2.2,2.6-2.2,4.4-1.8,5.4,1,4.2,4.5,7,3.9,8.3-1.6,3,2,5,3,6.4,3.1,1.8,0,2.8-1.8,3-5.3,1.8,1.4,3.3,1.8,4.3,1.4.6-.2,1.4-1.1,2.5-2.8,1.1,1,2.2,1.4,3,1.3.8,0,1.8-.9,2.8-2.2,1.8-1,3.2-1.2,4.3-.5h.2c.6.6,1.4,1.4,2.4,2.6-1.3,0-2.4.4-3.3.8-2.4,1-2,2.2,1.1,3.4-3.3,1.2-5,2.4-5.1,3.8-.2,1.1.7,2.2,2.6,3,1.8.9,3.7,1.3,5.8,1.4,1.8,0,3-.2,3.8-.7l.6-.5h0c0,0,.2,0,.2,0,1-.9,1.5-2.4,1.5-4.6s0-1.1.5-1.1,1.4.3,2.6,1c2.7,1.6,3.9,3,3.5,4.2-.3,1.1-1.6,1.4-3.8.6h-2.8c0,0-1,.4-1,.4l-.6.8c-.7,1.7.5,2.5,3.7,2.5s7.3-.5,9.1-1.4c.8-.4,1.5-1,2-1.6,2.7,0,5.4.3,8.1,1.1,1,.3,3.8,1.4,8.5,3.4,3,1.4,5.5,1.9,7.5,1.8,2.2-.2,4.3-1.1,6.6-2.8l6,1c3,0,6-1.5,9-4.5,2.7-1.8,5.9-2.8,9.6-2.8s5.4.5,10.2,1.4c4.5.9,7.8,1.2,10.2,1.1,3.7-.2,6.8-1.4,9.4-3.4-1.4.2-2.2-.6-2.4-2.6-.3-2.5-1.7-3-4.1-1.8-1-.7-2.1-1.1-3.4-1-1.4,0-1.8.6-1.1,1.8-1,0-1.6.3-1.8,1-.3.7,0,1.1,1.1,1.3v.3c0,0-1.4,0-1.4,0-1,0-2.1-.3-3-.9-1-.5-1.9-.9-2.9-1l-1.3-.2c-.6.5-1,.8-1.2.9h-1.8c-.6,0-1.7,0-2.9-.3h-1c.3-.7.2-1.4-.2-2.1-.2-.2-.3-.4-.6-.5,0-.6-.2-1-.5-1.1-.2-.2-.5,0-.7.6,0-.2-.3-.3-.8-.3h-.5c-1.4-.6-2.2-1.1-2.6-1.4-.9-.7-.7-1.5.4-2.4.9-.6,1.6-.7,2.1-.6.4.2.6.5.6,1,0-.9.6-1.4,1.4-1.4h.5c1-.9,1.9-1.4,2.7-1.3.6,0,1.7.5,3,1.1,1.5.5,3,.6,4.2.6.6.6,1.3,1.1,1.7,1.4,1,.6,1.8.7,2.2.2l.5.3c.2.2.4.3.6.4h0c2.3,1.5,4.6,1.8,6.6.7,1.4-.6,3-.8,4.9-.6.9,0,2.7.5,5.6,1.1,2,.5,2.7.5,2.2,0-.6-.6-1.8-1.1-4-1.8-1.7-.5-2.4-.7-2.2-1l.5-.3c.2-.2.2-.3,0-.6,1.3.5,2.5.6,3.5.4,1.3-.2,1.6-.8,1-1.8,1,.3,1.9.5,2.8.3l.6-.2c.9.6,1.5,1,2.2,1,1,0,1.4-.4,1.2-1.5.7.7,1.4,1,1.8.8.5-.2.6-.6.4-1.1.9.3,2.5.6,4.9.9,2.6.2,4.6.2,5.7,0,2.2.2,5.5.3,10,.3.6.7,1.3,1,1.8.9.6-.2.6-.8.2-1.8" fill="#c6b342" fill-rule="evenodd"/>
  <path d="M799,130.6c0,2.3-.9,4.2-2.7,5.5l-7.4,4.7c-3-.3-5.7,1-8.2,3.6-1.1,0-1.9.8-2.3,2.3v.5c-1.5,1-3.2,1.3-5.3.9-2.8-1-4.9-1.4-6.4-1.5-1.8,0-3.6.6-5.4,1.8-2,1.3-2.2,2.7-.8,4v.3c-.3,1.4-1.4,1.9-3.4,1.6l-5.6-1.9-.5-.5.5-.7c.3-.8.3-1.6-.3-2.5l.3-.6.8.3c3.3.8,4.9-.5,4.8-3.7,0-1.2-.6-1.9-1.7-2.1-1.2-.3-1.8-.8-1.9-1.8-.3-1.8,1.3-2.9,4.6-3.3h2.1c-.6-.6-1-1.5-1.3-2.4-.8-2.4-.3-4.7,1.4-6.8,2.3-2.8,6.8-3.6,13.3-2.8,2.5.4,4.9.5,7.2.1l3.3-.8-.3,1.1c-.3,1.8.3,3.4,1.8,4.8,1.4,1.4,3.1,1.9,4.9,1.8,1.4-.1,2.6-1,3.3-2.5.8-1.6.5-2.7-1.2-3.3,1-.5,2.1-.6,3.2-.5,2.1.4,3.1,1.9,3.1,4.6h-.1ZM427.2,102.2c-.3,1.4.3,2.1,1.6,2.3v.5c0,0-3.9-.5-3.9-.5l-.8,1.2c-1.1,1.2-2.4,1.3-3.8.2-1.1-.8-1.4-1.9-1-3.4.4-1.4,1.3-2,2.7-1.6,0-1.2.6-1.8,1.8-1.8,1.1,0,2,.5,2.6,1.4,1-1.5,1.9-1.6,2.7-.3.5.9.5,1.4-.4,1.5-1.1.2-1.6.4-1.6.5h.3ZM440.9,159.3c2.7-.2,4.4-1.4,5.1-3.8,1.1,2.5,2.8,3.6,4.9,3.1l1-.3c.8.5,2,.5,3.3,0,1.3-.5,2.1-1,2.6-1.8l.3-1.1c1.6,2,3.8,3.2,6.8,4l2.4.5h2.1c1.3.8,1.3,1.5,0,2.3h-.1c-1.4.8-2.5.6-3.4-.6,1.4,2,1,3.6-1.2,4.7-2.3,1.2-4,.8-5.4-1-1,1.6-2.3,1.8-4.1.8-1.8-1-2.6-2.3-2.6-4-.8,1.4-2,1.6-3.6.5l-1.6-1.4c-1.1,1.7-2.7,1.8-4.7.2l-1.8-1.8h0ZM403.2,132l-.2,1c1.8,0,2.9,1,3.4,2.7.3.7.2,1.1,0,1.4l-1.4-.3c.3,1.8-.3,3.4-1.9,4.9-1.7,1.5-3.4,1.8-5.2,1-1.4-.6-1.9-1.5-1.2-2.6.9-1.6,1.3-2.7,1.1-3.3-4,2.1-5.3.9-3.6-3.6-1.2-.2-1.8-.5-1.6-1l.5-.8c1-.9,2-1.4,3.2-1.6.9,0,2.1.3,3.6,1.1,1.6.8,2.7,1.2,3.5,1.2h-.1ZM275,155.8l-.5.5-1.2.3-1-.6c-.4.7-.9,1-1.8.9-.8,0-1.3-.5-1.6-1.3h-5.1c.1,1.3,0,2-.7,2.1-.5,0-1.2-.2-2-.8-.8-.7-1.1-1.3-1.2-1.8,0-.7.4-.9,1.4-.9-1.4-.5-1.6-1.3-.6-2.3,1-1,2.1-1.3,3.3-1l.3,1.8c1.8-.5,2.5,0,2.4,1.8l6.6.3c-1.3-1.6,0-2.3,3.4-2.4,3.4,0,5.5.3,6.2.8-.8-1.6-.3-2.3,1.6-2.1.6,0,1.1.3,1.4.6.3.3.2.7-.5,1l3.3.3c.3-1.1,1.3-1.7,2.8-1.6l3.7.7c.7-1.8,1.8-1.9,3-.4.1-1.1.8-1.7,1.8-1.8.8,0,1.3,0,1.6.6v1l.3.9c-.8.8-1.1,1.7-1,2.7l-10.6-.4c-2,.8-3.6,1.3-5,1.6-2.4.5-3.7,0-3.9-1.6h-2.3v1l-4.2.5v-.5" fill="#efeab8" fill-rule="evenodd"/>
  <path d="M714.5,73.8c-8.9-4.8-15.8-8.3-20.5-10.5-8.4-4-14.6-6.2-18.8-6.8l-20.7-1.8c-4.1-.3-7.3-.8-9.6-1.6,2.7,1.4,5.1,2.1,7.3,2.4l9.3.9c14.4,3.1,22.9,6,25.7,8.8,4.6,2.3,7.7,4.1,9.4,5.5,2.2,1.9.6,2.1-4.9.8-6-1.3-12.2-2-18.8-2.1h-.1v.3c0,0,10.3,1.9,10.3,1.9,6.4,1.6,8.2,2.9,5.3,4-4.1-.5-8.5-.6-13-.1v.3l13.9,1.6c6.9,1.1,5.9,1.7-3.1,1.7l-28.4,1c-7.2.8-13,.7-17.6-.3l-19.4-1.8c-4-.6-4.4-1.8-1.6-3.4,2.1-1.4,1.9-2.6-.6-3.4l-7.8-.7c-6.8-.1-11.8-1-14.8-2.8-1.2-.7-1.2-1.1,0-1.4,1.4-.3,4-.3,7.8.1,13,.5,25.7-.3,38.3-2.4,4.8-.8,7-1.6,6.8-2.1l-10.7-.6-32.9,1.2-17.2-.5c-4.8-1.2-9.4-1.6-13.5-1l-9.9,1.6c7.7-.6,13.3-.3,16.6.8,2.4.8,5.3,2.9,8.7,6.2,2.7,2.6,5.3,4.1,7.7,4.5l7.4.7c4.9,1,7.5,1.9,8.1,2.7.6,1-1.8,1.9-7,2.7l-16.2,1.8,19.6,1.2c5.1,1,8.6,2,10.6,2.9,2.3,1,1.6,1.7-2.1,1.8-1.7-.1-3.4-.5-5.2-1l-4-1.2c-3-.7-6.8,0-11.4,1.9-3.8,1.4-6.5,3.3-8.1,5.6-1.4,2-4.7,4-9.8,6,10.1-3.5,15.8-5.3,17.2-5.5,1.6-.2,3,0,4.4.7.8.5,2.5,1.5,4.8,3.2,9,4.6,20.2,5.5,33.9,2.9l.2-.5-6.8-2.6c-3.7-1.7-6.6-2.6-8.6-2.8-4-.5-6.6-1.6-7.8-3.4-1.1-1.8,2-2,9.2-.6l17.9,1c2.1-.2,4-.7,6-1.4,5,.6,9.6.3,13.8-1.1,2.5-.8,6.1-2.3,10.9-4.4,6.2-1,11.6-1.1,16.1-.1,2.6.5,5.9,1.6,10,3.2l21,1c2.5.2,3.4.7,2.9,1.5-.7.9-3.4,2.5-8.4,4.8l-23.2,7.1c-3.8,1.1-7.8,1.6-12.2,1.4-7.5-.2-12.7.6-15.3,2.5-3.2,2.3-.3,5.3,8.6,8.9,5.1,2.2,9.6,5.2,13.5,9,3.7,3.7,6.3,7.6,7.8,11.7,1.5,4.4,1.6,8.3,0,11.8-1.6,4-4.9,7-9.8,9.2-12.7,6.1-21.4,9.1-25.9,9-1.7,0-3.4-.5-5.1-1.4-2.8-1.4-4.6-2.1-5.3-2.4l-2.6-.7c-.8-2.9-2.5-5.7-5-8.4-4-4.2-8.1-5.9-12.2-5-3.2-4.2-8.5-4-15.9.6,0-2.7-.8-5.3-2.3-8-3.1-5.5-7.3-7.9-12.7-7-1.7-4-4.1-6.3-7.4-6.8l-9.2.6c-.6-1.8-1.6-3.5-3.2-5.1-2.3-2.2-5.1-3.7-8.3-4.5-3.5-.8-6.9-.4-10.1,1-3.6,1.7-6.6,4.6-9,8.8-9-3.5-15.9-1.9-20.3,4.7-2.7,4-4,8.1-4.3,12.7l-4.9.2c-4,.6-6.7,2.1-8.1,4.5-3.1-1.2-6.2-1.4-9.6-.6-3.4.9-6.3,2.5-8.7,5-5.8,1.8-9,6.2-9.6,13.2-3.7,2.7-4,6.3-1,10.7,1.2,1.6,2.6,3.1,4.3,4.3,1.6,1.2,3,1.8,4,1.9-3.2,3.6-4.6,7.8-4.1,12.7.5,4.7,2.3,8.1,5.6,10.5,2.2,5.3,6,8.2,11.1,8.7l5.9-.4c.5,3.4,1.9,6.8,4.3,10,3.2,4.4,6.8,6.6,10.7,7,2.1,2.4,4.9,4.3,8.6,5.5,3.5,1.3,7.2,1.8,10.9,1.5,4.7-.3,8.5-1.7,11.3-4,5,6.6,11.2,8.5,18.5,5.8,6.5,2.5,11.5,2.4,15-.3l3-2.9c.9-.8,1.9-1.1,2.7-.8,5.5-.5,9.4-2.1,11.6-4.7.7-.8,1.8-2.9,3.3-6.2,5.8.6,11.6-1,17.6-4.9,5.8-3.8,9.2-8.4,10.4-13.7,1.6.5,3.3.8,5.3.7,8.1-.1,13.8-4.6,17.2-13.5,2.3-5.1,5.1-8.6,8.6-10.3,2.7-1.4,6.2-1.9,10.3-1.4,2.4.3,6.1,1,11.2,2.1l11.2.5c5.6-1.1,10.5-3.3,14.7-6.6,4.1-3.2,7-7,8.6-11.3,1.7-4.5,1.9-9,.5-13.5-1.4-4.9-4.6-9.2-9.5-13.1-11.9-9.5-19-17.9-21.5-25-2.3-7.3,1.1-10.9,10.4-10.7,17,0,29-.9,35.9-2.8,8.5-2.3,11.6-6.4,9.4-12.2-2.4-5.5-5.7-8.9-9.8-10.3l-4.6-1.4c-1.7-.7-3-1.7-4-3.1-2.5-2.6-5.7-3.5-9.6-2.7l-4.5,1c-1.8.3-3.3,0-4.7-.5h-.3ZM590.3,108.6q0-.2,0,0ZM565.6,139.4c2.7.5,4.2,1.8,4.5,3.8v.8c-2-.1-3.4-.9-4.1-2.5-.5-.7-.6-1.4-.5-2.2h0ZM367.3,154.2h1.3c-.9-.1-1.3-.5-1.3-1v1ZM330.5,141.3v.9-.9ZM313.7,155.1l-.3-.2.2-.5v.7h0ZM302.1,152.5q.1,0,0,0ZM709.3,124.1v.2c0,0,0,0,0,0-1.2-.1-1.9-.4-2-.8.4-.6.8-.9,1.2-.6.5.3.7.6.8,1.3h0ZM685.8,124.9l-.5.5h.3c0,.1.2-.5.2-.5" fill="#e0d47f" fill-rule="evenodd"/>
  <path d="M645.3,85v.6c.1,2-.8,3.6-2.7,4.8-2,1.2-3.6.9-5-.9-1.1-1.4-1-3.2.3-5.1v-.2c1.4-1.8,2.3-1.9,3.1-.5-.2-1.6.2-2.7,1.2-3,.8-.3,1.7-.1,2.8.6,1,.7,1.6,1.4,1.6,2.1s-.5,1.3-1.3,1.6h0ZM737.4,88.9c1.6-.5,2.2.8,1.8,3.8h-.3l-2.1.8c-2,1.1-3.1,3-3.4,5.7h0c-2.3.5-3.6-.3-4-2.3-.6-.5-.9-1.2-1-2.1-.9,1.3-2.3,1.1-4.4-.7-.8-.5-1.1-1.4-1-2.7s.7-2.3,1.6-3.3c2.3-2.7,5-2.3,8.2,1.2.3-.8.8-1.2,1.7-1,.3-.5.7-.7,1.3-.7.7,0,1.3.4,1.7,1.2h-.1ZM729,93.2c-.5.6-.7,1.2-.6,1.8l.6-1.6h0ZM800,123.3c-1.5-.7-3.3-.7-5.5,0-2.1.6-3.3,1.6-3.6,3h1.9c1-.3,2.1-.5,3.2-.3,2.1.3,3.2,1.9,3.1,4.6,0,2.3-.9,4.2-2.7,5.5l-7.4,4.7,2,.3,4.7.6c2-.3,3.8-1.6,5.9-3.7,3.2-.7,4.9-3.2,5.4-7.4.3-1.3-.2-2.7-1.6-4.4-1.5-1.6-3.2-2.7-5.3-3h0ZM748,142.2c.5-5.7,4.2-8.1,11-7.3.3.9.8,1.8,1.3,2.5h-2.1c-3.3.5-4.9,1.6-4.6,3.3.1.9.8,1.6,1.9,1.8,1.1.3,1.6.9,1.7,2.2,0,3.2-1.5,4.4-4.8,3.6l-.8-.3-1.1-.5-1-.7-.2.3c.5,0,.8.3,1.1.5,0,0,.9,1.1.9,1.1.5.9.6,1.7.3,2.5l-.5.6-.3.3c-1.5-.1-3.3.4-5.5,1.6l-.3-.5c-.3.3-.8.5-1.4.5-1,0-2-.7-3.1-1.8-1-1.2-1.5-2.3-1.4-3.4,0-1.3,1-2.1,2.9-2.7-1.3-1.4-.5-2.1,2.5-2.3h3.5v-1.4h0ZM743.8,157h.3c0,.1-.8,1.7-.8,1.7-1.2,2-1.4,3.6-.5,5.1l6.2-.3c1.2-.9,1.8-1.8,1.6-2.9l.3-.2,1.6,2.7c.9,1.1,2.3,1.6,4.4,1.5v.3c1.2-.3,2.1,0,3.1.9,1.6,1.6,1.7,4.2.3,7.9-1,2.8-2.6,4.5-4.9,5.3-2.2.8-4.6.5-7.3-.8l-4.9-2.8-1.8-1c-2.5-1.3-5.1-1.8-7.7-1.4-6.6.9-10.5,5.1-11.8,12.5-6.2-.5-11.4.2-15.6,2.1-.5,1.4-1.4,2-3.1,1.6h-.3c-1.8-.5-2.5-1.4-2.5-3.1h-2.6c0,0-.5-1.1-.5-1.1-.3,1.6-1.9,2.3-4.6,2.3-2.7,0-4.6-.8-5.7-2.1-.7-.1-1.3.1-1.8.8,2.1.9,2.9,2.6,2.3,4.9-.6,2.3-2,4-4,4.9-1.4.6-3.2.5-5.7-.5l-2-.7c-.6.5-1.6.8-2.9.8-2.1,0-3.9-.9-5.2-2.5-.5,1.4-1.8,2-4,2-2.2,0-4.2-.9-6-2.6-1.4,1.2-3.3,1.7-6,1.4-2.8-.3-5-1.1-6.6-2.8l-2.3-2.8-.8-.3-1.4,1.6c-1.4,1-3.1,1.6-5.1,1.7-5.3.3-8.2-1.6-8.6-5.5-.5-3.2,1.2-5.8,4.9-7.7,3.2-1.6,5.9-1.9,8.5-.8-.7-.5-.8-1.2-.3-1.9.7-.9,1.7-1.4,3.1-1.6l4.4.3c1.6,0,3-.6,4.2-1.7,2.3-2.4,1.8-4.4-1.4-5.7-2.5-1.1-4.5-1.1-6.2,0h-1.5c-1.9,0-3.4.7-4.7,1.8l-3.4,3.2c-1.3.9-2.8,1.1-4.4.6-1.5-.5-2.9-1.6-4.1-3-.8-.9-1.4-1.8-1.8-2.7-3.8,1.9-6.5,1.5-8-1.3.2,2.2-.9,3-3.3,2.5-2-.5-3.1-1.6-3.2-3.3h.1c0-.1-.1-.1-.1-.1l-1.2-.7c-1.4-.9-1.9-2.1-1.4-3.4-5.2-.5-7.9-2.1-8.3-5.2-.5-3.3,1.9-6.8,7-10.2,3.5-2.3,8.3-4,14.2-5.2l.3,1c-3.3.6-6.8,1.9-10.2,4.2-6.4,2.9-9.3,5.9-8.7,9,.5,2.5,2.7,4,6.6,4.9l.3-.4c2.7-3.2,6.4-3.8,11.4-1.8.3-.8.9-1.6,2-2.6,2.5-2.5,4.9-3.8,7-3.8,2.7,0,5,.4,6.9,1.4l3.4,2.5,1.9,1.1v-.9c.4-1.2,1-2.2,2.1-3.1,1.3-1.2,3.5-1.7,6.6-1.4,3,.3,5.1,1.3,6.6,3.2l1.4,2.7c.5.7,1,.8,1.5.4v-.7c.3-2.9,2.7-3.6,6.9-2.2v.3-.3c1-1,2.6-1.4,4.7-1,1.6.3,2.7.8,3.1,1.8.6-.5,1.7-.6,3.2-.5,1.4,0,2.5.8,3.2,1.9.6,1.2.8,2.7.5,4.3-1,4.2-4.5,7.6-10.3,10-5,2.7-7,5.4-5.7,8,.5,1,1.4,1.8,2.7,2.1l2.8.3c-.4-.7-.5-1.3-.5-1.9.1-1,.8-1.8,2-2.3,2.9-1.4,7.1-.7,12.5,2.1-.6-2,.4-3.4,2.8-4.5,2.7-1.1,5.9-.8,9.8.8-1.3-1.3-1-2.7.9-4,2-1.4,4.4-1.4,7.3,0,2.6,1.8,4.8,2.6,6.8,2.6s4.2-.8,6.5-2.6c2.3,1.2,4.5.8,6.4-1.1,1.2-1.2,1.9-2.5,2.1-3.8-1.1,1.1-2.6,1-4.5,0-3-1.7-3.8-4.2-2.6-7.4,1.7-4.4,5.5-5.9,11.4-4.6,2.2.5,5.5,2.7,10.1,6.6,4,2.5,7.1,1.7,9.5-2.6,1.6.6,3,.5,4.2-.7,1.2-1,1.8-2.3,1.8-4-.8-.3-1.5-.8-2-1.6-.7-1.1-.8-2.5-.3-4.1.5-1.6,1.3-2.8,2.3-3.5,1.1-.8,2.5-.9,4.1-.4l3.6.5-20.6,13.5ZM641,195.6l.4.7-.8.3c-.8.2-1.4,0-2-.6-.3-.3-.1-.7.6-1.1.7-.3,1.3,0,1.8.8ZM566.1,141.7c-.4-.8-.5-1.5-.5-2.3,2.7.5,4.2,1.8,4.5,3.9v.8c-2-.1-3.4-.9-4.1-2.4" fill="#e4da8d" fill-rule="evenodd"/>
  <path d="M742.3,66.2c-1.4-1.8-2.6-2.5-3.5-2.3-.3,0-1,.7-2.3,2l-6.4.5c-.8.2-2,.2-3.3,0-1.4-.1-2.7-.1-3.5,0-1.2.3-2.6.3-4.4,0l-2.3-.3c-.9-1.8-2.5-2.8-4.6-3.1-2.1-.3-3.2.3-3.4,1.6-.3-.7-.9-.9-1.8-.8-.9.1-1.5.6-1.8,1.3l-8.8-.3-2-1.8c-.5-.3-1.1-.1-2,.5-3.1-.5-4.7-.3-4.9.6l-6.6-.3-3.2-.3h-.2c-1.2-1.3-2.4-2.3-3.5-2.8-1.8-.8-2.9-.3-3.5,1.5-.5.3-1.1.4-2,.5-.6,0-1,.3-1.3.8-.9-1.8-1.6-1.8-2.2,0-2-1.4-3.6-2-4.9-1.6-1.4.8-2.9,1.3-4.2,1.5-3.2.2-5.2.3-6,0-1.2-.1-1.6-.6-1.4-1.4-.6.3-1.3.1-2.1-.3-.8-.5-1.3-1-1.4-1.6-.6-1.7,1.4-1.9,6-.8,1.6.3,2.8,0,3.3-.7.5-.6.5-1.3,0-2.3-.5-.9-1.1-1.8-2.1-2.3-.5-.3-.8-.5-1.3-.6l-.5-.6c-.8-.7-1.8-1-2.8-.9v-1.2c0-.3-.4-.1-.8.3-.9.8-1.8.8-2.8,0-1-.7-.6-1.4,1.1-2.1,1.9,0,2.5-.6,1.8-1.7-.7-1.2-2.5-2.3-5.5-3.2-2.1-1.4-2.5-2.4-1-3.1,1.4-.7,3.3-.6,6,.5,2.5,1.6,6.9,2.3,13.2,1.8l.6.3h2.3c1.6-1.2,5.4-2.5,11.4-4-2.2,0-4.2-.5-5.9-1.1-2-1.8-5.8-2.1-11.3-.8-1.6,1.2-2.7,1.6-3.3,1.4l-.5-.6-4,.4h-.3c-2.7,0-3.6-.3-2.8-.9,1.2.5,2.1.5,2.8.3h.3c.8-.3.5-.8-.8-1.4-.8-.9-1.1-1.5-1-1.8,0-.3.5-.3,1.3-.3,2.7,0,4.5-.3,5.5-1,.7-1.2,3.4-1.8,8-1.8h.7l6,.2c-1.4-1.4-2.5-2-3.4-1.7-1.4.8-2.2,1.1-2.6,1.2h-.5l-2.9-.8c-3.6-2.7-7.2-2.7-10.7,0-.8.6-1.3.9-1.6.8l-.8-.8c-1-1.5-2.9-2.3-5.7-2.5l-3.6-.9c-.8-.3-1.2-.6-1.1-.9,0-.5,2-2.6,5.9-6.4,1.4-1.8,1.8-3.1.8-4-.8-.8-2.3-1.3-4.5-1.4l-6.6.5c-2.4.5-4.1,1.2-5.1,2.1-1.5,1.9-1.7,3.2-.6,3.8.8.6,2.1.5,4-.3l-1.5-1.1c-1.4-1.9,1.1-2.7,7.4-2.1,3.2.3,3.8,1.7,2,4-1.6,2-3.4,3.4-5.6,4.2,0,1.1-.6,2.1-1.9,3.1l-4.2,2.5c-.9-.9-2.5-1.1-4.7-.5-2.4.7-4.7,2.2-6.9,4.6-.3-1.1-1.9-1.8-4.9-1.9l-7,.3c-1.8-1.3-4.8-.9-9.1,1.1-.4-.5-2.2-.5-5.5,0l-14.8,1.6c4.2,0,12.8.1,25.9.6l3.8-1.1c2.2-.6,3.6-.7,4.1-.3-1.8.9-.3,1.6,4.7,1.8,4.9.3,9,0,12.2-.8.6.5.7,1,.2,1.5,0,.6,2.1,1.4,6.1,2.3,2,1.8,2.8,3.6,2.6,5.4-.3,1.6-1.3,3-3.2,4.2-1.8,1.1-4,1.9-6.6,2.2-2.8.3-5.4.2-7.9-.5l-3.3-1.8c-1.1-.5-2-.8-2.5-.8-1.4,0-2.8,2.2-4,6.4-.7-1.8-1.8-2.8-3.5-3.1-2.1-.3-4.3.8-6.6,3.1-4.3-1.9-7-2.1-8.3-.4-.5.6-.6,1.4-.6,2.3s0,.8.1,1c-.6.6-1,1.2-1.4,2-.1-1.2-.9-1.7-2.1-1.4-1.3.3-2.7,1.2-4.2,2.8-.3.7-.3,1.4,0,2.2.3.5.7.9,1.2,1.3-.6.8-1.9,1-3.8.8-2.5-.3-4.6-1.1-6.4-2.4-1.8,2.9-3.1,3.8-3.8,3.1.3-2.7-.9-4.7-3.6-6-1.8-.9-3.2-1-4.2-.5l-4,.6h0l-4.1.5c-1.4,0-2.6-.6-3.6-2-4-4.7-8.9-6.5-14.6-5.5l-4.4.6h-.8c0-.1-.1-.1-.1-.1-.9-1.9-2-3.1-3.3-3.5-1.4-.4-2.6,0-3.6,1.2,1.2-2.9.5-3.6-2.3-2.5,0-2.6-1.4-3.1-4.1-1.4-1-1.1-2.1-1.4-3.3-.8-1.3.6-1.6,1.6-.8,3-1.8-.6-3-.5-3.5.5-.5.9-.3,1.6.5,2.1-1,1.6-.5,2.5,1.5,3,1.9.5,3.5,0,4.5-1.6.6-.9,1.3-1.4,2.1-1.7h1.2c.6,0,1,.4,1.2.7.1.3.1.8,0,1.2-.1,1,.6,1.4,2.1,1.2,1.4-.3,2.3-.6,2.9-1.2.6,0,1.8.4,3.5,1.3,1.2.7,2.1.9,3,.8-1,.4-1.4.9-1.1,1.6.3.7.9,1,2.1,1,0,.3,0,.7,0,1.4,0,.6-.6.9-1.6.8,0,.7-.3,1.4-.8,2-.7.6-1.4,1-2.1,1-2.1-1.4-5.2-2.1-9.5-1.9-1.8,0-3,.3-3.5.8-.6.6-.3,1.5,1.1,2.6l-1.1.2c-2.8-1.2-5.5-1.6-8.1-1.5-2.8,0-4.5.9-4.9,2.5l-1.6-.2c-1.6.1-2.8,1.2-3.4,3.1-1-.5-1.8-.5-2.5.1-.3.3-.6.6-.6.9-1.6-.6-3.7-.6-6.4.3-4.2-1-7.9-1.2-11.2-.4-2.3.6-5.7,2-9.9,4.2-1.8.2-3.9.7-6.4,1.6l-.6.2v-.3l-8.6.7-7.3.6-2.7-.3-1.8-.6c-4.7-.7-9-.8-12.9-.3l-4.6,1.1,11.4.8,15.6,1.1,2.1-.3c4.4.6,9.3.4,14.6-.7l3.6.7,7.8-.3,10.9-1.4c5.8,1.2,9.9,1.9,12.5,2.1,4.3.5,7.6,0,9.9-1.6-1.2.9-1.9,1.6-2,1.9-.1.3,0,.7.6,1.1-.5.3-.7.5-.6.9,0,.3.3.6.8.8.5.2.9.3,1.4.3.3,0,.6-.1.8-.3.3.1.6.3.9.2.5,1,1.3,1.6,2.7,1.7,1.1,0,2.3-.2,3.4-.8l.7-.6c1.1,1.2,2.2,2.2,3.3,3,2.2,1.5,4,1.7,5.3.6l.8-.6,1.4,1.8c1.6,2.2,1,3.2-1.7,2.9-2-.7-3.4-.8-4.4-.3-2.3-1.9-4.6-2.4-6.8-1.4-.9.4-1.5.9-1.8,1.8-.2.6-.2,1.1,0,1.7-3.2-.3-5.9.4-8.1,1.9-1.1.7-2.1,1.1-2.9,1.1-1.2,0-2.9-.5-5-1.5-1.6-1.4-3.3-2-5-1.8-1.6.1-2.1.8-1.6,1.8-2.5-1.6-4.7-1.1-6.6,1.4.5-2.3,0-3.7-1.2-4.4-1.1-.5-2-.4-2.9.5-.8-.4-1.6-.5-2.4-.5-1.2.1-2.1.6-2.8,1.4-.7.8-.8,1.5-.4,2.1.5.8,1.8,1.2,3.6,1.4-.6.8-.7,1.6-.3,2.1.3.6.9.8,1.8.9.8,0,1.6-.2,2.2-.7.7-.6,1-1.4,1-2.7.4,1.8.8,2.7,1.1,3,.2.1.6,0,1.1-.7.5.6,1.1.9,1.9.8.8,0,1-.8.6-2,2.6,3.8,4.1,4.1,4.5.9.3.2.6.3.8.5h.1c1.1.4,2.5,0,4.2-.9l9.3-.5c2.1-1.5,3.4-2.3,3.6-2.3.6-.1,1.5.3,2.6,1.4l.3.8c.3.9.9,1.6,1.8,2.2,1.3.9,2.4,1,3.3.3l.7-.6.6.8c2,2.5,4.2,4,6.8,4.6,3.1.6,5-.5,5.8-3.3,4,1.8,6.6,1.7,7.9-.1h1.1c0,0,2.4-.9,2.4-.9,1.3.1,2.2-.2,2.8-1h1.6c.9-.2,1.5-.7,2-1.5,1.3.7,2.4.8,3.4.4.9-.5.8-1.3-.4-2.3.7.1,1.4,0,2.1-.5.8-.6.8-1.1,0-1.8,1.2.1,1.8-.2,1.8-1s-.6-1.1-1.8-1c-3-1.4-4.7-1.1-5.2.6l.3,1.8c.1.3.3.3.7.3-1.4,1.4-2.5,1.4-3.2.4-.3-.5-.6,0-1,1.4v.2h0c-.4-.3-.9-.3-1.6,0-1.4-2-2.5-3-3.6-2.9.1-1.5,0-3.1-.7-4.9-.9-2.5-2.2-3-3.9-1.4.3-3.2-.8-4.7-3.3-4.4-.9.3-1.2,0-1.1-.5,0-.5.5-1.1,1.3-1.8,2.1-1.8,3.6-1.4,4.4.8,3.4,3.6,5.7,3.2,6.8-1.3,2.4,1.6,4.1,2.5,5.2,2.5,1.4,0,2.3-1.4,2.4-4.3,1.5,1.1,2.7,1.5,3.5,1.2.5-.2,1.1-.9,2-2.3.9.8,1.8,1.2,2.4,1,.7,0,1.4-.7,2.3-1.8,1.4-.8,2.6-1,3.5-.4h.2c.5.5,1.1,1.2,2,2.1-1,0-2,.3-2.7.6-2,.8-1.6,1.8.9,2.8-2.7,1-4,1.9-4.2,3.1-.1.9.6,1.8,2.1,2.5,1.4.7,3,1,4.7,1.1,1.4,0,2.5-.1,3.1-.6l.5-.4h0c0,0,.1,0,.1,0,.8-.7,1.2-1.9,1.2-3.8s0-.9.4-.9,1.1.3,2.1.8c2.2,1.3,3.2,2.4,2.9,3.4-.3.9-1.3,1.1-3.1.5h-2.3c0,0-.8.3-.8.3l-.5.7c-.6,1.4.4,2,3,2s5.9-.4,7.4-1.1c.7-.3,1.2-.8,1.6-1.3,2.2,0,4.4.3,6.6.9.8.3,3.1,1.2,6.9,2.8,2.5,1.1,4.5,1.6,6.1,1.5,1.8-.1,3.5-.9,5.4-2.3l4.9.8c2.5,0,4.9-1.2,7.3-3.6,2.2-1.5,4.8-2.3,7.8-2.3s4.4.4,8.3,1.1c3.6.7,6.4,1,8.3.9,3-.1,5.5-1.1,7.7-2.8-1.1.2-1.8-.5-2-2.1-.3-2-1.4-2.5-3.3-1.4-.8-.6-1.7-.9-2.7-.8-1.1,0-1.4.5-.9,1.4-.8,0-1.3.3-1.4.8-.3.6,0,.9.9,1v.3c0,0-1.2,0-1.2,0-.8,0-1.7-.3-2.4-.7-.8-.4-1.6-.7-2.3-.8h-1c-.5.3-.8.5-1,.6h-1.4c-.5,0-1.4,0-2.3-.3h-.8c.3-.6.1-1.1-.2-1.7-.1-.2-.3-.3-.5-.4,0-.5-.1-.8-.4-.9-.2-.1-.4,0-.6.5,0-.1-.3-.3-.7-.3h-.4c-1.1-.5-1.8-.9-2.1-1.1-.7-.6-.6-1.2.3-1.9.7-.5,1.3-.6,1.7-.5.3.1.5.4.5.8,0-.7.5-1.1,1.2-1.1h.4c.8-.7,1.6-1.1,2.2-1,.5,0,1.4.4,2.5.9,1.2.4,2.4.5,3.4.5.5.5,1,.9,1.4,1.2.8.5,1.4.6,1.8.1l.4.3c.1.2.3.3.5.3h0c1.9,1.2,3.7,1.4,5.3.6,1.1-.5,2.4-.7,4-.5.7,0,2.2.4,4.6.9,1.6.4,2.2.4,1.8,0-.5-.5-1.5-.9-3.2-1.4-1.4-.4-1.9-.6-1.8-.8l.4-.3c.1-.1.2-.3,0-.5,1,.4,2,.5,2.9.3,1-.1,1.3-.7.8-1.4.8.3,1.6.4,2.3.3h.5c.7.4,1.2.6,1.8.7.8,0,1.1-.3,1-1.2.6.6,1.1.8,1.5.6.4-.1.5-.5.3-.9.7.3,2,.5,4,.7,2.1.2,3.7.2,4.6,0,1.8.1,4.5.3,8.1.3.5.6,1,.8,1.4.7.5-.1.5-.7.1-1.5" fill="#c6b342" fill-rule="evenodd"/>
</svg>