<?xml version="1.0" encoding="UTF-8"?>
<svg id="Layer_1" xmlns="http://www.w3.org/2000/svg" version="1.1" viewBox="0 0 565.8 317.4">
  <!-- Generator: Adobe Illustrator 30.1.0, SVG Export Plug-In . SVG Version: 2.1.1 Build 136)  -->
  <path d="M555.2,168.8c0,3.1-1.2,5.5-3.5,7.3l-9.8,6.2c-3.9-.3-7.5,1.3-10.8,4.7-1.5,0-2.5,1-3,3v.6c-2,1.4-4.3,1.7-6.9,1.2-3.7-1.3-6.5-1.9-8.4-2-2.4,0-4.8.8-7.1,2.3-2.6,1.7-2.9,3.5-1,5.3v.3c-.3,1.9-1.8,2.6-4.5,2.1l-7.4-2.6-.6-.6.6-.9c.4-1,.3-2.1-.3-3.3l.3-.9,1.1.3c4.4,1,6.4-.6,6.3-4.9,0-1.6-.8-2.6-2.2-2.8-1.5-.3-2.4-1.1-2.6-2.4-.3-2.3,1.7-3.8,6.1-4.4h2.8c-.8-.9-1.3-2-1.7-3.2-1-3.2-.3-6.2,1.9-9,3.1-3.7,8.9-4.8,17.5-3.7,3.3.5,6.4.6,9.5.2l4.4-1-.3,1.5c-.3,2.4.4,4.5,2.4,6.3,1.9,1.8,4,2.6,6.4,2.3,1.9-.2,3.4-1.3,4.4-3.3,1-2.1.6-3.5-1.6-4.4,1.4-.6,2.7-.8,4.2-.6,2.8.5,4.1,2.5,4,6h-.2ZM65.3,131.5c-.4,1.9.3,2.8,2.1,3v.6c0,0-5.1-.6-5.1-.6l-1,1.6c-1.5,1.5-3.2,1.7-5,.3-1.2-1.1-1.9-2.6-1.4-4.5.5-1.9,1.7-2.7,3.5-2.1,0-1.6.8-2.4,2.3-2.3,1.5,0,2.6.7,3.4,1.9,1.3-2,2.5-2.1,3.5-.4.7,1.2.6,1.8-.5,2-1.5.3-2.1.5-2.1.7h.3ZM83.4,206.7c3.5-.3,5.7-1.9,6.7-5,1.5,3.3,3.7,4.7,6.4,4.1l1.4-.4c1.1.6,2.6.6,4.4,0,1.7-.6,2.8-1.3,3.4-2.4l.4-1.5c2.1,2.6,5,4.3,8.9,5.2l3.2.6h2.8c1.7,1,1.7,2,0,3h-.2c-1.9,1-3.3.8-4.5-.8,1.8,2.7,1.3,4.8-1.5,6.2-3,1.5-5.3,1-7.1-1.4-1.3,2.1-3.1,2.4-5.4,1-2.3-1.3-3.4-3.1-3.4-5.3-1.1,1.9-2.7,2.1-4.7.6l-2.1-1.9c-1.5,2.2-3.5,2.3-6.2.3l-2.4-2.4h0ZM33.7,170.7l-.3,1.3c2.3,0,3.9,1.3,4.5,3.6.3.9.3,1.5,0,1.8l-1.9-.4c.4,2.4-.4,4.5-2.6,6.4-2.2,2-4.5,2.4-6.9,1.4-1.9-.9-2.5-2-1.6-3.4,1.2-2.1,1.7-3.5,1.5-4.4-5.3,2.8-6.9,1.2-4.8-4.8-1.6-.3-2.4-.7-2.1-1.3l.7-1c1.3-1.2,2.7-1.9,4.2-2.1,1.2,0,2.8.3,4.8,1.5,2.1,1,3.5,1.5,4.6,1.5h-.2Z" fill="#efeab8" fill-rule="evenodd"/>
  <path d="M443.9,94.1c-11.7-6.3-20.8-11-27.1-13.9-11-5.3-19.3-8.2-24.8-8.9l-27.2-2.4c-5.4-.3-9.6-1-12.6-2.1,3.6,1.8,6.8,2.8,9.7,3.2l12.2,1.2c19,4,30.2,7.9,33.9,11.6,6.1,3.1,10.2,5.4,12.3,7.2,2.9,2.5.8,2.8-6.5,1-7.9-1.7-16.1-2.7-24.8-2.7h-.2v.3c0,0,13.6,2.5,13.6,2.5,8.5,2.1,10.8,3.8,6.9,5.2-5.4-.7-11.1-.8-17.1-.2v.3l18.3,2.1c9.1,1.5,7.7,2.2-4,2.2l-37.4,1.4c-9.4,1-17.1.9-23.2-.4l-25.6-2.3c-5.2-.8-5.8-2.3-2.1-4.5,2.8-1.9,2.5-3.4-.9-4.5l-10.3-.9c-9-.2-15.6-1.4-19.5-3.7-1.5-.9-1.5-1.5,0-1.8,1.8-.4,5.2-.3,10.3.2,17.1.7,33.9-.3,50.4-3.2,6.3-1.1,9.2-2.1,8.9-2.7l-14.1-.8-43.3,1.6-22.7-.6c-6.3-1.6-12.3-2.1-17.8-1.3l-13.1,2.1c10.2-.8,17.6-.3,21.9,1.1,3.2,1,7,3.8,11.5,8.2,3.6,3.4,7,5.4,10.1,5.9l9.8.9c6.4,1.4,9.9,2.6,10.6,3.6.8,1.4-2.3,2.5-9.2,3.6l-21.4,2.4,25.8,1.5c6.7,1.4,11.3,2.7,14,3.9,3.1,1.4,2.1,2.2-2.8,2.4-2.2-.2-4.5-.7-6.9-1.4l-5.2-1.5c-3.9-.9-9,0-15,2.5-5,1.9-8.6,4.4-10.7,7.4-1.9,2.7-6.2,5.3-12.8,7.9,13.3-4.6,20.8-7,22.7-7.3,2.1-.3,3.9,0,5.7.9,1.1.6,3.3,2,6.3,4.2,11.8,6.1,26.6,7.3,44.6,3.9l.3-.7-8.9-3.4c-4.9-2.2-8.6-3.4-11.3-3.7-5.3-.6-8.7-2.1-10.3-4.5-1.5-2.3,2.6-2.7,12.2-.9l23.6,1.4c2.7-.3,5.3-.9,8-1.9,6.6.8,12.7.3,18.2-1.5,3.3-1,8.1-3,14.3-5.8,8.2-1.4,15.2-1.5,21.2-.2,3.4.7,7.8,2.1,13.2,4.2l27.7,1.4c3.3.3,4.5.9,3.8,2-.9,1.2-4.5,3.3-11,6.3l-30.6,9.3c-5,1.5-10.3,2.1-16,1.8-9.9-.3-16.7.8-20.1,3.3-4.2,3.1-.3,6.9,11.4,11.7,6.8,2.9,12.7,6.9,17.7,11.8,4.9,4.9,8.3,10,10.3,15.4,2,5.7,2.1,10.9,0,15.5-2.1,5.2-6.5,9.2-12.9,12.1-16.8,8.1-28.2,12-34.2,11.8-2.2,0-4.5-.7-6.8-1.8-3.7-1.8-6-2.7-7-3.2l-3.4-.9c-1-3.8-3.3-7.5-6.6-11-5.3-5.6-10.6-7.7-16.1-6.6-4.2-5.5-11.1-5.2-20.9.8,0-3.5-1-7-3.1-10.5-4-7.3-9.7-10.4-16.8-9.2-2.2-5.3-5.4-8.3-9.8-8.9l-12.1.8c-.8-2.4-2.1-4.6-4.2-6.8-3.1-2.9-6.7-4.9-10.9-5.9-4.6-1-9.1-.5-13.3,1.4-4.8,2.2-8.7,6.1-11.8,11.6-11.9-4.6-20.9-2.5-26.8,6.3-3.5,5.2-5.3,10.7-5.7,16.7l-6.5.3c-5.2.8-8.8,2.7-10.7,5.9-4-1.6-8.1-1.9-12.6-.8-4.5,1.2-8.3,3.3-11.5,6.6-7.6,2.4-11.9,8.2-12.6,17.4-4.9,3.6-5.3,8.3-1.4,14,1.5,2.1,3.4,4,5.7,5.7,2.1,1.5,3.9,2.4,5.3,2.6-4.2,4.7-6.1,10.3-5.4,16.7.6,6.2,3.1,10.7,7.4,13.8,2.9,6.9,7.9,10.8,14.6,11.5l7.8-.5c.6,4.5,2.5,9,5.7,13.2,4.2,5.7,8.9,8.7,14.1,9.2,2.7,3.2,6.5,5.7,11.3,7.3,4.6,1.7,9.4,2.3,14.4,2,6.2-.4,11.1-2.2,14.9-5.3,6.6,8.7,14.7,11.2,24.4,7.7,8.6,3.3,15.2,3.2,19.7-.3l3.9-3.9c1.2-1.1,2.5-1.5,3.6-1.1,7.2-.6,12.3-2.7,15.3-6.3.9-1,2.3-3.8,4.4-8.1,7.6.8,15.3-1.4,23.2-6.5,7.6-5.1,12.2-11,13.7-18,2.1.7,4.4,1,6.9.9,10.7-.2,18.2-6.1,22.7-17.8,3-6.8,6.8-11.3,11.3-13.6,3.6-1.9,8.1-2.5,13.5-1.9,3.2.3,8.1,1.3,14.7,2.8l14.8.6c7.4-1.5,13.8-4.4,19.4-8.7,5.4-4.2,9.2-9.2,11.4-14.9,2.2-5.9,2.5-11.9.6-17.8-1.9-6.4-6.1-12.2-12.5-17.3-15.7-12.5-25.1-23.6-28.3-33-3.1-9.6,1.5-14.3,13.7-14.1,22.4,0,38.2-1.2,47.3-3.7,11.1-3.1,15.2-8.5,12.3-16.1-3.2-7.2-7.5-11.7-12.8-13.5l-6.1-1.8c-2.2-.9-3.9-2.2-5.2-4.1-3.3-3.4-7.5-4.6-12.6-3.6l-6,1.4c-2.3.3-4.4,0-6.2-.6h-.3ZM280.2,139.9q0-.2,0,0ZM247.7,180.5c3.5.7,5.5,2.4,6,5.1v1c-2.7-.2-4.5-1.2-5.4-3.3-.6-.9-.8-1.9-.6-2.9h0ZM437,160.3v.3c0,0,0,0,0,0-1.6-.2-2.5-.5-2.7-1,.5-.9,1-1.2,1.6-.9.6.3.9.9,1,1.7h0ZM406.1,161.4l-.6.7.3.2.3-.9" fill="#e0d47f" fill-rule="evenodd"/>
  <path d="M352.7,108.8v.8c.2,2.7-1,4.8-3.5,6.3-2.6,1.5-4.8,1.2-6.6-1.2-1.5-1.9-1.3-4.2.4-6.8l.2-.3c1.7-2.4,2.9-2.6,3.9-.6-.3-2.1.3-3.5,1.5-3.9,1-.4,2.2-.2,3.7.8,1.4.9,2.1,1.8,2.1,2.8s-.6,1.7-1.7,2.1h0ZM474,113.9c2.1-.7,2.9,1,2.3,5.1h-.3l-2.8,1.1c-2.6,1.5-4,3.9-4.5,7.5v.2c-3,.4-4.8-.6-5.2-3.2-.8-.6-1.2-1.5-1.3-2.8-1.2,1.7-3.1,1.5-5.7-.9-1-.7-1.5-1.9-1.3-3.6.2-1.7.9-3.1,2.1-4.4,3-3.5,6.6-3,10.8,1.6.3-1,1-1.5,2.2-1.4.3-.6.9-.9,1.7-.9.9,0,1.7.5,2.2,1.5h-.2ZM463,119.6c-.6.8-.9,1.6-.8,2.3l.8-2.1v-.2ZM556.6,159.2c-2-.9-4.4-.9-7.3,0-2.7.8-4.4,2.1-4.8,3.9l2.6.2c1.4-.6,2.7-.8,4.2-.5,2.8.4,4.2,2.5,4,6,0,3-1.2,5.5-3.5,7.3l-9.8,6.2,2.6.4,6.2.8c2.6-.4,5.1-2.1,7.8-4.9,4.2-.9,6.5-4.2,7.1-9.8.4-1.7-.3-3.6-2.1-5.7-2-2.1-4.3-3.5-6.9-3.9h0ZM488,184.2c.7-7.5,5.5-10.7,14.6-9.6.4,1.2,1,2.3,1.7,3.3h-2.8c-4.4.6-6.4,2.1-6.1,4.4.2,1.2,1,2.1,2.6,2.4,1.5.3,2.1,1.2,2.2,2.9,0,4.2-2,5.8-6.3,4.8l-1.1-.3-1.5-.6-1.3-.9-.3.3c.6,0,1,.3,1.5.6,0,0,1.2,1.5,1.2,1.5.7,1.2.8,2.2.3,3.3l-.6.9-.3.3c-2-.2-4.4.5-7.3,2.1l-.4-.6c-.4.4-1.1.7-1.9.6-1.3,0-2.7-.9-4-2.4-1.4-1.5-2-3-1.9-4.5,0-1.7,1.4-2.8,3.8-3.5-1.7-1.9-.6-2.8,3.3-3l4.6-.2v-1.6h0ZM482.5,203.6l.3.2-1.1,2.1c-1.6,2.6-1.9,4.8-.7,6.7l8.2-.3c1.5-1.2,2.3-2.4,2.1-3.9l.3-.3,2.1,3.5c1.2,1.5,3.1,2.1,5.7,2v.3c1.5-.3,2.8,0,4,1.2,2.1,2.1,2.2,5.6.4,10.4-1.3,3.7-3.4,6-6.4,7-2.9,1-6.1.7-9.6-1l-6.4-3.7-2.4-1.3c-3.3-1.7-6.7-2.4-10.1-1.9-8.7,1.2-13.8,6.8-15.5,16.5-8.1-.7-15,.3-20.6,2.8-.6,1.8-1.9,2.6-4,2.1h-.4c-2.3-.6-3.3-1.9-3.3-4.1h-3.4c0,0-.6-1.5-.6-1.5-.4,2.1-2.5,3.1-6.1,3-3.5,0-6.1-1-7.5-2.7-.9-.2-1.7.2-2.4,1.1,2.8,1.2,3.9,3.4,3,6.4-.8,3.1-2.6,5.3-5.3,6.4-1.8.8-4.3.6-7.5-.6l-2.6-.9c-.9.7-2.1,1-3.9,1-2.8,0-5.1-1.2-6.9-3.3-.7,1.8-2.4,2.7-5.2,2.6-2.9,0-5.6-1.2-7.9-3.4-1.8,1.5-4.4,2.2-7.9,1.9-3.7-.3-6.6-1.5-8.7-3.7l-3-3.7-1-.4-1.9,2.1c-1.8,1.4-4,2.1-6.8,2.2-7,.3-10.8-2.1-11.4-7.3-.6-4.3,1.6-7.6,6.5-10.1,4.2-2.1,7.8-2.5,11.1-1-.9-.7-1-1.5-.3-2.5.9-1.2,2.2-1.9,4.1-2.1l5.8.4c2.1,0,3.9-.8,5.5-2.2,3-3.2,2.4-5.7-1.8-7.5-3.3-1.5-6-1.5-8.2,0l-2-.2c-2.5.2-4.5,1-6.2,2.6l-4.5,4.2c-1.7,1.2-3.7,1.5-5.8.8-2-.7-3.8-2.1-5.4-3.9-1.1-1.2-1.9-2.4-2.3-3.5-5.1,2.6-8.6,2-10.5-1.7.3,2.9-1.2,3.9-4.4,3.3-2.7-.6-4.1-2.1-4.3-4.4l.2-.2h-.2l-1.5-.9c-1.9-1.2-2.5-2.7-1.9-4.5-6.9-.6-10.4-2.8-11-6.9-.6-4.4,2.5-8.9,9.2-13.4,4.6-3,10.9-5.3,18.8-6.9l.3,1.4c-4.4.8-8.9,2.6-13.4,5.5-8.4,3.8-12.2,7.7-11.5,11.8.6,3.3,3.5,5.3,8.7,6.4l.4-.5c3.5-4.2,8.4-5,15-2.3.3-1,1.2-2.1,2.6-3.4,3.3-3.3,6.4-5,9.2-5.1,3.5,0,6.6.5,9.1,1.8l4.5,3.3,2.5,1.5.2-1.2c.3-1.5,1.1-2.9,2.6-4.1,1.7-1.6,4.6-2.2,8.7-1.8,3.9.3,6.8,1.7,8.7,4.3l1.9,3.5c.7.9,1.4,1,2,.5v-.9c.4-3.9,3.5-4.8,9.1-2.9v.3l.2-.3c1.2-1.4,3.3-1.8,6-1.4,2.1.3,3.5,1.1,4.1,2.4.8-.6,2.2-.8,4.2-.6,1.9,0,3.3,1,4.3,2.6.9,1.5,1,3.5.6,5.7-1.4,5.6-5.9,10-13.5,13.2-6.6,3.5-9.2,7.1-7.5,10.5.7,1.3,1.9,2.3,3.6,2.8l3.7.4c-.5-.9-.7-1.7-.6-2.6.2-1.3,1-2.4,2.6-3,3.9-1.8,9.3-.9,16.5,2.7-.8-2.6.5-4.5,3.7-5.9,3.5-1.5,7.8-1.1,12.8,1-1.7-1.7-1.4-3.5,1.2-5.2,2.6-1.8,5.8-1.8,9.7,0,3.4,2.3,6.3,3.4,8.9,3.4s5.6-1.1,8.6-3.4c3,1.6,5.9,1.1,8.4-1.5,1.5-1.5,2.5-3.3,2.8-5-1.5,1.5-3.4,1.4-6,0-3.9-2.2-5.1-5.5-3.4-9.8,2.2-5.8,7.3-7.8,15.1-6,2.9.7,7.3,3.6,13.4,8.6,5.2,3.3,9.3,2.2,12.5-3.4,2.1.8,3.9.6,5.6-.9,1.6-1.4,2.4-3.1,2.4-5.3-1.1-.4-2-1.1-2.7-2.1-.9-1.5-1-3.3-.4-5.4.7-2.1,1.7-3.7,3-4.6,1.5-1,3.3-1.2,5.4-.5l4.8.6-27.1,17.7ZM347,254.5l.5.9-1,.3c-1,.3-1.9,0-2.7-.8-.4-.4-.2-.9.8-1.5.9-.4,1.7,0,2.4,1ZM248.3,183.5c-.5-1-.7-2-.6-3,3.5.7,5.5,2.4,6,5.1v1c-2.7-.2-4.5-1.2-5.4-3.2" fill="#e4da8d" fill-rule="evenodd"/>
  <path d="M480.5,84c-1.9-2.4-3.4-3.3-4.6-3-.3,0-1.3.9-3,2.7l-8.4.7c-1.1.3-2.6.3-4.4,0-1.9-.2-3.5-.2-4.6,0-1.5.3-3.4.3-5.7,0l-3-.4c-1.2-2.3-3.3-3.7-6.1-4-2.8-.4-4.3.3-4.5,2.1-.3-.9-1.2-1.2-2.4-1-1.2.2-2,.8-2.4,1.7l-11.6-.3-2.6-2.4c-.6-.3-1.5-.2-2.6.6-4.1-.6-6.3-.3-6.5.8l-8.7-.4-4.2-.3h-.3c-1.6-1.7-3.2-3-4.6-3.7-2.3-1-3.8-.3-4.6,2-.6.3-1.5.5-2.6.6-.8,0-1.4.3-1.7,1-1.2-2.3-2.1-2.3-2.9,0-2.7-1.9-4.8-2.6-6.5-2.1-1.9,1-3.8,1.7-5.5,2-4.2.3-6.9.3-8,0-1.5-.2-2.1-.8-1.8-1.8-.8.3-1.7.2-2.8-.4-1-.6-1.7-1.3-1.9-2.1-.8-2.2,1.9-2.6,8-1,2.1.3,3.7,0,4.4-.9.6-.8.6-1.7,0-3-.6-1.2-1.5-2.3-2.8-3.1-.6-.4-1.1-.7-1.7-.8l-.7-.9c-1-.9-2.3-1.3-3.7-1.2v-1.5c0-.3-.5-.2-1,.3-1.2,1-2.4,1-3.7,0-1.3-.9-.8-1.9,1.5-2.8,2.5,0,3.3-.8,2.4-2.2-.9-1.5-3.3-3-7.2-4.3-2.8-1.8-3.3-3.2-1.4-4,1.8-.9,4.4-.8,7.9.7,3.3,2.1,9.1,3,17.4,2.4l.8.4,3-.2c2.1-1.5,7.1-3.1,15.1-5.1-2.9,0-5.5-.6-7.8-1.5-2.7-2.4-7.6-2.8-14.9-1.1-2.1,1.5-3.6,2.1-4.4,1.9l-.7-.8-5.3.5h-.3c-3.5,0-4.7-.3-3.7-1.2,1.5.6,2.7.7,3.7.4h.3c1-.3.6-1-1.1-1.9-1-1.2-1.5-2-1.3-2.3,0-.3.6-.4,1.7-.3,3.5,0,5.9-.3,7.3-1.3.9-1.6,4.5-2.4,10.5-2.4h.9l8,.3c-1.8-1.8-3.3-2.6-4.5-2.2-1.8,1-2.9,1.5-3.4,1.5h-.7l-3.8-1c-4.8-3.5-9.5-3.5-14.1,0-1,.8-1.7,1.2-2.1,1l-1-1c-1.3-2-3.8-3.1-7.5-3.3l-4.7-1.2c-1-.3-1.5-.8-1.5-1.2,0-.6,2.6-3.4,7.7-8.4,1.9-2.3,2.3-4,1.1-5.3-1-1.1-3-1.7-6-1.9l-8.7.7c-3.2.7-5.4,1.6-6.8,2.8-2,2.5-2.2,4.2-.8,5.1,1,.8,2.8.6,5.3-.3l-2-1.5c-1.8-2.6,1.5-3.5,9.8-2.8,4.2.4,5.1,2.2,2.7,5.3-2.1,2.7-4.5,4.5-7.4,5.6,0,1.5-.8,2.8-2.5,4l-5.5,3.3c-1.2-1.2-3.3-1.5-6.2-.6-3.2.9-6.2,2.9-9.1,6-.3-1.5-2.5-2.4-6.4-2.6l-9.2.4c-2.3-1.7-6.3-1.2-12,1.5-.5-.7-2.9-.7-7.3,0l-19.5,2.1c5.5,0,16.9.2,34.1.8l5.1-1.5c2.9-.8,4.7-.9,5.4-.3-2.4,1.2-.3,2.1,6.2,2.4,6.4.4,11.8,0,16-1,.8.6.9,1.3.3,2,0,.8,2.8,1.8,8.1,3.1,2.6,2.4,3.7,4.7,3.4,7.1-.3,2.1-1.7,3.9-4.3,5.5-2.4,1.5-5.3,2.5-8.7,2.9-3.7.4-7.1.3-10.4-.7l-4.4-2.3c-1.5-.7-2.6-1-3.3-1-1.9,0-3.7,2.9-5.3,8.4-.9-2.4-2.4-3.7-4.6-4.1-2.7-.3-5.7,1-8.7,4.1-5.7-2.6-9.2-2.8-10.9-.5-.6.8-.9,1.8-.9,3s0,1,.2,1.4c-.8.8-1.4,1.6-1.8,2.7-.2-1.6-1.2-2.2-2.8-1.9-1.7.3-3.5,1.5-5.5,3.7-.4.9-.4,1.9,0,2.9.3.7.9,1.2,1.6,1.7-.8,1-2.5,1.4-5,1-3.3-.4-6.1-1.5-8.4-3.2-2.3,3.8-4,5.1-5.1,4,.3-3.5-1.2-6.2-4.8-8-2.3-1.2-4.2-1.4-5.6-.6l-5.3.8h0l-5.4.7c-1.8,0-3.4-.8-4.8-2.7-5.3-6.2-11.7-8.6-19.2-7.3l-5.7.8-1.1-.2h-.2c-1.2-2.6-2.7-4.1-4.4-4.6-1.8-.5-3.4,0-4.8,1.5,1.5-3.8.6-4.8-3-3.3,0-3.4-1.8-4-5.4-1.9-1.3-1.5-2.7-1.8-4.4-1-1.7.9-2.1,2.1-1.1,3.9-2.4-.9-3.9-.6-4.6.7-.6,1.2-.4,2.1.6,2.8-1.3,2.1-.6,3.3,2,3.9,2.6.6,4.6,0,6-2.1.8-1.2,1.7-1.9,2.7-2.2h1.6c.8,0,1.3.5,1.5.9.2.4.2,1,0,1.6-.2,1.3.8,1.9,2.7,1.5,1.8-.3,3.1-.8,3.8-1.5.8,0,2.3.5,4.6,1.7,1.5.9,2.8,1.2,3.9,1-1.3.5-1.8,1.2-1.5,2.1.3.9,1.2,1.4,2.8,1.4,0,.3,0,.9,0,1.9,0,.8-.9,1.2-2.1,1,0,.9-.3,1.9-1.1,2.7-.9.9-1.9,1.3-2.8,1.3-2.7-1.9-6.9-2.8-12.5-2.6-2.4,0-3.9.3-4.6,1-.9.8-.3,2,1.5,3.4l-1.5.3c-3.7-1.5-7.3-2.1-10.7-2-3.7,0-5.9,1.2-6.4,3.3l-2.1-.3c-2.1.2-3.7,1.5-4.5,4.1-1.3-.6-2.4-.6-3.3.2-.4.4-.8.8-.8,1.2-2.1-.9-4.9-.8-8.4.3-5.5-1.4-10.4-1.5-14.7-.5-3.1.8-7.5,2.6-13,5.6-2.4.3-5.1.9-8.4,2.1l-.8.3v-.3l-11.4.9-9.6.8-3.5-.3-2.4-.8c-6.3-.9-11.9-1-17-.3l-6.1,1.5,15,1.1,20.6,1.5,2.8-.4c5.8.8,12.2.5,19.2-.9l4.7.9,10.3-.3,14.4-1.9c7.6,1.5,13.1,2.5,16.5,2.8,5.7.6,10,0,13-2.1-1.5,1.2-2.5,2.1-2.7,2.6-.2.4,0,.9.8,1.5-.6.3-.9.7-.8,1.2,0,.3.4.8,1,1,.6.3,1.2.4,1.8.3.4,0,.8-.2,1.1-.3.3.2.8.3,1.2.3.6,1.4,1.7,2.1,3.5,2.2,1.5,0,3-.3,4.5-1.1l.9-.8c1.5,1.6,2.9,2.9,4.4,3.9,2.9,2,5.2,2.2,7,.8l1-.9,1.9,2.4c2.1,2.9,1.3,4.2-2.2,3.9-2.6-.9-4.5-1-5.7-.3-3.1-2.6-6.1-3.2-8.9-1.9-1.2.5-2,1.2-2.3,2.3-.3.8-.3,1.5,0,2.2-4.2-.3-7.8.5-10.7,2.6-1.5.9-2.7,1.5-3.8,1.5-1.6,0-3.9-.6-6.6-2-2.1-1.9-4.4-2.7-6.6-2.4-2.1.2-2.8,1-2.1,2.4-3.3-2.1-6.2-1.5-8.7,1.9.7-3,0-4.9-1.6-5.7-1.5-.7-2.7-.5-3.9.6-1-.5-2.1-.7-3.2-.6-1.5.2-2.8.8-3.7,1.8-.9,1-1.1,2-.5,2.8.7,1,2.3,1.6,4.8,1.8-.8,1.1-.9,2.1-.3,2.8.4.8,1.2,1.1,2.4,1.2,1.1,0,2.1-.3,2.9-.9.9-.8,1.4-1.9,1.3-3.5.5,2.3,1,3.6,1.5,3.9.3.2.8,0,1.5-.9.7.9,1.5,1.2,2.5,1.1,1,0,1.3-1,.8-2.6,3.4,5.1,5.4,5.4,6,1.2.3.3.8.4,1,.6h.2c1.5.5,3.3,0,5.5-1.2l12.2-.7c2.8-2,4.5-3,4.8-3,.8-.2,2,.4,3.4,1.9l.4,1c.4,1.2,1.2,2.1,2.4,2.9,1.7,1.2,3.2,1.3,4.4.3l.9-.8.8,1c2.6,3.3,5.5,5.2,9,6,4,.8,6.6-.6,7.6-4.4,5.2,2.3,8.7,2.2,10.4-.2h1.5c0,0,3.2-1.2,3.2-1.2,1.7.2,2.9-.3,3.7-1.3h2.1c1.2-.3,2-.9,2.6-2,1.7.9,3.2,1.1,4.5.5,1.2-.7,1-1.7-.5-3,.9.2,1.9,0,2.8-.6,1-.8,1-1.5,0-2.3,1.6.2,2.4-.3,2.4-1.3s-.8-1.5-2.4-1.3c-3.9-1.8-6.3-1.5-6.9.8l.4,2.3c.2.3.4.4.9.4-1.8,1.8-3.3,1.9-4.2.5-.3-.6-.8,0-1.4,1.9v.3h0c-.5-.4-1.2-.3-2.1,0-1.8-2.7-3.3-3.9-4.8-3.8.2-2,0-4.1-.9-6.4-1.2-3.3-2.9-3.9-5.1-1.8.3-4.2-1-6.2-4.4-5.7-1.2.3-1.6,0-1.5-.7,0-.7.7-1.5,1.7-2.3,2.8-2.3,4.7-1.9,5.8,1.1,4.5,4.8,7.5,4.2,8.9-1.7,3.2,2.1,5.4,3.3,6.9,3.3,1.9,0,3-1.9,3.2-5.7,2,1.5,3.5,2,4.6,1.5.6-.3,1.5-1.2,2.7-3,1.2,1,2.3,1.5,3.2,1.4.9,0,1.9-.9,3-2.4,1.9-1.1,3.4-1.3,4.6-.5h.3c.6.6,1.5,1.5,2.6,2.8-1.4,0-2.6.4-3.5.9-2.6,1.1-2.1,2.4,1.2,3.7-3.5,1.3-5.3,2.6-5.5,4-.2,1.2.8,2.3,2.8,3.3,1.9.9,3.9,1.4,6.2,1.5,1.9,0,3.3-.2,4.1-.8l.6-.5h0c0,0,.2,0,.2,0,1-.9,1.6-2.6,1.6-5s0-1.2.5-1.2,1.5.3,2.8,1.1c2.9,1.7,4.2,3.2,3.8,4.5-.3,1.2-1.7,1.5-4.1.6h-3c0,0-1,.4-1,.4l-.7.9c-.8,1.8.5,2.7,3.9,2.7s7.8-.5,9.8-1.5c.9-.4,1.6-1,2.1-1.7,2.9,0,5.7.3,8.6,1.2,1,.3,4,1.5,9.1,3.7,3.3,1.5,5.9,2.1,8.1,2,2.3-.2,4.6-1.2,7.1-3l6.4,1c3.3,0,6.4-1.6,9.6-4.8,2.9-2,6.3-3,10.3-3s5.8.5,10.9,1.5c4.8.9,8.4,1.3,10.9,1.2,3.9-.2,7.3-1.5,10.1-3.7-1.5.3-2.3-.7-2.6-2.8-.3-2.7-1.8-3.3-4.4-1.9-1-.8-2.2-1.2-3.6-1.1-1.5,0-1.9.7-1.2,1.9-1.1,0-1.7.3-1.9,1.1-.3.8,0,1.2,1.2,1.4v.3c0,0-1.5,0-1.5,0-1.1,0-2.2-.3-3.2-.9-1-.5-2.1-.9-3.1-1.1l-1.4-.2c-.6.5-1,.9-1.3.9h-1.9c-.7,0-1.8,0-3.1-.3h-1.1c.3-.8.2-1.5-.3-2.2-.2-.3-.3-.4-.6-.5,0-.7-.2-1-.5-1.2-.3-.2-.5,0-.8.6,0-.2-.3-.3-.9-.3h-.5c-1.5-.7-2.4-1.2-2.7-1.5-.9-.8-.8-1.6.4-2.6.9-.6,1.7-.8,2.2-.6.4.2.6.5.6,1,0-.9.6-1.5,1.5-1.5h.5c1-.9,2.1-1.5,2.9-1.4.7,0,1.8.5,3.3,1.2,1.6.5,3.2.7,4.5.6.7.7,1.4,1.2,1.8,1.5,1,.7,1.9.8,2.4.2l.5.3c.2.3.4.3.6.4h0c2.5,1.6,4.9,1.9,7,.8,1.5-.6,3.2-.9,5.2-.6.9,0,2.9.5,6,1.2,2.1.5,2.9.5,2.3,0-.6-.6-2-1.2-4.3-1.9-1.8-.5-2.6-.8-2.3-1l.5-.3c.2-.2.3-.3,0-.6,1.4.5,2.7.6,3.8.4,1.4-.2,1.7-.9,1.1-1.9,1,.3,2.1.5,3,.3l.6-.2c.9.7,1.6,1,2.3,1.1,1,0,1.5-.4,1.3-1.6.8.8,1.5,1,2,.9.5-.2.6-.6.4-1.2.9.3,2.7.7,5.2.9,2.8.3,4.9.3,6.1,0,2.3.2,5.9.3,10.7.3.7.8,1.4,1,1.9.9.6-.2.6-.9.2-2" fill="#c6b342" fill-rule="evenodd"/>
  <path d="M473.5,101.6c0,2.1-.8,3.7-2.3,4.9l-6.5,4.1c-2.6-.2-5,.9-7.2,3.1-1,0-1.7.7-2,2v.4c-1.3.9-2.9,1.1-4.6.8-2.5-.9-4.3-1.3-5.6-1.3-1.6,0-3.2.5-4.7,1.5-1.7,1.1-1.9,2.3-.7,3.5v.2c-.2,1.3-1.2,1.7-3,1.4l-4.9-1.7-.4-.4.4-.6c.3-.7.2-1.4-.2-2.2l.2-.6.7.2c2.9.7,4.3-.4,4.2-3.3,0-1.1-.5-1.7-1.5-1.9-1-.2-1.6-.7-1.7-1.6-.2-1.5,1.1-2.5,4.1-2.9h1.9c-.5-.6-.9-1.3-1.1-2.1-.7-2.1-.2-4.1,1.3-6,2.1-2.5,5.9-3.2,11.6-2.5,2.2.3,4.3.4,6.3.1l2.9-.7-.2,1c-.2,1.6.3,3,1.6,4.2,1.3,1.2,2.7,1.7,4.3,1.5,1.3-.1,2.3-.9,2.9-2.2.7-1.4.4-2.3-1.1-2.9.9-.4,1.8-.5,2.8-.4,1.9.3,2.7,1.7,2.7,4h-.1ZM146.9,76.7c-.3,1.3.2,1.9,1.4,2v.4c0,0-3.4-.4-3.4-.4l-.7,1.1c-1,1-2.1,1.1-3.3.2-.8-.7-1.3-1.7-.9-3,.3-1.3,1.1-1.8,2.3-1.4,0-1.1.5-1.6,1.5-1.5,1,0,1.7.5,2.3,1.3.9-1.3,1.7-1.4,2.3-.3.5.8.4,1.2-.3,1.3-1,.2-1.4.3-1.4.5h.2ZM158.9,126.8c2.3-.2,3.8-1.3,4.5-3.3,1,2.2,2.5,3.1,4.3,2.7l.9-.3c.7.4,1.7.4,2.9,0,1.1-.4,1.9-.9,2.3-1.6l.3-1c1.4,1.7,3.3,2.9,5.9,3.5l2.1.4h1.9c1.1.7,1.1,1.3,0,2h-.1c-1.3.7-2.2.5-3-.5,1.2,1.8.9,3.2-1,4.1-2,1-3.5.7-4.7-.9-.9,1.4-2.1,1.6-3.6.7-1.5-.9-2.3-2.1-2.3-3.5-.7,1.3-1.8,1.4-3.1.4l-1.4-1.3c-1,1.5-2.3,1.5-4.1.2l-1.6-1.6h0ZM125.8,102.8l-.2.9c1.5,0,2.6.9,3,2.4.2.6.2,1,0,1.2l-1.3-.3c.3,1.6-.3,3-1.7,4.3-1.5,1.3-3,1.6-4.6.9-1.3-.6-1.7-1.3-1.1-2.3.8-1.4,1.1-2.3,1-2.9-3.5,1.9-4.6.8-3.2-3.2-1.1-.2-1.6-.5-1.4-.9l.5-.7c.9-.8,1.8-1.3,2.8-1.4.8,0,1.9.2,3.2,1,1.4.7,2.3,1,3.1,1h-.1ZM13.2,123.7l-.4.4-1.1.2-.9-.5c-.3.6-.8.9-1.5.8-.7,0-1.1-.5-1.4-1.1H3.4c.1,1.1,0,1.8-.6,1.9-.5,0-1-.2-1.7-.7-.7-.6-1-1.1-1-1.6,0-.6.3-.8,1.3-.8-1.3-.5-1.4-1.1-.6-2,.9-.9,1.8-1.1,2.9-.9l.3,1.6c1.5-.4,2.2,0,2.1,1.5l5.8.3c-1.1-1.4,0-2.1,3-2.1,3,0,4.9.2,5.5.7-.7-1.4-.2-2,1.4-1.8.6,0,1,.2,1.3.5.3.3.2.6-.4.9l2.9.3c.3-1,1.1-1.5,2.5-1.4l3.3.6c.6-1.5,1.5-1.7,2.6-.3.1-1,.7-1.5,1.6-1.6.7,0,1.1,0,1.4.5v.9l.2.8c-.7.7-1,1.5-.9,2.3l-9.3-.3c-1.7.7-3.2,1.1-4.4,1.4-2.1.4-3.3,0-3.4-1.4h-2v.9l-3.7.4v-.4" fill="#efeab8" fill-rule="evenodd"/>
  <path d="M399.2,51.7c-7.8-4.2-13.9-7.3-18-9.2-7.4-3.5-12.8-5.5-16.6-5.9l-18.2-1.6c-3.6-.2-6.4-.7-8.4-1.4,2.4,1.2,4.5,1.9,6.5,2.1l8.2.8c12.7,2.7,20.2,5.3,22.6,7.8,4.1,2.1,6.8,3.6,8.2,4.8,1.9,1.7.5,1.9-4.3.7-5.3-1.1-10.7-1.8-16.5-1.8h-.1v.2c0,0,9.1,1.7,9.1,1.7,5.7,1.4,7.2,2.5,4.6,3.5-3.6-.5-7.4-.5-11.4-.1v.2l12.2,1.4c6.1,1,5.1,1.5-2.7,1.5l-25,.9c-6.3.7-11.4.6-15.5-.3l-17.1-1.5c-3.5-.5-3.9-1.5-1.4-3,1.9-1.3,1.7-2.3-.6-3l-6.9-.6c-6-.1-10.4-.9-13-2.5-1-.6-1-1,0-1.2,1.2-.3,3.5-.2,6.9.1,11.4.5,22.6-.2,33.6-2.1,4.2-.7,6.2-1.4,5.9-1.8l-9.4-.5-28.9,1.1-15.1-.4c-4.2-1.1-8.2-1.4-11.9-.9l-8.7,1.4c6.8-.5,11.7-.2,14.6.7,2.1.7,4.7,2.5,7.7,5.5,2.4,2.3,4.7,3.6,6.7,3.9l6.5.6c4.3.9,6.6,1.7,7.1,2.4.5.9-1.5,1.7-6.1,2.4l-14.3,1.6,17.2,1c4.5.9,7.5,1.8,9.3,2.6,2.1.9,1.4,1.5-1.9,1.6-1.5-.1-3-.5-4.6-.9l-3.5-1c-2.6-.6-6,0-10,1.7-3.3,1.3-5.7,2.9-7.1,4.9-1.3,1.8-4.1,3.5-8.6,5.3,8.9-3.1,13.9-4.7,15.1-4.9,1.4-.2,2.6,0,3.8.6.7.4,2.2,1.3,4.2,2.8,7.9,4.1,17.8,4.9,29.7,2.6l.2-.5-5.9-2.3c-3.3-1.5-5.8-2.3-7.5-2.5-3.5-.4-5.8-1.4-6.9-3-1-1.5,1.7-1.8,8.1-.6l15.7.9c1.8-.2,3.5-.6,5.3-1.3,4.4.5,8.5.2,12.2-1,2.2-.7,5.4-2,9.5-3.9,5.5-.9,10.2-1,14.2-.1,2.3.5,5.2,1.4,8.8,2.8l18.4.9c2.2.2,3,.6,2.5,1.3-.6.8-3,2.2-7.4,4.2l-20.4,6.2c-3.3,1-6.9,1.4-10.7,1.2-6.6-.2-11.1.5-13.4,2.2-2.8,2.1-.2,4.6,7.6,7.8,4.5,1.9,8.5,4.6,11.8,7.9,3.3,3.3,5.5,6.7,6.9,10.3,1.3,3.8,1.4,7.3,0,10.3-1.4,3.5-4.3,6.1-8.6,8.1-11.2,5.4-18.8,8-22.8,7.9-1.5,0-3-.5-4.5-1.2-2.5-1.2-4-1.8-4.7-2.1l-2.3-.6c-.7-2.5-2.2-5-4.4-7.4-3.5-3.7-7.1-5.1-10.7-4.4-2.8-3.7-7.4-3.5-13.9.5,0-2.3-.7-4.7-2.1-7-2.7-4.9-6.5-6.9-11.2-6.1-1.5-3.5-3.6-5.5-6.5-5.9l-8.1.5c-.5-1.6-1.4-3.1-2.8-4.5-2.1-1.9-4.5-3.3-7.3-3.9-3.1-.7-6.1-.3-8.9.9-3.2,1.5-5.8,4.1-7.9,7.7-7.9-3.1-13.9-1.7-17.9,4.2-2.3,3.5-3.5,7.1-3.8,11.1l-4.3.2c-3.5.5-5.9,1.8-7.1,3.9-2.7-1.1-5.4-1.3-8.4-.5-3,.8-5.5,2.2-7.7,4.4-5.1,1.6-7.9,5.5-8.4,11.6-3.3,2.4-3.5,5.5-.9,9.4,1,1.4,2.3,2.7,3.8,3.8,1.4,1,2.6,1.6,3.5,1.7-2.8,3.1-4.1,6.9-3.6,11.1.4,4.1,2.1,7.1,4.9,9.2,1.9,4.6,5.3,7.2,9.8,7.7l5.2-.3c.4,3,1.7,6,3.8,8.8,2.8,3.8,5.9,5.8,9.4,6.2,1.8,2.1,4.3,3.8,7.5,4.9,3.1,1.1,6.3,1.5,9.6,1.3,4.1-.3,7.4-1.5,9.9-3.5,4.4,5.8,9.8,7.5,16.3,5.1,5.7,2.2,10.1,2.1,13.1-.2l2.6-2.6c.8-.7,1.7-1,2.4-.7,4.8-.4,8.2-1.8,10.2-4.2.6-.7,1.5-2.5,2.9-5.4,5.1.5,10.2-.9,15.5-4.3,5.1-3.4,8.1-7.4,9.1-12,1.4.5,2.9.7,4.6.6,7.1-.1,12.2-4.1,15.1-11.9,2-4.5,4.5-7.5,7.5-9.1,2.4-1.3,5.4-1.7,9-1.3,2.1.2,5.4.9,9.8,1.9l9.9.4c4.9-1,9.2-2.9,12.9-5.8,3.6-2.8,6.1-6.1,7.6-9.9,1.5-3.9,1.7-7.9.4-11.9-1.3-4.3-4.1-8.1-8.3-11.5-10.4-8.3-16.7-15.7-18.8-22-2.1-6.4,1-9.5,9.1-9.4,14.9,0,25.5-.8,31.5-2.5,7.4-2.1,10.2-5.7,8.2-10.7-2.1-4.8-5-7.8-8.6-9l-4.1-1.2c-1.5-.6-2.6-1.5-3.5-2.7-2.2-2.3-5-3.1-8.4-2.4l-4,.9c-1.5.2-2.9,0-4.1-.4h-.2ZM290.1,82.3q0-.2,0,0ZM268.5,109.3c2.3.5,3.7,1.6,4,3.4v.7c-1.8-.1-3-.8-3.6-2.2-.4-.6-.5-1.3-.4-1.9h0ZM94.3,122.4h1.1c-.8-.1-1.1-.5-1.1-.9v.9ZM62,111v.8-.8ZM47.2,123.2l-.2-.2.2-.4v.6h0ZM37,120.9q.1,0,0,0ZM394.7,95.9v.2c0,0,0,0,0,0-1.1-.1-1.7-.3-1.8-.7.3-.6.7-.8,1.1-.6.4.2.6.6.7,1.1h0ZM374.1,96.6l-.4.5h.2c0,.1.2-.5.2-.5" fill="#e0d47f" fill-rule="evenodd"/>
  <path d="M338.4,61.6v.5c.1,1.8-.7,3.2-2.3,4.2-1.7,1-3.2.8-4.4-.8-1-1.3-.9-2.8.3-4.5v-.2c1.3-1.6,2.1-1.7,2.7-.4-.2-1.4.2-2.3,1-2.6.7-.3,1.5-.1,2.5.5.9.6,1.4,1.2,1.4,1.9s-.4,1.1-1.1,1.4h0ZM419.3,65c1.4-.5,1.9.7,1.5,3.4h-.2l-1.9.7c-1.7,1-2.7,2.6-3,5h0c-2,.4-3.2-.3-3.5-2-.5-.4-.8-1-.9-1.9-.8,1.1-2.1,1-3.8-.6-.7-.5-1-1.3-.9-2.4.1-1.1.6-2.1,1.4-2.9,2-2.3,4.4-2,7.2,1.1.2-.7.7-1,1.5-.9.2-.4.6-.6,1.1-.6.6,0,1.1.3,1.5,1h-.1ZM412,68.7c-.4.5-.6,1.1-.5,1.5l.5-1.4h0ZM474.4,95.2c-1.3-.6-2.9-.6-4.9,0-1.8.5-2.9,1.4-3.2,2.6h1.7c.9-.3,1.8-.4,2.8-.2,1.9.3,2.8,1.7,2.7,4,0,2-.8,3.7-2.3,4.9l-6.5,4.1,1.7.3,4.1.5c1.7-.3,3.4-1.4,5.2-3.3,2.8-.6,4.3-2.8,4.7-6.5.3-1.1-.2-2.4-1.4-3.8-1.3-1.4-2.9-2.3-4.6-2.6h0ZM428.6,111.8c.5-5,3.7-7.1,9.7-6.4.3.8.7,1.5,1.1,2.2h-1.9c-2.9.4-4.3,1.4-4.1,2.9.1.8.7,1.4,1.7,1.6,1,.2,1.4.8,1.5,1.9,0,2.8-1.3,3.9-4.2,3.2l-.7-.2-1-.4-.9-.6-.2.2c.4,0,.7.2,1,.4,0,0,.8,1,.8,1,.5.8.5,1.5.2,2.2l-.4.6-.2.2c-1.3-.1-2.9.3-4.9,1.4l-.3-.4c-.3.3-.7.5-1.3.4-.9,0-1.8-.6-2.7-1.6-.9-1-1.3-2-1.3-3,0-1.1.9-1.9,2.5-2.3-1.1-1.3-.4-1.9,2.2-2h3.1v-1.2h0ZM425,124.8h.2c0,.1-.7,1.5-.7,1.5-1.1,1.7-1.3,3.2-.5,4.5l5.5-.2c1-.8,1.5-1.6,1.4-2.6l.2-.2,1.4,2.3c.8,1,2.1,1.4,3.8,1.3v.2c1-.2,1.9,0,2.7.8,1.4,1.4,1.5,3.7.3,7-.9,2.5-2.3,4-4.3,4.7-1.9.7-4.1.5-6.4-.7l-4.3-2.5-1.6-.9c-2.2-1.1-4.5-1.6-6.7-1.3-5.8.8-9.2,4.5-10.3,11-5.4-.5-10,.2-13.7,1.9-.4,1.2-1.3,1.7-2.7,1.4h-.3c-1.5-.4-2.2-1.3-2.2-2.7h-2.3c0,0-.4-1-.4-1-.3,1.4-1.7,2.1-4.1,2-2.3,0-4.1-.7-5-1.8-.6-.1-1.1.1-1.6.7,1.9.8,2.6,2.3,2,4.3-.5,2.1-1.7,3.5-3.5,4.3-1.2.5-2.9.4-5-.4l-1.7-.6c-.6.5-1.4.7-2.6.7-1.9,0-3.4-.8-4.6-2.2-.5,1.2-1.6,1.8-3.5,1.7-1.9,0-3.7-.8-5.3-2.3-1.2,1-2.9,1.5-5.3,1.3-2.5-.2-4.4-1-5.8-2.5l-2-2.5-.7-.3-1.3,1.4c-1.2.9-2.7,1.4-4.5,1.5-4.7.2-7.2-1.4-7.6-4.9-.4-2.9,1.1-5.1,4.3-6.7,2.8-1.4,5.2-1.7,7.4-.7-.6-.5-.7-1-.2-1.7.6-.8,1.5-1.3,2.7-1.4l3.9.3c1.4,0,2.6-.5,3.7-1.5,2-2.1,1.6-3.8-1.2-5-2.2-1-4-1-5.5,0h-1.3c-1.7,0-3,.6-4.1,1.6l-3,2.8c-1.1.8-2.5,1-3.9.5-1.3-.5-2.5-1.4-3.6-2.6-.7-.8-1.3-1.6-1.5-2.3-3.4,1.7-5.7,1.3-7-1.1.2,1.9-.8,2.6-2.9,2.2-1.8-.4-2.7-1.4-2.9-2.9h.1c0-.1-.1-.1-.1-.1l-1-.6c-1.3-.8-1.7-1.8-1.3-3-4.6-.4-7-1.9-7.3-4.6-.4-2.9,1.7-5.9,6.2-9,3.1-2,7.3-3.5,12.5-4.6l.2.9c-2.9.5-5.9,1.7-9,3.7-5.6,2.5-8.2,5.1-7.7,7.9.4,2.2,2.3,3.5,5.8,4.3l.3-.3c2.3-2.8,5.6-3.3,10-1.5.2-.7.8-1.4,1.7-2.3,2.2-2.2,4.3-3.3,6.2-3.4,2.3,0,4.4.3,6.1,1.2l3,2.2,1.7,1v-.8c.3-1,.9-1.9,1.8-2.7,1.1-1.1,3.1-1.5,5.8-1.2,2.6.2,4.5,1.1,5.8,2.9l1.3,2.3c.5.6.9.7,1.3.3v-.6c.3-2.6,2.3-3.2,6.1-1.9v.2-.2c.9-.9,2.3-1.2,4.1-.9,1.4.2,2.3.7,2.7,1.6.5-.4,1.5-.5,2.8-.4,1.3,0,2.2.7,2.9,1.7.6,1,.7,2.3.4,3.8-.9,3.7-3.9,6.7-9,8.8-4.4,2.3-6.1,4.7-5,7,.5.9,1.3,1.5,2.4,1.9l2.5.3c-.3-.6-.5-1.1-.4-1.7.1-.9.7-1.6,1.7-2,2.6-1.2,6.2-.6,11,1.8-.5-1.7.3-3,2.5-3.9,2.3-1,5.2-.7,8.6.7-1.1-1.1-.9-2.3.8-3.5,1.7-1.2,3.9-1.2,6.5,0,2.3,1.5,4.2,2.3,5.9,2.3s3.7-.7,5.7-2.3c2,1.1,3.9.7,5.6-1,1-1,1.7-2.2,1.9-3.3-1,1-2.3.9-4,0-2.6-1.5-3.4-3.7-2.3-6.5,1.5-3.9,4.9-5.2,10-4,1.9.5,4.9,2.4,8.9,5.8,3.5,2.2,6.2,1.5,8.3-2.3,1.4.5,2.6.4,3.7-.6,1.1-.9,1.6-2.1,1.6-3.5-.7-.3-1.3-.7-1.8-1.4-.6-1-.7-2.2-.3-3.6.5-1.4,1.1-2.5,2-3.1,1-.7,2.2-.8,3.6-.3l3.2.4-18.1,11.8ZM334.7,158.7l.3.6-.7.2c-.7.2-1.3,0-1.8-.5-.3-.3-.1-.6.5-1,.6-.3,1.1,0,1.6.7ZM268.9,111.3c-.3-.7-.5-1.3-.4-2,2.3.5,3.7,1.6,4,3.4v.7c-1.8-.1-3-.8-3.6-2.1" fill="#e4da8d" fill-rule="evenodd"/>
  <path d="M423.7,45.1c-1.3-1.6-2.3-2.2-3.1-2-.2,0-.9.6-2,1.8l-5.6.5c-.7.2-1.7.2-2.9,0-1.3-.1-2.3-.1-3.1,0-1,.2-2.3.2-3.8,0l-2-.3c-.8-1.5-2.2-2.5-4.1-2.7-1.9-.3-2.9.2-3,1.4-.2-.6-.8-.8-1.6-.7-.8.1-1.3.5-1.6,1.1l-7.7-.2-1.7-1.6c-.4-.2-1-.1-1.7.4-2.7-.4-4.2-.2-4.3.5l-5.8-.3-2.8-.2h-.2c-1.1-1.1-2.1-2-3.1-2.5-1.5-.7-2.5-.2-3.1,1.3-.4.2-1,.3-1.7.4-.5,0-.9.2-1.1.7-.8-1.5-1.4-1.5-1.9,0-1.8-1.3-3.2-1.7-4.3-1.4-1.3.7-2.5,1.1-3.7,1.3-2.8.2-4.6.2-5.3,0-1-.1-1.4-.5-1.2-1.2-.5.2-1.1.1-1.9-.3-.7-.4-1.1-.9-1.3-1.4-.5-1.5,1.3-1.7,5.3-.7,1.4.2,2.5,0,2.9-.6.4-.5.4-1.1,0-2-.4-.8-1-1.5-1.9-2.1-.4-.3-.7-.5-1.1-.5l-.5-.6c-.7-.6-1.5-.9-2.5-.8v-1c0-.2-.3-.1-.7.2-.8.7-1.6.7-2.5,0-.9-.6-.5-1.3,1-1.9,1.7,0,2.2-.5,1.6-1.5-.6-1-2.2-2-4.8-2.9-1.9-1.2-2.2-2.1-.9-2.7,1.2-.6,2.9-.5,5.3.5,2.2,1.4,6.1,2,11.6,1.6l.5.3h2c1.4-1.1,4.7-2.2,10-3.5-1.9,0-3.7-.4-5.2-1-1.8-1.6-5.1-1.9-9.9-.7-1.4,1-2.4,1.4-2.9,1.3l-.5-.5-3.5.3h-.2c-2.3,0-3.1-.2-2.5-.8,1,.4,1.8.5,2.5.3h.2c.7-.2.4-.7-.7-1.3-.7-.8-1-1.3-.9-1.5,0-.2.4-.3,1.1-.2,2.3,0,3.9-.2,4.9-.9.6-1.1,3-1.6,7-1.6h.6l5.3.2c-1.2-1.2-2.2-1.7-3-1.5-1.2.7-1.9,1-2.3,1h-.5l-2.5-.7c-3.2-2.3-6.3-2.3-9.4,0-.7.5-1.1.8-1.4.7l-.7-.7c-.9-1.3-2.5-2.1-5-2.2l-3.1-.8c-.7-.2-1-.5-1-.8,0-.4,1.7-2.3,5.1-5.6,1.3-1.5,1.5-2.7.7-3.5-.7-.7-2-1.1-4-1.3l-5.8.5c-2.1.5-3.6,1.1-4.5,1.9-1.3,1.7-1.5,2.8-.5,3.4.7.5,1.9.4,3.5-.2l-1.3-1c-1.2-1.7,1-2.3,6.5-1.9,2.8.3,3.4,1.5,1.8,3.5-1.4,1.8-3,3-4.9,3.7,0,1-.5,1.9-1.7,2.7l-3.7,2.2c-.8-.8-2.2-1-4.1-.4-2.1.6-4.1,1.9-6.1,4-.2-1-1.7-1.6-4.3-1.7l-6.2.3c-1.5-1.1-4.2-.8-8,1-.3-.5-1.9-.5-4.9,0l-13,1.4c3.7,0,11.2.1,22.7.5l3.4-1c1.9-.5,3.1-.6,3.6-.2-1.6.8-.2,1.4,4.1,1.6,4.3.3,7.9,0,10.7-.7.5.4.6.9.2,1.3,0,.5,1.9,1.2,5.4,2.1,1.7,1.6,2.5,3.1,2.3,4.7-.2,1.4-1.1,2.6-2.9,3.7-1.6,1-3.5,1.7-5.8,1.9-2.5.3-4.7.2-6.9-.5l-2.9-1.5c-1-.5-1.7-.7-2.2-.7-1.3,0-2.5,1.9-3.5,5.6-.6-1.6-1.6-2.5-3.1-2.7-1.8-.2-3.8.7-5.8,2.7-3.8-1.7-6.2-1.9-7.3-.3-.4.5-.6,1.2-.6,2s0,.7.1.9c-.5.5-.9,1.1-1.2,1.8-.1-1.1-.8-1.5-1.9-1.3-1.1.2-2.3,1-3.7,2.5-.3.6-.3,1.3,0,1.9.2.5.6.8,1.1,1.1-.5.7-1.7.9-3.3.7-2.2-.3-4.1-1-5.6-2.1-1.5,2.5-2.7,3.4-3.4,2.7.2-2.3-.8-4.1-3.2-5.3-1.5-.8-2.8-.9-3.7-.4l-3.5.5h0l-3.6.5c-1.2,0-2.3-.5-3.2-1.8-3.5-4.1-7.8-5.7-12.8-4.9l-3.8.5h-.7c0-.1-.1-.1-.1-.1-.8-1.7-1.8-2.7-2.9-3.1-1.2-.3-2.3,0-3.2,1,1-2.5.4-3.2-2-2.2,0-2.3-1.2-2.7-3.6-1.3-.9-1-1.8-1.2-2.9-.7-1.1.6-1.4,1.4-.7,2.6-1.6-.6-2.6-.4-3.1.5-.4.8-.3,1.4.4,1.9-.9,1.4-.4,2.2,1.3,2.6,1.7.4,3.1,0,4-1.4.5-.8,1.1-1.3,1.8-1.5h1.1c.5,0,.9.3,1,.6.1.3.1.7,0,1.1-.1.9.5,1.3,1.8,1,1.2-.2,2.1-.5,2.5-1,.5,0,1.5.3,3.1,1.1,1,.6,1.9.8,2.6.7-.9.3-1.2.8-1,1.4.2.6.8.9,1.9.9,0,.2,0,.6,0,1.3,0,.5-.6.8-1.4.7,0,.6-.2,1.3-.7,1.8-.6.6-1.3.9-1.9.9-1.8-1.3-4.6-1.9-8.3-1.7-1.6,0-2.6.2-3.1.7-.6.5-.2,1.3,1,2.3l-1,.2c-2.5-1-4.9-1.4-7.1-1.3-2.5,0-3.9.8-4.3,2.2l-1.4-.2c-1.4.1-2.5,1-3,2.7-.9-.4-1.6-.4-2.2.1-.3.3-.5.5-.5.8-1.4-.6-3.3-.5-5.6.2-3.7-.9-7-1-9.8-.3-2.1.5-5,1.7-8.7,3.7-1.6.2-3.4.6-5.6,1.4l-.5.2v-.2l-7.6.6-6.4.5-2.3-.2-1.6-.5c-4.2-.6-7.9-.7-11.3-.2l-4.1,1,10,.7,13.7,1,1.9-.3c3.9.5,8.2.3,12.8-.6l3.1.6,6.9-.2,9.6-1.3c5.1,1,8.7,1.7,11,1.9,3.8.4,6.7,0,8.7-1.4-1,.8-1.7,1.4-1.8,1.7-.1.3,0,.6.5,1-.4.2-.6.5-.5.8,0,.2.3.5.7.7.4.2.8.3,1.2.2.3,0,.5-.1.7-.2.2.1.5.2.8.2.4.9,1.1,1.4,2.3,1.5,1,0,2-.2,3-.7l.6-.5c1,1.1,1.9,1.9,2.9,2.6,1.9,1.3,3.5,1.5,4.7.5l.7-.6,1.3,1.6c1.4,1.9.9,2.8-1.5,2.6-1.7-.6-3-.7-3.8-.2-2.1-1.7-4.1-2.1-5.9-1.3-.8.3-1.3.8-1.5,1.5-.2.5-.2,1,0,1.5-2.8-.2-5.2.3-7.1,1.7-1,.6-1.8,1-2.5,1-1.1,0-2.6-.4-4.4-1.3-1.4-1.3-2.9-1.8-4.4-1.6-1.4.1-1.9.7-1.4,1.6-2.2-1.4-4.1-1-5.8,1.3.5-2,0-3.3-1.1-3.8-1-.5-1.8-.3-2.6.4-.7-.3-1.4-.5-2.1-.4-1,.1-1.9.5-2.5,1.2-.6.7-.7,1.3-.3,1.9.5.7,1.5,1.1,3.2,1.2-.5.7-.6,1.4-.2,1.9.3.5.8.7,1.6.8.7,0,1.4-.2,1.9-.6.6-.5.9-1.3.9-2.3.3,1.5.7,2.4,1,2.6.2.1.5,0,1-.6.5.6,1,.8,1.7.7.7,0,.9-.7.5-1.7,2.3,3.4,3.6,3.6,4,.8.2.2.5.3.7.4h.1c1,.3,2.2,0,3.7-.8l8.2-.5c1.9-1.3,3-2,3.2-2,.5-.1,1.3.3,2.3,1.3l.3.7c.3.8.8,1.4,1.6,1.9,1.1.8,2.1.9,2.9.2l.6-.5.5.7c1.7,2.2,3.7,3.5,6,4,2.7.5,4.4-.4,5.1-2.9,3.5,1.5,5.8,1.5,7-.1h1c0,0,2.1-.8,2.1-.8,1.1.1,1.9-.2,2.5-.9h1.4c.8-.2,1.3-.6,1.7-1.3,1.1.6,2.1.7,3,.3.8-.5.7-1.1-.3-2,.6.1,1.3,0,1.9-.4.7-.5.7-1,0-1.5,1.1.1,1.6-.2,1.6-.9s-.5-1-1.6-.9c-2.6-1.2-4.2-1-4.6.5l.3,1.5c.1.2.3.3.6.3-1.2,1.2-2.2,1.3-2.8.3-.2-.4-.5,0-.9,1.3v.2h0c-.3-.3-.8-.2-1.4,0-1.2-1.8-2.2-2.6-3.2-2.5.1-1.3,0-2.7-.6-4.3-.8-2.2-1.9-2.6-3.4-1.2.2-2.8-.7-4.1-2.9-3.8-.8.2-1.1,0-1-.5,0-.5.5-1,1.1-1.5,1.9-1.5,3.1-1.3,3.9.7,3,3.2,5,2.8,5.9-1.1,2.1,1.4,3.6,2.2,4.6,2.2,1.3,0,2-1.3,2.1-3.8,1.3,1,2.3,1.3,3.1,1,.4-.2,1-.8,1.8-2,.8.7,1.5,1,2.1.9.6,0,1.3-.6,2-1.6,1.3-.7,2.3-.9,3.1-.3h.2c.4.4,1,1,1.7,1.9-.9,0-1.7.3-2.3.6-1.7.7-1.4,1.6.8,2.5-2.3.9-3.5,1.7-3.7,2.7-.1.8.5,1.5,1.9,2.2,1.3.6,2.6.9,4.1,1,1.3,0,2.2-.1,2.7-.5l.4-.3h0c0,0,.1,0,.1,0,.7-.6,1.1-1.7,1.1-3.3s0-.8.3-.8,1,.2,1.9.7c1.9,1.1,2.8,2.1,2.5,3-.2.8-1.1,1-2.7.4h-2c0,0-.7.3-.7.3l-.5.6c-.5,1.2.3,1.8,2.6,1.8s5.2-.3,6.5-1c.6-.3,1.1-.7,1.4-1.1,1.9,0,3.8.2,5.8.8.7.2,2.7,1,6.1,2.5,2.2,1,3.9,1.4,5.4,1.3,1.5-.1,3.1-.8,4.7-2l4.3.7c2.2,0,4.3-1.1,6.4-3.2,1.9-1.3,4.2-2,6.9-2s3.9.3,7.3,1c3.2.6,5.6.9,7.3.8,2.6-.1,4.9-1,6.7-2.5-1,.2-1.5-.5-1.7-1.9-.2-1.8-1.2-2.2-2.9-1.3-.7-.5-1.5-.8-2.4-.7-1,0-1.3.5-.8,1.3-.7,0-1.1.2-1.3.7-.2.5,0,.8.8.9v.2c0,0-1,0-1,0-.7,0-1.5-.2-2.1-.6-.7-.3-1.4-.6-2.1-.7h-.9c-.4.2-.7.5-.9.5h-1.3c-.5,0-1.2,0-2.1-.2h-.7c.2-.5.1-1-.2-1.5-.1-.2-.2-.3-.4-.3,0-.5-.1-.7-.3-.8-.2-.1-.3,0-.5.4,0-.1-.2-.2-.6-.2h-.3c-1-.5-1.6-.8-1.8-1-.6-.5-.5-1.1.3-1.7.6-.4,1.1-.5,1.5-.4.3.1.4.3.4.7,0-.6.4-1,1-1h.3c.7-.6,1.4-1,1.9-.9.5,0,1.2.3,2.2.8,1.1.3,2.1.5,3,.4.5.5.9.8,1.2,1,.7.5,1.3.5,1.6.1l.3.2c.1.2.3.2.4.3h0c1.7,1.1,3.3,1.3,4.7.5,1-.4,2.1-.6,3.5-.4.6,0,1.9.3,4,.8,1.4.3,1.9.3,1.5,0-.4-.4-1.3-.8-2.9-1.3-1.2-.3-1.7-.5-1.5-.7l.3-.2c.1-.1.2-.2,0-.4.9.3,1.8.4,2.5.3.9-.1,1.1-.6.7-1.3.7.2,1.4.3,2,.2h.4c.6.3,1.1.6,1.5.6.7,0,1-.3.9-1.1.5.5,1,.7,1.3.6.3-.1.4-.4.3-.8.6.2,1.8.5,3.5.6,1.9.2,3.3.2,4.1,0,1.5.1,3.9.2,7.1.2.5.5.9.7,1.3.6.4-.1.4-.6.1-1.3" fill="#c6b342" fill-rule="evenodd"/>
</svg>