<?xml version="1.0" encoding="UTF-8"?>
<svg id="Layer_1" xmlns="http://www.w3.org/2000/svg" version="1.1" viewBox="0 0 841.5 300.1">
  <!-- Generator: Adobe Illustrator 30.1.0, SVG Export Plug-In . SVG Version: 2.1.1 Build 136)  -->
  <path d="M23.1,217.2l-.7.7-1.9.4-1.5-.9c-.6,1.1-1.4,1.6-2.7,1.4-1.2-.1-2-.8-2.5-2H5.9c.2,2-.1,3.1-1.1,3.3-.8.1-1.8-.3-3-1.2-1.2-1-1.7-2-1.8-2.8-.1-1,.6-1.4,2.2-1.4-2.2-.8-2.5-2-1-3.5s3.2-2,5.1-1.5l.5,2.8c2.7-.7,3.9.1,3.7,2.7l10.1.5c-2-2.4-.1-3.6,5.3-3.7,5.3,0,8.5.4,9.6,1.2-1.2-2.5-.4-3.5,2.4-3.2,1,.1,1.7.4,2.2.9.5.5.3,1.1-.7,1.6l5.1.5c.5-1.7,2-2.6,4.3-2.5l5.7,1c1.1-2.7,2.7-2.9,4.6-.6.2-1.7,1.2-2.6,2.8-2.8,1.2-.1,2,.1,2.5.9v1.6c0,0,.4,1.4.4,1.4-1.2,1.2-1.7,2.6-1.5,4.1l-16.3-.6c-3,1.2-5.6,2-7.7,2.5-3.7.7-5.7-.1-6-2.5h-3.5c0,0,0,1.5,0,1.5l-6.5.7v-.7M220.3,180.6l-.3,1.5c2.7,0,4.5,1.5,5.3,4.2.4,1,.3,1.7,0,2.1l-2.2-.5c.5,2.8-.5,5.3-3,7.5-2.6,2.3-5.3,2.8-8,1.6-2.2-1-2.9-2.3-1.9-4,1.4-2.4,2-4.1,1.7-5.1-6.2,3.3-8.1,1.4-5.6-5.6-1.9-.3-2.8-.8-2.5-1.5l.8-1.2c1.5-1.4,3.1-2.2,4.9-2.4,1.4,0,3.3.4,5.6,1.7,2.4,1.2,4.1,1.8,5.4,1.8ZM278.3,222.6c4.1-.3,6.7-2.2,7.8-5.8,1.7,3.9,4.3,5.5,7.5,4.8l1.6-.5c1.3.7,3,.7,5.1,0,2-.7,3.3-1.5,4-2.8l.5-1.7c2.4,3,5.8,5,10.4,6.1l3.7.7h3.3c2,1.2,2,2.3,0,3.5h-.2c-2.2,1.2-3.9.9-5.2-.9,2.1,3.1,1.5,5.6-1.8,7.2-3.5,1.8-6.2,1.2-8.3-1.6-1.5,2.4-3.6,2.8-6.3,1.2-2.7-1.5-4-3.6-4-6.2-1.3,2.2-3.1,2.4-5.5.7l-2.5-2.2c-1.7,2.6-4.1,2.7-7.2.3l-2.8-2.8ZM257.2,134.8c-.5,2.2.4,3.3,2.8,3.5v.7c-.1,0-6-.7-6-.7l-1.2,1.9c-1.7,1.8-3.7,2-5.8.4-1.7-1.3-2.2-3-1.6-5.3.6-2.2,2-3.1,4.1-2.5,0-1.9.9-2.8,2.7-2.7,1.7,0,3,.8,4,2.2,1.5-2.3,2.9-2.5,4.1-.5.8,1.4.7,2.1-.6,2.3-1.7.3-2.5.6-2.5.8ZM829.2,178.4c0,3.6-1.4,6.4-4.1,8.5l-11.4,7.2c-4.6-.4-8.8,1.5-12.6,5.5-1.7,0-2.9,1.2-3.5,3.5v.7c-2.3,1.6-5,2-8.1,1.4-4.3-1.5-7.6-2.2-9.8-2.3-2.8,0-5.6.9-8.3,2.7-3,2-3.4,4.1-1.2,6.2v.4c-.4,2.2-2.1,3-5.2,2.5l-8.6-3-.7-.7.7-1c.5-1.2.4-2.4-.4-3.8l.4-1,1.3.4c5.1,1.2,7.5-.7,7.4-5.7,0-1.9-.9-3-2.6-3.3-1.8-.4-2.8-1.3-3-2.8-.4-2.7,2-4.4,7.1-5.1h3.3c-.9-1-1.5-2.3-2-3.7-1.2-3.7-.4-7.2,2.2-10.5,3.6-4.3,10.4-5.6,20.4-4.3,3.8.6,7.5.7,11.1.2l5.1-1.2-.4,1.7c-.4,2.8.5,5.3,2.8,7.4,2.2,2.1,4.7,3,7.5,2.7,2.2-.2,4-1.5,5.1-3.9,1.2-2.4.7-4.1-1.9-5.1,1.6-.7,3.2-.9,4.9-.7,3.3.6,4.8,2.9,4.7,7Z" fill="#efeab8" fill-rule="evenodd"/>
  <path d="M655.1,169.7l-.7.8.4.2.3-1M691.2,168.4v.3c.1,0,0,0,0,0h0c-1.9-.2-2.9-.6-3.1-1.2.6-1,1.2-1.4,1.9-1,.7.4,1.1,1,1.2,2ZM64.8,212.2q.3,0,0,0h0ZM82.6,216.2l-.4-.3.3-.7v1ZM108.5,194.9h0v1.4-1.4ZM165.1,214.8h2c-1.4-.2-2-.8-2-1.6v1.6ZM470.2,192c4.1.8,6.4,2.8,7,5.9v1.2c-3.1-.2-5.2-1.4-6.3-3.8-.7-1.1-.9-2.2-.7-3.4ZM508.1,144.6h0q0-.4,0,0h0ZM555.2,89.2l26.4-5.1c11.7-1.2,23.8.5,36.4,5.1,16.5,8.7,28.5,14.1,36.1,16.3l9.1,2.3c1.2.5,2.1,1.1,2.8,1.7.6.7.9,1.6.9,2.5,0,2.2-.7,3.8-1.9,4.7-1.2.7-3.8,1.4-7.7,1.9-5.5,1.7-9.1,3.1-10.6,4.5-1.9,1.7-1.7,3.5.4,5.7,10.1,5.4,16.9,9.8,20.3,13.2,3,2,7.1,4.2,12.5,6.8,1.3.8,2.5,1.5,3.5,2.2l2.3-.3,5.2.7c4.8,1.3,6.2,3.4,4.1,6.3.9-1.1,2.4-1.8,4.5-2.2,2.4-.4,4.1.2,5.1,1.6.9,1.2,1,2.7.2,4.3l-.2.5c1.2.7,1.3,2.2.3,4.6-1.2,2.5-2.8,3.3-4.9,2.3,0,1-.4,2-1,2.9.5.2,1.1.6,1.7,1.1,2.4,2.1,2.7,4.2.9,6.2-2,2.8-4.5,4-7.7,3.3l-17.2-1.3c-12.5,5.4-24.3,10.1-35.1,14.2l-12.3,7.2c-5.6,2.7-12.5,4.7-20.7,6-4.9,2.3-12.4,3.8-22.4,4.5-6,.5-19.9.9-41.6,1.1-9.2-.7-16.4-.7-21.5.3l-.4-1.6,8.2-1.3,44.7-4c15.4.4,27.2-2,35.3-7.1l10.8-7.7c3.6-2.7,7.2-4.9,10.9-6.8h4.1c2.8,0,4.2-.7,4.1-2.2l2.2-.8c2-1.2,2.6-2.9,1.7-4.9-.6-1.4-1.9-1.9-3.8-1.5l-4.8,1.2c-5,.7-8.3,0-9.8-2.1-1.2-1.8-1.3-3.5-.5-5,.9-1.5,2.5-2.3,4.6-2.2v-1.4c-6.7,1.4-10.9.8-12.5-1.6-1.7-2.5-1.4-4.5.9-5.9l6.7-.3c-1-3,0-5.1,3.3-6.4,3-1.2,5.8-1.2,8.3,0,2.5,1.2,4.1,3,4.5,5.7v1.3l.3-.2,1.2-1.5,2.9-4.3c1.2-1.4,2.8-1.9,4.8-1.7,4.2.7,5.9,3,5.1,7,.9-3.9,3.6-5,8.2-3.3,2.2.8,3.8,2,4.6,3.5.7,1.5.7,3.3,0,5.6-1.1,3.3-3.8,5.3-8,6.1l-2.6.4,2.3.9h3.5c5.1-1.9,7.5-5,7.4-9.4,0-1.4-.4-2.8-1.1-4.2-1.3-2.5-3.7-5.1-7.2-7.6l-13.1-8.5c-4.7-2.8-8.5-5.3-11.4-7.2-5.4-3.7-8.2-6.8-8.4-9.4-.2-3,2.9-5.3,9.2-6.8,2.7-.7,4.3-1.3,5.1-2,1-1.1.7-2.8-.9-4.9,2.8-.6,3-1.8.4-3.6-2.2-1.6-4.2-2.6-6-3l-12.7-1.5-6.2-.8-5.5-3c-1.9-.9-4.2-1.3-7-.9.9,1.4,1.3,3,1.2,4.8,0,2.4-1,4.5-2.8,6.3-1.8,1.8-3.7,2.8-5.8,2.8-2.3,0-4.3-1.4-5.8-4v-.9c1.3-.5,2-1.4,1.9-2.5,0-1.2-.9-2.2-2.5-3.3-1.6-1.1-3-1.4-4.3-.9-1.4.5-2,2.1-1.8,4.6-1-2.4-2.5-2.2-4.5.7-1.7-2-4.3-2.2-7.7-1-3.8,1.2-7,3.3-9.6,6.3-2.2,2.4-5.8,3.7-10.5,3.9-6.2.3-10.2.8-12,1.5v2.5c1.7.7,3.8,1.2,6.5,1.4l15.1,1c6.3.8,10.8,2.8,13.5,5.8,1.5,1.8,2.3,4.3,2.2,7.3-.1,2.9-.9,5.4-2.4,7.4-2.6,3.8-7.7,5.1-15.1,3.9l-15.6-.7c-2.8.5-4.7,1.7-5.6,3.5-.8,2.5-1.8,4.5-2.9,6-2.1,2.9-5.9,3.5-11.4,1.8-3.8-1.2-6.5-2.8-8.3-4.6l-1.6-2.8-1.6-.2v.2c-1.4.2-2,.9-2,2.1-.1,1.7.6,3,2.1,4.3,3.8,3.5,7.7,5.7,12,6.7,2.8.6,6.3-.1,10.6-2.2l10-5.3c5.7-2.5,10.6-3.5,14.7-3l6.5,1.1c2.5.4,4.7.4,6.7,0,5.8-1.4,9.9-1.7,12.5-1,3.8.9,5.9,2.1,6.3,3.5.6,1.5.5,2.4-.3,2.5l-2.8.6-3.1,1.1c-1.2.5-1.5,1.4-1,3,.1.5,2,1.3,5.6,2.5l5.6,1.5c2.2.9,3.3,2.2,3.4,4.1.1,2.2-1,3-3.4,2.6l-6.3-.7c-2.1.9-3.3,2.4-3.5,4.6-.1,1.5.3,2.8,1.3,3.8-1.5-.7-3-.1-4.5,1.5-2,2.2-2.2,4.3-1,6.6.7,1.1,1.7,1.9,2.9,2.2-2.2,3.5-6,5.3-11.3,5.4l-6.1-1.4c-2.7-.9-4.7-1.4-6.2-1.2-1.2.1-2.2.7-3.3,1.7l-2.8,2h-6.2c0,0-7.7-1.2-7.7-1.2h-.7c0,.1.4.4.4.4,2,1.7,1.4,3.5-2,5.4-3.5,2-6.7,3-9.4,2.9l-18.8-2c-10.7-.6-20.6,1-29.5,4.9-5.2,2.2-8.8,4.7-10.8,7.5-.9,1.2-1.5,3-2,5.6-.5,2.6-1.1,4.4-1.7,5.4-.7,1.1-3.7,3.2-9.1,6.3-2.7,1.5-4.3,3.5-5,5.9l-3.8-.2c-6.3-.7-9.7-3.1-10.4-7.4-.7-3.8.6-8.2,3.5-12.9,3-4.8,6.1-6.5,9.5-5.3-3.7-2-5-5.4-3.8-10.2,1.2-5,3.7-8.5,7.4-10.3,3.1-1.5,6.9-2.1,11.2-1.6l1.3.2c.1-2,1.2-3.8,3.3-5.6,2.8-2.4,5.9-3.8,9.3-4.3,1.7-.2,4.9-.2,9.5,0l9.3-.7c2.8-.7,5.9-2.5,9.1-5.5,3.8-3.5,3.9-6,.2-7.4,1.9.4,3.5.1,4.9-.7,1.4-.9,1.8-2.2,1.4-4.1-.4-1.4-2.7-3-7-4.8-4.4-1.7-7-3.7-7.7-6.2l.4-3.8c0-1-.7-1.5-2-1.6-1.7,4.3-4.6,6-8.5,5.4-1.8-.3-3-.9-3.7-2l-.7-1.2-.5.9-2.6-2.2c-.7-.8-1.2-2-1.7-3.5-.1-.7-1.2-.9-3-.9l-4.2.2-4.5-1-3-1.2c-19.8,1.2-33.8,1.5-42.1,1.1l-25.9-1.5c-4.6,1.3-7.6,2.5-9,3.4-2.4,1.4-3.5,3.5-3.3,6.3.2,2.9,2.1,5.1,5.6,6.5,3.4,1.4,5.7,1.2,7.1-.4,1.8-.5,3.5.4,5,2.8,1.4,2.3.7,3.3-2,2.8-2.1-.4-3,0-2.8,1,.1,1.4-.3,2.3-1.3,2.5,3.5,1.6,6.1,1.1,7.6-1.5.9-1.2,2.1-1.7,3.4-1.4,1.2.2,1.2.9.1,1.9,1.3,1.3,1.4,3.3.4,5.9-1.1,2.6-2.9,3-5.4,1.2-.6,2-2.8,2.5-6.8,1.7-4-.8-5.6-3-4.9-6.7-.4-.8-1.2-1.1-2.5-.7-1.7.4-3,0-4.1-.8-2.9.5-4.9-.1-5.9-1.9-1-1.6-1.1-3.5-.2-5.7-2.3,1.4-4.3.9-6.1-1.5-2,.2-3.1-.4-3.2-1.7,0-.7.1-1.3.5-1.8-1.5-.7-2-2-1.4-4.1l4-.7c-.4-1.8-3.3-2.7-8.7-2.5-3.9.2-7.5.8-10.6,1.6l-5.6,1.6-5.7.2c-1.4-.5-.9-1.1,1.2-1.7,2.7-.8,4-1.5,4-2.2h-3.5c.2-1.3.5-2.2.9-2.8h-8.2c-13.6.5-21.9,1.5-24.7,3.3-4.6,2.8-7.1,4.6-7.7,5.2-1.4,1.7-.4,3.1,3,4.5,4.6,5.3,7.3,8.1,8,8.5,2.1,1.2,5.1.2,8.8-3,3.7-3.3,7.4-4.1,11.1-2.5,3.3,1.4,5.3,3.7,6.2,7,2.8,2.6,4.9,5.4,6,8.3,1.2,3,1.1,5-.4,6l14-.4c1.2.8,2.1,1.7,2.6,2.7.4.9.3,1.5-.4,1.8,1.5,1,2.1,3.1,1.7,6.3-.4,3.2-1.4,5.1-3.2,5.9,3.4,2.1,5.1,4.4,4.9,7-.1,2-1.3,3.8-3.4,5.3-1.3,2.2-3.5,3.8-6.8,4.6l-3.8.4c0,1.7-1.3,3-3.7,4.2,1.4,2,.7,4.1-2.1,6.4-2.7,2.2-6.2,3.8-10.6,4.8-7.5,1.7-13.1,1-16.9-1.8,2.1-1.2,2.2-2.3.1-3.5h-3.3l-3.7-.6c-4.6-1.1-8-3.2-10.4-6.2l-.5,1.7c-.8,1.2-2.1,2.2-4,2.8-2.1.7-3.8.7-5.1,0l-.9-.5-.7,1c-3.3.8-5.7-.8-7.5-4.8-1.1,3.6-3.7,5.6-7.8,5.8h-.1c-4.5.2-7.4-2.1-8.8-6.8-5.4,2.8-9.3,3.6-12,2.5-2.2-.9-3.3-3-3.3-6l-1.5-.2c-34.4,1.2-57.9,1.7-70.7,1.7s-12.5.4-11.7,1c.4.4,3,1.3,7.7,2.5l-29.5,1.5c1.2,1.4,1.3,2.8.3,4-1.5,2-2.3,3.2-2.3,3.7,2.2,2.7,2.3,5,.2,6.8l-7.8.3c-.7,2.4-2,4.3-4.2,5.5-2.5,1.4-4.7.9-6.5-1.4-2.5-.4-4.1-1.9-4.4-4.7-.7-3.2,1-6.4,4.9-9.6-3.4-1.7-4-3.5-1.9-5.3,1.1-.9,2.7-1.5,4.8-1.8h-29.9l.2,1.4c-.1,1.7-1.2,3-3.2,4.3-2,1.2-4,1.7-6,1.4-2.2-.2-3.9-1.3-4.9-3.4-.7,4.3-3.8,6.6-9.3,6.7-2.2,0-3.9-.3-5.3-1.1-1.5-.8-2-1.8-1.7-3-2.7,1.9-5,1.2-6.8-2.2-.8-1.4-1.2-2.7-1.2-3.9,0-1.6.4-3,1.5-4.2l-.5-1.4c0-.5,0-1.1.1-1.6.2-.9.7-1.8,1.3-2.8,1.4-2.1,3.1-3.5,5.1-4.2,1.4-.5,3.8-.6,7.3,0,.7-1.8,2.5-3,5.4-3.5,4.4-.9,7.9,0,10.3,2.5-.9-1-1.1-2.2-.4-3.7.7-1.4,1.9-2.6,3.7-3.5,4.6-2.5,7.7-1.7,9.1,2.5l.9-1.4h1.3c0-2.2,1.2-3.9,3.3-5.1,1.4-.7,2.7-.9,3.9-.5-.4-.8-.5-1.6-.3-2.3l.7-.9c-1.4-.2-2.3-1.2-3-2.8-1-2.8-.4-5.4,1.7-7.7,1.7-2,4.3-3.1,7.9-3.5,3.8-.4,6,.5,6.7,2.6l2.5-1c-2.8-.9-2.8-2.5,0-4.4,2.7-1.9,5.1-2.7,7.2-2.3,4.1.8,6.1,3.5,5.9,7.9,1.2-.9,2.9-1.1,5.3-.6,2.8.7,3.3,2,1.7,4,3.6.5,5.5,2.2,5.6,5.3l46.1-2.8c-.2.7.7,1.2,2.5,1.5-2.5,7-.7,8.9,5.6,5.6.4,1.1-.2,2.8-1.7,5.2-1,1.6-.4,2.9,2,3.9,2.7,1.2,5.4.7,7.9-1.6,2.6-2.2,3.6-4.6,3.1-7.5,1,.8,1.7.9,2.2.6.4-.4.5-1.2.1-2.2-.8-2.7-2.6-4.1-5.3-4.2l.3-1.5h.1l-.9-2.4,4.3,1c1.6.5,2.5-.2,2.7-2l-2.5-.5.5-2c1.4.2,2.4,0,2.8-1,.5-.9.4-2-.1-3.4-1.7-3.4-4.6-4.6-8.8-3.8l-4.7,1.4c-1.7.4-3.3-.1-4.5-1.4-.6-.5-1.1-1.7-1.5-3.6h0c-1.8-.4-2.8-1.7-3-4-.4-2.5,1.2-3.8,4.6-3.8,3.3,0,4.9,1,4.6,3.3-1.1,3.7,2.6,5,11.2,4.1,4-.4,6.3.8,7,3.5.2,1,.1,3.8-.4,8.2-.4,2.4,2.3,4.3,8,5.6l10.6,1.3c.2-.9.7-1.7,1.5-2.5,1.5-1.7,3.4-2.8,5.8-3,2.5-.2,5.1.4,8,2l4.4,2.5c-.6-1.4,0-2.8,1.7-4.1,1.8-1.4,4.1-2.5,6.9-3.3l-.5-.8c-.8-1.7-.6-4,.8-6.8,4.4-2.8,7.3-2.6,8.7.8v-1.8c1.7-.2,3.3.4,4.6,1.7,1.5,1.5,2.8,2.3,4,2.3,2.2,0,3.3-.7,3.3-2.4,0-1-.4-1.9-.9-2.5-.9,1.1-2.2,1.2-3.8.3v-1.2c-.5,1.1-1.6.8-3.5-.9l-2-2.5v-.7c-3.1-.8-3.7-2.7-1.9-5.5,1.2-2.1,3.2-4.1,5.8-6.1-1.5-1.2-2.5-1.8-3.2-2l1.5-1.4-10.9-.9-10.3-1.2-10.6-2.1v-.7c0,0,5.8-.1,5.8-.1l5.1.8,5.7-.9,6.5,1.2c2.5.5,4.5.2,6.2-.8,0-1.8-.9-3.1-2.5-4l1.2-2c1.4-.4,2.8-.2,3.8.6l-.5-1.8c-.2-1.5.1-2.7,1.1-3.5l5.1-.4.4-.3c.4-.3.9-.5,1.7-.7l4.3-1.2-.4-.3c-.9-.9-.7-1.9.7-3.1-1.1.5-2,.4-2.8-.5l-1.7-.6c-2.4-1-2.9-2.5-1.6-4.6h1.4c-.4-1.2,0-2,1-2.3l.5-.2-.4-.5c-.7,1.2-1.7,1.4-3,.4-1.3-.9-1.8-2.1-1.5-3.5-1.5-.7-.7-1.5,2.6-2.5,3.1-.8,6.2-.3,9.1,1.4-1.6-1.1-1.9-2.1-.9-3.1.9-1.1,1.7-1.4,2.4-.9-1.2-1.5-.6-2.7,1.7-3.5,2.2-.7,4.3-.2,5.9,1.4,3.8-2.3,5.6,0,5.1,7.1.6-1.2,1.6-1.8,3-1.7,1.4,0,1.7,1.2,1.1,3.3.9-1.9,2.4-2.5,4.6-1.8,1.9.6,3.4,2,4.6,4.1v1.5c8.3-.9,27.4-1.3,57.4-.9,26.5.4,45,.7,55.6,1.2h.7c0,.1,4.3,4.9,4.3,4.9,1.7,1.7,3.8,3,6.3,3.8l6.8,2.1.8.4c1.5.8,2.7,2,3.5,3.6l1,2.2-.8.4h1c0-.1.3-.1.3-.1,1.7,0,2.6.9,3,2.4.9-3.7,3-5.5,6.6-5.5,1.1,0,2,.4,2.8.9l.9-2.3c1-2.4,2.6-3.9,4.9-4.7,2.5-.8,4.9-.5,7.1.9,2,1.3,3.2,3,3.5,5.1-.2-5.2,2.4-8.8,8-10.9,4.5-1.7,7.6-1,9.3,2.2l.4.8v-.7c0,0,.2-.4.2-.4.4-2.2,1.2-3.5,2.4-3.7-.4-.4-.5-.9-.5-1.6-.1-1.4.6-3,2.2-4.6,1.5-1.6,3.1-2.4,4.9-2.4l2,.5.9.6h-.1c0,0-.7-.8-.7-.8-1.2-1.4-1.4-3.2-.7-5.4-2.8,2.1-5.4,2.6-8.1,1.7-3-1-4.1-3.4-3.4-7.1.4-3.2,3-5.2,7.9-6.2h4.6c.1-.7.6-1.7,1.2-2.9,2-3.4,4.4-5.4,7.2-5.9,3.8-.7,7.5-.4,11.2,1,2.2.9,3.8,2.1,4.8,3.5l.9,1.8Z" fill="#e0d47f" fill-rule="evenodd"/>
  <path d="M470.9,195.5c-.6-1.2-.8-2.3-.7-3.5,4.1.8,6.4,2.8,7,6v1.2c-3.1-.2-5.2-1.4-6.3-3.7M586.1,278.4l.6,1-1.2.4c-1.2.3-2.2,0-3.1-.9-.5-.5-.2-1.1.9-1.7,1.1-.5,2-.1,2.8,1.2ZM744.3,219l.4.2-1.3,2.4c-1.9,3-2.2,5.6-.8,7.8l9.6-.4c1.8-1.4,2.7-2.8,2.5-4.5l.4-.3,2.4,4.1c1.4,1.7,3.6,2.4,6.7,2.3v.4c1.8-.4,3.3,0,4.7,1.4,2.4,2.4,2.6,6.5.5,12.2-1.5,4.3-4,7-7.5,8.2-3.4,1.2-7.1.8-11.2-1.2l-7.5-4.3-2.8-1.5c-3.9-2-7.8-2.8-11.8-2.2-5.4.7-8.7,2.6-9.9,5.7-.8,2-.7,3.8.3,5.4l1.3,1.2c-2.5.5-4.8,2.4-6.8,5.7-1.4,2.1-2.2,4.1-2.6,5.9l-2.4-1.5c-3.4-2-7.2-2.6-11.4-2-10.1,1.4-16.1,7.9-18.1,19.3-9.5-.8-17.5.3-24,3.3-.7,2.1-2.2,3-4.7,2.5h-.5c-2.7-.7-3.9-2.2-3.8-4.8h-4c0,.1-.7-1.7-.7-1.7-.5,2.5-2.9,3.6-7.1,3.5-4.1-.1-7.1-1.2-8.8-3.2-1.1-.2-2,.2-2.8,1.3,3.3,1.4,4.5,4,3.5,7.5-.9,3.6-3,6.2-6.2,7.5-2.1.9-5,.7-8.7-.7l-3-1.1c-1,.8-2.5,1.2-4.5,1.2-3.3,0-6-1.4-8-3.9-.8,2.1-2.8,3.1-6.1,3-3.4-.1-6.5-1.4-9.2-4-2.1,1.8-5.1,2.6-9.2,2.2-4.3-.4-7.7-1.7-10.1-4.3l-3.5-4.3-1.2-.5-2.2,2.5c-2.1,1.6-4.7,2.5-7.9,2.6-8.2.4-12.6-2.4-13.3-8.5-.7-5,1.9-8.9,7.6-11.8,4.9-2.5,9.1-2.9,13-1.2-1.1-.8-1.2-1.8-.4-2.9,1-1.4,2.6-2.2,4.8-2.4l6.8.5c2.5,0,4.6-.9,6.4-2.6,3.5-3.7,2.8-6.7-2.1-8.8-3.8-1.7-7-1.7-9.6,0l-2.3-.2c-2.9.2-5.3,1.2-7.2,3l-5.2,4.9c-2,1.4-4.3,1.7-6.8.9-2.3-.8-4.4-2.4-6.3-4.6-1.3-1.4-2.2-2.8-2.7-4.1-5.9,3-10,2.3-12.3-2,.3,3.4-1.4,4.6-5.1,3.8-3.1-.7-4.8-2.4-5-5.1l.2-.2h-.2c0,0-1.8-1-1.8-1-2.2-1.4-2.9-3.2-2.2-5.3-8-.7-12.2-3.3-12.8-8-.7-5.1,2.9-10.4,10.8-15.7,5.4-3.5,12.7-6.2,21.9-8l.4,1.6c-5.1.9-10.4,3-15.7,6.4-9.8,4.4-14.3,9-13.4,13.8.7,3.8,4.1,6.2,10.2,7.5l.5-.6c4.1-4.9,9.8-5.8,17.5-2.7.4-1.2,1.4-2.5,3-4,3.9-3.8,7.5-5.8,10.8-5.9,4.1-.1,7.7.6,10.6,2.1l5.2,3.9,2.9,1.7.2-1.4c.4-1.8,1.3-3.4,3-4.8,2-1.9,5.4-2.6,10.1-2.1,4.6.4,7.9,2,10.1,5l2.2,4.1c.8,1,1.6,1.2,2.3.6v-1.1c.5-4.5,4.1-5.6,10.6-3.4v.4c0,0,.2-.4.2-.4,1.4-1.6,3.8-2.1,7-1.6,2.5.4,4.1,1.3,4.8,2.8.9-.7,2.6-.9,4.9-.7,2.2.1,3.9,1.2,5,3,1,1.8,1.2,4.1.7,6.6-1.6,6.5-6.9,11.7-15.8,15.4-7.7,4.1-10.7,8.3-8.8,12.3.8,1.5,2.2,2.7,4.2,3.3l4.3.5c-.6-1-.8-2-.7-3,.2-1.5,1.2-2.8,3-3.5,4.5-2.1,10.9-1.1,19.3,3.2-.9-3,.6-5.2,4.3-6.9,4.1-1.7,9.1-1.3,15,1.2-2-2-1.6-4.1,1.4-6.1,3-2.1,6.8-2.1,11.3,0,4,2.7,7.4,4,10.4,4,3.2,0,6.5-1.3,10-4,3.5,1.9,6.9,1.3,9.8-1.7,1.8-1.8,2.9-3.8,3.3-5.8-1.7,1.7-4,1.6-7,0-4.6-2.6-5.9-6.4-4-11.4,2.6-6.8,8.5-9.1,17.6-7,3.4.8,8.5,4.2,15.6,10.1,6.1,3.9,10.9,2.6,14.6-4,2.4.9,4.6.7,6.5-1,1.9-1.6,2.8-3.6,2.8-6.2-1.3-.5-2.3-1.3-3.1-2.5-1.1-1.7-1.2-3.8-.5-6.3.8-2.5,2-4.3,3.5-5.4,1.7-1.2,3.8-1.4,6.3-.6l5.6.7ZM750.7,196.3c.8-8.7,6.4-12.5,17-11.2.5,1.4,1.2,2.7,2,3.8h-3.3c-5.1.7-7.5,2.4-7.1,5.1.2,1.4,1.2,2.4,3,2.8,1.7.4,2.5,1.4,2.6,3.4.1,4.9-2.3,6.8-7.4,5.6l-1.3-.4-1.7-.7-1.5-1.1-.3.4h0c.7.1,1.2.4,1.7.7h0c0,.1,1.4,1.7,1.4,1.7.8,1.4.9,2.6.4,3.8l-.7,1-.4.4c-2.3-.2-5.1.6-8.5,2.4l-.5-.7c-.5.5-1.3.8-2.2.7-1.5-.1-3.1-1.1-4.7-2.8-1.6-1.8-2.3-3.5-2.2-5.2.1-2,1.6-3.3,4.4-4.1-2-2.2-.7-3.3,3.8-3.5l5.4-.2v-1.9ZM830.8,167.2c-2.3-1.1-5.1-1.1-8.5,0-3.2.9-5.1,2.5-5.6,4.6h0l3,.2c1.6-.7,3.2-.9,4.9-.6,3.3.5,4.9,2.9,4.7,7,0,3.5-1.4,6.4-4.1,8.5l-11.4,7.2,3,.5,7.2.9c3-.5,5.9-2.4,9.1-5.7,4.9-1.1,7.6-4.9,8.3-11.4.5-2-.3-4.2-2.5-6.7-2.3-2.5-5-4.1-8.1-4.6ZM721.5,120.9c-.7.9-1,1.9-.9,2.7l.9-2.5v-.2ZM734.4,114.3c2.5-.8,3.4,1.2,2.7,5.9h-.4c0,0-3.3,1.3-3.3,1.3-3,1.7-4.7,4.6-5.2,8.8v.2c-3.5.5-5.6-.7-6.1-3.7-.9-.7-1.4-1.8-1.5-3.3-1.4,2-3.6,1.7-6.7-1-1.2-.8-1.7-2.2-1.5-4.2.2-2,1-3.6,2.4-5.1,3.5-4.1,7.7-3.5,12.6,1.9.4-1.2,1.2-1.8,2.6-1.6.4-.7,1-1.1,2-1,1.1,0,2,.6,2.6,1.8ZM592.7,108.3v.9c.2,3.1-1.2,5.6-4.1,7.4-3,1.8-5.6,1.4-7.7-1.4-1.7-2.2-1.5-4.9.5-7.9l.2-.3c2-2.8,3.4-3,4.5-.7-.3-2.5.3-4.1,1.8-4.6,1.2-.5,2.6-.2,4.3.9,1.6,1,2.5,2.1,2.5,3.3,0,1.1-.7,2-2,2.5Z" fill="#e4da8d" fill-rule="evenodd"/>
  <path d="M742,79.4c-2.2-2.8-4-3.9-5.4-3.5-.4,0-1.5,1.1-3.5,3.1l-9.8.8c-1.3.3-3,.3-5.1,0-2.2-.2-4.1-.2-5.4,0-1.8.4-4,.4-6.7.1l-3.5-.5c-1.4-2.7-3.8-4.3-7.1-4.7-3.3-.5-5,.4-5.2,2.5-.4-1-1.4-1.4-2.8-1.2-1.4.2-2.3.9-2.8,2l-13.5-.4-3-2.8c-.7-.4-1.7-.2-3,.7-4.8-.7-7.3-.4-7.6.9l-10.1-.5-4.9-.4h-.3c-1.9-2-3.7-3.5-5.4-4.3-2.7-1.2-4.4-.4-5.4,2.3-.7.4-1.7.6-3,.7-.9,0-1.6.4-2,1.2-1.4-2.7-2.5-2.7-3.4,0-3.1-2.2-5.6-3-7.6-2.5-2.2,1.2-4.4,2-6.4,2.3-4.9.3-8,.4-9.3.1-1.8-.2-2.5-.9-2.1-2.1-.9.4-2,.2-3.3-.5-1.2-.7-2-1.5-2.2-2.5-.9-2.6,2.2-3,9.3-1.2,2.5.4,4.3,0,5.1-1,.7-.9.7-2,0-3.5-.7-1.4-1.7-2.7-3.3-3.6-.7-.5-1.3-.8-2-.9l-.8-1c-1.2-1-2.7-1.5-4.3-1.4h0c0,0,0-1.8,0-1.8-.1-.4-.6-.2-1.2.4-1.4,1.2-2.8,1.2-4.3,0-1.5-1.1-.9-2.2,1.7-3.3,2.9,0,3.8-.9,2.8-2.6-1.1-1.8-3.9-3.5-8.4-5-3.3-2.1-3.8-3.7-1.6-4.7,2.1-1.1,5.1-.9,9.2.8,3.8,2.5,10.6,3.5,20.3,2.8l.9.5,3.5-.2c2.4-1.7,8.3-3.6,17.6-5.9-3.4,0-6.4-.7-9.1-1.7-3.1-2.8-8.9-3.3-17.4-1.3-2.5,1.8-4.2,2.5-5.1,2.2l-.8-.9-6.2.6h-.4c-4.1,0-5.5-.4-4.3-1.4,1.8.7,3.2.8,4.3.5h.4c1.2-.4.7-1.2-1.3-2.2-1.2-1.4-1.7-2.3-1.5-2.7,0-.4.7-.5,2-.4,4.1,0,6.9-.4,8.5-1.5,1.1-1.9,5.2-2.8,12.3-2.8h1l9.3.3h0,0c-2.1-2.1-3.9-3-5.3-2.6-2.1,1.2-3.4,1.7-4,1.8h-.8c0,0,0,0,0,0l-4.4-1.2c-5.6-4.1-11.1-4.1-16.5,0-1.2.9-2,1.4-2.4,1.2l-1.2-1.2c-1.5-2.3-4.4-3.6-8.7-3.8l-5.5-1.4c-1.2-.4-1.8-.9-1.7-1.4,0-.7,3-4,9-9.8,2.2-2.7,2.7-4.7,1.3-6.2-1.2-1.3-3.5-2-7-2.2l-10.1.8c-3.7.8-6.3,1.9-7.9,3.3-2.3,2.9-2.6,4.9-.9,5.9,1.2.9,3.3.7,6.2-.4l-2.3-1.7c-2.1-3,1.7-4.1,11.4-3.3,4.9.5,5.9,2.6,3.1,6.2-2.4,3.1-5.2,5.3-8.6,6.5,0,1.7-.9,3.3-2.9,4.7l-6.4,3.8c-1.4-1.4-3.8-1.7-7.2-.7-3.7,1.1-7.2,3.4-10.6,7-.4-1.7-2.9-2.8-7.5-3l-10.8.5c-2.7-2-7.4-1.4-14,1.7-.6-.8-3.4-.8-8.5,0l-22.8,2.5c6.4,0,19.7.2,39.8.9l5.9-1.7c3.4-.9,5.5-1.1,6.3-.4-2.8,1.4-.4,2.4,7.2,2.8,7.5.5,13.8,0,18.7-1.2.9.7,1.1,1.5.3,2.3,0,.9,3.3,2.1,9.4,3.6,3,2.8,4.3,5.5,4,8.3-.4,2.4-2,4.6-5,6.4-2.8,1.7-6.2,2.9-10.2,3.4-4.3.5-8.3.3-12.1-.8l-5.1-2.7c-1.7-.8-3-1.2-3.8-1.2-2.2.1-4.3,3.4-6.2,9.8-1-2.8-2.8-4.3-5.4-4.8-3.2-.4-6.6,1.2-10.2,4.8-6.6-3-10.8-3.3-12.7-.6-.7.9-1,2.1-1,3.5s0,1.2.2,1.6c-.9.9-1.6,1.9-2.1,3.1-.2-1.9-1.4-2.6-3.3-2.2-2,.4-4.1,1.8-6.4,4.3-.5,1.1-.5,2.2,0,3.4.4.8,1.1,1.4,1.9,2-.9,1.2-2.9,1.6-5.8,1.2-3.8-.5-7.1-1.7-9.8-3.7-2.7,4.4-4.7,5.9-5.9,4.7.4-4.1-1.4-7.2-5.6-9.3-2.7-1.4-4.9-1.6-6.5-.7l-6.2.9h-.1l-6.3.8c-2.1,0-4-.9-5.6-3.1-6.2-7.2-13.7-10-22.4-8.5l-6.7.9-1.3-.2h-.2c-1.4-3-3.1-4.8-5.1-5.4-2.1-.6-4,0-5.6,1.8,1.8-4.4.7-5.6-3.5-3.8,0-4-2.1-4.7-6.3-2.2-1.5-1.7-3.2-2.1-5.1-1.2-2,1-2.4,2.5-1.3,4.6-2.8-1-4.6-.7-5.4.8-.7,1.4-.5,2.5.7,3.3-1.5,2.4-.7,3.9,2.3,4.6,3,.7,5.4-.1,7-2.5.9-1.4,2-2.2,3.2-2.6h1.9c.9.1,1.5.6,1.8,1.1.2.5.2,1.2-.1,1.9-.2,1.5.9,2.2,3.2,1.8,2.1-.4,3.6-.9,4.4-1.8.9,0,2.7.6,5.4,2,1.8,1.1,3.3,1.4,4.6,1.2-1.5.6-2.1,1.4-1.7,2.4.4,1.1,1.4,1.6,3.3,1.6-.1.4-.1,1.1,0,2.2-.1.9-1,1.4-2.5,1.2,0,1.1-.4,2.2-1.3,3.1-1.1,1-2.2,1.5-3.3,1.5-3.2-2.2-8-3.3-14.6-3-2.8,0-4.6.4-5.4,1.2-1,.9-.4,2.3,1.7,4l-1.7.3c-4.3-1.8-8.5-2.5-12.5-2.3-4.3.1-6.9,1.4-7.5,3.8l-2.5-.3c-2.5.2-4.3,1.8-5.2,4.8-1.5-.7-2.8-.7-3.8.2-.5.5-.9.9-.9,1.4-2.5-1-5.7-.9-9.8.4-6.4-1.6-12.2-1.8-17.2-.6-3.6.9-8.7,3-15.2,6.5-2.8.3-6,1.1-9.8,2.4l-.9.3v-.4c0,0-13.3,1-13.3,1l-11.2.9-4.1-.4-2.8-.9c-7.3-1.1-13.9-1.2-19.8-.4l-7.1,1.7,17.5,1.3,24,1.7,3.3-.5c6.8.9,14.3.6,22.4-1.1l5.5,1.1,12-.4,16.8-2.2c8.9,1.8,15.3,2.9,19.3,3.3,6.6.7,11.7-.1,15.2-2.4-1.8,1.4-2.9,2.5-3.1,3-.2.5,0,1.1.9,1.7-1.8.9-2.5,2.1-2.2,3.3.2,1.2,1.2,2.2,2.8,3,1.7.8,3.3,1.1,5.1,1,1.2,0,2.3-.4,3.1-1,.9.7,2.2.9,3.5.8.7,1.6,2,2.5,4.1,2.6,1.7.1,3.5-.3,5.2-1.3l1.1-.9c1.7,1.9,3.4,3.4,5.1,4.6,3.4,2.3,6.1,2.6,8.2.9l1.2-1,2.2,2.8c2.4,3.4,1.5,4.9-2.6,4.5-3-1.1-5.3-1.2-6.7-.4-3.6-3-7.1-3.7-10.4-2.2-1.4.6-2.3,1.4-2.7,2.7-.3.9-.3,1.7,0,2.6-4.9-.4-9.1.6-12.5,3-1.7,1.1-3.2,1.7-4.4,1.7-1.9,0-4.5-.7-7.7-2.3-2.5-2.2-5.1-3.1-7.7-2.8-2.5.2-3.3,1.2-2.4,2.8-3.8-2.4-7.2-1.7-10.1,2.2.8-3.5.1-5.7-1.9-6.7-1.7-.8-3.1-.6-4.5.7-1.2-.6-2.5-.8-3.7-.7-1.8.2-3.3.9-4.3,2.1-1.1,1.2-1.3,2.3-.6,3.3.8,1.2,2.7,1.9,5.6,2.1-.9,1.3-1.1,2.4-.4,3.3.5.9,1.4,1.3,2.8,1.4,1.3,0,2.5-.3,3.4-1.1,1.1-.9,1.6-2.2,1.5-4.1.6,2.7,1.2,4.2,1.7,4.6.3.2.9-.1,1.7-1.1.8,1,1.7,1.4,2.9,1.3,1.2-.1,1.5-1.2.9-3,4,5.9,6.3,6.3,7,1.4.4.3.9.5,1.2.7h.2c1.7.6,3.9,0,6.4-1.4l14.3-.8c3.3-2.3,5.2-3.5,5.6-3.5.9-.2,2.3.5,4,2.2l.5,1.2c.5,1.4,1.4,2.5,2.8,3.4,2,1.4,3.7,1.5,5.1.4l1.1-.9.9,1.2h0c3,3.8,6.4,6.1,10.5,7,4.7.9,7.7-.7,8.9-5.1,6.1,2.7,10.1,2.6,12.2-.2h.2c0,0,1.5.1,1.5.1l3.7-1.5c2,.2,3.4-.3,4.3-1.5h2.5c1.4-.3,2.3-1.1,3-2.3,2,1.1,3.7,1.3,5.2.6,1.4-.8,1.2-2-.6-3.5,1.1.2,2.2,0,3.3-.7,1.2-.9,1.2-1.7,0-2.7,1.9.2,2.8-.3,2.8-1.5s-.9-1.7-2.8-1.5c-4.6-2.1-7.3-1.7-8,.9l.5,2.7c.2.4.5.5,1,.5-2.1,2.1-3.8,2.2-4.9.6-.4-.7-.9,0-1.6,2.2v.3h-.1c-.6-.5-1.4-.4-2.5,0-2.1-3.1-3.9-4.6-5.6-4.4.2-2.3-.1-4.8-1.1-7.5-1.4-3.8-3.4-4.6-6-2.1.4-4.9-1.2-7.2-5.1-6.7-1.4.4-1.9.1-1.7-.8.1-.8.8-1.7,2-2.7,3.3-2.7,5.5-2.2,6.8,1.3,5.2,5.6,8.7,4.9,10.4-2,3.7,2.5,6.3,3.8,8,3.9,2.2,0,3.5-2.2,3.7-6.6,2.3,1.7,4.1,2.3,5.4,1.8.7-.3,1.7-1.4,3.1-3.5,1.4,1.2,2.7,1.8,3.7,1.6,1-.1,2.2-1.1,3.5-2.8,2.2-1.3,4-1.5,5.4-.6h.3c.7.7,1.7,1.8,3,3.3-1.6.1-3,.5-4.1,1-3,1.3-2.5,2.8,1.4,4.3-4.1,1.5-6.2,3-6.4,4.7-.2,1.4.9,2.7,3.3,3.8,2.2,1.1,4.6,1.6,7.2,1.7,2.2,0,3.8-.2,4.8-.9l.7-.6h0c0,0,0-.1,0-.1h.2c1.2-1.1,1.9-3,1.9-5.8,0-.9.1-1.4.6-1.4.5,0,1.7.4,3.3,1.3,3.4,2,4.9,3.7,4.4,5.2-.4,1.4-2,1.7-4.8.7h-3.5c0-.1-1.2.5-1.2.5l-.8,1c-.9,2.1.6,3.1,4.6,3.1s9.1-.6,11.4-1.7c1-.5,1.9-1.2,2.5-2,3.4,0,6.7.4,10.1,1.4,1.2.4,4.7,1.8,10.6,4.3,3.8,1.7,6.9,2.4,9.4,2.3,2.7-.2,5.4-1.4,8.3-3.5l7.5,1.2c3.8,0,7.5-1.9,11.2-5.6,3.4-2.3,7.4-3.5,12-3.5s6.8.6,12.7,1.7c5.6,1.1,9.8,1.5,12.7,1.4,4.6-.2,8.5-1.7,11.8-4.3-1.7.3-2.7-.8-3-3.3-.4-3.1-2.1-3.8-5.1-2.2-1.2-.9-2.6-1.4-4.2-1.3-1.7,0-2.2.8-1.4,2.2-1.3,0-2,.4-2.2,1.3-.4.9.1,1.4,1.4,1.6l-.2,1-4.1.3c-3.3-.2-6.4-1.1-9.3-2.6-2.8-1.5-5.6-2.5-8.6-3.2l-3.8-.4v.2c-1.9,1.4-3.1,2.2-3.8,2.5h-5.3c-2,.2-5-.1-8.8-1h-3.2c.9-2.2.7-4.2-.7-6.2-.6-.8-1.2-1.3-1.7-1.4-.1-2-.6-3-1.3-3.4-.9-.4-1.7,0-2.5,1.6-.3-.6-1.1-.9-2.3-.8h-.7c0,0-.4,0-.4,0l-.7.2c-4.3-2.2-6.8-3.7-7.7-4.4-2.5-2.3-2.2-4.8,1.2-7.3,2.7-1.7,4.8-2.3,6.3-1.7,1.2.4,1.7,1.4,1.7,3,.2-2.7,1.7-4.1,4.5-4.2h1.5c3.1-2.8,5.9-4.1,8.4-3.8,1.9.2,5,1.3,9.3,3.4,4.9,1.4,9.1,2,12.6,1.9,2,2,3.7,3.3,5.1,4.3,3,2.1,5.4,2.3,7,.7l1.4,1.2c.7.7,1.2,1.1,1.7,1.2h.2c0,0,.1.1.1.1,7.1,4.5,13.8,5.2,20.1,2.1,4.1-1.8,9.1-2.5,14.8-1.8,2.8.3,8.4,1.4,16.9,3.5,6.2,1.5,8.4,1.4,6.8-.2-1.6-1.6-5.6-3.3-12.2-5.2-5.1-1.4-7.3-2.3-6.5-3l1.5-1c.7-.4.7-.9.3-1.6,4,1.3,7.5,1.7,10.8,1.2,3.8-.6,4.9-2.4,3.2-5.4,3,1,5.8,1.3,8.5.8l2-.5c2.4,1.8,4.6,2.9,6.7,3.1,2.8.3,4-1.3,3.6-4.7,2.2,2.2,4.1,3.1,5.6,2.5,1.3-.6,1.7-1.7,1.2-3.3,2.5,1,7.5,1.9,14.8,2.7,8,.8,13.8.8,17.3-.1,6.6.5,16.8.8,30.5.8,2,2.2,3.8,3.2,5.4,2.7,1.6-.5,1.7-2.4.5-5.6" fill="#c6b342" fill-rule="evenodd"/>
</svg>