<svg xmlns="http://www.w3.org/2000/svg" width="1080" height="1350" viewBox="0 0 1080 1350" style="background-color: #edf2f7;">
<rect x="0" y="0" width="1080" height="1350" fill="#edf2f7"/>
<ellipse cx="70.99963906733302" cy="809.546243031298" rx="16.75083329194627" ry="12.530695684359294" fill="#a9a9a9"/>
<ellipse cx="81.43182987661842" cy="809.546243031298" rx="13.40066663355702" ry="6.265347842179647" fill="#a9a9a9"/>
<ellipse cx="60.62610419239368" cy="809.546243031298" rx="11.72558330436239" ry="5.012278273743719" fill="#a9a9a9"/>
<ellipse cx="491.6808094883714" cy="1079.2609339017704" rx="13.178881852957248" ry="7.063372592022059" fill="#a9a9a9"/>
<ellipse cx="502.7039699506877" cy="1079.2609339017704" rx="10.5431054823658" ry="3.5316862960110296" fill="#a9a9a9"/>
<ellipse cx="482.2229017400906" cy="1079.2609339017704" rx="9.225217297070074" ry="2.8253490368088237" fill="#a9a9a9"/>
<ellipse cx="480.62825225322894" cy="530.4227116193728" rx="15.5943437980956" ry="10.749460426892702" fill="#a9a9a9"/>
<ellipse cx="491.4151170900269" cy="530.4227116193728" rx="12.47547503847648" ry="5.374730213446351" fill="#a9a9a9"/>
<ellipse cx="470.82733613622946" cy="530.4227116193728" rx="10.916040658666919" ry="4.29978417075708" fill="#a9a9a9"/>
<ellipse cx="502.7946498351147" cy="147.80157215325235" rx="43.55918139196912" ry="24.512492585408694" fill="#a9a9a9"/>
<ellipse cx="524.2818516520014" cy="147.80157215325235" rx="34.847345113575294" ry="12.256246292704347" fill="#a9a9a9"/>
<ellipse cx="480.7636744263997" cy="147.80157215325235" rx="30.49142697437838" ry="9.804997034163478" fill="#a9a9a9"/>
<ellipse cx="426.0621752338774" cy="123.77514844936093" rx="42.90256338118515" ry="29.05658542742352" fill="#a9a9a9"/>
<ellipse cx="455.87824313275564" cy="123.77514844936093" rx="34.322050704948126" ry="14.52829271371176" fill="#a9a9a9"/>
<ellipse cx="396.8176711841487" cy="123.77514844936093" rx="30.031794366829608" ry="11.622634170969409" fill="#a9a9a9"/>
<ellipse cx="462.0056535964858" cy="606.2650683365134" rx="37.800399066660376" ry="19.88991839354717" fill="#a9a9a9"/>
<ellipse cx="482.915855656791" cy="606.2650683365134" rx="30.240319253328302" ry="9.944959196773585" fill="#a9a9a9"/>
<ellipse cx="442.68909577548254" cy="606.2650683365134" rx="26.46027934666226" ry="7.955967357418868" fill="#a9a9a9"/>
<ellipse cx="139.34236234954668" cy="788.5969702101299" rx="45.747485888463295" ry="16.641231880021746" fill="#a9a9a9"/>
<ellipse cx="162.18400382879076" cy="788.5969702101299" rx="36.597988710770636" ry="8.320615940010873" fill="#a9a9a9"/>
<ellipse cx="118.61274560702431" cy="788.5969702101299" rx="32.0232401219243" ry="6.656492752008699" fill="#a9a9a9"/>
<ellipse cx="28.52173627751029" cy="603.6223950812697" rx="18.19529065223249" ry="12.50092020507274" fill="#a9a9a9"/>
<ellipse cx="42.211118272941185" cy="603.6223950812697" rx="14.556232521785994" ry="6.25046010253637" fill="#a9a9a9"/>
<ellipse cx="17.227102312877296" cy="603.6223950812697" rx="12.736703456562742" ry="5.000368082029096" fill="#a9a9a9"/>
<ellipse cx="312.4596048856432" cy="1043.5623948665161" rx="30.904187916000947" ry="25.397792469712364" fill="#a9a9a9"/>
<ellipse cx="333.35574770054535" cy="1043.5623948665161" rx="24.72335033280076" ry="12.698896234856182" fill="#a9a9a9"/>
<ellipse cx="286.25477882923883" cy="1043.5623948665161" rx="21.63293154120066" ry="10.159116987884946" fill="#a9a9a9"/>
<ellipse cx="1015.4518248864691" cy="102.43597631456143" rx="31.829722739392604" ry="11.495457589738836" fill="#a9a9a9"/>
<ellipse cx="1032.0867903471483" cy="102.43597631456143" rx="25.463778191514084" ry="5.747728794869418" fill="#a9a9a9"/>
<ellipse cx="998.7108834713863" cy="102.43597631456143" rx="22.280805917574824" ry="4.598183035895534" fill="#a9a9a9"/>
<ellipse cx="895.3218628630609" cy="971.5074245685281" rx="25.266346290644538" ry="14.174182685962863" fill="#a9a9a9"/>
<ellipse cx="914.9924797140832" cy="971.5074245685281" rx="20.21307703251563" ry="7.087091342981432" fill="#a9a9a9"/>
<ellipse cx="874.3119227761548" cy="971.5074245685281" rx="17.686442403451174" ry="5.669673074385146" fill="#a9a9a9"/>
<ellipse cx="860.8165742460715" cy="460.90307257180245" rx="15.127521777750479" ry="10.417220026785731" fill="#a9a9a9"/>
<ellipse cx="870.7397880682619" cy="460.90307257180245" rx="12.102017422200385" ry="5.208610013392866" fill="#a9a9a9"/>
<ellipse cx="848.9769897560889" cy="460.90307257180245" rx="10.589265244425334" ry="4.166888010714293" fill="#a9a9a9"/>
<ellipse cx="851.9475819132979" cy="1204.7868674643278" rx="29.84045724104733" ry="12.114281269640435" fill="#a9a9a9"/>
<ellipse cx="866.5789416445696" cy="1204.7868674643278" rx="23.872365792837865" ry="6.057140634820217" fill="#a9a9a9"/>
<ellipse cx="834.8765055980015" cy="1204.7868674643278" rx="20.888320068733126" ry="4.845712507856175" fill="#a9a9a9"/>
<ellipse cx="799.3868531004464" cy="539.0790315992567" rx="8.183766088425543" ry="6.938346578859398" fill="#a9a9a9"/>
<ellipse cx="807.5070191386233" cy="539.0790315992567" rx="6.547012870740434" ry="3.469173289429699" fill="#a9a9a9"/>
<ellipse cx="792.2436944844113" cy="539.0790315992567" rx="5.728636261897879" ry="2.7753386315437596" fill="#a9a9a9"/>
<ellipse cx="943.0451204269403" cy="767.2053340669746" rx="30.473253525968733" ry="20.444150938060705" fill="#a9a9a9"/>
<ellipse cx="960.101481565782" cy="767.2053340669746" rx="24.378602820774987" ry="10.222075469030353" fill="#a9a9a9"/>
<ellipse cx="924.9654575986312" cy="767.2053340669746" rx="21.33127746817811" ry="8.177660375224281" fill="#a9a9a9"/>
<ellipse cx="863.6314775066596" cy="1010.4349141057743" rx="22.77905937418883" ry="20.609763228258522" fill="#a9a9a9"/>
<ellipse cx="883.9283849806668" cy="1010.4349141057743" rx="18.223247499351064" ry="10.304881614129261" fill="#a9a9a9"/>
<ellipse cx="845.4568676724201" cy="1010.4349141057743" rx="15.94534156193218" ry="8.24390529130341" fill="#a9a9a9"/>
<ellipse cx="884.0971399955904" cy="1073.042661451289" rx="42.607353696271794" ry="22.222274434403108" fill="#a9a9a9"/>
<ellipse cx="909.0561258249639" cy="1073.042661451289" rx="34.08588295701744" ry="11.111137217201554" fill="#a9a9a9"/>
<ellipse cx="854.4350863627154" cy="1073.042661451289" rx="29.825147587390255" ry="8.888909773761243" fill="#a9a9a9"/>
<ellipse cx="635.4852033106075" cy="1090.2914514254273" rx="26.78009010088244" ry="14.366532432561174" fill="#a9a9a9"/>
<ellipse cx="652.9999674547856" cy="1090.2914514254273" rx="21.424072080705955" ry="7.183266216280587" fill="#a9a9a9"/>
<ellipse cx="621.5076267986813" cy="1090.2914514254273" rx="18.74606307061771" ry="5.746612973024471" fill="#a9a9a9"/>
<ellipse cx="898.9136840584285" cy="332.8989388108714" rx="32.55859178262998" ry="12.45491205709705" fill="#a9a9a9"/>
<ellipse cx="921.0047768521961" cy="332.8989388108714" rx="26.046873426103982" ry="6.227456028548525" fill="#a9a9a9"/>
<ellipse cx="882.1253940763798" cy="332.8989388108714" rx="22.791014247840984" ry="4.981964822838821" fill="#a9a9a9"/>
<path d="M 0,675 L 10,670.0133997970439 L 20,665.2255996080529 L 30,660.8274739177846 L 40,656.994362118422 L 50,653.8790782813218 L 60,651.6058189422226 L 70,650.2652117772897 L 80,649.9107025636582 L 90,650.5564244649573 L 100,652.1766345866754 L 110,654.7067402641283 L 120,658.0458741681662 L 130,662.0609155672812 L 140,666.5917974310868 L 150,671.4578877976974 L 160,676.4651910000323 L 170,681.4140816608734 L 180,686.1072631267008 L 190,690.3576330626622 L 200,693.995742632229 L 210,696.8765518875811 L 220,698.8852120546269 L 230,699.9416441912 L 240,700.0037316817796 L 250,699.0689992940448 L 260,697.1747118585758 L 270,694.3963886376553 L 280,690.8447926105953 L 290,686.6615147032853 L 300,682.013329004793 L 310,677.0855440107191 L 320,672.0746149582526 L 330,667.1803117758142 L 340,662.597754886421 L 350,658.5096363721584 L 360,655.0789366173863 L 370,652.4424267951282 L 380,650.7052162320097 L 390,649.9365620310974 L 400,650.1671080097531 L 410,651.3876630273377 L 420,653.5495674069841 L 430,656.5666328433598 L 440,660.3185784584168 L 450,664.655826020432 L 460,669.4054631560838 L 470,674.3781368211207 L 480,679.3756022086968 L 490,684.1986261442235 L 500,688.6549298833232 L 510,692.566854658598 L 520,695.7784443740499 L 530,698.1616630824815" fill="none" stroke="#ff6464" stroke-width="3" opacity="0.59"/>
<path d="M 540,666.6816607690362 L 550,666.52008304845 L 560,666.6965728567968 L 570,667.2040941023636 L 580,668.0224135146653 L 590,669.11890728109 L 600,670.4498616553564 L 610,671.9622156866317 L 620,673.5956765921983 L 630,675.2851234404352 L 640,676.963203316861 L 650,678.5630164722899 L 660,680.0207834047172 L 670,681.2783875467968 L 680,682.2856921899831 L 690,683.002539276886 L 700,683.4003503762925 L 710,683.4632660150347 L 720,683.1887779451379 L 730,682.5878291397514 L 740,681.6843775313426 L 750,680.5144408845324 L 760,679.1246608814802 L 770,677.5704436652036 L 780,675.9137509714993 L 790,674.2206299100693 L 800,672.5585798746803 L 810,670.993861555341 L 820,669.5888553336894 L 830,668.3995743740292 L 840,667.4734315552288 L 850,666.8473492688613 L 860,666.5462874399673 L 870,666.582248453609 L 880,666.9537986576543 L 890,667.6461255179622 L 900,668.6316281473762 L 910,669.8710176659947 L 920,671.3148835248303 L 930,672.9056633484735 L 940,674.5799377653515 L 950,676.2709587379418 L 960,677.9113105963927 L 970,679.4355976885373 L 980,680.7830514981778 L 990,681.8999532940602 L 1000,682.7417757261703 L 1010,683.274957990664 L 1020,683.4782437932098 L 1030,683.3435287703659 L 1040,682.876183584975 L 1050,682.0948398147857 L 1060,681.0306471702428 L 1070,679.7260316538298" fill="none" stroke="#ff6464" stroke-width="3" opacity="0.59"/>
<ellipse cx="296.1803932377046" cy="989.2711584406305" rx="1.5" ry="1.5" fill="#6496ff" opacity="0.4843137254901961"/>
<ellipse cx="487.88109563658065" cy="1228.9203113079632" rx="1.5" ry="1.5" fill="#6496ff" opacity="0.4843137254901961"/>
<ellipse cx="434.797046387008" cy="864.0295926779647" rx="1.5" ry="1.5" fill="#6496ff" opacity="0.4843137254901961"/>
<ellipse cx="42.91523696990462" cy="1342.5696245127217" rx="1.5" ry="1.5" fill="#6496ff" opacity="0.4843137254901961"/>
<ellipse cx="333.5292150143204" cy="74.49953559529946" rx="1.5" ry="1.5" fill="#6496ff" opacity="0.4843137254901961"/>
<ellipse cx="274.62328625592556" cy="1135.7419794126145" rx="1.5" ry="1.5" fill="#6496ff" opacity="0.4843137254901961"/>
<ellipse cx="493.87460970034573" cy="122.43731623628983" rx="1.5" ry="1.5" fill="#6496ff" opacity="0.4843137254901961"/>
<ellipse cx="444.289378730715" cy="731.5533045360601" rx="1.5" ry="1.5" fill="#6496ff" opacity="0.4843137254901961"/>
<ellipse cx="483.90342258098696" cy="92.84681086095367" rx="1.5" ry="1.5" fill="#6496ff" opacity="0.4843137254901961"/>
<ellipse cx="214.79642103183846" cy="1224.2481177785658" rx="1.5" ry="1.5" fill="#6496ff" opacity="0.4843137254901961"/>
<ellipse cx="240.84526788482688" cy="283.1416548616912" rx="1.5" ry="1.5" fill="#6496ff" opacity="0.4843137254901961"/>
<ellipse cx="175.5664105040796" cy="577.4143698520094" rx="1.5" ry="1.5" fill="#6496ff" opacity="0.4843137254901961"/>
<ellipse cx="186.82233819124397" cy="1161.463022772904" rx="1.5" ry="1.5" fill="#6496ff" opacity="0.4843137254901961"/>
<ellipse cx="394.7420312812282" cy="995.6535820829" rx="1.5" ry="1.5" fill="#6496ff" opacity="0.4843137254901961"/>
<ellipse cx="182.28635796452238" cy="289.27559866070544" rx="1.5" ry="1.5" fill="#6496ff" opacity="0.4843137254901961"/>
<ellipse cx="371.9797487798984" cy="446.85993811435065" rx="1.5" ry="1.5" fill="#6496ff" opacity="0.4843137254901961"/>
<ellipse cx="283.7299276719475" cy="407.3645176400265" rx="1.5" ry="1.5" fill="#6496ff" opacity="0.4843137254901961"/>
<ellipse cx="151.40733010666787" cy="299.1393150292054" rx="1.5" ry="1.5" fill="#6496ff" opacity="0.4843137254901961"/>
<ellipse cx="483.95062409525303" cy="769.2353371387512" rx="1.5" ry="1.5" fill="#6496ff" opacity="0.4843137254901961"/>
<ellipse cx="532.0207073781736" cy="1335.287869598385" rx="1.5" ry="1.5" fill="#6496ff" opacity="0.4843137254901961"/>
<ellipse cx="531.6962673755811" cy="913.3330468616136" rx="1.5" ry="1.5" fill="#6496ff" opacity="0.4843137254901961"/>
<ellipse cx="261.90741074360324" cy="1048.6528520698905" rx="1.5" ry="1.5" fill="#6496ff" opacity="0.4843137254901961"/>
<ellipse cx="373.1985713789233" cy="392.7304388921384" rx="1.5" ry="1.5" fill="#6496ff" opacity="0.4843137254901961"/>
<ellipse cx="356.4852763882304" cy="873.1720093978439" rx="1.5" ry="1.5" fill="#6496ff" opacity="0.4843137254901961"/>
<ellipse cx="251.64789688384528" cy="785.5036858401744" rx="1.5" ry="1.5" fill="#6496ff" opacity="0.4843137254901961"/>
<ellipse cx="229.87539778923403" cy="1131.8433886076525" rx="1.5" ry="1.5" fill="#6496ff" opacity="0.4843137254901961"/>
<ellipse cx="479.75908778596624" cy="231.4477087144962" rx="1.5" ry="1.5" fill="#6496ff" opacity="0.4843137254901961"/>
<ellipse cx="47.13638486672956" cy="76.01189914905089" rx="1.5" ry="1.5" fill="#6496ff" opacity="0.4843137254901961"/>
<ellipse cx="409.3312581299484" cy="1127.7265732771375" rx="1.5" ry="1.5" fill="#6496ff" opacity="0.4843137254901961"/>
<ellipse cx="29.376046671241543" cy="911.1358751129061" rx="1.5" ry="1.5" fill="#6496ff" opacity="0.4843137254901961"/>
<ellipse cx="114.12614827702109" cy="395.4524921232147" rx="1.5" ry="1.5" fill="#6496ff" opacity="0.4843137254901961"/>
<ellipse cx="471.2034632969664" cy="757.1719948002939" rx="1.5" ry="1.5" fill="#6496ff" opacity="0.4843137254901961"/>
<ellipse cx="204.04360065424981" cy="1054.5225446366344" rx="1.5" ry="1.5" fill="#6496ff" opacity="0.4843137254901961"/>
<ellipse cx="84.33811430090019" cy="405.6515919070931" rx="1.5" ry="1.5" fill="#6496ff" opacity="0.4843137254901961"/>
<ellipse cx="407.82146949685244" cy="246.2934137537579" rx="1.5" ry="1.5" fill="#6496ff" opacity="0.4843137254901961"/>
<ellipse cx="537.5243588804847" cy="168.13620336732652" rx="1.5" ry="1.5" fill="#6496ff" opacity="0.4843137254901961"/>
<ellipse cx="386.3494797359917" cy="419.8931159544238" rx="1.5" ry="1.5" fill="#6496ff" opacity="0.4843137254901961"/>
<ellipse cx="444.19962665261687" cy="1315.539354698518" rx="1.5" ry="1.5" fill="#6496ff" opacity="0.4843137254901961"/>
<ellipse cx="332.5103189109407" cy="317.93189063571947" rx="1.5" ry="1.5" fill="#6496ff" opacity="0.4843137254901961"/>
<ellipse cx="329.9292345391257" cy="888.924891170545" rx="1.5" ry="1.5" fill="#6496ff" opacity="0.4843137254901961"/>
<ellipse cx="323.9532782155803" cy="730.3857389513338" rx="1.5" ry="1.5" fill="#6496ff" opacity="0.4843137254901961"/>
<ellipse cx="515.2302291408322" cy="1042.490584143666" rx="1.5" ry="1.5" fill="#6496ff" opacity="0.4843137254901961"/>
<ellipse cx="354.3198324899748" cy="1091.160446913522" rx="1.5" ry="1.5" fill="#6496ff" opacity="0.4843137254901961"/>
<ellipse cx="319.7535826264665" cy="368.4149803446676" rx="1.5" ry="1.5" fill="#6496ff" opacity="0.4843137254901961"/>
<ellipse cx="82.96336416293093" cy="169.13032390602416" rx="1.5" ry="1.5" fill="#6496ff" opacity="0.4843137254901961"/>
<ellipse cx="234.07332312039722" cy="677.2260996872681" rx="1.5" ry="1.5" fill="#6496ff" opacity="0.4843137254901961"/>
<ellipse cx="407.5181438436351" cy="40.37057163211078" rx="1.5" ry="1.5" fill="#6496ff" opacity="0.4843137254901961"/>
<ellipse cx="89.86461621237201" cy="425.62891264708196" rx="1.5" ry="1.5" fill="#6496ff" opacity="0.4843137254901961"/>
<ellipse cx="160.04818446936466" cy="85.69046262916665" rx="1.5" ry="1.5" fill="#6496ff" opacity="0.4843137254901961"/>
<ellipse cx="827.3450679925015" cy="744.0839949734901" rx="1.5" ry="1.5" fill="#ff9664" opacity="0.5078431372549019"/>
<ellipse cx="852.5596405531091" cy="453.6651315417444" rx="1.5" ry="1.5" fill="#ff9664" opacity="0.5078431372549019"/>
<ellipse cx="1019.2522790279484" cy="1055.1678841259181" rx="1.5" ry="1.5" fill="#ff9664" opacity="0.5078431372549019"/>
<ellipse cx="930.0554825691765" cy="476.21371172192215" rx="1.5" ry="1.5" fill="#ff9664" opacity="0.5078431372549019"/>
<ellipse cx="1067.3899056983132" cy="365.49325006338455" rx="1.5" ry="1.5" fill="#ff9664" opacity="0.5078431372549019"/>
<ellipse cx="640.6943321696922" cy="206.52283886751295" rx="1.5" ry="1.5" fill="#ff9664" opacity="0.5078431372549019"/>
<ellipse cx="749.9448359990236" cy="115.1680738270134" rx="1.5" ry="1.5" fill="#ff9664" opacity="0.5078431372549019"/>
<ellipse cx="618.4887153275724" cy="60.27969720786423" rx="1.5" ry="1.5" fill="#ff9664" opacity="0.5078431372549019"/>
<ellipse cx="920.7577176675004" cy="154.59437377499154" rx="1.5" ry="1.5" fill="#ff9664" opacity="0.5078431372549019"/>
<ellipse cx="1068.9994403203016" cy="695.2240708727502" rx="1.5" ry="1.5" fill="#ff9664" opacity="0.5078431372549019"/>
<ellipse cx="1056.7188551447907" cy="814.2575029350154" rx="1.5" ry="1.5" fill="#ff9664" opacity="0.5078431372549019"/>
<ellipse cx="650.4046154536328" cy="1336.7913416292479" rx="1.5" ry="1.5" fill="#ff9664" opacity="0.5078431372549019"/>
<ellipse cx="613.9826202737087" cy="197.67412403490124" rx="1.5" ry="1.5" fill="#ff9664" opacity="0.5078431372549019"/>
<ellipse cx="765.1857913589039" cy="1165.5696188870677" rx="1.5" ry="1.5" fill="#ff9664" opacity="0.5078431372549019"/>
<ellipse cx="640.7128715984118" cy="462.0631145602386" rx="1.5" ry="1.5" fill="#ff9664" opacity="0.5078431372549019"/>
<ellipse cx="672.7898812912357" cy="295.96508159114285" rx="1.5" ry="1.5" fill="#ff9664" opacity="0.5078431372549019"/>
<ellipse cx="608.5667413792419" cy="591.8369027747945" rx="1.5" ry="1.5" fill="#ff9664" opacity="0.5078431372549019"/>
<ellipse cx="784.5809305853122" cy="778.7510368874068" rx="1.5" ry="1.5" fill="#ff9664" opacity="0.5078431372549019"/>
<ellipse cx="1025.8584310886722" cy="471.1737873364118" rx="1.5" ry="1.5" fill="#ff9664" opacity="0.5078431372549019"/>
<ellipse cx="831.2026692792786" cy="161.8537188329984" rx="1.5" ry="1.5" fill="#ff9664" opacity="0.5078431372549019"/>
<ellipse cx="743.5977048629884" cy="1196.749574503279" rx="1.5" ry="1.5" fill="#ff9664" opacity="0.5078431372549019"/>
<ellipse cx="1058.669035676247" cy="929.1625325238158" rx="1.5" ry="1.5" fill="#ff9664" opacity="0.5078431372549019"/>
<ellipse cx="578.1533074556633" cy="562.2350918884553" rx="1.5" ry="1.5" fill="#ff9664" opacity="0.5078431372549019"/>
<ellipse cx="913.5925342392142" cy="1097.9612951623096" rx="1.5" ry="1.5" fill="#ff9664" opacity="0.5078431372549019"/>
<ellipse cx="606.9431734396811" cy="612.4265718331684" rx="1.5" ry="1.5" fill="#ff9664" opacity="0.5078431372549019"/>
<ellipse cx="1058.51698661154" cy="427.1273555360396" rx="1.5" ry="1.5" fill="#ff9664" opacity="0.5078431372549019"/>
<ellipse cx="828.4308315666536" cy="234.04564272335062" rx="1.5" ry="1.5" fill="#ff9664" opacity="0.5078431372549019"/>
<ellipse cx="1040.312313670438" cy="148.65145690210696" rx="1.5" ry="1.5" fill="#ff9664" opacity="0.5078431372549019"/>
<ellipse cx="862.6226396870904" cy="677.6629510697271" rx="1.5" ry="1.5" fill="#ff9664" opacity="0.5078431372549019"/>
<ellipse cx="671.5655065195474" cy="182.15938218969822" rx="1.5" ry="1.5" fill="#ff9664" opacity="0.5078431372549019"/>
<ellipse cx="709.0064138961054" cy="925.7222775955322" rx="1.5" ry="1.5" fill="#ff9664" opacity="0.5078431372549019"/>
<ellipse cx="734.8415423346877" cy="563.8043048623038" rx="1.5" ry="1.5" fill="#ff9664" opacity="0.5078431372549019"/>
<ellipse cx="928.9874698542931" cy="595.7667949589746" rx="1.5" ry="1.5" fill="#ff9664" opacity="0.5078431372549019"/>
<ellipse cx="978.3528186931986" cy="778.5372380067303" rx="1.5" ry="1.5" fill="#ff9664" opacity="0.5078431372549019"/>
<ellipse cx="916.2261630856553" cy="648.8771083992334" rx="1.5" ry="1.5" fill="#ff9664" opacity="0.5078431372549019"/>
<ellipse cx="626.65779594642" cy="251.11628037463703" rx="1.5" ry="1.5" fill="#ff9664" opacity="0.5078431372549019"/>
<ellipse cx="732.8297246400406" cy="1225.8790886150111" rx="1.5" ry="1.5" fill="#ff9664" opacity="0.5078431372549019"/>
<ellipse cx="813.3771373114442" cy="292.9033399992172" rx="1.5" ry="1.5" fill="#ff9664" opacity="0.5078431372549019"/>
<ellipse cx="700.0198764354083" cy="368.15974133469155" rx="1.5" ry="1.5" fill="#ff9664" opacity="0.5078431372549019"/>
<ellipse cx="547.5649237667978" cy="500.0999983866233" rx="1.5" ry="1.5" fill="#ff9664" opacity="0.5078431372549019"/>
<ellipse cx="734.855382533211" cy="688.947218977356" rx="1.5" ry="1.5" fill="#ff9664" opacity="0.5078431372549019"/>
<ellipse cx="995.1391770574912" cy="864.5477954598832" rx="1.5" ry="1.5" fill="#ff9664" opacity="0.5078431372549019"/>
<ellipse cx="930.7481362255048" cy="648.4823408762377" rx="1.5" ry="1.5" fill="#ff9664" opacity="0.5078431372549019"/>
<ellipse cx="974.7962739108114" cy="65.88208082405947" rx="1.5" ry="1.5" fill="#ff9664" opacity="0.5078431372549019"/>
<ellipse cx="991.1300416901382" cy="126.8412352198927" rx="1.5" ry="1.5" fill="#ff9664" opacity="0.5078431372549019"/>
<ellipse cx="837.8444357113187" cy="432.0354761704968" rx="1.5" ry="1.5" fill="#ff9664" opacity="0.5078431372549019"/>
<ellipse cx="605.1910043066325" cy="1239.333652537006" rx="1.5" ry="1.5" fill="#ff9664" opacity="0.5078431372549019"/>
<ellipse cx="891.7108585088099" cy="689.452708088538" rx="1.5" ry="1.5" fill="#ff9664" opacity="0.5078431372549019"/>
<ellipse cx="591.1836290597839" cy="1038.9956523845883" rx="1.5" ry="1.5" fill="#ff9664" opacity="0.5078431372549019"/>
<ellipse cx="584.4874835221505" cy="438.8046609418488" rx="1.5" ry="1.5" fill="#ff9664" opacity="0.5078431372549019"/>
<ellipse cx="720.3631497269325" cy="368.0211784169176" rx="1.5" ry="1.5" fill="#ff9664" opacity="0.5078431372549019"/>
<ellipse cx="590.7313442466461" cy="823.6276794335002" rx="1.5" ry="1.5" fill="#ff9664" opacity="0.5078431372549019"/>
<ellipse cx="914.2461134745954" cy="722.2683015848829" rx="1.5" ry="1.5" fill="#ff9664" opacity="0.5078431372549019"/>
<line x1="463.21425697915925" y1="1299.5590752454284" x2="576.4142569791593" y2="1299.5590752454284" stroke="#c8c8c8" stroke-width="1" opacity="0.39"/>
<line x1="197.45721110955682" y1="1132.7904766112522" x2="310.65721110955684" y2="1132.7904766112522" stroke="#c8c8c8" stroke-width="1" opacity="0.39"/>
<line x1="179.6959234120771" y1="143.10813552844718" x2="292.8959234120771" y2="143.10813552844718" stroke="#c8c8c8" stroke-width="1" opacity="0.39"/>
<line x1="26.254872691936267" y1="993.9938043216214" x2="139.45487269193626" y2="993.9938043216214" stroke="#c8c8c8" stroke-width="1" opacity="0.39"/>
<line x1="517.4743368651133" y1="1102.5237326987665" x2="630.6743368651133" y2="1102.5237326987665" stroke="#c8c8c8" stroke-width="1" opacity="0.39"/>
<line x1="476.34152434595933" y1="693.8323262584546" x2="589.5415243459594" y2="693.8323262584546" stroke="#c8c8c8" stroke-width="1" opacity="0.39"/>
<line x1="477.39621184645046" y1="981.2346701422867" x2="590.5962118464505" y2="981.2346701422867" stroke="#c8c8c8" stroke-width="1" opacity="0.39"/>
<line x1="48.138399146561696" y1="108.4808037190143" x2="161.3383991465617" y2="108.4808037190143" stroke="#c8c8c8" stroke-width="1" opacity="0.39"/>
<line x1="275.2193321079106" y1="545.9375741639815" x2="388.4193321079106" y2="545.9375741639815" stroke="#c8c8c8" stroke-width="1" opacity="0.39"/>
<line x1="511.09664463954823" y1="813.6443499539254" x2="624.2966446395483" y2="813.6443499539254" stroke="#c8c8c8" stroke-width="1" opacity="0.39"/>
<line x1="265.6706572816105" y1="7.279622558168891" x2="378.8706572816105" y2="7.279622558168891" stroke="#c8c8c8" stroke-width="1" opacity="0.39"/>
<line x1="326.82091705818704" y1="776.6285780708439" x2="440.020917058187" y2="776.6285780708439" stroke="#c8c8c8" stroke-width="1" opacity="0.39"/>
<line x1="201.90995702608953" y1="379.5835377553401" x2="315.10995702608955" y2="379.5835377553401" stroke="#c8c8c8" stroke-width="1" opacity="0.39"/>
<line x1="447.60167619567443" y1="348.69221465135564" x2="560.8016761956744" y2="348.69221465135564" stroke="#c8c8c8" stroke-width="1" opacity="0.39"/>
<line x1="360.5642081986015" y1="658.0818060124674" x2="473.76420819860147" y2="658.0818060124674" stroke="#c8c8c8" stroke-width="1" opacity="0.39"/>
<line x1="61.493353872324036" y1="531.7330646010735" x2="174.69335387232405" y2="531.7330646010735" stroke="#c8c8c8" stroke-width="1" opacity="0.39"/>
<line x1="113.84940867957165" y1="1334.1065040482704" x2="227.04940867957166" y2="1334.1065040482704" stroke="#c8c8c8" stroke-width="1" opacity="0.39"/>
<line x1="374.1514207674895" y1="757.6858524036062" x2="487.3514207674895" y2="757.6858524036062" stroke="#c8c8c8" stroke-width="1" opacity="0.39"/>
<line x1="103.54373936706396" y1="1306.6435268645378" x2="216.74373936706397" y2="1306.6435268645378" stroke="#c8c8c8" stroke-width="1" opacity="0.39"/>
<line x1="321.6618563242545" y1="1058.8175122900018" x2="434.86185632425446" y2="1058.8175122900018" stroke="#c8c8c8" stroke-width="1" opacity="0.39"/>
<line x1="16.364328868856806" y1="81.42787762052747" x2="129.56432886885682" y2="81.42787762052747" stroke="#c8c8c8" stroke-width="1" opacity="0.39"/>
<line x1="452.16450801685664" y1="530.4447593774855" x2="565.3645080168567" y2="530.4447593774855" stroke="#c8c8c8" stroke-width="1" opacity="0.39"/>
<line x1="232.33721505493727" y1="686.4501896716889" x2="345.5372150549373" y2="686.4501896716889" stroke="#c8c8c8" stroke-width="1" opacity="0.39"/>
<line x1="213.24623833095944" y1="118.85141735842983" x2="326.44623833095943" y2="118.85141735842983" stroke="#c8c8c8" stroke-width="1" opacity="0.39"/>
<line x1="13.527683621983828" y1="1198.6192032688386" x2="126.72768362198383" y2="1198.6192032688386" stroke="#c8c8c8" stroke-width="1" opacity="0.39"/>
<line x1="256.3989473583172" y1="450.26076457009685" x2="369.59894735831716" y2="450.26076457009685" stroke="#c8c8c8" stroke-width="1" opacity="0.39"/>
<line x1="358.8370157959112" y1="91.75842408638374" x2="472.0370157959112" y2="91.75842408638374" stroke="#c8c8c8" stroke-width="1" opacity="0.39"/>
<line x1="375.7424159607582" y1="831.8760756551642" x2="488.9424159607582" y2="831.8760756551642" stroke="#c8c8c8" stroke-width="1" opacity="0.39"/>
<line x1="3.5133504883914024" y1="1307.914567043965" x2="116.7133504883914" y2="1307.914567043965" stroke="#c8c8c8" stroke-width="1" opacity="0.39"/>
<line x1="327.4028350447318" y1="249.61055528820052" x2="440.60283504473176" y2="249.61055528820052" stroke="#c8c8c8" stroke-width="1" opacity="0.39"/>
<line x1="278.0745811565195" y1="425.79869647780373" x2="391.2745811565195" y2="425.79869647780373" stroke="#c8c8c8" stroke-width="1" opacity="0.39"/>
<line x1="418.23567171498934" y1="363.48175423381934" x2="531.4356717149893" y2="363.48175423381934" stroke="#c8c8c8" stroke-width="1" opacity="0.39"/>
<line x1="475.8361317943019" y1="280.8229388114172" x2="589.0361317943019" y2="280.8229388114172" stroke="#c8c8c8" stroke-width="1" opacity="0.39"/>
<line x1="251.9215626697622" y1="552.1376612373338" x2="365.1215626697622" y2="552.1376612373338" stroke="#c8c8c8" stroke-width="1" opacity="0.39"/>
<line x1="32.13088990754024" y1="829.6986986089958" x2="145.33088990754024" y2="829.6986986089958" stroke="#c8c8c8" stroke-width="1" opacity="0.39"/>
<line x1="158.13688523980645" y1="994.2101781229537" x2="271.33688523980646" y2="994.2101781229537" stroke="#c8c8c8" stroke-width="1" opacity="0.39"/>
<line x1="512.7853419784389" y1="755.6167427243744" x2="625.9853419784389" y2="755.6167427243744" stroke="#c8c8c8" stroke-width="1" opacity="0.39"/>
<line x1="134.12523514317593" y1="326.9632639023304" x2="247.32523514317592" y2="326.9632639023304" stroke="#c8c8c8" stroke-width="1" opacity="0.39"/>
<line x1="1.2691301113316464" y1="962.7349068935657" x2="114.46913011133165" y2="962.7349068935657" stroke="#c8c8c8" stroke-width="1" opacity="0.39"/>
<line x1="362.3992254037406" y1="1257.495332349788" x2="475.5992254037406" y2="1257.495332349788" stroke="#c8c8c8" stroke-width="1" opacity="0.39"/>
<line x1="187.26342209953043" y1="603.6920788715091" x2="300.4634220995304" y2="603.6920788715091" stroke="#c8c8c8" stroke-width="1" opacity="0.39"/>
<line x1="44.09783365395751" y1="814.8974109510414" x2="157.29783365395753" y2="814.8974109510414" stroke="#c8c8c8" stroke-width="1" opacity="0.39"/>
<line x1="530.7060172644938" y1="379.73577993909635" x2="643.9060172644938" y2="379.73577993909635" stroke="#c8c8c8" stroke-width="1" opacity="0.39"/>
<line x1="235.85320483700056" y1="1346.360994012263" x2="349.0532048370006" y2="1346.360994012263" stroke="#c8c8c8" stroke-width="1" opacity="0.39"/>
<line x1="509.61876892932634" y1="674.430299119293" x2="622.8187689293263" y2="674.430299119293" stroke="#c8c8c8" stroke-width="1" opacity="0.39"/>
<line x1="48.59673502323997" y1="1176.0042836777886" x2="161.79673502324" y2="1176.0042836777886" stroke="#c8c8c8" stroke-width="1" opacity="0.39"/>
<line x1="167.77816065017979" y1="1023.3009879585827" x2="280.9781606501798" y2="1023.3009879585827" stroke="#c8c8c8" stroke-width="1" opacity="0.39"/>
<line x1="484.01086114533757" y1="1076.863199973881" x2="597.2108611453376" y2="1076.863199973881" stroke="#c8c8c8" stroke-width="1" opacity="0.39"/>
<line x1="318.9229132230035" y1="693.7909665954257" x2="432.1229132230035" y2="693.7909665954257" stroke="#c8c8c8" stroke-width="1" opacity="0.39"/>
<line x1="389.9325301078766" y1="337.7348007344337" x2="503.13253010787656" y2="337.7348007344337" stroke="#c8c8c8" stroke-width="1" opacity="0.39"/>
<line x1="341.57706515005657" y1="49.81103541786365" x2="454.77706515005656" y2="49.81103541786365" stroke="#c8c8c8" stroke-width="1" opacity="0.39"/>
<line x1="430.90365370311946" y1="915.425169894204" x2="544.1036537031194" y2="915.425169894204" stroke="#c8c8c8" stroke-width="1" opacity="0.39"/>
<line x1="525.8290531699681" y1="216.93416843979347" x2="639.0290531699682" y2="216.93416843979347" stroke="#c8c8c8" stroke-width="1" opacity="0.39"/>
<line x1="469.2972012559405" y1="1301.528567681801" x2="582.4972012559405" y2="1301.528567681801" stroke="#c8c8c8" stroke-width="1" opacity="0.39"/>
<line x1="168.432061750643" y1="305.1694573392949" x2="281.632061750643" y2="305.1694573392949" stroke="#c8c8c8" stroke-width="1" opacity="0.39"/>
<line x1="530.1924654330093" y1="142.54310137710678" x2="643.3924654330093" y2="142.54310137710678" stroke="#c8c8c8" stroke-width="1" opacity="0.39"/>
<line x1="306.3911123510409" y1="786.1025158251183" x2="419.59111235104086" y2="786.1025158251183" stroke="#c8c8c8" stroke-width="1" opacity="0.39"/>
<line x1="676.7717385928946" y1="1030.3376023798892" x2="733.3717385928946" y2="1030.3376023798892" stroke="#c8c8c8" stroke-width="1" opacity="0.39"/>
<line x1="597.4039292602818" y1="30.319570019058684" x2="654.0039292602818" y2="30.319570019058684" stroke="#c8c8c8" stroke-width="1" opacity="0.39"/>
<line x1="808.9215247840255" y1="974.0784828430408" x2="865.5215247840255" y2="974.0784828430408" stroke="#c8c8c8" stroke-width="1" opacity="0.39"/>
<line x1="957.2919632947501" y1="1343.271893888373" x2="1013.8919632947501" y2="1343.271893888373" stroke="#c8c8c8" stroke-width="1" opacity="0.39"/>
<line x1="938.2359411186706" y1="1116.8480163052902" x2="994.8359411186706" y2="1116.8480163052902" stroke="#c8c8c8" stroke-width="1" opacity="0.39"/>
<line x1="626.7982578681774" y1="930.9387852116203" x2="683.3982578681774" y2="930.9387852116203" stroke="#c8c8c8" stroke-width="1" opacity="0.39"/>
<line x1="665.773994981206" y1="754.2166698510837" x2="722.373994981206" y2="754.2166698510837" stroke="#c8c8c8" stroke-width="1" opacity="0.39"/>
<line x1="810.4981185265342" y1="997.1280460232533" x2="867.0981185265342" y2="997.1280460232533" stroke="#c8c8c8" stroke-width="1" opacity="0.39"/>
<line x1="936.5363647400105" y1="59.298169640497385" x2="993.1363647400105" y2="59.298169640497385" stroke="#c8c8c8" stroke-width="1" opacity="0.39"/>
<line x1="927.368633331437" y1="442.5099315319722" x2="983.968633331437" y2="442.5099315319722" stroke="#c8c8c8" stroke-width="1" opacity="0.39"/>
<line x1="972.8220822442427" y1="116.89190273959744" x2="1029.4220822442426" y2="116.89190273959744" stroke="#c8c8c8" stroke-width="1" opacity="0.39"/>
<line x1="612.0576900579304" y1="353.4658761478336" x2="668.6576900579304" y2="353.4658761478336" stroke="#c8c8c8" stroke-width="1" opacity="0.39"/>
<line x1="993.9161863056552" y1="1168.2563071922661" x2="1050.516186305655" y2="1168.2563071922661" stroke="#c8c8c8" stroke-width="1" opacity="0.39"/>
<line x1="781.5005208186342" y1="286.7682696724163" x2="838.1005208186342" y2="286.7682696724163" stroke="#c8c8c8" stroke-width="1" opacity="0.39"/>
<line x1="587.3721188527402" y1="644.0274867434183" x2="643.9721188527402" y2="644.0274867434183" stroke="#c8c8c8" stroke-width="1" opacity="0.39"/>
<line x1="935.7849707062287" y1="282.0626021744975" x2="992.3849707062287" y2="282.0626021744975" stroke="#c8c8c8" stroke-width="1" opacity="0.39"/>
<line x1="799.5975942628447" y1="1102.4469678767246" x2="856.1975942628447" y2="1102.4469678767246" stroke="#c8c8c8" stroke-width="1" opacity="0.39"/>
<line x1="1015.7960917781089" y1="760.1769272052576" x2="1072.396091778109" y2="760.1769272052576" stroke="#c8c8c8" stroke-width="1" opacity="0.39"/>
<line x1="711.0547471842983" y1="698.9955249703469" x2="767.6547471842983" y2="698.9955249703469" stroke="#c8c8c8" stroke-width="1" opacity="0.39"/>
<line x1="572.9499077950371" y1="1290.597747867274" x2="629.5499077950371" y2="1290.597747867274" stroke="#c8c8c8" stroke-width="1" opacity="0.39"/>
<line x1="968.4074451534112" y1="1095.3760748241916" x2="1025.0074451534113" y2="1095.3760748241916" stroke="#c8c8c8" stroke-width="1" opacity="0.39"/>
<line x1="905.5556918892803" y1="1021.2518339144308" x2="962.1556918892803" y2="1021.2518339144308" stroke="#c8c8c8" stroke-width="1" opacity="0.39"/>
<line x1="573.6020708240578" y1="801.6343165196638" x2="630.2020708240578" y2="801.6343165196638" stroke="#c8c8c8" stroke-width="1" opacity="0.39"/>
<line x1="853.0723072556184" y1="957.5635854888538" x2="909.6723072556184" y2="957.5635854888538" stroke="#c8c8c8" stroke-width="1" opacity="0.39"/>
<line x1="1000.7043530702147" y1="1335.2696842212556" x2="1057.3043530702146" y2="1335.2696842212556" stroke="#c8c8c8" stroke-width="1" opacity="0.39"/>
<line x1="1035.340576402536" y1="781.8772319619903" x2="1091.940576402536" y2="781.8772319619903" stroke="#c8c8c8" stroke-width="1" opacity="0.39"/>
<line x1="654.6746063766417" y1="80.18564436593356" x2="711.2746063766417" y2="80.18564436593356" stroke="#c8c8c8" stroke-width="1" opacity="0.39"/>
<line x1="618.7037051090522" y1="963.4589870290174" x2="675.3037051090522" y2="963.4589870290174" stroke="#c8c8c8" stroke-width="1" opacity="0.39"/>
<line x1="709.479410727266" y1="1110.1704423828844" x2="766.079410727266" y2="1110.1704423828844" stroke="#c8c8c8" stroke-width="1" opacity="0.39"/>
<rect x="616.7949286041759" y="1176.7661100191838" width="34.65100527491933" height="26.289459992179577" fill="#6c818b" opacity="0.2742503625065633"/>
<rect x="604.7508624078478" y="928.1274227696133" width="33.086104399099064" height="27.58929865838878" fill="#78b269" opacity="0.29850733171731997"/>
<rect x="1057.58622219208" y="767.7137569234305" width="34.9972820351819" height="35.49633681844891" fill="#ed94ab" opacity="0.22118177605756603"/>
<rect x="1046.6189627799292" y="801.1488155327498" width="27.484235767034924" height="14.18458430124458" fill="#ba7973" opacity="0.12500578399140694"/>
<line x1="8.152585033398394" y1="432.9135593180142" x2="761.7515233726016" y2="790.2610126837442" stroke="#bbb3b5" stroke-width="1.9018638138202317" opacity="0.26833355665722797"/>
<line x1="540.5632641448469" y1="741.2879530067034" x2="637.461648284207" y2="671.10977800149" stroke="#9a969e" stroke-width="1.5476744177507582" opacity="0.33425300503557676"/>
<line x1="541.6424133915652" y1="697.324723330012" x2="601.4022019325766" y2="425.16719718704337" stroke="#c5c7b0" stroke-width="1.319333374648976" opacity="0.16961351096055133"/>
<line x1="539.1137769348518" y1="150.1413703663933" x2="781.8893662755794" y2="383.389753281786" stroke="#d296d0" stroke-width="1.968574762795388" opacity="0.3021270060748198"/>
<line x1="91.4031172224335" y1="710.6435406536998" x2="965.5746464457245" y2="1152.7173047665121" stroke="#b5ce9d" stroke-width="1.420576930241928" opacity="0.18188492224493422"/>
<line x1="0.6269609931050618" y1="66.99476401181649" x2="950.2387087001646" y2="1339.322609333006" stroke="#dfe5fe" stroke-width="2.055000365271699" opacity="0.2078930724138517"/>
<line x1="8.517193798216615" y1="1145.7262694582932" x2="324.3713809570164" y2="701.3670268940587" stroke="#9edab4" stroke-width="1.5760359766781498" opacity="0.32252063010954896"/>
<line x1="883.8773063960845" y1="29.285538210200862" x2="606.3565061829781" y2="657.8429821216702" stroke="#ffacd1" stroke-width="1.8850873116800035" opacity="0.1870233405010573"/>
<line x1="615.6794932371375" y1="580.8576824985713" x2="531.2550547212619" y2="1344.0435654223168" stroke="#c8dadc" stroke-width="1.3560896517504424" opacity="0.16424743802283598"/>
<line x1="599.6072891166468" y1="256.53966677214004" x2="878.7661210814333" y2="1289.1464179796849" stroke="#d5c8a8" stroke-width="1.6271677020132391" opacity="0.22768499106544868"/>
<line x1="11.317806249166749" y1="112.62770840554857" x2="1021.6559194315486" y2="540.2740361822182" stroke="#a0f4cd" stroke-width="1.027280092252083" opacity="0.23793698295927865"/>
<line x1="902.4336290091434" y1="535.6769981494532" x2="262.80065071899475" y2="961.6165106006044" stroke="#d8a7df" stroke-width="1.3640690447595292" opacity="0.19762413176396415"/>
<line x1="506.33490824435603" y1="1128.927210499033" x2="400.7194520908964" y2="1080.5525784755837" stroke="#d2fec4" stroke-width="2.046264648924705" opacity="0.33502122475935553"/>
<ellipse cx="283.5337830910151" cy="459.7083093876523" rx="2.3916244513316194" ry="2.3916244513316194" fill="#d4f8cb" opacity="0.12653902934949526"/>
<ellipse cx="735.4094413367144" cy="717.628777361302" rx="1.0003368854524273" ry="1.0003368854524273" fill="#dfd9ed" opacity="0.11528897754665152"/>
<ellipse cx="337.08701507052734" cy="1210.8260219967115" rx="2.0975195174559573" ry="2.0975195174559573" fill="#e6f2ec" opacity="0.231332947297332"/>
<ellipse cx="901.2196545029151" cy="768.1265119314783" rx="2.5785679824550485" ry="2.5785679824550485" fill="#dcf3fe" opacity="0.2302158580813649"/>
<ellipse cx="98.94029621916837" cy="464.7905992645726" rx="1.738466859207706" ry="1.738466859207706" fill="#f9e4ef" opacity="0.08106289658014505"/>
<ellipse cx="960.3294324876413" cy="1198.5468691208152" rx="1.5687924626138026" ry="1.5687924626138026" fill="#f5e5ec" opacity="0.1729867599030037"/>
<ellipse cx="143.65456587805159" cy="733.092503591018" rx="3.958229423946808" ry="3.958229423946808" fill="#c8eeee" opacity="0.13272820269551217"/>
<ellipse cx="201.20687494110635" cy="791.1656547296632" rx="3.017879129395764" ry="3.017879129395764" fill="#d7f7e5" opacity="0.20533571062200615"/>
<ellipse cx="864.4259695263701" cy="1227.5790995115317" rx="1.6078797581642306" ry="1.6078797581642306" fill="#ecd9e1" opacity="0.18452330201545297"/>
<ellipse cx="1031.5428261792022" cy="636.3346698863128" rx="2.143570185240158" ry="2.143570185240158" fill="#d2d7cf" opacity="0.18596554274985094"/>
<ellipse cx="284.7197915449365" cy="270.9479571650494" rx="3.431147189080318" ry="3.431147189080318" fill="#d6f6dd" opacity="0.1568780600221205"/>
<ellipse cx="378.8603069162277" cy="365.9494938170302" rx="2.086856484919254" ry="2.086856484919254" fill="#e7ddf2" opacity="0.19301737996369644"/>
<ellipse cx="179.79370602396955" cy="975.1442183624694" rx="3.7455770982175958" ry="3.7455770982175958" fill="#e9e9d5" opacity="0.08881763851425026"/>
<ellipse cx="16.46217585376565" cy="1315.0602132617776" rx="2.3368179804351263" ry="2.3368179804351263" fill="#f6eedf" opacity="0.08095771191284538"/>
<ellipse cx="275.0126263289771" cy="325.2520681942124" rx="2.8954785773043885" ry="2.8954785773043885" fill="#d4e2fd" opacity="0.1598996181493413"/>
<ellipse cx="949.9031643522452" cy="960.4099993409635" rx="3.288178921811366" ry="3.288178921811366" fill="#e0d5f4" opacity="0.12413411984047433"/>
<ellipse cx="526.763234383782" cy="771.6662231700805" rx="3.0516263256089884" ry="3.0516263256089884" fill="#e0fcd8" opacity="0.085076631287322"/>
<ellipse cx="51.95974233185861" cy="353.4797163463569" rx="1.2329947353494328" ry="1.2329947353494328" fill="#cee8df" opacity="0.15741438027862217"/>
<ellipse cx="990.1120953402072" cy="1097.5438361510373" rx="1.9654908184732733" ry="1.9654908184732733" fill="#d3fbcf" opacity="0.16505213816319372"/>
<ellipse cx="885.5226806949464" cy="906.3852672029218" rx="2.4134919649984186" ry="2.4134919649984186" fill="#f3fad3" opacity="0.11052857662274408"/>
<ellipse cx="815.0836018543149" cy="521.1381914658184" rx="3.3699398051807377" ry="3.3699398051807377" fill="#d2f0ff" opacity="0.2243236467629425"/>
<ellipse cx="680.2157595940939" cy="114.75648885348649" rx="3.674518675857465" ry="3.674518675857465" fill="#d1ebed" opacity="0.23449329308689917"/>
<ellipse cx="35.6510639356687" cy="1218.9581444575256" rx="1.9987119440914654" ry="1.9987119440914654" fill="#dddcc9" opacity="0.18791844277244427"/>
</svg>