<svg xmlns="http://www.w3.org/2000/svg" width="1080" height="1350" viewBox="0 0 1080 1350">
<rect x="0" y="0" width="1080" height="1350" fill="#dbe0e4"/>
<ellipse cx="536.6805412884245" cy="577.1263006036758" rx="17.659665321851868" ry="7.5438532411967465" fill="#a9a9a9"/>
<ellipse cx="545.9197684203843" cy="577.1263006036758" rx="14.127732257481496" ry="3.7719266205983732" fill="#a9a9a9"/>
<ellipse cx="525.391802576263" cy="577.1263006036758" rx="12.361765725296305" ry="3.017541296478699" fill="#a9a9a9"/>
<ellipse cx="331.15546003503516" cy="1058.7090437573888" rx="40.31607074800858" ry="27.927444727419505" fill="#a9a9a9"/>
<ellipse cx="350.3212500533941" cy="1058.7090437573888" rx="32.252856598406865" ry="13.963722363709753" fill="#a9a9a9"/>
<ellipse cx="306.6489385829309" cy="1058.7090437573888" rx="28.221249523606" ry="11.170977890967803" fill="#a9a9a9"/>
<ellipse cx="264.4427419940209" cy="960.2978293599086" rx="30.97104865588987" ry="23.898440117005908" fill="#a9a9a9"/>
<ellipse cx="286.8872270929808" cy="960.2978293599086" rx="24.776838924711896" ry="11.949220058502954" fill="#a9a9a9"/>
<ellipse cx="234.98725827243075" cy="960.2978293599086" rx="21.679734059122907" ry="9.559376046802363" fill="#a9a9a9"/>
<ellipse cx="77.3128939034943" cy="1344.620709747365" rx="9.434286247739887" ry="6.2158620929769395" fill="#a9a9a9"/>
<ellipse cx="86.46079979292116" cy="1344.620709747365" rx="7.5474289981919105" ry="3.1079310464884697" fill="#a9a9a9"/>
<ellipse cx="71.13675297292437" cy="1344.620709747365" rx="6.60400037341792" ry="2.486344837190776" fill="#a9a9a9"/>
<ellipse cx="76.1549661663151" cy="719.6442965043915" rx="9.567573294792954" ry="6.800990985507906" fill="#a9a9a9"/>
<ellipse cx="83.75843578989534" cy="719.6442965043915" rx="7.654058635834363" ry="3.400495492753953" fill="#a9a9a9"/>
<ellipse cx="69.84122029128126" cy="719.6442965043915" rx="6.697301306355067" ry="2.7203963942031626" fill="#a9a9a9"/>
<ellipse cx="3.486973644926666" cy="885.7526643601026" rx="14.286303429850978" ry="6.595762434097932" fill="#a9a9a9"/>
<ellipse cx="13.111493951322487" cy="885.7526643601026" rx="11.429042743880784" ry="3.297881217048966" fill="#a9a9a9"/>
<ellipse cx="-4.707522798920044" cy="885.7526643601026" rx="10.000412400895685" ry="2.638304973639173" fill="#a9a9a9"/>
<ellipse cx="50.28465988593393" cy="319.8291645943323" rx="42.118979975767004" ry="21.824484397873647" fill="#a9a9a9"/>
<ellipse cx="74.39752455899604" cy="319.8291645943323" rx="33.695183980613606" ry="10.912242198936823" fill="#a9a9a9"/>
<ellipse cx="23.30882951511565" cy="319.8291645943323" rx="29.4832859830369" ry="8.729793759149459" fill="#a9a9a9"/>
<ellipse cx="369.2035819819214" cy="939.8502235020745" rx="29.40795857412782" ry="18.497671754740075" fill="#a9a9a9"/>
<ellipse cx="389.8142947987285" cy="939.8502235020745" rx="23.52636685930226" ry="9.248835877370038" fill="#a9a9a9"/>
<ellipse cx="353.7874277116109" cy="939.8502235020745" rx="20.585571001889473" ry="7.399068701896031" fill="#a9a9a9"/>
<ellipse cx="479.10275660413447" cy="969.9901525722771" rx="14.129081898792112" ry="10.42400549771759" fill="#a9a9a9"/>
<ellipse cx="489.0659394792828" cy="969.9901525722771" rx="11.30326551903369" ry="5.212002748858795" fill="#a9a9a9"/>
<ellipse cx="467.5249544144194" cy="969.9901525722771" rx="9.890357329154478" ry="4.169602199087037" fill="#a9a9a9"/>
<ellipse cx="60.25288584653888" cy="1339.85420974896" rx="30.857797837418673" ry="14.980848217884061" fill="#a9a9a9"/>
<ellipse cx="83.32417273206332" cy="1339.85420974896" rx="24.68623826993494" ry="7.4904241089420305" fill="#a9a9a9"/>
<ellipse cx="37.179843520669536" cy="1339.85420974896" rx="21.60045848619307" ry="5.992339287153625" fill="#a9a9a9"/>
<ellipse cx="657.7078307223077" cy="1093.6579187836767" rx="30.467219317135445" ry="25.84258448387612" fill="#a9a9a9"/>
<ellipse cx="684.2024496066462" cy="1093.6579187836767" rx="24.373775453708358" ry="12.92129224193806" fill="#a9a9a9"/>
<ellipse cx="635.8081394705583" cy="1093.6579187836767" rx="21.327053521994813" ry="10.337033793550448" fill="#a9a9a9"/>
<ellipse cx="569.5331812042432" cy="592.6421689766655" rx="11.409343333563237" ry="9.386374778207694" fill="#a9a9a9"/>
<ellipse cx="576.7755999904078" cy="592.6421689766655" rx="9.12747466685059" ry="4.693187389103847" fill="#a9a9a9"/>
<ellipse cx="561.4963878249056" cy="592.6421689766655" rx="7.986540333494265" ry="3.754549911283078" fill="#a9a9a9"/>
<ellipse cx="775.1199318073317" cy="379.83571904703774" rx="30.334653343080753" ry="20.72401235037005" fill="#a9a9a9"/>
<ellipse cx="789.2995617869843" cy="379.83571904703774" rx="24.267722674464604" ry="10.362006175185025" fill="#a9a9a9"/>
<ellipse cx="757.1193116738697" cy="379.83571904703774" rx="21.234257340156525" ry="8.28960494014802" fill="#a9a9a9"/>
<ellipse cx="895.5754925476274" cy="1129.9403613107002" rx="33.300134660175964" ry="15.556395879924581" fill="#a9a9a9"/>
<ellipse cx="913.9795374635701" cy="1129.9403613107002" rx="26.640107728140773" ry="7.778197939962291" fill="#a9a9a9"/>
<ellipse cx="870.591457721719" cy="1129.9403613107002" rx="23.310094262123172" ry="6.222558351969833" fill="#a9a9a9"/>
<ellipse cx="817.2272230485581" cy="551.6128602212355" rx="30.603073296945972" ry="15.796172838721084" fill="#a9a9a9"/>
<ellipse cx="844.0529835481715" cy="551.6128602212355" rx="24.48245863755678" ry="7.898086419360542" fill="#a9a9a9"/>
<ellipse cx="794.1708405794138" cy="551.6128602212355" rx="21.422151307862176" ry="6.318469135488434" fill="#a9a9a9"/>
<ellipse cx="1070.5724432554898" cy="741.7284253713342" rx="37.31288719990504" ry="25.536466891990656" fill="#a9a9a9"/>
<ellipse cx="1100.6431334609974" cy="741.7284253713342" rx="29.850309759924038" ry="12.768233445995328" fill="#a9a9a9"/>
<ellipse cx="1041.126436469138" cy="741.7284253713342" rx="26.11902103993353" ry="10.214586756796264" fill="#a9a9a9"/>
<ellipse cx="924.9472905997873" cy="351.2571574893115" rx="32.057493732943946" ry="20.424402874995145" fill="#a9a9a9"/>
<ellipse cx="946.8881718299634" cy="351.2571574893115" rx="25.645994986355163" ry="10.212201437497573" fill="#a9a9a9"/>
<ellipse cx="895.6883876446483" cy="351.2571574893115" rx="22.44024561306076" ry="8.169761149998058" fill="#a9a9a9"/>
<ellipse cx="863.8484145718852" cy="1056.8610553894475" rx="28.43426179077625" ry="21.899649506888185" fill="#a9a9a9"/>
<ellipse cx="880.3699107961858" cy="1056.8610553894475" rx="22.747409432621" ry="10.949824753444092" fill="#a9a9a9"/>
<ellipse cx="846.3352900615877" cy="1056.8610553894475" rx="19.903983253543373" ry="8.759859802755274" fill="#a9a9a9"/>
<ellipse cx="823.6314369568747" cy="1243.556804043966" rx="27.58522368350522" ry="15.123925571778834" fill="#a9a9a9"/>
<ellipse cx="846.7737154220277" cy="1243.556804043966" rx="22.068178946804178" ry="7.561962785889417" fill="#a9a9a9"/>
<ellipse cx="801.2715811299453" cy="1243.556804043966" rx="19.30965657845365" ry="6.049570228711534" fill="#a9a9a9"/>
<path d="M 0,675 L 10,671.2848835141324 L 20,667.7178769988283 L 30,664.4411857475128 L 40,661.585441100179 L 50,659.2644925840923 L 60,657.5708690924129 L 70,656.5720900492158 L 80,656.3079736231239 L 90,656.7890493025777 L 100,657.9961381183598 L 110,659.8811172485737 L 120,662.3688385236935 L 130,665.3601243469386 L 140,668.7357215920846 L 150,672.3610558492804 L 160,676.0915964820957 L 170,679.7786186079018 L 180,683.2751322896138 L 190,686.4417425606289 L 200,689.1522066622582 L 210,691.2984669441341 L 220,692.794958781734 L 230,693.5820217679458 L 240,693.6282781852302 L 250,692.9318839362007 L 260,691.5206020619669 L 270,689.4506959172969 L 280,686.8046861282124 L 290,683.6880607550372 L 300,680.2250698163199 L 310,676.5537718326872 L 320,672.8205298692958 L 330,669.1741765022998 L 340,665.7600803337081 L 350,662.7143506039587 L 360,660.1584109460208 L 370,658.1941586083226 L 380,656.8999021330112 L 390,656.3272394414948 L 400,656.4990007881428 L 410,657.4083385900882 L 420,659.0190004187491 L 430,661.266774269754 L 440,664.0620484929241 L 450,667.2933843259791 L 460,670.8319586063254 L 470,674.5366995440222 L 480,678.2599108088697 L 490,681.8531597170111 L 500,685.1731947736312 L 510,688.0876566579992 L 520,690.4803549719018 L 530,692.2559003841595" fill="none" stroke="#ff6464" stroke-width="3" opacity="0.59"/>
<path d="M 540,664.8767381057138 L 550,664.6801010683968 L 560,664.8948858351584 L 570,665.5125296151406 L 580,666.5084088999229 L 590,667.8428211251 L 600,669.4625674862355 L 610,671.303073807316 L 620,673.2909649093734 L 630,675.3469898473221 L 640,677.3891813950479 L 650,679.336123820051 L 660,681.1101986717786 L 670,682.6406791843093 L 680,683.866549929319 L 690,684.7389393086631 L 700,685.2230679107711 L 710,685.2996350560328 L 720,684.9655882539886 L 730,684.23424489649 L 740,683.1347613353132 L 750,681.7109705104215 L 760,680.0196344689712 L 770,678.1281814416157 L 780,676.1120176917302 L 790,674.0515213056503 L 800,672.0288377720166 L 810,670.1246051003678 L 820,668.4147390381692 L 830,666.967406549526 L 840,665.8403082134389 L 850,665.078377883803 L 860,664.7119913184507 L 870,664.7557551935431 L 880,665.207924781485 L 890,666.0504735077088 L 900,667.2498116133163 L 910,668.7581252727672 L 920,670.5152827802181 L 930,672.4512318108781 L 940,674.4887921861352 L 950,676.5467328037216 L 960,678.5430100654213 L 970,680.3980386964274 L 980,682.0378645591031 L 990,683.3971129710733 L 1000,684.4215949875091 L 1010,685.0704677433552 L 1020,685.3178627294724 L 1030,685.1539170884641 L 1040,684.5851668156771 L 1050,683.6342861896921 L 1060,682.3391838203897 L 1070,680.7514913523022" fill="none" stroke="#ff6464" stroke-width="3" opacity="0.59"/>
<ellipse cx="361.3366200222339" cy="214.08099542096303" rx="1.5" ry="1.5" fill="#6496ff" opacity="0.5196078431372549"/>
<ellipse cx="480.72283230755613" cy="209.85860834357263" rx="1.5" ry="1.5" fill="#6496ff" opacity="0.5196078431372549"/>
<ellipse cx="397.51420695218917" cy="428.90115400259435" rx="1.5" ry="1.5" fill="#6496ff" opacity="0.5196078431372549"/>
<ellipse cx="307.8265501502094" cy="1120.8376949284402" rx="1.5" ry="1.5" fill="#6496ff" opacity="0.5196078431372549"/>
<ellipse cx="39.29682971876898" cy="836.6012562236755" rx="1.5" ry="1.5" fill="#6496ff" opacity="0.5196078431372549"/>
<ellipse cx="519.6340515649105" cy="1039.941251762184" rx="1.5" ry="1.5" fill="#6496ff" opacity="0.5196078431372549"/>
<ellipse cx="375.82885282851237" cy="535.0070359814014" rx="1.5" ry="1.5" fill="#6496ff" opacity="0.5196078431372549"/>
<ellipse cx="345.13064877369004" cy="402.9007317511834" rx="1.5" ry="1.5" fill="#6496ff" opacity="0.5196078431372549"/>
<ellipse cx="120.82313066386763" cy="1185.3032877600301" rx="1.5" ry="1.5" fill="#6496ff" opacity="0.5196078431372549"/>
<ellipse cx="73.0951094967756" cy="517.6957237150966" rx="1.5" ry="1.5" fill="#6496ff" opacity="0.5196078431372549"/>
<ellipse cx="149.95977408716445" cy="1112.2150903158893" rx="1.5" ry="1.5" fill="#6496ff" opacity="0.5196078431372549"/>
<ellipse cx="444.446239678397" cy="299.1323949299438" rx="1.5" ry="1.5" fill="#6496ff" opacity="0.5196078431372549"/>
<ellipse cx="149.93919081517456" cy="1276.1594837886094" rx="1.5" ry="1.5" fill="#6496ff" opacity="0.5196078431372549"/>
<ellipse cx="402.5182272878095" cy="1089.0902107065033" rx="1.5" ry="1.5" fill="#6496ff" opacity="0.5196078431372549"/>
<ellipse cx="434.1006590957291" cy="884.0479914490357" rx="1.5" ry="1.5" fill="#6496ff" opacity="0.5196078431372549"/>
<ellipse cx="308.54701294961717" cy="326.4167369932014" rx="1.5" ry="1.5" fill="#6496ff" opacity="0.5196078431372549"/>
<ellipse cx="370.9708304940587" cy="874.6976498862252" rx="1.5" ry="1.5" fill="#6496ff" opacity="0.5196078431372549"/>
<ellipse cx="286.26152528741466" cy="511.2965228554311" rx="1.5" ry="1.5" fill="#6496ff" opacity="0.5196078431372549"/>
<ellipse cx="449.491925448874" cy="1315.6528121399008" rx="1.5" ry="1.5" fill="#6496ff" opacity="0.5196078431372549"/>
<ellipse cx="458.97690317545874" cy="502.8971316772034" rx="1.5" ry="1.5" fill="#6496ff" opacity="0.5196078431372549"/>
<ellipse cx="225.6612826444494" cy="721.1190823098268" rx="1.5" ry="1.5" fill="#6496ff" opacity="0.5196078431372549"/>
<ellipse cx="287.5016070751015" cy="654.1016224092346" rx="1.5" ry="1.5" fill="#6496ff" opacity="0.5196078431372549"/>
<ellipse cx="328.6848880391032" cy="558.4304454542838" rx="1.5" ry="1.5" fill="#6496ff" opacity="0.5196078431372549"/>
<ellipse cx="297.5973559811699" cy="459.9783541913975" rx="1.5" ry="1.5" fill="#6496ff" opacity="0.5196078431372549"/>
<ellipse cx="73.54321006384828" cy="1134.764676324448" rx="1.5" ry="1.5" fill="#6496ff" opacity="0.5196078431372549"/>
<ellipse cx="51.364581608848916" cy="1030.0502170948546" rx="1.5" ry="1.5" fill="#6496ff" opacity="0.5196078431372549"/>
<ellipse cx="0.17329216011487514" cy="851.0995035064869" rx="1.5" ry="1.5" fill="#6496ff" opacity="0.5196078431372549"/>
<ellipse cx="217.59894858002613" cy="1305.541742455932" rx="1.5" ry="1.5" fill="#6496ff" opacity="0.5196078431372549"/>
<ellipse cx="225.2485228633734" cy="844.2987803576043" rx="1.5" ry="1.5" fill="#6496ff" opacity="0.5196078431372549"/>
<ellipse cx="70.27022841864742" cy="1133.7585260783128" rx="1.5" ry="1.5" fill="#6496ff" opacity="0.5196078431372549"/>
<ellipse cx="37.42318870379738" cy="829.8121560503786" rx="1.5" ry="1.5" fill="#6496ff" opacity="0.5196078431372549"/>
<ellipse cx="284.6034051313081" cy="437.66312619562405" rx="1.5" ry="1.5" fill="#6496ff" opacity="0.5196078431372549"/>
<ellipse cx="262.5353051454459" cy="459.5551016086503" rx="1.5" ry="1.5" fill="#6496ff" opacity="0.5196078431372549"/>
<ellipse cx="302.6113702275843" cy="1152.4508004786683" rx="1.5" ry="1.5" fill="#6496ff" opacity="0.5196078431372549"/>
<ellipse cx="379.3872644283749" cy="1151.5186792013787" rx="1.5" ry="1.5" fill="#6496ff" opacity="0.5196078431372549"/>
<ellipse cx="183.7077141663561" cy="80.69672588291425" rx="1.5" ry="1.5" fill="#6496ff" opacity="0.5196078431372549"/>
<ellipse cx="396.7690249144887" cy="1332.6017445570799" rx="1.5" ry="1.5" fill="#6496ff" opacity="0.5196078431372549"/>
<ellipse cx="79.02585986956295" cy="36.727421002801236" rx="1.5" ry="1.5" fill="#6496ff" opacity="0.5196078431372549"/>
<ellipse cx="386.9036811156681" cy="997.3636512632313" rx="1.5" ry="1.5" fill="#6496ff" opacity="0.5196078431372549"/>
<ellipse cx="466.1349251056718" cy="1103.787696875533" rx="1.5" ry="1.5" fill="#6496ff" opacity="0.5196078431372549"/>
<ellipse cx="451.36003038443624" cy="1002.3847465414483" rx="1.5" ry="1.5" fill="#6496ff" opacity="0.5196078431372549"/>
<ellipse cx="19.54686642603337" cy="457.662897025078" rx="1.5" ry="1.5" fill="#6496ff" opacity="0.5196078431372549"/>
<ellipse cx="81.14791635477353" cy="889.4537557333027" rx="1.5" ry="1.5" fill="#6496ff" opacity="0.5196078431372549"/>
<ellipse cx="206.8619156847065" cy="404.2058946584379" rx="1.5" ry="1.5" fill="#6496ff" opacity="0.5196078431372549"/>
<ellipse cx="426.7004015048502" cy="422.400284010172" rx="1.5" ry="1.5" fill="#6496ff" opacity="0.5196078431372549"/>
<ellipse cx="472.20233939224966" cy="753.416633956794" rx="1.5" ry="1.5" fill="#6496ff" opacity="0.5196078431372549"/>
<ellipse cx="108.30425267494482" cy="623.7076210899779" rx="1.5" ry="1.5" fill="#6496ff" opacity="0.5196078431372549"/>
<ellipse cx="309.99231591354703" cy="560.4107203709011" rx="1.5" ry="1.5" fill="#6496ff" opacity="0.5196078431372549"/>
<ellipse cx="161.10164888254442" cy="1134.359247020613" rx="1.5" ry="1.5" fill="#6496ff" opacity="0.5196078431372549"/>
<ellipse cx="324.4273211082571" cy="476.9086184338241" rx="1.5" ry="1.5" fill="#6496ff" opacity="0.5196078431372549"/>
<ellipse cx="387.4217249767025" cy="792.2733131760142" rx="1.5" ry="1.5" fill="#6496ff" opacity="0.5196078431372549"/>
<ellipse cx="215.7110811284329" cy="774.5359722406306" rx="1.5" ry="1.5" fill="#6496ff" opacity="0.5196078431372549"/>
<ellipse cx="128.17356354006267" cy="116.43650388179184" rx="1.5" ry="1.5" fill="#6496ff" opacity="0.5196078431372549"/>
<ellipse cx="319.29366961088664" cy="708.8402512990126" rx="1.5" ry="1.5" fill="#6496ff" opacity="0.5196078431372549"/>
<ellipse cx="245.5405713271073" cy="398.2533218330952" rx="1.5" ry="1.5" fill="#6496ff" opacity="0.5196078431372549"/>
<ellipse cx="784.0285779182001" cy="107.52418046236232" rx="1.5" ry="1.5" fill="#ff9664" opacity="0.47843137254901963"/>
<ellipse cx="956.4411612304119" cy="273.17832125033175" rx="1.5" ry="1.5" fill="#ff9664" opacity="0.47843137254901963"/>
<ellipse cx="605.1518816059231" cy="1147.7378105501355" rx="1.5" ry="1.5" fill="#ff9664" opacity="0.47843137254901963"/>
<ellipse cx="866.0889817802649" cy="833.7181095190896" rx="1.5" ry="1.5" fill="#ff9664" opacity="0.47843137254901963"/>
<ellipse cx="1043.393898244665" cy="335.7336045874905" rx="1.5" ry="1.5" fill="#ff9664" opacity="0.47843137254901963"/>
<ellipse cx="799.4335557238355" cy="531.2473299592954" rx="1.5" ry="1.5" fill="#ff9664" opacity="0.47843137254901963"/>
<ellipse cx="881.0585405030561" cy="918.2939533695085" rx="1.5" ry="1.5" fill="#ff9664" opacity="0.47843137254901963"/>
<ellipse cx="665.0803757296318" cy="259.26365119370803" rx="1.5" ry="1.5" fill="#ff9664" opacity="0.47843137254901963"/>
<ellipse cx="873.3602680328117" cy="0.48762559913453907" rx="1.5" ry="1.5" fill="#ff9664" opacity="0.47843137254901963"/>
<ellipse cx="692.9017640151558" cy="1048.8727663871239" rx="1.5" ry="1.5" fill="#ff9664" opacity="0.47843137254901963"/>
<ellipse cx="953.8176872273058" cy="583.3267095421099" rx="1.5" ry="1.5" fill="#ff9664" opacity="0.47843137254901963"/>
<ellipse cx="738.2648993461695" cy="687.5260237080632" rx="1.5" ry="1.5" fill="#ff9664" opacity="0.47843137254901963"/>
<ellipse cx="677.1167135877147" cy="394.7137715270341" rx="1.5" ry="1.5" fill="#ff9664" opacity="0.47843137254901963"/>
<ellipse cx="995.4829933380163" cy="381.70269745481323" rx="1.5" ry="1.5" fill="#ff9664" opacity="0.47843137254901963"/>
<ellipse cx="861.1493827407944" cy="79.45593599204716" rx="1.5" ry="1.5" fill="#ff9664" opacity="0.47843137254901963"/>
<ellipse cx="1012.8585740145568" cy="927.6056711224866" rx="1.5" ry="1.5" fill="#ff9664" opacity="0.47843137254901963"/>
<ellipse cx="782.1857715780781" cy="235.12324701767565" rx="1.5" ry="1.5" fill="#ff9664" opacity="0.47843137254901963"/>
<ellipse cx="986.8368764812299" cy="389.0215875529785" rx="1.5" ry="1.5" fill="#ff9664" opacity="0.47843137254901963"/>
<ellipse cx="659.5669556220839" cy="614.4250321269152" rx="1.5" ry="1.5" fill="#ff9664" opacity="0.47843137254901963"/>
<ellipse cx="958.3769061129433" cy="491.45177029606504" rx="1.5" ry="1.5" fill="#ff9664" opacity="0.47843137254901963"/>
<ellipse cx="540.5656456949961" cy="568.5230437286771" rx="1.5" ry="1.5" fill="#ff9664" opacity="0.47843137254901963"/>
<ellipse cx="598.5043537889162" cy="1337.2058233885123" rx="1.5" ry="1.5" fill="#ff9664" opacity="0.47843137254901963"/>
<ellipse cx="689.9463844997558" cy="777.6582244679603" rx="1.5" ry="1.5" fill="#ff9664" opacity="0.47843137254901963"/>
<ellipse cx="860.1692391932799" cy="1213.2884508060704" rx="1.5" ry="1.5" fill="#ff9664" opacity="0.47843137254901963"/>
<ellipse cx="929.3892862225832" cy="1315.4973513053253" rx="1.5" ry="1.5" fill="#ff9664" opacity="0.47843137254901963"/>
<ellipse cx="678.6270332981958" cy="306.1233045096152" rx="1.5" ry="1.5" fill="#ff9664" opacity="0.47843137254901963"/>
<ellipse cx="807.535817151673" cy="532.3241295909156" rx="1.5" ry="1.5" fill="#ff9664" opacity="0.47843137254901963"/>
<ellipse cx="964.5585181305923" cy="683.8878217543885" rx="1.5" ry="1.5" fill="#ff9664" opacity="0.47843137254901963"/>
<ellipse cx="1049.75697779551" cy="1051.322561992017" rx="1.5" ry="1.5" fill="#ff9664" opacity="0.47843137254901963"/>
<ellipse cx="812.1675039605086" cy="1235.4126518757141" rx="1.5" ry="1.5" fill="#ff9664" opacity="0.47843137254901963"/>
<ellipse cx="750.3606534983779" cy="788.8222757674858" rx="1.5" ry="1.5" fill="#ff9664" opacity="0.47843137254901963"/>
<ellipse cx="1019.8698737471691" cy="624.1033139750842" rx="1.5" ry="1.5" fill="#ff9664" opacity="0.47843137254901963"/>
<ellipse cx="722.3321271791738" cy="1004.5156543164122" rx="1.5" ry="1.5" fill="#ff9664" opacity="0.47843137254901963"/>
<ellipse cx="1025.2535178536798" cy="1180.1600044500829" rx="1.5" ry="1.5" fill="#ff9664" opacity="0.47843137254901963"/>
<ellipse cx="637.3999143100343" cy="331.9232450481147" rx="1.5" ry="1.5" fill="#ff9664" opacity="0.47843137254901963"/>
<ellipse cx="723.9637900255452" cy="66.59678223850055" rx="1.5" ry="1.5" fill="#ff9664" opacity="0.47843137254901963"/>
<ellipse cx="613.5666579350674" cy="893.1172643290448" rx="1.5" ry="1.5" fill="#ff9664" opacity="0.47843137254901963"/>
<ellipse cx="980.344906058323" cy="317.944765238997" rx="1.5" ry="1.5" fill="#ff9664" opacity="0.47843137254901963"/>
<ellipse cx="838.3225984770445" cy="385.3450836545532" rx="1.5" ry="1.5" fill="#ff9664" opacity="0.47843137254901963"/>
<ellipse cx="640.2369618882598" cy="811.6837490404415" rx="1.5" ry="1.5" fill="#ff9664" opacity="0.47843137254901963"/>
<ellipse cx="887.1174575514707" cy="1238.3002644583119" rx="1.5" ry="1.5" fill="#ff9664" opacity="0.47843137254901963"/>
<ellipse cx="1032.3872711567149" cy="330.91624990613957" rx="1.5" ry="1.5" fill="#ff9664" opacity="0.47843137254901963"/>
<ellipse cx="907.8465987964751" cy="160.72171933982602" rx="1.5" ry="1.5" fill="#ff9664" opacity="0.47843137254901963"/>
<ellipse cx="984.6111794396356" cy="451.50412938161946" rx="1.5" ry="1.5" fill="#ff9664" opacity="0.47843137254901963"/>
<ellipse cx="708.4261394331354" cy="936.0385362692358" rx="1.5" ry="1.5" fill="#ff9664" opacity="0.47843137254901963"/>
<ellipse cx="599.839160470217" cy="1140.3495182936776" rx="1.5" ry="1.5" fill="#ff9664" opacity="0.47843137254901963"/>
<ellipse cx="731.8009472786454" cy="372.1745254342326" rx="1.5" ry="1.5" fill="#ff9664" opacity="0.47843137254901963"/>
<ellipse cx="870.4305554974967" cy="638.7818101042797" rx="1.5" ry="1.5" fill="#ff9664" opacity="0.47843137254901963"/>
<line x1="300.2112866845966" y1="1258.1326252120234" x2="382.5112866845966" y2="1258.1326252120234" stroke="#c8c8c8" stroke-width="1" opacity="0.39"/>
<line x1="242.73493778087894" y1="1326.491618774129" x2="325.034937780879" y2="1326.491618774129" stroke="#c8c8c8" stroke-width="1" opacity="0.39"/>
<line x1="40.140180606460284" y1="789.1469169357545" x2="122.4401806064603" y2="789.1469169357545" stroke="#c8c8c8" stroke-width="1" opacity="0.39"/>
<line x1="351.1387755121751" y1="219.70816264846744" x2="433.4387755121751" y2="219.70816264846744" stroke="#c8c8c8" stroke-width="1" opacity="0.39"/>
<line x1="328.2523818352504" y1="1035.2143411688573" x2="410.5523818352504" y2="1035.2143411688573" stroke="#c8c8c8" stroke-width="1" opacity="0.39"/>
<line x1="316.2052775901767" y1="69.33327916512884" x2="398.5052775901767" y2="69.33327916512884" stroke="#c8c8c8" stroke-width="1" opacity="0.39"/>
<line x1="483.5761662589275" y1="642.2291460643659" x2="565.8761662589275" y2="642.2291460643659" stroke="#c8c8c8" stroke-width="1" opacity="0.39"/>
<line x1="234.13940202171887" y1="1114.5944779341085" x2="316.4394020217189" y2="1114.5944779341085" stroke="#c8c8c8" stroke-width="1" opacity="0.39"/>
<line x1="408.1448151581664" y1="212.53926167848485" x2="490.4448151581664" y2="212.53926167848485" stroke="#c8c8c8" stroke-width="1" opacity="0.39"/>
<line x1="485.6174989815883" y1="438.5405304089843" x2="567.9174989815883" y2="438.5405304089843" stroke="#c8c8c8" stroke-width="1" opacity="0.39"/>
<line x1="52.54305841985301" y1="295.5912755316083" x2="134.84305841985304" y2="295.5912755316083" stroke="#c8c8c8" stroke-width="1" opacity="0.39"/>
<line x1="34.49566485103949" y1="1029.52437001724" x2="116.7956648510395" y2="1029.52437001724" stroke="#c8c8c8" stroke-width="1" opacity="0.39"/>
<line x1="413.6068655986371" y1="780.5683676062937" x2="495.9068655986371" y2="780.5683676062937" stroke="#c8c8c8" stroke-width="1" opacity="0.39"/>
<line x1="6.884243491517493" y1="549.1177973100532" x2="89.1842434915175" y2="549.1177973100532" stroke="#c8c8c8" stroke-width="1" opacity="0.39"/>
<line x1="440.11979362001637" y1="599.4574609210051" x2="522.4197936200164" y2="599.4574609210051" stroke="#c8c8c8" stroke-width="1" opacity="0.39"/>
<line x1="98.91551260785923" y1="297.3407731844768" x2="181.21551260785924" y2="297.3407731844768" stroke="#c8c8c8" stroke-width="1" opacity="0.39"/>
<line x1="86.5489089892008" y1="808.0733079500837" x2="168.84890898920082" y2="808.0733079500837" stroke="#c8c8c8" stroke-width="1" opacity="0.39"/>
<line x1="314.10594477975087" y1="420.4462410977326" x2="396.4059447797509" y2="420.4462410977326" stroke="#c8c8c8" stroke-width="1" opacity="0.39"/>
<line x1="355.29952542637454" y1="166.74188383237546" x2="437.59952542637456" y2="166.74188383237546" stroke="#c8c8c8" stroke-width="1" opacity="0.39"/>
<line x1="461.348163700359" y1="147.5862444134365" x2="543.648163700359" y2="147.5862444134365" stroke="#c8c8c8" stroke-width="1" opacity="0.39"/>
<line x1="534.6766897545554" y1="188.84725579472595" x2="616.9766897545553" y2="188.84725579472595" stroke="#c8c8c8" stroke-width="1" opacity="0.39"/>
<line x1="139.54423612893754" y1="121.1466372577225" x2="221.84423612893755" y2="121.1466372577225" stroke="#c8c8c8" stroke-width="1" opacity="0.39"/>
<line x1="372.85464244561956" y1="590.4289844401316" x2="455.1546424456196" y2="590.4289844401316" stroke="#c8c8c8" stroke-width="1" opacity="0.39"/>
<line x1="366.46412389653926" y1="42.7253365715618" x2="448.7641238965393" y2="42.7253365715618" stroke="#c8c8c8" stroke-width="1" opacity="0.39"/>
<line x1="33.01088513481006" y1="0.6169348958027245" x2="115.31088513481006" y2="0.6169348958027245" stroke="#c8c8c8" stroke-width="1" opacity="0.39"/>
<line x1="64.95261317349626" y1="665.4180768250571" x2="147.2526131734963" y2="665.4180768250571" stroke="#c8c8c8" stroke-width="1" opacity="0.39"/>
<line x1="33.24196817038673" y1="1331.8693807962673" x2="115.54196817038674" y2="1331.8693807962673" stroke="#c8c8c8" stroke-width="1" opacity="0.39"/>
<line x1="169.19958122502993" y1="206.23440752096215" x2="251.49958122502994" y2="206.23440752096215" stroke="#c8c8c8" stroke-width="1" opacity="0.39"/>
<line x1="114.78225415329554" y1="436.6169842130584" x2="197.08225415329554" y2="436.6169842130584" stroke="#c8c8c8" stroke-width="1" opacity="0.39"/>
<line x1="252.2720254642293" y1="692.9368171342355" x2="334.57202546422934" y2="692.9368171342355" stroke="#c8c8c8" stroke-width="1" opacity="0.39"/>
<line x1="529.3353226265568" y1="958.4887866668817" x2="611.6353226265569" y2="958.4887866668817" stroke="#c8c8c8" stroke-width="1" opacity="0.39"/>
<line x1="322.37247005215494" y1="213.01578293229258" x2="404.67247005215495" y2="213.01578293229258" stroke="#c8c8c8" stroke-width="1" opacity="0.39"/>
<line x1="152.77688212356384" y1="1071.0429136972143" x2="235.07688212356385" y2="1071.0429136972143" stroke="#c8c8c8" stroke-width="1" opacity="0.39"/>
<line x1="405.49290437507113" y1="672.1323433668038" x2="487.79290437507115" y2="672.1323433668038" stroke="#c8c8c8" stroke-width="1" opacity="0.39"/>
<line x1="46.986186526243664" y1="979.9551357421816" x2="129.28618652624368" y2="979.9551357421816" stroke="#c8c8c8" stroke-width="1" opacity="0.39"/>
<line x1="401.59415263756836" y1="80.12959960854128" x2="483.89415263756837" y2="80.12959960854128" stroke="#c8c8c8" stroke-width="1" opacity="0.39"/>
<line x1="61.041342644505825" y1="430.29233535299653" x2="143.34134264450583" y2="430.29233535299653" stroke="#c8c8c8" stroke-width="1" opacity="0.39"/>
<line x1="119.03198366939648" y1="351.51718424238135" x2="201.3319836693965" y2="351.51718424238135" stroke="#c8c8c8" stroke-width="1" opacity="0.39"/>
<line x1="344.1268803291614" y1="751.7218533678548" x2="426.4268803291614" y2="751.7218533678548" stroke="#c8c8c8" stroke-width="1" opacity="0.39"/>
<line x1="461.92280552439524" y1="729.9444619239981" x2="544.2228055243952" y2="729.9444619239981" stroke="#c8c8c8" stroke-width="1" opacity="0.39"/>
<line x1="464.5476796406078" y1="685.1884785504959" x2="546.8476796406078" y2="685.1884785504959" stroke="#c8c8c8" stroke-width="1" opacity="0.39"/>
<line x1="70.69657090618115" y1="869.6725715276192" x2="152.99657090618115" y2="869.6725715276192" stroke="#c8c8c8" stroke-width="1" opacity="0.39"/>
<line x1="816.8778706886237" y1="714.400792454556" x2="832.2778706886237" y2="714.400792454556" stroke="#c8c8c8" stroke-width="1" opacity="0.39"/>
<line x1="958.6344625515093" y1="1332.1345573906483" x2="974.0344625515093" y2="1332.1345573906483" stroke="#c8c8c8" stroke-width="1" opacity="0.39"/>
<line x1="874.9516011844164" y1="930.1173452893819" x2="890.3516011844164" y2="930.1173452893819" stroke="#c8c8c8" stroke-width="1" opacity="0.39"/>
<line x1="1015.1261617965653" y1="441.74759408540444" x2="1030.5261617965652" y2="441.74759408540444" stroke="#c8c8c8" stroke-width="1" opacity="0.39"/>
<line x1="1035.3300192278484" y1="673.8612416544283" x2="1050.7300192278485" y2="673.8612416544283" stroke="#c8c8c8" stroke-width="1" opacity="0.39"/>
<line x1="1013.6100485146093" y1="1294.2317253417484" x2="1029.0100485146093" y2="1294.2317253417484" stroke="#c8c8c8" stroke-width="1" opacity="0.39"/>
<line x1="1044.8881247010493" y1="1169.0699821194028" x2="1060.2881247010494" y2="1169.0699821194028" stroke="#c8c8c8" stroke-width="1" opacity="0.39"/>
<line x1="835.961122650635" y1="50.524449371976985" x2="851.361122650635" y2="50.524449371976985" stroke="#c8c8c8" stroke-width="1" opacity="0.39"/>
<rect x="78.5975909645658" y="804.9470532755121" width="22.099375725770077" height="20.73624037351902" fill="#66e8e7" opacity="0.3048750712294189"/>
<ellipse cx="113.4803581766227" cy="697.070329215876" rx="11.526581049676324" ry="16.430058926483213" fill="#85a6dd" opacity="0.18471661855978477"/>
<rect x="365.3642477352937" y="1081.6478543596565" width="52.525546565896626" height="40.44963056009144" fill="#78bdb6" opacity="0.21800961686114265"/>
<ellipse cx="10.78363895918412" cy="228.12561347527688" rx="19.505058531418936" ry="27.47236720393814" fill="#b6fdb6" opacity="0.17747691568654947"/>
<ellipse cx="1006.4211277879873" cy="1258.7242132326235" rx="26.800556190684695" ry="30.82443769511388" fill="#727cad" opacity="0.2631807514943166"/>
<rect x="-10.677089691477402" y="226.36782362888" width="65.06809236717787" height="46.71321012594191" fill="#d4dfa3" opacity="0.2715371824494946"/>
<line x1="745.0674537313485" y1="603.7722232769114" x2="666.693048787626" y2="312.6130701567107" stroke="#b597f2" stroke-width="1.1970074177705716" opacity="0.3777438426578832"/>
<line x1="424.81057067625716" y1="450.1386167715018" x2="831.4099506435031" y2="1190.721846181304" stroke="#a2aca2" stroke-width="1.6337344649404915" opacity="0.31610609744512397"/>
<line x1="549.7783901867357" y1="1325.1447743387637" x2="267.17891705556724" y2="920.1517586224488" stroke="#fdfbda" stroke-width="2.1640644078906925" opacity="0.3181120181367067"/>
<line x1="902.4036030203121" y1="865.1694778656445" x2="591.0853960882339" y2="1070.6223969676637" stroke="#cca1b4" stroke-width="2.7242488869113144" opacity="0.391274629963845"/>
<line x1="1077.2448354015335" y1="886.9455818491734" x2="160.15697486705938" y2="895.7364012001717" stroke="#b2fed9" stroke-width="2.899817527225156" opacity="0.20371339837554278"/>
<line x1="558.8596203545387" y1="236.2172664311795" x2="814.1259566760277" y2="54.8274636523926" stroke="#9abcde" stroke-width="1.251872539637551" opacity="0.34747705281475927"/>
<line x1="625.0432243873566" y1="817.7782241337832" x2="592.3498108761152" y2="212.84825215714437" stroke="#cabda6" stroke-width="1.5931851866623319" opacity="0.3131577431714696"/>
<line x1="154.0341997863884" y1="145.63610411511553" x2="910.8862285087287" y2="689.8373368614527" stroke="#eff2f9" stroke-width="2.9188242563599833" opacity="0.2024785584306893"/>
<line x1="206.83397779559436" y1="618.9393508336224" x2="325.81011787327475" y2="801.2370947754183" stroke="#a09fc5" stroke-width="2.9121956238114253" opacity="0.1966446381174473"/>
<line x1="710.4215100735527" y1="921.290356349801" x2="64.06183722618121" y2="811.1082542739382" stroke="#c6aaa4" stroke-width="1.1303462982784707" opacity="0.3075860762830503"/>
<line x1="654.8260441491501" y1="1156.4308231493603" x2="711.181626651055" y2="759.8660055361065" stroke="#a4aea1" stroke-width="1.00719118118621" opacity="0.18193789324338633"/>
<ellipse cx="611.8249013888766" cy="148.5725999570324" rx="2.3678515857867204" ry="2.3678515857867204" fill="#cafad0" opacity="0.13096372288924907"/>
<ellipse cx="119.56373697126459" cy="1344.4090834559915" rx="3.2651727210102477" ry="3.2651727210102477" fill="#c9e0f6" opacity="0.10768819324135431"/>
<ellipse cx="215.82086930788165" cy="1249.3794238424764" rx="3.905523301523888" ry="3.905523301523888" fill="#e2f2e9" opacity="0.20888534252781232"/>
<ellipse cx="721.1837771912961" cy="908.3676342425717" rx="2.0766487126595568" ry="2.0766487126595568" fill="#f4d0dc" opacity="0.23243973309077787"/>
<ellipse cx="1004.8802952677386" cy="389.60609454177603" rx="1.4923648836521268" ry="1.4923648836521268" fill="#dae7ee" opacity="0.13849839979986694"/>
<ellipse cx="725.7639173072596" cy="1208.1777161025339" rx="2.816880823027753" ry="2.816880823027753" fill="#f8ede2" opacity="0.09951062296932675"/>
<ellipse cx="977.2219459792701" cy="543.1721093799789" rx="1.9566781525298387" ry="1.9566781525298387" fill="#cfd7f2" opacity="0.22003459937013836"/>
<ellipse cx="640.1980164648025" cy="873.3771983875788" rx="3.3495396386597025" ry="3.3495396386597025" fill="#d6f9e6" opacity="0.14277104773432056"/>
<ellipse cx="0.7571554187485741" cy="333.80067967055396" rx="2.525105298275643" ry="2.525105298275643" fill="#dcedfc" opacity="0.12579843111934944"/>
<ellipse cx="21.627531061706847" cy="533.9964148281125" rx="1.030605077757782" ry="1.030605077757782" fill="#d8cbd0" opacity="0.19416445382215508"/>
</svg>