<svg xmlns="http://www.w3.org/2000/svg" width="1080" height="1350" viewBox="0 0 1080 1350" style="background-color: #e9eef3;">
<rect x="0" y="0" width="1080" height="1350" fill="#e9eef3"/>
<ellipse cx="26.75284625345508" cy="1335.21146687456" rx="43.169801304295696" ry="28.981594125664174" fill="#a9a9a9"/>
<ellipse cx="52.75463574779074" cy="1335.21146687456" rx="34.53584104343656" ry="14.490797062832087" fill="#a9a9a9"/>
<ellipse cx="-5.108214014559319" cy="1335.21146687456" rx="30.21886091300699" ry="11.592637650265672" fill="#a9a9a9"/>
<ellipse cx="391.3798286353144" cy="608.6098554584244" rx="30.226598547330052" ry="22.032831783958862" fill="#a9a9a9"/>
<ellipse cx="412.98471385361756" cy="608.6098554584244" rx="24.181278837864042" ry="11.016415891979431" fill="#a9a9a9"/>
<ellipse cx="371.2945817334413" cy="608.6098554584244" rx="21.158618983131035" ry="8.813132713583546" fill="#a9a9a9"/>
<ellipse cx="303.3726455193817" cy="676.8233660034945" rx="35.73303792487662" ry="19.784368912146082" fill="#a9a9a9"/>
<ellipse cx="320.6579294791334" cy="676.8233660034945" rx="28.586430339901295" ry="9.892184456073041" fill="#a9a9a9"/>
<ellipse cx="282.66318659325486" cy="676.8233660034945" rx="25.013126547413634" ry="7.913747564858433" fill="#a9a9a9"/>
<ellipse cx="292.2180892397734" cy="376.75756233593336" rx="26.510655007419103" ry="13.701167933446872" fill="#a9a9a9"/>
<ellipse cx="310.05481698520555" cy="376.75756233593336" rx="21.20852400593528" ry="6.850583966723436" fill="#a9a9a9"/>
<ellipse cx="272.2037024304556" cy="376.75756233593336" rx="18.55745850519337" ry="5.480467173378749" fill="#a9a9a9"/>
<ellipse cx="243.4364105404524" cy="485.9443368790412" rx="45.977664944400026" ry="28.3897113531573" fill="#a9a9a9"/>
<ellipse cx="265.72322064103054" cy="485.9443368790412" rx="36.78213195552002" ry="14.19485567657865" fill="#a9a9a9"/>
<ellipse cx="220.9848694500991" cy="485.9443368790412" rx="32.18436546108002" ry="11.35588454126292" fill="#a9a9a9"/>
<ellipse cx="349.341834946229" cy="149.81564290347305" rx="8.814619639823196" ry="4.239066315183045" fill="#a9a9a9"/>
<ellipse cx="356.9568161159028" cy="149.81564290347305" rx="7.051695711858557" ry="2.1195331575915226" fill="#a9a9a9"/>
<ellipse cx="341.0446656778418" cy="149.81564290347305" rx="6.170233747876237" ry="1.695626526073218" fill="#a9a9a9"/>
<ellipse cx="247.67904293149664" cy="1336.6142756010472" rx="13.324144202684424" ry="7.935354437404172" fill="#a9a9a9"/>
<ellipse cx="255.65744629150302" cy="1336.6142756010472" rx="10.65931536214754" ry="3.967677218702086" fill="#a9a9a9"/>
<ellipse cx="239.16613780085035" cy="1336.6142756010472" rx="9.326900941879098" ry="3.1741417749616687" fill="#a9a9a9"/>
<ellipse cx="66.37624028435734" cy="63.66543623789467" rx="14.84793482463294" ry="5.738945026329621" fill="#a9a9a9"/>
<ellipse cx="76.67542234326405" cy="63.66543623789467" rx="11.878347859706352" ry="2.8694725131648107" fill="#a9a9a9"/>
<ellipse cx="56.68992219571056" cy="63.66543623789467" rx="10.393554377243056" ry="2.2955780105318486" fill="#a9a9a9"/>
<ellipse cx="313.13668027200583" cy="1319.856209177457" rx="17.769412751134094" ry="8.282581339421716" fill="#a9a9a9"/>
<ellipse cx="324.26312705650025" cy="1319.856209177457" rx="14.215530200907278" ry="4.141290669710858" fill="#a9a9a9"/>
<ellipse cx="301.14688985223364" cy="1319.856209177457" rx="12.438588925793866" ry="3.3130325357686865" fill="#a9a9a9"/>
<ellipse cx="78.22654012508063" cy="1028.5899152181064" rx="40.506238589247765" ry="23.900222433545014" fill="#a9a9a9"/>
<ellipse cx="101.36558594204465" cy="1028.5899152181064" rx="32.40499087139821" ry="11.950111216772507" fill="#a9a9a9"/>
<ellipse cx="49.82700275876632" cy="1028.5899152181064" rx="28.354367012473435" ry="9.560088973418006" fill="#a9a9a9"/>
<ellipse cx="800.9463859819557" cy="1011.6362755241042" rx="31.296040461971693" ry="27.865680800651564" fill="#a9a9a9"/>
<ellipse cx="826.7532799952166" cy="1011.6362755241042" rx="25.036832369577358" ry="13.932840400325782" fill="#a9a9a9"/>
<ellipse cx="776.4798692811672" cy="1011.6362755241042" rx="21.90722832338018" ry="11.146272320260627" fill="#a9a9a9"/>
<ellipse cx="619.5663357151516" cy="923.9362884889991" rx="25.813854389805265" ry="18.00996848987362" fill="#a9a9a9"/>
<ellipse cx="638.7851430147851" cy="923.9362884889991" rx="20.651083511844213" ry="9.00498424493681" fill="#a9a9a9"/>
<ellipse cx="600.4080143851464" cy="923.9362884889991" rx="18.069698072863684" ry="7.203987395949449" fill="#a9a9a9"/>
<ellipse cx="653.1895852616008" cy="1333.1071129688562" rx="36.0508970585011" ry="25.743825695733506" fill="#a9a9a9"/>
<ellipse cx="677.4507599480188" cy="1333.1071129688562" rx="28.84071764680088" ry="12.871912847866753" fill="#a9a9a9"/>
<ellipse cx="635.7961468475772" cy="1333.1071129688562" rx="25.235627940950767" ry="10.297530278293403" fill="#a9a9a9"/>
<ellipse cx="672.0181275308216" cy="446.94901427577673" rx="11.22717845720987" ry="8.685823458169049" fill="#a9a9a9"/>
<ellipse cx="679.7635395438706" cy="446.94901427577673" rx="8.981742765767898" ry="4.342911729084524" fill="#a9a9a9"/>
<ellipse cx="663.1633752916017" cy="446.94901427577673" rx="7.859024920046909" ry="3.47432938326762" fill="#a9a9a9"/>
<ellipse cx="947.6291229238869" cy="1307.5630551704965" rx="14.085461081543487" ry="13.491268494597314" fill="#a9a9a9"/>
<ellipse cx="959.0170828369983" cy="1307.5630551704965" rx="11.26836886523479" ry="6.745634247298657" fill="#a9a9a9"/>
<ellipse cx="936.9956978878483" cy="1307.5630551704965" rx="9.85982275708044" ry="5.396507397838926" fill="#a9a9a9"/>
<ellipse cx="700.830059126406" cy="643.9966681618228" rx="13.65380277312938" ry="6.869619024796472" fill="#a9a9a9"/>
<ellipse cx="707.0398902206143" cy="643.9966681618228" rx="10.923042218503504" ry="3.434809512398236" fill="#a9a9a9"/>
<ellipse cx="692.7957496068445" cy="643.9966681618228" rx="9.557661941190565" ry="2.7478476099185887" fill="#a9a9a9"/>
<ellipse cx="809.1816259683956" cy="879.2316023629306" rx="12.649746544615788" ry="8.109557515895462" fill="#a9a9a9"/>
<ellipse cx="816.5496438226392" cy="879.2316023629306" rx="10.119797235692632" ry="4.054778757947731" fill="#a9a9a9"/>
<ellipse cx="801.8929319596109" cy="879.2316023629306" rx="8.85482258123105" ry="3.243823006358185" fill="#a9a9a9"/>
<ellipse cx="604.6795767846888" cy="1172.0468317959676" rx="16.562104356088362" ry="9.890921600694481" fill="#a9a9a9"/>
<ellipse cx="615.8800451140683" cy="1172.0468317959676" rx="13.24968348487069" ry="4.945460800347241" fill="#a9a9a9"/>
<ellipse cx="595.8740776564325" cy="1172.0468317959676" rx="11.593473049261853" ry="3.9563686402777924" fill="#a9a9a9"/>
<ellipse cx="1001.9082572226916" cy="548.1663289238542" rx="33.454612841625256" ry="22.19863378680966" fill="#a9a9a9"/>
<ellipse cx="1027.5746102485475" cy="548.1663289238542" rx="26.763690273300206" ry="11.09931689340483" fill="#a9a9a9"/>
<ellipse cx="978.9078200835603" cy="548.1663289238542" rx="23.418228989137674" ry="8.879453514723865" fill="#a9a9a9"/>
<path d="M 0,675 L 10,669.5564603362153 L 20,664.329937420743 L 30,659.528796228976 L 40,655.344443109353 L 50,651.9436950162636 L 60,649.462129044498 L 70,647.9986773983162 L 80,647.6116832766628 L 90,648.3165749139374 L 100,650.0852505049763 L 110,652.8471985353432 L 120,656.4923088528984 L 130,660.8752624120918 L 140,665.8213246857282 L 150,671.1333117791596 L 160,676.5994515299157 L 170,682.0018261955352 L 180,687.125060146279 L 190,691.7649062118305 L 200,695.7363883714372 L 210,698.8811761641323 L 220,701.0738968245728 L 230,702.2271334995569 L 240,702.294910282102 L 250,701.27452512577 L 260,699.2066575667322 L 270,696.173746959034 L 280,692.2967058777016 L 290,687.730099715937 L 300,682.6559846506506 L 310,677.2766496371994 L 320,671.8065517870965 L 330,666.4637666397334 L 340,661.4612941788022 L 350,656.9985671951051 L 360,653.2535005305332 L 370,650.3753981747615 L 380,648.4790009863373 L 390,647.6399123367358 L 400,647.8915840425193 L 410,649.2239827469742 L 420,651.5839899183811 L 430,654.8775195182493 L 440,658.9732689147658 L 450,663.7079535043758 L 460,668.8928163536533 L 470,674.321153342578 L 480,679.7765538055096 L 490,685.0415281415028 L 500,689.9061784383688 L 510,694.1765664400631 L 520,697.6824452529469 L 530,700.284046552191" fill="none" stroke="#ff6464" stroke-width="3" opacity="0.59"/>
<path d="M 540,667.7606906221093 L 550,667.6200722756558 L 560,667.7736683588632 L 570,668.2153554805947 L 580,668.9275249691309 L 590,669.8817848743448 L 600,671.0400918651568 L 610,672.3562678970923 L 620,673.7778411851915 L 630,675.2481380884919 L 640,676.7085425092494 L 650,678.1008327317807 L 660,679.3695025385393 L 670,680.4639740678491 L 680,681.3406141936409 L 690,681.9644740404975 L 700,682.3106822850282 L 710,682.3654366970468 L 720,682.1265543909336 L 730,681.6035588503969 L 740,680.8173002572298 L 750,679.7991242603596 L 760,678.5896223237411 L 770,677.2370134727832 L 780,675.7952219539699 L 790,674.3217274453198 L 800,672.8752735230119 L 810,671.5135257403794 L 820,670.2907726842722 L 830,669.2557616604169 L 840,668.4497552921684 L 850,667.9048865099288 L 860,667.642877512613 L 870,667.6741737721268 L 880,667.9975276053642 L 890,668.6000479153964 L 900,669.457714118825 L 910,670.5363337706416 L 920,671.7929057091094 L 930,673.1773343763838 L 940,674.6344269703177 L 950,676.1060938073126 L 960,677.5336641746908 L 970,678.8602253468638 L 980,680.0328915161028 L 990,681.0049121828024 L 1000,681.7375359503699 L 1010,682.2015554211202 L 1020,682.3784716030528 L 1030,682.2612314062853 L 1040,681.85450882749 L 1050,681.1745186123961 L 1060,680.2483698250461 L 1070,679.1129850949603" fill="none" stroke="#ff6464" stroke-width="3" opacity="0.59"/>
<ellipse cx="512.033465147034" cy="142.03889972625248" rx="1.5" ry="1.5" fill="#6496ff" opacity="0.49607843137254903"/>
<ellipse cx="383.1859965916658" cy="831.2967185076776" rx="1.5" ry="1.5" fill="#6496ff" opacity="0.49607843137254903"/>
<ellipse cx="345.8119727791343" cy="1019.0058593726744" rx="1.5" ry="1.5" fill="#6496ff" opacity="0.49607843137254903"/>
<ellipse cx="255.3797293898555" cy="1036.1316566523778" rx="1.5" ry="1.5" fill="#6496ff" opacity="0.49607843137254903"/>
<ellipse cx="224.23245917271473" cy="1314.272010938391" rx="1.5" ry="1.5" fill="#6496ff" opacity="0.49607843137254903"/>
<ellipse cx="68.78861907347506" cy="1186.831503169067" rx="1.5" ry="1.5" fill="#6496ff" opacity="0.49607843137254903"/>
<ellipse cx="533.3874108890944" cy="682.7723983129358" rx="1.5" ry="1.5" fill="#6496ff" opacity="0.49607843137254903"/>
<ellipse cx="521.0769083542176" cy="96.46811489782674" rx="1.5" ry="1.5" fill="#6496ff" opacity="0.49607843137254903"/>
<ellipse cx="18.639866718389033" cy="47.33790459453031" rx="1.5" ry="1.5" fill="#6496ff" opacity="0.49607843137254903"/>
<ellipse cx="224.84089683035432" cy="1040.5838553982712" rx="1.5" ry="1.5" fill="#6496ff" opacity="0.49607843137254903"/>
<ellipse cx="499.26263117197095" cy="1151.3299053308228" rx="1.5" ry="1.5" fill="#6496ff" opacity="0.49607843137254903"/>
<ellipse cx="26.14001513744705" cy="1288.1856909432383" rx="1.5" ry="1.5" fill="#6496ff" opacity="0.49607843137254903"/>
<ellipse cx="193.9107085177259" cy="1346.0529691288493" rx="1.5" ry="1.5" fill="#6496ff" opacity="0.49607843137254903"/>
<ellipse cx="347.8075362871436" cy="100.0771880615862" rx="1.5" ry="1.5" fill="#6496ff" opacity="0.49607843137254903"/>
<ellipse cx="500.5096169656653" cy="833.8283483096532" rx="1.5" ry="1.5" fill="#6496ff" opacity="0.49607843137254903"/>
<ellipse cx="97.76207690022983" cy="580.0815450866155" rx="1.5" ry="1.5" fill="#6496ff" opacity="0.49607843137254903"/>
<ellipse cx="139.26381117629995" cy="795.721936596428" rx="1.5" ry="1.5" fill="#6496ff" opacity="0.49607843137254903"/>
<ellipse cx="362.4785329599299" cy="850.6398443368449" rx="1.5" ry="1.5" fill="#6496ff" opacity="0.49607843137254903"/>
<ellipse cx="217.21180925947232" cy="900.6139044187097" rx="1.5" ry="1.5" fill="#6496ff" opacity="0.49607843137254903"/>
<ellipse cx="328.8933278661656" cy="1275.2339607454994" rx="1.5" ry="1.5" fill="#6496ff" opacity="0.49607843137254903"/>
<ellipse cx="487.6402761822754" cy="131.43360620896965" rx="1.5" ry="1.5" fill="#6496ff" opacity="0.49607843137254903"/>
<ellipse cx="255.75735759723807" cy="895.1182190771766" rx="1.5" ry="1.5" fill="#6496ff" opacity="0.49607843137254903"/>
<ellipse cx="347.5810076424764" cy="268.31944597341095" rx="1.5" ry="1.5" fill="#6496ff" opacity="0.49607843137254903"/>
<ellipse cx="329.49632600392044" cy="1118.7569981062584" rx="1.5" ry="1.5" fill="#6496ff" opacity="0.49607843137254903"/>
<ellipse cx="314.32429805133694" cy="580.1428201515893" rx="1.5" ry="1.5" fill="#6496ff" opacity="0.49607843137254903"/>
<ellipse cx="346.5859939281763" cy="212.8123642005084" rx="1.5" ry="1.5" fill="#6496ff" opacity="0.49607843137254903"/>
<ellipse cx="4.161731602699371" cy="117.60394373797064" rx="1.5" ry="1.5" fill="#6496ff" opacity="0.49607843137254903"/>
<ellipse cx="410.6192736749627" cy="1100.3725474236405" rx="1.5" ry="1.5" fill="#6496ff" opacity="0.49607843137254903"/>
<ellipse cx="438.41532489211085" cy="1236.9733756580267" rx="1.5" ry="1.5" fill="#6496ff" opacity="0.49607843137254903"/>
<ellipse cx="104.84619860763019" cy="424.8601781320107" rx="1.5" ry="1.5" fill="#6496ff" opacity="0.49607843137254903"/>
<ellipse cx="177.5106526247741" cy="125.31044489020037" rx="1.5" ry="1.5" fill="#6496ff" opacity="0.49607843137254903"/>
<ellipse cx="491.87346183316475" cy="1177.6745622873655" rx="1.5" ry="1.5" fill="#6496ff" opacity="0.49607843137254903"/>
<ellipse cx="151.06100327850365" cy="213.00500045204768" rx="1.5" ry="1.5" fill="#6496ff" opacity="0.49607843137254903"/>
<ellipse cx="260.2474398632755" cy="919.0410022246842" rx="1.5" ry="1.5" fill="#6496ff" opacity="0.49607843137254903"/>
<ellipse cx="505.10531925834033" cy="131.5452933924018" rx="1.5" ry="1.5" fill="#6496ff" opacity="0.49607843137254903"/>
<ellipse cx="359.56978993470307" cy="374.06339066757977" rx="1.5" ry="1.5" fill="#6496ff" opacity="0.49607843137254903"/>
<ellipse cx="202.34196433906536" cy="568.57933428538" rx="1.5" ry="1.5" fill="#6496ff" opacity="0.49607843137254903"/>
<ellipse cx="33.481242672298684" cy="833.0610621874506" rx="1.5" ry="1.5" fill="#6496ff" opacity="0.49607843137254903"/>
<ellipse cx="84.66879848608225" cy="1204.2987993007055" rx="1.5" ry="1.5" fill="#6496ff" opacity="0.49607843137254903"/>
<ellipse cx="257.8741194018508" cy="495.95852517334674" rx="1.5" ry="1.5" fill="#6496ff" opacity="0.49607843137254903"/>
<ellipse cx="384.6626974943386" cy="1275.4114693381878" rx="1.5" ry="1.5" fill="#6496ff" opacity="0.49607843137254903"/>
<ellipse cx="402.8637816397771" cy="377.0770134297558" rx="1.5" ry="1.5" fill="#6496ff" opacity="0.49607843137254903"/>
<ellipse cx="526.0186317032291" cy="1020.6361060126852" rx="1.5" ry="1.5" fill="#6496ff" opacity="0.49607843137254903"/>
<ellipse cx="303.18943991474316" cy="382.83855932896887" rx="1.5" ry="1.5" fill="#6496ff" opacity="0.49607843137254903"/>
<ellipse cx="178.6539173958143" cy="133.62743860745218" rx="1.5" ry="1.5" fill="#6496ff" opacity="0.49607843137254903"/>
<ellipse cx="53.986575032578116" cy="1215.1191389258574" rx="1.5" ry="1.5" fill="#6496ff" opacity="0.49607843137254903"/>
<ellipse cx="228.62321387446636" cy="634.7272756671194" rx="1.5" ry="1.5" fill="#6496ff" opacity="0.49607843137254903"/>
<ellipse cx="155.93114383329225" cy="75.50343278586092" rx="1.5" ry="1.5" fill="#6496ff" opacity="0.49607843137254903"/>
<ellipse cx="456.09584054727844" cy="276.6065062380426" rx="1.5" ry="1.5" fill="#6496ff" opacity="0.49607843137254903"/>
<ellipse cx="343.09486822369274" cy="774.5245460302218" rx="1.5" ry="1.5" fill="#6496ff" opacity="0.49607843137254903"/>
<ellipse cx="129.22445303258692" cy="1204.61358335084" rx="1.5" ry="1.5" fill="#6496ff" opacity="0.49607843137254903"/>
<ellipse cx="997.0918681365865" cy="198.43223700226855" rx="1.5" ry="1.5" fill="#ff9664" opacity="0.4843137254901961"/>
<ellipse cx="611.7987817860203" cy="141.0249442518805" rx="1.5" ry="1.5" fill="#ff9664" opacity="0.4843137254901961"/>
<ellipse cx="833.9061267552461" cy="1155.7289963381966" rx="1.5" ry="1.5" fill="#ff9664" opacity="0.4843137254901961"/>
<ellipse cx="701.54756076706" cy="840.0102500058758" rx="1.5" ry="1.5" fill="#ff9664" opacity="0.4843137254901961"/>
<ellipse cx="662.4406958196502" cy="1206.1923315777408" rx="1.5" ry="1.5" fill="#ff9664" opacity="0.4843137254901961"/>
<ellipse cx="631.3281226583422" cy="209.45840934731925" rx="1.5" ry="1.5" fill="#ff9664" opacity="0.4843137254901961"/>
<ellipse cx="860.2367343009621" cy="413.9271857281808" rx="1.5" ry="1.5" fill="#ff9664" opacity="0.4843137254901961"/>
<ellipse cx="1023.3196880683861" cy="409.3773009299195" rx="1.5" ry="1.5" fill="#ff9664" opacity="0.4843137254901961"/>
<ellipse cx="1069.10486722789" cy="444.4811942262953" rx="1.5" ry="1.5" fill="#ff9664" opacity="0.4843137254901961"/>
<ellipse cx="966.4510204393655" cy="603.7786605785501" rx="1.5" ry="1.5" fill="#ff9664" opacity="0.4843137254901961"/>
<ellipse cx="857.5432063627724" cy="60.82316639871484" rx="1.5" ry="1.5" fill="#ff9664" opacity="0.4843137254901961"/>
<ellipse cx="855.562593487819" cy="58.48175886016421" rx="1.5" ry="1.5" fill="#ff9664" opacity="0.4843137254901961"/>
<ellipse cx="690.6244415746185" cy="1224.5144611338687" rx="1.5" ry="1.5" fill="#ff9664" opacity="0.4843137254901961"/>
<ellipse cx="801.982984664842" cy="834.084391982334" rx="1.5" ry="1.5" fill="#ff9664" opacity="0.4843137254901961"/>
<ellipse cx="576.1851024796185" cy="723.888127842866" rx="1.5" ry="1.5" fill="#ff9664" opacity="0.4843137254901961"/>
<ellipse cx="610.855572256658" cy="455.0353514286854" rx="1.5" ry="1.5" fill="#ff9664" opacity="0.4843137254901961"/>
<ellipse cx="672.6672506950177" cy="1165.0476341904364" rx="1.5" ry="1.5" fill="#ff9664" opacity="0.4843137254901961"/>
<ellipse cx="612.6643896441275" cy="308.9457796462559" rx="1.5" ry="1.5" fill="#ff9664" opacity="0.4843137254901961"/>
<ellipse cx="783.7222589197206" cy="1196.2797319499216" rx="1.5" ry="1.5" fill="#ff9664" opacity="0.4843137254901961"/>
<ellipse cx="1010.6137420938414" cy="963.0592708303869" rx="1.5" ry="1.5" fill="#ff9664" opacity="0.4843137254901961"/>
<ellipse cx="982.0166732939038" cy="992.1841983647012" rx="1.5" ry="1.5" fill="#ff9664" opacity="0.4843137254901961"/>
<ellipse cx="653.4846067957043" cy="383.9442061185577" rx="1.5" ry="1.5" fill="#ff9664" opacity="0.4843137254901961"/>
<ellipse cx="913.5852600883625" cy="1007.0722286622378" rx="1.5" ry="1.5" fill="#ff9664" opacity="0.4843137254901961"/>
<ellipse cx="850.9657646673572" cy="609.2997732615563" rx="1.5" ry="1.5" fill="#ff9664" opacity="0.4843137254901961"/>
<ellipse cx="722.4324203387054" cy="680.6675616096089" rx="1.5" ry="1.5" fill="#ff9664" opacity="0.4843137254901961"/>
<ellipse cx="585.3668189260022" cy="446.72189822733486" rx="1.5" ry="1.5" fill="#ff9664" opacity="0.4843137254901961"/>
<ellipse cx="615.8623123522207" cy="1056.6187312158843" rx="1.5" ry="1.5" fill="#ff9664" opacity="0.4843137254901961"/>
<ellipse cx="682.5338960357634" cy="1178.6749189620257" rx="1.5" ry="1.5" fill="#ff9664" opacity="0.4843137254901961"/>
<ellipse cx="827.2253824617833" cy="774.8539749415844" rx="1.5" ry="1.5" fill="#ff9664" opacity="0.4843137254901961"/>
<ellipse cx="859.4896532592782" cy="368.01522391290183" rx="1.5" ry="1.5" fill="#ff9664" opacity="0.4843137254901961"/>
<ellipse cx="956.3494135888059" cy="820.2833000664988" rx="1.5" ry="1.5" fill="#ff9664" opacity="0.4843137254901961"/>
<ellipse cx="788.31369650006" cy="306.3072504039422" rx="1.5" ry="1.5" fill="#ff9664" opacity="0.4843137254901961"/>
<ellipse cx="706.9560045781341" cy="526.1776330537059" rx="1.5" ry="1.5" fill="#ff9664" opacity="0.4843137254901961"/>
<ellipse cx="852.9616500404485" cy="697.93256553725" rx="1.5" ry="1.5" fill="#ff9664" opacity="0.4843137254901961"/>
<ellipse cx="617.4727964762006" cy="511.1555861826779" rx="1.5" ry="1.5" fill="#ff9664" opacity="0.4843137254901961"/>
<ellipse cx="842.7358032682612" cy="795.712441576511" rx="1.5" ry="1.5" fill="#ff9664" opacity="0.4843137254901961"/>
<ellipse cx="682.7884269425592" cy="918.2799522384443" rx="1.5" ry="1.5" fill="#ff9664" opacity="0.4843137254901961"/>
<ellipse cx="780.4525924848638" cy="908.1566516813621" rx="1.5" ry="1.5" fill="#ff9664" opacity="0.4843137254901961"/>
<ellipse cx="684.750516482047" cy="512.9591169361767" rx="1.5" ry="1.5" fill="#ff9664" opacity="0.4843137254901961"/>
<ellipse cx="714.8899627546267" cy="1118.3654492340822" rx="1.5" ry="1.5" fill="#ff9664" opacity="0.4843137254901961"/>
<ellipse cx="654.5611167487507" cy="944.0137495026057" rx="1.5" ry="1.5" fill="#ff9664" opacity="0.4843137254901961"/>
<ellipse cx="832.2596742083597" cy="143.69859702126058" rx="1.5" ry="1.5" fill="#ff9664" opacity="0.4843137254901961"/>
<ellipse cx="709.6955270365326" cy="814.8148123243893" rx="1.5" ry="1.5" fill="#ff9664" opacity="0.4843137254901961"/>
<ellipse cx="713.2323575826513" cy="226.83039318156912" rx="1.5" ry="1.5" fill="#ff9664" opacity="0.4843137254901961"/>
<ellipse cx="555.4613202882285" cy="1094.8650285112042" rx="1.5" ry="1.5" fill="#ff9664" opacity="0.4843137254901961"/>
<ellipse cx="1006.7476918486635" cy="409.3011798380414" rx="1.5" ry="1.5" fill="#ff9664" opacity="0.4843137254901961"/>
<ellipse cx="634.9791026557698" cy="620.6468450932981" rx="1.5" ry="1.5" fill="#ff9664" opacity="0.4843137254901961"/>
<ellipse cx="561.0749530890374" cy="1176.4651944751224" rx="1.5" ry="1.5" fill="#ff9664" opacity="0.4843137254901961"/>
<ellipse cx="764.2605901808761" cy="5.143886806975997" rx="1.5" ry="1.5" fill="#ff9664" opacity="0.4843137254901961"/>
<line x1="142.96675427954958" y1="1255.473858702683" x2="235.56675427954957" y2="1255.473858702683" stroke="#c8c8c8" stroke-width="1" opacity="0.39"/>
<line x1="532.9003646471074" y1="1000.7667307745511" x2="625.5003646471074" y2="1000.7667307745511" stroke="#c8c8c8" stroke-width="1" opacity="0.39"/>
<line x1="373.7108518433342" y1="497.5551369122952" x2="466.31085184333415" y2="497.5551369122952" stroke="#c8c8c8" stroke-width="1" opacity="0.39"/>
<line x1="2.044744492529307" y1="1296.4706546843381" x2="94.6447444925293" y2="1296.4706546843381" stroke="#c8c8c8" stroke-width="1" opacity="0.39"/>
<line x1="349.23816220333714" y1="19.268453130157877" x2="441.8381622033371" y2="19.268453130157877" stroke="#c8c8c8" stroke-width="1" opacity="0.39"/>
<line x1="486.721429827959" y1="833.1120375698023" x2="579.321429827959" y2="833.1120375698023" stroke="#c8c8c8" stroke-width="1" opacity="0.39"/>
<line x1="209.27629003733225" y1="214.25303230725837" x2="301.87629003733224" y2="214.25303230725837" stroke="#c8c8c8" stroke-width="1" opacity="0.39"/>
<line x1="31.3791579154223" y1="197.02351400490082" x2="123.97915791542229" y2="197.02351400490082" stroke="#c8c8c8" stroke-width="1" opacity="0.39"/>
<line x1="330.6573899139917" y1="280.22298229868665" x2="423.2573899139917" y2="280.22298229868665" stroke="#c8c8c8" stroke-width="1" opacity="0.39"/>
<line x1="428.7908025592523" y1="798.9566806698948" x2="521.3908025592523" y2="798.9566806698948" stroke="#c8c8c8" stroke-width="1" opacity="0.39"/>
<line x1="521.3112261338678" y1="551.2132647220108" x2="613.9112261338678" y2="551.2132647220108" stroke="#c8c8c8" stroke-width="1" opacity="0.39"/>
<line x1="33.48735810885549" y1="1076.7288615353075" x2="126.08735810885548" y2="1076.7288615353075" stroke="#c8c8c8" stroke-width="1" opacity="0.39"/>
<line x1="452.96839019887545" y1="287.0159448529668" x2="545.5683901988755" y2="287.0159448529668" stroke="#c8c8c8" stroke-width="1" opacity="0.39"/>
<line x1="222.33945797306458" y1="710.1608637302" x2="314.9394579730646" y2="710.1608637302" stroke="#c8c8c8" stroke-width="1" opacity="0.39"/>
<line x1="405.4898788433009" y1="921.0545901772821" x2="498.0898788433009" y2="921.0545901772821" stroke="#c8c8c8" stroke-width="1" opacity="0.39"/>
<line x1="205.827441311361" y1="751.6634348554832" x2="298.427441311361" y2="751.6634348554832" stroke="#c8c8c8" stroke-width="1" opacity="0.39"/>
<line x1="254.33791649264185" y1="551.1878373805376" x2="346.9379164926419" y2="551.1878373805376" stroke="#c8c8c8" stroke-width="1" opacity="0.39"/>
<line x1="149.9104643566117" y1="113.79894023472394" x2="242.5104643566117" y2="113.79894023472394" stroke="#c8c8c8" stroke-width="1" opacity="0.39"/>
<line x1="402.1569176400811" y1="878.4697477139858" x2="494.75691764008104" y2="878.4697477139858" stroke="#c8c8c8" stroke-width="1" opacity="0.39"/>
<line x1="448.9122464363055" y1="1097.4577372416193" x2="541.5122464363055" y2="1097.4577372416193" stroke="#c8c8c8" stroke-width="1" opacity="0.39"/>
<line x1="250.1577259274934" y1="767.4417439696574" x2="342.7577259274934" y2="767.4417439696574" stroke="#c8c8c8" stroke-width="1" opacity="0.39"/>
<line x1="210.22019157662066" y1="108.99977093050245" x2="302.8201915766207" y2="108.99977093050245" stroke="#c8c8c8" stroke-width="1" opacity="0.39"/>
<line x1="6.925587061292299" y1="1247.8877350910975" x2="99.5255870612923" y2="1247.8877350910975" stroke="#c8c8c8" stroke-width="1" opacity="0.39"/>
<line x1="372.12412136240124" y1="611.0542598231948" x2="464.7241213624012" y2="611.0542598231948" stroke="#c8c8c8" stroke-width="1" opacity="0.39"/>
<line x1="249.23809301538304" y1="972.8293244600434" x2="341.83809301538304" y2="972.8293244600434" stroke="#c8c8c8" stroke-width="1" opacity="0.39"/>
<line x1="189.92582568429683" y1="860.6026951505816" x2="282.5258256842968" y2="860.6026951505816" stroke="#c8c8c8" stroke-width="1" opacity="0.39"/>
<line x1="517.8115870979669" y1="585.4247870787162" x2="610.411587097967" y2="585.4247870787162" stroke="#c8c8c8" stroke-width="1" opacity="0.39"/>
<line x1="96.5684724303747" y1="1209.1517200736105" x2="189.1684724303747" y2="1209.1517200736105" stroke="#c8c8c8" stroke-width="1" opacity="0.39"/>
<line x1="359.14774434601316" y1="521.594918017087" x2="451.7477443460132" y2="521.594918017087" stroke="#c8c8c8" stroke-width="1" opacity="0.39"/>
<line x1="331.3437511079683" y1="532.1649673078978" x2="423.9437511079683" y2="532.1649673078978" stroke="#c8c8c8" stroke-width="1" opacity="0.39"/>
<line x1="302.29555620918774" y1="193.14318904333896" x2="394.8955562091877" y2="193.14318904333896" stroke="#c8c8c8" stroke-width="1" opacity="0.39"/>
<line x1="231.1999530676752" y1="636.6544428452172" x2="323.79995306767523" y2="636.6544428452172" stroke="#c8c8c8" stroke-width="1" opacity="0.39"/>
<line x1="419.8128106164806" y1="464.6510305184177" x2="512.4128106164806" y2="464.6510305184177" stroke="#c8c8c8" stroke-width="1" opacity="0.39"/>
<line x1="77.30973962569132" y1="110.51837062021642" x2="169.90973962569132" y2="110.51837062021642" stroke="#c8c8c8" stroke-width="1" opacity="0.39"/>
<line x1="430.07409473418915" y1="194.38816318027125" x2="522.6740947341891" y2="194.38816318027125" stroke="#c8c8c8" stroke-width="1" opacity="0.39"/>
<line x1="306.83824732286774" y1="1080.4870789314095" x2="399.4382473228677" y2="1080.4870789314095" stroke="#c8c8c8" stroke-width="1" opacity="0.39"/>
<line x1="8.445031646846342" y1="1306.1647475260147" x2="101.04503164684634" y2="1306.1647475260147" stroke="#c8c8c8" stroke-width="1" opacity="0.39"/>
<line x1="222.1397567829768" y1="1091.151112826146" x2="314.73975678297677" y2="1091.151112826146" stroke="#c8c8c8" stroke-width="1" opacity="0.39"/>
<line x1="396.6683937966211" y1="801.0103408251938" x2="489.2683937966211" y2="801.0103408251938" stroke="#c8c8c8" stroke-width="1" opacity="0.39"/>
<line x1="96.65769343108762" y1="245.18929582330833" x2="189.2576934310876" y2="245.18929582330833" stroke="#c8c8c8" stroke-width="1" opacity="0.39"/>
<line x1="190.3397119931596" y1="888.8881180849336" x2="282.93971199315956" y2="888.8881180849336" stroke="#c8c8c8" stroke-width="1" opacity="0.39"/>
<line x1="319.72970023738674" y1="667.3544171579902" x2="412.32970023738676" y2="667.3544171579902" stroke="#c8c8c8" stroke-width="1" opacity="0.39"/>
<line x1="463.6039068473521" y1="923.4663252362359" x2="556.2039068473521" y2="923.4663252362359" stroke="#c8c8c8" stroke-width="1" opacity="0.39"/>
<line x1="387.11434382345266" y1="1121.0760360216145" x2="479.7143438234526" y2="1121.0760360216145" stroke="#c8c8c8" stroke-width="1" opacity="0.39"/>
<line x1="291.178980009248" y1="1335.3300339241187" x2="383.778980009248" y2="1335.3300339241187" stroke="#c8c8c8" stroke-width="1" opacity="0.39"/>
<line x1="482.18453429741066" y1="681.6091779068155" x2="574.7845342974107" y2="681.6091779068155" stroke="#c8c8c8" stroke-width="1" opacity="0.39"/>
<line x1="460.73647520539186" y1="99.90370278242217" x2="553.3364752053918" y2="99.90370278242217" stroke="#c8c8c8" stroke-width="1" opacity="0.39"/>
<line x1="980.4090376758991" y1="262.0662511615391" x2="1021.6090376758991" y2="262.0662511615391" stroke="#c8c8c8" stroke-width="1" opacity="0.39"/>
<line x1="668.839454114828" y1="817.4694750539351" x2="710.039454114828" y2="817.4694750539351" stroke="#c8c8c8" stroke-width="1" opacity="0.39"/>
<line x1="689.6415138941452" y1="325.44035926714554" x2="730.8415138941452" y2="325.44035926714554" stroke="#c8c8c8" stroke-width="1" opacity="0.39"/>
<line x1="688.9390916325799" y1="691.1812845110807" x2="730.13909163258" y2="691.1812845110807" stroke="#c8c8c8" stroke-width="1" opacity="0.39"/>
<line x1="964.5976569245558" y1="623.3617368263015" x2="1005.7976569245559" y2="623.3617368263015" stroke="#c8c8c8" stroke-width="1" opacity="0.39"/>
<line x1="706.8743635001008" y1="40.71255328166883" x2="748.0743635001008" y2="40.71255328166883" stroke="#c8c8c8" stroke-width="1" opacity="0.39"/>
<line x1="735.3133462533883" y1="1055.5402820257193" x2="776.5133462533884" y2="1055.5402820257193" stroke="#c8c8c8" stroke-width="1" opacity="0.39"/>
<line x1="933.8335349009528" y1="1232.6677864569556" x2="975.0335349009529" y2="1232.6677864569556" stroke="#c8c8c8" stroke-width="1" opacity="0.39"/>
<line x1="576.8954587154535" y1="962.0372284958313" x2="618.0954587154536" y2="962.0372284958313" stroke="#c8c8c8" stroke-width="1" opacity="0.39"/>
<line x1="703.3397055432852" y1="342.2368885680274" x2="744.5397055432852" y2="342.2368885680274" stroke="#c8c8c8" stroke-width="1" opacity="0.39"/>
<line x1="764.1315222830193" y1="972.9971771002733" x2="805.3315222830194" y2="972.9971771002733" stroke="#c8c8c8" stroke-width="1" opacity="0.39"/>
<line x1="668.8543081883594" y1="808.9309979271753" x2="710.0543081883594" y2="808.9309979271753" stroke="#c8c8c8" stroke-width="1" opacity="0.39"/>
<line x1="760.0113273691438" y1="1078.7078087584619" x2="801.2113273691439" y2="1078.7078087584619" stroke="#c8c8c8" stroke-width="1" opacity="0.39"/>
<line x1="704.4821334651123" y1="160.89407809120328" x2="745.6821334651123" y2="160.89407809120328" stroke="#c8c8c8" stroke-width="1" opacity="0.39"/>
<line x1="588.4773391710954" y1="1168.5795402008014" x2="629.6773391710955" y2="1168.5795402008014" stroke="#c8c8c8" stroke-width="1" opacity="0.39"/>
<line x1="622.4763822939602" y1="1228.636627471371" x2="663.6763822939603" y2="1228.636627471371" stroke="#c8c8c8" stroke-width="1" opacity="0.39"/>
<line x1="719.4795013309827" y1="628.7803354807106" x2="760.6795013309827" y2="628.7803354807106" stroke="#c8c8c8" stroke-width="1" opacity="0.39"/>
<line x1="634.4314170323458" y1="384.0612040758418" x2="675.6314170323459" y2="384.0612040758418" stroke="#c8c8c8" stroke-width="1" opacity="0.39"/>
<line x1="545.3599548364803" y1="379.54076490343584" x2="586.5599548364803" y2="379.54076490343584" stroke="#c8c8c8" stroke-width="1" opacity="0.39"/>
<line x1="809.9510766332742" y1="75.66533092207524" x2="851.1510766332742" y2="75.66533092207524" stroke="#c8c8c8" stroke-width="1" opacity="0.39"/>
<line x1="760.6423921420436" y1="221.59042964763495" x2="801.8423921420436" y2="221.59042964763495" stroke="#c8c8c8" stroke-width="1" opacity="0.39"/>
<rect x="651.8084028464782" y="1072.5308041845126" width="59.33762075348646" height="51.327122105689526" fill="#b0a2e7" opacity="0.12838837680194864"/>
<rect x="910.3278402799405" y="819.7669796039196" width="76.29145624874693" height="59.7013976230699" fill="#cdbbc0" opacity="0.2641075920338203"/>
<rect x="203.75014862685936" y="18.617095178280536" width="32.856195947554056" height="21.68347060769945" fill="#b8d5e1" opacity="0.29485987807092506"/>
<rect x="542.7191562171649" y="-7.357731646559074" width="34.25363936193922" height="47.24960336842873" fill="#f09e69" opacity="0.20035266412584574"/>
<ellipse cx="239.30231105503734" cy="1212.5037839694432" rx="21.275831466203478" ry="20.733002302419482" fill="#a0a4ed" opacity="0.1647853804789123"/>
<ellipse cx="852.0533470306794" cy="904.7456864755347" rx="25.75186968583235" ry="37.054137975231434" fill="#6777f4" opacity="0.23186409712481537"/>
<rect x="133.0776942442533" y="832.8260053148614" width="56.3848376443539" height="39.13738251037281" fill="#a9c8c6" opacity="0.1460715322065884"/>
<line x1="997.376397120476" y1="1291.3867598825072" x2="1046.3290505513219" y2="1140.1178961340886" stroke="#9ded97" stroke-width="1.5870249572149593" opacity="0.18112414170675029"/>
<line x1="637.4919679749254" y1="472.2546102815562" x2="459.6511461491003" y2="951.3288979191933" stroke="#daf0ea" stroke-width="1.3253040315235518" opacity="0.37234534479339493"/>
<line x1="1014.6866552786373" y1="1145.7886760801957" x2="691.2723401427606" y2="948.9347045072051" stroke="#a99bdf" stroke-width="2.3554344779604275" opacity="0.17378204944874875"/>
<line x1="718.9831212530765" y1="38.74982001201707" x2="523.4900234097103" y2="1011.2819020688916" stroke="#b9f8f5" stroke-width="2.2193534975961566" opacity="0.1791845303059721"/>
<line x1="548.0237105060479" y1="4.108607770925671" x2="887.0707516591394" y2="492.05188774133654" stroke="#adcbe8" stroke-width="2.977043868031839" opacity="0.31835904783401564"/>
<ellipse cx="534.1054918868958" cy="1076.2022500281232" rx="3.2362699519080436" ry="3.2362699519080436" fill="#d5daee" opacity="0.10554427727858552"/>
<ellipse cx="35.131605879930596" cy="664.7354814525394" rx="3.5193681728650668" ry="3.5193681728650668" fill="#ccd7d9" opacity="0.08734951767682249"/>
<ellipse cx="560.874785446038" cy="284.4994427098424" rx="2.506953091131036" ry="2.506953091131036" fill="#d6d3cb" opacity="0.13836319309108291"/>
<ellipse cx="742.0584658263523" cy="974.225092387863" rx="1.4687299730576249" ry="1.4687299730576249" fill="#d7e5ca" opacity="0.11523009750733422"/>
<ellipse cx="597.6218965452266" cy="1245.4749589997693" rx="2.1822175985119387" ry="2.1822175985119387" fill="#dfe5f3" opacity="0.22006509824878118"/>
<ellipse cx="485.4374315614986" cy="765.3938773858332" rx="3.848059655562071" ry="3.848059655562071" fill="#cafecd" opacity="0.2129987128267296"/>
<ellipse cx="233.1125880373235" cy="976.0113228932076" rx="2.1194274430719333" ry="2.1194274430719333" fill="#d2dbe7" opacity="0.15188660344571145"/>
<ellipse cx="157.8443098803257" cy="210.42400459313023" rx="1.6096612813927518" ry="1.6096612813927518" fill="#dae3ec" opacity="0.0998232972487788"/>
<ellipse cx="238.85791193640696" cy="959.9477206170316" rx="2.46804452010805" ry="2.46804452010805" fill="#d2d0dd" opacity="0.11535307007059278"/>
<ellipse cx="463.79338882108846" cy="1319.953734297284" rx="1.1410284043015113" ry="1.1410284043015113" fill="#eeced9" opacity="0.13392949574380825"/>
<ellipse cx="307.3690511227441" cy="796.4908722771755" rx="1.2265121937852874" ry="1.2265121937852874" fill="#d9f5e9" opacity="0.21936665335841496"/>
<ellipse cx="784.9240068276059" cy="271.76114929456315" rx="1.7902908030852167" ry="1.7902908030852167" fill="#d6e4f6" opacity="0.1358725604156498"/>
<ellipse cx="821.2302593240655" cy="446.7686893636215" rx="1.2707886697122774" ry="1.2707886697122774" fill="#c9d3e6" opacity="0.14424853234457508"/>
<ellipse cx="856.1689714603914" cy="178.20398219777456" rx="2.1853065198218946" ry="2.1853065198218946" fill="#dbf8c9" opacity="0.08181994978277139"/>
<ellipse cx="858.9775742120005" cy="868.3371130695274" rx="3.3895832311313523" ry="3.3895832311313523" fill="#f6e6cc" opacity="0.1092687728501848"/>
<ellipse cx="1075.3505306483016" cy="670.8279851222541" rx="1.8007416728887435" ry="1.8007416728887435" fill="#ebd0d7" opacity="0.17792509121011524"/>
<ellipse cx="935.5318884437587" cy="850.7458988813432" rx="2.110289693395742" ry="2.110289693395742" fill="#f5fddd" opacity="0.11831610812380218"/>
<ellipse cx="564.6604016072399" cy="14.073711640235834" rx="1.2033555098824928" ry="1.2033555098824928" fill="#dee2cf" opacity="0.14622080095493312"/>
<ellipse cx="365.48861520620466" cy="957.7253226925271" rx="3.603588820716175" ry="3.603588820716175" fill="#edd0cf" opacity="0.18621761663631609"/>
<ellipse cx="311.58599868024976" cy="440.1234628819504" rx="3.1028175363795913" ry="3.1028175363795913" fill="#d6d8f2" opacity="0.2106724160006114"/>
</svg>