<svg xmlns="http://www.w3.org/2000/svg" width="1080" height="1350" viewBox="0 0 1080 1350">
<rect x="0" y="0" width="1080" height="1350" fill="#fb100105"/>
<ellipse cx="231.76197778049948" cy="332.6033057331123" rx="25.134090872324613" ry="18.245010526351425" fill="#a9a9a9"/>
<ellipse cx="251.0462347630364" cy="332.6033057331123" rx="20.107272697859692" ry="9.122505263175713" fill="#a9a9a9"/>
<ellipse cx="214.954526109244" cy="332.6033057331123" rx="17.593863610627228" ry="7.2980042105405705" fill="#a9a9a9"/>
<ellipse cx="266.46413517485564" cy="235.67653309352534" rx="18.07629292810915" ry="8.124792048944908" fill="#a9a9a9"/>
<ellipse cx="278.9427646279993" cy="235.67653309352534" rx="14.46103434248732" ry="4.062396024472454" fill="#a9a9a9"/>
<ellipse cx="255.0283883638191" cy="235.67653309352534" rx="12.653405049676405" ry="3.2499168195779626" fill="#a9a9a9"/>
<ellipse cx="103.02946333914504" cy="1164.9377574980901" rx="29.773609866177434" ry="23.103293661134877" fill="#a9a9a9"/>
<ellipse cx="128.20575262315336" cy="1164.9377574980901" rx="23.818887892941948" ry="11.551646830567439" fill="#a9a9a9"/>
<ellipse cx="81.13835703116838" cy="1164.9377574980901" rx="20.8415269063242" ry="9.241317464453951" fill="#a9a9a9"/>
<ellipse cx="50.91842832552196" cy="906.2281165766661" rx="23.89883330435684" ry="15.144310853903196" fill="#a9a9a9"/>
<ellipse cx="66.40985426737612" cy="906.2281165766661" rx="19.11906664348547" ry="7.572155426951598" fill="#a9a9a9"/>
<ellipse cx="33.55977598877623" cy="906.2281165766661" rx="16.729183313049788" ry="6.057724341561278" fill="#a9a9a9"/>
<ellipse cx="119.2321515638531" cy="958.9910973603796" rx="30.66226915177015" ry="13.747702458876068" fill="#a9a9a9"/>
<ellipse cx="137.5679123139075" cy="958.9910973603796" rx="24.52981532141612" ry="6.873851229438034" fill="#a9a9a9"/>
<ellipse cx="96.9069175259859" cy="958.9910973603796" rx="21.4635884062391" ry="5.499080983550428" fill="#a9a9a9"/>
<ellipse cx="263.4514619146713" cy="712.5037196616194" rx="36.73910023732813" ry="16.575483340567096" fill="#a9a9a9"/>
<ellipse cx="289.7269287243593" cy="712.5037196616194" rx="29.39128018986251" ry="8.287741670283548" fill="#a9a9a9"/>
<ellipse cx="235.4357651895582" cy="712.5037196616194" rx="25.717370166129694" ry="6.6301933362268395" fill="#a9a9a9"/>
<ellipse cx="411.636600686068" cy="163.8280392455999" rx="33.103443204271635" ry="14.988377986640515" fill="#a9a9a9"/>
<ellipse cx="433.14605287124056" cy="163.8280392455999" rx="26.48275456341731" ry="7.4941889933202575" fill="#a9a9a9"/>
<ellipse cx="385.27669554703573" cy="163.8280392455999" rx="23.172410242990146" ry="5.995351194656206" fill="#a9a9a9"/>
<ellipse cx="220.2063132357813" cy="719.442165232935" rx="15.39823976638478" ry="10.226157250004542" fill="#a9a9a9"/>
<ellipse cx="228.19369973943057" cy="719.442165232935" rx="12.318591813107826" ry="5.113078625002271" fill="#a9a9a9"/>
<ellipse cx="211.8139935048299" cy="719.442165232935" rx="10.778767836469347" ry="4.090462900001818" fill="#a9a9a9"/>
<ellipse cx="26.133867514382054" cy="1348.7617454252959" rx="11.07190244014937" ry="4.81936234569274" fill="#a9a9a9"/>
<ellipse cx="34.344460400297656" cy="1348.7617454252959" rx="8.857521952119496" ry="2.40968117284637" fill="#a9a9a9"/>
<ellipse cx="19.03109832916465" cy="1348.7617454252959" rx="7.750331708104559" ry="1.927744938277096" fill="#a9a9a9"/>
<ellipse cx="816.8995000221298" cy="112.53111367697414" rx="33.62709377988939" ry="12.646830756131227" fill="#a9a9a9"/>
<ellipse cx="839.689116456833" cy="112.53111367697414" rx="26.90167502391152" ry="6.323415378065613" fill="#a9a9a9"/>
<ellipse cx="794.4639868807935" cy="112.53111367697414" rx="23.538965645922577" ry="5.0587323024524915" fill="#a9a9a9"/>
<ellipse cx="829.482236043309" cy="504.32106279969264" rx="20.43408041636782" ry="9.170022616173624" fill="#a9a9a9"/>
<ellipse cx="843.4733583537625" cy="504.32106279969264" rx="16.34726433309426" ry="4.585011308086812" fill="#a9a9a9"/>
<ellipse cx="817.7901816084111" cy="504.32106279969264" rx="14.303856291457473" ry="3.6680090464694497" fill="#a9a9a9"/>
<ellipse cx="593.0576080330916" cy="551.2242886010671" rx="17.82367916847049" ry="7.139437471969592" fill="#a9a9a9"/>
<ellipse cx="603.4551147151583" cy="551.2242886010671" rx="14.258943334776394" ry="3.569718735984796" fill="#a9a9a9"/>
<ellipse cx="583.5818152644271" cy="551.2242886010671" rx="12.476575417929345" ry="2.855774988787837" fill="#a9a9a9"/>
<ellipse cx="798.354213358068" cy="1094.6369116635235" rx="31.15654883557097" ry="18.71699288802032" fill="#a9a9a9"/>
<ellipse cx="821.8591038469785" cy="1094.6369116635235" rx="24.92523906845678" ry="9.35849644401016" fill="#a9a9a9"/>
<ellipse cx="769.9896808116268" cy="1094.6369116635235" rx="21.809584184899677" ry="7.486797155208129" fill="#a9a9a9"/>
<ellipse cx="894.9965860112554" cy="359.8927976376809" rx="28.849580019371047" ry="20.494014230458305" fill="#a9a9a9"/>
<ellipse cx="916.3522528596628" cy="359.8927976376809" rx="23.07966401549684" ry="10.247007115229152" fill="#a9a9a9"/>
<ellipse cx="871.2153894764836" cy="359.8927976376809" rx="20.19470601355973" ry="8.197605692183323" fill="#a9a9a9"/>
<ellipse cx="1064.3800165710877" cy="175.22721298748033" rx="32.27257293250982" ry="20.710312908848625" fill="#a9a9a9"/>
<ellipse cx="1080.9613680037219" cy="175.22721298748033" rx="25.818058346007856" ry="10.355156454424312" fill="#a9a9a9"/>
<ellipse cx="1045.995106096868" cy="175.22721298748033" rx="22.59080105275687" ry="8.28412516353945" fill="#a9a9a9"/>
<ellipse cx="825.3299189942563" cy="495.39767526807157" rx="29.004636689833568" ry="13.949568201755612" fill="#a9a9a9"/>
<ellipse cx="841.8300452094498" cy="495.39767526807157" rx="23.20370935186686" ry="6.974784100877806" fill="#a9a9a9"/>
<ellipse cx="806.026346677472" cy="495.39767526807157" rx="20.303245682883496" ry="5.579827280702245" fill="#a9a9a9"/>
<ellipse cx="840.2690936533124" cy="236.17140065700346" rx="19.882634638509696" ry="12.318071430084947" fill="#a9a9a9"/>
<ellipse cx="850.9707617836062" cy="236.17140065700346" rx="15.906107710807758" ry="6.1590357150424735" fill="#a9a9a9"/>
<ellipse cx="829.1818923194321" cy="236.17140065700346" rx="13.917844246956788" ry="4.927228572033979" fill="#a9a9a9"/>
<ellipse cx="623.4786701591121" cy="25.032775115702663" rx="28.53999108211773" ry="15.227092358300526" fill="#a9a9a9"/>
<ellipse cx="641.4639887546646" cy="25.032775115702663" rx="22.831992865694183" ry="7.613546179150263" fill="#a9a9a9"/>
<ellipse cx="604.158106975149" cy="25.032775115702663" rx="19.97799375748241" ry="6.090836943320211" fill="#a9a9a9"/>
<ellipse cx="823.4059382804696" cy="1125.9957437990213" rx="26.91914764640573" ry="17.85042816543579" fill="#a9a9a9"/>
<ellipse cx="847.1160217449213" cy="1125.9957437990213" rx="21.535318117124582" ry="8.925214082717895" fill="#a9a9a9"/>
<ellipse cx="807.0417499650513" cy="1125.9957437990213" rx="18.84340335248401" ry="7.140171266174316" fill="#a9a9a9"/>
<path d="M 0,675 L 10,671.1696553022712 L 20,667.4920143602892 L 30,664.1136931129437 L 40,661.1693745674572 L 50,658.7764394129038 L 60,657.0302864225519 L 70,656.0005292058224 L 80,655.7282209333598 L 90,656.2242176766684 L 100,657.4687456108009 L 110,659.4121893343583 L 120,661.9770698789738 L 130,665.0611335512822 L 140,668.5414284649942 L 150,672.2792062446058 L 160,676.1254534852837 L 170,679.9268324470773 L 180,683.5317941467248 L 190,686.7966201373756 L 200,689.5911521095369 L 210,691.803980892134 L 220,693.3468879845899 L 230,694.1583625500532 L 240,694.206053658355 L 250,693.4880600155053 L 260,692.0330057622846 L 270,689.8988993200794 L 280,687.1708207781784 L 290,683.9575300190972 L 300,680.3871308052753 L 310,676.6019636863214 L 320,672.7529313304825 L 330,668.993482511462 L 340,665.4734945900476 L 350,662.3332983767017 L 360,659.6980835849884 L 370,657.6729079127518 L 380,656.338508723233 L 390,655.7480843011776 L 400,655.9251730051012 L 410,656.862714867214 L 420,658.523333052058 L 430,660.8408239529871 L 440,663.7227965210468 L 450,667.054355604539 L 460,670.7026824561473 L 470,674.5223297972593 L 480,678.361020341979 L 490,682.0657176119772 L 500,685.4887270179471 L 510,688.4935839768035 L 520,690.9604943239714 L 530,692.7911101286949" fill="none" stroke="#ff6464" stroke-width="3" opacity="0.59"/>
<path d="M 540,663.6015210066274 L 550,663.3801137998809 L 560,663.6219547872616 L 570,664.3174025317765 L 580,665.4387317264636 L 590,666.9412385148898 L 600,668.7650226928349 L 610,670.8373757404081 L 620,673.0756794812906 L 630,675.3906998087097 L 640,677.6901441676799 L 650,679.8823409679255 L 660,681.8798942408979 L 670,683.6031678412475 L 680,684.9834602886325 L 690,685.9657436789405 L 700,686.5108574731744 L 710,686.5970697045641 L 720,686.2209433635026 L 730,685.3974734202726 L 740,684.1594890229012 L 750,682.5563447026257 L 760,680.6519527644812 L 770,678.522235305385 L 780,676.2520974397196 L 790,673.9320424003544 L 800,671.6545634603519 L 810,669.5104565180499 L 820,667.5852003511169 L 830,665.9555488474315 L 840,664.6864710697829 L 850,663.8285611443596 L 860,663.4160212325967 L 870,663.4652979989312 L 880,663.9744269341915 L 890,664.9231106743775 L 900,666.2735281925131 L 910,667.971842603639 L 920,669.9503474715247 L 930,672.1301660506205 L 940,674.4243958529934 L 950,676.7415731762835 L 960,678.9893194728871 L 970,681.0780241911325 L 980,682.9244172651918 L 990,684.4548888298326 L 1000,685.608423813455 L 1010,686.3390344164523 L 1020,686.6175934996578 L 1030,686.4329957914683 L 1040,685.7926006199775 L 1050,684.721938519789 L 1060,683.2636934101675 L 1070,681.4760009218752" fill="none" stroke="#ff6464" stroke-width="3" opacity="0.59"/>
<ellipse cx="141.02487786720732" cy="945.6545774571853" rx="1.5" ry="1.5" fill="#6496ff" opacity="0.4843137254901961"/>
<ellipse cx="536.8426969167044" cy="46.59125807070698" rx="1.5" ry="1.5" fill="#6496ff" opacity="0.4843137254901961"/>
<ellipse cx="316.3282461447307" cy="55.6902230045247" rx="1.5" ry="1.5" fill="#6496ff" opacity="0.4843137254901961"/>
<ellipse cx="361.73330264246715" cy="860.7061747744242" rx="1.5" ry="1.5" fill="#6496ff" opacity="0.4843137254901961"/>
<ellipse cx="74.77324966097868" cy="351.6521261779834" rx="1.5" ry="1.5" fill="#6496ff" opacity="0.4843137254901961"/>
<ellipse cx="377.34979408669744" cy="1295.944852240358" rx="1.5" ry="1.5" fill="#6496ff" opacity="0.4843137254901961"/>
<ellipse cx="484.23011563915304" cy="817.7318755619842" rx="1.5" ry="1.5" fill="#6496ff" opacity="0.4843137254901961"/>
<ellipse cx="193.9587951609673" cy="405.73555846034344" rx="1.5" ry="1.5" fill="#6496ff" opacity="0.4843137254901961"/>
<ellipse cx="316.43695607615496" cy="1172.0744317267438" rx="1.5" ry="1.5" fill="#6496ff" opacity="0.4843137254901961"/>
<ellipse cx="453.1575181210216" cy="1300.1316732261944" rx="1.5" ry="1.5" fill="#6496ff" opacity="0.4843137254901961"/>
<ellipse cx="357.75207297771806" cy="943.5785476786916" rx="1.5" ry="1.5" fill="#6496ff" opacity="0.4843137254901961"/>
<ellipse cx="233.41275941273793" cy="923.8353435526767" rx="1.5" ry="1.5" fill="#6496ff" opacity="0.4843137254901961"/>
<ellipse cx="102.18913798322396" cy="963.4698499755328" rx="1.5" ry="1.5" fill="#6496ff" opacity="0.4843137254901961"/>
<ellipse cx="480.31127952053737" cy="1073.8938336604713" rx="1.5" ry="1.5" fill="#6496ff" opacity="0.4843137254901961"/>
<ellipse cx="21.598434458299742" cy="704.4288087191194" rx="1.5" ry="1.5" fill="#6496ff" opacity="0.4843137254901961"/>
<ellipse cx="430.70562621145774" cy="325.73502674965886" rx="1.5" ry="1.5" fill="#6496ff" opacity="0.4843137254901961"/>
<ellipse cx="532.542209277182" cy="674.2484453479985" rx="1.5" ry="1.5" fill="#6496ff" opacity="0.4843137254901961"/>
<ellipse cx="225.04046927440933" cy="526.5690209933413" rx="1.5" ry="1.5" fill="#6496ff" opacity="0.4843137254901961"/>
<ellipse cx="216.1199141555093" cy="1319.1064244690847" rx="1.5" ry="1.5" fill="#6496ff" opacity="0.4843137254901961"/>
<ellipse cx="80.496783294015" cy="1092.6138689241436" rx="1.5" ry="1.5" fill="#6496ff" opacity="0.4843137254901961"/>
<ellipse cx="497.91066908180284" cy="160.16022570438693" rx="1.5" ry="1.5" fill="#6496ff" opacity="0.4843137254901961"/>
<ellipse cx="230.05559395535644" cy="172.62847431592107" rx="1.5" ry="1.5" fill="#6496ff" opacity="0.4843137254901961"/>
<ellipse cx="536.003996979447" cy="680.8090213131202" rx="1.5" ry="1.5" fill="#6496ff" opacity="0.4843137254901961"/>
<ellipse cx="481.0889055584971" cy="1292.388725882577" rx="1.5" ry="1.5" fill="#6496ff" opacity="0.4843137254901961"/>
<ellipse cx="385.37807482545173" cy="1301.5193945269657" rx="1.5" ry="1.5" fill="#6496ff" opacity="0.4843137254901961"/>
<ellipse cx="1.9517898568659042" cy="1102.720106231384" rx="1.5" ry="1.5" fill="#6496ff" opacity="0.4843137254901961"/>
<ellipse cx="151.08437068345228" cy="731.9672230314311" rx="1.5" ry="1.5" fill="#6496ff" opacity="0.4843137254901961"/>
<ellipse cx="331.75007358740555" cy="507.7560069541242" rx="1.5" ry="1.5" fill="#6496ff" opacity="0.4843137254901961"/>
<ellipse cx="501.3168384979092" cy="750.0998142874333" rx="1.5" ry="1.5" fill="#6496ff" opacity="0.4843137254901961"/>
<ellipse cx="420.9638645225036" cy="1095.9554319716783" rx="1.5" ry="1.5" fill="#6496ff" opacity="0.4843137254901961"/>
<ellipse cx="23.257069598537438" cy="1310.1605466148633" rx="1.5" ry="1.5" fill="#6496ff" opacity="0.4843137254901961"/>
<ellipse cx="165.51905401308045" cy="990.903658136215" rx="1.5" ry="1.5" fill="#6496ff" opacity="0.4843137254901961"/>
<ellipse cx="368.15964477516695" cy="285.0007475749593" rx="1.5" ry="1.5" fill="#6496ff" opacity="0.4843137254901961"/>
<ellipse cx="255.56816530207553" cy="490.4901983637783" rx="1.5" ry="1.5" fill="#6496ff" opacity="0.4843137254901961"/>
<ellipse cx="66.18627551299812" cy="210.88990429923402" rx="1.5" ry="1.5" fill="#6496ff" opacity="0.4843137254901961"/>
<ellipse cx="180.97388871990793" cy="1290.8974444916926" rx="1.5" ry="1.5" fill="#6496ff" opacity="0.4843137254901961"/>
<ellipse cx="225.91426859885186" cy="214.42909250707788" rx="1.5" ry="1.5" fill="#6496ff" opacity="0.4843137254901961"/>
<ellipse cx="517.158410193938" cy="1208.0695694350031" rx="1.5" ry="1.5" fill="#6496ff" opacity="0.4843137254901961"/>
<ellipse cx="268.5342909156039" cy="281.6169799685557" rx="1.5" ry="1.5" fill="#6496ff" opacity="0.4843137254901961"/>
<ellipse cx="300.58228447129125" cy="341.3530470530284" rx="1.5" ry="1.5" fill="#6496ff" opacity="0.4843137254901961"/>
<ellipse cx="449.9270870396528" cy="38.75094653980385" rx="1.5" ry="1.5" fill="#6496ff" opacity="0.4843137254901961"/>
<ellipse cx="177.97943101170446" cy="865.9686688640941" rx="1.5" ry="1.5" fill="#6496ff" opacity="0.4843137254901961"/>
<ellipse cx="115.56076532023063" cy="388.40589988436824" rx="1.5" ry="1.5" fill="#6496ff" opacity="0.4843137254901961"/>
<ellipse cx="328.30553785353226" cy="776.4900151530701" rx="1.5" ry="1.5" fill="#6496ff" opacity="0.4843137254901961"/>
<ellipse cx="245.07637750593776" cy="703.1112137730752" rx="1.5" ry="1.5" fill="#6496ff" opacity="0.4843137254901961"/>
<ellipse cx="27.098529351455404" cy="756.2228549067969" rx="1.5" ry="1.5" fill="#6496ff" opacity="0.4843137254901961"/>
<ellipse cx="367.3940564912716" cy="1029.3045763994123" rx="1.5" ry="1.5" fill="#6496ff" opacity="0.4843137254901961"/>
<ellipse cx="190.4413891725435" cy="982.5543169782284" rx="1.5" ry="1.5" fill="#6496ff" opacity="0.4843137254901961"/>
<ellipse cx="48.45820429197429" cy="1141.5505578469254" rx="1.5" ry="1.5" fill="#6496ff" opacity="0.4843137254901961"/>
<ellipse cx="834.2968870579716" cy="1083.223253992956" rx="1.5" ry="1.5" fill="#ff9664" opacity="0.49019607843137253"/>
<ellipse cx="905.2447058471128" cy="325.3661693657591" rx="1.5" ry="1.5" fill="#ff9664" opacity="0.49019607843137253"/>
<ellipse cx="574.0723318020218" cy="1196.8100046724128" rx="1.5" ry="1.5" fill="#ff9664" opacity="0.49019607843137253"/>
<ellipse cx="923.8153554796313" cy="1249.1036659335268" rx="1.5" ry="1.5" fill="#ff9664" opacity="0.49019607843137253"/>
<ellipse cx="700.4687977584399" cy="1327.0104652862112" rx="1.5" ry="1.5" fill="#ff9664" opacity="0.49019607843137253"/>
<ellipse cx="1034.3927481092478" cy="204.88064298633515" rx="1.5" ry="1.5" fill="#ff9664" opacity="0.49019607843137253"/>
<ellipse cx="954.2200346729811" cy="333.0336393476621" rx="1.5" ry="1.5" fill="#ff9664" opacity="0.49019607843137253"/>
<ellipse cx="758.7402177875583" cy="1276.9776648268933" rx="1.5" ry="1.5" fill="#ff9664" opacity="0.49019607843137253"/>
<ellipse cx="661.9165063472076" cy="271.59349782000925" rx="1.5" ry="1.5" fill="#ff9664" opacity="0.49019607843137253"/>
<ellipse cx="979.0800084728189" cy="1197.1507793279136" rx="1.5" ry="1.5" fill="#ff9664" opacity="0.49019607843137253"/>
<ellipse cx="694.7272396808152" cy="862.6067880832621" rx="1.5" ry="1.5" fill="#ff9664" opacity="0.49019607843137253"/>
<ellipse cx="1078.843603385074" cy="1273.183036443397" rx="1.5" ry="1.5" fill="#ff9664" opacity="0.49019607843137253"/>
<ellipse cx="554.577398306959" cy="1241.6969418719862" rx="1.5" ry="1.5" fill="#ff9664" opacity="0.49019607843137253"/>
<ellipse cx="835.0238515320345" cy="931.5438513325266" rx="1.5" ry="1.5" fill="#ff9664" opacity="0.49019607843137253"/>
<ellipse cx="861.1108876769947" cy="805.1049474650551" rx="1.5" ry="1.5" fill="#ff9664" opacity="0.49019607843137253"/>
<ellipse cx="655.5621815265912" cy="501.6763376545516" rx="1.5" ry="1.5" fill="#ff9664" opacity="0.49019607843137253"/>
<ellipse cx="839.9117590393461" cy="251.43504750516036" rx="1.5" ry="1.5" fill="#ff9664" opacity="0.49019607843137253"/>
<ellipse cx="848.0191703084945" cy="173.49525698157737" rx="1.5" ry="1.5" fill="#ff9664" opacity="0.49019607843137253"/>
<ellipse cx="730.0872249296341" cy="729.7983351767988" rx="1.5" ry="1.5" fill="#ff9664" opacity="0.49019607843137253"/>
<ellipse cx="607.2829985931902" cy="55.81933113551668" rx="1.5" ry="1.5" fill="#ff9664" opacity="0.49019607843137253"/>
<ellipse cx="578.0280053792652" cy="1033.5575004264515" rx="1.5" ry="1.5" fill="#ff9664" opacity="0.49019607843137253"/>
<ellipse cx="1069.433040865433" cy="674.1489890376799" rx="1.5" ry="1.5" fill="#ff9664" opacity="0.49019607843137253"/>
<ellipse cx="1063.2017328791328" cy="434.2230321998815" rx="1.5" ry="1.5" fill="#ff9664" opacity="0.49019607843137253"/>
<ellipse cx="715.8284569605386" cy="826.079607394561" rx="1.5" ry="1.5" fill="#ff9664" opacity="0.49019607843137253"/>
<ellipse cx="787.6110650261916" cy="1299.633265146815" rx="1.5" ry="1.5" fill="#ff9664" opacity="0.49019607843137253"/>
<ellipse cx="852.3239709401149" cy="627.1618369161905" rx="1.5" ry="1.5" fill="#ff9664" opacity="0.49019607843137253"/>
<ellipse cx="638.7806511385277" cy="679.0877270880563" rx="1.5" ry="1.5" fill="#ff9664" opacity="0.49019607843137253"/>
<ellipse cx="974.0473582381603" cy="1161.8696993039314" rx="1.5" ry="1.5" fill="#ff9664" opacity="0.49019607843137253"/>
<ellipse cx="935.3674151354318" cy="1187.576419668075" rx="1.5" ry="1.5" fill="#ff9664" opacity="0.49019607843137253"/>
<ellipse cx="898.3972193479526" cy="629.7752204489778" rx="1.5" ry="1.5" fill="#ff9664" opacity="0.49019607843137253"/>
<ellipse cx="946.0286166174471" cy="687.4315563065147" rx="1.5" ry="1.5" fill="#ff9664" opacity="0.49019607843137253"/>
<ellipse cx="990.0304057309546" cy="815.9806076511651" rx="1.5" ry="1.5" fill="#ff9664" opacity="0.49019607843137253"/>
<ellipse cx="659.2514634687693" cy="662.6788842783677" rx="1.5" ry="1.5" fill="#ff9664" opacity="0.49019607843137253"/>
<ellipse cx="1000.1000835653861" cy="9.378826622561936" rx="1.5" ry="1.5" fill="#ff9664" opacity="0.49019607843137253"/>
<ellipse cx="681.3589094492415" cy="1152.9410009984583" rx="1.5" ry="1.5" fill="#ff9664" opacity="0.49019607843137253"/>
<ellipse cx="957.964596942982" cy="405.21751661096584" rx="1.5" ry="1.5" fill="#ff9664" opacity="0.49019607843137253"/>
<ellipse cx="805.2089740080801" cy="881.1169270803765" rx="1.5" ry="1.5" fill="#ff9664" opacity="0.49019607843137253"/>
<ellipse cx="943.192792126533" cy="796.4046124352163" rx="1.5" ry="1.5" fill="#ff9664" opacity="0.49019607843137253"/>
<ellipse cx="900.5366565475877" cy="540.8205630913473" rx="1.5" ry="1.5" fill="#ff9664" opacity="0.49019607843137253"/>
<ellipse cx="761.1541415290693" cy="1296.4387542085904" rx="1.5" ry="1.5" fill="#ff9664" opacity="0.49019607843137253"/>
<ellipse cx="864.7205401979018" cy="365.4015185150325" rx="1.5" ry="1.5" fill="#ff9664" opacity="0.49019607843137253"/>
<ellipse cx="595.8916139862927" cy="82.0289656901867" rx="1.5" ry="1.5" fill="#ff9664" opacity="0.49019607843137253"/>
<ellipse cx="791.4235891082434" cy="210.92003891753035" rx="1.5" ry="1.5" fill="#ff9664" opacity="0.49019607843137253"/>
<ellipse cx="1045.2446063725486" cy="1116.2684982252626" rx="1.5" ry="1.5" fill="#ff9664" opacity="0.49019607843137253"/>
<ellipse cx="672.4919629713949" cy="277.07481993226094" rx="1.5" ry="1.5" fill="#ff9664" opacity="0.49019607843137253"/>
<ellipse cx="543.4034818426722" cy="344.30913140266625" rx="1.5" ry="1.5" fill="#ff9664" opacity="0.49019607843137253"/>
<ellipse cx="787.4519993026984" cy="972.7581922769352" rx="1.5" ry="1.5" fill="#ff9664" opacity="0.49019607843137253"/>
<ellipse cx="850.5524899021502" cy="200.381130073397" rx="1.5" ry="1.5" fill="#ff9664" opacity="0.49019607843137253"/>
<ellipse cx="957.3442502773107" cy="1199.1315370421537" rx="1.5" ry="1.5" fill="#ff9664" opacity="0.49019607843137253"/>
<ellipse cx="908.0462838933088" cy="1281.8534380206156" rx="1.5" ry="1.5" fill="#ff9664" opacity="0.49019607843137253"/>
<line x1="221.08835230632144" y1="820.8756927498038" x2="329.08835230632144" y2="820.8756927498038" stroke="#c8c8c8" stroke-width="1" opacity="0.39"/>
<line x1="171.01335533476126" y1="456.5913679341745" x2="279.0133553347613" y2="456.5913679341745" stroke="#c8c8c8" stroke-width="1" opacity="0.39"/>
<line x1="126.45898824858432" y1="436.5224765783746" x2="234.45898824858432" y2="436.5224765783746" stroke="#c8c8c8" stroke-width="1" opacity="0.39"/>
<line x1="86.03447202874091" y1="837.5868071045666" x2="194.0344720287409" y2="837.5868071045666" stroke="#c8c8c8" stroke-width="1" opacity="0.39"/>
<line x1="368.1460620687092" y1="425.9070040778755" x2="476.1460620687092" y2="425.9070040778755" stroke="#c8c8c8" stroke-width="1" opacity="0.39"/>
<line x1="233.3448458804492" y1="278.366625438615" x2="341.3448458804492" y2="278.366625438615" stroke="#c8c8c8" stroke-width="1" opacity="0.39"/>
<line x1="531.072637686074" y1="340.12030378920974" x2="639.072637686074" y2="340.12030378920974" stroke="#c8c8c8" stroke-width="1" opacity="0.39"/>
<line x1="236.26248847519165" y1="331.51749387919784" x2="344.2624884751916" y2="331.51749387919784" stroke="#c8c8c8" stroke-width="1" opacity="0.39"/>
<line x1="403.81669540135965" y1="133.54471928139438" x2="511.81669540135965" y2="133.54471928139438" stroke="#c8c8c8" stroke-width="1" opacity="0.39"/>
<line x1="419.0592118068874" y1="1278.1193202725237" x2="527.0592118068873" y2="1278.1193202725237" stroke="#c8c8c8" stroke-width="1" opacity="0.39"/>
<line x1="397.1980549754566" y1="1314.1540473858613" x2="505.1980549754566" y2="1314.1540473858613" stroke="#c8c8c8" stroke-width="1" opacity="0.39"/>
<line x1="277.38435758155975" y1="233.119154084995" x2="385.38435758155975" y2="233.119154084995" stroke="#c8c8c8" stroke-width="1" opacity="0.39"/>
<line x1="425.8048601941228" y1="1051.2633388169406" x2="533.8048601941227" y2="1051.2633388169406" stroke="#c8c8c8" stroke-width="1" opacity="0.39"/>
<line x1="201.55802974549962" y1="581.8797650662623" x2="309.55802974549965" y2="581.8797650662623" stroke="#c8c8c8" stroke-width="1" opacity="0.39"/>
<line x1="483.45570825201264" y1="1224.8516148071976" x2="591.4557082520126" y2="1224.8516148071976" stroke="#c8c8c8" stroke-width="1" opacity="0.39"/>
<line x1="109.28420310341018" y1="1315.3382292554427" x2="217.28420310341016" y2="1315.3382292554427" stroke="#c8c8c8" stroke-width="1" opacity="0.39"/>
<line x1="495.5152847690113" y1="396.23941201541544" x2="603.5152847690113" y2="396.23941201541544" stroke="#c8c8c8" stroke-width="1" opacity="0.39"/>
<line x1="490.09662174158575" y1="107.49553447006994" x2="598.0966217415857" y2="107.49553447006994" stroke="#c8c8c8" stroke-width="1" opacity="0.39"/>
<line x1="0.7659262422313571" y1="111.14346844197412" x2="108.76592624223136" y2="111.14346844197412" stroke="#c8c8c8" stroke-width="1" opacity="0.39"/>
<line x1="240.3159768508356" y1="321.19367137606895" x2="348.31597685083557" y2="321.19367137606895" stroke="#c8c8c8" stroke-width="1" opacity="0.39"/>
<line x1="98.3879918318186" y1="1151.98079699277" x2="206.3879918318186" y2="1151.98079699277" stroke="#c8c8c8" stroke-width="1" opacity="0.39"/>
<line x1="34.72705365844399" y1="820.4602051621583" x2="142.727053658444" y2="820.4602051621583" stroke="#c8c8c8" stroke-width="1" opacity="0.39"/>
<line x1="536.2687471025944" y1="1022.9902272219724" x2="644.2687471025944" y2="1022.9902272219724" stroke="#c8c8c8" stroke-width="1" opacity="0.39"/>
<line x1="139.91603857833707" y1="1048.2707982176314" x2="247.91603857833707" y2="1048.2707982176314" stroke="#c8c8c8" stroke-width="1" opacity="0.39"/>
<line x1="393.12549609370785" y1="688.9612201084202" x2="501.12549609370785" y2="688.9612201084202" stroke="#c8c8c8" stroke-width="1" opacity="0.39"/>
<line x1="339.7669603022593" y1="215.65475473909396" x2="447.7669603022593" y2="215.65475473909396" stroke="#c8c8c8" stroke-width="1" opacity="0.39"/>
<line x1="100.20665829079536" y1="1057.2719966328107" x2="208.20665829079536" y2="1057.2719966328107" stroke="#c8c8c8" stroke-width="1" opacity="0.39"/>
<line x1="341.0434772172214" y1="204.41747913342783" x2="449.0434772172214" y2="204.41747913342783" stroke="#c8c8c8" stroke-width="1" opacity="0.39"/>
<line x1="525.2687665285863" y1="291.8172062802209" x2="633.2687665285863" y2="291.8172062802209" stroke="#c8c8c8" stroke-width="1" opacity="0.39"/>
<line x1="153.43470997802666" y1="1035.1612334303377" x2="261.43470997802666" y2="1035.1612334303377" stroke="#c8c8c8" stroke-width="1" opacity="0.39"/>
<line x1="176.58265122053336" y1="1134.0999846971129" x2="284.58265122053336" y2="1134.0999846971129" stroke="#c8c8c8" stroke-width="1" opacity="0.39"/>
<line x1="393.9059545443887" y1="1133.996987870893" x2="501.9059545443887" y2="1133.996987870893" stroke="#c8c8c8" stroke-width="1" opacity="0.39"/>
<line x1="106.75904278958171" y1="1112.635486346034" x2="214.7590427895817" y2="1112.635486346034" stroke="#c8c8c8" stroke-width="1" opacity="0.39"/>
<line x1="215.6407857945379" y1="1043.1124274819683" x2="323.6407857945379" y2="1043.1124274819683" stroke="#c8c8c8" stroke-width="1" opacity="0.39"/>
<line x1="15.71931124465508" y1="528.2557901592254" x2="123.71931124465507" y2="528.2557901592254" stroke="#c8c8c8" stroke-width="1" opacity="0.39"/>
<line x1="31.51284457720483" y1="120.17721986406353" x2="139.51284457720482" y2="120.17721986406353" stroke="#c8c8c8" stroke-width="1" opacity="0.39"/>
<line x1="423.98556609823623" y1="328.7272454838861" x2="531.9855660982362" y2="328.7272454838861" stroke="#c8c8c8" stroke-width="1" opacity="0.39"/>
<line x1="287.76489271212597" y1="1339.378452924722" x2="395.76489271212597" y2="1339.378452924722" stroke="#c8c8c8" stroke-width="1" opacity="0.39"/>
<line x1="155.4778290518922" y1="145.93877799154203" x2="263.4778290518922" y2="145.93877799154203" stroke="#c8c8c8" stroke-width="1" opacity="0.39"/>
<line x1="70.14085474896285" y1="941.9284258698711" x2="178.14085474896285" y2="941.9284258698711" stroke="#c8c8c8" stroke-width="1" opacity="0.39"/>
<line x1="4.895825388327159" y1="75.9109491835865" x2="112.89582538832715" y2="75.9109491835865" stroke="#c8c8c8" stroke-width="1" opacity="0.39"/>
<line x1="199.00313714472722" y1="1299.436846980563" x2="307.00313714472725" y2="1299.436846980563" stroke="#c8c8c8" stroke-width="1" opacity="0.39"/>
<line x1="376.0227443538712" y1="1070.032418272473" x2="484.0227443538712" y2="1070.032418272473" stroke="#c8c8c8" stroke-width="1" opacity="0.39"/>
<line x1="483.2187511786906" y1="68.1024670918018" x2="591.2187511786906" y2="68.1024670918018" stroke="#c8c8c8" stroke-width="1" opacity="0.39"/>
<line x1="49.170572184571334" y1="1264.4588029312245" x2="157.17057218457134" y2="1264.4588029312245" stroke="#c8c8c8" stroke-width="1" opacity="0.39"/>
<line x1="223.7217236606971" y1="105.74233536875916" x2="331.7217236606971" y2="105.74233536875916" stroke="#c8c8c8" stroke-width="1" opacity="0.39"/>
<line x1="146.7995900599284" y1="38.623648899897766" x2="254.7995900599284" y2="38.623648899897766" stroke="#c8c8c8" stroke-width="1" opacity="0.39"/>
<line x1="463.4900450629602" y1="1086.364013462497" x2="571.4900450629602" y2="1086.364013462497" stroke="#c8c8c8" stroke-width="1" opacity="0.39"/>
<line x1="106.80584197249536" y1="192.0722232163289" x2="214.80584197249536" y2="192.0722232163289" stroke="#c8c8c8" stroke-width="1" opacity="0.39"/>
<line x1="504.6282186473851" y1="938.1884340840338" x2="612.6282186473851" y2="938.1884340840338" stroke="#c8c8c8" stroke-width="1" opacity="0.39"/>
<line x1="424.92602368114797" y1="377.566409286841" x2="532.926023681148" y2="377.566409286841" stroke="#c8c8c8" stroke-width="1" opacity="0.39"/>
<line x1="161.57137878312327" y1="1149.5585208523826" x2="269.57137878312324" y2="1149.5585208523826" stroke="#c8c8c8" stroke-width="1" opacity="0.39"/>
<line x1="135.81805235511533" y1="475.72238467434534" x2="243.81805235511533" y2="475.72238467434534" stroke="#c8c8c8" stroke-width="1" opacity="0.39"/>
<line x1="32.57815362539988" y1="1257.1078470242712" x2="140.57815362539986" y2="1257.1078470242712" stroke="#c8c8c8" stroke-width="1" opacity="0.39"/>
<line x1="861.7743803568997" y1="1222.3050182789123" x2="902.9743803568997" y2="1222.3050182789123" stroke="#c8c8c8" stroke-width="1" opacity="0.39"/>
<line x1="853.0768133667656" y1="213.42406878872964" x2="894.2768133667656" y2="213.42406878872964" stroke="#c8c8c8" stroke-width="1" opacity="0.39"/>
<line x1="959.4514365957359" y1="862.5182751857295" x2="1000.651436595736" y2="862.5182751857295" stroke="#c8c8c8" stroke-width="1" opacity="0.39"/>
<line x1="1026.139226186154" y1="347.7942110727514" x2="1067.339226186154" y2="347.7942110727514" stroke="#c8c8c8" stroke-width="1" opacity="0.39"/>
<line x1="945.1270725229415" y1="7.773363593860233" x2="986.3270725229415" y2="7.773363593860233" stroke="#c8c8c8" stroke-width="1" opacity="0.39"/>
<line x1="950.7064246808675" y1="1309.342969073608" x2="991.9064246808675" y2="1309.342969073608" stroke="#c8c8c8" stroke-width="1" opacity="0.39"/>
<line x1="613.3892298086496" y1="1337.3607209591944" x2="654.5892298086496" y2="1337.3607209591944" stroke="#c8c8c8" stroke-width="1" opacity="0.39"/>
<line x1="782.1791411573902" y1="809.3571070625247" x2="823.3791411573902" y2="809.3571070625247" stroke="#c8c8c8" stroke-width="1" opacity="0.39"/>
<line x1="1070.680461176988" y1="299.35544743172613" x2="1111.880461176988" y2="299.35544743172613" stroke="#c8c8c8" stroke-width="1" opacity="0.39"/>
<line x1="844.3542213665108" y1="854.1393224402049" x2="885.5542213665109" y2="854.1393224402049" stroke="#c8c8c8" stroke-width="1" opacity="0.39"/>
<line x1="671.1330485954569" y1="202.5775776256703" x2="712.333048595457" y2="202.5775776256703" stroke="#c8c8c8" stroke-width="1" opacity="0.39"/>
<line x1="580.4033696839601" y1="1037.155308312343" x2="621.6033696839602" y2="1037.155308312343" stroke="#c8c8c8" stroke-width="1" opacity="0.39"/>
<line x1="768.9585972898446" y1="213.77184400976256" x2="810.1585972898447" y2="213.77184400976256" stroke="#c8c8c8" stroke-width="1" opacity="0.39"/>
<line x1="942.6771803585241" y1="1130.8187311193062" x2="983.8771803585241" y2="1130.8187311193062" stroke="#c8c8c8" stroke-width="1" opacity="0.39"/>
<line x1="916.2522341572924" y1="1261.3556212099995" x2="957.4522341572924" y2="1261.3556212099995" stroke="#c8c8c8" stroke-width="1" opacity="0.39"/>
<line x1="889.4086863237474" y1="35.331612841846244" x2="930.6086863237474" y2="35.331612841846244" stroke="#c8c8c8" stroke-width="1" opacity="0.39"/>
<line x1="553.3068821641183" y1="1061.720745387357" x2="594.5068821641183" y2="1061.720745387357" stroke="#c8c8c8" stroke-width="1" opacity="0.39"/>
<line x1="568.8557195797822" y1="1267.2745993674148" x2="610.0557195797822" y2="1267.2745993674148" stroke="#c8c8c8" stroke-width="1" opacity="0.39"/>
<line x1="580.8040595244635" y1="255.42074304792135" x2="622.0040595244635" y2="255.42074304792135" stroke="#c8c8c8" stroke-width="1" opacity="0.39"/>
<line x1="884.5460452253678" y1="834.0151909897174" x2="925.7460452253679" y2="834.0151909897174" stroke="#c8c8c8" stroke-width="1" opacity="0.39"/>
<line x1="1016.0707714390339" y1="393.12955159374025" x2="1057.270771439034" y2="393.12955159374025" stroke="#c8c8c8" stroke-width="1" opacity="0.39"/>
<rect x="69.67796925440337" y="821.0248578484286" width="40.16083479866424" height="40.061987571826805" fill="#f3e2d6" opacity="0.2545519857483145"/>
<ellipse cx="694.8639682190791" cy="867.3620228037993" rx="33.385143290918855" ry="21.250005902179034" fill="#cabbd9" opacity="0.2877242145208344"/>
<ellipse cx="1056.5867941531292" cy="188.3985758705058" rx="36.946416807801654" ry="27.22251024676437" fill="#fc6ceb" opacity="0.19403092537491248"/>
<ellipse cx="700.7516852304115" cy="163.894021587397" rx="10.040892064590423" ry="13.196498474157737" fill="#65a8b5" opacity="0.1611386624860456"/>
<ellipse cx="394.7752477576841" cy="108.00215010903875" rx="12.94693321126836" ry="18.357957771982917" fill="#a0869a" opacity="0.13802150418725428"/>
<rect x="655.9563496829738" y="807.4915889732035" width="76.90577509668924" height="61.32392229821907" fill="#a280c8" opacity="0.17809290047262685"/>
<ellipse cx="914.2439894165118" cy="276.1851848457871" rx="29.523446270974098" ry="22.554496326124717" fill="#b56788" opacity="0.2805626346374395"/>
<line x1="370.34337061007665" y1="703.2555702623239" x2="803.4182456896725" y2="71.08422521086607" stroke="#f8e49f" stroke-width="2.2570153406155367" opacity="0.1605435142347235"/>
<line x1="497.98180126491087" y1="715.6256500238673" x2="277.3162509302219" y2="706.5606418561939" stroke="#9dfce5" stroke-width="2.1156973844001525" opacity="0.29735305269089"/>
<line x1="1036.1993126926009" y1="552.9342773151278" x2="1012.9405693956375" y2="1058.198082939814" stroke="#f4cea1" stroke-width="1.9677069191670542" opacity="0.36731797349669565"/>
<line x1="807.6069978660006" y1="673.5247317112631" x2="385.4569961435427" y2="922.7989379888396" stroke="#f5e4f0" stroke-width="2.204560518825688" opacity="0.27861377310345004"/>
<line x1="772.3547891398682" y1="309.6569003116604" x2="843.398942148033" y2="254.80127346459835" stroke="#d7e7d2" stroke-width="1.9414041046711636" opacity="0.2153883635101585"/>
<line x1="392.2895481029011" y1="480.1684679836819" x2="753.2429555585809" y2="725.8661094707745" stroke="#b6d7a5" stroke-width="1.3219504357883476" opacity="0.26692953068117853"/>
<line x1="1005.1602213294991" y1="385.20829099472996" x2="332.1149398442893" y2="1099.7191613073085" stroke="#e8bafc" stroke-width="2.544469118837486" opacity="0.21768856986391227"/>
<line x1="688.6327889788117" y1="813.9113370393922" x2="786.4560846176261" y2="668.0433693658763" stroke="#b3ff9a" stroke-width="1.5782744887183768" opacity="0.2871496981872194"/>
<line x1="971.0096602193125" y1="294.1504062591821" x2="623.0441847364624" y2="156.41065843236197" stroke="#98cfd0" stroke-width="2.4815692908510423" opacity="0.2194935668040192"/>
<line x1="116.99100499832583" y1="1304.2655876391873" x2="654.8150685498562" y2="380.00791686587405" stroke="#b0a49b" stroke-width="2.967411220989847" opacity="0.20622993452837624"/>
<ellipse cx="378.52080362780055" cy="1148.033845959247" rx="2.449077368457372" ry="2.449077368457372" fill="#d2e6fe" opacity="0.19410451258641656"/>
<ellipse cx="1059.9187092948328" cy="428.65347882204384" rx="1.7381067279438054" ry="1.7381067279438054" fill="#f3d7e4" opacity="0.22098002720907242"/>
<ellipse cx="56.20021822685386" cy="845.9837842946796" rx="3.571683050399499" ry="3.571683050399499" fill="#efc9da" opacity="0.18334592562306384"/>
<ellipse cx="400.75846213882716" cy="308.77724304272664" rx="2.440127105191409" ry="2.440127105191409" fill="#e5d6e2" opacity="0.2172483183067334"/>
<ellipse cx="1035.2877907805553" cy="795.9025029073947" rx="3.851085902588016" ry="3.851085902588016" fill="#fce7ea" opacity="0.13304747789719654"/>
<ellipse cx="425.9142782287273" cy="437.14524527878746" rx="3.8217346681383133" ry="3.8217346681383133" fill="#dee1e5" opacity="0.23023414618885274"/>
<ellipse cx="298.15804495390415" cy="991.0274152602196" rx="1.207449197865766" ry="1.207449197865766" fill="#cef2ef" opacity="0.23265890988818574"/>
<ellipse cx="977.3456387302585" cy="488.6072876344469" rx="3.048093319892927" ry="3.048093319892927" fill="#d4d8f6" opacity="0.09194114162101792"/>
<ellipse cx="289.21808137056325" cy="1316.8179637365126" rx="2.65875744896883" ry="2.65875744896883" fill="#eadffe" opacity="0.0871782115902212"/>
<ellipse cx="725.5846062701123" cy="879.4321243089774" rx="2.368423343341995" ry="2.368423343341995" fill="#e0f1cc" opacity="0.12410671105361308"/>
<ellipse cx="159.448871686798" cy="928.1269718558187" rx="2.248129487618864" ry="2.248129487618864" fill="#d4e3e0" opacity="0.1127718383350589"/>
<ellipse cx="321.318973452467" cy="1084.2992489618712" rx="1.254000544666313" ry="1.254000544666313" fill="#eff1f2" opacity="0.22082758891434762"/>
<ellipse cx="449.63264486269685" cy="1130.7661061784095" rx="1.258024215818394" ry="1.258024215818394" fill="#e5d9f7" opacity="0.22385367231969938"/>
<ellipse cx="937.4553541734142" cy="944.3976943122213" rx="1.6246696713495392" ry="1.6246696713495392" fill="#efcde2" opacity="0.12614614825507164"/>
</svg>