<svg xmlns="http://www.w3.org/2000/svg" width="1080" height="1350" viewBox="0 0 1080 1350" style="background-color: #dadfe3;">
<rect x="0" y="0" width="1080" height="1350" fill="#dadfe3"/>
<ellipse cx="381.1702843295272" cy="506.87779807805913" rx="25.837928494409443" ry="13.908798018085065" fill="#a9a9a9"/>
<ellipse cx="402.3112627061164" cy="506.87779807805913" rx="20.670342795527556" ry="6.9543990090425325" fill="#a9a9a9"/>
<ellipse cx="365.3916933803616" cy="506.87779807805913" rx="18.08654994608661" ry="5.563519207234027" fill="#a9a9a9"/>
<ellipse cx="54.682382966709504" cy="1271.490106578679" rx="28.95235278913564" ry="16.40420453350019" fill="#a9a9a9"/>
<ellipse cx="72.38305306062574" cy="1271.490106578679" rx="23.161882231308514" ry="8.202102266750096" fill="#a9a9a9"/>
<ellipse cx="35.72857619525115" cy="1271.490106578679" rx="20.26664695239495" ry="6.561681813400077" fill="#a9a9a9"/>
<ellipse cx="23.931956302342915" cy="675.0364113017155" rx="25.133285511919947" ry="18.641623792942863" fill="#a9a9a9"/>
<ellipse cx="39.55495382549266" cy="675.0364113017155" rx="20.10662840953596" ry="9.320811896471431" fill="#a9a9a9"/>
<ellipse cx="2.9483813386267883" cy="675.0364113017155" rx="17.59329985834396" ry="7.456649517177146" fill="#a9a9a9"/>
<ellipse cx="516.4381887933417" cy="1070.66166450766" rx="22.05486216973593" ry="20.97467521577409" fill="#a9a9a9"/>
<ellipse cx="533.3510577043189" cy="1070.66166450766" rx="17.643889735788743" ry="10.487337607887046" fill="#a9a9a9"/>
<ellipse cx="500.04865673804755" cy="1070.66166450766" rx="15.43840351881515" ry="8.389870086309637" fill="#a9a9a9"/>
<ellipse cx="258.2552076588642" cy="48.73085620288311" rx="11.812152406719099" ry="7.644000630430617" fill="#a9a9a9"/>
<ellipse cx="265.60857830225217" cy="48.73085620288311" rx="9.44972192537528" ry="3.8220003152153086" fill="#a9a9a9"/>
<ellipse cx="249.81506277493034" cy="48.73085620288311" rx="8.26850668470337" ry="3.057600252172247" fill="#a9a9a9"/>
<ellipse cx="152.73714787919872" cy="10.080331568643604" rx="23.70620984901794" ry="18.015441738653745" fill="#a9a9a9"/>
<ellipse cx="170.486648065759" cy="10.080331568643604" rx="18.964967879214356" ry="9.007720869326873" fill="#a9a9a9"/>
<ellipse cx="132.36560560666032" cy="10.080331568643604" rx="16.594346894312558" ry="7.206176695461498" fill="#a9a9a9"/>
<ellipse cx="208.75892410462671" cy="929.9572174111182" rx="19.88823808695867" ry="12.803435530671559" fill="#a9a9a9"/>
<ellipse cx="220.08402419631977" cy="929.9572174111182" rx="15.910590469566936" ry="6.401717765335779" fill="#a9a9a9"/>
<ellipse cx="196.52821646553772" cy="929.9572174111182" rx="13.921766660871068" ry="5.121374212268623" fill="#a9a9a9"/>
<ellipse cx="227.56579052077876" cy="558.0524953818193" rx="15.523123975831753" ry="5.474766941990984" fill="#a9a9a9"/>
<ellipse cx="237.56018375415397" cy="558.0524953818193" rx="12.418499180665401" ry="2.737383470995492" fill="#a9a9a9"/>
<ellipse cx="218.77782914340344" cy="558.0524953818193" rx="10.866186783082227" ry="2.1899067767963936" fill="#a9a9a9"/>
<ellipse cx="125.19714838135855" cy="762.5624704931688" rx="9.073952522786062" ry="7.216606519445122" fill="#a9a9a9"/>
<ellipse cx="132.87888148244514" cy="762.5624704931688" rx="7.2591620182288485" ry="3.608303259722561" fill="#a9a9a9"/>
<ellipse cx="116.84069681376178" cy="762.5624704931688" rx="6.351766765950242" ry="2.886642607778049" fill="#a9a9a9"/>
<ellipse cx="330.9167005172543" cy="739.6157029734998" rx="14.172355719817014" ry="9.485161340857605" fill="#a9a9a9"/>
<ellipse cx="338.955305096659" cy="739.6157029734998" rx="11.337884575853613" ry="4.7425806704288025" fill="#a9a9a9"/>
<ellipse cx="322.03677871928994" cy="739.6157029734998" rx="9.92064900387191" ry="3.7940645363430425" fill="#a9a9a9"/>
<ellipse cx="741.0882998449208" cy="566.6804912344927" rx="20.470067384301263" ry="13.088617582380492" fill="#a9a9a9"/>
<ellipse cx="753.4296734632333" cy="566.6804912344927" rx="16.376053907441012" ry="6.544308791190246" fill="#a9a9a9"/>
<ellipse cx="728.3189454634664" cy="566.6804912344927" rx="14.329047169010883" ry="5.235447032952197" fill="#a9a9a9"/>
<ellipse cx="1059.3881466423106" cy="762.9834297872071" rx="12.167861023694376" ry="6.39837458319104" fill="#a9a9a9"/>
<ellipse cx="1066.979865937225" cy="762.9834297872071" rx="9.734288818955502" ry="3.19918729159552" fill="#a9a9a9"/>
<ellipse cx="1052.79165123227" cy="762.9834297872071" rx="8.517502716586062" ry="2.559349833276416" fill="#a9a9a9"/>
<ellipse cx="956.1575176269549" cy="322.1389891217179" rx="31.46281541757982" ry="16.16054600460912" fill="#a9a9a9"/>
<ellipse cx="973.4468544975814" cy="322.1389891217179" rx="25.170252334063854" ry="8.08027300230456" fill="#a9a9a9"/>
<ellipse cx="938.869151016693" cy="322.1389891217179" rx="22.02397079230587" ry="6.464218401843649" fill="#a9a9a9"/>
<ellipse cx="819.9722172133495" cy="418.79491229485484" rx="25.340860212901077" ry="14.496233542244047" fill="#a9a9a9"/>
<ellipse cx="837.9599497143464" cy="418.79491229485484" rx="20.272688170320865" ry="7.248116771122024" fill="#a9a9a9"/>
<ellipse cx="797.2083899802079" cy="418.79491229485484" rx="17.738602149030754" ry="5.798493416897619" fill="#a9a9a9"/>
<ellipse cx="869.9323083506581" cy="183.63690384832998" rx="15.476405947824645" ry="10.668985985544989" fill="#a9a9a9"/>
<ellipse cx="880.7819520797775" cy="183.63690384832998" rx="12.381124758259716" ry="5.3344929927724944" fill="#a9a9a9"/>
<ellipse cx="861.9051475252467" cy="183.63690384832998" rx="10.83348416347725" ry="4.267594394217996" fill="#a9a9a9"/>
<ellipse cx="782.9678554474226" cy="165.84436305139417" rx="27.267167694989247" ry="17.709020573958945" fill="#a9a9a9"/>
<ellipse cx="799.400243039383" cy="165.84436305139417" rx="21.813734155991398" ry="8.854510286979473" fill="#a9a9a9"/>
<ellipse cx="762.7435107961791" cy="165.84436305139417" rx="19.087017386492473" ry="7.083608229583579" fill="#a9a9a9"/>
<ellipse cx="928.989594163834" cy="765.6724516142498" rx="38.872893012186246" ry="17.81190105467472" fill="#a9a9a9"/>
<ellipse cx="951.5904977596059" cy="765.6724516142498" rx="31.098314409748998" ry="8.90595052733736" fill="#a9a9a9"/>
<ellipse cx="909.6121480909154" cy="765.6724516142498" rx="27.21102510853037" ry="7.1247604218698894" fill="#a9a9a9"/>
<ellipse cx="1034.6417590298884" cy="822.3065439715547" rx="42.30604847798161" ry="15.335794755241924" fill="#a9a9a9"/>
<ellipse cx="1059.5431356626088" cy="822.3065439715547" rx="33.84483878238529" ry="7.667897377620962" fill="#a9a9a9"/>
<ellipse cx="1005.8134958399294" cy="822.3065439715547" rx="29.614233934587126" ry="6.13431790209677" fill="#a9a9a9"/>
<ellipse cx="1024.0898468364448" cy="1012.4462490027986" rx="21.57740238198059" ry="15.258271507326455" fill="#a9a9a9"/>
<ellipse cx="1035.767397696004" cy="1012.4462490027986" rx="17.261921905584472" ry="7.629135753663228" fill="#a9a9a9"/>
<ellipse cx="1009.6504364184618" cy="1012.4462490027986" rx="15.104181667386413" ry="6.103308602930582" fill="#a9a9a9"/>
<path d="M 0,675 L 10,669.5564603362153 L 20,664.329937420743 L 30,659.528796228976 L 40,655.344443109353 L 50,651.9436950162636 L 60,649.462129044498 L 70,647.9986773983162 L 80,647.6116832766628 L 90,648.3165749139374 L 100,650.0852505049763 L 110,652.8471985353432 L 120,656.4923088528984 L 130,660.8752624120918 L 140,665.8213246857282 L 150,671.1333117791596 L 160,676.5994515299157 L 170,682.0018261955352 L 180,687.125060146279 L 190,691.7649062118305 L 200,695.7363883714372 L 210,698.8811761641323 L 220,701.0738968245728 L 230,702.2271334995569 L 240,702.294910282102 L 250,701.27452512577 L 260,699.2066575667322 L 270,696.173746959034 L 280,692.2967058777016 L 290,687.730099715937 L 300,682.6559846506506 L 310,677.2766496371994 L 320,671.8065517870965 L 330,666.4637666397334 L 340,661.4612941788022 L 350,656.9985671951051 L 360,653.2535005305332 L 370,650.3753981747615 L 380,648.4790009863373 L 390,647.6399123367358 L 400,647.8915840425193 L 410,649.2239827469742 L 420,651.5839899183811 L 430,654.8775195182493 L 440,658.9732689147658 L 450,663.7079535043758 L 460,668.8928163536533 L 470,674.321153342578 L 480,679.7765538055096 L 490,685.0415281415028 L 500,689.9061784383688 L 510,694.1765664400631 L 520,697.6824452529469 L 530,700.284046552191" fill="none" stroke="#ff6464" stroke-width="3" opacity="0.59"/>
<path d="M 540,667.7606906221093 L 550,667.6200722756558 L 560,667.7736683588632 L 570,668.2153554805947 L 580,668.9275249691309 L 590,669.8817848743448 L 600,671.0400918651568 L 610,672.3562678970923 L 620,673.7778411851915 L 630,675.2481380884919 L 640,676.7085425092494 L 650,678.1008327317807 L 660,679.3695025385393 L 670,680.4639740678491 L 680,681.3406141936409 L 690,681.9644740404975 L 700,682.3106822850282 L 710,682.3654366970468 L 720,682.1265543909336 L 730,681.6035588503969 L 740,680.8173002572298 L 750,679.7991242603596 L 760,678.5896223237411 L 770,677.2370134727832 L 780,675.7952219539699 L 790,674.3217274453198 L 800,672.8752735230119 L 810,671.5135257403794 L 820,670.2907726842722 L 830,669.2557616604169 L 840,668.4497552921684 L 850,667.9048865099288 L 860,667.642877512613 L 870,667.6741737721268 L 880,667.9975276053642 L 890,668.6000479153964 L 900,669.457714118825 L 910,670.5363337706416 L 920,671.7929057091094 L 930,673.1773343763838 L 940,674.6344269703177 L 950,676.1060938073126 L 960,677.5336641746908 L 970,678.8602253468638 L 980,680.0328915161028 L 990,681.0049121828024 L 1000,681.7375359503699 L 1010,682.2015554211202 L 1020,682.3784716030528 L 1030,682.2612314062853 L 1040,681.85450882749 L 1050,681.1745186123961 L 1060,680.2483698250461 L 1070,679.1129850949603" fill="none" stroke="#ff6464" stroke-width="3" opacity="0.59"/>
<ellipse cx="108.13855653076365" cy="871.0664082649473" rx="1.5" ry="1.5" fill="#6496ff" opacity="0.49607843137254903"/>
<ellipse cx="392.0644356645944" cy="1241.8419068874057" rx="1.5" ry="1.5" fill="#6496ff" opacity="0.49607843137254903"/>
<ellipse cx="356.79677741452906" cy="751.1560145538097" rx="1.5" ry="1.5" fill="#6496ff" opacity="0.49607843137254903"/>
<ellipse cx="339.0344597487871" cy="47.27699162777373" rx="1.5" ry="1.5" fill="#6496ff" opacity="0.49607843137254903"/>
<ellipse cx="9.879793529342765" cy="1280.0208136811948" rx="1.5" ry="1.5" fill="#6496ff" opacity="0.49607843137254903"/>
<ellipse cx="2.7015423787299273" cy="196.39229131694523" rx="1.5" ry="1.5" fill="#6496ff" opacity="0.49607843137254903"/>
<ellipse cx="207.12758312333727" cy="175.43755181852615" rx="1.5" ry="1.5" fill="#6496ff" opacity="0.49607843137254903"/>
<ellipse cx="254.8310942644398" cy="324.7396589837687" rx="1.5" ry="1.5" fill="#6496ff" opacity="0.49607843137254903"/>
<ellipse cx="411.1302586324188" cy="626.0122957760525" rx="1.5" ry="1.5" fill="#6496ff" opacity="0.49607843137254903"/>
<ellipse cx="409.8581673623334" cy="653.7197294895163" rx="1.5" ry="1.5" fill="#6496ff" opacity="0.49607843137254903"/>
<ellipse cx="105.21672968995605" cy="1219.6165194826278" rx="1.5" ry="1.5" fill="#6496ff" opacity="0.49607843137254903"/>
<ellipse cx="210.48379907872706" cy="451.83806440412906" rx="1.5" ry="1.5" fill="#6496ff" opacity="0.49607843137254903"/>
<ellipse cx="23.62901688722382" cy="868.1873251070209" rx="1.5" ry="1.5" fill="#6496ff" opacity="0.49607843137254903"/>
<ellipse cx="170.09842165284718" cy="792.376310002234" rx="1.5" ry="1.5" fill="#6496ff" opacity="0.49607843137254903"/>
<ellipse cx="502.8579928832399" cy="795.8975139986247" rx="1.5" ry="1.5" fill="#6496ff" opacity="0.49607843137254903"/>
<ellipse cx="498.4430339273266" cy="766.820222496437" rx="1.5" ry="1.5" fill="#6496ff" opacity="0.49607843137254903"/>
<ellipse cx="62.030546694076875" cy="51.815007651138586" rx="1.5" ry="1.5" fill="#6496ff" opacity="0.49607843137254903"/>
<ellipse cx="94.48198203671816" cy="316.9670598194781" rx="1.5" ry="1.5" fill="#6496ff" opacity="0.49607843137254903"/>
<ellipse cx="464.300294138631" cy="903.4479264651649" rx="1.5" ry="1.5" fill="#6496ff" opacity="0.49607843137254903"/>
<ellipse cx="121.48256784374014" cy="787.228922912492" rx="1.5" ry="1.5" fill="#6496ff" opacity="0.49607843137254903"/>
<ellipse cx="253.73738062276382" cy="383.00995248510037" rx="1.5" ry="1.5" fill="#6496ff" opacity="0.49607843137254903"/>
<ellipse cx="162.89057500795022" cy="10.971254115445191" rx="1.5" ry="1.5" fill="#6496ff" opacity="0.49607843137254903"/>
<ellipse cx="147.01311334362865" cy="1135.1635878603736" rx="1.5" ry="1.5" fill="#6496ff" opacity="0.49607843137254903"/>
<ellipse cx="455.8027341104126" cy="673.260158613911" rx="1.5" ry="1.5" fill="#6496ff" opacity="0.49607843137254903"/>
<ellipse cx="194.2448688457929" cy="336.3639773504641" rx="1.5" ry="1.5" fill="#6496ff" opacity="0.49607843137254903"/>
<ellipse cx="520.8936383765628" cy="410.9710158831305" rx="1.5" ry="1.5" fill="#6496ff" opacity="0.49607843137254903"/>
<ellipse cx="207.5984073651947" cy="646.3458004623399" rx="1.5" ry="1.5" fill="#6496ff" opacity="0.49607843137254903"/>
<ellipse cx="387.91752594891824" cy="69.9510991899069" rx="1.5" ry="1.5" fill="#6496ff" opacity="0.49607843137254903"/>
<ellipse cx="289.8527188458726" cy="405.44314403340366" rx="1.5" ry="1.5" fill="#6496ff" opacity="0.49607843137254903"/>
<ellipse cx="305.3026772967087" cy="898.3808044802308" rx="1.5" ry="1.5" fill="#6496ff" opacity="0.49607843137254903"/>
<ellipse cx="519.064350369882" cy="1006.1515335953569" rx="1.5" ry="1.5" fill="#6496ff" opacity="0.49607843137254903"/>
<ellipse cx="114.23532491281411" cy="1150.3007819644645" rx="1.5" ry="1.5" fill="#6496ff" opacity="0.49607843137254903"/>
<ellipse cx="196.84669742213873" cy="780.2072349843603" rx="1.5" ry="1.5" fill="#6496ff" opacity="0.49607843137254903"/>
<ellipse cx="245.45038473114855" cy="1039.5313565803374" rx="1.5" ry="1.5" fill="#6496ff" opacity="0.49607843137254903"/>
<ellipse cx="383.10512798982916" cy="1143.979150589546" rx="1.5" ry="1.5" fill="#6496ff" opacity="0.49607843137254903"/>
<ellipse cx="359.9488665349544" cy="42.07661749891779" rx="1.5" ry="1.5" fill="#6496ff" opacity="0.49607843137254903"/>
<ellipse cx="518.590259197443" cy="365.9943939959604" rx="1.5" ry="1.5" fill="#6496ff" opacity="0.49607843137254903"/>
<ellipse cx="328.406024132113" cy="1327.1788007240643" rx="1.5" ry="1.5" fill="#6496ff" opacity="0.49607843137254903"/>
<ellipse cx="243.13598167297243" cy="1248.0746632665744" rx="1.5" ry="1.5" fill="#6496ff" opacity="0.49607843137254903"/>
<ellipse cx="148.62918383843694" cy="603.1265619225458" rx="1.5" ry="1.5" fill="#6496ff" opacity="0.49607843137254903"/>
<ellipse cx="514.4193222534002" cy="862.1404055795355" rx="1.5" ry="1.5" fill="#6496ff" opacity="0.49607843137254903"/>
<ellipse cx="117.79399400474225" cy="682.8615951737676" rx="1.5" ry="1.5" fill="#6496ff" opacity="0.49607843137254903"/>
<ellipse cx="79.35216668963068" cy="362.53872977687917" rx="1.5" ry="1.5" fill="#6496ff" opacity="0.49607843137254903"/>
<ellipse cx="30.17343522523224" cy="623.9046025201234" rx="1.5" ry="1.5" fill="#6496ff" opacity="0.49607843137254903"/>
<ellipse cx="474.41078446545214" cy="415.6396688966265" rx="1.5" ry="1.5" fill="#6496ff" opacity="0.49607843137254903"/>
<ellipse cx="356.24201075930245" cy="1298.218185314079" rx="1.5" ry="1.5" fill="#6496ff" opacity="0.49607843137254903"/>
<ellipse cx="465.2883555671612" cy="525.6274046961346" rx="1.5" ry="1.5" fill="#6496ff" opacity="0.49607843137254903"/>
<ellipse cx="340.75025812757684" cy="315.9245790522194" rx="1.5" ry="1.5" fill="#6496ff" opacity="0.49607843137254903"/>
<ellipse cx="316.798877267539" cy="1002.0615939991835" rx="1.5" ry="1.5" fill="#6496ff" opacity="0.49607843137254903"/>
<ellipse cx="56.873431232233266" cy="677.5160598929581" rx="1.5" ry="1.5" fill="#6496ff" opacity="0.49607843137254903"/>
<ellipse cx="350.42745368109433" cy="1008.8746731210848" rx="1.5" ry="1.5" fill="#6496ff" opacity="0.49607843137254903"/>
<ellipse cx="746.0367179876364" cy="308.126753712132" rx="1.5" ry="1.5" fill="#ff9664" opacity="0.4843137254901961"/>
<ellipse cx="722.1481651915927" cy="1110.2613692685316" rx="1.5" ry="1.5" fill="#ff9664" opacity="0.4843137254901961"/>
<ellipse cx="920.7532598361156" cy="442.368149963379" rx="1.5" ry="1.5" fill="#ff9664" opacity="0.4843137254901961"/>
<ellipse cx="1023.8901617396111" cy="1241.3145309506517" rx="1.5" ry="1.5" fill="#ff9664" opacity="0.4843137254901961"/>
<ellipse cx="922.4836065166088" cy="892.7938703879686" rx="1.5" ry="1.5" fill="#ff9664" opacity="0.4843137254901961"/>
<ellipse cx="842.7640630224553" cy="969.6089033827227" rx="1.5" ry="1.5" fill="#ff9664" opacity="0.4843137254901961"/>
<ellipse cx="1048.9307501301778" cy="1241.0467392024802" rx="1.5" ry="1.5" fill="#ff9664" opacity="0.4843137254901961"/>
<ellipse cx="931.9016363061506" cy="1107.2538619429124" rx="1.5" ry="1.5" fill="#ff9664" opacity="0.4843137254901961"/>
<ellipse cx="1068.0634405687747" cy="358.6111308814078" rx="1.5" ry="1.5" fill="#ff9664" opacity="0.4843137254901961"/>
<ellipse cx="688.0216313097726" cy="610.108781145005" rx="1.5" ry="1.5" fill="#ff9664" opacity="0.4843137254901961"/>
<ellipse cx="815.3504277557836" cy="660.7214215494326" rx="1.5" ry="1.5" fill="#ff9664" opacity="0.4843137254901961"/>
<ellipse cx="655.3427982867429" cy="627.7830767574641" rx="1.5" ry="1.5" fill="#ff9664" opacity="0.4843137254901961"/>
<ellipse cx="672.9116750382407" cy="587.2227254264162" rx="1.5" ry="1.5" fill="#ff9664" opacity="0.4843137254901961"/>
<ellipse cx="866.7017485232566" cy="139.23159248159806" rx="1.5" ry="1.5" fill="#ff9664" opacity="0.4843137254901961"/>
<ellipse cx="687.0129866092526" cy="1151.8736963867552" rx="1.5" ry="1.5" fill="#ff9664" opacity="0.4843137254901961"/>
<ellipse cx="554.1547250813594" cy="571.98357552848" rx="1.5" ry="1.5" fill="#ff9664" opacity="0.4843137254901961"/>
<ellipse cx="816.548924574884" cy="1036.585486417909" rx="1.5" ry="1.5" fill="#ff9664" opacity="0.4843137254901961"/>
<ellipse cx="730.0985384872642" cy="438.08380385771574" rx="1.5" ry="1.5" fill="#ff9664" opacity="0.4843137254901961"/>
<ellipse cx="687.7884722444176" cy="2.5848984730359623" rx="1.5" ry="1.5" fill="#ff9664" opacity="0.4843137254901961"/>
<ellipse cx="728.1807519161052" cy="1095.7221602535444" rx="1.5" ry="1.5" fill="#ff9664" opacity="0.4843137254901961"/>
<ellipse cx="744.4297743795578" cy="1136.765993170797" rx="1.5" ry="1.5" fill="#ff9664" opacity="0.4843137254901961"/>
<ellipse cx="1030.9617950818324" cy="332.7083946823647" rx="1.5" ry="1.5" fill="#ff9664" opacity="0.4843137254901961"/>
<ellipse cx="720.2028609161279" cy="802.4125460546522" rx="1.5" ry="1.5" fill="#ff9664" opacity="0.4843137254901961"/>
<ellipse cx="1055.2999451175797" cy="850.3034953262207" rx="1.5" ry="1.5" fill="#ff9664" opacity="0.4843137254901961"/>
<ellipse cx="772.9351760041598" cy="894.1363696447278" rx="1.5" ry="1.5" fill="#ff9664" opacity="0.4843137254901961"/>
<ellipse cx="840.9820891828192" cy="1176.3244992011807" rx="1.5" ry="1.5" fill="#ff9664" opacity="0.4843137254901961"/>
<ellipse cx="792.4118758423309" cy="403.3925415963831" rx="1.5" ry="1.5" fill="#ff9664" opacity="0.4843137254901961"/>
<ellipse cx="965.4496337964431" cy="38.554608839822286" rx="1.5" ry="1.5" fill="#ff9664" opacity="0.4843137254901961"/>
<ellipse cx="659.9806307069867" cy="1120.5607300254333" rx="1.5" ry="1.5" fill="#ff9664" opacity="0.4843137254901961"/>
<ellipse cx="962.2345878659909" cy="498.6118199762943" rx="1.5" ry="1.5" fill="#ff9664" opacity="0.4843137254901961"/>
<ellipse cx="809.9300910299319" cy="1342.657936244578" rx="1.5" ry="1.5" fill="#ff9664" opacity="0.4843137254901961"/>
<ellipse cx="690.4774618849519" cy="54.072368170168424" rx="1.5" ry="1.5" fill="#ff9664" opacity="0.4843137254901961"/>
<ellipse cx="1012.5022049958362" cy="1265.5537074737035" rx="1.5" ry="1.5" fill="#ff9664" opacity="0.4843137254901961"/>
<ellipse cx="1005.2748372337198" cy="58.04595353922153" rx="1.5" ry="1.5" fill="#ff9664" opacity="0.4843137254901961"/>
<ellipse cx="1004.5090719240295" cy="1125.690937566427" rx="1.5" ry="1.5" fill="#ff9664" opacity="0.4843137254901961"/>
<ellipse cx="733.780288786525" cy="242.14811336349143" rx="1.5" ry="1.5" fill="#ff9664" opacity="0.4843137254901961"/>
<ellipse cx="1048.071000216562" cy="1050.744492304858" rx="1.5" ry="1.5" fill="#ff9664" opacity="0.4843137254901961"/>
<ellipse cx="827.3054624941692" cy="1166.1459987825463" rx="1.5" ry="1.5" fill="#ff9664" opacity="0.4843137254901961"/>
<ellipse cx="1021.2232520436976" cy="378.54343074306075" rx="1.5" ry="1.5" fill="#ff9664" opacity="0.4843137254901961"/>
<ellipse cx="1030.0227858917895" cy="92.89589528594907" rx="1.5" ry="1.5" fill="#ff9664" opacity="0.4843137254901961"/>
<ellipse cx="1039.2961212337464" cy="485.6001021739096" rx="1.5" ry="1.5" fill="#ff9664" opacity="0.4843137254901961"/>
<ellipse cx="569.1768121855225" cy="930.5902053278825" rx="1.5" ry="1.5" fill="#ff9664" opacity="0.4843137254901961"/>
<ellipse cx="819.5236660351621" cy="11.139911418380175" rx="1.5" ry="1.5" fill="#ff9664" opacity="0.4843137254901961"/>
<ellipse cx="1028.966181282404" cy="208.268112041181" rx="1.5" ry="1.5" fill="#ff9664" opacity="0.4843137254901961"/>
<ellipse cx="711.1190075479071" cy="776.1415962018732" rx="1.5" ry="1.5" fill="#ff9664" opacity="0.4843137254901961"/>
<ellipse cx="695.4309654959621" cy="324.9897481524338" rx="1.5" ry="1.5" fill="#ff9664" opacity="0.4843137254901961"/>
<ellipse cx="715.1713533025102" cy="766.4745393984367" rx="1.5" ry="1.5" fill="#ff9664" opacity="0.4843137254901961"/>
<ellipse cx="694.668724608919" cy="477.9327931245476" rx="1.5" ry="1.5" fill="#ff9664" opacity="0.4843137254901961"/>
<ellipse cx="681.1138272942574" cy="17.49964357237315" rx="1.5" ry="1.5" fill="#ff9664" opacity="0.4843137254901961"/>
<line x1="482.07813978291966" y1="459.9328102823034" x2="574.6781397829196" y2="459.9328102823034" stroke="#c8c8c8" stroke-width="1" opacity="0.39"/>
<line x1="374.3516852214708" y1="452.42820403186056" x2="466.9516852214708" y2="452.42820403186056" stroke="#c8c8c8" stroke-width="1" opacity="0.39"/>
<line x1="113.85983710822642" y1="1309.0979090468484" x2="206.4598371082264" y2="1309.0979090468484" stroke="#c8c8c8" stroke-width="1" opacity="0.39"/>
<line x1="263.25177681783765" y1="941.3720016094726" x2="355.8517768178376" y2="941.3720016094726" stroke="#c8c8c8" stroke-width="1" opacity="0.39"/>
<line x1="223.39509497554744" y1="122.3695636365421" x2="315.99509497554743" y2="122.3695636365421" stroke="#c8c8c8" stroke-width="1" opacity="0.39"/>
<line x1="313.6193008691162" y1="985.3920404731259" x2="406.2193008691162" y2="985.3920404731259" stroke="#c8c8c8" stroke-width="1" opacity="0.39"/>
<line x1="182.96053656514758" y1="947.5162450911088" x2="275.5605365651476" y2="947.5162450911088" stroke="#c8c8c8" stroke-width="1" opacity="0.39"/>
<line x1="502.52312445199266" y1="398.95128626327556" x2="595.1231244519927" y2="398.95128626327556" stroke="#c8c8c8" stroke-width="1" opacity="0.39"/>
<line x1="339.5538212450006" y1="718.4538784988476" x2="432.1538212450006" y2="718.4538784988476" stroke="#c8c8c8" stroke-width="1" opacity="0.39"/>
<line x1="53.47035172091348" y1="580.1665174682469" x2="146.07035172091346" y2="580.1665174682469" stroke="#c8c8c8" stroke-width="1" opacity="0.39"/>
<line x1="146.66001326714644" y1="442.0952083738964" x2="239.26001326714643" y2="442.0952083738964" stroke="#c8c8c8" stroke-width="1" opacity="0.39"/>
<line x1="181.95084580311126" y1="577.2064450090782" x2="274.55084580311126" y2="577.2064450090782" stroke="#c8c8c8" stroke-width="1" opacity="0.39"/>
<line x1="373.2695104429822" y1="789.2769101957217" x2="465.86951044298223" y2="789.2769101957217" stroke="#c8c8c8" stroke-width="1" opacity="0.39"/>
<line x1="308.7605382449741" y1="222.6913691604004" x2="401.3605382449741" y2="222.6913691604004" stroke="#c8c8c8" stroke-width="1" opacity="0.39"/>
<line x1="213.59972665719675" y1="10.728245978582764" x2="306.1997266571967" y2="10.728245978582764" stroke="#c8c8c8" stroke-width="1" opacity="0.39"/>
<line x1="473.58836888968403" y1="852.7324501670583" x2="566.188368889684" y2="852.7324501670583" stroke="#c8c8c8" stroke-width="1" opacity="0.39"/>
<line x1="290.9482027454992" y1="1163.7609785253933" x2="383.5482027454992" y2="1163.7609785253933" stroke="#c8c8c8" stroke-width="1" opacity="0.39"/>
<line x1="396.35257977822454" y1="1191.7027300185073" x2="488.9525797782245" y2="1191.7027300185073" stroke="#c8c8c8" stroke-width="1" opacity="0.39"/>
<line x1="488.47036622859093" y1="1232.4469870107469" x2="581.070366228591" y2="1232.4469870107469" stroke="#c8c8c8" stroke-width="1" opacity="0.39"/>
<line x1="254.949267029273" y1="1093.4308832015056" x2="347.549267029273" y2="1093.4308832015056" stroke="#c8c8c8" stroke-width="1" opacity="0.39"/>
<line x1="361.9233156935886" y1="257.1159662013482" x2="454.52331569358864" y2="257.1159662013482" stroke="#c8c8c8" stroke-width="1" opacity="0.39"/>
<line x1="401.5910144530195" y1="43.905293961942796" x2="494.19101445301953" y2="43.905293961942796" stroke="#c8c8c8" stroke-width="1" opacity="0.39"/>
<line x1="160.26269145322158" y1="152.52751715133317" x2="252.86269145322157" y2="152.52751715133317" stroke="#c8c8c8" stroke-width="1" opacity="0.39"/>
<line x1="392.04977471011216" y1="774.9172214301849" x2="484.6497747101122" y2="774.9172214301849" stroke="#c8c8c8" stroke-width="1" opacity="0.39"/>
<line x1="245.22205364202244" y1="695.429420795026" x2="337.8220536420224" y2="695.429420795026" stroke="#c8c8c8" stroke-width="1" opacity="0.39"/>
<line x1="444.5930101557602" y1="747.159576763939" x2="537.1930101557602" y2="747.159576763939" stroke="#c8c8c8" stroke-width="1" opacity="0.39"/>
<line x1="349.12937180564245" y1="1013.4939198445035" x2="441.7293718056425" y2="1013.4939198445035" stroke="#c8c8c8" stroke-width="1" opacity="0.39"/>
<line x1="16.970787056242482" y1="968.7366892438087" x2="109.57078705624248" y2="968.7366892438087" stroke="#c8c8c8" stroke-width="1" opacity="0.39"/>
<line x1="429.4315554711184" y1="164.4394219687392" x2="522.0315554711184" y2="164.4394219687392" stroke="#c8c8c8" stroke-width="1" opacity="0.39"/>
<line x1="254.7999377245083" y1="532.7900292970194" x2="347.3999377245083" y2="532.7900292970194" stroke="#c8c8c8" stroke-width="1" opacity="0.39"/>
<line x1="495.79337619980487" y1="179.3435455203725" x2="588.3933761998048" y2="179.3435455203725" stroke="#c8c8c8" stroke-width="1" opacity="0.39"/>
<line x1="412.7728005185597" y1="803.670877592485" x2="505.37280051855964" y2="803.670877592485" stroke="#c8c8c8" stroke-width="1" opacity="0.39"/>
<line x1="369.146354370353" y1="535.4220810045591" x2="461.74635437035295" y2="535.4220810045591" stroke="#c8c8c8" stroke-width="1" opacity="0.39"/>
<line x1="109.21171908695797" y1="672.4967348726916" x2="201.81171908695796" y2="672.4967348726916" stroke="#c8c8c8" stroke-width="1" opacity="0.39"/>
<line x1="279.66959966331234" y1="269.5072890582994" x2="372.2695996633123" y2="269.5072890582994" stroke="#c8c8c8" stroke-width="1" opacity="0.39"/>
<line x1="410.3890677217343" y1="253.475028394477" x2="502.9890677217343" y2="253.475028394477" stroke="#c8c8c8" stroke-width="1" opacity="0.39"/>
<line x1="51.947688484540066" y1="1246.2748741946532" x2="144.54768848454006" y2="1246.2748741946532" stroke="#c8c8c8" stroke-width="1" opacity="0.39"/>
<line x1="17.53932953697598" y1="1155.3051402584208" x2="110.13932953697598" y2="1155.3051402584208" stroke="#c8c8c8" stroke-width="1" opacity="0.39"/>
<line x1="223.34726582437162" y1="1328.7361449230166" x2="315.9472658243716" y2="1328.7361449230166" stroke="#c8c8c8" stroke-width="1" opacity="0.39"/>
<line x1="388.9183332346931" y1="711.5645173525272" x2="481.51833323469305" y2="711.5645173525272" stroke="#c8c8c8" stroke-width="1" opacity="0.39"/>
<line x1="253.57638370877893" y1="760.7661012377432" x2="346.1763837087789" y2="760.7661012377432" stroke="#c8c8c8" stroke-width="1" opacity="0.39"/>
<line x1="101.65606503451991" y1="300.174634298391" x2="194.2560650345199" y2="300.174634298391" stroke="#c8c8c8" stroke-width="1" opacity="0.39"/>
<line x1="122.53323203070705" y1="1305.1129779336568" x2="215.13323203070706" y2="1305.1129779336568" stroke="#c8c8c8" stroke-width="1" opacity="0.39"/>
<line x1="150.59829003671103" y1="22.645622502381737" x2="243.19829003671103" y2="22.645622502381737" stroke="#c8c8c8" stroke-width="1" opacity="0.39"/>
<line x1="160.90571150225853" y1="869.0838400596213" x2="253.50571150225852" y2="869.0838400596213" stroke="#c8c8c8" stroke-width="1" opacity="0.39"/>
<line x1="216.9400907573011" y1="277.22674025093517" x2="309.5400907573011" y2="277.22674025093517" stroke="#c8c8c8" stroke-width="1" opacity="0.39"/>
<line x1="278.44517661186177" y1="612.0673301685915" x2="371.04517661186173" y2="612.0673301685915" stroke="#c8c8c8" stroke-width="1" opacity="0.39"/>
<line x1="597.1909189490559" y1="666.1432790877965" x2="638.390918949056" y2="666.1432790877965" stroke="#c8c8c8" stroke-width="1" opacity="0.39"/>
<line x1="1054.1494061956878" y1="751.0974351088971" x2="1095.3494061956878" y2="751.0974351088971" stroke="#c8c8c8" stroke-width="1" opacity="0.39"/>
<line x1="914.8446537809655" y1="853.5651151340293" x2="956.0446537809655" y2="853.5651151340293" stroke="#c8c8c8" stroke-width="1" opacity="0.39"/>
<line x1="784.7890163607844" y1="792.2369424217553" x2="825.9890163607845" y2="792.2369424217553" stroke="#c8c8c8" stroke-width="1" opacity="0.39"/>
<line x1="682.9998279283753" y1="644.6489277503681" x2="724.1998279283754" y2="644.6489277503681" stroke="#c8c8c8" stroke-width="1" opacity="0.39"/>
<line x1="665.6721568692811" y1="831.7697394787193" x2="706.8721568692812" y2="831.7697394787193" stroke="#c8c8c8" stroke-width="1" opacity="0.39"/>
<line x1="986.8143942052566" y1="953.353429284577" x2="1028.0143942052566" y2="953.353429284577" stroke="#c8c8c8" stroke-width="1" opacity="0.39"/>
<line x1="779.469423405579" y1="940.9114126772207" x2="820.6694234055791" y2="940.9114126772207" stroke="#c8c8c8" stroke-width="1" opacity="0.39"/>
<line x1="760.1224995684449" y1="520.4371693173597" x2="801.322499568445" y2="520.4371693173597" stroke="#c8c8c8" stroke-width="1" opacity="0.39"/>
<line x1="635.5704975573209" y1="794.0791774513568" x2="676.7704975573209" y2="794.0791774513568" stroke="#c8c8c8" stroke-width="1" opacity="0.39"/>
<line x1="878.6365057614803" y1="618.2839932936635" x2="919.8365057614803" y2="618.2839932936635" stroke="#c8c8c8" stroke-width="1" opacity="0.39"/>
<line x1="968.5316207020226" y1="472.5885453040658" x2="1009.7316207020226" y2="472.5885453040658" stroke="#c8c8c8" stroke-width="1" opacity="0.39"/>
<line x1="625.0284505286386" y1="883.4776867569786" x2="666.2284505286386" y2="883.4776867569786" stroke="#c8c8c8" stroke-width="1" opacity="0.39"/>
<line x1="999.8722030873746" y1="805.8629397330168" x2="1041.0722030873746" y2="805.8629397330168" stroke="#c8c8c8" stroke-width="1" opacity="0.39"/>
<line x1="684.7214842516563" y1="890.9151439047023" x2="725.9214842516564" y2="890.9151439047023" stroke="#c8c8c8" stroke-width="1" opacity="0.39"/>
<line x1="756.9624281939875" y1="1081.9922809870877" x2="798.1624281939876" y2="1081.9922809870877" stroke="#c8c8c8" stroke-width="1" opacity="0.39"/>
<line x1="714.2341948366883" y1="582.6404931874202" x2="755.4341948366883" y2="582.6404931874202" stroke="#c8c8c8" stroke-width="1" opacity="0.39"/>
<line x1="694.8986006504384" y1="1068.3297519890264" x2="736.0986006504385" y2="1068.3297519890264" stroke="#c8c8c8" stroke-width="1" opacity="0.39"/>
<line x1="883.1963683772815" y1="1191.5319805925394" x2="924.3963683772815" y2="1191.5319805925394" stroke="#c8c8c8" stroke-width="1" opacity="0.39"/>
<line x1="610.6533766121852" y1="114.9242207943109" x2="651.8533766121852" y2="114.9242207943109" stroke="#c8c8c8" stroke-width="1" opacity="0.39"/>
<line x1="602.888156204898" y1="224.3334845753077" x2="644.088156204898" y2="224.3334845753077" stroke="#c8c8c8" stroke-width="1" opacity="0.39"/>
<rect x="210.9220348954769" y="0.7672302102517499" width="34.772081754529886" height="33.624758772800654" fill="#a1cf79" opacity="0.2775149556511726"/>
<ellipse cx="1006.260388366068" cy="905.6269530698783" rx="19.558856491725358" ry="19.917064466175574" fill="#856bee" opacity="0.3037540305761169"/>
<ellipse cx="753.2384494474337" cy="422.9358675065152" rx="35.18701554517588" ry="37.61911864220357" fill="#9d8baa" opacity="0.16477801755220137"/>
<rect x="554.5763340241166" y="571.8854334679829" width="50.775702013995364" height="49.94880295925133" fill="#84aca0" opacity="0.1575388581330804"/>
<line x1="427.8001501168125" y1="9.207594398971459" x2="907.454338049262" y2="290.5524374407495" stroke="#d3aab2" stroke-width="2.3716516501138227" opacity="0.3595588161440009"/>
<line x1="13.596096045149535" y1="1264.157974749877" x2="900.1732067485215" y2="156.21206767680687" stroke="#aef9c8" stroke-width="1.0794415474307917" opacity="0.37082804895528604"/>
<line x1="343.14760581736806" y1="210.48898110654622" x2="237.94857870691857" y2="308.62492039269995" stroke="#a0a6b1" stroke-width="1.400520086474959" opacity="0.3816465584548809"/>
<line x1="619.9383154418033" y1="763.8634089212229" x2="439.7791959903106" y2="178.96245726335908" stroke="#a0c4b8" stroke-width="2.946120263052229" opacity="0.3566849326147947"/>
<line x1="1016.0178570710206" y1="535.0163700687775" x2="536.4316752070708" y2="1320.3053718992999" stroke="#abecad" stroke-width="1.880549073629337" opacity="0.21020195299650213"/>
<line x1="144.78991276807614" y1="1034.245004241469" x2="491.27735160816337" y2="512.9872801308461" stroke="#c5a4a2" stroke-width="1.7235749963315088" opacity="0.26705553490029244"/>
<line x1="529.6487548433472" y1="740.9247282617375" x2="962.8660874082083" y2="467.1050908356463" stroke="#f8c6b8" stroke-width="2.55898332668421" opacity="0.36107723395189434"/>
<line x1="483.70322250002215" y1="1244.812238796061" x2="547.5015165971133" y2="230.24972687952675" stroke="#b9dcd3" stroke-width="2.583023310444794" opacity="0.27670496590902954"/>
<line x1="784.4852403479094" y1="397.86788839747567" x2="1030.5044894248733" y2="839.6946612930367" stroke="#a2e6ee" stroke-width="2.6246070869381573" opacity="0.30486133058745274"/>
<line x1="397.6995851461308" y1="218.21680079131238" x2="580.9721699082163" y2="744.8902670037422" stroke="#c1e2b7" stroke-width="1.8153646592122339" opacity="0.16931646946009707"/>
<ellipse cx="597.4029639164931" cy="528.8214328367363" rx="3.8807718767229336" ry="3.8807718767229336" fill="#eaf0d0" opacity="0.11501099550791195"/>
<ellipse cx="837.9957608310486" cy="514.7826435578907" rx="1.251139164087893" ry="1.251139164087893" fill="#c9f3f8" opacity="0.2310083053401783"/>
<ellipse cx="1065.2897362901315" cy="938.4771470625312" rx="1.523040056472197" ry="1.523040056472197" fill="#d7e2da" opacity="0.18040408344903386"/>
<ellipse cx="403.2383682221353" cy="318.55775728754594" rx="3.1469535539611027" ry="3.1469535539611027" fill="#fff7fb" opacity="0.10359034819933045"/>
<ellipse cx="466.356786706651" cy="925.4559342402295" rx="1.965021253081514" ry="1.965021253081514" fill="#c9fed4" opacity="0.17909940555996745"/>
<ellipse cx="278.20588601669573" cy="1306.5026706580552" rx="1.2956012488788" ry="1.2956012488788" fill="#f4e1d9" opacity="0.18379787375176884"/>
<ellipse cx="689.2387965550827" cy="12.27271557425741" rx="1.6165405104945136" ry="1.6165405104945136" fill="#cbf8f5" opacity="0.1643547170702559"/>
<ellipse cx="453.2477047169803" cy="1004.4306819347809" rx="3.6547628653490745" ry="3.6547628653490745" fill="#cfe4da" opacity="0.17170636798489824"/>
<ellipse cx="679.8941520042224" cy="17.04951525528427" rx="2.767361958402843" ry="2.767361958402843" fill="#d3d0d7" opacity="0.10166264516378876"/>
<ellipse cx="734.3742910466968" cy="710.9180513354569" rx="1.1756922007425186" ry="1.1756922007425186" fill="#eacdf3" opacity="0.18297571299316182"/>
<ellipse cx="1032.4629740754435" cy="124.69004994476683" rx="2.443990201430391" ry="2.443990201430391" fill="#f0e0e4" opacity="0.09666831821468097"/>
<ellipse cx="715.6487599367503" cy="559.7611966355523" rx="2.3536468750581365" ry="2.3536468750581365" fill="#f2fce4" opacity="0.12371525112091654"/>
<ellipse cx="946.4794211026651" cy="24.012261640286194" rx="3.054784973177493" ry="3.054784973177493" fill="#dbd7d3" opacity="0.16946207780028097"/>
<ellipse cx="947.1178726791953" cy="1133.4713821920898" rx="1.86166644136499" ry="1.86166644136499" fill="#fad6e8" opacity="0.21732857654532015"/>
<ellipse cx="451.8957426268122" cy="1183.8458424358842" rx="1.2211949826316886" ry="1.2211949826316886" fill="#f3e1e0" opacity="0.12650069070698305"/>
<ellipse cx="856.9471124824822" cy="1228.5005992411175" rx="1.9398521189297793" ry="1.9398521189297793" fill="#e9d2eb" opacity="0.15579814540501416"/>
<ellipse cx="597.7312663000688" cy="35.16762258259934" rx="1.9605356049540152" ry="1.9605356049540152" fill="#d9f7d4" opacity="0.10687084292819846"/>
<ellipse cx="612.2748687734245" cy="1084.0354805272239" rx="3.5014503013815035" ry="3.5014503013815035" fill="#ebf6d0" opacity="0.20578126819781342"/>
<ellipse cx="113.44546800174074" cy="897.2390283351947" rx="3.3684949885907094" ry="3.3684949885907094" fill="#cfe7df" opacity="0.21786930988297426"/>
</svg>