<svg xmlns="http://www.w3.org/2000/svg" width="1080" height="1350" viewBox="0 0 1080 1350">
<rect x="0" y="0" width="1080" height="1350" fill="#dce0e5"/>
<ellipse cx="411.081769657825" cy="1319.3779176656985" rx="31.139086661770083" ry="26.05795785993931" fill="#a9a9a9"/>
<ellipse cx="431.90365360448277" cy="1319.3779176656985" rx="24.91126932941607" ry="13.028978929969655" fill="#a9a9a9"/>
<ellipse cx="392.31822224632356" cy="1319.3779176656985" rx="21.797360663239058" ry="10.423183143975725" fill="#a9a9a9"/>
<ellipse cx="147.84706778258413" cy="976.6492192524715" rx="32.316030975563294" ry="18.32406851331607" fill="#a9a9a9"/>
<ellipse cx="167.0130749987736" cy="976.6492192524715" rx="25.852824780450636" ry="9.162034256658036" fill="#a9a9a9"/>
<ellipse cx="120.99969005009598" cy="976.6492192524715" rx="22.6212216828943" ry="7.329627405326429" fill="#a9a9a9"/>
<ellipse cx="408.95211715668074" cy="718.2010534769861" rx="17.750985053155844" ry="6.7929189901148606" fill="#a9a9a9"/>
<ellipse cx="420.20055555549106" cy="718.2010534769861" rx="14.200788042524676" ry="3.3964594950574303" fill="#a9a9a9"/>
<ellipse cx="397.0855149857298" cy="718.2010534769861" rx="12.42568953720909" ry="2.7171675960459445" fill="#a9a9a9"/>
<ellipse cx="261.30294811972556" cy="198.22511682204208" rx="14.875295016234231" ry="8.845898367499826" fill="#a9a9a9"/>
<ellipse cx="272.84274052218603" cy="198.22511682204208" rx="11.900236012987385" ry="4.422949183749913" fill="#a9a9a9"/>
<ellipse cx="249.2176590045018" cy="198.22511682204208" rx="10.412706511363963" ry="3.5383593469999304" fill="#a9a9a9"/>
<ellipse cx="73.30766919688679" cy="91.28596637923549" rx="34.384884874774876" ry="19.625435062573327" fill="#a9a9a9"/>
<ellipse cx="99.50336519371746" cy="91.28596637923549" rx="27.5079078998199" ry="9.812717531286664" fill="#a9a9a9"/>
<ellipse cx="48.365271244028506" cy="91.28596637923549" rx="24.06941941234241" ry="7.850174025029332" fill="#a9a9a9"/>
<ellipse cx="103.0256009581618" cy="1224.2002001144924" rx="25.03886409045014" ry="18.31817427785086" fill="#a9a9a9"/>
<ellipse cx="119.64586019891124" cy="1224.2002001144924" rx="20.031091272360115" ry="9.15908713892543" fill="#a9a9a9"/>
<ellipse cx="81.64758698293494" cy="1224.2002001144924" rx="17.527204863315095" ry="7.327269711140345" fill="#a9a9a9"/>
<ellipse cx="472.75388739665686" cy="930.739832357848" rx="28.65166256357629" ry="14.714483225094872" fill="#a9a9a9"/>
<ellipse cx="490.700766070085" cy="930.739832357848" rx="22.921330050861034" ry="7.357241612547436" fill="#a9a9a9"/>
<ellipse cx="456.006553675072" cy="930.739832357848" rx="20.056163794503405" ry="5.885793290037949" fill="#a9a9a9"/>
<ellipse cx="252.8051949724579" cy="443.5004713216333" rx="21.692958117311672" ry="14.247185914804977" fill="#a9a9a9"/>
<ellipse cx="271.0184467930999" cy="443.5004713216333" rx="17.35436649384934" ry="7.123592957402488" fill="#a9a9a9"/>
<ellipse cx="233.05486275970742" cy="443.5004713216333" rx="15.18507068211817" ry="5.698874365921991" fill="#a9a9a9"/>
<ellipse cx="416.46869678817166" cy="542.5615313195444" rx="21.975281669388817" ry="12.054464891969863" fill="#a9a9a9"/>
<ellipse cx="430.20251201629804" cy="542.5615313195444" rx="17.580225335511056" ry="6.027232445984931" fill="#a9a9a9"/>
<ellipse cx="398.8545447247269" cy="542.5615313195444" rx="15.382697168572172" ry="4.821785956787945" fill="#a9a9a9"/>
<ellipse cx="292.39974989201863" cy="424.4473459312913" rx="24.773049972206437" ry="14.64329423991025" fill="#a9a9a9"/>
<ellipse cx="307.36852261446256" cy="424.4473459312913" rx="19.818439977765152" ry="7.321647119955125" fill="#a9a9a9"/>
<ellipse cx="276.94336889196404" cy="424.4473459312913" rx="17.341134980544506" ry="5.857317695964101" fill="#a9a9a9"/>
<ellipse cx="821.7238391757588" cy="914.0334252799086" rx="34.30819631443828" ry="26.339055228166846" fill="#a9a9a9"/>
<ellipse cx="843.4199101664509" cy="914.0334252799086" rx="27.44655705155062" ry="13.169527614083423" fill="#a9a9a9"/>
<ellipse cx="799.1528223385726" cy="914.0334252799086" rx="24.015737420106788" ry="10.535622091266738" fill="#a9a9a9"/>
<ellipse cx="657.7089572500945" cy="1245.1230397658064" rx="11.639052932835252" ry="4.4899634839493565" fill="#a9a9a9"/>
<ellipse cx="666.5267094065435" cy="1245.1230397658064" rx="9.311242346268202" ry="2.2449817419746783" fill="#a9a9a9"/>
<ellipse cx="649.5637910834495" cy="1245.1230397658064" rx="8.147337052984675" ry="1.7959853935797427" fill="#a9a9a9"/>
<ellipse cx="924.7048618200723" cy="965.9631375996224" rx="37.78765022446981" ry="17.03588055494869" fill="#a9a9a9"/>
<ellipse cx="943.9935727628623" cy="965.9631375996224" rx="30.23012017957585" ry="8.517940277474345" fill="#a9a9a9"/>
<ellipse cx="901.9444846978774" cy="965.9631375996224" rx="26.451355157128866" ry="6.814352221979477" fill="#a9a9a9"/>
<ellipse cx="587.8247416242141" cy="364.8349957376882" rx="27.969898905416624" ry="25.719082881492522" fill="#a9a9a9"/>
<ellipse cx="609.9239322622824" cy="364.8349957376882" rx="22.3759191243333" ry="12.859541440746261" fill="#a9a9a9"/>
<ellipse cx="562.8181509671671" cy="364.8349957376882" rx="19.578929233791637" ry="10.287633152597008" fill="#a9a9a9"/>
<ellipse cx="563.6162710299791" cy="1198.753385804013" rx="28.48584302959814" ry="25.686273525870472" fill="#a9a9a9"/>
<ellipse cx="590.8513950589081" cy="1198.753385804013" rx="22.78867442367851" ry="12.843136762935236" fill="#a9a9a9"/>
<ellipse cx="540.7869956641632" cy="1198.753385804013" rx="19.940090120718697" ry="10.27450941034819" fill="#a9a9a9"/>
<ellipse cx="545.3957462335917" cy="910.375463827688" rx="30.908251331657237" ry="22.585417421715167" fill="#a9a9a9"/>
<ellipse cx="570.6917259948892" cy="910.375463827688" rx="24.72660106532579" ry="11.292708710857584" fill="#a9a9a9"/>
<ellipse cx="517.9274015005639" cy="910.375463827688" rx="21.635775932160065" ry="9.034166968686067" fill="#a9a9a9"/>
<ellipse cx="740.3869558313801" cy="190.2523578099219" rx="36.67786905945684" ry="20.4204669529864" fill="#a9a9a9"/>
<ellipse cx="767.5681532002783" cy="190.2523578099219" rx="29.342295247565467" ry="10.2102334764932" fill="#a9a9a9"/>
<ellipse cx="715.3951322831072" cy="190.2523578099219" rx="25.674508341619784" ry="8.16818678119456" fill="#a9a9a9"/>
<ellipse cx="1053.0682613854615" cy="802.142823115989" rx="22.102151768791586" ry="9.213121158369034" fill="#a9a9a9"/>
<ellipse cx="1068.1274809624986" cy="802.142823115989" rx="17.68172141503327" ry="4.606560579184517" fill="#a9a9a9"/>
<ellipse cx="1037.6880342066943" cy="802.142823115989" rx="15.47150623815411" ry="3.685248463347614" fill="#a9a9a9"/>
<ellipse cx="635.6019759623343" cy="243.59027009624538" rx="36.37945743818216" ry="20.696608275084774" fill="#a9a9a9"/>
<ellipse cx="657.6675981662767" cy="243.59027009624538" rx="29.103565950545725" ry="10.348304137542387" fill="#a9a9a9"/>
<ellipse cx="612.4223720190173" cy="243.59027009624538" rx="25.465620206727507" ry="8.27864331003391" fill="#a9a9a9"/>
<ellipse cx="1066.2467053002897" cy="1098.688710247487" rx="33.283469846287396" ry="16.314112607836833" fill="#a9a9a9"/>
<ellipse cx="1087.6023253035846" cy="1098.688710247487" rx="26.626775877029917" ry="8.157056303918417" fill="#a9a9a9"/>
<ellipse cx="1040.3946250725432" cy="1098.688710247487" rx="23.298428892401176" ry="6.525645043134734" fill="#a9a9a9"/>
<path d="M 0,675 L 10,671.261043194437 L 20,667.6711467977512 L 30,664.3734286507055 L 40,661.499358369271 L 50,659.1635160659154 L 60,657.4590244020968 L 70,656.4538360816172 L 80,656.1880247907588 L 90,656.6721875868724 L 100,657.8870224271407 L 110,659.7840976801153 L 120,662.2877829420273 L 130,665.29826418232 L 140,668.6955230140659 L 150,672.3441214483133 L 160,676.0986013793071 L 170,679.809283540145 L 180,683.3282347428092 L 190,686.515165507542 L 200,689.2430229616953 L 210,691.4030560368237 L 220,692.9091510306007 L 230,693.7012646883818 L 240,693.7478179382905 L 250,693.0469548491602 L 260,691.6266166206533 L 270,689.5434276558037 L 280,686.8804381247571 L 290,683.743813016567 L 300,680.2585996761038 L 310,676.5637425610253 L 320,672.8065439647137 L 330,669.1367915386783 L 340,665.7007867315714 L 350,662.6355122121124 L 360,660.063170802359 L 370,658.0863136368251 L 380,656.7837517723674 L 390,656.20741424005 L 400,656.3802777985479 L 410,657.2954509232867 L 420,658.9164485497786 L 430,661.1786466180092 L 440,663.991858429777 L 450,667.2439301077501 L 460,670.8052118166333 L 470,674.5337264929678 L 480,678.2808300226164 L 490,681.8971372125213 L 500,685.238477306938 L 510,688.1716416205105 L 520,690.579694148192 L 530,692.366633434753" fill="none" stroke="#ff6464" stroke-width="3" opacity="0.59"/>
<path d="M 540,663.8565644264446 L 550,663.640111253584 L 560,663.8765409968411 L 570,664.5564279484493 L 580,665.6526671611555 L 590,667.1215550369319 L 600,668.9045316515151 L 610,670.9305153537897 L 620,673.1187365669072 L 630,675.3819578164321 L 640,677.6299516131535 L 650,679.7730975383506 L 660,681.725955127074 L 670,683.4106701098598 L 680,684.7600782167698 L 690,685.720382804885 L 700,686.2532995606937 L 710,686.3375827748579 L 720,685.9698723415997 L 730,685.1648277155161 L 740,683.9545434853836 L 750,682.3872698641849 L 760,680.5254891053792 L 770,678.4434245326312 L 780,676.2240814901216 L 790,673.9559381814136 L 800,671.7294183226849 L 810,669.6332862345134 L 820,667.7511080885273 L 830,666.1579203878504 L 840,664.917238498514 L 850,664.0785244922482 L 860,663.6752152497675 L 870,663.7233894378536 L 880,664.2211265036501 L 890,665.1485832410438 L 900,666.4687848766738 L 910,668.1290991374647 L 920,670.0633345332633 L 930,672.1943792026719 L 940,674.4372751196217 L 950,676.7026051017712 L 960,678.900057591394 L 970,680.9420270921914 L 980,682.7471067239741 L 990,684.2433336580807 L 1000,685.3710580482658 L 1010,686.0853210818328 L 1020,686.3576473456208 L 1030,686.1771800508675 L 1040,685.5511138591174 L 1050,684.5044080537696 L 1060,683.078791492212 L 1070,681.3310990079606" fill="none" stroke="#ff6464" stroke-width="3" opacity="0.59"/>
<ellipse cx="389.57036751768106" cy="89.57650069593289" rx="1.5" ry="1.5" fill="#6496ff" opacity="0.49607843137254903"/>
<ellipse cx="386.27706009255587" cy="518.5639145404864" rx="1.5" ry="1.5" fill="#6496ff" opacity="0.49607843137254903"/>
<ellipse cx="374.3360425784886" cy="1164.941096848315" rx="1.5" ry="1.5" fill="#6496ff" opacity="0.49607843137254903"/>
<ellipse cx="280.2093030327043" cy="358.5686446905921" rx="1.5" ry="1.5" fill="#6496ff" opacity="0.49607843137254903"/>
<ellipse cx="144.32353026434944" cy="111.92214494194936" rx="1.5" ry="1.5" fill="#6496ff" opacity="0.49607843137254903"/>
<ellipse cx="95.61428730171839" cy="1320.3162348458154" rx="1.5" ry="1.5" fill="#6496ff" opacity="0.49607843137254903"/>
<ellipse cx="417.9607345619987" cy="464.4799592273682" rx="1.5" ry="1.5" fill="#6496ff" opacity="0.49607843137254903"/>
<ellipse cx="146.28291613714904" cy="963.0850200369418" rx="1.5" ry="1.5" fill="#6496ff" opacity="0.49607843137254903"/>
<ellipse cx="378.8034011697412" cy="1335.0245839613603" rx="1.5" ry="1.5" fill="#6496ff" opacity="0.49607843137254903"/>
<ellipse cx="206.05197439252026" cy="546.5401055973675" rx="1.5" ry="1.5" fill="#6496ff" opacity="0.49607843137254903"/>
<ellipse cx="219.90607748735047" cy="1006.1093692696231" rx="1.5" ry="1.5" fill="#6496ff" opacity="0.49607843137254903"/>
<ellipse cx="163.74705799098456" cy="32.024610057484644" rx="1.5" ry="1.5" fill="#6496ff" opacity="0.49607843137254903"/>
<ellipse cx="58.86643390118444" cy="846.2390031880881" rx="1.5" ry="1.5" fill="#6496ff" opacity="0.49607843137254903"/>
<ellipse cx="298.725814958441" cy="20.468044290537037" rx="1.5" ry="1.5" fill="#6496ff" opacity="0.49607843137254903"/>
<ellipse cx="79.7731159253852" cy="959.5634941754693" rx="1.5" ry="1.5" fill="#6496ff" opacity="0.49607843137254903"/>
<ellipse cx="330.0085260020609" cy="634.1913703056944" rx="1.5" ry="1.5" fill="#6496ff" opacity="0.49607843137254903"/>
<ellipse cx="121.5573692887823" cy="1124.5129515996728" rx="1.5" ry="1.5" fill="#6496ff" opacity="0.49607843137254903"/>
<ellipse cx="324.9387003504386" cy="1000.5612199197343" rx="1.5" ry="1.5" fill="#6496ff" opacity="0.49607843137254903"/>
<ellipse cx="149.23177964483935" cy="199.6978105044448" rx="1.5" ry="1.5" fill="#6496ff" opacity="0.49607843137254903"/>
<ellipse cx="312.8664584424656" cy="49.12980797194401" rx="1.5" ry="1.5" fill="#6496ff" opacity="0.49607843137254903"/>
<ellipse cx="402.2897835459047" cy="459.8417224641152" rx="1.5" ry="1.5" fill="#6496ff" opacity="0.49607843137254903"/>
<ellipse cx="435.96863528525864" cy="437.755340541599" rx="1.5" ry="1.5" fill="#6496ff" opacity="0.49607843137254903"/>
<ellipse cx="117.15277438850737" cy="328.91477212724965" rx="1.5" ry="1.5" fill="#6496ff" opacity="0.49607843137254903"/>
<ellipse cx="171.6444683874233" cy="493.10824894025376" rx="1.5" ry="1.5" fill="#6496ff" opacity="0.49607843137254903"/>
<ellipse cx="334.9768354068402" cy="2.936053277429218" rx="1.5" ry="1.5" fill="#6496ff" opacity="0.49607843137254903"/>
<ellipse cx="460.1097538508986" cy="928.0828361064581" rx="1.5" ry="1.5" fill="#6496ff" opacity="0.49607843137254903"/>
<ellipse cx="15.76482296724097" cy="977.4466751969636" rx="1.5" ry="1.5" fill="#6496ff" opacity="0.49607843137254903"/>
<ellipse cx="100.8582258694145" cy="796.8198586240503" rx="1.5" ry="1.5" fill="#6496ff" opacity="0.49607843137254903"/>
<ellipse cx="360.37385718914396" cy="406.23251814685415" rx="1.5" ry="1.5" fill="#6496ff" opacity="0.49607843137254903"/>
<ellipse cx="392.42080468331505" cy="903.8938705361886" rx="1.5" ry="1.5" fill="#6496ff" opacity="0.49607843137254903"/>
<ellipse cx="133.70771175888726" cy="928.2333080322637" rx="1.5" ry="1.5" fill="#6496ff" opacity="0.49607843137254903"/>
<ellipse cx="321.36226430598754" cy="660.6076422429679" rx="1.5" ry="1.5" fill="#6496ff" opacity="0.49607843137254903"/>
<ellipse cx="475.6664445231047" cy="454.4195832938047" rx="1.5" ry="1.5" fill="#6496ff" opacity="0.49607843137254903"/>
<ellipse cx="463.10340664494015" cy="165.3911770160269" rx="1.5" ry="1.5" fill="#6496ff" opacity="0.49607843137254903"/>
<ellipse cx="456.27936801699894" cy="228.15277587070725" rx="1.5" ry="1.5" fill="#6496ff" opacity="0.49607843137254903"/>
<ellipse cx="198.06471535845878" cy="232.17399727188703" rx="1.5" ry="1.5" fill="#6496ff" opacity="0.49607843137254903"/>
<ellipse cx="505.127029058117" cy="119.06594043554084" rx="1.5" ry="1.5" fill="#6496ff" opacity="0.49607843137254903"/>
<ellipse cx="107.88211052673037" cy="333.9706690674511" rx="1.5" ry="1.5" fill="#6496ff" opacity="0.49607843137254903"/>
<ellipse cx="10.869737868602266" cy="653.934851034514" rx="1.5" ry="1.5" fill="#6496ff" opacity="0.49607843137254903"/>
<ellipse cx="306.9457019804724" cy="562.3816612001423" rx="1.5" ry="1.5" fill="#6496ff" opacity="0.49607843137254903"/>
<ellipse cx="101.5207529540736" cy="891.3355399348472" rx="1.5" ry="1.5" fill="#6496ff" opacity="0.49607843137254903"/>
<ellipse cx="528.1569745615856" cy="475.97215197792843" rx="1.5" ry="1.5" fill="#6496ff" opacity="0.49607843137254903"/>
<ellipse cx="283.40941442335463" cy="667.6595452556663" rx="1.5" ry="1.5" fill="#6496ff" opacity="0.49607843137254903"/>
<ellipse cx="146.52663237719173" cy="328.62489238783013" rx="1.5" ry="1.5" fill="#6496ff" opacity="0.49607843137254903"/>
<ellipse cx="107.03764920450638" cy="77.83796045828515" rx="1.5" ry="1.5" fill="#6496ff" opacity="0.49607843137254903"/>
<ellipse cx="226.1737884144177" cy="46.236804149223865" rx="1.5" ry="1.5" fill="#6496ff" opacity="0.49607843137254903"/>
<ellipse cx="173.99844475742358" cy="166.7468727411455" rx="1.5" ry="1.5" fill="#6496ff" opacity="0.49607843137254903"/>
<ellipse cx="476.1005922388754" cy="661.1990693310271" rx="1.5" ry="1.5" fill="#6496ff" opacity="0.49607843137254903"/>
<ellipse cx="238.73660098702487" cy="1114.9721866077614" rx="1.5" ry="1.5" fill="#6496ff" opacity="0.49607843137254903"/>
<ellipse cx="479.8851301520528" cy="862.5166658603198" rx="1.5" ry="1.5" fill="#6496ff" opacity="0.49607843137254903"/>
<ellipse cx="220.09005556818565" cy="748.2416871694111" rx="1.5" ry="1.5" fill="#6496ff" opacity="0.49607843137254903"/>
<ellipse cx="1040.5916120952888" cy="672.611117676185" rx="1.5" ry="1.5" fill="#ff9664" opacity="0.49607843137254903"/>
<ellipse cx="626.614408533375" cy="1321.8310526208165" rx="1.5" ry="1.5" fill="#ff9664" opacity="0.49607843137254903"/>
<ellipse cx="620.8937073130597" cy="807.4101854150231" rx="1.5" ry="1.5" fill="#ff9664" opacity="0.49607843137254903"/>
<ellipse cx="983.5452105680226" cy="151.57254345322613" rx="1.5" ry="1.5" fill="#ff9664" opacity="0.49607843137254903"/>
<ellipse cx="738.4720034331418" cy="530.4494264211736" rx="1.5" ry="1.5" fill="#ff9664" opacity="0.49607843137254903"/>
<ellipse cx="733.87980946986" cy="470.1525094314257" rx="1.5" ry="1.5" fill="#ff9664" opacity="0.49607843137254903"/>
<ellipse cx="1016.3990738226096" cy="755.8219317141092" rx="1.5" ry="1.5" fill="#ff9664" opacity="0.49607843137254903"/>
<ellipse cx="845.3944732180771" cy="1244.91008578097" rx="1.5" ry="1.5" fill="#ff9664" opacity="0.49607843137254903"/>
<ellipse cx="789.5403243273219" cy="723.0431917696461" rx="1.5" ry="1.5" fill="#ff9664" opacity="0.49607843137254903"/>
<ellipse cx="855.8898498098785" cy="859.0994242853948" rx="1.5" ry="1.5" fill="#ff9664" opacity="0.49607843137254903"/>
<ellipse cx="671.2814283982299" cy="288.41207487900374" rx="1.5" ry="1.5" fill="#ff9664" opacity="0.49607843137254903"/>
<ellipse cx="649.146090796751" cy="25.71440489297472" rx="1.5" ry="1.5" fill="#ff9664" opacity="0.49607843137254903"/>
<ellipse cx="760.9176974282217" cy="522.0531734274948" rx="1.5" ry="1.5" fill="#ff9664" opacity="0.49607843137254903"/>
<ellipse cx="623.8450491818809" cy="917.2462422946684" rx="1.5" ry="1.5" fill="#ff9664" opacity="0.49607843137254903"/>
<ellipse cx="867.9191710091751" cy="1169.7096889697527" rx="1.5" ry="1.5" fill="#ff9664" opacity="0.49607843137254903"/>
<ellipse cx="1020.5063941332076" cy="847.6527754439287" rx="1.5" ry="1.5" fill="#ff9664" opacity="0.49607843137254903"/>
<ellipse cx="773.3464552058589" cy="1266.1739414865963" rx="1.5" ry="1.5" fill="#ff9664" opacity="0.49607843137254903"/>
<ellipse cx="940.6251456218889" cy="1245.588738306234" rx="1.5" ry="1.5" fill="#ff9664" opacity="0.49607843137254903"/>
<ellipse cx="932.4755217472443" cy="739.3426004514763" rx="1.5" ry="1.5" fill="#ff9664" opacity="0.49607843137254903"/>
<ellipse cx="558.4935307588864" cy="892.0186985712586" rx="1.5" ry="1.5" fill="#ff9664" opacity="0.49607843137254903"/>
<ellipse cx="876.0298492089053" cy="1261.0187894017522" rx="1.5" ry="1.5" fill="#ff9664" opacity="0.49607843137254903"/>
<ellipse cx="555.3173017573158" cy="283.9883561637198" rx="1.5" ry="1.5" fill="#ff9664" opacity="0.49607843137254903"/>
<ellipse cx="973.2923271289526" cy="664.1895178073037" rx="1.5" ry="1.5" fill="#ff9664" opacity="0.49607843137254903"/>
<ellipse cx="1051.3052132126434" cy="313.47244992548247" rx="1.5" ry="1.5" fill="#ff9664" opacity="0.49607843137254903"/>
<ellipse cx="747.6777953876544" cy="828.8806382701177" rx="1.5" ry="1.5" fill="#ff9664" opacity="0.49607843137254903"/>
<ellipse cx="796.1923099757137" cy="245.80144297601723" rx="1.5" ry="1.5" fill="#ff9664" opacity="0.49607843137254903"/>
<ellipse cx="1016.2929388118409" cy="949.9294285429313" rx="1.5" ry="1.5" fill="#ff9664" opacity="0.49607843137254903"/>
<ellipse cx="653.2542801430702" cy="2.9611989869555453" rx="1.5" ry="1.5" fill="#ff9664" opacity="0.49607843137254903"/>
<ellipse cx="769.6280427135657" cy="239.84106492243757" rx="1.5" ry="1.5" fill="#ff9664" opacity="0.49607843137254903"/>
<ellipse cx="758.2826382938226" cy="1159.7236638701165" rx="1.5" ry="1.5" fill="#ff9664" opacity="0.49607843137254903"/>
<ellipse cx="668.7985611561679" cy="1259.285586168657" rx="1.5" ry="1.5" fill="#ff9664" opacity="0.49607843137254903"/>
<ellipse cx="699.5118928698413" cy="146.78061611334823" rx="1.5" ry="1.5" fill="#ff9664" opacity="0.49607843137254903"/>
<ellipse cx="730.4619402580252" cy="1122.8536968691524" rx="1.5" ry="1.5" fill="#ff9664" opacity="0.49607843137254903"/>
<ellipse cx="949.0927078244708" cy="181.04814299431078" rx="1.5" ry="1.5" fill="#ff9664" opacity="0.49607843137254903"/>
<ellipse cx="872.0541878100737" cy="9.7043931529412" rx="1.5" ry="1.5" fill="#ff9664" opacity="0.49607843137254903"/>
<ellipse cx="773.1061004442656" cy="1007.4166242999103" rx="1.5" ry="1.5" fill="#ff9664" opacity="0.49607843137254903"/>
<ellipse cx="545.4882502581404" cy="1313.5399640135188" rx="1.5" ry="1.5" fill="#ff9664" opacity="0.49607843137254903"/>
<ellipse cx="692.2782970183894" cy="1110.458511631218" rx="1.5" ry="1.5" fill="#ff9664" opacity="0.49607843137254903"/>
<ellipse cx="841.776645324089" cy="662.5523510680312" rx="1.5" ry="1.5" fill="#ff9664" opacity="0.49607843137254903"/>
<ellipse cx="669.4840694076773" cy="123.6897335032419" rx="1.5" ry="1.5" fill="#ff9664" opacity="0.49607843137254903"/>
<ellipse cx="602.9050863082078" cy="842.066444848695" rx="1.5" ry="1.5" fill="#ff9664" opacity="0.49607843137254903"/>
<ellipse cx="724.3146229648565" cy="758.5915807441769" rx="1.5" ry="1.5" fill="#ff9664" opacity="0.49607843137254903"/>
<ellipse cx="796.016893506058" cy="574.8040440375004" rx="1.5" ry="1.5" fill="#ff9664" opacity="0.49607843137254903"/>
<ellipse cx="655.067796760736" cy="1337.2689894108423" rx="1.5" ry="1.5" fill="#ff9664" opacity="0.49607843137254903"/>
<ellipse cx="737.3764229739907" cy="684.8632338851985" rx="1.5" ry="1.5" fill="#ff9664" opacity="0.49607843137254903"/>
<ellipse cx="572.1592140347507" cy="395.1074527553783" rx="1.5" ry="1.5" fill="#ff9664" opacity="0.49607843137254903"/>
<ellipse cx="670.2613092075387" cy="1293.110870427038" rx="1.5" ry="1.5" fill="#ff9664" opacity="0.49607843137254903"/>
<ellipse cx="630.7920885508843" cy="536.5977334494692" rx="1.5" ry="1.5" fill="#ff9664" opacity="0.49607843137254903"/>
<ellipse cx="807.2819782548034" cy="1001.4762823476813" rx="1.5" ry="1.5" fill="#ff9664" opacity="0.49607843137254903"/>
<ellipse cx="764.7901226136787" cy="385.2630080586593" rx="1.5" ry="1.5" fill="#ff9664" opacity="0.49607843137254903"/>
<ellipse cx="571.7292666582993" cy="984.5050205404428" rx="1.5" ry="1.5" fill="#ff9664" opacity="0.49607843137254903"/>
<line x1="355.8089734780644" y1="45.02570631216546" x2="463.8089734780644" y2="45.02570631216546" stroke="#c8c8c8" stroke-width="1" opacity="0.39"/>
<line x1="163.6951894330304" y1="270.9947885344712" x2="271.6951894330304" y2="270.9947885344712" stroke="#c8c8c8" stroke-width="1" opacity="0.39"/>
<line x1="349.63735537120954" y1="1234.8730450658468" x2="457.63735537120954" y2="1234.8730450658468" stroke="#c8c8c8" stroke-width="1" opacity="0.39"/>
<line x1="374.0737869097263" y1="193.86094817605846" x2="482.0737869097263" y2="193.86094817605846" stroke="#c8c8c8" stroke-width="1" opacity="0.39"/>
<line x1="89.1299933610158" y1="237.08026718212304" x2="197.1299933610158" y2="237.08026718212304" stroke="#c8c8c8" stroke-width="1" opacity="0.39"/>
<line x1="380.9306557760251" y1="302.3685873962792" x2="488.9306557760251" y2="302.3685873962792" stroke="#c8c8c8" stroke-width="1" opacity="0.39"/>
<line x1="278.2161374195554" y1="211.33017549818857" x2="386.2161374195554" y2="211.33017549818857" stroke="#c8c8c8" stroke-width="1" opacity="0.39"/>
<line x1="132.87570661533425" y1="379.7291817049166" x2="240.87570661533425" y2="379.7291817049166" stroke="#c8c8c8" stroke-width="1" opacity="0.39"/>
<line x1="495.0516059319729" y1="1233.1956451913322" x2="603.051605931973" y2="1233.1956451913322" stroke="#c8c8c8" stroke-width="1" opacity="0.39"/>
<line x1="361.0233809244928" y1="565.2650895366749" x2="469.0233809244928" y2="565.2650895366749" stroke="#c8c8c8" stroke-width="1" opacity="0.39"/>
<line x1="231.81952725714982" y1="394.5929111887668" x2="339.81952725714984" y2="394.5929111887668" stroke="#c8c8c8" stroke-width="1" opacity="0.39"/>
<line x1="185.1902891067743" y1="350.30813829522026" x2="293.1902891067743" y2="350.30813829522026" stroke="#c8c8c8" stroke-width="1" opacity="0.39"/>
<line x1="470.5363013551274" y1="1273.771244880637" x2="578.5363013551274" y2="1273.771244880637" stroke="#c8c8c8" stroke-width="1" opacity="0.39"/>
<line x1="325.5492140378567" y1="3.1444609179834186" x2="433.5492140378567" y2="3.1444609179834186" stroke="#c8c8c8" stroke-width="1" opacity="0.39"/>
<line x1="83.47733265882233" y1="1045.1347862580487" x2="191.47733265882232" y2="1045.1347862580487" stroke="#c8c8c8" stroke-width="1" opacity="0.39"/>
<line x1="491.4094450377903" y1="1159.1912990245928" x2="599.4094450377903" y2="1159.1912990245928" stroke="#c8c8c8" stroke-width="1" opacity="0.39"/>
<line x1="139.73296171973132" y1="887.31057685209" x2="247.73296171973132" y2="887.31057685209" stroke="#c8c8c8" stroke-width="1" opacity="0.39"/>
<line x1="480.0303556770228" y1="1064.2488246151474" x2="588.0303556770227" y2="1064.2488246151474" stroke="#c8c8c8" stroke-width="1" opacity="0.39"/>
<line x1="155.70982940295238" y1="906.241393511296" x2="263.7098294029524" y2="906.241393511296" stroke="#c8c8c8" stroke-width="1" opacity="0.39"/>
<line x1="229.63271151745352" y1="130.50019747135238" x2="337.6327115174535" y2="130.50019747135238" stroke="#c8c8c8" stroke-width="1" opacity="0.39"/>
<line x1="387.2384710923016" y1="954.6542470132254" x2="495.2384710923016" y2="954.6542470132254" stroke="#c8c8c8" stroke-width="1" opacity="0.39"/>
<line x1="97.01393370377549" y1="1124.21667479175" x2="205.01393370377548" y2="1124.21667479175" stroke="#c8c8c8" stroke-width="1" opacity="0.39"/>
<line x1="215.28641233932527" y1="67.9415345508333" x2="323.28641233932524" y2="67.9415345508333" stroke="#c8c8c8" stroke-width="1" opacity="0.39"/>
<line x1="444.2535229605872" y1="809.2063132716373" x2="552.2535229605871" y2="809.2063132716373" stroke="#c8c8c8" stroke-width="1" opacity="0.39"/>
<line x1="171.87318571464772" y1="1236.2839406525177" x2="279.8731857146477" y2="1236.2839406525177" stroke="#c8c8c8" stroke-width="1" opacity="0.39"/>
<line x1="69.38155892741939" y1="256.5588579776505" x2="177.3815589274194" y2="256.5588579776505" stroke="#c8c8c8" stroke-width="1" opacity="0.39"/>
<line x1="34.519418494086445" y1="597.5603478949332" x2="142.51941849408644" y2="597.5603478949332" stroke="#c8c8c8" stroke-width="1" opacity="0.39"/>
<line x1="281.0021211025315" y1="73.96459582912019" x2="389.0021211025315" y2="73.96459582912019" stroke="#c8c8c8" stroke-width="1" opacity="0.39"/>
<line x1="399.87901408219665" y1="324.482971580924" x2="507.87901408219665" y2="324.482971580924" stroke="#c8c8c8" stroke-width="1" opacity="0.39"/>
<line x1="366.28756480584275" y1="372.3847033327374" x2="474.28756480584275" y2="372.3847033327374" stroke="#c8c8c8" stroke-width="1" opacity="0.39"/>
<line x1="516.4522221109141" y1="720.3414562718671" x2="624.4522221109141" y2="720.3414562718671" stroke="#c8c8c8" stroke-width="1" opacity="0.39"/>
<line x1="252.54242431956456" y1="290.3219820420826" x2="360.5424243195646" y2="290.3219820420826" stroke="#c8c8c8" stroke-width="1" opacity="0.39"/>
<line x1="17.15040386521742" y1="85.91118160910494" x2="125.15040386521741" y2="85.91118160910494" stroke="#c8c8c8" stroke-width="1" opacity="0.39"/>
<line x1="190.98880121064784" y1="1105.212754525809" x2="298.9888012106478" y2="1105.212754525809" stroke="#c8c8c8" stroke-width="1" opacity="0.39"/>
<line x1="327.90050283442275" y1="781.1448279680428" x2="435.90050283442275" y2="781.1448279680428" stroke="#c8c8c8" stroke-width="1" opacity="0.39"/>
<line x1="265.6971145913457" y1="1018.8318912958875" x2="373.6971145913457" y2="1018.8318912958875" stroke="#c8c8c8" stroke-width="1" opacity="0.39"/>
<line x1="385.4643990404273" y1="719.503802396126" x2="493.4643990404273" y2="719.503802396126" stroke="#c8c8c8" stroke-width="1" opacity="0.39"/>
<line x1="283.949182165763" y1="148.23319322812986" x2="391.949182165763" y2="148.23319322812986" stroke="#c8c8c8" stroke-width="1" opacity="0.39"/>
<line x1="26.443228137885793" y1="1208.9620208409438" x2="134.4432281378858" y2="1208.9620208409438" stroke="#c8c8c8" stroke-width="1" opacity="0.39"/>
<line x1="521.1017563385432" y1="120.21306758756427" x2="629.1017563385432" y2="120.21306758756427" stroke="#c8c8c8" stroke-width="1" opacity="0.39"/>
<line x1="207.73083875315768" y1="285.00975979725354" x2="315.7308387531577" y2="285.00975979725354" stroke="#c8c8c8" stroke-width="1" opacity="0.39"/>
<line x1="125.44352000832723" y1="677.9844138203116" x2="233.44352000832723" y2="677.9844138203116" stroke="#c8c8c8" stroke-width="1" opacity="0.39"/>
<line x1="489.8872806922939" y1="1159.5199232732505" x2="597.8872806922939" y2="1159.5199232732505" stroke="#c8c8c8" stroke-width="1" opacity="0.39"/>
<line x1="466.9735767631669" y1="925.9359960099384" x2="574.9735767631669" y2="925.9359960099384" stroke="#c8c8c8" stroke-width="1" opacity="0.39"/>
<line x1="426.17138405617857" y1="574.3795039944255" x2="534.1713840561786" y2="574.3795039944255" stroke="#c8c8c8" stroke-width="1" opacity="0.39"/>
<line x1="131.29662043009728" y1="1135.3131344240685" x2="239.29662043009728" y2="1135.3131344240685" stroke="#c8c8c8" stroke-width="1" opacity="0.39"/>
<line x1="0.9218859676839253" y1="97.55042206847594" x2="108.92188596768392" y2="97.55042206847594" stroke="#c8c8c8" stroke-width="1" opacity="0.39"/>
<line x1="83.45108632159004" y1="212.0153860244972" x2="191.45108632159003" y2="212.0153860244972" stroke="#c8c8c8" stroke-width="1" opacity="0.39"/>
<line x1="77.46127370626725" y1="80.45520637205578" x2="185.46127370626726" y2="80.45520637205578" stroke="#c8c8c8" stroke-width="1" opacity="0.39"/>
<line x1="91.93976287354704" y1="713.5067719563407" x2="199.93976287354704" y2="713.5067719563407" stroke="#c8c8c8" stroke-width="1" opacity="0.39"/>
<line x1="379.1690399028217" y1="1124.8466854565063" x2="487.1690399028217" y2="1124.8466854565063" stroke="#c8c8c8" stroke-width="1" opacity="0.39"/>
<line x1="484.3854477276958" y1="1336.8939763572505" x2="592.3854477276958" y2="1336.8939763572505" stroke="#c8c8c8" stroke-width="1" opacity="0.39"/>
<line x1="368.76842039114257" y1="866.7520884735287" x2="476.76842039114257" y2="866.7520884735287" stroke="#c8c8c8" stroke-width="1" opacity="0.39"/>
<line x1="28.29696179753959" y1="390.57462680645966" x2="136.29696179753958" y2="390.57462680645966" stroke="#c8c8c8" stroke-width="1" opacity="0.39"/>
<line x1="836.1676956602222" y1="863.471478625886" x2="851.5676956602222" y2="863.471478625886" stroke="#c8c8c8" stroke-width="1" opacity="0.39"/>
<line x1="657.0629096576306" y1="627.7542698326307" x2="672.4629096576306" y2="627.7542698326307" stroke="#c8c8c8" stroke-width="1" opacity="0.39"/>
<line x1="1040.6315233654489" y1="60.232543973360464" x2="1056.031523365449" y2="60.232543973360464" stroke="#c8c8c8" stroke-width="1" opacity="0.39"/>
<line x1="955.5170222071545" y1="1222.7054184408419" x2="970.9170222071544" y2="1222.7054184408419" stroke="#c8c8c8" stroke-width="1" opacity="0.39"/>
<line x1="626.110432188078" y1="1022.0921029439626" x2="641.510432188078" y2="1022.0921029439626" stroke="#c8c8c8" stroke-width="1" opacity="0.39"/>
<line x1="907.0251991073718" y1="613.867843436947" x2="922.4251991073718" y2="613.867843436947" stroke="#c8c8c8" stroke-width="1" opacity="0.39"/>
<line x1="713.0028677792302" y1="35.50719024404287" x2="728.4028677792302" y2="35.50719024404287" stroke="#c8c8c8" stroke-width="1" opacity="0.39"/>
<line x1="689.271383131515" y1="977.9011134886654" x2="704.671383131515" y2="977.9011134886654" stroke="#c8c8c8" stroke-width="1" opacity="0.39"/>
<ellipse cx="340.3058911954546" cy="1103.2881622683667" rx="37.20541716888799" ry="31.287031158137754" fill="#f1e07e" opacity="0.2383850790099847"/>
<ellipse cx="157.75521762564554" cy="83.91750905845198" rx="13.895842434789913" ry="11.539557993838953" fill="#9cd5f0" opacity="0.22814917920153302"/>
<ellipse cx="436.4299966937071" cy="628.1821492259307" rx="26.330819137548477" ry="26.61094205482079" fill="#e58394" opacity="0.2041231604586107"/>
<rect x="910.7867805477171" y="754.7446254476648" width="28.887760643329358" height="23.177965174341875" fill="#6798b5" opacity="0.18058234689875652"/>
<ellipse cx="307.41797461519855" cy="421.16206903996044" rx="34.109475623867226" ry="27.23831727196554" fill="#86fa64" opacity="0.23205586046048798"/>
<line x1="22.986187945579267" y1="1113.2204711033128" x2="949.240766013619" y2="979.6644513400572" stroke="#f2c0a2" stroke-width="2.019519441304505" opacity="0.15799860627096374"/>
<line x1="825.9409479172626" y1="690.0434914464334" x2="495.6682350559478" y2="239.72720514970237" stroke="#b5a0c8" stroke-width="2.7702558048862294" opacity="0.22212758721791523"/>
<line x1="719.3013814460959" y1="1107.1371858507102" x2="818.9971593855868" y2="366.0531343734139" stroke="#a0dbf3" stroke-width="1.2189078332013021" opacity="0.36380956696815975"/>
<line x1="580.5413856825518" y1="944.7591487992365" x2="934.1684679566737" y2="1185.5670159615424" stroke="#ca9ac9" stroke-width="2.3818559653041214" opacity="0.32099850980136657"/>
<line x1="754.4955257114468" y1="498.96104359019597" x2="445.20017644632617" y2="845.5556635025682" stroke="#f6a8a2" stroke-width="2.299387336382357" opacity="0.262927022684158"/>
<line x1="102.69556050314361" y1="545.3418421304514" x2="477.6898815472098" y2="330.16067162629247" stroke="#f1f3ed" stroke-width="1.203285038565884" opacity="0.19519851723754453"/>
<line x1="558.0448510861232" y1="850.6733183053664" x2="702.0691111972877" y2="1211.3064056315025" stroke="#f8cbfe" stroke-width="1.2512083650805095" opacity="0.19351648818582207"/>
<line x1="220.74788342264847" y1="1031.1839063797072" x2="887.0229582148712" y2="399.13120884407834" stroke="#e1e7b9" stroke-width="1.1666467786611276" opacity="0.1971774475434982"/>
<line x1="376.41921776180124" y1="497.1252056290979" x2="144.0176940634929" y2="343.51384804747715" stroke="#fcc299" stroke-width="2.6806080349165056" opacity="0.28750811143488747"/>
<ellipse cx="346.14310757543103" cy="129.1234195833669" rx="3.1787395189417245" ry="3.1787395189417245" fill="#fddfeb" opacity="0.08872260299862648"/>
<ellipse cx="805.7828275141226" cy="1083.7285821715968" rx="2.137134671740762" ry="2.137134671740762" fill="#cde6d6" opacity="0.1395501903743744"/>
<ellipse cx="399.302473254177" cy="746.259963859925" rx="1.7091281417334119" ry="1.7091281417334119" fill="#e7f1e0" opacity="0.13187193405545544"/>
<ellipse cx="689.6936562888761" cy="775.2025548253221" rx="1.9207776789184556" ry="1.9207776789184556" fill="#f5e2e6" opacity="0.1814499088841869"/>
<ellipse cx="922.8398470407539" cy="885.9144870591883" rx="3.957638622707519" ry="3.957638622707519" fill="#eacecf" opacity="0.1854811182707579"/>
<ellipse cx="869.0601829760989" cy="1112.5520830566772" rx="3.973014117671649" ry="3.973014117671649" fill="#d9d6da" opacity="0.20248050321483826"/>
<ellipse cx="608.0672553032949" cy="525.0440242351237" rx="2.5995886333284846" ry="2.5995886333284846" fill="#d6edf8" opacity="0.09620288774906519"/>
<ellipse cx="402.87804026290684" cy="973.5287372830924" rx="2.416085124675224" ry="2.416085124675224" fill="#e5cfc8" opacity="0.09414778446013086"/>
<ellipse cx="372.50802593888153" cy="946.2485794658999" rx="2.0310640339884274" ry="2.0310640339884274" fill="#f7f9f1" opacity="0.22663774684252808"/>
<ellipse cx="743.6051562910924" cy="1157.152605595604" rx="1.3813543321477968" ry="1.3813543321477968" fill="#c9f0fc" opacity="0.15031287252744072"/>
<ellipse cx="291.4163876936847" cy="1141.3364773343021" rx="1.392255544845134" ry="1.392255544845134" fill="#f5d0de" opacity="0.11818575393433622"/>
<ellipse cx="618.9068987867362" cy="661.0091689326844" rx="1.916302681395925" ry="1.916302681395925" fill="#f6f1f1" opacity="0.17058353802353365"/>
<ellipse cx="282.1958543184194" cy="463.96336577085935" rx="1.3583288194417622" ry="1.3583288194417622" fill="#fbdbe4" opacity="0.18115823413920198"/>
<ellipse cx="395.84757346466534" cy="1263.8874119445159" rx="3.2109094868464907" ry="3.2109094868464907" fill="#fdfae1" opacity="0.1901458852951565"/>
</svg>