<svg xmlns="http://www.w3.org/2000/svg" width="1080" height="1350" viewBox="0 0 1080 1350" style="background-color: #e3e8ed;">
<rect x="0" y="0" width="1080" height="1350" fill="#e3e8ed"/>
<ellipse cx="266.0409308718708" cy="535.9867932908176" rx="23.848397699271047" ry="18.02995584918973" fill="#a9a9a9"/>
<ellipse cx="286.7337277808791" cy="535.9867932908176" rx="19.078718159416837" ry="9.014977924594865" fill="#a9a9a9"/>
<ellipse cx="245.99630789093442" cy="535.9867932908176" rx="16.693878389489733" ry="7.211982339675892" fill="#a9a9a9"/>
<ellipse cx="526.8975808689826" cy="629.4792655061368" rx="28.456782305834544" ry="16.21684811347559" fill="#a9a9a9"/>
<ellipse cx="545.153467018012" cy="629.4792655061368" rx="22.765425844667636" ry="8.108424056737794" fill="#a9a9a9"/>
<ellipse cx="510.4157462781099" cy="629.4792655061368" rx="19.91974761408418" ry="6.486739245390236" fill="#a9a9a9"/>
<ellipse cx="417.1160479342174" cy="988.0541865658269" rx="21.57525879624958" ry="12.276200182773733" fill="#a9a9a9"/>
<ellipse cx="432.74804057420926" cy="988.0541865658269" rx="17.260207036999667" ry="6.138100091386867" fill="#a9a9a9"/>
<ellipse cx="401.577499542684" cy="988.0541865658269" rx="15.102681157374708" ry="4.910480073109493" fill="#a9a9a9"/>
<ellipse cx="272.8084017116616" cy="581.7980113354503" rx="38.03084013120711" ry="17.467050622089637" fill="#a9a9a9"/>
<ellipse cx="294.382178448893" cy="581.7980113354503" rx="30.424672104965683" ry="8.733525311044819" fill="#a9a9a9"/>
<ellipse cx="244.9645957860361" cy="581.7980113354503" rx="26.621588091844973" ry="6.986820248835854" fill="#a9a9a9"/>
<ellipse cx="312.82788291239547" cy="185.38849362423107" rx="17.63350129746918" ry="14.438338206577267" fill="#a9a9a9"/>
<ellipse cx="324.9351929638554" cy="185.38849362423107" rx="14.106801037975345" ry="7.219169103288634" fill="#a9a9a9"/>
<ellipse cx="300.03342570448484" cy="185.38849362423107" rx="12.343450908228425" ry="5.775335282630906" fill="#a9a9a9"/>
<ellipse cx="115.73808079386971" cy="1009.0159316589198" rx="28.752012081348738" ry="25.193890635056693" fill="#a9a9a9"/>
<ellipse cx="139.01876142436006" cy="1009.0159316589198" rx="23.00160966507899" ry="12.596945317528347" fill="#a9a9a9"/>
<ellipse cx="96.18134909223991" cy="1009.0159316589198" rx="20.126408456944116" ry="10.077556254022678" fill="#a9a9a9"/>
<ellipse cx="341.28173784412525" cy="1189.2905121619303" rx="43.63729494605429" ry="22.47905926703992" fill="#a9a9a9"/>
<ellipse cx="362.64409622106456" cy="1189.2905121619303" rx="34.90983595684343" ry="11.23952963351996" fill="#a9a9a9"/>
<ellipse cx="317.88264979704525" cy="1189.2905121619303" rx="30.546106462238" ry="8.991623706815968" fill="#a9a9a9"/>
<ellipse cx="266.1492706584508" cy="1101.1752789379914" rx="25.985615186534485" ry="11.164122907518136" fill="#a9a9a9"/>
<ellipse cx="284.2892917405464" cy="1101.1752789379914" rx="20.78849214922759" ry="5.582061453759068" fill="#a9a9a9"/>
<ellipse cx="250.1151286944203" cy="1101.1752789379914" rx="18.18993063057414" ry="4.465649163007255" fill="#a9a9a9"/>
<ellipse cx="478.63457165594895" cy="1201.0859018196752" rx="47.84356670606864" ry="28.140461898123966" fill="#a9a9a9"/>
<ellipse cx="510.80064580408254" cy="1201.0859018196752" rx="38.27485336485491" ry="14.070230949061983" fill="#a9a9a9"/>
<ellipse cx="446.3154692980815" cy="1201.0859018196752" rx="33.49049669424805" ry="11.256184759249585" fill="#a9a9a9"/>
<ellipse cx="238.33620082509526" cy="508.5120680315942" rx="23.167927265750954" ry="15.375256463824655" fill="#a9a9a9"/>
<ellipse cx="251.69257143030916" cy="508.5120680315942" rx="18.534341812600765" ry="7.687628231912328" fill="#a9a9a9"/>
<ellipse cx="222.87189124078026" cy="508.5120680315942" rx="16.217549086025667" ry="6.150102585529862" fill="#a9a9a9"/>
<ellipse cx="686.2148094858112" cy="793.0794242737253" rx="33.39098247879338" ry="20.895469833261597" fill="#a9a9a9"/>
<ellipse cx="705.2840580504794" cy="793.0794242737253" rx="26.712785983034706" ry="10.447734916630798" fill="#a9a9a9"/>
<ellipse cx="668.6129519660581" cy="793.0794242737253" rx="23.373687735155368" ry="8.358187933304638" fill="#a9a9a9"/>
<ellipse cx="1072.7856036521428" cy="382.22701567328863" rx="15.250278549765115" ry="6.311363242389134" fill="#a9a9a9"/>
<ellipse cx="1082.1045561739716" cy="382.22701567328863" rx="12.200222839812092" ry="3.155681621194567" fill="#a9a9a9"/>
<ellipse cx="1062.0720252023536" cy="382.22701567328863" rx="10.67519498483558" ry="2.524545296955653" fill="#a9a9a9"/>
<ellipse cx="1014.0322067560778" cy="81.84674982067511" rx="39.107474341597154" ry="25.1969224392079" fill="#a9a9a9"/>
<ellipse cx="1033.9974978743708" cy="81.84674982067511" rx="31.285979473277724" ry="12.59846121960395" fill="#a9a9a9"/>
<ellipse cx="989.5925783963942" cy="81.84674982067511" rx="27.375232039118004" ry="10.07876897568316" fill="#a9a9a9"/>
<ellipse cx="1038.015918963596" cy="232.75866519322557" rx="20.60052937060844" ry="18.284396217943144" fill="#a9a9a9"/>
<ellipse cx="1054.2749611994775" cy="232.75866519322557" rx="16.480423496486754" ry="9.142198108971572" fill="#a9a9a9"/>
<ellipse cx="1020.1802846360229" cy="232.75866519322557" rx="14.420370559425908" ry="7.313758487177258" fill="#a9a9a9"/>
<ellipse cx="983.6303760687031" cy="1072.335684798814" rx="9.204932635657919" ry="8.049425458344095" fill="#a9a9a9"/>
<ellipse cx="991.0922162238542" cy="1072.335684798814" rx="7.363946108526335" ry="4.024712729172047" fill="#a9a9a9"/>
<ellipse cx="976.0889452963467" cy="1072.335684798814" rx="6.443452844960542" ry="3.2197701833376375" fill="#a9a9a9"/>
<ellipse cx="703.5602474974283" cy="63.35141661732989" rx="22.964361909204847" ry="17.414614482899413" fill="#a9a9a9"/>
<ellipse cx="720.3083079106269" cy="63.35141661732989" rx="18.37148952736388" ry="8.707307241449707" fill="#a9a9a9"/>
<ellipse cx="685.9127146605382" cy="63.35141661732989" rx="16.075053336443393" ry="6.965845793159767" fill="#a9a9a9"/>
<ellipse cx="672.024228634324" cy="298.75661744678234" rx="35.26988959159631" ry="13.350220936556903" fill="#a9a9a9"/>
<ellipse cx="691.9873917108004" cy="298.75661744678234" rx="28.21591167327705" ry="6.675110468278452" fill="#a9a9a9"/>
<ellipse cx="650.8326542907259" cy="298.75661744678234" rx="24.688922714117414" ry="5.340088374622762" fill="#a9a9a9"/>
<ellipse cx="978.618421758813" cy="1158.2566028266478" rx="13.649603165230523" ry="7.815953734756757" fill="#a9a9a9"/>
<ellipse cx="987.3880488400187" cy="1158.2566028266478" rx="10.919682532184419" ry="3.9079768673783786" fill="#a9a9a9"/>
<ellipse cx="971.3154838446125" cy="1158.2566028266478" rx="9.554722215661364" ry="3.126381493902703" fill="#a9a9a9"/>
<ellipse cx="726.6175837193698" cy="708.7382200680386" rx="19.502109259911702" ry="10.402186599721054" fill="#a9a9a9"/>
<ellipse cx="737.07115693831" cy="708.7382200680386" rx="15.601687407929363" ry="5.201093299860527" fill="#a9a9a9"/>
<ellipse cx="713.8528880454598" cy="708.7382200680386" rx="13.65147648193819" ry="4.160874639888422" fill="#a9a9a9"/>
<path d="M 0,675 L 10,669.2107757006319 L 20,663.6523495051259 L 30,658.5463183252687 L 40,654.0962435111879 L 50,650.4795355026979 L 60,647.840381034915 L 70,646.2839948681362 L 80,645.8724252073705 L 90,646.6220800362094 L 100,648.5030729822996 L 110,651.4404147926972 L 120,655.3170029187395 L 130,659.9782900251225 L 140,665.238445304457 L 150,670.8877629651355 L 160,676.7010225394797 L 170,682.4464677130619 L 180,687.895045717612 L 190,692.8295389420708 L 200,697.053224713273 L 210,700.397718008132 L 220,702.7296844331405 L 230,703.9561558458792 L 240,704.0282367014764 L 250,702.9430533636838 L 260,700.7438686676853 L 270,697.5183571673815 L 280,693.3951098275994 L 290,688.5385075081169 L 300,683.1421676175167 L 310,677.4212251981019 L 320,671.6037561706567 L 330,665.9216846672201 L 340,660.6015369478209 L 350,655.8554105133345 L 360,651.8725184474357 L 370,648.8116460880492 L 380,646.7948207570025 L 390,645.902446915784 L 400,646.1701006933946 L 410,647.5871115783514 L 420,650.0969878183075 L 430,653.5996685679484 L 440,657.955512999134 L 450,662.9908673400552 L 460,668.5049879031188 L 470,674.2780441022892 L 480,680.0798824048376 L 490,685.6792018264011 L 500,690.8527751713162 L 510,695.3943483964758 L 520,699.122863309156 L 530,701.8896757857972" fill="none" stroke="#ff6464" stroke-width="3" opacity="0.59"/>
<path d="M 540,663.581902282026 L 550,663.3601139957498 L 560,663.6023712326787 L 570,664.2990159612632 L 580,665.4222751545642 L 590,666.9273680131943 L 600,668.754291234475 L 610,670.8302111547633 L 620,673.0723673977817 L 630,675.3913722696541 L 640,677.694774364182 L 650,679.8907443086621 L 660,681.891735711192 L 670,683.6179753590465 L 680,685.0006435249296 L 690,685.9846175923294 L 700,686.5306696202883 L 710,686.6170302376185 L 720,686.2402565190336 L 730,685.4153692437154 L 740,684.1752540642486 L 750,682.5693504594288 L 760,680.6616807382582 L 770,678.52829767252 L 780,676.2542525127656 L 790,673.9302042633498 L 800,671.6488053940186 L 810,669.5010080783219 L 820,667.5724382174699 L 830,665.9399818058607 L 840,664.6687197291113 L 850,663.809333194522 L 860,663.3960832312758 L 870,663.4454448113219 L 880,663.9554500442331 L 890,664.9057666307879 L 900,666.2585084475777 L 910,667.9597459471909 L 920,669.9416561590832 L 930,672.1252265773858 L 940,674.4234051401758 L 950,676.7445707204768 L 960,678.9961857714636 L 970,681.0884855064356 L 980,682.9380565375931 L 990,684.4711623045827 L 1000,685.6266827184696 L 1010,686.3585508268076 L 1020,686.6375893576607 L 1030,686.4526739253607 L 1040,685.8111765246591 L 1050,684.7386716325597 L 1060,683.2779166346256 L 1070,681.4871472229455" fill="none" stroke="#ff6464" stroke-width="3" opacity="0.59"/>
<ellipse cx="373.970210726359" cy="500.5821170753716" rx="1.5" ry="1.5" fill="#6496ff" opacity="0.5313725490196078"/>
<ellipse cx="103.92952685427365" cy="989.8132194717476" rx="1.5" ry="1.5" fill="#6496ff" opacity="0.5313725490196078"/>
<ellipse cx="392.3929311672193" cy="1129.0711646569293" rx="1.5" ry="1.5" fill="#6496ff" opacity="0.5313725490196078"/>
<ellipse cx="103.45799450923596" cy="462.2697519428421" rx="1.5" ry="1.5" fill="#6496ff" opacity="0.5313725490196078"/>
<ellipse cx="273.5033727965799" cy="448.50917479419576" rx="1.5" ry="1.5" fill="#6496ff" opacity="0.5313725490196078"/>
<ellipse cx="230.91984998011955" cy="968.7912051420618" rx="1.5" ry="1.5" fill="#6496ff" opacity="0.5313725490196078"/>
<ellipse cx="59.347221878984584" cy="453.40928903473974" rx="1.5" ry="1.5" fill="#6496ff" opacity="0.5313725490196078"/>
<ellipse cx="236.58538352539082" cy="507.17729353680147" rx="1.5" ry="1.5" fill="#6496ff" opacity="0.5313725490196078"/>
<ellipse cx="410.0351287843823" cy="571.0121515072008" rx="1.5" ry="1.5" fill="#6496ff" opacity="0.5313725490196078"/>
<ellipse cx="190.0122786453051" cy="411.6116883287261" rx="1.5" ry="1.5" fill="#6496ff" opacity="0.5313725490196078"/>
<ellipse cx="11.773180967091202" cy="933.2056759545605" rx="1.5" ry="1.5" fill="#6496ff" opacity="0.5313725490196078"/>
<ellipse cx="62.741675406108456" cy="1088.1116201580091" rx="1.5" ry="1.5" fill="#6496ff" opacity="0.5313725490196078"/>
<ellipse cx="318.7512947613147" cy="222.01883207169308" rx="1.5" ry="1.5" fill="#6496ff" opacity="0.5313725490196078"/>
<ellipse cx="1.6513770826400151" cy="362.72850507531706" rx="1.5" ry="1.5" fill="#6496ff" opacity="0.5313725490196078"/>
<ellipse cx="504.11471509566286" cy="244.63033687538947" rx="1.5" ry="1.5" fill="#6496ff" opacity="0.5313725490196078"/>
<ellipse cx="462.3115702636128" cy="620.5576482324664" rx="1.5" ry="1.5" fill="#6496ff" opacity="0.5313725490196078"/>
<ellipse cx="462.7996947536244" cy="910.39457959607" rx="1.5" ry="1.5" fill="#6496ff" opacity="0.5313725490196078"/>
<ellipse cx="212.7270055807787" cy="930.699116424983" rx="1.5" ry="1.5" fill="#6496ff" opacity="0.5313725490196078"/>
<ellipse cx="261.9012953070464" cy="804.9850527220336" rx="1.5" ry="1.5" fill="#6496ff" opacity="0.5313725490196078"/>
<ellipse cx="4.898979666130142" cy="1310.013288310735" rx="1.5" ry="1.5" fill="#6496ff" opacity="0.5313725490196078"/>
<ellipse cx="332.12607637612433" cy="881.0572211076773" rx="1.5" ry="1.5" fill="#6496ff" opacity="0.5313725490196078"/>
<ellipse cx="522.768566851862" cy="398.0059685176266" rx="1.5" ry="1.5" fill="#6496ff" opacity="0.5313725490196078"/>
<ellipse cx="122.27107292146938" cy="771.301268400299" rx="1.5" ry="1.5" fill="#6496ff" opacity="0.5313725490196078"/>
<ellipse cx="448.4920837583449" cy="996.7237834803406" rx="1.5" ry="1.5" fill="#6496ff" opacity="0.5313725490196078"/>
<ellipse cx="524.9847366870309" cy="1291.7041188532971" rx="1.5" ry="1.5" fill="#6496ff" opacity="0.5313725490196078"/>
<ellipse cx="68.06094649623192" cy="1281.8756869444044" rx="1.5" ry="1.5" fill="#6496ff" opacity="0.5313725490196078"/>
<ellipse cx="51.71811821484851" cy="465.56130520327076" rx="1.5" ry="1.5" fill="#6496ff" opacity="0.5313725490196078"/>
<ellipse cx="373.8717843843027" cy="728.2866958194816" rx="1.5" ry="1.5" fill="#6496ff" opacity="0.5313725490196078"/>
<ellipse cx="457.29715368584596" cy="1031.1334137949782" rx="1.5" ry="1.5" fill="#6496ff" opacity="0.5313725490196078"/>
<ellipse cx="128.71873861584754" cy="1134.0427329456631" rx="1.5" ry="1.5" fill="#6496ff" opacity="0.5313725490196078"/>
<ellipse cx="41.70669796024761" cy="40.787909943977326" rx="1.5" ry="1.5" fill="#6496ff" opacity="0.5313725490196078"/>
<ellipse cx="165.56575462481274" cy="833.3371821946173" rx="1.5" ry="1.5" fill="#6496ff" opacity="0.5313725490196078"/>
<ellipse cx="439.5552422662989" cy="486.6511525989748" rx="1.5" ry="1.5" fill="#6496ff" opacity="0.5313725490196078"/>
<ellipse cx="175.89006193722136" cy="353.343647882968" rx="1.5" ry="1.5" fill="#6496ff" opacity="0.5313725490196078"/>
<ellipse cx="92.48168711200435" cy="59.7422227541647" rx="1.5" ry="1.5" fill="#6496ff" opacity="0.5313725490196078"/>
<ellipse cx="19.486001739039086" cy="682.790221591848" rx="1.5" ry="1.5" fill="#6496ff" opacity="0.5313725490196078"/>
<ellipse cx="25.071487438432634" cy="875.6404329443538" rx="1.5" ry="1.5" fill="#6496ff" opacity="0.5313725490196078"/>
<ellipse cx="17.016813762959472" cy="600.025914888841" rx="1.5" ry="1.5" fill="#6496ff" opacity="0.5313725490196078"/>
<ellipse cx="46.63374426152266" cy="650.1530218171669" rx="1.5" ry="1.5" fill="#6496ff" opacity="0.5313725490196078"/>
<ellipse cx="349.5913769442548" cy="1147.2180789090778" rx="1.5" ry="1.5" fill="#6496ff" opacity="0.5313725490196078"/>
<ellipse cx="130.50940281269578" cy="1131.4866413974607" rx="1.5" ry="1.5" fill="#6496ff" opacity="0.5313725490196078"/>
<ellipse cx="25.809202206232214" cy="356.51389824064165" rx="1.5" ry="1.5" fill="#6496ff" opacity="0.5313725490196078"/>
<ellipse cx="51.893856549586104" cy="1144.1201677285694" rx="1.5" ry="1.5" fill="#6496ff" opacity="0.5313725490196078"/>
<ellipse cx="385.0074149970931" cy="373.7384678673644" rx="1.5" ry="1.5" fill="#6496ff" opacity="0.5313725490196078"/>
<ellipse cx="217.01444159122858" cy="823.9247206709929" rx="1.5" ry="1.5" fill="#6496ff" opacity="0.5313725490196078"/>
<ellipse cx="407.7717735282014" cy="198.80350837428287" rx="1.5" ry="1.5" fill="#6496ff" opacity="0.5313725490196078"/>
<ellipse cx="159.34241481094733" cy="1042.792171725441" rx="1.5" ry="1.5" fill="#6496ff" opacity="0.5313725490196078"/>
<ellipse cx="531.934383163198" cy="567.3033001680408" rx="1.5" ry="1.5" fill="#6496ff" opacity="0.5313725490196078"/>
<ellipse cx="493.09395813061576" cy="152.86467082466217" rx="1.5" ry="1.5" fill="#6496ff" opacity="0.5313725490196078"/>
<ellipse cx="239.3509931486803" cy="1256.1710184701585" rx="1.5" ry="1.5" fill="#6496ff" opacity="0.5313725490196078"/>
<ellipse cx="225.40102253919514" cy="1136.9200056125037" rx="1.5" ry="1.5" fill="#6496ff" opacity="0.5313725490196078"/>
<ellipse cx="301.8674112771952" cy="1294.8849505255396" rx="1.5" ry="1.5" fill="#6496ff" opacity="0.5313725490196078"/>
<ellipse cx="224.24642811727077" cy="222.43950973378472" rx="1.5" ry="1.5" fill="#6496ff" opacity="0.5313725490196078"/>
<ellipse cx="426.90454443306874" cy="1255.7582265025742" rx="1.5" ry="1.5" fill="#6496ff" opacity="0.5313725490196078"/>
<ellipse cx="293.7887908396259" cy="576.6975763145357" rx="1.5" ry="1.5" fill="#6496ff" opacity="0.5313725490196078"/>
<ellipse cx="488.52180026868444" cy="1050.7687931185442" rx="1.5" ry="1.5" fill="#6496ff" opacity="0.5313725490196078"/>
<ellipse cx="254.64793693956358" cy="924.3891124261493" rx="1.5" ry="1.5" fill="#6496ff" opacity="0.5313725490196078"/>
<ellipse cx="659.708705004169" cy="1274.4933894250976" rx="1.5" ry="1.5" fill="#ff9664" opacity="0.46078431372549017"/>
<ellipse cx="570.9632277632892" cy="588.2228004691297" rx="1.5" ry="1.5" fill="#ff9664" opacity="0.46078431372549017"/>
<ellipse cx="888.8075067237055" cy="552.0308020301306" rx="1.5" ry="1.5" fill="#ff9664" opacity="0.46078431372549017"/>
<ellipse cx="726.4659691725233" cy="149.41105849547827" rx="1.5" ry="1.5" fill="#ff9664" opacity="0.46078431372549017"/>
<ellipse cx="617.8311127786669" cy="666.4544019226239" rx="1.5" ry="1.5" fill="#ff9664" opacity="0.46078431372549017"/>
<ellipse cx="850.6053401486042" cy="131.973373951378" rx="1.5" ry="1.5" fill="#ff9664" opacity="0.46078431372549017"/>
<ellipse cx="928.6491413734151" cy="505.0347986188879" rx="1.5" ry="1.5" fill="#ff9664" opacity="0.46078431372549017"/>
<ellipse cx="728.7744499131918" cy="571.7368307391819" rx="1.5" ry="1.5" fill="#ff9664" opacity="0.46078431372549017"/>
<ellipse cx="921.9537522187242" cy="855.1132861781463" rx="1.5" ry="1.5" fill="#ff9664" opacity="0.46078431372549017"/>
<ellipse cx="764.0910316557116" cy="311.76511659834773" rx="1.5" ry="1.5" fill="#ff9664" opacity="0.46078431372549017"/>
<ellipse cx="646.1128181713227" cy="818.6079118487462" rx="1.5" ry="1.5" fill="#ff9664" opacity="0.46078431372549017"/>
<ellipse cx="972.8247215379145" cy="818.8959006308094" rx="1.5" ry="1.5" fill="#ff9664" opacity="0.46078431372549017"/>
<ellipse cx="657.3238134930486" cy="877.0762730748747" rx="1.5" ry="1.5" fill="#ff9664" opacity="0.46078431372549017"/>
<ellipse cx="866.0867287246915" cy="530.7878675548303" rx="1.5" ry="1.5" fill="#ff9664" opacity="0.46078431372549017"/>
<ellipse cx="794.0203644028029" cy="1171.0483258455286" rx="1.5" ry="1.5" fill="#ff9664" opacity="0.46078431372549017"/>
<ellipse cx="920.2064110619046" cy="395.4423131399985" rx="1.5" ry="1.5" fill="#ff9664" opacity="0.46078431372549017"/>
<ellipse cx="745.9424758916452" cy="134.13035279797873" rx="1.5" ry="1.5" fill="#ff9664" opacity="0.46078431372549017"/>
<ellipse cx="844.3523545490357" cy="950.282836402898" rx="1.5" ry="1.5" fill="#ff9664" opacity="0.46078431372549017"/>
<ellipse cx="757.6521206915621" cy="894.6954492920523" rx="1.5" ry="1.5" fill="#ff9664" opacity="0.46078431372549017"/>
<ellipse cx="926.4639188658743" cy="30.87136746890441" rx="1.5" ry="1.5" fill="#ff9664" opacity="0.46078431372549017"/>
<ellipse cx="568.0308578293914" cy="526.900240279222" rx="1.5" ry="1.5" fill="#ff9664" opacity="0.46078431372549017"/>
<ellipse cx="668.61480838089" cy="737.4462920881092" rx="1.5" ry="1.5" fill="#ff9664" opacity="0.46078431372549017"/>
<ellipse cx="603.6047244368143" cy="1143.4188237150288" rx="1.5" ry="1.5" fill="#ff9664" opacity="0.46078431372549017"/>
<ellipse cx="540.7789134982875" cy="198.7485052779077" rx="1.5" ry="1.5" fill="#ff9664" opacity="0.46078431372549017"/>
<ellipse cx="937.2048463286854" cy="568.7008383538113" rx="1.5" ry="1.5" fill="#ff9664" opacity="0.46078431372549017"/>
<ellipse cx="950.1936151507281" cy="974.2765908009729" rx="1.5" ry="1.5" fill="#ff9664" opacity="0.46078431372549017"/>
<ellipse cx="1037.9448511535045" cy="1053.1876092093007" rx="1.5" ry="1.5" fill="#ff9664" opacity="0.46078431372549017"/>
<ellipse cx="1066.551189667802" cy="1151.8328195213494" rx="1.5" ry="1.5" fill="#ff9664" opacity="0.46078431372549017"/>
<ellipse cx="816.5057946539046" cy="1023.3494286534141" rx="1.5" ry="1.5" fill="#ff9664" opacity="0.46078431372549017"/>
<ellipse cx="662.090892848601" cy="228.39421491529524" rx="1.5" ry="1.5" fill="#ff9664" opacity="0.46078431372549017"/>
<ellipse cx="624.5915186799092" cy="1343.791504830025" rx="1.5" ry="1.5" fill="#ff9664" opacity="0.46078431372549017"/>
<ellipse cx="776.3618804124937" cy="426.49730463814797" rx="1.5" ry="1.5" fill="#ff9664" opacity="0.46078431372549017"/>
<ellipse cx="620.1805830375201" cy="1084.2325021905044" rx="1.5" ry="1.5" fill="#ff9664" opacity="0.46078431372549017"/>
<ellipse cx="553.8307356898816" cy="1290.6148016874747" rx="1.5" ry="1.5" fill="#ff9664" opacity="0.46078431372549017"/>
<ellipse cx="1028.6347749124443" cy="1004.8423473745783" rx="1.5" ry="1.5" fill="#ff9664" opacity="0.46078431372549017"/>
<ellipse cx="1033.2351281555534" cy="889.3223945467372" rx="1.5" ry="1.5" fill="#ff9664" opacity="0.46078431372549017"/>
<ellipse cx="698.0983901760068" cy="369.8591889673188" rx="1.5" ry="1.5" fill="#ff9664" opacity="0.46078431372549017"/>
<ellipse cx="695.4889655837272" cy="177.5654018752116" rx="1.5" ry="1.5" fill="#ff9664" opacity="0.46078431372549017"/>
<ellipse cx="1025.044321643675" cy="863.0870107855121" rx="1.5" ry="1.5" fill="#ff9664" opacity="0.46078431372549017"/>
<ellipse cx="547.9160785711911" cy="849.6562598504388" rx="1.5" ry="1.5" fill="#ff9664" opacity="0.46078431372549017"/>
<ellipse cx="567.2161388523951" cy="99.18147777169081" rx="1.5" ry="1.5" fill="#ff9664" opacity="0.46078431372549017"/>
<ellipse cx="856.6925491377211" cy="321.632373482749" rx="1.5" ry="1.5" fill="#ff9664" opacity="0.46078431372549017"/>
<ellipse cx="803.3918685947507" cy="1069.9987833714108" rx="1.5" ry="1.5" fill="#ff9664" opacity="0.46078431372549017"/>
<ellipse cx="592.7910876519936" cy="742.4547541618603" rx="1.5" ry="1.5" fill="#ff9664" opacity="0.46078431372549017"/>
<ellipse cx="903.5306455397656" cy="1177.5504832982786" rx="1.5" ry="1.5" fill="#ff9664" opacity="0.46078431372549017"/>
<line x1="428.669958314239" y1="982.505393485774" x2="469.869958314239" y2="982.505393485774" stroke="#c8c8c8" stroke-width="1" opacity="0.39"/>
<line x1="60.56342127759169" y1="895.1538254018658" x2="101.76342127759169" y2="895.1538254018658" stroke="#c8c8c8" stroke-width="1" opacity="0.39"/>
<line x1="496.41888880004126" y1="504.29096841453156" x2="537.6188888000413" y2="504.29096841453156" stroke="#c8c8c8" stroke-width="1" opacity="0.39"/>
<line x1="340.8478476204201" y1="1248.5601967426765" x2="382.0478476204201" y2="1248.5601967426765" stroke="#c8c8c8" stroke-width="1" opacity="0.39"/>
<line x1="225.6639219381213" y1="73.12307957239592" x2="266.8639219381213" y2="73.12307957239592" stroke="#c8c8c8" stroke-width="1" opacity="0.39"/>
<line x1="332.767762696728" y1="873.4681252732258" x2="373.967762696728" y2="873.4681252732258" stroke="#c8c8c8" stroke-width="1" opacity="0.39"/>
<line x1="64.69526770743322" y1="3.1681582346410297" x2="105.89526770743322" y2="3.1681582346410297" stroke="#c8c8c8" stroke-width="1" opacity="0.39"/>
<line x1="423.5513683425036" y1="1122.2957437496148" x2="464.7513683425036" y2="1122.2957437496148" stroke="#c8c8c8" stroke-width="1" opacity="0.39"/>
<line x1="239.84529744826503" y1="1181.1880415217895" x2="281.04529744826505" y2="1181.1880415217895" stroke="#c8c8c8" stroke-width="1" opacity="0.39"/>
<line x1="489.6100261107134" y1="216.07559333372657" x2="530.8100261107135" y2="216.07559333372657" stroke="#c8c8c8" stroke-width="1" opacity="0.39"/>
<line x1="282.0647425772924" y1="965.2569656098527" x2="323.2647425772924" y2="965.2569656098527" stroke="#c8c8c8" stroke-width="1" opacity="0.39"/>
<line x1="338.76389996091086" y1="621.111095240857" x2="379.96389996091085" y2="621.111095240857" stroke="#c8c8c8" stroke-width="1" opacity="0.39"/>
<line x1="427.1094276509757" y1="491.5076138877811" x2="468.3094276509757" y2="491.5076138877811" stroke="#c8c8c8" stroke-width="1" opacity="0.39"/>
<line x1="322.47186198945707" y1="307.9955936912427" x2="363.67186198945706" y2="307.9955936912427" stroke="#c8c8c8" stroke-width="1" opacity="0.39"/>
<line x1="369.14077001118136" y1="671.7306557445464" x2="410.34077001118135" y2="671.7306557445464" stroke="#c8c8c8" stroke-width="1" opacity="0.39"/>
<line x1="61.11323121055646" y1="1301.6451230745972" x2="102.31323121055647" y2="1301.6451230745972" stroke="#c8c8c8" stroke-width="1" opacity="0.39"/>
<line x1="469.543218831319" y1="513.6329414852117" x2="510.743218831319" y2="513.6329414852117" stroke="#c8c8c8" stroke-width="1" opacity="0.39"/>
<line x1="59.67764857210109" y1="986.0073258103837" x2="100.8776485721011" y2="986.0073258103837" stroke="#c8c8c8" stroke-width="1" opacity="0.39"/>
<line x1="42.70962955556327" y1="852.3069847618729" x2="83.90962955556327" y2="852.3069847618729" stroke="#c8c8c8" stroke-width="1" opacity="0.39"/>
<line x1="86.69873718484246" y1="702.934389143686" x2="127.89873718484246" y2="702.934389143686" stroke="#c8c8c8" stroke-width="1" opacity="0.39"/>
<line x1="157.44590528190412" y1="1201.26115735679" x2="198.6459052819041" y2="1201.26115735679" stroke="#c8c8c8" stroke-width="1" opacity="0.39"/>
<line x1="620.9135985751234" y1="434.7086059091187" x2="651.8135985751234" y2="434.7086059091187" stroke="#c8c8c8" stroke-width="1" opacity="0.39"/>
<line x1="732.0144082009859" y1="876.9368652612608" x2="762.9144082009859" y2="876.9368652612608" stroke="#c8c8c8" stroke-width="1" opacity="0.39"/>
<line x1="567.077350629064" y1="1148.678581951502" x2="597.977350629064" y2="1148.678581951502" stroke="#c8c8c8" stroke-width="1" opacity="0.39"/>
<line x1="939.2828394841789" y1="781.2629524531137" x2="970.1828394841789" y2="781.2629524531137" stroke="#c8c8c8" stroke-width="1" opacity="0.39"/>
<line x1="893.7062288977701" y1="245.98715912829488" x2="924.60622889777" y2="245.98715912829488" stroke="#c8c8c8" stroke-width="1" opacity="0.39"/>
<line x1="938.3672137923386" y1="908.2907084879888" x2="969.2672137923386" y2="908.2907084879888" stroke="#c8c8c8" stroke-width="1" opacity="0.39"/>
<line x1="976.6464187748015" y1="770.6843737376315" x2="1007.5464187748015" y2="770.6843737376315" stroke="#c8c8c8" stroke-width="1" opacity="0.39"/>
<line x1="862.6938201499609" y1="142.3805595107286" x2="893.5938201499608" y2="142.3805595107286" stroke="#c8c8c8" stroke-width="1" opacity="0.39"/>
<line x1="975.4248925090883" y1="731.2975827284613" x2="1006.3248925090883" y2="731.2975827284613" stroke="#c8c8c8" stroke-width="1" opacity="0.39"/>
<line x1="598.6902308737348" y1="678.9507734956923" x2="629.5902308737348" y2="678.9507734956923" stroke="#c8c8c8" stroke-width="1" opacity="0.39"/>
<line x1="743.2629490845198" y1="1084.9498992250067" x2="774.1629490845198" y2="1084.9498992250067" stroke="#c8c8c8" stroke-width="1" opacity="0.39"/>
<line x1="959.3997289703227" y1="930.2692656080561" x2="990.2997289703227" y2="930.2692656080561" stroke="#c8c8c8" stroke-width="1" opacity="0.39"/>
<line x1="750.1678563142978" y1="709.5058682884583" x2="781.0678563142977" y2="709.5058682884583" stroke="#c8c8c8" stroke-width="1" opacity="0.39"/>
<line x1="663.4774876215856" y1="553.1773256851254" x2="694.3774876215856" y2="553.1773256851254" stroke="#c8c8c8" stroke-width="1" opacity="0.39"/>
<line x1="659.0462422925262" y1="571.4900004544714" x2="689.9462422925262" y2="571.4900004544714" stroke="#c8c8c8" stroke-width="1" opacity="0.39"/>
<line x1="549.1622114224183" y1="494.61686578328573" x2="580.0622114224183" y2="494.61686578328573" stroke="#c8c8c8" stroke-width="1" opacity="0.39"/>
<ellipse cx="918.8339464174742" cy="78.80753878448509" rx="36.202654552740356" ry="25.811204448151663" fill="#cdcf86" opacity="0.21538035079420853"/>
<rect x="204.29448495353316" y="1260.9398102718123" width="28.166818622577384" height="18.011336351344685" fill="#9e8b77" opacity="0.27767239956734235"/>
<ellipse cx="432.6382650959484" cy="101.774060773558" rx="22.375276988546958" ry="13.406652714628036" fill="#ddaaa5" opacity="0.12810599103180476"/>
<rect x="337.93681786765194" y="236.80700224209906" width="54.505762473915595" height="80.31912307466321" fill="#b174b3" opacity="0.22413017240508734"/>
<line x1="425.722478826401" y1="1081.7072694570327" x2="613.8522007939649" y2="896.88847702783" stroke="#d5f5a5" stroke-width="1.4530864956104599" opacity="0.20903701176922485"/>
<line x1="527.5555052829699" y1="1190.43699558379" x2="981.5955452721545" y2="959.3867902454858" stroke="#ccd9d9" stroke-width="1.431428492270144" opacity="0.18190819610565206"/>
<line x1="67.92351010624483" y1="176.56935014602234" x2="636.1229470354147" y2="276.2910784577444" stroke="#9de1dc" stroke-width="1.3634963037276158" opacity="0.22214113500306346"/>
<line x1="258.0109442481822" y1="227.67215083710485" x2="514.9598946585133" y2="418.3127584021132" stroke="#97b2ff" stroke-width="1.0062294602423112" opacity="0.18042500814899287"/>
<line x1="184.85400094876718" y1="464.0317218676357" x2="724.8754409350806" y2="531.8463208767802" stroke="#97f2ac" stroke-width="1.8782398704803733" opacity="0.3453981620133152"/>
<line x1="750.9417489687642" y1="1235.14775691328" x2="317.33438029761163" y2="822.4768105998994" stroke="#fef7ea" stroke-width="1.398379326052209" opacity="0.39032434960559287"/>
<ellipse cx="224.5216227623269" cy="193.74914029322062" rx="1.9325770740083312" ry="1.9325770740083312" fill="#e9dbfe" opacity="0.16199654227763471"/>
<ellipse cx="794.2793372991864" cy="1062.5046377361307" rx="1.9534380440383394" ry="1.9534380440383394" fill="#f2c9ca" opacity="0.14570344900010115"/>
<ellipse cx="66.4622426342509" cy="1262.0480737006517" rx="1.7845307592230526" ry="1.7845307592230526" fill="#f7c9eb" opacity="0.22769350171027422"/>
<ellipse cx="897.6285414107277" cy="1115.7483642528525" rx="1.030000329031609" ry="1.030000329031609" fill="#e2fbca" opacity="0.08275543007397518"/>
<ellipse cx="167.13584266935283" cy="1307.091723991135" rx="1.9241991047394458" ry="1.9241991047394458" fill="#edf4de" opacity="0.11111973782733874"/>
<ellipse cx="472.4763431365026" cy="687.7489152773046" rx="3.971815706683237" ry="3.971815706683237" fill="#effaf7" opacity="0.18833556834832121"/>
<ellipse cx="320.42055144925627" cy="163.64328868856808" rx="1.723751634696383" ry="1.723751634696383" fill="#cad0e8" opacity="0.10292896571084653"/>
<ellipse cx="387.734545649837" cy="173.1334806294802" rx="2.79018721067821" ry="2.79018721067821" fill="#f5f8fc" opacity="0.18271451842732328"/>
<ellipse cx="837.5002817239149" cy="29.72440124942195" rx="2.2488169266138307" ry="2.2488169266138307" fill="#eef3ea" opacity="0.1764777875870646"/>
<ellipse cx="640.792308152091" cy="94.11994819255543" rx="2.979417772022736" ry="2.979417772022736" fill="#e6e8ef" opacity="0.12861266792988557"/>
<ellipse cx="875.2397350572235" cy="819.5734266282867" rx="2.911247731145121" ry="2.911247731145121" fill="#f2d8eb" opacity="0.11202187633208635"/>
<ellipse cx="367.7126063628646" cy="888.9461342659529" rx="1.310012936736463" ry="1.310012936736463" fill="#d4e4ed" opacity="0.19873368511940095"/>
<ellipse cx="713.6088756069582" cy="1241.118836980834" rx="3.3939137469948797" ry="3.3939137469948797" fill="#fbcbc8" opacity="0.18024533356295672"/>
<ellipse cx="283.53751672596553" cy="363.5647954249591" rx="1.9109629396865904" ry="1.9109629396865904" fill="#efdbef" opacity="0.20361187884606172"/>
<ellipse cx="1022.6597361558396" cy="812.6805249660651" rx="3.771235824921744" ry="3.771235824921744" fill="#fde3f6" opacity="0.14500563755517576"/>
<ellipse cx="615.931964207409" cy="736.4635172935499" rx="2.869597316658868" ry="2.869597316658868" fill="#dac8e6" opacity="0.10540750916185133"/>
<ellipse cx="738.4050074677938" cy="332.01928154193763" rx="2.0997114186639485" ry="2.0997114186639485" fill="#c9eccd" opacity="0.19543008716271984"/>
<ellipse cx="436.94073220572466" cy="557.4469866964254" rx="3.9163848175277867" ry="3.9163848175277867" fill="#d9d1ee" opacity="0.09898103453153227"/>
<ellipse cx="81.51043299655916" cy="245.46871494756485" rx="3.309038550736866" ry="3.309038550736866" fill="#d7caef" opacity="0.20881144211800462"/>
<ellipse cx="1035.9194188173485" cy="405.2101137140813" rx="1.674348831490776" ry="1.674348831490776" fill="#d4e1e1" opacity="0.12079080882829497"/>
<ellipse cx="499.77948324046184" cy="80.83422824753671" rx="47.67954395647546" ry="27.291817515494266" fill="#c8d2dc" opacity="0.18394484431769573"/>
<ellipse cx="1040.2646072352954" cy="148.42955570864197" rx="53.00236692592563" ry="31.46552628886145" fill="#c8d2dc" opacity="0.2136260629317196"/>
<ellipse cx="878.1612174557138" cy="712.868664869741" rx="53.897330180351595" ry="29.750797718166403" fill="#c8d2dc" opacity="0.18232310159405277"/>
<ellipse cx="955.0408646491078" cy="555.8400896834274" rx="45.4673923604306" ry="24.590708595781813" fill="#c8d2dc" opacity="0.1972159398900209"/>
<ellipse cx="671.058519713445" cy="629.9159358168813" rx="47.94241995791965" ry="30.30078222180238" fill="#c8d2dc" opacity="0.15185899394279503"/>
<ellipse cx="705.0324167442511" cy="719.0005237992008" rx="50.91587361499888" ry="29.930845662657074" fill="#c8d2dc" opacity="0.17341706009695776"/>
<ellipse cx="969.6469451424823" cy="39.69310889611942" rx="48.43256671651246" ry="30.38608904319036" fill="#c8d2dc" opacity="0.18724966224252665"/>
<ellipse cx="209.6069263465189" cy="332.3423188011218" rx="46.46563847964664" ry="29.308578139458618" fill="#c8d2dc" opacity="0.17873056241885826"/>
<ellipse cx="780.8584482091699" cy="545.4610345596092" rx="57.372822346538605" ry="35.01179170508414" fill="#c8d2dc" opacity="0.22487722568786134"/>
<ellipse cx="-13.643533613468573" cy="579.5885010674183" rx="52.5395485018938" ry="28.547168467669305" fill="#c8d2dc" opacity="0.19128399314246183"/>
<ellipse cx="599.6566348948421" cy="503.399505999522" rx="40.48320703929916" ry="24.495944606876808" fill="#c8d2dc" opacity="0.17692838545604553"/>
<ellipse cx="948.5632304047489" cy="147.72432342174895" rx="45.21723074095566" ry="28.610301538685427" fill="#c8d2dc" opacity="0.1668692243763269"/>
<ellipse cx="970.0720507566466" cy="781.1168997815116" rx="48.021898245163804" ry="30.212387325308228" fill="#c8d2dc" opacity="0.15869514469990398"/>
<ellipse cx="124.48316823503522" cy="678.2144808099363" rx="43.608958912731794" ry="26.404021652654233" fill="#c8d2dc" opacity="0.19261551508184088"/>
<ellipse cx="867.3031094975229" cy="202.63670207866468" rx="57.30119085182744" ry="32.14669900774252" fill="#c8d2dc" opacity="0.17910829457093974"/>
<line x1="1011.3474981725902" y1="32.96719194993712" x2="961.7715321210692" y2="54.5618490451176" stroke="#b4b4c8" stroke-width="1" opacity="0.32771388815496616"/>
<line x1="187.7311845997959" y1="1339.1523427046614" x2="195.43617453361983" y2="1392.675597044431" stroke="#b4b4c8" stroke-width="1" opacity="0.39905192096858666"/>
<line x1="611.1388781532361" y1="1125.3214364523633" x2="562.8682233812585" y2="1149.6945674142353" stroke="#b4b4c8" stroke-width="1" opacity="0.44155260892621856"/>
<line x1="257.78148663126933" y1="654.8886227677058" x2="204.25698304087524" y2="662.5849297003775" stroke="#b4b4c8" stroke-width="1" opacity="0.36806327447679876"/>
<line x1="451.760945530497" y1="1070.4754655577594" x2="406.0366056023889" y2="1041.606964329971" stroke="#b4b4c8" stroke-width="1" opacity="0.3926076546316037"/>
<line x1="33.11077596298921" y1="389.9123894003743" x2="-11.119577130353584" y2="421.021575989519" stroke="#b4b4c8" stroke-width="1" opacity="0.3859770433501388"/>
<line x1="333.8680745725837" y1="272.6078153925984" x2="326.99391368052073" y2="326.24410475931387" stroke="#b4b4c8" stroke-width="1" opacity="0.35797395508125673"/>
<line x1="1041.4418833336988" y1="681.3679400279038" x2="987.8348016275669" y2="688.4662789851598" stroke="#b4b4c8" stroke-width="1" opacity="0.38310393953233424"/>
<line x1="539.9316361080537" y1="1131.9803422000168" x2="497.07601294404867" y2="1099.0030592885216" stroke="#b4b4c8" stroke-width="1" opacity="0.40753301518443313"/>
<line x1="341.0869933762993" y1="308.3675087934209" x2="301.8535712150636" y2="345.58100379883876" stroke="#b4b4c8" stroke-width="1" opacity="0.37551110049893266"/>
<ellipse cx="46.20814206367738" cy="333.3190532090697" rx="0.6372502101281309" ry="0.6372502101281309" fill="#96a0b4" opacity="0.12745004202562618"/>
<ellipse cx="280.86333287920024" cy="561.7347123854489" rx="0.7061993288767536" ry="0.7061993288767536" fill="#96a0b4" opacity="0.14123986577535075"/>
<ellipse cx="139.50842863857207" cy="1221.2208559835426" rx="0.6476917479827282" ry="0.6476917479827282" fill="#96a0b4" opacity="0.12953834959654564"/>
<ellipse cx="49.80372908050368" cy="440.74936976691214" rx="0.6598267294095487" ry="0.6598267294095487" fill="#96a0b4" opacity="0.13196534588190972"/>
<ellipse cx="502.7635858313942" cy="921.8293194295044" rx="0.7481527965534924" ry="0.7481527965534924" fill="#96a0b4" opacity="0.1496305593106985"/>
<ellipse cx="603.7962344120239" cy="1296.2485319451655" rx="0.8492109314649736" ry="0.8492109314649736" fill="#96a0b4" opacity="0.16984218629299475"/>
<ellipse cx="395.41717547709925" cy="988.293171389165" rx="1.0514468168163238" ry="1.0514468168163238" fill="#96a0b4" opacity="0.21028936336326476"/>
<ellipse cx="1079.6003728171813" cy="95.85142140083546" rx="0.8696120325149823" ry="0.8696120325149823" fill="#96a0b4" opacity="0.17392240650299645"/>
<ellipse cx="257.1954668765867" cy="138.81067342069497" rx="0.7636625085842261" ry="0.7636625085842261" fill="#96a0b4" opacity="0.15273250171684521"/>
<ellipse cx="173.70488770944294" cy="386.4111008059285" rx="0.9206578136849023" ry="0.9206578136849023" fill="#96a0b4" opacity="0.18413156273698045"/>
<ellipse cx="704.5105222167963" cy="908.9114252985044" rx="0.8059077097534321" ry="0.8059077097534321" fill="#96a0b4" opacity="0.1611815419506864"/>
<ellipse cx="444.04184838945133" cy="1159.4589298402234" rx="0.6891843946184474" ry="0.6891843946184474" fill="#96a0b4" opacity="0.13783687892368948"/>
<ellipse cx="528.5548963623843" cy="104.60840468509514" rx="0.6115205370735654" ry="0.6115205370735654" fill="#96a0b4" opacity="0.12230410741471308"/>
<ellipse cx="212.21411357271214" cy="1278.2577222577565" rx="1.070936246066823" ry="1.070936246066823" fill="#96a0b4" opacity="0.21418724921336463"/>
<ellipse cx="114.8534346161659" cy="625.6711590223346" rx="0.8576827034230399" ry="0.8576827034230399" fill="#96a0b4" opacity="0.171536540684608"/>
<ellipse cx="213.1704712906715" cy="1079.4454028268556" rx="0.6896662094965949" ry="0.6896662094965949" fill="#96a0b4" opacity="0.137933241899319"/>
<ellipse cx="1034.099464898044" cy="1137.4415879777825" rx="0.6448101737597386" ry="0.6448101737597386" fill="#96a0b4" opacity="0.12896203475194773"/>
<ellipse cx="128.37836629169917" cy="731.4016256161973" rx="0.8179332058925901" ry="0.8179332058925901" fill="#96a0b4" opacity="0.163586641178518"/>
<ellipse cx="210.64061174664675" cy="912.8953505833146" rx="0.5522448131269696" ry="0.5522448131269696" fill="#96a0b4" opacity="0.11044896262539393"/>
<ellipse cx="391.36849898443023" cy="1201.2270396581046" rx="0.7922414455046396" ry="0.7922414455046396" fill="#96a0b4" opacity="0.15844828910092792"/>
<ellipse cx="761.3423684804433" cy="14.195054776126078" rx="0.5865365777966918" ry="0.5865365777966918" fill="#96a0b4" opacity="0.11730731555933836"/>
<ellipse cx="762.4743357871074" cy="88.14983372024719" rx="1.0995767836853552" ry="1.0995767836853552" fill="#96a0b4" opacity="0.21991535673707102"/>
<ellipse cx="487.3748340492019" cy="1140.2513092105517" rx="0.755928373564715" ry="0.755928373564715" fill="#96a0b4" opacity="0.151185674712943"/>
<ellipse cx="154.69698436311305" cy="1000.9185303938197" rx="0.6262663479474793" ry="0.6262663479474793" fill="#96a0b4" opacity="0.12525326958949587"/>
<ellipse cx="582.5976851315227" cy="981.2188987532719" rx="0.5630170195177014" ry="0.5630170195177014" fill="#96a0b4" opacity="0.1126034039035403"/>
<ellipse cx="281.7130566955139" cy="792.8660277244011" rx="0.7442943702486371" ry="0.7442943702486371" fill="#96a0b4" opacity="0.14885887404972742"/>
<ellipse cx="383.24114817345566" cy="304.73059430007385" rx="0.8056202017878251" ry="0.8056202017878251" fill="#96a0b4" opacity="0.16112404035756503"/>
<ellipse cx="137.1673429651034" cy="1209.5698630481818" rx="0.5389560676784605" ry="0.5389560676784605" fill="#96a0b4" opacity="0.10779121353569211"/>
<ellipse cx="595.7470324429437" cy="947.713709318877" rx="1.1922367068895379" ry="1.1922367068895379" fill="#96a0b4" opacity="0.2384473413779076"/>
<ellipse cx="953.5126881271194" cy="1349.0459925257815" rx="1.045534162430323" ry="1.045534162430323" fill="#96a0b4" opacity="0.20910683248606454"/>
<ellipse cx="1012.1096425001089" cy="1087.8614907562087" rx="0.8417825004308556" ry="0.8417825004308556" fill="#96a0b4" opacity="0.16835650008617112"/>
<ellipse cx="805.2169565135692" cy="1189.3244689280748" rx="0.8368922968598811" ry="0.8368922968598811" fill="#96a0b4" opacity="0.1673784593719762"/>
</svg>