<svg xmlns="http://www.w3.org/2000/svg" width="1080" height="1350" viewBox="0 0 1080 1350" style="background-color: #ffffff;">
<rect x="0" y="0" width="1080" height="1350" fill="#ffffff"/>
<ellipse cx="288.42600359042456" cy="1320.6236964653356" rx="30.864432941037062" ry="16.478263613071025" fill="#a9a9a9"/>
<ellipse cx="306.06919163842156" cy="1320.6236964653356" rx="24.69154635282965" ry="8.239131806535513" fill="#a9a9a9"/>
<ellipse cx="264.70138089771643" cy="1320.6236964653356" rx="21.605103058725945" ry="6.59130544522841" fill="#a9a9a9"/>
<ellipse cx="25.50619841809673" cy="1158.1525197057765" rx="24.133630646856947" ry="22.630746438733286" fill="#a9a9a9"/>
<ellipse cx="47.629960345342745" cy="1158.1525197057765" rx="19.30690451748556" ry="11.315373219366643" fill="#a9a9a9"/>
<ellipse cx="9.025140872164204" cy="1158.1525197057765" rx="16.893541452799862" ry="9.052298575493316" fill="#a9a9a9"/>
<ellipse cx="460.92877349859515" cy="844.999802506063" rx="32.15803968843735" ry="15.54329479826759" fill="#a9a9a9"/>
<ellipse cx="480.9079935162316" cy="844.999802506063" rx="25.726431750749878" ry="7.771647399133795" fill="#a9a9a9"/>
<ellipse cx="441.2158139411917" cy="844.999802506063" rx="22.510627781906145" ry="6.217317919307036" fill="#a9a9a9"/>
<ellipse cx="68.41494980660033" cy="355.8508964049867" rx="37.05123737406336" ry="23.741537747465713" fill="#a9a9a9"/>
<ellipse cx="94.26483331011133" cy="355.8508964049867" rx="29.64098989925069" ry="11.870768873732857" fill="#a9a9a9"/>
<ellipse cx="40.688670326223274" cy="355.8508964049867" rx="25.935866161844352" ry="9.496615098986284" fill="#a9a9a9"/>
<ellipse cx="136.1762238182948" cy="650.1185420202644" rx="17.36747047843375" ry="13.42276600811063" fill="#a9a9a9"/>
<ellipse cx="148.08307419195555" cy="650.1185420202644" rx="13.893976382746999" ry="6.711383004055315" fill="#a9a9a9"/>
<ellipse cx="126.2916978274399" cy="650.1185420202644" rx="12.157229334903622" ry="5.369106403244253" fill="#a9a9a9"/>
<ellipse cx="199.19484803415594" cy="171.98329575917836" rx="43.83404806145079" ry="19.566738563999557" fill="#a9a9a9"/>
<ellipse cx="223.01611357319948" cy="171.98329575917836" rx="35.067238449160634" ry="9.783369281999779" fill="#a9a9a9"/>
<ellipse cx="175.46827064387395" cy="171.98329575917836" rx="30.683833643015546" ry="7.826695425599824" fill="#a9a9a9"/>
<ellipse cx="478.6965306842218" cy="81.66763190257718" rx="28.99594232088293" ry="14.749660855610667" fill="#a9a9a9"/>
<ellipse cx="496.29788554978273" cy="81.66763190257718" rx="23.196753856706344" ry="7.374830427805334" fill="#a9a9a9"/>
<ellipse cx="463.91547002889143" cy="81.66763190257718" rx="20.29715962461805" ry="5.899864342244268" fill="#a9a9a9"/>
<ellipse cx="42.173869033425056" cy="1293.3735525670338" rx="25.097258232874555" ry="19.105981841278712" fill="#a9a9a9"/>
<ellipse cx="61.00472044122148" cy="1293.3735525670338" rx="20.077806586299648" ry="9.552990920639356" fill="#a9a9a9"/>
<ellipse cx="24.64865289920376" cy="1293.3735525670338" rx="17.568080763012187" ry="7.642392736511486" fill="#a9a9a9"/>
<ellipse cx="148.55090625050985" cy="724.1787317787198" rx="14.603765766978455" ry="9.504854874648403" fill="#a9a9a9"/>
<ellipse cx="160.08358524649472" cy="724.1787317787198" rx="11.683012613582763" ry="4.752427437324202" fill="#a9a9a9"/>
<ellipse cx="136.889779504451" cy="724.1787317787198" rx="10.222636036884918" ry="3.801941949859361" fill="#a9a9a9"/>
<ellipse cx="156.80507190376755" cy="1246.3880902372246" rx="36.299705517705235" ry="19.220691880968992" fill="#a9a9a9"/>
<ellipse cx="185.57826421442877" cy="1246.3880902372246" rx="29.03976441416419" ry="9.610345940484496" fill="#a9a9a9"/>
<ellipse cx="134.54897896855528" cy="1246.3880902372246" rx="25.40979386239366" ry="7.688276752387598" fill="#a9a9a9"/>
<ellipse cx="702.1644634763545" cy="200.18849382185772" rx="17.66208058857411" ry="14.18510561827493" fill="#a9a9a9"/>
<ellipse cx="713.44594303453" cy="200.18849382185772" rx="14.12966447085929" ry="7.092552809137465" fill="#a9a9a9"/>
<ellipse cx="691.0340528098019" cy="200.18849382185772" rx="12.363456412001877" ry="5.674042247309972" fill="#a9a9a9"/>
<ellipse cx="1046.5321149800589" cy="1155.7550674098334" rx="18.073671097968713" ry="10.191282709111007" fill="#a9a9a9"/>
<ellipse cx="1057.0784307054087" cy="1155.7550674098334" rx="14.458936878374972" ry="5.095641354555504" fill="#a9a9a9"/>
<ellipse cx="1034.5442765982536" cy="1155.7550674098334" rx="12.6515697685781" ry="4.076513083644403" fill="#a9a9a9"/>
<ellipse cx="801.6989065435243" cy="940.3370444385042" rx="12.500682864963107" ry="5.678740735761522" fill="#a9a9a9"/>
<ellipse cx="811.110099406676" cy="940.3370444385042" rx="10.000546291970487" ry="2.839370367880761" fill="#a9a9a9"/>
<ellipse cx="793.3574839809172" cy="940.3370444385042" rx="8.750478005474173" ry="2.271496294304609" fill="#a9a9a9"/>
<ellipse cx="769.287994014699" cy="1032.1731989421758" rx="11.962126111230546" ry="8.918984541658231" fill="#a9a9a9"/>
<ellipse cx="778.7205094248826" cy="1032.1731989421758" rx="9.569700888984439" ry="4.459492270829116" fill="#a9a9a9"/>
<ellipse cx="761.6319699266518" cy="1032.1731989421758" rx="8.373488277861382" ry="3.567593816663293" fill="#a9a9a9"/>
<ellipse cx="925.0075437431259" cy="506.7630531763486" rx="40.015599922478444" ry="28.85271093397986" fill="#a9a9a9"/>
<ellipse cx="952.6412560870016" cy="506.7630531763486" rx="32.01247993798276" ry="14.42635546698993" fill="#a9a9a9"/>
<ellipse cx="896.6418626499826" cy="506.7630531763486" rx="28.01091994573491" ry="11.541084373591945" fill="#a9a9a9"/>
<ellipse cx="927.8893949407569" cy="29.079222692679252" rx="26.015116408640136" ry="14.8471710244462" fill="#a9a9a9"/>
<ellipse cx="940.671881750223" cy="29.079222692679252" rx="20.81209312691211" ry="7.4235855122231" fill="#a9a9a9"/>
<ellipse cx="914.7002759388339" cy="29.079222692679252" rx="18.210581486048095" ry="5.93886840977848" fill="#a9a9a9"/>
<ellipse cx="674.3958914905768" cy="190.39759942814595" rx="16.455022641004028" ry="9.462712242944153" fill="#a9a9a9"/>
<ellipse cx="682.4307804037561" cy="190.39759942814595" rx="13.164018112803223" ry="4.731356121472077" fill="#a9a9a9"/>
<ellipse cx="666.3543426983348" cy="190.39759942814595" rx="11.518515848702819" ry="3.785084897177662" fill="#a9a9a9"/>
<ellipse cx="787.1298445421876" cy="549.4897576745086" rx="13.067015849769714" ry="10.275777998297407" fill="#a9a9a9"/>
<ellipse cx="797.194416175639" cy="549.4897576745086" rx="10.453612679815771" ry="5.137888999148704" fill="#a9a9a9"/>
<ellipse cx="775.2422400488229" cy="549.4897576745086" rx="9.1469110948388" ry="4.110311199318963" fill="#a9a9a9"/>
<ellipse cx="769.4115258331465" cy="1094.2627435057716" rx="36.58669715703492" ry="19.451144596940328" fill="#a9a9a9"/>
<ellipse cx="793.0667026678562" cy="1094.2627435057716" rx="29.269357725627938" ry="9.725572298470164" fill="#a9a9a9"/>
<ellipse cx="741.8709464111699" cy="1094.2627435057716" rx="25.61068800992444" ry="7.780457838776131" fill="#a9a9a9"/>
<path d="M 0,675 L 10,669.29024343295 L 20,663.8081168420493 L 30,658.7721753146267 L 40,654.3831859475478 L 50,650.8161238966211 L 60,648.213196669302 L 70,646.6781747601317 L 80,646.2722546485871 L 90,647.0116190885607 L 100,648.8667919530299 L 110,651.763813354225 L 120,655.58718819096 L 130,660.1844905738511 L 140,665.3724405645193 L 150,670.9442109683595 L 160,676.6776728821086 L 170,682.3442512722511 L 180,687.7180375402941 L 190,692.5847957856937 L 200,696.7505037151499 L 210,700.0490876991665 L 220,702.3490436035847 L 230,703.5586794444258 L 240,703.629770857942 L 250,702.5594836538186 L 260,700.3904868053972 L 270,697.2092513723591 L 280,693.1426031724505 L 290,688.3526666363514 L 300,683.0304014182371 L 310,677.3879894369749 L 320,671.6503758525968 L 330,666.0463012126255 L 340,660.7991822882764 L 350,656.118205152822 L 360,652.1899855929753 L 370,649.1711293263738 L 380,647.181988625815 L 390,646.3018642539339 L 400,646.565843992044 L 410,647.9634038010233 L 420,650.4388273815429 L 430,653.893427407098 L 440,658.1894798762908 L 450,663.155714734152 L 460,668.5941438687589 L 470,674.2879542724705 L 480,680.0101516923485 L 490,685.5326101747004 L 500,690.6351667269605 L 510,695.1143985214385 L 520,698.7917327215217 L 530,701.5205656171521" fill="none" stroke="#ff6464" stroke-width="3" opacity="0.59"/>
<path d="M 540,664.6805508597005 L 550,664.4801030270866 L 560,664.6990502893282 L 570,665.3286639100077 L 580,666.3438431809292 L 590,667.7041161081447 L 600,669.3552529026355 L 610,671.2314279508686 L 620,673.2578440742838 L 630,675.3537144567664 L 640,677.4354833600681 L 650,679.4201572274162 L 660,681.22861337472 L 670,682.7887543622998 L 680,684.0383822922903 L 690,684.927678442552 L 700,685.42118938191 L 710,685.4992403865762 L 720,685.1587198092984 L 730,684.4132031309181 L 740,683.2924117487884 L 750,681.8410280784528 L 760,680.116914206742 L 770,678.1888051129648 L 780,676.1335684221901 L 790,674.0331399356048 L 800,671.9712571086835 L 810,670.0301207030882 L 820,668.2871177016996 L 830,666.8117361338192 L 840,665.6627948067226 L 850,664.8860983854271 L 860,664.5126113052424 L 870,664.5572233174489 L 880,665.0181558819013 L 890,665.8770330718116 L 900,667.099614163962 L 910,668.6371587082859 L 920,670.4283696558036 L 930,672.4018370785308 L 940,674.4788850579596 L 950,676.5767082456542 L 960,678.6116730511853 L 970,680.502651849459 L 980,682.1742572831167 L 990,683.5598477185747 L 1000,684.6041840376546 L 1010,685.2656318469086 L 1020,685.5178213095008 L 1030,685.3506984273879 L 1040,684.7709258624926 L 1050,683.8016173173993 L 1060,682.481416064971 L 1070,680.8629543630058" fill="none" stroke="#ff6464" stroke-width="3" opacity="0.59"/>
<ellipse cx="212.5972939527581" cy="1233.4294801733595" rx="1.5" ry="1.5" fill="#6496ff" opacity="0.5313725490196078"/>
<ellipse cx="407.96785373611743" cy="295.24683966080045" rx="1.5" ry="1.5" fill="#6496ff" opacity="0.5313725490196078"/>
<ellipse cx="400.8219500262392" cy="1246.5453213297508" rx="1.5" ry="1.5" fill="#6496ff" opacity="0.5313725490196078"/>
<ellipse cx="312.1024633907259" cy="583.3629193638279" rx="1.5" ry="1.5" fill="#6496ff" opacity="0.5313725490196078"/>
<ellipse cx="514.3712356101588" cy="452.45781561939873" rx="1.5" ry="1.5" fill="#6496ff" opacity="0.5313725490196078"/>
<ellipse cx="149.1645742157309" cy="960.8643119041177" rx="1.5" ry="1.5" fill="#6496ff" opacity="0.5313725490196078"/>
<ellipse cx="187.55303630025733" cy="817.4965921870884" rx="1.5" ry="1.5" fill="#6496ff" opacity="0.5313725490196078"/>
<ellipse cx="177.57006891889966" cy="91.15653638316157" rx="1.5" ry="1.5" fill="#6496ff" opacity="0.5313725490196078"/>
<ellipse cx="233.3526511086862" cy="749.2320660265312" rx="1.5" ry="1.5" fill="#6496ff" opacity="0.5313725490196078"/>
<ellipse cx="67.25113395007845" cy="207.2344825636756" rx="1.5" ry="1.5" fill="#6496ff" opacity="0.5313725490196078"/>
<ellipse cx="136.88802844699848" cy="697.2942266134984" rx="1.5" ry="1.5" fill="#6496ff" opacity="0.5313725490196078"/>
<ellipse cx="524.0693523940022" cy="486.9030120255905" rx="1.5" ry="1.5" fill="#6496ff" opacity="0.5313725490196078"/>
<ellipse cx="502.58524441280645" cy="458.3136679876194" rx="1.5" ry="1.5" fill="#6496ff" opacity="0.5313725490196078"/>
<ellipse cx="272.28125108046515" cy="637.6337173570105" rx="1.5" ry="1.5" fill="#6496ff" opacity="0.5313725490196078"/>
<ellipse cx="40.73305608738822" cy="467.36197940416724" rx="1.5" ry="1.5" fill="#6496ff" opacity="0.5313725490196078"/>
<ellipse cx="246.28865015054524" cy="462.6058997877901" rx="1.5" ry="1.5" fill="#6496ff" opacity="0.5313725490196078"/>
<ellipse cx="22.023875723604053" cy="859.1707576341792" rx="1.5" ry="1.5" fill="#6496ff" opacity="0.5313725490196078"/>
<ellipse cx="246.4108945086649" cy="544.4495918901869" rx="1.5" ry="1.5" fill="#6496ff" opacity="0.5313725490196078"/>
<ellipse cx="222.033605678954" cy="87.38057617441778" rx="1.5" ry="1.5" fill="#6496ff" opacity="0.5313725490196078"/>
<ellipse cx="512.1839209795854" cy="854.1447941465979" rx="1.5" ry="1.5" fill="#6496ff" opacity="0.5313725490196078"/>
<ellipse cx="495.70022844509236" cy="461.0561194182635" rx="1.5" ry="1.5" fill="#6496ff" opacity="0.5313725490196078"/>
<ellipse cx="316.6726900621656" cy="390.0900186924683" rx="1.5" ry="1.5" fill="#6496ff" opacity="0.5313725490196078"/>
<ellipse cx="439.6112467905559" cy="302.3457349754617" rx="1.5" ry="1.5" fill="#6496ff" opacity="0.5313725490196078"/>
<ellipse cx="280.317916404604" cy="1037.684333807642" rx="1.5" ry="1.5" fill="#6496ff" opacity="0.5313725490196078"/>
<ellipse cx="408.4721519464963" cy="252.5472522957936" rx="1.5" ry="1.5" fill="#6496ff" opacity="0.5313725490196078"/>
<ellipse cx="304.6008987653073" cy="579.2446556404441" rx="1.5" ry="1.5" fill="#6496ff" opacity="0.5313725490196078"/>
<ellipse cx="94.54394106499103" cy="547.5487100647523" rx="1.5" ry="1.5" fill="#6496ff" opacity="0.5313725490196078"/>
<ellipse cx="302.072439334389" cy="511.53695607163803" rx="1.5" ry="1.5" fill="#6496ff" opacity="0.5313725490196078"/>
<ellipse cx="237.23799716552625" cy="1158.7999110849573" rx="1.5" ry="1.5" fill="#6496ff" opacity="0.5313725490196078"/>
<ellipse cx="236.57469760467052" cy="266.13671792025525" rx="1.5" ry="1.5" fill="#6496ff" opacity="0.5313725490196078"/>
<ellipse cx="477.00638495246244" cy="330.66857472558905" rx="1.5" ry="1.5" fill="#6496ff" opacity="0.5313725490196078"/>
<ellipse cx="192.87925967615064" cy="94.58826188677375" rx="1.5" ry="1.5" fill="#6496ff" opacity="0.5313725490196078"/>
<ellipse cx="16.603812583072024" cy="305.03451540369286" rx="1.5" ry="1.5" fill="#6496ff" opacity="0.5313725490196078"/>
<ellipse cx="496.9695194889649" cy="1252.5640374294314" rx="1.5" ry="1.5" fill="#6496ff" opacity="0.5313725490196078"/>
<ellipse cx="359.3951942210063" cy="1044.8477630712314" rx="1.5" ry="1.5" fill="#6496ff" opacity="0.5313725490196078"/>
<ellipse cx="426.53985520198" cy="590.7424810299382" rx="1.5" ry="1.5" fill="#6496ff" opacity="0.5313725490196078"/>
<ellipse cx="352.8425361369003" cy="875.557029654997" rx="1.5" ry="1.5" fill="#6496ff" opacity="0.5313725490196078"/>
<ellipse cx="336.5185691493184" cy="1322.3443871933707" rx="1.5" ry="1.5" fill="#6496ff" opacity="0.5313725490196078"/>
<ellipse cx="231.4278174524325" cy="1342.2922975114977" rx="1.5" ry="1.5" fill="#6496ff" opacity="0.5313725490196078"/>
<ellipse cx="184.10592564572855" cy="1125.7388954636356" rx="1.5" ry="1.5" fill="#6496ff" opacity="0.5313725490196078"/>
<ellipse cx="22.04556943012661" cy="998.8133718254106" rx="1.5" ry="1.5" fill="#6496ff" opacity="0.5313725490196078"/>
<ellipse cx="302.3789192654095" cy="601.5621366917911" rx="1.5" ry="1.5" fill="#6496ff" opacity="0.5313725490196078"/>
<ellipse cx="278.0206848485492" cy="932.1317379046845" rx="1.5" ry="1.5" fill="#6496ff" opacity="0.5313725490196078"/>
<ellipse cx="38.87286903284158" cy="186.64203741896995" rx="1.5" ry="1.5" fill="#6496ff" opacity="0.5313725490196078"/>
<ellipse cx="281.51713742013885" cy="1318.0616504131171" rx="1.5" ry="1.5" fill="#6496ff" opacity="0.5313725490196078"/>
<ellipse cx="161.37529857520727" cy="1053.115189565865" rx="1.5" ry="1.5" fill="#6496ff" opacity="0.5313725490196078"/>
<ellipse cx="434.3385173912805" cy="271.96923507003544" rx="1.5" ry="1.5" fill="#6496ff" opacity="0.5313725490196078"/>
<ellipse cx="252.41008949112617" cy="1088.9263813797975" rx="1.5" ry="1.5" fill="#6496ff" opacity="0.5313725490196078"/>
<ellipse cx="350.29510275940186" cy="609.6010389782493" rx="1.5" ry="1.5" fill="#6496ff" opacity="0.5313725490196078"/>
<ellipse cx="306.83713688833507" cy="776.9000712674577" rx="1.5" ry="1.5" fill="#6496ff" opacity="0.5313725490196078"/>
<ellipse cx="534.4050195321464" cy="459.0941908113166" rx="1.5" ry="1.5" fill="#6496ff" opacity="0.5313725490196078"/>
<ellipse cx="246.12894069688812" cy="820.6079010016322" rx="1.5" ry="1.5" fill="#6496ff" opacity="0.5313725490196078"/>
<ellipse cx="180.43138512430312" cy="671.0513594891183" rx="1.5" ry="1.5" fill="#6496ff" opacity="0.5313725490196078"/>
<ellipse cx="351.7583657949038" cy="1175.5246644725673" rx="1.5" ry="1.5" fill="#6496ff" opacity="0.5313725490196078"/>
<ellipse cx="325.97414031902986" cy="975.788069225749" rx="1.5" ry="1.5" fill="#6496ff" opacity="0.5313725490196078"/>
<ellipse cx="351.32577912478047" cy="1062.91823436642" rx="1.5" ry="1.5" fill="#6496ff" opacity="0.5313725490196078"/>
<ellipse cx="506.2556650611831" cy="706.2144759605706" rx="1.5" ry="1.5" fill="#6496ff" opacity="0.5313725490196078"/>
<ellipse cx="859.7139932213881" cy="638.3550170056312" rx="1.5" ry="1.5" fill="#ff9664" opacity="0.4666666666666667"/>
<ellipse cx="1023.9712717402592" cy="1346.8032366348446" rx="1.5" ry="1.5" fill="#ff9664" opacity="0.4666666666666667"/>
<ellipse cx="719.9308205488747" cy="521.4639189287386" rx="1.5" ry="1.5" fill="#ff9664" opacity="0.4666666666666667"/>
<ellipse cx="814.9412728636253" cy="458.58950636283936" rx="1.5" ry="1.5" fill="#ff9664" opacity="0.4666666666666667"/>
<ellipse cx="1053.1090738778512" cy="1120.936346576054" rx="1.5" ry="1.5" fill="#ff9664" opacity="0.4666666666666667"/>
<ellipse cx="958.1109811822469" cy="454.17094251800836" rx="1.5" ry="1.5" fill="#ff9664" opacity="0.4666666666666667"/>
<ellipse cx="668.5065651538347" cy="609.5262455798342" rx="1.5" ry="1.5" fill="#ff9664" opacity="0.4666666666666667"/>
<ellipse cx="564.7019219513526" cy="403.5684810967969" rx="1.5" ry="1.5" fill="#ff9664" opacity="0.4666666666666667"/>
<ellipse cx="553.7751817767393" cy="1265.5062675781112" rx="1.5" ry="1.5" fill="#ff9664" opacity="0.4666666666666667"/>
<ellipse cx="866.0816432563968" cy="1.316750050204224" rx="1.5" ry="1.5" fill="#ff9664" opacity="0.4666666666666667"/>
<ellipse cx="601.4344025223676" cy="748.3331773189516" rx="1.5" ry="1.5" fill="#ff9664" opacity="0.4666666666666667"/>
<ellipse cx="910.4869224366205" cy="1228.915966129357" rx="1.5" ry="1.5" fill="#ff9664" opacity="0.4666666666666667"/>
<ellipse cx="1066.464286095679" cy="460.2377774474387" rx="1.5" ry="1.5" fill="#ff9664" opacity="0.4666666666666667"/>
<ellipse cx="840.669493815242" cy="842.6315192331707" rx="1.5" ry="1.5" fill="#ff9664" opacity="0.4666666666666667"/>
<ellipse cx="923.329596697972" cy="197.34352836261667" rx="1.5" ry="1.5" fill="#ff9664" opacity="0.4666666666666667"/>
<ellipse cx="719.5349425913463" cy="368.74231713299747" rx="1.5" ry="1.5" fill="#ff9664" opacity="0.4666666666666667"/>
<ellipse cx="737.3646427119918" cy="1338.1136840852507" rx="1.5" ry="1.5" fill="#ff9664" opacity="0.4666666666666667"/>
<ellipse cx="857.4346734571432" cy="1321.0978037310288" rx="1.5" ry="1.5" fill="#ff9664" opacity="0.4666666666666667"/>
<ellipse cx="969.7403528307286" cy="1298.907137521965" rx="1.5" ry="1.5" fill="#ff9664" opacity="0.4666666666666667"/>
<ellipse cx="690.9382439362529" cy="949.0629677423569" rx="1.5" ry="1.5" fill="#ff9664" opacity="0.4666666666666667"/>
<ellipse cx="1052.3808863164768" cy="683.8821891154545" rx="1.5" ry="1.5" fill="#ff9664" opacity="0.4666666666666667"/>
<ellipse cx="928.5848810098064" cy="427.88872738736154" rx="1.5" ry="1.5" fill="#ff9664" opacity="0.4666666666666667"/>
<ellipse cx="606.2933922122668" cy="187.34482982537935" rx="1.5" ry="1.5" fill="#ff9664" opacity="0.4666666666666667"/>
<ellipse cx="635.1898920979304" cy="727.6490408590292" rx="1.5" ry="1.5" fill="#ff9664" opacity="0.4666666666666667"/>
<ellipse cx="949.4645907401408" cy="347.56262914629775" rx="1.5" ry="1.5" fill="#ff9664" opacity="0.4666666666666667"/>
<ellipse cx="730.6514383250155" cy="1337.1651476887826" rx="1.5" ry="1.5" fill="#ff9664" opacity="0.4666666666666667"/>
<ellipse cx="648.0537128951651" cy="957.8647305061411" rx="1.5" ry="1.5" fill="#ff9664" opacity="0.4666666666666667"/>
<ellipse cx="767.6553655730818" cy="297.40768088838445" rx="1.5" ry="1.5" fill="#ff9664" opacity="0.4666666666666667"/>
<ellipse cx="955.0431724335268" cy="1000.7194166075063" rx="1.5" ry="1.5" fill="#ff9664" opacity="0.4666666666666667"/>
<ellipse cx="651.8652391954629" cy="1200.7109692323538" rx="1.5" ry="1.5" fill="#ff9664" opacity="0.4666666666666667"/>
<ellipse cx="587.8534198030147" cy="633.5613596409379" rx="1.5" ry="1.5" fill="#ff9664" opacity="0.4666666666666667"/>
<ellipse cx="932.4583341518689" cy="1205.5604701887632" rx="1.5" ry="1.5" fill="#ff9664" opacity="0.4666666666666667"/>
<ellipse cx="1001.2725736858661" cy="514.2766716490856" rx="1.5" ry="1.5" fill="#ff9664" opacity="0.4666666666666667"/>
<ellipse cx="639.345846222409" cy="107.01696132636488" rx="1.5" ry="1.5" fill="#ff9664" opacity="0.4666666666666667"/>
<ellipse cx="736.8938506566425" cy="562.9615816115223" rx="1.5" ry="1.5" fill="#ff9664" opacity="0.4666666666666667"/>
<ellipse cx="1067.339340693941" cy="432.5876357185597" rx="1.5" ry="1.5" fill="#ff9664" opacity="0.4666666666666667"/>
<ellipse cx="896.6614009610663" cy="600.8046272214524" rx="1.5" ry="1.5" fill="#ff9664" opacity="0.4666666666666667"/>
<ellipse cx="598.6761331831459" cy="287.7586887626717" rx="1.5" ry="1.5" fill="#ff9664" opacity="0.4666666666666667"/>
<ellipse cx="633.1828701930041" cy="607.389624699666" rx="1.5" ry="1.5" fill="#ff9664" opacity="0.4666666666666667"/>
<ellipse cx="639.5207477079335" cy="595.9160196575876" rx="1.5" ry="1.5" fill="#ff9664" opacity="0.4666666666666667"/>
<ellipse cx="1010.2621366783335" cy="822.9169610994481" rx="1.5" ry="1.5" fill="#ff9664" opacity="0.4666666666666667"/>
<ellipse cx="667.7812100051815" cy="399.0129636596017" rx="1.5" ry="1.5" fill="#ff9664" opacity="0.4666666666666667"/>
<ellipse cx="1018.3882644019966" cy="677.1762910658384" rx="1.5" ry="1.5" fill="#ff9664" opacity="0.4666666666666667"/>
<ellipse cx="678.2963491130138" cy="857.4760977446457" rx="1.5" ry="1.5" fill="#ff9664" opacity="0.4666666666666667"/>
<ellipse cx="957.4831511534206" cy="434.7809853194193" rx="1.5" ry="1.5" fill="#ff9664" opacity="0.4666666666666667"/>
<ellipse cx="885.0758673367444" cy="1175.939709495725" rx="1.5" ry="1.5" fill="#ff9664" opacity="0.4666666666666667"/>
<line x1="90.05521063229777" y1="1245.3840723472574" x2="98.95521063229778" y2="1245.3840723472574" stroke="#c8c8c8" stroke-width="1" opacity="0.39"/>
<line x1="510.1722481242252" y1="147.12227589782432" x2="519.0722481242252" y2="147.12227589782432" stroke="#c8c8c8" stroke-width="1" opacity="0.39"/>
<line x1="242.7008361754477" y1="1022.854561089936" x2="251.6008361754477" y2="1022.854561089936" stroke="#c8c8c8" stroke-width="1" opacity="0.39"/>
<line x1="121.97096591907133" y1="1190.9930577459713" x2="130.87096591907132" y2="1190.9930577459713" stroke="#c8c8c8" stroke-width="1" opacity="0.39"/>
<line x1="279.93739141148393" y1="210.64460287366276" x2="288.8373914114839" y2="210.64460287366276" stroke="#c8c8c8" stroke-width="1" opacity="0.39"/>
<line x1="735.9290761667905" y1="870.3539196729446" x2="761.6290761667906" y2="870.3539196729446" stroke="#c8c8c8" stroke-width="1" opacity="0.39"/>
<line x1="662.9454446411437" y1="954.0787924798573" x2="688.6454446411437" y2="954.0787924798573" stroke="#c8c8c8" stroke-width="1" opacity="0.39"/>
<line x1="1016.9817783669484" y1="725.0947598019125" x2="1042.6817783669485" y2="725.0947598019125" stroke="#c8c8c8" stroke-width="1" opacity="0.39"/>
<line x1="895.3723956809251" y1="1208.657134142079" x2="921.0723956809252" y2="1208.657134142079" stroke="#c8c8c8" stroke-width="1" opacity="0.39"/>
<line x1="1013.0864383993141" y1="283.2435251601243" x2="1038.7864383993142" y2="283.2435251601243" stroke="#c8c8c8" stroke-width="1" opacity="0.39"/>
<line x1="546.4789027005802" y1="744.0892202519296" x2="572.1789027005802" y2="744.0892202519296" stroke="#c8c8c8" stroke-width="1" opacity="0.39"/>
<line x1="982.3255350265306" y1="168.164205629455" x2="1008.0255350265306" y2="168.164205629455" stroke="#c8c8c8" stroke-width="1" opacity="0.39"/>
<line x1="695.6050462255278" y1="472.1070351414881" x2="721.3050462255278" y2="472.1070351414881" stroke="#c8c8c8" stroke-width="1" opacity="0.39"/>
<line x1="943.1166388481467" y1="1087.3624389466656" x2="968.8166388481468" y2="1087.3624389466656" stroke="#c8c8c8" stroke-width="1" opacity="0.39"/>
<line x1="1003.71121666567" y1="424.45812841153617" x2="1029.41121666567" y2="424.45812841153617" stroke="#c8c8c8" stroke-width="1" opacity="0.39"/>
<line x1="739.2766500447302" y1="486.22918747655547" x2="764.9766500447303" y2="486.22918747655547" stroke="#c8c8c8" stroke-width="1" opacity="0.39"/>
<line x1="617.797558343875" y1="590.6718718775883" x2="643.4975583438751" y2="590.6718718775883" stroke="#c8c8c8" stroke-width="1" opacity="0.39"/>
<line x1="762.4351645551785" y1="541.0619619028" x2="788.1351645551786" y2="541.0619619028" stroke="#c8c8c8" stroke-width="1" opacity="0.39"/>
<rect x="481.45970516440445" y="90.60483847772929" width="43.988377463067124" height="64.61749415229184" fill="#c87faf" opacity="0.1208580662237422"/>
<rect x="472.82285623383837" y="218.11994473828" width="46.34144009386256" height="36.316322165211666" fill="#d4aab5" opacity="0.20031367567583333"/>
<ellipse cx="716.6605428218193" cy="306.99089183797633" rx="28.035757252031825" ry="36.54779955105636" fill="#af76d0" opacity="0.27103701766929944"/>
<ellipse cx="486.84295200130106" cy="1255.0924485805876" rx="16.624830964312345" ry="21.7418597202228" fill="#f467bc" opacity="0.12589954979663748"/>
<line x1="416.6713430437592" y1="336.63321749150435" x2="961.8397240349277" y2="781.1082962812429" stroke="#ebbfe2" stroke-width="2.0039287139679907" opacity="0.1597073311912469"/>
<line x1="130.16713148456398" y1="255.31726342407862" x2="495.168764821798" y2="1067.787972589856" stroke="#989dd1" stroke-width="1.8706064228297241" opacity="0.36115560354134374"/>
<line x1="831.6834072171167" y1="712.8313783150312" x2="334.9667932162838" y2="888.5130647982066" stroke="#98e5fc" stroke-width="1.6218442919765805" opacity="0.29883085519258346"/>
<line x1="1022.1420483580521" y1="1341.7518860389255" x2="969.5889477476426" y2="56.0013056062168" stroke="#c1abfb" stroke-width="2.7093586929651714" opacity="0.2163646735674117"/>
<line x1="1070.266027948943" y1="21.61163092665916" x2="268.62733808747834" y2="981.5871124070078" stroke="#fea2f5" stroke-width="1.9525111322070057" opacity="0.21224062118117087"/>
<line x1="503.92330193143493" y1="966.4179329603994" x2="53.27098848916171" y2="908.3020139989918" stroke="#a5f7a8" stroke-width="2.2503283029656522" opacity="0.35816516838845835"/>
<line x1="504.947734114224" y1="329.73033801174273" x2="132.42572313753223" y2="5.46675771729404" stroke="#fdcfc3" stroke-width="1.5774221422976917" opacity="0.27845902542091877"/>
<line x1="285.8527566333547" y1="1029.1230444931998" x2="840.1899150946131" y2="1063.0295996847701" stroke="#99d5b0" stroke-width="2.5120580724962327" opacity="0.1625173325658464"/>
<line x1="835.8803991395424" y1="172.05861218835162" x2="35.98544956929304" y2="324.2601604779531" stroke="#e1cae0" stroke-width="1.9304871563475985" opacity="0.36899452593340737"/>
<line x1="987.1959976978582" y1="1194.1159134703296" x2="198.40304383933685" y2="836.4568997344267" stroke="#b2b3d0" stroke-width="1.8076965812629537" opacity="0.36182196944562056"/>
<line x1="185.22859105152477" y1="725.0650275149686" x2="1005.2279095562305" y2="422.7961780609545" stroke="#9ed4d5" stroke-width="1.51330161118568" opacity="0.3319356676056755"/>
<line x1="519.8603870905285" y1="1348.5849207959068" x2="305.93507780969844" y2="1132.5756316690592" stroke="#9cacce" stroke-width="2.936876774736157" opacity="0.22720222850409896"/>
<ellipse cx="455.90437910328825" cy="1210.5889683638648" rx="1.8806149963664893" ry="1.8806149963664893" fill="#dbf4f9" opacity="0.23053356252535093"/>
<ellipse cx="174.02163513657712" cy="504.52902787575914" rx="3.659285427378158" ry="3.659285427378158" fill="#d2d3f2" opacity="0.10802388660088563"/>
<ellipse cx="718.7626114854415" cy="26.070588839273242" rx="3.481946428530825" ry="3.481946428530825" fill="#fdd1da" opacity="0.09185035556595306"/>
<ellipse cx="615.473531771206" cy="659.0675178258995" rx="2.147834897575823" ry="2.147834897575823" fill="#d4cad9" opacity="0.1861671092965158"/>
<ellipse cx="771.8239692467376" cy="804.4744137695405" rx="1.5416510107655315" ry="1.5416510107655315" fill="#d2f5ce" opacity="0.11505194740504729"/>
<ellipse cx="727.5324371864705" cy="566.7854192512042" rx="2.1026160722144955" ry="2.1026160722144955" fill="#d1dae9" opacity="0.18550321172576492"/>
<ellipse cx="286.4791060828041" cy="1286.4266580373173" rx="3.9056452526271555" ry="3.9056452526271555" fill="#f3fce8" opacity="0.10013096006319328"/>
<ellipse cx="360.25833981123674" cy="768.715525031423" rx="3.5452146542003447" ry="3.5452146542003447" fill="#f4cdf1" opacity="0.15957647215190032"/>
<ellipse cx="1050.760102761332" cy="18.69311929619551" rx="1.8007943224165561" ry="1.8007943224165561" fill="#d1e8e9" opacity="0.2239165587261223"/>
<ellipse cx="62.12742808373991" cy="1138.9115860401241" rx="2.9270395049485565" ry="2.9270395049485565" fill="#f5e7ff" opacity="0.12607335111555207"/>
<ellipse cx="392.60845202608425" cy="1206.1172967805142" rx="1.9682531361320303" ry="1.9682531361320303" fill="#f1c9ee" opacity="0.22159262271142569"/>
<ellipse cx="90.36529545223587" cy="1180.052702678392" rx="3.1170636425339913" ry="3.1170636425339913" fill="#dcd2e5" opacity="0.1516090468205152"/>
<ellipse cx="384.2767812610961" cy="729.6124580919801" rx="3.158910037092357" ry="3.158910037092357" fill="#f4e9fc" opacity="0.11141515247160544"/>
<ellipse cx="841.4354364021846" cy="400.82647223064043" rx="3.111373783141083" ry="3.111373783141083" fill="#e4cef4" opacity="0.23374310668996973"/>
<ellipse cx="523.5266878658564" cy="694.141960467278" rx="3.0292034158619137" ry="3.0292034158619137" fill="#f7ccf0" opacity="0.20116789206442043"/>
<ellipse cx="723.762688973808" cy="91.1011755890684" rx="2.45145103402969" ry="2.45145103402969" fill="#e7d3ee" opacity="0.20511928265057033"/>
<ellipse cx="613.8061097142315" cy="35.48771740658568" rx="3.4448690016031587" ry="3.4448690016031587" fill="#c9eefc" opacity="0.08825857499524135"/>
<ellipse cx="703.7496653496054" cy="519.1400530371536" rx="1.2218837739070336" ry="1.2218837739070336" fill="#edcedd" opacity="0.2264427858929696"/>
<ellipse cx="17.874841698387097" cy="433.691024423433" rx="1.662389040301735" ry="1.662389040301735" fill="#e8f6f9" opacity="0.13507560657820186"/>
<ellipse cx="531.3108017534533" cy="1118.866271301576" rx="2.6059054143754325" ry="2.6059054143754325" fill="#feebcc" opacity="0.1237549922256594"/>
<ellipse cx="1035.6793074662235" cy="1234.7843712357733" rx="1.1375805140182285" ry="1.1375805140182285" fill="#d2f4e5" opacity="0.08151663986050532"/>
<ellipse cx="956.9538402543188" cy="837.746572884613" rx="1.6537637713615614" ry="1.6537637713615614" fill="#daf6d7" opacity="0.1264417124953096"/>
</svg>