<?xml version="1.0" encoding="UTF-8"?>
<svg id="Layer_1" xmlns="http://www.w3.org/2000/svg" version="1.1" viewBox="0 0 200 26">
  <!-- Generator: Adobe Illustrator 30.0.0, SVG Export Plug-In . SVG Version: 2.1.1 Build 123)  -->
  <path d="M14,18.5c0-.9.4-1,1.2-.5,1.5.9,3,1.6,3,1.6,0-.5.5-.9,1.4-.6s1.7.4,1.7.4c0,0-.5-1.1-.8-1.6-.4-.9,0-1.4.4-1.5,0,0-.5-.4-.9-.6-.8-.5-.6-1.1.1-1.4,1-.5,2.4-1,2.4-1-.4-.2-.9-.9-.4-1.7.5-.8,1.4-1.9,1.4-1.9h-2.4c-.9,0-1.1-.7-1.1-1.2,0,0-1.4,1-2.4,1.6-.9.6-1.6,0-1.5-1,.2-1.5.4-3.2.4-3.2-.5.5-1.4.4-1.9-.4-.6-1.2-1.2-2.8-1.2-2.8,0,0-.6,1.5-1.2,2.8-.4.7-1.2.9-1.8.5,0,0,.1,1.8.4,3.2.1.9-.6,1.5-1.5.9-1-.6-2.5-1.6-2.5-1.6,0,.5-.2,1.1-1.1,1.2h-2.4s.9,1.1,1.4,1.9c.5.8,0,1.5-.4,1.7,0,0,1.3.6,2.4,1,.7.4,1,.9.1,1.4-.2.2-.9.6-.9.6.5.1.9.6.5,1.5-.2.5-.7,1.6-.7,1.6,0,0,.9-.2,1.8-.4.9-.2,1.2.2,1.4.6,0,0,1.5-.9,3-1.6.8-.5,1.2-.2,1.2.5v2.1c0,1.2-.2,2.5-.6,3.3-5.6-.6-10.4-5.1-10.4-11.1S7.2,1.6,13.6,1.6s11.5,5,11.5,11.1-4.5,10.5-10.2,11.1v1.5c6.8-.6,12-6,12-12.6S20.9,0,13.5,0,.2,5.6.2,12.6s4.6,11.2,10.8,12.4c1,.3,1.6.4,2.3,1,.6-1.2.8-3.8.8-5.1v-2.4Z" fill="#ff0c24"/>
  <path d="M67.6,19.4V5.9h6.6c3.5,0,5.1,1.5,5.3,3.4,0,.9-.1,1.7-.7,2.4s-.9.9-2,1.5l5,6.4h-3.6l-4.5-5.7h-3v5.6h-3ZM70.6,12h1.4c3.6,0,4.4-.6,4.4-2.4s-1.6-2-4-2h-1.8s0,4.4,0,4.4Z"/>
  <path d="M38,19.4l5.9-13.5h3.6l5.9,13.5h-3.6l-1.6-3.6h-6.2l-1.6,3.6h-2.2ZM42.6,14h4.6l-2.4-5.4-2.2,5.4Z"/>
  <rect x="57.5" y="5.9" width="3.1" height="13.5"/>
  <path d="M104.2,18.9c-1.5.6-3.4.9-5.6.9s-4.8-.6-6.2-1.9-2.3-3-2.3-5.2.7-4.1,2.3-5.2c1.5-1.2,3.6-1.9,6.5-1.9s3.5.1,5.4.5v2.2c-2-.6-3.9-.9-5.2-.9s-3,.5-4,1.4c-.9.9-1.4,2.2-1.4,3.9s.5,2.9,1.5,3.9c1,.9,2.4,1.4,4.1,1.4s3.4-.4,5-1c0,0,0,2,0,2Z"/>
  <path d="M108.1,19.4l5.9-13.5h3.6l5.9,13.5h-3.6l-1.6-3.6h-6.2l-1.6,3.6h-2.2ZM112.9,14h4.6l-2.2-5.4-2.4,5.4Z"/>
  <path d="M147.2,19.4l5.9-13.5h3.6l5.9,13.5h-3.6l-1.6-3.6h-6.2l-1.6,3.6h-2.2ZM151.9,14h4.6l-2.4-5.4-2.2,5.4Z"/>
  <path d="M191.2,8.6l2.4,5.4h-4.6l2.3-5.4ZM190.2,5.9l-5.9,13.5h2.3l1.6-3.6h6.2l1.6,3.6h3.6l-5.9-13.5h-3.6Z"/>
  <polygon points="128 19.4 128 5.9 131.6 5.9 140.1 15.5 140.1 5.9 142.7 5.9 142.7 19.4 139.4 19.4 130.6 9.3 130.6 19.4 128 19.4"/>
  <path d="M167,19.4V5.9h6.5c2.4,0,4.1.6,5.4,1.6,1.2,1.1,1.9,2.7,1.9,4.8s-.6,4-2,5.1c-1.4,1.2-3.1,1.9-5.5,1.9h-6.2ZM170.1,17.5h2.4c1.6,0,2.9-.4,3.8-1.2s1.2-2,1.2-3.8-.4-2.4-1-3.2c-.5-.6-1-1-1.6-1.2s-1.5-.4-2.7-.4h-1.9v9.9h-.1Z"/>
</svg>