<?xml version="1.0" encoding="UTF-8"?>
<svg id="Layer_1" data-name="Layer 1" xmlns="http://www.w3.org/2000/svg" width="7.07cm" height=".56cm" viewBox="0 0 20.05 1.58">
  <defs>
    <style>
      .cls-1 {
        fill: #fff;
      }
    </style>
  </defs>
  <path class="cls-1" d="M1.25,1.09c-.01.06-.03.11-.06.17-.03.05-.06.1-.1.14-.04.04-.08.07-.13.1-.05.02-.11.04-.17.04-.08,0-.15-.01-.2-.03-.06-.02-.1-.06-.14-.12-.04-.06-.06-.13-.08-.23-.02-.09-.02-.2-.02-.34,0-.1,0-.2.01-.29,0-.09.03-.17.06-.24.03-.07.07-.12.13-.16.06-.04.14-.06.24-.06.08,0,.14.01.19.04.05.03.09.06.13.1.03.04.06.09.08.14.02.05.04.1.06.15h.03V.06h-.03s-.01.03-.02.04c0,0-.02,0-.04,0-.02,0-.04,0-.07-.01-.03,0-.06-.02-.09-.03-.03,0-.07-.02-.11-.03-.04,0-.08-.01-.12-.01-.09,0-.18.02-.27.06-.09.04-.18.09-.25.16-.08.07-.14.15-.19.25-.05.1-.07.2-.07.32,0,.11.02.21.07.3.04.09.1.17.17.24.07.07.16.12.25.16.09.04.19.06.3.06.04,0,.09,0,.13-.01.04,0,.08-.02.11-.02.03,0,.06-.02.09-.03.03,0,.05-.01.07-.01.02,0,.03,0,.04,0,0,0,.02.02.03.03h.03v-.46h-.03Z"/>
  <path class="cls-1" d="M6.85.11v-.06h.19c.07,0,.14,0,.21,0,.07,0,.14,0,.21,0,.06,0,.13,0,.2.01.07,0,.14.02.21.05.07.02.13.05.19.09.06.04.12.08.16.14.05.06.08.12.11.2.03.08.04.17.04.27s-.01.19-.04.27c-.03.08-.07.14-.11.2-.05.06-.1.1-.16.14-.06.04-.12.07-.19.09-.07.02-.13.04-.19.04-.06,0-.12.01-.18.01-.08,0-.16,0-.24,0-.08,0-.16,0-.24,0h-.19v-.06h.19V.11h-.19ZM7.46,1.51c.09,0,.16-.01.23-.03.06-.02.12-.05.16-.09.04-.04.08-.08.1-.12.03-.05.04-.1.06-.15.01-.05.02-.1.03-.15,0-.05,0-.1,0-.14,0-.11,0-.21-.02-.3-.01-.09-.04-.17-.08-.23-.04-.06-.1-.11-.17-.15-.07-.03-.17-.05-.29-.05-.03,0-.05,0-.07,0-.02,0-.04,0-.05,0v1.4s.08,0,.11,0"/>
  <path class="cls-1" d="M12.1.95v.08h.22v.06c0,.06,0,.12,0,.18,0,.06-.02.1-.04.14-.02.04-.05.07-.09.09-.04.02-.09.03-.15.03-.08,0-.15-.01-.2-.03-.06-.02-.1-.06-.14-.11-.04-.05-.06-.12-.08-.21-.02-.09-.03-.19-.03-.32v-.15c0-.08,0-.16.01-.23,0-.08.03-.14.06-.2.03-.06.08-.11.13-.14.06-.04.14-.06.23-.06.12,0,.22.04.29.11.07.08.13.18.16.32h.03V.06h-.04s-.01.03-.02.03c0,0-.02,0-.04,0s-.04,0-.07-.01c-.03,0-.06-.02-.09-.03-.03,0-.07-.02-.11-.03-.04,0-.08-.01-.12-.01-.09,0-.18.02-.27.06-.09.04-.18.09-.25.16-.07.07-.14.15-.18.25-.05.1-.07.2-.07.32,0,.11.02.21.06.3.04.09.1.17.17.24.07.07.15.12.25.16.1.04.19.06.3.06.06,0,.12,0,.16-.02.05-.01.09-.03.12-.04.03-.02.07-.03.1-.04.03-.01.06-.02.1-.02.02,0,.03,0,.05.01.01,0,.02.02.02.04h.04v-.48h.14v-.08h-.65Z"/>
  <path class="cls-1" d="M13.11.49c.05-.1.11-.18.19-.25.08-.07.16-.12.25-.16.09-.04.18-.06.27-.06.1,0,.19.02.29.05.09.04.18.09.25.15.07.07.13.15.18.24.05.1.07.2.07.32,0,.1-.02.2-.06.3-.04.09-.1.18-.17.25-.07.07-.16.13-.25.17-.1.04-.19.06-.3.06s-.2-.02-.3-.06c-.1-.04-.18-.09-.25-.16-.07-.07-.13-.15-.17-.24-.04-.09-.07-.19-.07-.3,0-.12.02-.23.07-.32M13.42,1.16c.02.09.04.17.08.22.03.06.08.09.14.12.06.02.12.03.2.03.1,0,.18-.02.24-.06.06-.04.1-.09.13-.16.03-.07.05-.15.05-.24,0-.09.01-.19.01-.3,0-.1,0-.19,0-.27,0-.09-.02-.16-.05-.23-.03-.07-.07-.12-.13-.16-.06-.04-.14-.06-.24-.06-.1,0-.17.02-.23.05-.06.04-.1.09-.13.15-.03.07-.05.14-.06.23,0,.09-.01.19-.01.3,0,.14,0,.26.03.35"/>
  <path class="cls-1" d="M14.99.49c.05-.1.11-.18.19-.25.08-.07.16-.12.25-.16.09-.04.18-.06.27-.06.1,0,.19.02.29.05.09.04.18.09.25.15.07.07.13.15.18.24.05.1.07.2.07.32,0,.1-.02.2-.06.3-.04.09-.1.18-.17.25-.07.07-.16.13-.25.17-.09.04-.19.06-.3.06s-.2-.02-.3-.06c-.1-.04-.18-.09-.25-.16-.07-.07-.13-.15-.17-.24-.04-.09-.06-.19-.06-.3,0-.12.02-.23.07-.32M15.29,1.16c.02.09.04.17.08.22.03.06.08.09.14.12.06.02.12.03.2.03.1,0,.18-.02.24-.06.06-.04.1-.09.13-.16.03-.07.05-.15.06-.24,0-.09.01-.19.01-.3,0-.1,0-.19,0-.27,0-.09-.02-.16-.05-.23-.03-.07-.07-.12-.13-.16-.06-.04-.14-.06-.24-.06-.1,0-.17.02-.23.05-.06.04-.1.09-.13.15-.03.07-.05.14-.06.23,0,.09-.01.19-.01.3,0,.14,0,.26.02.35"/>
  <path class="cls-1" d="M17.83.9s-.06-.09-.1-.12c-.04-.03-.09-.06-.14-.08-.05-.02-.11-.04-.17-.06-.06-.02-.11-.04-.17-.05-.05-.02-.1-.04-.14-.06-.04-.02-.08-.05-.1-.08-.02-.03-.04-.07-.04-.11,0-.03,0-.06.02-.09.02-.03.04-.06.07-.08.03-.03.06-.05.11-.06.04-.02.09-.02.15-.02.07,0,.13.01.17.04.04.02.08.05.11.09.03.04.05.08.07.13.02.05.04.1.05.14h.03V.06h-.03s-.01.03-.02.03c0,0-.02,0-.04,0-.02,0-.04,0-.06-.01-.02,0-.04-.02-.07-.03-.03,0-.06-.02-.09-.03-.04,0-.08-.01-.12-.01-.07,0-.14.01-.2.04-.06.02-.12.06-.16.1-.04.04-.08.09-.11.14-.02.05-.04.11-.04.16,0,.08.01.14.04.19.02.05.06.09.1.13.04.03.09.06.14.08.05.02.1.04.16.06.05.02.11.03.16.05.05.02.1.03.14.06.04.02.07.05.1.08.02.03.04.07.04.12,0,.03,0,.05-.02.09-.01.04-.03.07-.06.11-.03.03-.07.06-.11.09-.05.02-.11.03-.18.03-.02,0-.04,0-.07,0-.02,0-.05,0-.08-.01-.03,0-.06-.02-.09-.04-.03-.02-.06-.04-.09-.07-.03-.03-.05-.06-.07-.09-.02-.03-.04-.06-.05-.1-.01-.03-.02-.06-.03-.09,0-.03-.01-.05-.01-.07h-.03v.48h.03s.01-.03.02-.04c0,0,.02,0,.04,0,.01,0,.04,0,.06.01.03,0,.06.02.1.03.04,0,.08.02.12.03.04,0,.09.01.13.01.09,0,.17-.01.24-.04.07-.03.13-.06.18-.11.05-.05.09-.1.12-.16.03-.06.04-.13.04-.2s-.01-.13-.04-.18"/>
  <path class="cls-1" d="M6.43,1.49l-.65-1.49h-.08l-.61,1.49h-.16v.06h.4v-.06h-.18l.22-.53h.5l.23.53h-.18v.06h.7v-.06h-.19ZM5.85.91h-.46l.22-.55.24.55Z"/>
  <path class="cls-1" d="M10.03,1.5l-.65-1.5h-.08l-.61,1.5h-.16v.06h.4v-.06h-.18l.22-.53h.5l.14.33.09.2h-.18v.06h.71v-.06h-.19ZM9.45.91h-.46l.22-.55.24.55Z"/>
  <path class="cls-1" d="M3.01,1.49l-.65-1.49h-.08l-.61,1.49h-.16v.06h.4v-.06h-.18l.22-.53h.5l.23.53h-.18v.06h.7v-.06h-.19ZM2.43.91h-.46l.22-.55.24.55Z"/>
  <polygon class="cls-1" points="4.85 .06 4.43 .06 4.43 .06 4.43 .11 4.63 .11 4.63 1.06 4.62 1.06 3.92 .06 3.43 .06 3.43 .06 3.43 .11 3.59 .11 3.59 1.49 3.43 1.49 3.43 1.55 3.43 1.55 3.43 1.55 3.85 1.55 3.85 1.52 3.85 1.49 3.66 1.49 3.66 .21 3.66 .21 4.6 1.55 4.69 1.55 4.69 .11 4.85 .11 4.85 .09 4.85 .09 4.85 .06"/>
  <path class="cls-1" d="M19.37.06v.39h-.03s-.02-.05-.04-.09c-.02-.04-.04-.07-.07-.11-.03-.03-.07-.06-.12-.09-.05-.03-.11-.04-.17-.04h-.33v.62h.12c.05,0,.1,0,.13-.02.04-.01.07-.04.09-.06.02-.03.04-.06.06-.1.02-.04.03-.08.04-.13h.03v.68h-.03s-.02-.08-.03-.12c-.01-.04-.03-.07-.05-.1-.02-.03-.05-.05-.08-.07-.03-.02-.07-.03-.12-.03h-.14v.7h.34c.06,0,.12-.01.17-.03.05-.02.1-.05.14-.09.04-.04.07-.09.1-.14.03-.05.05-.11.06-.17h.03v.49h-1.34v-.06h.19V.11h-.19v-.06h1.25Z"/>
  <path class="cls-1" d="M19.99.14s.05.08.05.13-.02.1-.05.13c-.04.04-.09.06-.13.06s-.1-.02-.13-.06c-.04-.04-.06-.08-.06-.13s.02-.1.06-.13c.03-.04.08-.05.13-.05s.1.02.14.06M19.98.15s-.07-.05-.12-.05-.09.02-.12.05c-.03.03-.05.07-.05.12s.02.08.05.12c.03.03.07.05.12.05s.09-.02.12-.05c.03-.03.05-.07.05-.12s-.02-.09-.05-.12M19.95.22s-.02.05-.05.06l.05.1h-.04l-.05-.09h-.04v.09h-.04v-.22h.08c.06,0,.09.02.09.06M19.82.18v.07h.04s.06,0,.06-.04-.02-.04-.06-.04h-.04Z"/>
</svg>