<?xml version="1.0" encoding="UTF-8"?>
<svg id="Layer_1" data-name="Layer 1" xmlns="http://www.w3.org/2000/svg" width="848.28" height="167.15" viewBox="0 0 848.28 167.15">
  <defs>
    <style>
      .cls-1 {
        fill: #fff;
      }
    </style>
  </defs>
  <path class="cls-1" d="M833.28,13.03c-10.9-8.62-26.19-13.03-45.99-13.03h-5.39c-19.25,0-34.09,4.4-44.58,12.89-9.2,7.51-13.72,17.26-13.72,29.16v3.81c-2.41-9.91-7.51-18.69-15.01-26.33-12.88-12.87-30.42-19.23-53.2-19.23s-40.06,6.36-52.93,19.23c-6.08,6.24-10.61,13.18-13.3,20.82v-.99c0-14.29-5.8-24.91-17.28-31.7-8.34-4.82-18.26-7.35-29.58-7.35-10.47,0-19.52,1.7-27.03,5.37-5.09,2.27-11.46,6.94-19.1,13.58C487.4,6.51,474.09.3,455.98.3s-33.82,6.64-45.57,19.8h-.71V3.68h-23.64v37.8c-2.69-8.22-7.21-15.44-13.59-21.95C359.46,6.66,341.77.3,319.13.3s-40.04,6.36-52.91,19.23c-4.11,4.26-7.51,8.78-10.2,13.74-2.4-5.52-5.51-10.34-9.33-14.58C235.35,6.51,219.08.3,197.71.3c-23.77,0-42.17,6.22-54.77,18.82-4.82,4.68-8.48,10.05-11.32,15.99-2.54-6.23-6.08-11.6-10.33-16.42C109.96,6.51,93.83.3,72.32.3,48.69.3,30.29,6.51,17.69,19.12,5.95,30.58,0,45.86,0,64.96c0,17.13,5.95,31,17.83,41.75,12.47,11.05,28.88,16.42,49.82,16.42,16.85,0,30.57-2.7,40.9-8.07,8.35-4.24,15-10.19,20.24-17.54,1.27-1.69,2.26-3.4,3.11-4.96,2.97,5.24,6.65,9.91,11.32,14.15,12.31,11.05,28.87,16.42,49.67,16.42,16.98,0,30.71-2.7,41.04-8.07,6.09-3.11,11.18-7.07,15.58-11.88v63.98h25.61v-56.47c11.76,8.08,26.47,12.03,44.01,12.03,22.64,0,40.34-6.51,53.36-19.24,6.37-6.51,10.9-13.73,13.59-21.95v38.22h25.33v-63.26c0-13.88,4.68-24.21,14.44-31,7.08-5.09,15.43-7.49,25.34-7.49,15.7,0,23.77,7.07,23.77,21.36v80.38h25.19V48.97c0-8.21,3.39-15.42,10.05-21.64,6.79-6.37,15.29-9.34,25.47-9.34,18.69,0,28.01,8.77,28.01,26.74v75h25.48v-37.08c2.69,7.64,7.22,14.59,13.3,20.81,12.88,12.73,30.57,19.24,52.93,19.24s40.33-6.51,53.2-19.24c7.51-7.64,12.6-16.41,15.01-26.32v45.71h25.75V49.54c0-11.6,3.96-20.1,12.31-25.75,6.08-4.11,14.01-6.23,23.36-6.51,10.04.28,18.26,2.4,24.47,6.36,8.78,5.53,12.89,14.01,12.89,25.62v73.59h25.89V44.17c0-12.74-4.95-23.21-14.99-31.14ZM39.49,28.31c8.07-6.94,18.11-10.32,29.58-10.32,26.17,0,40.19,11.59,42.17,34.68H27.17c0-9.21,4.11-17.28,12.31-24.35ZM109.82,83.37c-.42,5.09-3.82,10.06-10.46,14.57-7.93,5.53-17.27,8.35-28.31,8.35-29.16,0-43.87-12.73-43.87-38.2h98.36c.13,5.51.99,10.61,2.55,15.28h-18.26ZM164.88,28.31c8.07-6.94,18.12-10.32,29.57-10.32,26.18,0,40.34,11.59,42.18,34.68h-84.07c0-9.21,4.11-17.28,12.32-24.35ZM235.21,83.37c-.42,5.09-3.96,10.06-10.61,14.57-7.79,5.53-17.13,8.35-28.16,8.35-29.3,0-43.88-12.73-43.88-38.2h96.95v15.28h-14.3ZM354.94,89.45c-7.64,11.04-19.53,16.55-35.81,16.55s-27.74-5.51-35.38-16.55c-5.52-7.78-8.35-17.12-8.35-27.87s2.83-20.1,8.35-28.03c7.64-10.89,19.53-16.42,35.38-16.42s28.17,5.54,35.81,16.42c5.52,7.93,8.21,17.12,8.21,28.03s-2.69,20.1-8.21,27.87ZM691.19,89.45c-7.8,11.04-19.53,16.55-35.8,16.55s-27.75-5.51-35.52-16.55c-5.38-7.78-8.22-17.12-8.22-27.87s2.83-20.1,8.22-28.03c7.77-10.89,19.66-16.42,35.52-16.42s28,5.54,35.8,16.42c5.52,7.93,8.21,17.12,8.21,28.03s-2.69,20.1-8.21,27.87Z"/>
  <g>
    <path class="cls-1" d="M628.34,59.01c5.71,3.09,12.69,2.79,18.78.42.58.62,1.19,1.2,1.8,1.7,1.86,1.53,4.04,2.44,6.34,2.86-.03.88-.04,1.75-.05,2.62-.03,2.36,0,4.73.06,7.1-1.88-2.27-4.01-4.25-6.52-5.7-.43-.26-.87-.49-1.32-.72-2.7-1.31-8.6-.12-8.26,3.74.99,11.14,10.83,18.65,16.54,27.65.38.6.74,1.21,1.08,1.82,1.56,2.82,7.53.52,8.65-1.61,2.91-5.48,4.12-11.88,6.16-17.71,1.02-2.95,2.31-5.84,3.97-8.49.27-.42.53-.77.83-1.13.18-.22,1.1-1.13,1.1-1.17.11-.08.21-.16.32-.24-.05.05.04,0,.21-.09.16.02.6-.05.16-.08h0c2.14.04,4.83-.7,5.95-2.71,1.06-1.93-.92-3.35-2.7-3.42-8.97-.31-13.59,5.06-16.72,12.04-.21-4.22-.26-8.44-.09-12.66,1.09-.35,2.14-.79,3.13-1.3,6.08-3.16,10.44-8.97,12.68-15.36,2.26-6.44,2.78-16.53-4.12-20.48-3.66-2.09-8.66-.75-11.61,1.93-.96.88-1.78,1.88-2.47,2.97-.57-2.21-1.89-3.96-4.32-4.82-4.77-1.66-10.53,1.55-13.97,4.57-.61.53-1.14,1.1-1.61,1.7-4.78-5.77-14.25-3.13-18.25,2.36-2.75,3.79-3.32,9.5-2.84,14.01.47,4.36,3.31,8.13,7.1,10.18ZM630.82,47.96c-1.05-3.85-.22-8.92,1.95-12.29h.01s.01-.03.03-.04c.14.08.27.17.4.26,0,0,.01.01.03.03.08.08.39.34.43.37.22.22.42.48.61.73.48.62.49.69.74,1.31.55,1.34.65,2.53.48,3.91-.34,2.88-2.08,5.22-4.2,7.1-.18-.44-.35-.91-.48-1.39ZM670.58,32.42c.14.21.27.4.4.6,3.87,5.58.78,14.3-2.48,19.35-.92,1.44-2.09,2.79-3.45,3.87.34-3.87.86-7.73,1.57-11.54.64-3.34,1.39-6.66,2.71-9.79.35-.83.75-1.69,1.25-2.48ZM655.7,55.77c-.31-.26-.61-.53-.9-.83.38-.3.73-.61,1.08-.95-.07.59-.13,1.18-.18,1.78ZM650.48,34.25c.39-.69,1.35-1.52,1.75-1.74.1-.06.21-.11.33-.17.06.08.11.13.11.13.59,1.31.62,2.74.57,4.08-.12,3.22-.88,6.55-1.99,9.57-.19.53-.4,1.07-.64,1.58-.73-2.1-1.18-4.27-1.43-6.24-.31-2.47.05-5.04,1.29-7.21ZM643.51,54.57c-1.83.57-3.75.65-5.68.22-.7-.16-1.36-.38-1.97-.66,1.86-1.39,3.65-3.05,5.16-4.91.65,1.87,1.49,3.67,2.49,5.35ZM633.35,35.06s-.05.04-.08.06h0s.04-.04.08-.06Z"/>
    <g>
      <path class="cls-1" d="M670.28,97.6v.69h-.91v3.4h-.78v-3.4h-.91v-.69h2.61Z"/>
      <path class="cls-1" d="M670.79,101.7v-4.1h1.1l.71,2.69h.01l.71-2.69h1.09v4.1h-.67v-3.22h-.01l-.84,3.22h-.59l-.83-3.22h-.01v3.22h-.67Z"/>
    </g>
  </g>
</svg>