<svg xmlns="http://www.w3.org/2000/svg" width="1080" height="1350" viewBox="0 0 1080 1350">
<rect x="0" y="0" width="1080" height="1350" fill="#fd102108"/>
<ellipse cx="61.91879513762835" cy="686.4750135161332" rx="31.689503483202067" ry="18.135298227919076" fill="#a9a9a9"/>
<ellipse cx="86.19566237674303" cy="686.4750135161332" rx="25.351602786561656" ry="9.067649113959538" fill="#a9a9a9"/>
<ellipse cx="38.03720671916797" cy="686.4750135161332" rx="22.182652438241448" ry="7.254119291167631" fill="#a9a9a9"/>
<ellipse cx="25.525027525390044" cy="25.498111557913063" rx="13.227644519460046" ry="11.611914158983309" fill="#a9a9a9"/>
<ellipse cx="37.00236242167687" cy="25.498111557913063" rx="10.582115615568037" ry="5.805957079491654" fill="#a9a9a9"/>
<ellipse cx="13.413960841094669" cy="25.498111557913063" rx="9.259351163622032" ry="4.644765663593324" fill="#a9a9a9"/>
<ellipse cx="168.24525125708675" cy="336.49626389914016" rx="24.609245527855236" ry="18.080238161053796" fill="#a9a9a9"/>
<ellipse cx="182.54289598792062" cy="336.49626389914016" rx="19.68739642228419" ry="9.040119080526898" fill="#a9a9a9"/>
<ellipse cx="152.28964531761395" cy="336.49626389914016" rx="17.226471869498663" ry="7.232095264421519" fill="#a9a9a9"/>
<ellipse cx="517.5717976119238" cy="552.1347644515963" rx="17.039641228957237" ry="9.987880447329802" fill="#a9a9a9"/>
<ellipse cx="529.2389772465258" cy="552.1347644515963" rx="13.631712983165789" ry="4.993940223664901" fill="#a9a9a9"/>
<ellipse cx="508.1926980689227" cy="552.1347644515963" rx="11.927748860270064" ry="3.995152178931921" fill="#a9a9a9"/>
<ellipse cx="309.90129246837523" cy="1012.0289509240673" rx="13.032684094079075" ry="7.91608757993118" fill="#a9a9a9"/>
<ellipse cx="316.39028641830544" cy="1012.0289509240673" rx="10.42614727526326" ry="3.95804378996559" fill="#a9a9a9"/>
<ellipse cx="302.1346148533472" cy="1012.0289509240673" rx="9.122878865855352" ry="3.1664350319724717" fill="#a9a9a9"/>
<ellipse cx="94.21499495125143" cy="869.7334040281054" rx="15.627462671176321" ry="11.390152251830035" fill="#a9a9a9"/>
<ellipse cx="104.19197395983524" cy="869.7334040281054" rx="12.501970136941058" ry="5.695076125915017" fill="#a9a9a9"/>
<ellipse cx="85.45035792279714" cy="869.7334040281054" rx="10.939223869823426" ry="4.556060900732014" fill="#a9a9a9"/>
<ellipse cx="479.5565702764115" cy="233.77511512198257" rx="30.778073745611977" ry="15.14250691146329" fill="#a9a9a9"/>
<ellipse cx="497.20483365991674" cy="233.77511512198257" rx="24.622458996489584" ry="7.571253455731645" fill="#a9a9a9"/>
<ellipse cx="458.64260606317623" cy="233.77511512198257" rx="21.544651621928384" ry="6.057002764585316" fill="#a9a9a9"/>
<ellipse cx="256.60004866151144" cy="334.6629203924271" rx="18.48790589597561" ry="7.3871504305251765" fill="#a9a9a9"/>
<ellipse cx="267.24322143876805" cy="334.6629203924271" rx="14.790324716780491" ry="3.6935752152625883" fill="#a9a9a9"/>
<ellipse cx="247.25358762013647" cy="334.6629203924271" rx="12.941534127182926" ry="2.9548601722100707" fill="#a9a9a9"/>
<ellipse cx="369.51149421255644" cy="991.0238747443184" rx="34.78250176480949" ry="20.47427325696111" fill="#a9a9a9"/>
<ellipse cx="394.02045453951155" cy="991.0238747443184" rx="27.826001411847596" ry="10.237136628480554" fill="#a9a9a9"/>
<ellipse cx="344.14461492319884" cy="991.0238747443184" rx="24.347751235366644" ry="8.189709302784443" fill="#a9a9a9"/>
<ellipse cx="36.690237539210464" cy="870.848344671935" rx="25.634858115781988" ry="15.846885949366367" fill="#a9a9a9"/>
<ellipse cx="54.914779076167434" cy="870.848344671935" rx="20.50788649262559" ry="7.923442974683184" fill="#a9a9a9"/>
<ellipse cx="21.616031863622666" cy="870.848344671935" rx="17.944400681047387" ry="6.338754379746548" fill="#a9a9a9"/>
<ellipse cx="805.1317263884152" cy="716.3657787797813" rx="23.043448798462126" ry="14.49813348698676" fill="#a9a9a9"/>
<ellipse cx="818.1706835548729" cy="716.3657787797813" rx="18.434759038769702" ry="7.24906674349338" fill="#a9a9a9"/>
<ellipse cx="790.4069865988045" cy="716.3657787797813" rx="16.130414158923486" ry="5.799253394794704" fill="#a9a9a9"/>
<ellipse cx="564.3318414801414" cy="749.3981886419459" rx="37.243751831026366" ry="15.203429811723007" fill="#a9a9a9"/>
<ellipse cx="588.0389576843229" cy="749.3981886419459" rx="29.795001464821095" ry="7.6017149058615034" fill="#a9a9a9"/>
<ellipse cx="540.8276438569305" cy="749.3981886419459" rx="26.07062628171845" ry="6.081371924689203" fill="#a9a9a9"/>
<ellipse cx="752.765951255693" cy="1345.636153847741" rx="13.142676869500335" ry="7.25752316046507" fill="#a9a9a9"/>
<ellipse cx="760.9545371554836" cy="1345.636153847741" rx="10.514141495600267" ry="3.628761580232535" fill="#a9a9a9"/>
<ellipse cx="746.0160919332343" cy="1345.636153847741" rx="9.199873808650233" ry="2.903009264186028" fill="#a9a9a9"/>
<ellipse cx="946.5642162070443" cy="417.58421678914885" rx="23.893654493604192" ry="12.217751362055292" fill="#a9a9a9"/>
<ellipse cx="963.7215069728102" cy="417.58421678914885" rx="19.114923594883354" ry="6.108875681027646" fill="#a9a9a9"/>
<ellipse cx="930.8268037001951" cy="417.58421678914885" rx="16.725558145522935" ry="4.887100544822117" fill="#a9a9a9"/>
<ellipse cx="718.0100584859075" cy="427.6766182983651" rx="17.947302608856283" ry="9.350669339480953" fill="#a9a9a9"/>
<ellipse cx="730.1349869874347" cy="427.6766182983651" rx="14.357842087085025" ry="4.675334669740477" fill="#a9a9a9"/>
<ellipse cx="707.3157829194004" cy="427.6766182983651" rx="12.563111826199396" ry="3.7402677357923815" fill="#a9a9a9"/>
<ellipse cx="923.6380078194841" cy="932.7374879888899" rx="27.844217614026746" ry="11.31034646930889" fill="#a9a9a9"/>
<ellipse cx="943.010732471375" cy="932.7374879888899" rx="22.275374091221398" ry="5.655173234654445" fill="#a9a9a9"/>
<ellipse cx="909.1213154374939" cy="932.7374879888899" rx="19.490952329818718" ry="4.524138587723556" fill="#a9a9a9"/>
<ellipse cx="576.4554852416998" cy="473.3952196656704" rx="32.37083814241793" ry="23.695318416044113" fill="#a9a9a9"/>
<ellipse cx="596.7488021343776" cy="473.3952196656704" rx="25.896670513934342" ry="11.847659208022057" fill="#a9a9a9"/>
<ellipse cx="556.0700405041038" cy="473.3952196656704" rx="22.65958669969255" ry="9.478127366417645" fill="#a9a9a9"/>
<ellipse cx="769.507988798203" cy="525.4332395854561" rx="24.164258143592146" ry="13.301907059113757" fill="#a9a9a9"/>
<ellipse cx="787.3395491321471" cy="525.4332395854561" rx="19.331406514873716" ry="6.650953529556879" fill="#a9a9a9"/>
<ellipse cx="751.7878050029271" cy="525.4332395854561" rx="16.9149807005145" ry="5.320762823645503" fill="#a9a9a9"/>
<ellipse cx="632.7322912648006" cy="467.09740630681506" rx="28.035399835717044" ry="10.646600331313023" fill="#a9a9a9"/>
<ellipse cx="646.8636192129497" cy="467.09740630681506" rx="22.428319868573638" ry="5.323300165656511" fill="#a9a9a9"/>
<ellipse cx="613.5276906319573" cy="467.09740630681506" rx="19.62477988500193" ry="4.258640132525209" fill="#a9a9a9"/>
<path d="M 0,675 L 10,670.4743126444885 L 20,666.129050162209 L 30,662.1374444560611 L 40,658.6586282493089 L 50,655.8312909660762 L 60,653.7681496216666 L 70,652.5514551508629 L 80,652.2297133227145 L 90,652.8157509685947 L 100,654.2862046169109 L 110,656.5824519209897 L 120,659.6129487470448 L 130,663.2568787499071 L 140,667.3689699394484 L 150,671.7852862163962 L 160,676.3297629872802 L 170,680.8212263041712 L 180,685.0806156982568 L 190,688.9381227556752 L 200,692.2399608431147 L 210,694.8544960955816 L 220,696.6774952432032 L 230,697.6362810627703 L 240,697.6926297892804 L 250,696.8442949768263 L 260,695.1250970573051 L 270,692.6035750265254 L 280,689.3802540107315 L 290,685.5836376470454 L 300,681.3650850489715 L 310,676.8927765961826 L 320,672.3450091135057 L 330,667.9030877391652 L 340,663.7440978610625 L 350,660.033845281186 L 360,656.9202460615163 L 370,654.5274295774111 L 380,652.9507898711228 L 390,652.2531825923664 L 400,652.4624191419193 L 410,653.5701579188348 L 420,655.532236873749 L 430,658.2704341104277 L 440,661.6755863459257 L 450,665.6119409061928 L 460,669.9225677567964 L 470,674.4356158081725 L 480,678.9711640762595 L 490,683.348394564359 L 500,687.3928009060598 L 510,690.943145383381 L 520,693.8578869657712 L 530,696.0208241043397" fill="none" stroke="#ff6464" stroke-width="3" opacity="0.59"/>
<path d="M 540,666.1323364801989 L 550,665.9600885327817 L 560,666.1482333284721 L 570,666.6892701279913 L 580,667.5616295014829 L 590,668.7305332336148 L 600,670.149380821276 L 610,671.7616072885791 L 620,673.5029382539473 L 630,675.3039523468791 L 640,677.0928488189179 L 650,678.7983100129128 L 660,680.3523445729533 L 670,681.6929980451702 L 680,682.7668228063027 L 690,683.5310088517747 L 700,683.9550904954816 L 710,684.0221609405559 L 720,683.7295463000055 L 730,683.0889121961502 L 740,682.1257986890729 L 750,680.8786020750204 L 760,679.3970441472384 L 770,677.7401899449811 L 780,675.9740930167869 L 790,674.1691620739417 L 800,672.3973540173478 L 810,670.7293052429578 L 820,669.2315155915745 L 830,667.96369721005 L 840,666.9763940164232 L 850,666.3089666734088 L 860,665.988023402984 L 870,666.0263592005455 L 880,666.4224457388202 L 890,667.1604922974503 L 900,668.211075289184 L 910,669.5323112854472 L 920,671.0715267764701 L 930,672.7673580979009 L 940,674.5521978064595 L 950,676.3548899753531 L 960,678.1035669565318 L 970,679.7285145170256 L 980,681.164951125416 L 990,682.3556105870642 L 1000,683.2530250665777 L 1010,683.8214174806135 L 1020,684.0381278172897 L 1030,683.8945165193522 L 1040,683.3963089160583 L 1050,682.563366972366 L 1060,681.4288974550701 L 1070,680.0381280837996" fill="none" stroke="#ff6464" stroke-width="3" opacity="0.59"/>
<ellipse cx="75.20197395011874" cy="523.5209989005332" rx="1.5" ry="1.5" fill="#6496ff" opacity="0.49019607843137253"/>
<ellipse cx="78.14221147361314" cy="297.48657806659423" rx="1.5" ry="1.5" fill="#6496ff" opacity="0.49019607843137253"/>
<ellipse cx="430.60375591302466" cy="707.5318697409388" rx="1.5" ry="1.5" fill="#6496ff" opacity="0.49019607843137253"/>
<ellipse cx="487.56495975310213" cy="612.0512369144947" rx="1.5" ry="1.5" fill="#6496ff" opacity="0.49019607843137253"/>
<ellipse cx="96.6992140266575" cy="620.6180381684648" rx="1.5" ry="1.5" fill="#6496ff" opacity="0.49019607843137253"/>
<ellipse cx="388.7948014162457" cy="649.4749727889313" rx="1.5" ry="1.5" fill="#6496ff" opacity="0.49019607843137253"/>
<ellipse cx="373.92463463075677" cy="659.8789396974626" rx="1.5" ry="1.5" fill="#6496ff" opacity="0.49019607843137253"/>
<ellipse cx="428.6020447819503" cy="337.03667537171236" rx="1.5" ry="1.5" fill="#6496ff" opacity="0.49019607843137253"/>
<ellipse cx="489.44690488718777" cy="423.9260854310943" rx="1.5" ry="1.5" fill="#6496ff" opacity="0.49019607843137253"/>
<ellipse cx="263.4208847318873" cy="844.1647235509776" rx="1.5" ry="1.5" fill="#6496ff" opacity="0.49019607843137253"/>
<ellipse cx="318.3743263773501" cy="876.0332290437228" rx="1.5" ry="1.5" fill="#6496ff" opacity="0.49019607843137253"/>
<ellipse cx="490.4681184191574" cy="1224.9362653237472" rx="1.5" ry="1.5" fill="#6496ff" opacity="0.49019607843137253"/>
<ellipse cx="63.47057107066296" cy="231.8009958750573" rx="1.5" ry="1.5" fill="#6496ff" opacity="0.49019607843137253"/>
<ellipse cx="334.0805377131703" cy="1031.5296297108428" rx="1.5" ry="1.5" fill="#6496ff" opacity="0.49019607843137253"/>
<ellipse cx="290.0245143333564" cy="553.8741233543838" rx="1.5" ry="1.5" fill="#6496ff" opacity="0.49019607843137253"/>
<ellipse cx="359.18585317171454" cy="746.8721512457691" rx="1.5" ry="1.5" fill="#6496ff" opacity="0.49019607843137253"/>
<ellipse cx="352.74752156471254" cy="1253.4131175155812" rx="1.5" ry="1.5" fill="#6496ff" opacity="0.49019607843137253"/>
<ellipse cx="326.93754688228364" cy="98.75947241613616" rx="1.5" ry="1.5" fill="#6496ff" opacity="0.49019607843137253"/>
<ellipse cx="279.4488163103577" cy="130.22162324293592" rx="1.5" ry="1.5" fill="#6496ff" opacity="0.49019607843137253"/>
<ellipse cx="504.12705862155514" cy="1017.1123270956391" rx="1.5" ry="1.5" fill="#6496ff" opacity="0.49019607843137253"/>
<ellipse cx="421.92572613336415" cy="1322.6318127115405" rx="1.5" ry="1.5" fill="#6496ff" opacity="0.49019607843137253"/>
<ellipse cx="227.80966769336243" cy="1102.3730998404199" rx="1.5" ry="1.5" fill="#6496ff" opacity="0.49019607843137253"/>
<ellipse cx="414.1391660711445" cy="645.7160714295302" rx="1.5" ry="1.5" fill="#6496ff" opacity="0.49019607843137253"/>
<ellipse cx="232.8771115433784" cy="300.0484229531365" rx="1.5" ry="1.5" fill="#6496ff" opacity="0.49019607843137253"/>
<ellipse cx="385.127036154795" cy="951.4561955590995" rx="1.5" ry="1.5" fill="#6496ff" opacity="0.49019607843137253"/>
<ellipse cx="64.10232785348889" cy="933.4408034260575" rx="1.5" ry="1.5" fill="#6496ff" opacity="0.49019607843137253"/>
<ellipse cx="382.41936224625414" cy="663.5258320083497" rx="1.5" ry="1.5" fill="#6496ff" opacity="0.49019607843137253"/>
<ellipse cx="412.62730140827006" cy="488.0115153677815" rx="1.5" ry="1.5" fill="#6496ff" opacity="0.49019607843137253"/>
<ellipse cx="157.2538805740205" cy="570.0922611030248" rx="1.5" ry="1.5" fill="#6496ff" opacity="0.49019607843137253"/>
<ellipse cx="396.3064243254747" cy="77.38891843584781" rx="1.5" ry="1.5" fill="#6496ff" opacity="0.49019607843137253"/>
<ellipse cx="39.30399121684208" cy="642.343810499806" rx="1.5" ry="1.5" fill="#6496ff" opacity="0.49019607843137253"/>
<ellipse cx="155.142799688104" cy="1270.2118194057662" rx="1.5" ry="1.5" fill="#6496ff" opacity="0.49019607843137253"/>
<ellipse cx="356.29640595814976" cy="126.10545164258473" rx="1.5" ry="1.5" fill="#6496ff" opacity="0.49019607843137253"/>
<ellipse cx="160.16368575401776" cy="456.62146231933565" rx="1.5" ry="1.5" fill="#6496ff" opacity="0.49019607843137253"/>
<ellipse cx="511.5784766672079" cy="1183.1546371724246" rx="1.5" ry="1.5" fill="#6496ff" opacity="0.49019607843137253"/>
<ellipse cx="521.6963698909136" cy="919.2600314129425" rx="1.5" ry="1.5" fill="#6496ff" opacity="0.49019607843137253"/>
<ellipse cx="264.39742339048416" cy="35.643821971325124" rx="1.5" ry="1.5" fill="#6496ff" opacity="0.49019607843137253"/>
<ellipse cx="326.8459581615617" cy="324.9104084097363" rx="1.5" ry="1.5" fill="#6496ff" opacity="0.49019607843137253"/>
<ellipse cx="288.9472479973674" cy="393.5351015969809" rx="1.5" ry="1.5" fill="#6496ff" opacity="0.49019607843137253"/>
<ellipse cx="1.070523262522427" cy="449.4340899397778" rx="1.5" ry="1.5" fill="#6496ff" opacity="0.49019607843137253"/>
<ellipse cx="196.1222113092068" cy="455.1099034282891" rx="1.5" ry="1.5" fill="#6496ff" opacity="0.49019607843137253"/>
<ellipse cx="239.89508997644072" cy="315.9463854115207" rx="1.5" ry="1.5" fill="#6496ff" opacity="0.49019607843137253"/>
<ellipse cx="276.76513744367526" cy="1178.4983759645831" rx="1.5" ry="1.5" fill="#6496ff" opacity="0.49019607843137253"/>
<ellipse cx="531.6313793750626" cy="18.94208193707377" rx="1.5" ry="1.5" fill="#6496ff" opacity="0.49019607843137253"/>
<ellipse cx="531.9496536496792" cy="503.86015200235886" rx="1.5" ry="1.5" fill="#6496ff" opacity="0.49019607843137253"/>
<ellipse cx="129.48490625689035" cy="313.3495376973178" rx="1.5" ry="1.5" fill="#6496ff" opacity="0.49019607843137253"/>
<ellipse cx="340.6723989642563" cy="531.8067314717018" rx="1.5" ry="1.5" fill="#6496ff" opacity="0.49019607843137253"/>
<ellipse cx="479.7502043097048" cy="502.75132679508596" rx="1.5" ry="1.5" fill="#6496ff" opacity="0.49019607843137253"/>
<ellipse cx="421.60643597208264" cy="821.6603998195661" rx="1.5" ry="1.5" fill="#6496ff" opacity="0.49019607843137253"/>
<ellipse cx="296.5888883064449" cy="678.4021142303953" rx="1.5" ry="1.5" fill="#6496ff" opacity="0.49019607843137253"/>
<ellipse cx="557.9495143973965" cy="1071.633737288245" rx="1.5" ry="1.5" fill="#ff9664" opacity="0.4843137254901961"/>
<ellipse cx="541.294605732567" cy="453.7247124145388" rx="1.5" ry="1.5" fill="#ff9664" opacity="0.4843137254901961"/>
<ellipse cx="759.8156655858344" cy="1077.094379568982" rx="1.5" ry="1.5" fill="#ff9664" opacity="0.4843137254901961"/>
<ellipse cx="601.8862867643527" cy="172.76723839937117" rx="1.5" ry="1.5" fill="#ff9664" opacity="0.4843137254901961"/>
<ellipse cx="728.5937226696842" cy="1150.9752904767988" rx="1.5" ry="1.5" fill="#ff9664" opacity="0.4843137254901961"/>
<ellipse cx="667.2053290005798" cy="730.043153804747" rx="1.5" ry="1.5" fill="#ff9664" opacity="0.4843137254901961"/>
<ellipse cx="782.5130439933916" cy="883.6189452948138" rx="1.5" ry="1.5" fill="#ff9664" opacity="0.4843137254901961"/>
<ellipse cx="659.838159140124" cy="705.7138550587529" rx="1.5" ry="1.5" fill="#ff9664" opacity="0.4843137254901961"/>
<ellipse cx="920.9682657108494" cy="1193.4255128695747" rx="1.5" ry="1.5" fill="#ff9664" opacity="0.4843137254901961"/>
<ellipse cx="984.1073801201337" cy="1178.4240251306555" rx="1.5" ry="1.5" fill="#ff9664" opacity="0.4843137254901961"/>
<ellipse cx="660.1597023569791" cy="159.61550928634384" rx="1.5" ry="1.5" fill="#ff9664" opacity="0.4843137254901961"/>
<ellipse cx="561.5626108746801" cy="477.83796362478193" rx="1.5" ry="1.5" fill="#ff9664" opacity="0.4843137254901961"/>
<ellipse cx="1001.6664721731406" cy="477.9952349504434" rx="1.5" ry="1.5" fill="#ff9664" opacity="0.4843137254901961"/>
<ellipse cx="743.8216424937461" cy="1220.1375788171486" rx="1.5" ry="1.5" fill="#ff9664" opacity="0.4843137254901961"/>
<ellipse cx="558.0539918029932" cy="346.0846649231783" rx="1.5" ry="1.5" fill="#ff9664" opacity="0.4843137254901961"/>
<ellipse cx="950.2444698336742" cy="868.987763332663" rx="1.5" ry="1.5" fill="#ff9664" opacity="0.4843137254901961"/>
<ellipse cx="803.8046122825726" cy="1098.9410524717257" rx="1.5" ry="1.5" fill="#ff9664" opacity="0.4843137254901961"/>
<ellipse cx="577.6781702217079" cy="360.0032375939205" rx="1.5" ry="1.5" fill="#ff9664" opacity="0.4843137254901961"/>
<ellipse cx="719.7053218724697" cy="403.9028586837942" rx="1.5" ry="1.5" fill="#ff9664" opacity="0.4843137254901961"/>
<ellipse cx="819.6415974011838" cy="361.659997870056" rx="1.5" ry="1.5" fill="#ff9664" opacity="0.4843137254901961"/>
<ellipse cx="628.1751323156874" cy="1337.3657098679644" rx="1.5" ry="1.5" fill="#ff9664" opacity="0.4843137254901961"/>
<ellipse cx="796.9315053228902" cy="581.4576390113018" rx="1.5" ry="1.5" fill="#ff9664" opacity="0.4843137254901961"/>
<ellipse cx="628.7582874711409" cy="1097.224586222891" rx="1.5" ry="1.5" fill="#ff9664" opacity="0.4843137254901961"/>
<ellipse cx="788.7841345038191" cy="378.14174312080337" rx="1.5" ry="1.5" fill="#ff9664" opacity="0.4843137254901961"/>
<ellipse cx="1044.1498305761022" cy="414.58588261836485" rx="1.5" ry="1.5" fill="#ff9664" opacity="0.4843137254901961"/>
<ellipse cx="567.2451710827859" cy="1071.2254514318079" rx="1.5" ry="1.5" fill="#ff9664" opacity="0.4843137254901961"/>
<ellipse cx="814.6200515118521" cy="662.2493150933875" rx="1.5" ry="1.5" fill="#ff9664" opacity="0.4843137254901961"/>
<ellipse cx="1062.425265555468" cy="62.94940712999059" rx="1.5" ry="1.5" fill="#ff9664" opacity="0.4843137254901961"/>
<ellipse cx="819.7266502490857" cy="997.2765867585674" rx="1.5" ry="1.5" fill="#ff9664" opacity="0.4843137254901961"/>
<ellipse cx="922.8748013371951" cy="762.9961434579437" rx="1.5" ry="1.5" fill="#ff9664" opacity="0.4843137254901961"/>
<ellipse cx="755.9916187338492" cy="385.10722535900175" rx="1.5" ry="1.5" fill="#ff9664" opacity="0.4843137254901961"/>
<ellipse cx="738.1695629088997" cy="57.82064798186563" rx="1.5" ry="1.5" fill="#ff9664" opacity="0.4843137254901961"/>
<ellipse cx="1017.6252027589945" cy="488.33756469578367" rx="1.5" ry="1.5" fill="#ff9664" opacity="0.4843137254901961"/>
<ellipse cx="598.8158226287067" cy="169.43368174574977" rx="1.5" ry="1.5" fill="#ff9664" opacity="0.4843137254901961"/>
<ellipse cx="974.3419613476573" cy="117.8769708228656" rx="1.5" ry="1.5" fill="#ff9664" opacity="0.4843137254901961"/>
<ellipse cx="650.7549495020671" cy="1344.56587198403" rx="1.5" ry="1.5" fill="#ff9664" opacity="0.4843137254901961"/>
<ellipse cx="880.0715734158044" cy="401.8234493219403" rx="1.5" ry="1.5" fill="#ff9664" opacity="0.4843137254901961"/>
<ellipse cx="767.5084019766693" cy="324.8436214052344" rx="1.5" ry="1.5" fill="#ff9664" opacity="0.4843137254901961"/>
<ellipse cx="857.9066725065497" cy="137.1053517503223" rx="1.5" ry="1.5" fill="#ff9664" opacity="0.4843137254901961"/>
<ellipse cx="722.8489298479859" cy="213.0788684883522" rx="1.5" ry="1.5" fill="#ff9664" opacity="0.4843137254901961"/>
<ellipse cx="861.9043655702399" cy="1033.5018580004116" rx="1.5" ry="1.5" fill="#ff9664" opacity="0.4843137254901961"/>
<ellipse cx="983.2829548992603" cy="530.4923954096122" rx="1.5" ry="1.5" fill="#ff9664" opacity="0.4843137254901961"/>
<ellipse cx="547.3926615749451" cy="713.2049379466125" rx="1.5" ry="1.5" fill="#ff9664" opacity="0.4843137254901961"/>
<ellipse cx="1046.7532041048414" cy="1104.7241633314286" rx="1.5" ry="1.5" fill="#ff9664" opacity="0.4843137254901961"/>
<ellipse cx="555.372340686327" cy="1126.9985496657894" rx="1.5" ry="1.5" fill="#ff9664" opacity="0.4843137254901961"/>
<ellipse cx="1047.9886510353483" cy="508.6441936477293" rx="1.5" ry="1.5" fill="#ff9664" opacity="0.4843137254901961"/>
<ellipse cx="723.8540340326047" cy="738.1378594497861" rx="1.5" ry="1.5" fill="#ff9664" opacity="0.4843137254901961"/>
<ellipse cx="654.0844989354184" cy="1236.999165097717" rx="1.5" ry="1.5" fill="#ff9664" opacity="0.4843137254901961"/>
<ellipse cx="1060.7841398756877" cy="1348.5612637123843" rx="1.5" ry="1.5" fill="#ff9664" opacity="0.4843137254901961"/>
<line x1="292.04466833362574" y1="742.6412347437074" x2="420.64466833362576" y2="742.6412347437074" stroke="#c8c8c8" stroke-width="1" opacity="0.39"/>
<line x1="209.47829256275588" y1="1029.8272852924779" x2="338.0782925627559" y2="1029.8272852924779" stroke="#c8c8c8" stroke-width="1" opacity="0.39"/>
<line x1="203.21196565554104" y1="1057.2141413843326" x2="331.81196565554103" y2="1057.2141413843326" stroke="#c8c8c8" stroke-width="1" opacity="0.39"/>
<line x1="361.57576577811307" y1="932.2480921318047" x2="490.17576577811303" y2="932.2480921318047" stroke="#c8c8c8" stroke-width="1" opacity="0.39"/>
<line x1="104.22789578522924" y1="799.2895293977529" x2="232.82789578522923" y2="799.2895293977529" stroke="#c8c8c8" stroke-width="1" opacity="0.39"/>
<line x1="399.4308974218699" y1="1209.535986748308" x2="528.0308974218699" y2="1209.535986748308" stroke="#c8c8c8" stroke-width="1" opacity="0.39"/>
<line x1="232.53844510416428" y1="703.8769308030033" x2="361.13844510416425" y2="703.8769308030033" stroke="#c8c8c8" stroke-width="1" opacity="0.39"/>
<line x1="253.29385053985465" y1="1113.3137767730811" x2="381.8938505398546" y2="1113.3137767730811" stroke="#c8c8c8" stroke-width="1" opacity="0.39"/>
<line x1="366.21493595010367" y1="1098.6405914177376" x2="494.81493595010363" y2="1098.6405914177376" stroke="#c8c8c8" stroke-width="1" opacity="0.39"/>
<line x1="316.29803910679095" y1="738.5469499689281" x2="444.898039106791" y2="738.5469499689281" stroke="#c8c8c8" stroke-width="1" opacity="0.39"/>
<line x1="243.78363859084604" y1="153.25074799044557" x2="372.38363859084603" y2="153.25074799044557" stroke="#c8c8c8" stroke-width="1" opacity="0.39"/>
<line x1="74.54699460163107" y1="633.8216277928193" x2="203.14699460163106" y2="633.8216277928193" stroke="#c8c8c8" stroke-width="1" opacity="0.39"/>
<line x1="421.76044841378945" y1="314.8204208886346" x2="550.3604484137894" y2="314.8204208886346" stroke="#c8c8c8" stroke-width="1" opacity="0.39"/>
<line x1="30.463001146196852" y1="1294.0748965805747" x2="159.06300114619685" y2="1294.0748965805747" stroke="#c8c8c8" stroke-width="1" opacity="0.39"/>
<line x1="93.39649204788566" y1="940.9326960057638" x2="221.99649204788565" y2="940.9326960057638" stroke="#c8c8c8" stroke-width="1" opacity="0.39"/>
<line x1="431.12276335764807" y1="675.3912273214158" x2="559.7227633576481" y2="675.3912273214158" stroke="#c8c8c8" stroke-width="1" opacity="0.39"/>
<line x1="416.5564372095077" y1="73.8163769588882" x2="545.1564372095077" y2="73.8163769588882" stroke="#c8c8c8" stroke-width="1" opacity="0.39"/>
<line x1="466.7504116086059" y1="350.69550292133147" x2="595.3504116086059" y2="350.69550292133147" stroke="#c8c8c8" stroke-width="1" opacity="0.39"/>
<line x1="518.5716393024528" y1="871.0637931111565" x2="647.1716393024528" y2="871.0637931111565" stroke="#c8c8c8" stroke-width="1" opacity="0.39"/>
<line x1="27.234549535081978" y1="221.6971681554323" x2="155.83454953508198" y2="221.6971681554323" stroke="#c8c8c8" stroke-width="1" opacity="0.39"/>
<line x1="487.5734248047571" y1="245.91779720313744" x2="616.1734248047571" y2="245.91779720313744" stroke="#c8c8c8" stroke-width="1" opacity="0.39"/>
<line x1="1.647965312771483" y1="212.57699595884282" x2="130.24796531277147" y2="212.57699595884282" stroke="#c8c8c8" stroke-width="1" opacity="0.39"/>
<line x1="327.0633800360669" y1="7.413518432254679" x2="455.6633800360669" y2="7.413518432254679" stroke="#c8c8c8" stroke-width="1" opacity="0.39"/>
<line x1="322.1119021634161" y1="669.398582293372" x2="450.7119021634161" y2="669.398582293372" stroke="#c8c8c8" stroke-width="1" opacity="0.39"/>
<line x1="359.26026837865834" y1="685.0824240059976" x2="487.86026837865836" y2="685.0824240059976" stroke="#c8c8c8" stroke-width="1" opacity="0.39"/>
<line x1="88.05623535441991" y1="664.1612339132284" x2="216.6562353544199" y2="664.1612339132284" stroke="#c8c8c8" stroke-width="1" opacity="0.39"/>
<line x1="87.99102548881947" y1="112.20880603054948" x2="216.59102548881947" y2="112.20880603054948" stroke="#c8c8c8" stroke-width="1" opacity="0.39"/>
<line x1="168.12278159340974" y1="1034.359547977503" x2="296.72278159340976" y2="1034.359547977503" stroke="#c8c8c8" stroke-width="1" opacity="0.39"/>
<line x1="349.1883374886533" y1="1188.7539630703413" x2="477.78833748865327" y2="1188.7539630703413" stroke="#c8c8c8" stroke-width="1" opacity="0.39"/>
<line x1="356.57526986514" y1="707.357097001447" x2="485.17526986513997" y2="707.357097001447" stroke="#c8c8c8" stroke-width="1" opacity="0.39"/>
<line x1="214.62504396896114" y1="1170.647121020894" x2="343.22504396896113" y2="1170.647121020894" stroke="#c8c8c8" stroke-width="1" opacity="0.39"/>
<line x1="204.14820680587934" y1="461.9980575805521" x2="332.74820680587936" y2="461.9980575805521" stroke="#c8c8c8" stroke-width="1" opacity="0.39"/>
<line x1="245.25218021369176" y1="773.1823686385445" x2="373.8521802136918" y2="773.1823686385445" stroke="#c8c8c8" stroke-width="1" opacity="0.39"/>
<line x1="184.21626099581655" y1="377.80845182845763" x2="312.81626099581655" y2="377.80845182845763" stroke="#c8c8c8" stroke-width="1" opacity="0.39"/>
<line x1="215.36662111774396" y1="592.2581437007794" x2="343.96662111774395" y2="592.2581437007794" stroke="#c8c8c8" stroke-width="1" opacity="0.39"/>
<line x1="357.951307463437" y1="924.1242174637151" x2="486.55130746343696" y2="924.1242174637151" stroke="#c8c8c8" stroke-width="1" opacity="0.39"/>
<line x1="68.01524165459686" y1="1308.1479242575112" x2="196.61524165459684" y2="1308.1479242575112" stroke="#c8c8c8" stroke-width="1" opacity="0.39"/>
<line x1="84.4264340793837" y1="1210.5170717511871" x2="213.0264340793837" y2="1210.5170717511871" stroke="#c8c8c8" stroke-width="1" opacity="0.39"/>
<line x1="355.2639915213287" y1="1251.9563561547345" x2="483.86399152132867" y2="1251.9563561547345" stroke="#c8c8c8" stroke-width="1" opacity="0.39"/>
<line x1="339.2284156471623" y1="1323.8146668876589" x2="467.8284156471623" y2="1323.8146668876589" stroke="#c8c8c8" stroke-width="1" opacity="0.39"/>
<line x1="293.9499808726599" y1="1073.4783058396906" x2="422.54998087265994" y2="1073.4783058396906" stroke="#c8c8c8" stroke-width="1" opacity="0.39"/>
<line x1="447.7026130853699" y1="689.9670484894733" x2="576.3026130853699" y2="689.9670484894733" stroke="#c8c8c8" stroke-width="1" opacity="0.39"/>
<line x1="300.49851908371716" y1="1035.982311254359" x2="429.0985190837172" y2="1035.982311254359" stroke="#c8c8c8" stroke-width="1" opacity="0.39"/>
<line x1="374.86943739227456" y1="135.7977748549533" x2="503.4694373922746" y2="135.7977748549533" stroke="#c8c8c8" stroke-width="1" opacity="0.39"/>
<line x1="287.8979034572364" y1="901.6530458357433" x2="416.49790345723636" y2="901.6530458357433" stroke="#c8c8c8" stroke-width="1" opacity="0.39"/>
<line x1="126.8427157992696" y1="691.2988054991229" x2="255.4427157992696" y2="691.2988054991229" stroke="#c8c8c8" stroke-width="1" opacity="0.39"/>
<line x1="345.3383161245558" y1="321.55673518849386" x2="473.93831612455574" y2="321.55673518849386" stroke="#c8c8c8" stroke-width="1" opacity="0.39"/>
<line x1="179.08085533374958" y1="991.0301511134162" x2="307.6808553337496" y2="991.0301511134162" stroke="#c8c8c8" stroke-width="1" opacity="0.39"/>
<line x1="219.6244455406556" y1="939.8291413392077" x2="348.2244455406556" y2="939.8291413392077" stroke="#c8c8c8" stroke-width="1" opacity="0.39"/>
<line x1="312.05534234273034" y1="496.36471890675125" x2="440.65534234273036" y2="496.36471890675125" stroke="#c8c8c8" stroke-width="1" opacity="0.39"/>
<line x1="35.473330037423096" y1="372.4685894197172" x2="164.0733300374231" y2="372.4685894197172" stroke="#c8c8c8" stroke-width="1" opacity="0.39"/>
<line x1="6.765217784217194" y1="1092.888736674976" x2="135.36521778421718" y2="1092.888736674976" stroke="#c8c8c8" stroke-width="1" opacity="0.39"/>
<line x1="519.2151119742613" y1="177.94085749329108" x2="647.8151119742613" y2="177.94085749329108" stroke="#c8c8c8" stroke-width="1" opacity="0.39"/>
<line x1="184.31579777240557" y1="453.6908807482994" x2="312.91579777240554" y2="453.6908807482994" stroke="#c8c8c8" stroke-width="1" opacity="0.39"/>
<line x1="416.0390069037858" y1="48.00826909393457" x2="544.6390069037858" y2="48.00826909393457" stroke="#c8c8c8" stroke-width="1" opacity="0.39"/>
<line x1="482.62286625924656" y1="486.6876842857747" x2="611.2228662592465" y2="486.6876842857747" stroke="#c8c8c8" stroke-width="1" opacity="0.39"/>
<line x1="5.206232073347192" y1="848.1859801561507" x2="133.8062320733472" y2="848.1859801561507" stroke="#c8c8c8" stroke-width="1" opacity="0.39"/>
<line x1="504.69397568362484" y1="367.9954292103627" x2="633.2939756836248" y2="367.9954292103627" stroke="#c8c8c8" stroke-width="1" opacity="0.39"/>
<line x1="113.94461637080862" y1="480.787293836841" x2="242.54461637080863" y2="480.787293836841" stroke="#c8c8c8" stroke-width="1" opacity="0.39"/>
<line x1="281.6787458777795" y1="559.6723618729377" x2="410.27874587777944" y2="559.6723618729377" stroke="#c8c8c8" stroke-width="1" opacity="0.39"/>
<line x1="137.74222618795105" y1="719.6611944211933" x2="266.34222618795104" y2="719.6611944211933" stroke="#c8c8c8" stroke-width="1" opacity="0.39"/>
<line x1="383.55805653313087" y1="674.4700494569121" x2="512.1580565331309" y2="674.4700494569121" stroke="#c8c8c8" stroke-width="1" opacity="0.39"/>
<line x1="410.01124639530263" y1="869.9515883205233" x2="538.6112463953026" y2="869.9515883205233" stroke="#c8c8c8" stroke-width="1" opacity="0.39"/>
<line x1="30.652821078269195" y1="1165.9477701252083" x2="159.2528210782692" y2="1165.9477701252083" stroke="#c8c8c8" stroke-width="1" opacity="0.39"/>
<line x1="43.116660138180784" y1="884.5332432931909" x2="171.71666013818077" y2="884.5332432931909" stroke="#c8c8c8" stroke-width="1" opacity="0.39"/>
<line x1="811.5231300664708" y1="997.3634903306904" x2="868.1231300664708" y2="997.3634903306904" stroke="#c8c8c8" stroke-width="1" opacity="0.39"/>
<line x1="709.5300079181465" y1="738.8324442966061" x2="766.1300079181465" y2="738.8324442966061" stroke="#c8c8c8" stroke-width="1" opacity="0.39"/>
<line x1="1000.906484341671" y1="933.8685218868166" x2="1057.506484341671" y2="933.8685218868166" stroke="#c8c8c8" stroke-width="1" opacity="0.39"/>
<line x1="959.1376664206095" y1="833.7259952135971" x2="1015.7376664206096" y2="833.7259952135971" stroke="#c8c8c8" stroke-width="1" opacity="0.39"/>
<line x1="997.0348336440674" y1="668.5409727825509" x2="1053.6348336440674" y2="668.5409727825509" stroke="#c8c8c8" stroke-width="1" opacity="0.39"/>
<line x1="871.6573120707912" y1="1188.5423367789679" x2="928.2573120707913" y2="1188.5423367789679" stroke="#c8c8c8" stroke-width="1" opacity="0.39"/>
<line x1="741.1093498212795" y1="41.20017888080337" x2="797.7093498212795" y2="41.20017888080337" stroke="#c8c8c8" stroke-width="1" opacity="0.39"/>
<line x1="888.2120080423597" y1="19.689774522413394" x2="944.8120080423597" y2="19.689774522413394" stroke="#c8c8c8" stroke-width="1" opacity="0.39"/>
<line x1="1018.394265174118" y1="485.9628441212526" x2="1074.994265174118" y2="485.9628441212526" stroke="#c8c8c8" stroke-width="1" opacity="0.39"/>
<line x1="596.6598415638599" y1="39.729134756945605" x2="653.2598415638599" y2="39.729134756945605" stroke="#c8c8c8" stroke-width="1" opacity="0.39"/>
<line x1="901.8164866612369" y1="92.73158316162024" x2="958.416486661237" y2="92.73158316162024" stroke="#c8c8c8" stroke-width="1" opacity="0.39"/>
<line x1="605.6758135863001" y1="466.2874730612559" x2="662.2758135863002" y2="466.2874730612559" stroke="#c8c8c8" stroke-width="1" opacity="0.39"/>
<line x1="1014.4087567154359" y1="683.0025318465207" x2="1071.0087567154358" y2="683.0025318465207" stroke="#c8c8c8" stroke-width="1" opacity="0.39"/>
<line x1="766.1082888702435" y1="882.4790601071338" x2="822.7082888702436" y2="882.4790601071338" stroke="#c8c8c8" stroke-width="1" opacity="0.39"/>
<line x1="947.2106983173688" y1="977.6610021375403" x2="1003.8106983173689" y2="977.6610021375403" stroke="#c8c8c8" stroke-width="1" opacity="0.39"/>
<line x1="559.350399980019" y1="1312.1458104402507" x2="615.950399980019" y2="1312.1458104402507" stroke="#c8c8c8" stroke-width="1" opacity="0.39"/>
<line x1="583.7757754529714" y1="828.8974154875136" x2="640.3757754529714" y2="828.8974154875136" stroke="#c8c8c8" stroke-width="1" opacity="0.39"/>
<line x1="802.2548962860624" y1="982.0084337992633" x2="858.8548962860624" y2="982.0084337992633" stroke="#c8c8c8" stroke-width="1" opacity="0.39"/>
<line x1="1064.5795729218887" y1="1163.3343463592857" x2="1121.1795729218886" y2="1163.3343463592857" stroke="#c8c8c8" stroke-width="1" opacity="0.39"/>
<line x1="876.7174817699555" y1="295.32859339161246" x2="933.3174817699555" y2="295.32859339161246" stroke="#c8c8c8" stroke-width="1" opacity="0.39"/>
<line x1="956.119811132606" y1="343.8135446718957" x2="1012.719811132606" y2="343.8135446718957" stroke="#c8c8c8" stroke-width="1" opacity="0.39"/>
<line x1="862.5038553786017" y1="289.6050275720679" x2="919.1038553786017" y2="289.6050275720679" stroke="#c8c8c8" stroke-width="1" opacity="0.39"/>
<line x1="562.2449487551324" y1="960.2617000044611" x2="618.8449487551325" y2="960.2617000044611" stroke="#c8c8c8" stroke-width="1" opacity="0.39"/>
<line x1="600.4411125464557" y1="71.79784033065562" x2="657.0411125464557" y2="71.79784033065562" stroke="#c8c8c8" stroke-width="1" opacity="0.39"/>
<line x1="690.4270899996288" y1="995.7033907043298" x2="747.0270899996289" y2="995.7033907043298" stroke="#c8c8c8" stroke-width="1" opacity="0.39"/>
<line x1="991.5082170681601" y1="213.68236551698408" x2="1048.10821706816" y2="213.68236551698408" stroke="#c8c8c8" stroke-width="1" opacity="0.39"/>
<line x1="730.3433007888232" y1="715.698391532385" x2="786.9433007888232" y2="715.698391532385" stroke="#c8c8c8" stroke-width="1" opacity="0.39"/>
<line x1="824.080631865226" y1="966.3347308367188" x2="880.680631865226" y2="966.3347308367188" stroke="#c8c8c8" stroke-width="1" opacity="0.39"/>
<line x1="581.893379707771" y1="1226.4365187037906" x2="638.493379707771" y2="1226.4365187037906" stroke="#c8c8c8" stroke-width="1" opacity="0.39"/>
<ellipse cx="740.4197219481783" cy="1160.0085144676307" rx="23.30565214776697" ry="30.95012158676078" fill="#76b3b8" opacity="0.20190011757678797"/>
<rect x="978.2031457257472" y="1085.8373074866074" width="43.858249198579344" height="43.95913599972118" fill="#fa73cb" opacity="0.17445026194655724"/>
<rect x="49.37440159701481" y="949.1160596903023" width="51.78595067550705" height="68.79924379014923" fill="#a9c0c9" opacity="0.2186495370026233"/>
<rect x="999.4889275960109" y="659.3773463505215" width="76.77923920414375" height="85.99664738910731" fill="#eae384" opacity="0.1571823989827871"/>
<line x1="431.3068379980078" y1="427.39981432789926" x2="481.1107923840689" y2="1153.2879715567865" stroke="#ffa5bd" stroke-width="2.5473062999301153" opacity="0.3834379515113504"/>
<line x1="1005.6585650358622" y1="831.4150039252896" x2="380.8520080432538" y2="611.1163797840087" stroke="#c89dcd" stroke-width="2.5115080482845697" opacity="0.184007569867975"/>
<line x1="780.580888157981" y1="246.08178746238434" x2="764.1168776732483" y2="851.9791249427847" stroke="#c1c1c9" stroke-width="2.5296454436749434" opacity="0.22958697528111707"/>
<line x1="947.1976952195157" y1="521.0928084892653" x2="968.0051140524471" y2="1271.777451630578" stroke="#e1e9a8" stroke-width="1.9095785622063923" opacity="0.32344536461826956"/>
<line x1="784.3750337438543" y1="163.34540255523538" x2="589.1476717354486" y2="866.9841531976052" stroke="#a0a29c" stroke-width="2.367673636119661" opacity="0.2979736071664023"/>
<line x1="507.51415753155675" y1="485.77149533004103" x2="26.826939595316976" y2="807.9340158067337" stroke="#d3b9f8" stroke-width="2.9059379705721224" opacity="0.2105853230595648"/>
<ellipse cx="2.0014858255169754" cy="1250.1088864170522" rx="1.9529151920941263" ry="1.9529151920941263" fill="#f0f4f9" opacity="0.1493213130308661"/>
<ellipse cx="826.7534641301042" cy="1274.122238752489" rx="2.6715183265840254" ry="2.6715183265840254" fill="#e9e9d2" opacity="0.08089522287072118"/>
<ellipse cx="526.0495267277814" cy="123.5372901538095" rx="1.2160967291407738" ry="1.2160967291407738" fill="#d8f6e9" opacity="0.2164731867815946"/>
<ellipse cx="741.2447265261992" cy="770.7796458018848" rx="3.2933595191190763" ry="3.2933595191190763" fill="#d0dbe8" opacity="0.08451321546052395"/>
<ellipse cx="639.6583452819187" cy="1.7245531090183897" rx="3.879412255193764" ry="3.879412255193764" fill="#e8ceec" opacity="0.21795005430846762"/>
<ellipse cx="380.7320167407077" cy="721.6596547149401" rx="2.574544311302968" ry="2.574544311302968" fill="#e6d4f9" opacity="0.2095140195970772"/>
<ellipse cx="75.80617908193086" cy="553.9536642627575" rx="3.6731449378063648" ry="3.6731449378063648" fill="#e5f7f2" opacity="0.21273293220939682"/>
<ellipse cx="623.4381154102451" cy="1336.1480540298617" rx="3.472099782187538" ry="3.472099782187538" fill="#d2d6fb" opacity="0.22952051730740256"/>
<ellipse cx="591.2593319785127" cy="1153.729731381745" rx="3.214794756013339" ry="3.214794756013339" fill="#d4f7d7" opacity="0.1600660062683871"/>
<ellipse cx="291.00697530946087" cy="232.24593411769993" rx="2.375138611241774" ry="2.375138611241774" fill="#fbd8cb" opacity="0.08515192013473805"/>
<ellipse cx="313.05428281102996" cy="1292.064688211337" rx="1.7854309085688698" ry="1.7854309085688698" fill="#dce2cf" opacity="0.2227196834338528"/>
<ellipse cx="511.78852581968" cy="93.88659600815112" rx="1.6620304289562768" ry="1.6620304289562768" fill="#e7fffe" opacity="0.10214801864232456"/>
<ellipse cx="285.4330767530171" cy="46.927124283708224" rx="3.7266118241132293" ry="3.7266118241132293" fill="#d5f3e7" opacity="0.20298447334255265"/>
<ellipse cx="966.3060526579181" cy="334.0516986018288" rx="1.2302526236652642" ry="1.2302526236652642" fill="#cdd7e2" opacity="0.13439014848809158"/>
<ellipse cx="795.0271586305588" cy="961.6562609382236" rx="1.8908324245786445" ry="1.8908324245786445" fill="#fbdaf5" opacity="0.23152557080983935"/>
<ellipse cx="915.7205776664058" cy="1030.6692843468252" rx="1.4452109338926202" ry="1.4452109338926202" fill="#d2cbe0" opacity="0.08668800429186371"/>
<ellipse cx="649.7837057755253" cy="1027.4902229325335" rx="3.703369857139592" ry="3.703369857139592" fill="#fcdeec" opacity="0.11381923452791028"/>
<ellipse cx="990.5465166412976" cy="1257.8971809045865" rx="3.609673858904128" ry="3.609673858904128" fill="#e2fcda" opacity="0.13459046684337117"/>
<ellipse cx="295.3749419634114" cy="269.7977722947475" rx="1.5681352319978807" ry="1.5681352319978807" fill="#d0fdd1" opacity="0.21245388429936193"/>
<ellipse cx="791.3862851967041" cy="239.7770942374026" rx="2.7101561733103154" ry="2.7101561733103154" fill="#faffcf" opacity="0.08786546015711262"/>
<ellipse cx="291.7098642753949" cy="543.6075123695692" rx="3.5933619153654957" ry="3.5933619153654957" fill="#c9f0e9" opacity="0.17994794663313324"/>
</svg>