<svg xmlns="http://www.w3.org/2000/svg" width="1080" height="1350" viewBox="0 0 1080 1350">
<rect x="0" y="0" width="1080" height="1350" fill="#f1f7fc"/>
<ellipse cx="187.77373918694153" cy="367.3918517154604" rx="36.59689038781986" ry="15.010753619699567" fill="#a9a9a9"/>
<ellipse cx="206.51754523885535" cy="367.3918517154604" rx="29.27751231025589" ry="7.505376809849784" fill="#a9a9a9"/>
<ellipse cx="171.17223324924512" cy="367.3918517154604" rx="25.617823271473902" ry="6.0043014478798264" fill="#a9a9a9"/>
<ellipse cx="529.5937943689496" cy="1078.486848379712" rx="17.724027216259504" ry="7.518933681057038" fill="#a9a9a9"/>
<ellipse cx="540.5228777721223" cy="1078.486848379712" rx="14.179221773007603" ry="3.759466840528519" fill="#a9a9a9"/>
<ellipse cx="518.0735037708912" cy="1078.486848379712" rx="12.406819051381651" ry="3.0075734724228154" fill="#a9a9a9"/>
<ellipse cx="193.76194247685464" cy="861.1447159485634" rx="43.948392510625915" ry="24.56263145169615" fill="#a9a9a9"/>
<ellipse cx="222.07612847280947" cy="861.1447159485634" rx="35.15871400850073" ry="12.281315725848074" fill="#a9a9a9"/>
<ellipse cx="168.60633655580102" cy="861.1447159485634" rx="30.76387475743814" ry="9.82505258067846" fill="#a9a9a9"/>
<ellipse cx="404.0338255856344" cy="1054.5077388428654" rx="28.39691387275367" ry="17.466721371191596" fill="#a9a9a9"/>
<ellipse cx="420.26473179566415" cy="1054.5077388428654" rx="22.717531098202937" ry="8.733360685595798" fill="#a9a9a9"/>
<ellipse cx="387.3125174155979" cy="1054.5077388428654" rx="19.87783971092757" ry="6.986688548476639" fill="#a9a9a9"/>
<ellipse cx="532.1397008989657" cy="1095.7607035971064" rx="26.634188444716486" ry="16.84453784031161" fill="#a9a9a9"/>
<ellipse cx="550.084704962268" cy="1095.7607035971064" rx="21.30735075577319" ry="8.422268920155805" fill="#a9a9a9"/>
<ellipse cx="518.9074054219467" cy="1095.7607035971064" rx="18.64393191130154" ry="6.737815136124644" fill="#a9a9a9"/>
<ellipse cx="274.3209905709703" cy="644.0158191341981" rx="19.180538330271137" ry="13.527862187846718" fill="#a9a9a9"/>
<ellipse cx="289.4866017185888" cy="644.0158191341981" rx="15.34443066421691" ry="6.763931093923359" fill="#a9a9a9"/>
<ellipse cx="261.9630013569597" cy="644.0158191341981" rx="13.426376831189796" ry="5.411144875138687" fill="#a9a9a9"/>
<ellipse cx="396.1985512432635" cy="500.6645145363475" rx="19.691721720158643" ry="16.406763139646923" fill="#a9a9a9"/>
<ellipse cx="410.13976954228576" cy="500.6645145363475" rx="15.753377376126917" ry="8.203381569823462" fill="#a9a9a9"/>
<ellipse cx="378.93066869915015" cy="500.6645145363475" rx="13.784205204111052" ry="6.56270525585877" fill="#a9a9a9"/>
<ellipse cx="474.0567972483378" cy="1189.542532521087" rx="10.864459614061259" ry="8.284458007630873" fill="#a9a9a9"/>
<ellipse cx="483.24399725194854" cy="1189.542532521087" rx="8.691567691249007" ry="4.142229003815436" fill="#a9a9a9"/>
<ellipse cx="464.7405774691234" cy="1189.542532521087" rx="7.605121729842882" ry="3.3137832030523495" fill="#a9a9a9"/>
<ellipse cx="143.50431925780342" cy="126.48621803451618" rx="43.293912993349515" ry="16.39946809499545" fill="#a9a9a9"/>
<ellipse cx="172.37989899349122" cy="126.48621803451618" rx="34.635130394679614" ry="8.199734047497724" fill="#a9a9a9"/>
<ellipse cx="123.4522717205993" cy="126.48621803451618" rx="30.305739095344663" ry="6.5597872379981785" fill="#a9a9a9"/>
<ellipse cx="13.894287950310058" cy="1311.1256942670448" rx="12.274937168799292" ry="7.3488459633066325" fill="#a9a9a9"/>
<ellipse cx="20.97200886150411" cy="1311.1256942670448" rx="9.819949735039433" ry="3.6744229816533163" fill="#a9a9a9"/>
<ellipse cx="7.1272783238429325" cy="1311.1256942670448" rx="8.592456018159506" ry="2.939538385322653" fill="#a9a9a9"/>
<ellipse cx="545.6855052736055" cy="1105.082635537294" rx="30.562160252059343" ry="26.71998943400331" fill="#a9a9a9"/>
<ellipse cx="571.274241977458" cy="1105.082635537294" rx="24.449728201647474" ry="13.359994717001655" fill="#a9a9a9"/>
<ellipse cx="521.9984562202284" cy="1105.082635537294" rx="21.393512176441536" ry="10.687995773601324" fill="#a9a9a9"/>
<ellipse cx="739.5042730306761" cy="773.695904376775" rx="13.892633623595133" ry="8.896371474440192" fill="#a9a9a9"/>
<ellipse cx="748.4339500612806" cy="773.695904376775" rx="11.114106898876106" ry="4.448185737220096" fill="#a9a9a9"/>
<ellipse cx="732.2072931670033" cy="773.695904376775" rx="9.724843536516591" ry="3.5585485897760774" fill="#a9a9a9"/>
<ellipse cx="836.8982650232028" cy="386.48046273108594" rx="20.93497458147837" ry="7.639473382271692" fill="#a9a9a9"/>
<ellipse cx="849.4611263785457" cy="386.48046273108594" rx="16.747979665182697" ry="3.819736691135846" fill="#a9a9a9"/>
<ellipse cx="825.599520726473" cy="386.48046273108594" rx="14.65448220703486" ry="3.055789352908677" fill="#a9a9a9"/>
<ellipse cx="880.2964283620456" cy="1204.2615836506066" rx="31.609207758711452" ry="23.722081819926764" fill="#a9a9a9"/>
<ellipse cx="901.069069620518" cy="1204.2615836506066" rx="25.287366206969164" ry="11.861040909963382" fill="#a9a9a9"/>
<ellipse cx="855.9170931129935" cy="1204.2615836506066" rx="22.126445431098016" ry="9.488832727970706" fill="#a9a9a9"/>
<ellipse cx="816.773393283027" cy="89.9498641909798" rx="10.980540472345174" ry="5.743977917164156" fill="#a9a9a9"/>
<ellipse cx="824.6087800475017" cy="89.9498641909798" rx="8.78443237787614" ry="2.871988958582078" fill="#a9a9a9"/>
<ellipse cx="809.0014556124879" cy="89.9498641909798" rx="7.68637833064162" ry="2.297591166865663" fill="#a9a9a9"/>
<ellipse cx="567.4519372114222" cy="58.7093577062289" rx="35.212857419952925" ry="26.193245916617446" fill="#a9a9a9"/>
<ellipse cx="587.1040954278526" cy="58.7093577062289" rx="28.170285935962344" ry="13.096622958308723" fill="#a9a9a9"/>
<ellipse cx="545.6884560609633" cy="58.7093577062289" rx="24.649000193967044" ry="10.477298366646979" fill="#a9a9a9"/>
<ellipse cx="782.9375196634501" cy="715.6765047068134" rx="41.639997100526806" ry="20.917422843997443" fill="#a9a9a9"/>
<ellipse cx="801.8156013286869" cy="715.6765047068134" rx="33.31199768042145" ry="10.458711421998721" fill="#a9a9a9"/>
<ellipse cx="763.7882084741915" cy="715.6765047068134" rx="29.147997970368763" ry="8.366969137598977" fill="#a9a9a9"/>
<ellipse cx="1034.9576293746743" cy="574.1875114730501" rx="36.85266896182374" ry="19.06964331034745" fill="#a9a9a9"/>
<ellipse cx="1057.049743209702" cy="574.1875114730501" rx="29.48213516945899" ry="9.534821655173724" fill="#a9a9a9"/>
<ellipse cx="1007.2809876017849" cy="574.1875114730501" rx="25.796868273276615" ry="7.62785732413898" fill="#a9a9a9"/>
<ellipse cx="1043.1509544808189" cy="418.3412434618646" rx="14.437628884912499" ry="13.517583894753491" fill="#a9a9a9"/>
<ellipse cx="1054.9091435160979" cy="418.3412434618646" rx="11.550103107930001" ry="6.7587919473767455" fill="#a9a9a9"/>
<ellipse cx="1030.0532843210947" cy="418.3412434618646" rx="10.10634021943875" ry="5.407033557901396" fill="#a9a9a9"/>
<path d="M 0,675 L 10,671.2848835141324 L 20,667.7178769988283 L 30,664.4411857475128 L 40,661.585441100179 L 50,659.2644925840923 L 60,657.5708690924129 L 70,656.5720900492158 L 80,656.3079736231239 L 90,656.7890493025777 L 100,657.9961381183598 L 110,659.8811172485737 L 120,662.3688385236935 L 130,665.3601243469386 L 140,668.7357215920846 L 150,672.3610558492804 L 160,676.0915964820957 L 170,679.7786186079018 L 180,683.2751322896138 L 190,686.4417425606289 L 200,689.1522066622582 L 210,691.2984669441341 L 220,692.794958781734 L 230,693.5820217679458 L 240,693.6282781852302 L 250,692.9318839362007 L 260,691.5206020619669 L 270,689.4506959172969 L 280,686.8046861282124 L 290,683.6880607550372 L 300,680.2250698163199 L 310,676.5537718326872 L 320,672.8205298692958 L 330,669.1741765022998 L 340,665.7600803337081 L 350,662.7143506039587 L 360,660.1584109460208 L 370,658.1941586083226 L 380,656.8999021330112 L 390,656.3272394414948 L 400,656.4990007881428 L 410,657.4083385900882 L 420,659.0190004187491 L 430,661.266774269754 L 440,664.0620484929241 L 450,667.2933843259791 L 460,670.8319586063254 L 470,674.5366995440222 L 480,678.2599108088697 L 490,681.8531597170111 L 500,685.1731947736312 L 510,688.0876566579992 L 520,690.4803549719018 L 530,692.2559003841595" fill="none" stroke="#ff6464" stroke-width="3" opacity="0.59"/>
<path d="M 540,664.8767381057138 L 550,664.6801010683968 L 560,664.8948858351584 L 570,665.5125296151406 L 580,666.5084088999229 L 590,667.8428211251 L 600,669.4625674862355 L 610,671.303073807316 L 620,673.2909649093734 L 630,675.3469898473221 L 640,677.3891813950479 L 650,679.336123820051 L 660,681.1101986717786 L 670,682.6406791843093 L 680,683.866549929319 L 690,684.7389393086631 L 700,685.2230679107711 L 710,685.2996350560328 L 720,684.9655882539886 L 730,684.23424489649 L 740,683.1347613353132 L 750,681.7109705104215 L 760,680.0196344689712 L 770,678.1281814416157 L 780,676.1120176917302 L 790,674.0515213056503 L 800,672.0288377720166 L 810,670.1246051003678 L 820,668.4147390381692 L 830,666.967406549526 L 840,665.8403082134389 L 850,665.078377883803 L 860,664.7119913184507 L 870,664.7557551935431 L 880,665.207924781485 L 890,666.0504735077088 L 900,667.2498116133163 L 910,668.7581252727672 L 920,670.5152827802181 L 930,672.4512318108781 L 940,674.4887921861352 L 950,676.5467328037216 L 960,678.5430100654213 L 970,680.3980386964274 L 980,682.0378645591031 L 990,683.3971129710733 L 1000,684.4215949875091 L 1010,685.0704677433552 L 1020,685.3178627294724 L 1030,685.1539170884641 L 1040,684.5851668156771 L 1050,683.6342861896921 L 1060,682.3391838203897 L 1070,680.7514913523022" fill="none" stroke="#ff6464" stroke-width="3" opacity="0.59"/>
<ellipse cx="460.0651933905041" cy="409.7162248611991" rx="1.5" ry="1.5" fill="#6496ff" opacity="0.5196078431372549"/>
<ellipse cx="399.06017322049485" cy="890.2427677485359" rx="1.5" ry="1.5" fill="#6496ff" opacity="0.5196078431372549"/>
<ellipse cx="301.6189958069562" cy="448.94771596833493" rx="1.5" ry="1.5" fill="#6496ff" opacity="0.5196078431372549"/>
<ellipse cx="99.31880955552627" cy="521.8540596411815" rx="1.5" ry="1.5" fill="#6496ff" opacity="0.5196078431372549"/>
<ellipse cx="444.4114138765314" cy="90.98208550875172" rx="1.5" ry="1.5" fill="#6496ff" opacity="0.5196078431372549"/>
<ellipse cx="13.622569448138853" cy="687.7385300992702" rx="1.5" ry="1.5" fill="#6496ff" opacity="0.5196078431372549"/>
<ellipse cx="514.0157678136676" cy="371.5779485048624" rx="1.5" ry="1.5" fill="#6496ff" opacity="0.5196078431372549"/>
<ellipse cx="256.0030533075347" cy="449.66112992244825" rx="1.5" ry="1.5" fill="#6496ff" opacity="0.5196078431372549"/>
<ellipse cx="48.91608955753785" cy="1068.4879889099338" rx="1.5" ry="1.5" fill="#6496ff" opacity="0.5196078431372549"/>
<ellipse cx="244.98104106866802" cy="73.40583804687756" rx="1.5" ry="1.5" fill="#6496ff" opacity="0.5196078431372549"/>
<ellipse cx="367.60701852273525" cy="849.8466078424112" rx="1.5" ry="1.5" fill="#6496ff" opacity="0.5196078431372549"/>
<ellipse cx="31.57567264119893" cy="236.17482047349907" rx="1.5" ry="1.5" fill="#6496ff" opacity="0.5196078431372549"/>
<ellipse cx="342.5161065266077" cy="1335.3796011467368" rx="1.5" ry="1.5" fill="#6496ff" opacity="0.5196078431372549"/>
<ellipse cx="36.49898530752351" cy="1037.8269602720752" rx="1.5" ry="1.5" fill="#6496ff" opacity="0.5196078431372549"/>
<ellipse cx="159.57987077514636" cy="183.76162656758055" rx="1.5" ry="1.5" fill="#6496ff" opacity="0.5196078431372549"/>
<ellipse cx="447.56055793145697" cy="220.21526108505915" rx="1.5" ry="1.5" fill="#6496ff" opacity="0.5196078431372549"/>
<ellipse cx="190.34600445551146" cy="809.2146817637677" rx="1.5" ry="1.5" fill="#6496ff" opacity="0.5196078431372549"/>
<ellipse cx="475.3288724251692" cy="1313.9570659557157" rx="1.5" ry="1.5" fill="#6496ff" opacity="0.5196078431372549"/>
<ellipse cx="112.96588902965462" cy="377.89024579240487" rx="1.5" ry="1.5" fill="#6496ff" opacity="0.5196078431372549"/>
<ellipse cx="169.8156953648737" cy="270.38710725977415" rx="1.5" ry="1.5" fill="#6496ff" opacity="0.5196078431372549"/>
<ellipse cx="329.4705767973655" cy="163.83994825363158" rx="1.5" ry="1.5" fill="#6496ff" opacity="0.5196078431372549"/>
<ellipse cx="241.48392867366033" cy="524.4748058377182" rx="1.5" ry="1.5" fill="#6496ff" opacity="0.5196078431372549"/>
<ellipse cx="416.3343503029712" cy="106.40682583041807" rx="1.5" ry="1.5" fill="#6496ff" opacity="0.5196078431372549"/>
<ellipse cx="108.5020870475574" cy="338.8609261898608" rx="1.5" ry="1.5" fill="#6496ff" opacity="0.5196078431372549"/>
<ellipse cx="344.48411838360323" cy="299.1896869145286" rx="1.5" ry="1.5" fill="#6496ff" opacity="0.5196078431372549"/>
<ellipse cx="441.2896605400786" cy="250.2293409082244" rx="1.5" ry="1.5" fill="#6496ff" opacity="0.5196078431372549"/>
<ellipse cx="243.98063611424556" cy="1028.74420929176" rx="1.5" ry="1.5" fill="#6496ff" opacity="0.5196078431372549"/>
<ellipse cx="432.1202232465708" cy="558.3654287077326" rx="1.5" ry="1.5" fill="#6496ff" opacity="0.5196078431372549"/>
<ellipse cx="349.21086804438886" cy="168.05638082700614" rx="1.5" ry="1.5" fill="#6496ff" opacity="0.5196078431372549"/>
<ellipse cx="150.31062311972985" cy="302.0879210448302" rx="1.5" ry="1.5" fill="#6496ff" opacity="0.5196078431372549"/>
<ellipse cx="319.24080327117855" cy="929.3699745691241" rx="1.5" ry="1.5" fill="#6496ff" opacity="0.5196078431372549"/>
<ellipse cx="41.89138414426306" cy="1189.5554473574996" rx="1.5" ry="1.5" fill="#6496ff" opacity="0.5196078431372549"/>
<ellipse cx="488.21338914717245" cy="315.3748334922711" rx="1.5" ry="1.5" fill="#6496ff" opacity="0.5196078431372549"/>
<ellipse cx="154.40223641432925" cy="364.91936462229086" rx="1.5" ry="1.5" fill="#6496ff" opacity="0.5196078431372549"/>
<ellipse cx="267.5601340586134" cy="176.09270819280889" rx="1.5" ry="1.5" fill="#6496ff" opacity="0.5196078431372549"/>
<ellipse cx="293.4484024222234" cy="1057.5722162879874" rx="1.5" ry="1.5" fill="#6496ff" opacity="0.5196078431372549"/>
<ellipse cx="427.5162007415277" cy="257.68470180113087" rx="1.5" ry="1.5" fill="#6496ff" opacity="0.5196078431372549"/>
<ellipse cx="463.36786708951365" cy="545.7673075356369" rx="1.5" ry="1.5" fill="#6496ff" opacity="0.5196078431372549"/>
<ellipse cx="443.0944063342616" cy="790.9873012411349" rx="1.5" ry="1.5" fill="#6496ff" opacity="0.5196078431372549"/>
<ellipse cx="105.81893925826016" cy="417.11401213757415" rx="1.5" ry="1.5" fill="#6496ff" opacity="0.5196078431372549"/>
<ellipse cx="213.03831348802817" cy="1284.1462439317938" rx="1.5" ry="1.5" fill="#6496ff" opacity="0.5196078431372549"/>
<ellipse cx="451.34155532873314" cy="138.35676318889332" rx="1.5" ry="1.5" fill="#6496ff" opacity="0.5196078431372549"/>
<ellipse cx="242.68390607213783" cy="405.1216008165486" rx="1.5" ry="1.5" fill="#6496ff" opacity="0.5196078431372549"/>
<ellipse cx="68.67841246941984" cy="717.7865314845864" rx="1.5" ry="1.5" fill="#6496ff" opacity="0.5196078431372549"/>
<ellipse cx="92.03056101316146" cy="1041.5955175839345" rx="1.5" ry="1.5" fill="#6496ff" opacity="0.5196078431372549"/>
<ellipse cx="276.92241681596374" cy="840.9072879892342" rx="1.5" ry="1.5" fill="#6496ff" opacity="0.5196078431372549"/>
<ellipse cx="458.24832937598615" cy="1016.7692189182943" rx="1.5" ry="1.5" fill="#6496ff" opacity="0.5196078431372549"/>
<ellipse cx="400.24257678549856" cy="838.0336765377008" rx="1.5" ry="1.5" fill="#6496ff" opacity="0.5196078431372549"/>
<ellipse cx="60.84949496241728" cy="825.7822442919864" rx="1.5" ry="1.5" fill="#6496ff" opacity="0.5196078431372549"/>
<ellipse cx="160.87557084899188" cy="1093.187553199561" rx="1.5" ry="1.5" fill="#6496ff" opacity="0.5196078431372549"/>
<ellipse cx="95.28873686459322" cy="594.7743642119572" rx="1.5" ry="1.5" fill="#6496ff" opacity="0.5196078431372549"/>
<ellipse cx="194.98058805008446" cy="1130.3563719291037" rx="1.5" ry="1.5" fill="#6496ff" opacity="0.5196078431372549"/>
<ellipse cx="350.32555119615307" cy="344.91544977990696" rx="1.5" ry="1.5" fill="#6496ff" opacity="0.5196078431372549"/>
<ellipse cx="236.37089263478802" cy="288.2182718665424" rx="1.5" ry="1.5" fill="#6496ff" opacity="0.5196078431372549"/>
<ellipse cx="537.6747342467656" cy="290.8517719669509" rx="1.5" ry="1.5" fill="#6496ff" opacity="0.5196078431372549"/>
<ellipse cx="660.5373305643617" cy="18.602111944277823" rx="1.5" ry="1.5" fill="#ff9664" opacity="0.47843137254901963"/>
<ellipse cx="624.0623865668022" cy="1060.8894382887006" rx="1.5" ry="1.5" fill="#ff9664" opacity="0.47843137254901963"/>
<ellipse cx="586.3689136721049" cy="1068.5811688511544" rx="1.5" ry="1.5" fill="#ff9664" opacity="0.47843137254901963"/>
<ellipse cx="799.2280126825106" cy="782.4969831772601" rx="1.5" ry="1.5" fill="#ff9664" opacity="0.47843137254901963"/>
<ellipse cx="780.2101637051488" cy="172.86263116303022" rx="1.5" ry="1.5" fill="#ff9664" opacity="0.47843137254901963"/>
<ellipse cx="636.1583036632082" cy="1140.701196128829" rx="1.5" ry="1.5" fill="#ff9664" opacity="0.47843137254901963"/>
<ellipse cx="752.6959134138635" cy="530.2617790784043" rx="1.5" ry="1.5" fill="#ff9664" opacity="0.47843137254901963"/>
<ellipse cx="1032.5465299992572" cy="182.32820042517417" rx="1.5" ry="1.5" fill="#ff9664" opacity="0.47843137254901963"/>
<ellipse cx="807.5643987709491" cy="363.78205435526655" rx="1.5" ry="1.5" fill="#ff9664" opacity="0.47843137254901963"/>
<ellipse cx="980.6113459731505" cy="887.3239342529904" rx="1.5" ry="1.5" fill="#ff9664" opacity="0.47843137254901963"/>
<ellipse cx="798.2384706746035" cy="305.5347742072934" rx="1.5" ry="1.5" fill="#ff9664" opacity="0.47843137254901963"/>
<ellipse cx="983.3541675486389" cy="1040.9660701830715" rx="1.5" ry="1.5" fill="#ff9664" opacity="0.47843137254901963"/>
<ellipse cx="775.9406233932547" cy="1220.0543766934677" rx="1.5" ry="1.5" fill="#ff9664" opacity="0.47843137254901963"/>
<ellipse cx="573.3118772661834" cy="664.2191696279772" rx="1.5" ry="1.5" fill="#ff9664" opacity="0.47843137254901963"/>
<ellipse cx="1025.761163460911" cy="546.0996332327368" rx="1.5" ry="1.5" fill="#ff9664" opacity="0.47843137254901963"/>
<ellipse cx="572.2481131703817" cy="1123.5835661755798" rx="1.5" ry="1.5" fill="#ff9664" opacity="0.47843137254901963"/>
<ellipse cx="851.5427400132374" cy="733.9785579284553" rx="1.5" ry="1.5" fill="#ff9664" opacity="0.47843137254901963"/>
<ellipse cx="740.0033570267276" cy="68.50061419815785" rx="1.5" ry="1.5" fill="#ff9664" opacity="0.47843137254901963"/>
<ellipse cx="1069.7353526436423" cy="1013.7533431005447" rx="1.5" ry="1.5" fill="#ff9664" opacity="0.47843137254901963"/>
<ellipse cx="784.0970708076363" cy="676.6035321525314" rx="1.5" ry="1.5" fill="#ff9664" opacity="0.47843137254901963"/>
<ellipse cx="761.3965703087842" cy="681.7327740982793" rx="1.5" ry="1.5" fill="#ff9664" opacity="0.47843137254901963"/>
<ellipse cx="913.3127691099945" cy="935.5375532692008" rx="1.5" ry="1.5" fill="#ff9664" opacity="0.47843137254901963"/>
<ellipse cx="668.7323856953217" cy="384.6487687829177" rx="1.5" ry="1.5" fill="#ff9664" opacity="0.47843137254901963"/>
<ellipse cx="749.9121023201906" cy="381.16727489101106" rx="1.5" ry="1.5" fill="#ff9664" opacity="0.47843137254901963"/>
<ellipse cx="636.5903592559464" cy="873.331211913997" rx="1.5" ry="1.5" fill="#ff9664" opacity="0.47843137254901963"/>
<ellipse cx="853.0620719460128" cy="507.10905813943083" rx="1.5" ry="1.5" fill="#ff9664" opacity="0.47843137254901963"/>
<ellipse cx="1009.5502998631216" cy="1079.9851303361288" rx="1.5" ry="1.5" fill="#ff9664" opacity="0.47843137254901963"/>
<ellipse cx="997.708754752627" cy="1060.7324485949857" rx="1.5" ry="1.5" fill="#ff9664" opacity="0.47843137254901963"/>
<ellipse cx="958.2722999613138" cy="1083.9762573521473" rx="1.5" ry="1.5" fill="#ff9664" opacity="0.47843137254901963"/>
<ellipse cx="919.6515800336616" cy="200.9921909314544" rx="1.5" ry="1.5" fill="#ff9664" opacity="0.47843137254901963"/>
<ellipse cx="726.2142867717027" cy="484.2249336113338" rx="1.5" ry="1.5" fill="#ff9664" opacity="0.47843137254901963"/>
<ellipse cx="840.1606251206997" cy="887.9583303294883" rx="1.5" ry="1.5" fill="#ff9664" opacity="0.47843137254901963"/>
<ellipse cx="914.821479495066" cy="1209.1397708324437" rx="1.5" ry="1.5" fill="#ff9664" opacity="0.47843137254901963"/>
<ellipse cx="611.2326693866554" cy="1284.0455403942829" rx="1.5" ry="1.5" fill="#ff9664" opacity="0.47843137254901963"/>
<ellipse cx="1015.8146955798449" cy="407.22949523815396" rx="1.5" ry="1.5" fill="#ff9664" opacity="0.47843137254901963"/>
<ellipse cx="779.8819256945894" cy="551.6825440114749" rx="1.5" ry="1.5" fill="#ff9664" opacity="0.47843137254901963"/>
<ellipse cx="933.425474350073" cy="136.2448454537638" rx="1.5" ry="1.5" fill="#ff9664" opacity="0.47843137254901963"/>
<ellipse cx="756.3574666792329" cy="897.3442379838528" rx="1.5" ry="1.5" fill="#ff9664" opacity="0.47843137254901963"/>
<ellipse cx="606.7936349226133" cy="679.37080742762" rx="1.5" ry="1.5" fill="#ff9664" opacity="0.47843137254901963"/>
<ellipse cx="1062.0964481877613" cy="518.1586864023277" rx="1.5" ry="1.5" fill="#ff9664" opacity="0.47843137254901963"/>
<ellipse cx="883.154912154728" cy="207.61553058755376" rx="1.5" ry="1.5" fill="#ff9664" opacity="0.47843137254901963"/>
<ellipse cx="558.1803721274158" cy="482.5931581121838" rx="1.5" ry="1.5" fill="#ff9664" opacity="0.47843137254901963"/>
<ellipse cx="944.6042026973349" cy="99.1766095623265" rx="1.5" ry="1.5" fill="#ff9664" opacity="0.47843137254901963"/>
<ellipse cx="659.393808301256" cy="1094.2359482377003" rx="1.5" ry="1.5" fill="#ff9664" opacity="0.47843137254901963"/>
<ellipse cx="1018.0208875974738" cy="1116.52228884237" rx="1.5" ry="1.5" fill="#ff9664" opacity="0.47843137254901963"/>
<ellipse cx="778.446149937085" cy="711.5078690981063" rx="1.5" ry="1.5" fill="#ff9664" opacity="0.47843137254901963"/>
<ellipse cx="608.6455822310622" cy="546.5172934096853" rx="1.5" ry="1.5" fill="#ff9664" opacity="0.47843137254901963"/>
<ellipse cx="701.159069613162" cy="1063.3242671672833" rx="1.5" ry="1.5" fill="#ff9664" opacity="0.47843137254901963"/>
<line x1="400.46138066819935" y1="788.3163038586808" x2="482.76138066819937" y2="788.3163038586808" stroke="#c8c8c8" stroke-width="1" opacity="0.39"/>
<line x1="534.0106704337572" y1="704.7899011079174" x2="616.3106704337572" y2="704.7899011079174" stroke="#c8c8c8" stroke-width="1" opacity="0.39"/>
<line x1="252.98827183106368" y1="604.4606926871746" x2="335.2882718310637" y2="604.4606926871746" stroke="#c8c8c8" stroke-width="1" opacity="0.39"/>
<line x1="209.18166170324275" y1="991.1828760947952" x2="291.48166170324276" y2="991.1828760947952" stroke="#c8c8c8" stroke-width="1" opacity="0.39"/>
<line x1="357.6907254931008" y1="332.3636771796102" x2="439.9907254931008" y2="332.3636771796102" stroke="#c8c8c8" stroke-width="1" opacity="0.39"/>
<line x1="432.470541201751" y1="718.2618859774722" x2="514.770541201751" y2="718.2618859774722" stroke="#c8c8c8" stroke-width="1" opacity="0.39"/>
<line x1="443.8043119589818" y1="1238.5503536269769" x2="526.1043119589818" y2="1238.5503536269769" stroke="#c8c8c8" stroke-width="1" opacity="0.39"/>
<line x1="256.4283658268062" y1="471.37849352852373" x2="338.7283658268062" y2="471.37849352852373" stroke="#c8c8c8" stroke-width="1" opacity="0.39"/>
<line x1="112.65715604306067" y1="1334.9348238366351" x2="194.95715604306068" y2="1334.9348238366351" stroke="#c8c8c8" stroke-width="1" opacity="0.39"/>
<line x1="419.6595384644622" y1="723.8822940382558" x2="501.9595384644622" y2="723.8822940382558" stroke="#c8c8c8" stroke-width="1" opacity="0.39"/>
<line x1="253.92734539412305" y1="235.785484423761" x2="336.22734539412306" y2="235.785484423761" stroke="#c8c8c8" stroke-width="1" opacity="0.39"/>
<line x1="36.07053460370309" y1="979.8853312525365" x2="118.3705346037031" y2="979.8853312525365" stroke="#c8c8c8" stroke-width="1" opacity="0.39"/>
<line x1="134.21143061211865" y1="961.9230870911493" x2="216.51143061211866" y2="961.9230870911493" stroke="#c8c8c8" stroke-width="1" opacity="0.39"/>
<line x1="531.3023045152902" y1="208.10219059144248" x2="613.6023045152901" y2="208.10219059144248" stroke="#c8c8c8" stroke-width="1" opacity="0.39"/>
<line x1="11.44952953394946" y1="1157.2764381567372" x2="93.74952953394947" y2="1157.2764381567372" stroke="#c8c8c8" stroke-width="1" opacity="0.39"/>
<line x1="96.23353962611107" y1="70.69319936944787" x2="178.53353962611106" y2="70.69319936944787" stroke="#c8c8c8" stroke-width="1" opacity="0.39"/>
<line x1="54.276462818624665" y1="192.85089531580496" x2="136.5764628186247" y2="192.85089531580496" stroke="#c8c8c8" stroke-width="1" opacity="0.39"/>
<line x1="37.51936199028015" y1="299.17733534200926" x2="119.81936199028016" y2="299.17733534200926" stroke="#c8c8c8" stroke-width="1" opacity="0.39"/>
<line x1="221.86227689583893" y1="927.4137590673815" x2="304.16227689583894" y2="927.4137590673815" stroke="#c8c8c8" stroke-width="1" opacity="0.39"/>
<line x1="510.82215809767234" y1="705.2286032145976" x2="593.1221580976724" y2="705.2286032145976" stroke="#c8c8c8" stroke-width="1" opacity="0.39"/>
<line x1="417.9921485939958" y1="522.478759532086" x2="500.2921485939958" y2="522.478759532086" stroke="#c8c8c8" stroke-width="1" opacity="0.39"/>
<line x1="105.54818635133476" y1="116.41123747285978" x2="187.8481863513348" y2="116.41123747285978" stroke="#c8c8c8" stroke-width="1" opacity="0.39"/>
<line x1="192.3216927947112" y1="110.86570327676166" x2="274.6216927947112" y2="110.86570327676166" stroke="#c8c8c8" stroke-width="1" opacity="0.39"/>
<line x1="2.6363164198753966" y1="1146.5617909778662" x2="84.93631641987541" y2="1146.5617909778662" stroke="#c8c8c8" stroke-width="1" opacity="0.39"/>
<line x1="115.76379781391648" y1="918.1768347128186" x2="198.0637978139165" y2="918.1768347128186" stroke="#c8c8c8" stroke-width="1" opacity="0.39"/>
<line x1="135.8519769347515" y1="1102.7005975612908" x2="218.1519769347515" y2="1102.7005975612908" stroke="#c8c8c8" stroke-width="1" opacity="0.39"/>
<line x1="285.1453615562736" y1="829.6547237921761" x2="367.4453615562736" y2="829.6547237921761" stroke="#c8c8c8" stroke-width="1" opacity="0.39"/>
<line x1="245.84331762317723" y1="680.5655303786349" x2="328.14331762317727" y2="680.5655303786349" stroke="#c8c8c8" stroke-width="1" opacity="0.39"/>
<line x1="457.8494097934335" y1="1265.091831081124" x2="540.1494097934335" y2="1265.091831081124" stroke="#c8c8c8" stroke-width="1" opacity="0.39"/>
<line x1="249.16290533224256" y1="236.47153984590972" x2="331.4629053322426" y2="236.47153984590972" stroke="#c8c8c8" stroke-width="1" opacity="0.39"/>
<line x1="322.8319163633659" y1="234.12626992637584" x2="405.1319163633659" y2="234.12626992637584" stroke="#c8c8c8" stroke-width="1" opacity="0.39"/>
<line x1="59.37575521849829" y1="741.2329945439627" x2="141.6757552184983" y2="741.2329945439627" stroke="#c8c8c8" stroke-width="1" opacity="0.39"/>
<line x1="278.15168393689754" y1="609.6472266175073" x2="360.45168393689755" y2="609.6472266175073" stroke="#c8c8c8" stroke-width="1" opacity="0.39"/>
<line x1="112.44832997789995" y1="219.05755261846707" x2="194.74832997789997" y2="219.05755261846707" stroke="#c8c8c8" stroke-width="1" opacity="0.39"/>
<line x1="433.7239803903382" y1="149.86778504674686" x2="516.0239803903382" y2="149.86778504674686" stroke="#c8c8c8" stroke-width="1" opacity="0.39"/>
<line x1="522.5856992055595" y1="959.4606582817905" x2="604.8856992055596" y2="959.4606582817905" stroke="#c8c8c8" stroke-width="1" opacity="0.39"/>
<line x1="339.4665314347793" y1="977.7850811266271" x2="421.7665314347793" y2="977.7850811266271" stroke="#c8c8c8" stroke-width="1" opacity="0.39"/>
<line x1="281.74144519574077" y1="542.645377173389" x2="364.0414451957408" y2="542.645377173389" stroke="#c8c8c8" stroke-width="1" opacity="0.39"/>
<line x1="304.3085648046381" y1="424.04581924157486" x2="386.6085648046381" y2="424.04581924157486" stroke="#c8c8c8" stroke-width="1" opacity="0.39"/>
<line x1="77.47916940482294" y1="1020.8725561485032" x2="159.77916940482294" y2="1020.8725561485032" stroke="#c8c8c8" stroke-width="1" opacity="0.39"/>
<line x1="174.9637986044231" y1="1132.9650884182029" x2="257.2637986044231" y2="1132.9650884182029" stroke="#c8c8c8" stroke-width="1" opacity="0.39"/>
<line x1="156.03092200869273" y1="569.5569994717636" x2="238.33092200869274" y2="569.5569994717636" stroke="#c8c8c8" stroke-width="1" opacity="0.39"/>
<line x1="1008.3523180281521" y1="1236.2194067035891" x2="1023.7523180281521" y2="1236.2194067035891" stroke="#c8c8c8" stroke-width="1" opacity="0.39"/>
<line x1="1010.8098223017574" y1="1059.5026021169044" x2="1026.2098223017574" y2="1059.5026021169044" stroke="#c8c8c8" stroke-width="1" opacity="0.39"/>
<line x1="683.4962082577385" y1="1195.9373479690112" x2="698.8962082577385" y2="1195.9373479690112" stroke="#c8c8c8" stroke-width="1" opacity="0.39"/>
<line x1="973.6526872746892" y1="400.00362414866856" x2="989.0526872746892" y2="400.00362414866856" stroke="#c8c8c8" stroke-width="1" opacity="0.39"/>
<line x1="699.106407239617" y1="360.84938066119764" x2="714.506407239617" y2="360.84938066119764" stroke="#c8c8c8" stroke-width="1" opacity="0.39"/>
<line x1="809.207954532098" y1="407.75928516302224" x2="824.607954532098" y2="407.75928516302224" stroke="#c8c8c8" stroke-width="1" opacity="0.39"/>
<line x1="883.2688523937337" y1="484.37347434664775" x2="898.6688523937337" y2="484.37347434664775" stroke="#c8c8c8" stroke-width="1" opacity="0.39"/>
<line x1="826.4990617178842" y1="241.6563035182917" x2="841.8990617178841" y2="241.6563035182917" stroke="#c8c8c8" stroke-width="1" opacity="0.39"/>
<ellipse cx="677.9945042906304" cy="753.171855561981" rx="32.90141225927575" ry="21.579232311884663" fill="#bddeed" opacity="0.17237017671477997"/>
<rect x="814.2333570980624" y="687.0315364268756" width="54.86790181829962" height="72.37949638781336" fill="#b472a3" opacity="0.24751576261397035"/>
<ellipse cx="140.35120016911588" cy="560.688369237207" rx="30.207487354151667" ry="34.11773386912476" fill="#69ccf5" opacity="0.23573426177343945"/>
<rect x="782.7294846217751" y="24.68320769941584" width="25.337826388579714" height="21.023819090591953" fill="#9679d9" opacity="0.2882955338066615"/>
<line x1="635.0421240902702" y1="130.5945039403599" x2="635.439724025987" y2="168.43215831016755" stroke="#ecc6b7" stroke-width="2.5741834647833293" opacity="0.22952094735929748"/>
<line x1="543.4663584378857" y1="1.9743204126014935" x2="458.2509329627505" y2="205.49452016385948" stroke="#c5fab0" stroke-width="1.1038423181063692" opacity="0.19862206778881417"/>
<line x1="568.7110736634169" y1="1169.580460139355" x2="893.5160068858024" y2="738.5850909811376" stroke="#d8a9fa" stroke-width="2.2608830934673936" opacity="0.2740159970249361"/>
<line x1="624.3032887504918" y1="98.75448350736615" x2="529.3927755436827" y2="966.6087989539881" stroke="#c9b5b5" stroke-width="2.4805684096555076" opacity="0.3185698379072841"/>
<line x1="302.10745825530375" y1="122.11593395197575" x2="1008.5400621819031" y2="915.9142438862074" stroke="#abe199" stroke-width="2.7774674900702516" opacity="0.3320815587392201"/>
<line x1="1010.3632025655188" y1="1323.6120528185797" x2="16.718959816134983" y2="1336.3278508821165" stroke="#a4b6a8" stroke-width="1.4151520730998144" opacity="0.26532522608627934"/>
<line x1="780.6667939483499" y1="582.6590004296316" x2="488.92812274812167" y2="1188.1837790776901" stroke="#d5e299" stroke-width="1.0500117540592382" opacity="0.16865591676176628"/>
<line x1="544.2510292978263" y1="1071.78497364362" x2="461.5308382276124" y2="30.801200881042146" stroke="#d2cdcb" stroke-width="1.7980862263581185" opacity="0.20460861806661915"/>
<line x1="648.3283284345308" y1="1274.6563738559637" x2="625.1859715511957" y2="1157.0327108525823" stroke="#f7d897" stroke-width="1.9124629799800288" opacity="0.1666454021298392"/>
<line x1="236.0991741326168" y1="1182.4194570921452" x2="22.568149577159502" y2="472.8063222359895" stroke="#a0a3fc" stroke-width="2.9038319596572926" opacity="0.23442569437085878"/>
<line x1="227.74374972458173" y1="921.8966294647644" x2="43.80931379450919" y2="528.4048187213041" stroke="#e9a5c2" stroke-width="1.56333708789355" opacity="0.25109572508469047"/>
<line x1="148.4837008214014" y1="67.67651888899343" x2="70.21274331501347" y2="906.6444892932867" stroke="#c6f0cb" stroke-width="1.5795016887502287" opacity="0.20118924685279685"/>
<ellipse cx="79.75623611349437" cy="692.6036465412955" rx="1.3222541810582644" ry="1.3222541810582644" fill="#cff8e7" opacity="0.16194238853603476"/>
<ellipse cx="58.599786785710506" cy="1202.0937016243552" rx="2.207226157750574" ry="2.207226157750574" fill="#d3fcdf" opacity="0.14476312378624964"/>
<ellipse cx="117.59353643171188" cy="731.79506544573" rx="3.3535557996265384" ry="3.3535557996265384" fill="#e6f2c9" opacity="0.13547432133114579"/>
<ellipse cx="829.9081281711851" cy="899.8283926862425" rx="2.890517831729035" ry="2.890517831729035" fill="#e0d3dd" opacity="0.11259329554334738"/>
<ellipse cx="953.8229982526149" cy="841.5492478951576" rx="3.6403468859569856" ry="3.6403468859569856" fill="#cfd4fd" opacity="0.16087023420993807"/>
<ellipse cx="219.551897151187" cy="1127.7415802365829" rx="1.0710252523752979" ry="1.0710252523752979" fill="#d6ddcb" opacity="0.09091129023067211"/>
<ellipse cx="809.117381949498" cy="999.98556422069" rx="2.630241633220688" ry="2.630241633220688" fill="#d0f5e3" opacity="0.18259424326642168"/>
<ellipse cx="951.8473581931775" cy="287.540906801606" rx="1.3754381837208933" ry="1.3754381837208933" fill="#dcf7f8" opacity="0.1212963777629523"/>
<ellipse cx="288.38956846314926" cy="737.3368981933859" rx="2.5078463561403783" ry="2.5078463561403783" fill="#e1cbfd" opacity="0.1404469621236527"/>
<ellipse cx="683.3163503014093" cy="155.29974110205646" rx="2.268615931863252" ry="2.268615931863252" fill="#defbf3" opacity="0.21596964674229763"/>
<ellipse cx="1066.8321137627736" cy="1255.7427769786411" rx="3.4428708564689714" ry="3.4428708564689714" fill="#e2e9fa" opacity="0.15842112376628076"/>
<ellipse cx="461.1603071452865" cy="308.42303052005497" rx="2.6211136289039225" ry="2.6211136289039225" fill="#e4d1f2" opacity="0.15290600649243882"/>
<ellipse cx="551.9502070136136" cy="796.0090402495158" rx="2.698058605984812" ry="2.698058605984812" fill="#faf7d4" opacity="0.15364022819430925"/>
<ellipse cx="941.1786894412612" cy="729.9003664077728" rx="2.0822244887623116" ry="2.0822244887623116" fill="#e0fef1" opacity="0.2243168401462497"/>
<ellipse cx="751.8361476584506" cy="921.044612359742" rx="1.979569912412935" ry="1.979569912412935" fill="#f4e7d6" opacity="0.10298912199079374"/>
<ellipse cx="383.77084153879935" cy="1084.1804807466365" rx="3.1738406429876767" ry="3.1738406429876767" fill="#d3faf2" opacity="0.15960367991917518"/>
<ellipse cx="171.06871612885442" cy="478.58541481131005" rx="2.2955759769750648" ry="2.2955759769750648" fill="#eccfcf" opacity="0.08541242749408356"/>
<ellipse cx="37.555571811998064" cy="462.4248506792005" rx="1.3416233064334948" ry="1.3416233064334948" fill="#e4dbd9" opacity="0.2183539260319055"/>
<ellipse cx="486.7288830162626" cy="375.20118373222704" rx="3.106141687420263" ry="3.106141687420263" fill="#efcce0" opacity="0.15329387144695078"/>
<ellipse cx="470.32908461537636" cy="1247.8545075505294" rx="3.6283481133302433" ry="3.6283481133302433" fill="#ead0d3" opacity="0.1415132541576252"/>
<ellipse cx="851.0812501102133" cy="1241.180313211484" rx="2.855459929376589" ry="2.855459929376589" fill="#d3d9d7" opacity="0.15976821678807648"/>
<ellipse cx="184.39895161632398" cy="69.85136124764166" rx="3.6330854308945524" ry="3.6330854308945524" fill="#c8f9ed" opacity="0.08275301316406436"/>
<ellipse cx="444.76478552667646" cy="1049.125350010174" rx="2.0290834908509083" ry="2.0290834908509083" fill="#c8f2fc" opacity="0.09299940222128285"/>
</svg>