<svg xmlns="http://www.w3.org/2000/svg" width="1080" height="1350" viewBox="0 0 1080 1350" style="background-color: #eef3f8;">
<rect x="0" y="0" width="1080" height="1350" fill="#eef3f8"/>
<ellipse cx="213.83776197854326" cy="425.30833502547273" rx="15.289350762229496" ry="9.79801849483969" fill="#a9a9a9"/>
<ellipse cx="225.79984660880496" cy="425.30833502547273" rx="12.231480609783599" ry="4.899009247419845" fill="#a9a9a9"/>
<ellipse cx="205.3589871380598" cy="425.30833502547273" rx="10.702545533560647" ry="3.9192073979358764" fill="#a9a9a9"/>
<ellipse cx="285.0900812284509" cy="918.4733931526885" rx="32.17597160816272" ry="12.515653779918715" fill="#a9a9a9"/>
<ellipse cx="304.62949732962153" cy="918.4733931526885" rx="25.740777286530175" ry="6.257826889959357" fill="#a9a9a9"/>
<ellipse cx="263.4534455334061" cy="918.4733931526885" rx="22.5231801257139" ry="5.0062615119674865" fill="#a9a9a9"/>
<ellipse cx="378.2174136015668" cy="1348.624832066067" rx="29.611211747178665" ry="17.208518670863572" fill="#a9a9a9"/>
<ellipse cx="397.34132292290184" cy="1348.624832066067" rx="23.688969397742934" ry="8.604259335431786" fill="#a9a9a9"/>
<ellipse cx="363.6044603417843" cy="1348.624832066067" rx="20.727848223025067" ry="6.88340746834543" fill="#a9a9a9"/>
<ellipse cx="5.31902969131201" cy="1125.6007298480722" rx="39.76539814870662" ry="27.303268275439482" fill="#a9a9a9"/>
<ellipse cx="30.00901517226568" cy="1125.6007298480722" rx="31.812318518965302" ry="13.651634137719741" fill="#a9a9a9"/>
<ellipse cx="-19.672021186553742" cy="1125.6007298480722" rx="27.835778704094636" ry="10.921307310175793" fill="#a9a9a9"/>
<ellipse cx="350.8585597718407" cy="266.6983724882353" rx="38.94491975400553" ry="23.734596629931005" fill="#a9a9a9"/>
<ellipse cx="371.81722302613406" cy="266.6983724882353" rx="31.15593580320443" ry="11.867298314965502" fill="#a9a9a9"/>
<ellipse cx="327.10488487587725" cy="266.6983724882353" rx="27.26144382780387" ry="9.493838651972402" fill="#a9a9a9"/>
<ellipse cx="17.8727817618627" cy="88.98092959494373" rx="29.37704180374272" ry="13.84760525336525" fill="#a9a9a9"/>
<ellipse cx="43.70047107048812" cy="88.98092959494373" rx="23.50163344299418" ry="6.923802626682625" fill="#a9a9a9"/>
<ellipse cx="-7.612891998009314" cy="88.98092959494373" rx="20.5639292626199" ry="5.539042101346101" fill="#a9a9a9"/>
<ellipse cx="145.7361317359545" cy="307.67147555373214" rx="19.818264022504344" ry="16.702239845804343" fill="#a9a9a9"/>
<ellipse cx="162.81804311101334" cy="307.67147555373214" rx="15.854611218003477" ry="8.351119922902171" fill="#a9a9a9"/>
<ellipse cx="127.98843371635834" cy="307.67147555373214" rx="13.87278481575304" ry="6.680895938321737" fill="#a9a9a9"/>
<ellipse cx="490.6909134288742" cy="1248.9810353373089" rx="39.960063440789185" ry="18.55675990027241" fill="#a9a9a9"/>
<ellipse cx="512.8001509669563" cy="1248.9810353373089" rx="31.968050752631346" ry="9.278379950136205" fill="#a9a9a9"/>
<ellipse cx="467.1905214204995" cy="1248.9810353373089" rx="27.972044408552428" ry="7.422703960108964" fill="#a9a9a9"/>
<ellipse cx="338.1067802096283" cy="713.6279943928253" rx="18.150027210811746" ry="8.989092382273055" fill="#a9a9a9"/>
<ellipse cx="348.39688921143227" cy="713.6279943928253" rx="14.520021768649398" ry="4.494546191136528" fill="#a9a9a9"/>
<ellipse cx="328.6659384461653" cy="713.6279943928253" rx="12.705019047568221" ry="3.5956369529092225" fill="#a9a9a9"/>
<ellipse cx="413.01323373476663" cy="152.08382613588302" rx="20.14333969524322" ry="10.669663832415766" fill="#a9a9a9"/>
<ellipse cx="428.4406587563978" cy="152.08382613588302" rx="16.11467175619458" ry="5.334831916207883" fill="#a9a9a9"/>
<ellipse cx="396.0733798920686" cy="152.08382613588302" rx="14.100337786670254" ry="4.267865532966307" fill="#a9a9a9"/>
<ellipse cx="1073.6369850736282" cy="25.931060326253558" rx="29.674529668109898" ry="17.181223130573414" fill="#a9a9a9"/>
<ellipse cx="1091.4612941156709" cy="25.931060326253558" rx="23.739623734487918" ry="8.590611565286707" fill="#a9a9a9"/>
<ellipse cx="1052.4323987760065" cy="25.931060326253558" rx="20.77217076767693" ry="6.872489252229366" fill="#a9a9a9"/>
<ellipse cx="894.0887977341604" cy="653.5422208968281" rx="22.711692507046305" ry="8.361959010236648" fill="#a9a9a9"/>
<ellipse cx="910.3575178597009" cy="653.5422208968281" rx="18.169354005637047" ry="4.180979505118324" fill="#a9a9a9"/>
<ellipse cx="879.5831752966543" cy="653.5422208968281" rx="15.898184754932414" ry="3.3447836040946592" fill="#a9a9a9"/>
<ellipse cx="729.1840554164648" cy="564.4547941928985" rx="31.24835802744842" ry="19.742377428291274" fill="#a9a9a9"/>
<ellipse cx="754.507425141647" cy="564.4547941928985" rx="24.998686421958734" ry="9.871188714145637" fill="#a9a9a9"/>
<ellipse cx="708.6288913994774" cy="564.4547941928985" rx="21.873850619213894" ry="7.89695097131651" fill="#a9a9a9"/>
<ellipse cx="781.7868037157631" cy="939.811599692242" rx="36.780520026602154" ry="25.26477640580549" fill="#a9a9a9"/>
<ellipse cx="804.979513717828" cy="939.811599692242" rx="29.424416021281726" ry="12.632388202902744" fill="#a9a9a9"/>
<ellipse cx="758.2601974974777" cy="939.811599692242" rx="25.746364018621506" ry="10.105910562322196" fill="#a9a9a9"/>
<ellipse cx="941.1640121420678" cy="1144.9902897444508" rx="32.83400368069732" ry="24.184709523807" fill="#a9a9a9"/>
<ellipse cx="960.51745167889" cy="1144.9902897444508" rx="26.26720294455786" ry="12.0923547619035" fill="#a9a9a9"/>
<ellipse cx="916.6667832817199" cy="1144.9902897444508" rx="22.983802576488127" ry="9.6738838095228" fill="#a9a9a9"/>
<ellipse cx="987.8746177851569" cy="210.8129383115158" rx="36.242432868827386" ry="26.023833695948372" fill="#a9a9a9"/>
<ellipse cx="1015.8009239300642" cy="210.8129383115158" rx="28.993946295061907" ry="13.011916847974186" fill="#a9a9a9"/>
<ellipse cx="958.1523361738494" cy="210.8129383115158" rx="25.36970300817917" ry="10.40953347837935" fill="#a9a9a9"/>
<ellipse cx="932.8765012663214" cy="1269.413352603751" rx="40.17121864242195" ry="29.62902274417963" fill="#a9a9a9"/>
<ellipse cx="955.5390236997318" cy="1269.413352603751" rx="32.13697491393756" ry="14.814511372089815" fill="#a9a9a9"/>
<ellipse cx="902.1264592508793" cy="1269.413352603751" rx="28.119853049695365" ry="11.851609097671851" fill="#a9a9a9"/>
<ellipse cx="705.9947706041833" cy="1116.746146006857" rx="25.22919676304494" ry="15.103012280826169" fill="#a9a9a9"/>
<ellipse cx="719.1161853430827" cy="1116.746146006857" rx="20.183357410435953" ry="7.5515061404130845" fill="#a9a9a9"/>
<ellipse cx="692.2643879138994" cy="1116.746146006857" rx="17.660437734131456" ry="6.041204912330468" fill="#a9a9a9"/>
<ellipse cx="628.1993687563573" cy="391.7438821828663" rx="27.23488699825428" ry="25.355820764767998" fill="#a9a9a9"/>
<ellipse cx="651.1252089617088" cy="391.7438821828663" rx="21.787909598603424" ry="12.677910382383999" fill="#a9a9a9"/>
<ellipse cx="609.1580165514371" cy="391.7438821828663" rx="19.064420898777996" ry="10.1423283059072" fill="#a9a9a9"/>
<path d="M 0,675 L 10,669.29024343295 L 20,663.8081168420493 L 30,658.7721753146267 L 40,654.3831859475478 L 50,650.8161238966211 L 60,648.213196669302 L 70,646.6781747601317 L 80,646.2722546485871 L 90,647.0116190885607 L 100,648.8667919530299 L 110,651.763813354225 L 120,655.58718819096 L 130,660.1844905738511 L 140,665.3724405645193 L 150,670.9442109683595 L 160,676.6776728821086 L 170,682.3442512722511 L 180,687.7180375402941 L 190,692.5847957856937 L 200,696.7505037151499 L 210,700.0490876991665 L 220,702.3490436035847 L 230,703.5586794444258 L 240,703.629770857942 L 250,702.5594836538186 L 260,700.3904868053972 L 270,697.2092513723591 L 280,693.1426031724505 L 290,688.3526666363514 L 300,683.0304014182371 L 310,677.3879894369749 L 320,671.6503758525968 L 330,666.0463012126255 L 340,660.7991822882764 L 350,656.118205152822 L 360,652.1899855929753 L 370,649.1711293263738 L 380,647.181988625815 L 390,646.3018642539339 L 400,646.565843992044 L 410,647.9634038010233 L 420,650.4388273815429 L 430,653.893427407098 L 440,658.1894798762908 L 450,663.155714734152 L 460,668.5941438687589 L 470,674.2879542724705 L 480,680.0101516923485 L 490,685.5326101747004 L 500,690.6351667269605 L 510,695.1143985214385 L 520,698.7917327215217 L 530,701.5205656171521" fill="none" stroke="#ff6464" stroke-width="3" opacity="0.59"/>
<path d="M 540,664.6805508597005 L 550,664.4801030270866 L 560,664.6990502893282 L 570,665.3286639100077 L 580,666.3438431809292 L 590,667.7041161081447 L 600,669.3552529026355 L 610,671.2314279508686 L 620,673.2578440742838 L 630,675.3537144567664 L 640,677.4354833600681 L 650,679.4201572274162 L 660,681.22861337472 L 670,682.7887543622998 L 680,684.0383822922903 L 690,684.927678442552 L 700,685.42118938191 L 710,685.4992403865762 L 720,685.1587198092984 L 730,684.4132031309181 L 740,683.2924117487884 L 750,681.8410280784528 L 760,680.116914206742 L 770,678.1888051129648 L 780,676.1335684221901 L 790,674.0331399356048 L 800,671.9712571086835 L 810,670.0301207030882 L 820,668.2871177016996 L 830,666.8117361338192 L 840,665.6627948067226 L 850,664.8860983854271 L 860,664.5126113052424 L 870,664.5572233174489 L 880,665.0181558819013 L 890,665.8770330718116 L 900,667.099614163962 L 910,668.6371587082859 L 920,670.4283696558036 L 930,672.4018370785308 L 940,674.4788850579596 L 950,676.5767082456542 L 960,678.6116730511853 L 970,680.502651849459 L 980,682.1742572831167 L 990,683.5598477185747 L 1000,684.6041840376546 L 1010,685.2656318469086 L 1020,685.5178213095008 L 1030,685.3506984273879 L 1040,684.7709258624926 L 1050,683.8016173173993 L 1060,682.481416064971 L 1070,680.8629543630058" fill="none" stroke="#ff6464" stroke-width="3" opacity="0.59"/>
<ellipse cx="138.3788270402601" cy="182.60098108211577" rx="1.5" ry="1.5" fill="#6496ff" opacity="0.5313725490196078"/>
<ellipse cx="272.89879751992356" cy="662.9348877179133" rx="1.5" ry="1.5" fill="#6496ff" opacity="0.5313725490196078"/>
<ellipse cx="459.37189600401183" cy="922.3246697906054" rx="1.5" ry="1.5" fill="#6496ff" opacity="0.5313725490196078"/>
<ellipse cx="111.83279519520364" cy="78.51548645576251" rx="1.5" ry="1.5" fill="#6496ff" opacity="0.5313725490196078"/>
<ellipse cx="452.8745665274908" cy="207.84952650212196" rx="1.5" ry="1.5" fill="#6496ff" opacity="0.5313725490196078"/>
<ellipse cx="361.7297621265658" cy="577.5300803489657" rx="1.5" ry="1.5" fill="#6496ff" opacity="0.5313725490196078"/>
<ellipse cx="145.75769669644427" cy="314.28950443597955" rx="1.5" ry="1.5" fill="#6496ff" opacity="0.5313725490196078"/>
<ellipse cx="10.841655140203263" cy="156.69719379241448" rx="1.5" ry="1.5" fill="#6496ff" opacity="0.5313725490196078"/>
<ellipse cx="207.25416461343605" cy="435.4219796300968" rx="1.5" ry="1.5" fill="#6496ff" opacity="0.5313725490196078"/>
<ellipse cx="202.46047506223454" cy="842.7100543131633" rx="1.5" ry="1.5" fill="#6496ff" opacity="0.5313725490196078"/>
<ellipse cx="406.5291168198591" cy="95.50670389808096" rx="1.5" ry="1.5" fill="#6496ff" opacity="0.5313725490196078"/>
<ellipse cx="380.86541372391645" cy="54.659932877244394" rx="1.5" ry="1.5" fill="#6496ff" opacity="0.5313725490196078"/>
<ellipse cx="137.05435222808939" cy="1267.180252665272" rx="1.5" ry="1.5" fill="#6496ff" opacity="0.5313725490196078"/>
<ellipse cx="171.1714554630087" cy="460.78205130099417" rx="1.5" ry="1.5" fill="#6496ff" opacity="0.5313725490196078"/>
<ellipse cx="98.49895481881637" cy="1221.29520681747" rx="1.5" ry="1.5" fill="#6496ff" opacity="0.5313725490196078"/>
<ellipse cx="436.3735415583354" cy="300.07594241764207" rx="1.5" ry="1.5" fill="#6496ff" opacity="0.5313725490196078"/>
<ellipse cx="344.56785158466914" cy="1258.8043576380257" rx="1.5" ry="1.5" fill="#6496ff" opacity="0.5313725490196078"/>
<ellipse cx="51.65870192072294" cy="499.71521371030957" rx="1.5" ry="1.5" fill="#6496ff" opacity="0.5313725490196078"/>
<ellipse cx="92.3925948573242" cy="1156.7292323134511" rx="1.5" ry="1.5" fill="#6496ff" opacity="0.5313725490196078"/>
<ellipse cx="480.2582361550341" cy="267.76471150469257" rx="1.5" ry="1.5" fill="#6496ff" opacity="0.5313725490196078"/>
<ellipse cx="152.34725661219434" cy="1318.001944440418" rx="1.5" ry="1.5" fill="#6496ff" opacity="0.5313725490196078"/>
<ellipse cx="280.9511376735527" cy="46.228837988445925" rx="1.5" ry="1.5" fill="#6496ff" opacity="0.5313725490196078"/>
<ellipse cx="342.05505088998706" cy="326.4617981046726" rx="1.5" ry="1.5" fill="#6496ff" opacity="0.5313725490196078"/>
<ellipse cx="260.34760427677423" cy="462.16832420889676" rx="1.5" ry="1.5" fill="#6496ff" opacity="0.5313725490196078"/>
<ellipse cx="313.25441851897835" cy="795.839417351335" rx="1.5" ry="1.5" fill="#6496ff" opacity="0.5313725490196078"/>
<ellipse cx="344.0679790191669" cy="1317.9741031108304" rx="1.5" ry="1.5" fill="#6496ff" opacity="0.5313725490196078"/>
<ellipse cx="268.30042374706846" cy="967.4578790401378" rx="1.5" ry="1.5" fill="#6496ff" opacity="0.5313725490196078"/>
<ellipse cx="227.60946761239762" cy="799.1430405523363" rx="1.5" ry="1.5" fill="#6496ff" opacity="0.5313725490196078"/>
<ellipse cx="9.805169110095672" cy="619.3955895581262" rx="1.5" ry="1.5" fill="#6496ff" opacity="0.5313725490196078"/>
<ellipse cx="197.95101651826454" cy="373.587191278854" rx="1.5" ry="1.5" fill="#6496ff" opacity="0.5313725490196078"/>
<ellipse cx="48.39241506922637" cy="665.987496388139" rx="1.5" ry="1.5" fill="#6496ff" opacity="0.5313725490196078"/>
<ellipse cx="140.5897021948312" cy="1174.4131034120978" rx="1.5" ry="1.5" fill="#6496ff" opacity="0.5313725490196078"/>
<ellipse cx="435.81208010940446" cy="679.8596802539471" rx="1.5" ry="1.5" fill="#6496ff" opacity="0.5313725490196078"/>
<ellipse cx="408.6832310672306" cy="321.3547648495784" rx="1.5" ry="1.5" fill="#6496ff" opacity="0.5313725490196078"/>
<ellipse cx="539.9099584947852" cy="622.1883776701002" rx="1.5" ry="1.5" fill="#6496ff" opacity="0.5313725490196078"/>
<ellipse cx="320.424156338174" cy="1.9672393807988797" rx="1.5" ry="1.5" fill="#6496ff" opacity="0.5313725490196078"/>
<ellipse cx="138.50911626522853" cy="347.4634142347907" rx="1.5" ry="1.5" fill="#6496ff" opacity="0.5313725490196078"/>
<ellipse cx="123.7200773338415" cy="1117.2520776825268" rx="1.5" ry="1.5" fill="#6496ff" opacity="0.5313725490196078"/>
<ellipse cx="262.59375584432564" cy="102.71680359855145" rx="1.5" ry="1.5" fill="#6496ff" opacity="0.5313725490196078"/>
<ellipse cx="14.359061128627072" cy="929.8784359031722" rx="1.5" ry="1.5" fill="#6496ff" opacity="0.5313725490196078"/>
<ellipse cx="475.23289225773556" cy="19.12876368459722" rx="1.5" ry="1.5" fill="#6496ff" opacity="0.5313725490196078"/>
<ellipse cx="73.65343074950083" cy="1301.9529467923348" rx="1.5" ry="1.5" fill="#6496ff" opacity="0.5313725490196078"/>
<ellipse cx="395.59832114521333" cy="142.1700597471418" rx="1.5" ry="1.5" fill="#6496ff" opacity="0.5313725490196078"/>
<ellipse cx="196.19339177207712" cy="1269.827432031663" rx="1.5" ry="1.5" fill="#6496ff" opacity="0.5313725490196078"/>
<ellipse cx="125.45200115323625" cy="159.7289667277266" rx="1.5" ry="1.5" fill="#6496ff" opacity="0.5313725490196078"/>
<ellipse cx="148.02913076618182" cy="1271.29087209296" rx="1.5" ry="1.5" fill="#6496ff" opacity="0.5313725490196078"/>
<ellipse cx="272.2651578263683" cy="209.56056127769898" rx="1.5" ry="1.5" fill="#6496ff" opacity="0.5313725490196078"/>
<ellipse cx="265.20783138703916" cy="881.773692780069" rx="1.5" ry="1.5" fill="#6496ff" opacity="0.5313725490196078"/>
<ellipse cx="167.8592706508279" cy="1128.7896936427755" rx="1.5" ry="1.5" fill="#6496ff" opacity="0.5313725490196078"/>
<ellipse cx="281.45807517760346" cy="705.5332485146511" rx="1.5" ry="1.5" fill="#6496ff" opacity="0.5313725490196078"/>
<ellipse cx="291.1001230641735" cy="182.77156957554237" rx="1.5" ry="1.5" fill="#6496ff" opacity="0.5313725490196078"/>
<ellipse cx="394.1108699488039" cy="65.5024409599148" rx="1.5" ry="1.5" fill="#6496ff" opacity="0.5313725490196078"/>
<ellipse cx="60.1307219546897" cy="497.40088307177695" rx="1.5" ry="1.5" fill="#6496ff" opacity="0.5313725490196078"/>
<ellipse cx="16.23175264160696" cy="461.8612196584517" rx="1.5" ry="1.5" fill="#6496ff" opacity="0.5313725490196078"/>
<ellipse cx="312.02756538615915" cy="1158.8105326326613" rx="1.5" ry="1.5" fill="#6496ff" opacity="0.5313725490196078"/>
<ellipse cx="372.4992229288906" cy="53.18337681385846" rx="1.5" ry="1.5" fill="#6496ff" opacity="0.5313725490196078"/>
<ellipse cx="386.940424026428" cy="802.7394000453593" rx="1.5" ry="1.5" fill="#6496ff" opacity="0.5313725490196078"/>
<ellipse cx="819.8864723555216" cy="924.4211380018021" rx="1.5" ry="1.5" fill="#ff9664" opacity="0.4666666666666667"/>
<ellipse cx="824.0871979128976" cy="1000.5885784516989" rx="1.5" ry="1.5" fill="#ff9664" opacity="0.4666666666666667"/>
<ellipse cx="892.0676781386453" cy="142.09072000444434" rx="1.5" ry="1.5" fill="#ff9664" opacity="0.4666666666666667"/>
<ellipse cx="849.9692864669344" cy="896.887994230207" rx="1.5" ry="1.5" fill="#ff9664" opacity="0.4666666666666667"/>
<ellipse cx="1051.8538000582967" cy="131.23018747718547" rx="1.5" ry="1.5" fill="#ff9664" opacity="0.4666666666666667"/>
<ellipse cx="647.1422070763736" cy="1291.6792547757175" rx="1.5" ry="1.5" fill="#ff9664" opacity="0.4666666666666667"/>
<ellipse cx="952.6012947096496" cy="617.045295525829" rx="1.5" ry="1.5" fill="#ff9664" opacity="0.4666666666666667"/>
<ellipse cx="580.485091228264" cy="762.0107937427288" rx="1.5" ry="1.5" fill="#ff9664" opacity="0.4666666666666667"/>
<ellipse cx="603.2357383068818" cy="594.9575054435793" rx="1.5" ry="1.5" fill="#ff9664" opacity="0.4666666666666667"/>
<ellipse cx="771.3761902932898" cy="649.4336131259024" rx="1.5" ry="1.5" fill="#ff9664" opacity="0.4666666666666667"/>
<ellipse cx="826.4609528921828" cy="16.379070289609523" rx="1.5" ry="1.5" fill="#ff9664" opacity="0.4666666666666667"/>
<ellipse cx="722.0407246155854" cy="1326.5102869488812" rx="1.5" ry="1.5" fill="#ff9664" opacity="0.4666666666666667"/>
<ellipse cx="966.3105585176081" cy="1273.9561563702096" rx="1.5" ry="1.5" fill="#ff9664" opacity="0.4666666666666667"/>
<ellipse cx="924.5989038350987" cy="836.7294792256921" rx="1.5" ry="1.5" fill="#ff9664" opacity="0.4666666666666667"/>
<ellipse cx="994.6017267436728" cy="1078.4166817918497" rx="1.5" ry="1.5" fill="#ff9664" opacity="0.4666666666666667"/>
<ellipse cx="906.1871911800406" cy="106.84247021881978" rx="1.5" ry="1.5" fill="#ff9664" opacity="0.4666666666666667"/>
<ellipse cx="578.0125397620781" cy="72.72919717837553" rx="1.5" ry="1.5" fill="#ff9664" opacity="0.4666666666666667"/>
<ellipse cx="962.2332843124091" cy="670.4879346631877" rx="1.5" ry="1.5" fill="#ff9664" opacity="0.4666666666666667"/>
<ellipse cx="897.9437758205197" cy="567.1859803456748" rx="1.5" ry="1.5" fill="#ff9664" opacity="0.4666666666666667"/>
<ellipse cx="808.109429007447" cy="50.48566462960358" rx="1.5" ry="1.5" fill="#ff9664" opacity="0.4666666666666667"/>
<ellipse cx="718.7159247038494" cy="1257.843268503362" rx="1.5" ry="1.5" fill="#ff9664" opacity="0.4666666666666667"/>
<ellipse cx="1007.0940830498441" cy="1236.9477873840126" rx="1.5" ry="1.5" fill="#ff9664" opacity="0.4666666666666667"/>
<ellipse cx="1004.6643879193182" cy="446.9750048811431" rx="1.5" ry="1.5" fill="#ff9664" opacity="0.4666666666666667"/>
<ellipse cx="676.2456179299604" cy="800.36999024468" rx="1.5" ry="1.5" fill="#ff9664" opacity="0.4666666666666667"/>
<ellipse cx="885.6927539527849" cy="688.2399204597995" rx="1.5" ry="1.5" fill="#ff9664" opacity="0.4666666666666667"/>
<ellipse cx="976.5287449008454" cy="686.2134579039241" rx="1.5" ry="1.5" fill="#ff9664" opacity="0.4666666666666667"/>
<ellipse cx="767.4132586584489" cy="569.6751239568345" rx="1.5" ry="1.5" fill="#ff9664" opacity="0.4666666666666667"/>
<ellipse cx="556.3614320831193" cy="463.3747097399899" rx="1.5" ry="1.5" fill="#ff9664" opacity="0.4666666666666667"/>
<ellipse cx="902.9699565670313" cy="1005.481732359846" rx="1.5" ry="1.5" fill="#ff9664" opacity="0.4666666666666667"/>
<ellipse cx="624.5705652630751" cy="956.5402556939704" rx="1.5" ry="1.5" fill="#ff9664" opacity="0.4666666666666667"/>
<ellipse cx="1049.1880490766782" cy="465.6803550504522" rx="1.5" ry="1.5" fill="#ff9664" opacity="0.4666666666666667"/>
<ellipse cx="682.359187669288" cy="214.31273827995767" rx="1.5" ry="1.5" fill="#ff9664" opacity="0.4666666666666667"/>
<ellipse cx="991.8033834415504" cy="595.4220774562201" rx="1.5" ry="1.5" fill="#ff9664" opacity="0.4666666666666667"/>
<ellipse cx="690.6204987273647" cy="694.3865779295501" rx="1.5" ry="1.5" fill="#ff9664" opacity="0.4666666666666667"/>
<ellipse cx="844.7305299270574" cy="1037.1239666999895" rx="1.5" ry="1.5" fill="#ff9664" opacity="0.4666666666666667"/>
<ellipse cx="650.1509857690664" cy="1178.3584048870757" rx="1.5" ry="1.5" fill="#ff9664" opacity="0.4666666666666667"/>
<ellipse cx="544.5047593137737" cy="338.7332614225956" rx="1.5" ry="1.5" fill="#ff9664" opacity="0.4666666666666667"/>
<ellipse cx="577.7397751983906" cy="1237.2672787109705" rx="1.5" ry="1.5" fill="#ff9664" opacity="0.4666666666666667"/>
<ellipse cx="564.5759439582824" cy="514.0118169197867" rx="1.5" ry="1.5" fill="#ff9664" opacity="0.4666666666666667"/>
<ellipse cx="1066.803596265057" cy="721.5320352099519" rx="1.5" ry="1.5" fill="#ff9664" opacity="0.4666666666666667"/>
<ellipse cx="1055.7187559621962" cy="229.2793036574867" rx="1.5" ry="1.5" fill="#ff9664" opacity="0.4666666666666667"/>
<ellipse cx="672.4840611836333" cy="718.9408603678182" rx="1.5" ry="1.5" fill="#ff9664" opacity="0.4666666666666667"/>
<ellipse cx="639.9493432510408" cy="634.7603070711532" rx="1.5" ry="1.5" fill="#ff9664" opacity="0.4666666666666667"/>
<ellipse cx="959.0903522535648" cy="1222.1909171073655" rx="1.5" ry="1.5" fill="#ff9664" opacity="0.4666666666666667"/>
<ellipse cx="620.1906252280766" cy="660.1501512621297" rx="1.5" ry="1.5" fill="#ff9664" opacity="0.4666666666666667"/>
<ellipse cx="647.0384860537195" cy="267.49776465236107" rx="1.5" ry="1.5" fill="#ff9664" opacity="0.4666666666666667"/>
<line x1="503.941101070466" y1="1085.9769707014677" x2="512.841101070466" y2="1085.9769707014677" stroke="#c8c8c8" stroke-width="1" opacity="0.39"/>
<line x1="111.98033814876356" y1="1324.6901801436627" x2="120.88033814876357" y2="1324.6901801436627" stroke="#c8c8c8" stroke-width="1" opacity="0.39"/>
<line x1="243.85000717074146" y1="552.4244430253397" x2="252.75000717074147" y2="552.4244430253397" stroke="#c8c8c8" stroke-width="1" opacity="0.39"/>
<line x1="462.09307215273986" y1="479.95845101771806" x2="470.99307215273984" y2="479.95845101771806" stroke="#c8c8c8" stroke-width="1" opacity="0.39"/>
<line x1="487.20472835339825" y1="1009.261715882114" x2="496.10472835339823" y2="1009.261715882114" stroke="#c8c8c8" stroke-width="1" opacity="0.39"/>
<line x1="740.8622218113683" y1="525.5087974134408" x2="766.5622218113683" y2="525.5087974134408" stroke="#c8c8c8" stroke-width="1" opacity="0.39"/>
<line x1="982.9263927614904" y1="1343.903554111674" x2="1008.6263927614905" y2="1343.903554111674" stroke="#c8c8c8" stroke-width="1" opacity="0.39"/>
<line x1="872.5354243873318" y1="607.7260139434254" x2="898.2354243873318" y2="607.7260139434254" stroke="#c8c8c8" stroke-width="1" opacity="0.39"/>
<line x1="562.948594104009" y1="1183.2542946484193" x2="588.648594104009" y2="1183.2542946484193" stroke="#c8c8c8" stroke-width="1" opacity="0.39"/>
<line x1="999.2912366144784" y1="607.422012373536" x2="1024.9912366144783" y2="607.422012373536" stroke="#c8c8c8" stroke-width="1" opacity="0.39"/>
<line x1="796.2602878810187" y1="282.7824534302496" x2="821.9602878810188" y2="282.7824534302496" stroke="#c8c8c8" stroke-width="1" opacity="0.39"/>
<line x1="733.3915562338157" y1="47.29099275883799" x2="759.0915562338157" y2="47.29099275883799" stroke="#c8c8c8" stroke-width="1" opacity="0.39"/>
<line x1="974.5075770255679" y1="631.1276975232771" x2="1000.207577025568" y2="631.1276975232771" stroke="#c8c8c8" stroke-width="1" opacity="0.39"/>
<line x1="973.7514998548438" y1="571.3728013315111" x2="999.4514998548439" y2="571.3728013315111" stroke="#c8c8c8" stroke-width="1" opacity="0.39"/>
<line x1="681.631386346012" y1="176.33233674631097" x2="707.3313863460121" y2="176.33233674631097" stroke="#c8c8c8" stroke-width="1" opacity="0.39"/>
<line x1="758.1698889556201" y1="425.94305296705244" x2="783.8698889556201" y2="425.94305296705244" stroke="#c8c8c8" stroke-width="1" opacity="0.39"/>
<line x1="792.846264956913" y1="1028.3431653996665" x2="818.5462649569131" y2="1028.3431653996665" stroke="#c8c8c8" stroke-width="1" opacity="0.39"/>
<line x1="552.6669359266139" y1="989.8764609312063" x2="578.3669359266139" y2="989.8764609312063" stroke="#c8c8c8" stroke-width="1" opacity="0.39"/>
<ellipse cx="384.5559026601519" cy="478.26286576607396" rx="34.32214976489644" ry="29.5091731202963" fill="#c6ca90" opacity="0.21070767388282902"/>
<ellipse cx="695.8607200048216" cy="105.53151374009043" rx="31.90879196948781" ry="17.71354686176769" fill="#67b8c8" opacity="0.29153856117267807"/>
<rect x="600.0214376906033" y="1092.351513422258" width="77.50123980338742" height="96.86110239443904" fill="#b4a2f2" opacity="0.3133703868505809"/>
<rect x="373.671845674362" y="120.4240218412243" width="58.983442205462346" height="58.13179513940651" fill="#9ce865" opacity="0.17082438284414403"/>
<ellipse cx="611.6902974116106" cy="472.47074268407687" rx="12.790509463655999" ry="12.195366954646584" fill="#dfa9f5" opacity="0.26815293005864665"/>
<line x1="322.8535939766344" y1="262.94928801383327" x2="80.03860834987769" y2="1276.939443348413" stroke="#b3b2b1" stroke-width="1.538662970316905" opacity="0.18492332160610822"/>
<line x1="747.8454068805303" y1="14.510160691342392" x2="738.2780598561643" y2="751.1640611808581" stroke="#a0d098" stroke-width="2.232532993532965" opacity="0.16362783634510164"/>
<line x1="915.7160715552588" y1="727.7390423825659" x2="741.5288690205333" y2="1088.4094660582066" stroke="#c0a3bb" stroke-width="1.4903640749353748" opacity="0.2615537456925158"/>
<line x1="21.351242075372134" y1="898.616444924202" x2="935.8404926843199" y2="305.71131720473585" stroke="#bdb99b" stroke-width="1.37539148348169" opacity="0.29322053644508717"/>
<line x1="363.05380242087585" y1="1125.1252596849229" x2="734.9937203968847" y2="1274.4358962748368" stroke="#9fca99" stroke-width="1.9866228108232016" opacity="0.27993778773270134"/>
<line x1="162.63456352177755" y1="1058.295648292776" x2="691.53910192267" y2="1062.4050204932714" stroke="#b8c2fc" stroke-width="2.403821707425556" opacity="0.303287964309362"/>
<line x1="369.7208835416105" y1="1091.3207357243266" x2="716.5019277094407" y2="713.8463798509196" stroke="#cfddcd" stroke-width="1.2423388959105774" opacity="0.3558559512148726"/>
<line x1="1063.407115239374" y1="852.100146213593" x2="500.4582312053341" y2="954.574263540364" stroke="#aac8a9" stroke-width="1.9630823139860678" opacity="0.3512641285885278"/>
<line x1="636.4549830539409" y1="1036.4937548695568" x2="290.5916406077294" y2="313.5899306803895" stroke="#bbfbd2" stroke-width="2.388922513178048" opacity="0.21135432114988156"/>
<line x1="379.0708066798145" y1="438.54793330586887" x2="392.73848551918684" y2="883.5328463853956" stroke="#bcf4b3" stroke-width="2.5706200606984178" opacity="0.22769230490598158"/>
<line x1="149.28591735162115" y1="730.7718563502523" x2="579.1548874690919" y2="1001.001853216906" stroke="#a8b99d" stroke-width="1.1133506298593017" opacity="0.2840149146092431"/>
<line x1="11.8023097570065" y1="1171.262924359768" x2="585.9387734280615" y2="1066.7247717579478" stroke="#e8ebc4" stroke-width="1.1584570408605304" opacity="0.37518361980656456"/>
<line x1="100.31546478174415" y1="1305.4661846279475" x2="38.47987176779652" y2="577.0516681378016" stroke="#a9fabf" stroke-width="2.9789543161070693" opacity="0.2834927428592118"/>
<line x1="1061.5306096251732" y1="212.55712519053236" x2="937.5265829160468" y2="448.5735478105832" stroke="#a4f0f7" stroke-width="1.9712300901167235" opacity="0.17268145318861425"/>
<ellipse cx="758.5202876285279" cy="1262.618780724061" rx="3.563347817660937" ry="3.563347817660937" fill="#fad7dc" opacity="0.23496066830014148"/>
<ellipse cx="482.2445299486837" cy="960.5368141832467" rx="2.7585935600840457" ry="2.7585935600840457" fill="#e2d9f3" opacity="0.1250923007359592"/>
<ellipse cx="591.8722918405534" cy="1243.754912001898" rx="3.441365243141244" ry="3.441365243141244" fill="#cbe3d4" opacity="0.12095476133793348"/>
<ellipse cx="616.2328436860037" cy="250.69137823334495" rx="2.2038749163988394" ry="2.2038749163988394" fill="#facacf" opacity="0.08516364939386048"/>
<ellipse cx="613.9227214334172" cy="1047.7468018642378" rx="1.9306421284240867" ry="1.9306421284240867" fill="#d8d2fa" opacity="0.15018214434804658"/>
<ellipse cx="361.4662029042217" cy="1239.1668861914272" rx="3.165919900949076" ry="3.165919900949076" fill="#c9e3d3" opacity="0.19177409252134026"/>
<ellipse cx="322.6465703559325" cy="1311.1827498819598" rx="2.1155607705542634" ry="2.1155607705542634" fill="#e3e1f5" opacity="0.12536153608525352"/>
<ellipse cx="987.0636467761657" cy="319.4790960845906" rx="1.831120819240399" ry="1.831120819240399" fill="#edebe2" opacity="0.19732196663801632"/>
<ellipse cx="697.1835854915826" cy="1094.338220867486" rx="2.3358091122171887" ry="2.3358091122171887" fill="#dbccd8" opacity="0.19292382638316305"/>
<ellipse cx="190.99370965314736" cy="304.01641591639094" rx="2.083961308507231" ry="2.083961308507231" fill="#e1dcdd" opacity="0.21357262374588715"/>
<ellipse cx="754.4334701236493" cy="840.0359992124307" rx="1.3290412427527092" ry="1.3290412427527092" fill="#d0dbcb" opacity="0.22644839106701814"/>
<ellipse cx="982.5226454541659" cy="1339.4059723892278" rx="1.6384372714154596" ry="1.6384372714154596" fill="#f9d7fa" opacity="0.11699248296999953"/>
</svg>