<svg xmlns="http://www.w3.org/2000/svg" width="1080" height="1350" viewBox="0 0 1080 1350">
<rect x="0" y="0" width="1080" height="1350" fill="#e5eaef"/>
<ellipse cx="93.67883209776079" cy="1063.848142821271" rx="30.14778607327094" ry="13.975282617512702" fill="#a9a9a9"/>
<ellipse cx="110.57132670953682" cy="1063.848142821271" rx="24.118228858616753" ry="6.987641308756351" fill="#a9a9a9"/>
<ellipse cx="79.58480775568606" cy="1063.848142821271" rx="21.103450251289654" ry="5.590113047005081" fill="#a9a9a9"/>
<ellipse cx="303.8875813707186" cy="1331.5300947667706" rx="25.43382491736012" ry="14.148282945261046" fill="#a9a9a9"/>
<ellipse cx="323.7708418844851" cy="1331.5300947667706" rx="20.347059933888097" ry="7.074141472630523" fill="#a9a9a9"/>
<ellipse cx="286.9985467228365" cy="1331.5300947667706" rx="17.803677442152086" ry="5.659313178104419" fill="#a9a9a9"/>
<ellipse cx="426.80339833107" cy="192.06848153475136" rx="19.774324791195244" ry="16.80426785270469" fill="#a9a9a9"/>
<ellipse cx="440.8711855403192" cy="192.06848153475136" rx="15.819459832956198" ry="8.402133926352345" fill="#a9a9a9"/>
<ellipse cx="413.4981626400478" cy="192.06848153475136" rx="13.84202735383667" ry="6.721707141081877" fill="#a9a9a9"/>
<ellipse cx="145.18009371365423" cy="722.3658267047098" rx="35.77730363360241" ry="21.212490811819624" fill="#a9a9a9"/>
<ellipse cx="167.39087567118762" cy="722.3658267047098" rx="28.621842906881923" ry="10.606245405909812" fill="#a9a9a9"/>
<ellipse cx="120.33494907287194" cy="722.3658267047098" rx="25.04411254352168" ry="8.48499632472785" fill="#a9a9a9"/>
<ellipse cx="159.53854329862563" cy="682.8697625002218" rx="19.482205383346933" ry="9.935628772145224" fill="#a9a9a9"/>
<ellipse cx="173.65304758605504" cy="682.8697625002218" rx="15.585764306677548" ry="4.967814386072612" fill="#a9a9a9"/>
<ellipse cx="147.0634069392165" cy="682.8697625002218" rx="13.637543768342852" ry="3.974251508858089" fill="#a9a9a9"/>
<ellipse cx="425.69392939363325" cy="677.7051153954609" rx="17.618833682957064" ry="9.325807880073587" fill="#a9a9a9"/>
<ellipse cx="435.70607997449133" cy="677.7051153954609" rx="14.095066946365653" ry="4.662903940036793" fill="#a9a9a9"/>
<ellipse cx="413.86985540048255" cy="677.7051153954609" rx="12.333183578069944" ry="3.7303231520294355" fill="#a9a9a9"/>
<ellipse cx="147.2252083510278" cy="1220.0244432408476" rx="33.32386031404764" ry="19.615560201830085" fill="#a9a9a9"/>
<ellipse cx="171.5755771953858" cy="1220.0244432408476" rx="26.659088251238114" ry="9.807780100915043" fill="#a9a9a9"/>
<ellipse cx="125.11457992413278" cy="1220.0244432408476" rx="23.326702219833347" ry="7.846224080732035" fill="#a9a9a9"/>
<ellipse cx="435.410537326434" cy="74.05632737747223" rx="33.060371765646735" ry="22.698563452793127" fill="#a9a9a9"/>
<ellipse cx="457.3092468275643" cy="74.05632737747223" rx="26.44829741251739" ry="11.349281726396564" fill="#a9a9a9"/>
<ellipse cx="409.5599145573475" cy="74.05632737747223" rx="23.142260235952712" ry="9.079425381117252" fill="#a9a9a9"/>
<ellipse cx="444.62320110044595" cy="216.4248169476282" rx="22.08290752515874" ry="11.901025974732411" fill="#a9a9a9"/>
<ellipse cx="460.8933016764485" cy="216.4248169476282" rx="17.66632602012699" ry="5.9505129873662055" fill="#a9a9a9"/>
<ellipse cx="431.90159249190015" cy="216.4248169476282" rx="15.458035267611116" ry="4.760410389892964" fill="#a9a9a9"/>
<ellipse cx="1013.79906177232" cy="522.4662067938905" rx="25.036041927111874" ry="15.420627359260592" fill="#a9a9a9"/>
<ellipse cx="1030.0367549233995" cy="522.4662067938905" rx="20.0288335416895" ry="7.710313679630296" fill="#a9a9a9"/>
<ellipse cx="1001.7793080676762" cy="522.4662067938905" rx="17.52522934897831" ry="6.168250943704238" fill="#a9a9a9"/>
<ellipse cx="773.1783933533255" cy="925.4559342402295" rx="16.016184492451334" ry="15.768581434203202" fill="#a9a9a9"/>
<ellipse cx="784.9842489506274" cy="925.4559342402295" rx="12.812947593961068" ry="7.884290717101601" fill="#a9a9a9"/>
<ellipse cx="759.1416264741289" cy="925.4559342402295" rx="11.211329144715933" ry="6.3074325736812815" fill="#a9a9a9"/>
<ellipse cx="679.1029430083479" cy="1306.5026706580552" rx="14.761026905136625" ry="7.6639182256558795" fill="#a9a9a9"/>
<ellipse cx="687.2124379034937" cy="1306.5026706580552" rx="11.808821524109302" ry="3.8319591128279398" fill="#a9a9a9"/>
<ellipse cx="669.7431208681003" cy="1306.5026706580552" rx="10.332718833595637" ry="3.0655672902623525" fill="#a9a9a9"/>
<ellipse cx="884.6193982775413" cy="12.27271557425741" rx="13.493615095030396" ry="12.307506615782604" fill="#a9a9a9"/>
<ellipse cx="896.9616653405996" cy="12.27271557425741" rx="10.794892076024317" ry="6.153753307891302" fill="#a9a9a9"/>
<ellipse cx="873.4828136951218" cy="12.27271557425741" rx="9.445530566521276" ry="4.923002646313042" fill="#a9a9a9"/>
<ellipse cx="766.6238523584901" cy="1004.4306819347809" rx="31.665512453625837" ry="22.453200918273698" fill="#a9a9a9"/>
<ellipse cx="789.7066482202557" cy="1004.4306819347809" rx="25.33240996290067" ry="11.226600459136849" fill="#a9a9a9"/>
<ellipse cx="740.9824952382221" cy="1004.4306819347809" rx="22.165858717538086" ry="8.981280367309479" fill="#a9a9a9"/>
<ellipse cx="879.9470760021112" cy="17.04951525528427" rx="24.77763152563037" ry="12.799651211533426" fill="#a9a9a9"/>
<ellipse cx="896.9107834852845" cy="17.04951525528427" rx="19.822105220504294" ry="6.399825605766713" fill="#a9a9a9"/>
<ellipse cx="863.87296288678" cy="17.04951525528427" rx="17.344342067941255" ry="5.119860484613371" fill="#a9a9a9"/>
<ellipse cx="907.1871455233484" cy="710.9180513354569" rx="12.48851417788538" ry="5.200544564954726" fill="#a9a9a9"/>
<ellipse cx="916.0211054041579" cy="710.9180513354569" rx="9.990811342308305" ry="2.600272282477363" fill="#a9a9a9"/>
<ellipse cx="898.710245637135" cy="710.9180513354569" rx="8.741959924519765" ry="2.080217825981891" fill="#a9a9a9"/>
<ellipse cx="1056.2314870377218" cy="124.69004994476683" rx="26.986206675136348" ry="14.183434001302716" fill="#a9a9a9"/>
<ellipse cx="1072.7918222620513" cy="124.69004994476683" rx="21.58896534010908" ry="7.091717000651358" fill="#a9a9a9"/>
<ellipse cx="1042.2460745695714" cy="124.69004994476683" rx="18.890344672595443" ry="5.673373600521087" fill="#a9a9a9"/>
<ellipse cx="897.8243799683751" cy="559.7611966355523" rx="26.340690612006284" ry="18.631648085807793" fill="#a9a9a9"/>
<ellipse cx="913.8313266663865" cy="559.7611966355523" rx="21.07255248960503" ry="9.315824042903897" fill="#a9a9a9"/>
<ellipse cx="883.258592682398" cy="559.7611966355523" rx="18.4384834284044" ry="7.452659234323117" fill="#a9a9a9"/>
<ellipse cx="1013.2397105513326" cy="24.012261640286194" rx="29.085666894624733" ry="15.796439440177425" fill="#a9a9a9"/>
<ellipse cx="1031.393697694696" cy="24.012261640286194" rx="23.268533515699787" ry="7.898219720088712" fill="#a9a9a9"/>
<ellipse cx="991.9259036410417" cy="24.012261640286194" rx="20.35996682623731" ry="6.31857577607097" fill="#a9a9a9"/>
<path d="M 0,675 L 10,670.1961755813754 L 20,665.5838644829769 L 30,661.346944993308 L 40,657.6543297220495 L 50,654.6532315873451 L 60,652.4632949013125 L 70,651.171825528879 L 80,650.8303102784564 L 90,651.4523642853652 L 100,653.013188219355 L 110,655.4505569556424 L 120,658.6673002942732 L 130,662.5351768293569 L 140,666.8999865292302 L 150,671.5877182051124 L 160,676.4114867880788 L 170,681.1789838470088 L 180,685.7001443188695 L 190,689.7947238029949 L 200,693.2994843365457 L 210,696.0747021769606 L 220,698.0097381466485 L 230,699.0274484678572 L 240,699.0872602416506 L 250,698.1867889613546 L 260,696.3619335753133 L 270,693.6854453091038 L 280,690.2640273037528 L 290,686.2340806982246 L 300,681.75626674645 L 310,677.009101760127 L 320,672.181840226715 L 330,667.4669298302465 L 340,663.0523391694685 L 350,659.1140640429796 L 360,655.8091110521275 L 370,653.2692382432749 L 380,651.5957023302786 L 390,650.855221908842 L 400,651.0773175966466 L 410,652.2531351394831 L 420,654.3357984024253 L 430,657.242278173404 L 440,660.8567022758772 L 450,665.0349750268543 L 460,669.610521877056 L 470,674.4009302125378 L 480,679.2152215699716 L 490,683.8614653453117 L 500,688.154430461305 L 510,691.9229699460119 L 520,695.0168440224911 L 530,697.3127096945976" fill="none" stroke="#ff6464" stroke-width="3" opacity="0.59"/>
<path d="M 540,666.6816607690362 L 550,666.52008304845 L 560,666.6965728567968 L 570,667.2040941023636 L 580,668.0224135146653 L 590,669.11890728109 L 600,670.4498616553564 L 610,671.9622156866317 L 620,673.5956765921983 L 630,675.2851234404352 L 640,676.963203316861 L 650,678.5630164722899 L 660,680.0207834047172 L 670,681.2783875467968 L 680,682.2856921899831 L 690,683.002539276886 L 700,683.4003503762925 L 710,683.4632660150347 L 720,683.1887779451379 L 730,682.5878291397514 L 740,681.6843775313426 L 750,680.5144408845324 L 760,679.1246608814802 L 770,677.5704436652036 L 780,675.9137509714993 L 790,674.2206299100693 L 800,672.5585798746803 L 810,670.993861555341 L 820,669.5888553336894 L 830,668.3995743740292 L 840,667.4734315552288 L 850,666.8473492688613 L 860,666.5462874399673 L 870,666.582248453609 L 880,666.9537986576543 L 890,667.6461255179622 L 900,668.6316281473762 L 910,669.8710176659947 L 920,671.3148835248303 L 930,672.9056633484735 L 940,674.5799377653515 L 950,676.2709587379418 L 960,677.9113105963927 L 970,679.4355976885373 L 980,680.7830514981778 L 990,681.8999532940602 L 1000,682.7417757261703 L 1010,683.274957990664 L 1020,683.4782437932098 L 1030,683.3435287703659 L 1040,682.876183584975 L 1050,682.0948398147857 L 1060,681.0306471702428 L 1070,679.7260316538298" fill="none" stroke="#ff6464" stroke-width="3" opacity="0.59"/>
<ellipse cx="473.55893633959766" cy="1133.4713821920898" rx="1.5" ry="1.5" fill="#6496ff" opacity="0.4725490196078431"/>
<ellipse cx="155.09995944569818" cy="1218.7810784293251" rx="1.5" ry="1.5" fill="#6496ff" opacity="0.4725490196078431"/>
<ellipse cx="135.20818239786112" cy="788.2620695923744" rx="1.5" ry="1.5" fill="#6496ff" opacity="0.4725490196078431"/>
<ellipse cx="478.15362475726454" cy="564.8696782835152" rx="1.5" ry="1.5" fill="#6496ff" opacity="0.4725490196078431"/>
<ellipse cx="473.5383369743537" cy="99.53774218425981" rx="1.5" ry="1.5" fill="#6496ff" opacity="0.4725490196078431"/>
<ellipse cx="420.827667313082" cy="603.8222732971526" rx="1.5" ry="1.5" fill="#6496ff" opacity="0.4725490196078431"/>
<ellipse cx="237.4757267150449" cy="413.6965693969729" rx="1.5" ry="1.5" fill="#6496ff" opacity="0.4725490196078431"/>
<ellipse cx="428.4735562412411" cy="1228.5005992411175" rx="1.5" ry="1.5" fill="#6496ff" opacity="0.4725490196078431"/>
<ellipse cx="169.17338140736027" cy="810.7313100298547" rx="1.5" ry="1.5" fill="#6496ff" opacity="0.4725490196078431"/>
<ellipse cx="100.06714587102977" cy="852.2558082138448" rx="1.5" ry="1.5" fill="#6496ff" opacity="0.4725490196078431"/>
<ellipse cx="266.3351155567612" cy="747.164082875086" rx="1.5" ry="1.5" fill="#6496ff" opacity="0.4725490196078431"/>
<ellipse cx="14.067049033039737" cy="432.24102222930685" rx="1.5" ry="1.5" fill="#6496ff" opacity="0.4725490196078431"/>
<ellipse cx="168.92741211174402" cy="1142.2611957147071" rx="1.5" ry="1.5" fill="#6496ff" opacity="0.4725490196078431"/>
<ellipse cx="122.45936399440251" cy="244.7571919508079" rx="1.5" ry="1.5" fill="#6496ff" opacity="0.4725490196078431"/>
<ellipse cx="306.13743438671224" cy="1084.0354805272239" rx="1.5" ry="1.5" fill="#6496ff" opacity="0.4725490196078431"/>
<ellipse cx="450.26105424867063" cy="854.5250777409063" rx="1.5" ry="1.5" fill="#6496ff" opacity="0.4725490196078431"/>
<ellipse cx="453.1192161762711" cy="200.31756171971446" rx="1.5" ry="1.5" fill="#6496ff" opacity="0.4725490196078431"/>
<ellipse cx="438.4020157709727" cy="141.80683500217592" rx="1.5" ry="1.5" fill="#6496ff" opacity="0.4725490196078431"/>
<ellipse cx="358.89561133407784" cy="1065.8227448658192" rx="1.5" ry="1.5" fill="#6496ff" opacity="0.4725490196078431"/>
<ellipse cx="71.79857257371702" cy="768.6099935176828" rx="1.5" ry="1.5" fill="#6496ff" opacity="0.4725490196078431"/>
<ellipse cx="224.46426640472575" cy="1200.0377481803475" rx="1.5" ry="1.5" fill="#6496ff" opacity="0.4725490196078431"/>
<ellipse cx="330.33418909196473" cy="294.8797525348513" rx="1.5" ry="1.5" fill="#6496ff" opacity="0.4725490196078431"/>
<ellipse cx="465.00616035657293" cy="383.614576041519" rx="1.5" ry="1.5" fill="#6496ff" opacity="0.4725490196078431"/>
<ellipse cx="487.56392978483996" cy="897.8545550712638" rx="1.5" ry="1.5" fill="#6496ff" opacity="0.4725490196078431"/>
<ellipse cx="460.9855987788111" cy="1002.4761562247184" rx="1.5" ry="1.5" fill="#6496ff" opacity="0.4725490196078431"/>
<ellipse cx="11.139750485839206" cy="1202.2462606440513" rx="1.5" ry="1.5" fill="#6496ff" opacity="0.4725490196078431"/>
<ellipse cx="538.8681938773339" cy="1030.8788185151661" rx="1.5" ry="1.5" fill="#6496ff" opacity="0.4725490196078431"/>
<ellipse cx="159.73996646690182" cy="224.83338128069107" rx="1.5" ry="1.5" fill="#6496ff" opacity="0.4725490196078431"/>
<ellipse cx="85.0456542172682" cy="265.1378901047343" rx="1.5" ry="1.5" fill="#6496ff" opacity="0.4725490196078431"/>
<ellipse cx="188.5887176676601" cy="1210.894579259164" rx="1.5" ry="1.5" fill="#6496ff" opacity="0.4725490196078431"/>
<ellipse cx="191.24817618692674" cy="956.1177675407929" rx="1.5" ry="1.5" fill="#6496ff" opacity="0.4725490196078431"/>
<ellipse cx="122.12958103144987" cy="377.2820817200849" rx="1.5" ry="1.5" fill="#6496ff" opacity="0.4725490196078431"/>
<ellipse cx="339.8341657313677" cy="804.4882539680639" rx="1.5" ry="1.5" fill="#6496ff" opacity="0.4725490196078431"/>
<ellipse cx="225.52004824649543" cy="593.1490662475811" rx="1.5" ry="1.5" fill="#6496ff" opacity="0.4725490196078431"/>
<ellipse cx="222.7720929229502" cy="366.40155332461075" rx="1.5" ry="1.5" fill="#6496ff" opacity="0.4725490196078431"/>
<ellipse cx="138.8461590459785" cy="1263.967395417377" rx="1.5" ry="1.5" fill="#6496ff" opacity="0.4725490196078431"/>
<ellipse cx="390.6074811846984" cy="444.1229583900994" rx="1.5" ry="1.5" fill="#6496ff" opacity="0.4725490196078431"/>
<ellipse cx="63.90566828842539" cy="913.3868385634323" rx="1.5" ry="1.5" fill="#6496ff" opacity="0.4725490196078431"/>
<ellipse cx="447.1009185011969" cy="674.567896441821" rx="1.5" ry="1.5" fill="#6496ff" opacity="0.4725490196078431"/>
<ellipse cx="385.80081242406783" cy="12.745052581999941" rx="1.5" ry="1.5" fill="#6496ff" opacity="0.4725490196078431"/>
<ellipse cx="166.4088319271844" cy="671.9556394368203" rx="1.5" ry="1.5" fill="#6496ff" opacity="0.4725490196078431"/>
<ellipse cx="534.7872665034548" cy="1209.0881114867925" rx="1.5" ry="1.5" fill="#6496ff" opacity="0.4725490196078431"/>
<ellipse cx="441.0542966989122" cy="233.40947638890216" rx="1.5" ry="1.5" fill="#6496ff" opacity="0.4725490196078431"/>
<ellipse cx="361.0752172959387" cy="630.5386844233324" rx="1.5" ry="1.5" fill="#6496ff" opacity="0.4725490196078431"/>
<ellipse cx="259.7550989406906" cy="1335.148984815529" rx="1.5" ry="1.5" fill="#6496ff" opacity="0.4725490196078431"/>
<ellipse cx="521.652918104852" cy="1248.4625106903084" rx="1.5" ry="1.5" fill="#6496ff" opacity="0.4725490196078431"/>
<ellipse cx="6.479272845424373" cy="1295.2849030938394" rx="1.5" ry="1.5" fill="#6496ff" opacity="0.4725490196078431"/>
<ellipse cx="606.7226314855379" cy="891.3120437838659" rx="1.5" ry="1.5" fill="#ff9664" opacity="0.49607843137254903"/>
<ellipse cx="963.8390852994468" cy="1192.5054615328581" rx="1.5" ry="1.5" fill="#ff9664" opacity="0.49607843137254903"/>
<ellipse cx="893.796608612778" cy="479.2460026588505" rx="1.5" ry="1.5" fill="#ff9664" opacity="0.49607843137254903"/>
<ellipse cx="697.2369504707106" cy="1302.3593014582802" rx="1.5" ry="1.5" fill="#ff9664" opacity="0.49607843137254903"/>
<ellipse cx="883.0138708758233" cy="954.1823928031058" rx="1.5" ry="1.5" fill="#ff9664" opacity="0.49607843137254903"/>
<ellipse cx="931.3971449767226" cy="275.4165710301216" rx="1.5" ry="1.5" fill="#ff9664" opacity="0.49607843137254903"/>
<ellipse cx="726.3382048282484" cy="945.3882341018823" rx="1.5" ry="1.5" fill="#ff9664" opacity="0.49607843137254903"/>
<ellipse cx="1055.7049801366893" cy="845.648682511248" rx="1.5" ry="1.5" fill="#ff9664" opacity="0.49607843137254903"/>
<ellipse cx="752.3144389187519" cy="578.4156921219154" rx="1.5" ry="1.5" fill="#ff9664" opacity="0.49607843137254903"/>
<ellipse cx="1022.6162197453045" cy="1213.0435114787163" rx="1.5" ry="1.5" fill="#ff9664" opacity="0.49607843137254903"/>
<ellipse cx="936.7055370270766" cy="703.6031845508159" rx="1.5" ry="1.5" fill="#ff9664" opacity="0.49607843137254903"/>
<ellipse cx="628.3299494200992" cy="1324.4294694272937" rx="1.5" ry="1.5" fill="#ff9664" opacity="0.49607843137254903"/>
<ellipse cx="883.88438717643" cy="624.9155405093522" rx="1.5" ry="1.5" fill="#ff9664" opacity="0.49607843137254903"/>
<ellipse cx="807.3484755807317" cy="183.6745620629166" rx="1.5" ry="1.5" fill="#ff9664" opacity="0.49607843137254903"/>
<ellipse cx="904.3004341629801" cy="1229.4237082961126" rx="1.5" ry="1.5" fill="#ff9664" opacity="0.49607843137254903"/>
<ellipse cx="1034.9775769631274" cy="344.0591277294136" rx="1.5" ry="1.5" fill="#ff9664" opacity="0.49607843137254903"/>
<ellipse cx="961.6072728212957" cy="1011.3202040136421" rx="1.5" ry="1.5" fill="#ff9664" opacity="0.49607843137254903"/>
<ellipse cx="574.3562007110362" cy="368.14240085340214" rx="1.5" ry="1.5" fill="#ff9664" opacity="0.49607843137254903"/>
<ellipse cx="853.3850957422449" cy="815.7934431060187" rx="1.5" ry="1.5" fill="#ff9664" opacity="0.49607843137254903"/>
<ellipse cx="767.7329350578286" cy="119.72029214711874" rx="1.5" ry="1.5" fill="#ff9664" opacity="0.49607843137254903"/>
<ellipse cx="823.4748335012583" cy="592.0268836394077" rx="1.5" ry="1.5" fill="#ff9664" opacity="0.49607843137254903"/>
<ellipse cx="736.6855073891047" cy="283.4265054592055" rx="1.5" ry="1.5" fill="#ff9664" opacity="0.49607843137254903"/>
<ellipse cx="826.2695880077172" cy="1248.2111340613155" rx="1.5" ry="1.5" fill="#ff9664" opacity="0.49607843137254903"/>
<ellipse cx="569.5988416809583" cy="935.1806451264679" rx="1.5" ry="1.5" fill="#ff9664" opacity="0.49607843137254903"/>
<ellipse cx="998.1775834309765" cy="144.75962526386587" rx="1.5" ry="1.5" fill="#ff9664" opacity="0.49607843137254903"/>
<ellipse cx="885.913633865264" cy="1264.7939449477913" rx="1.5" ry="1.5" fill="#ff9664" opacity="0.49607843137254903"/>
<ellipse cx="953.4614469546179" cy="1054.2993312023111" rx="1.5" ry="1.5" fill="#ff9664" opacity="0.49607843137254903"/>
<ellipse cx="713.3181668134956" cy="462.71646044343544" rx="1.5" ry="1.5" fill="#ff9664" opacity="0.49607843137254903"/>
<ellipse cx="749.6018887542197" cy="483.4291221962446" rx="1.5" ry="1.5" fill="#ff9664" opacity="0.49607843137254903"/>
<ellipse cx="768.8458157651339" cy="1134.2351680315264" rx="1.5" ry="1.5" fill="#ff9664" opacity="0.49607843137254903"/>
<ellipse cx="602.0362758925354" cy="1246.4090517006857" rx="1.5" ry="1.5" fill="#ff9664" opacity="0.49607843137254903"/>
<ellipse cx="666.8889356250357" cy="1197.124909421953" rx="1.5" ry="1.5" fill="#ff9664" opacity="0.49607843137254903"/>
<ellipse cx="940.4868080096724" cy="735.6718901245258" rx="1.5" ry="1.5" fill="#ff9664" opacity="0.49607843137254903"/>
<ellipse cx="956.9405509982912" cy="727.666461806589" rx="1.5" ry="1.5" fill="#ff9664" opacity="0.49607843137254903"/>
<ellipse cx="1061.9468452976769" cy="1193.5906296566086" rx="1.5" ry="1.5" fill="#ff9664" opacity="0.49607843137254903"/>
<ellipse cx="740.7522726993785" cy="322.5129963469286" rx="1.5" ry="1.5" fill="#ff9664" opacity="0.49607843137254903"/>
<ellipse cx="585.4979628536375" cy="105.14004533418456" rx="1.5" ry="1.5" fill="#ff9664" opacity="0.49607843137254903"/>
<ellipse cx="612.8975326162285" cy="1068.5915892331823" rx="1.5" ry="1.5" fill="#ff9664" opacity="0.49607843137254903"/>
<ellipse cx="699.3964076784423" cy="973.7276499037295" rx="1.5" ry="1.5" fill="#ff9664" opacity="0.49607843137254903"/>
<ellipse cx="738.5727954835504" cy="890.8216420983997" rx="1.5" ry="1.5" fill="#ff9664" opacity="0.49607843137254903"/>
<ellipse cx="689.5056224565514" cy="992.9906313274944" rx="1.5" ry="1.5" fill="#ff9664" opacity="0.49607843137254903"/>
<ellipse cx="860.7239414754902" cy="1274.7139877056304" rx="1.5" ry="1.5" fill="#ff9664" opacity="0.49607843137254903"/>
<ellipse cx="657.1532893726385" cy="861.0131133631864" rx="1.5" ry="1.5" fill="#ff9664" opacity="0.49607843137254903"/>
<ellipse cx="799.501276137075" cy="302.17916979555935" rx="1.5" ry="1.5" fill="#ff9664" opacity="0.49607843137254903"/>
<ellipse cx="554.228770143459" cy="1308.998166075441" rx="1.5" ry="1.5" fill="#ff9664" opacity="0.49607843137254903"/>
<ellipse cx="927.460541905584" cy="1074.185765289788" rx="1.5" ry="1.5" fill="#ff9664" opacity="0.49607843137254903"/>
<ellipse cx="762.917962178084" cy="1233.2566386243593" rx="1.5" ry="1.5" fill="#ff9664" opacity="0.49607843137254903"/>
<ellipse cx="994.2869426935385" cy="1183.305752828394" rx="1.5" ry="1.5" fill="#ff9664" opacity="0.49607843137254903"/>
<ellipse cx="933.7134792253903" cy="712.2420433500046" rx="1.5" ry="1.5" fill="#ff9664" opacity="0.49607843137254903"/>
<ellipse cx="1020.2771618218521" cy="922.3787431243708" rx="1.5" ry="1.5" fill="#ff9664" opacity="0.49607843137254903"/>
<ellipse cx="951.084923935628" cy="1203.4802561642045" rx="1.5" ry="1.5" fill="#ff9664" opacity="0.49607843137254903"/>
<line x1="6.114792826638926" y1="2.684068122265892" x2="119.31479282663892" y2="2.684068122265892" stroke="#c8c8c8" stroke-width="1" opacity="0.39"/>
<line x1="256.066979987578" y1="664.5540300125973" x2="369.266979987578" y2="664.5540300125973" stroke="#c8c8c8" stroke-width="1" opacity="0.39"/>
<line x1="21.442329893560302" y1="737.1191966985908" x2="134.64232989356032" y2="737.1191966985908" stroke="#c8c8c8" stroke-width="1" opacity="0.39"/>
<line x1="124.11078935680482" y1="151.1121556866505" x2="237.31078935680483" y2="151.1121556866505" stroke="#c8c8c8" stroke-width="1" opacity="0.39"/>
<line x1="430.9555544475818" y1="372.21121805357336" x2="544.1555544475818" y2="372.21121805357336" stroke="#c8c8c8" stroke-width="1" opacity="0.39"/>
<line x1="456.3516428211479" y1="148.57935912375308" x2="569.5516428211479" y2="148.57935912375308" stroke="#c8c8c8" stroke-width="1" opacity="0.39"/>
<line x1="283.6198015341627" y1="527.7098717762669" x2="396.8198015341627" y2="527.7098717762669" stroke="#c8c8c8" stroke-width="1" opacity="0.39"/>
<line x1="88.37687734904554" y1="536.8907916065729" x2="201.57687734904556" y2="536.8907916065729" stroke="#c8c8c8" stroke-width="1" opacity="0.39"/>
<line x1="384.8359252814371" y1="34.99091865261594" x2="498.0359252814371" y2="34.99091865261594" stroke="#c8c8c8" stroke-width="1" opacity="0.39"/>
<line x1="120.69748861747676" y1="651.4513853245654" x2="233.89748861747677" y2="651.4513853245654" stroke="#c8c8c8" stroke-width="1" opacity="0.39"/>
<line x1="138.91091830046423" y1="675.33377440429" x2="252.11091830046422" y2="675.33377440429" stroke="#c8c8c8" stroke-width="1" opacity="0.39"/>
<line x1="368.60105054853534" y1="734.7912672603462" x2="481.80105054853533" y2="734.7912672603462" stroke="#c8c8c8" stroke-width="1" opacity="0.39"/>
<line x1="94.83445648794735" y1="342.5253199145781" x2="208.03445648794735" y2="342.5253199145781" stroke="#c8c8c8" stroke-width="1" opacity="0.39"/>
<line x1="319.29408803549325" y1="803.6702338623211" x2="432.49408803549323" y2="803.6702338623211" stroke="#c8c8c8" stroke-width="1" opacity="0.39"/>
<line x1="262.7266861231656" y1="425.6010713174944" x2="375.9266861231656" y2="425.6010713174944" stroke="#c8c8c8" stroke-width="1" opacity="0.39"/>
<line x1="147.39753491589684" y1="398.43179602102924" x2="260.59753491589686" y2="398.43179602102924" stroke="#c8c8c8" stroke-width="1" opacity="0.39"/>
<line x1="318.88158574648276" y1="1192.899102528067" x2="432.08158574648274" y2="1192.899102528067" stroke="#c8c8c8" stroke-width="1" opacity="0.39"/>
<line x1="89.4237113415374" y1="809.7934354142255" x2="202.6237113415374" y2="809.7934354142255" stroke="#c8c8c8" stroke-width="1" opacity="0.39"/>
<line x1="505.761795279459" y1="723.9054683241553" x2="618.961795279459" y2="723.9054683241553" stroke="#c8c8c8" stroke-width="1" opacity="0.39"/>
<line x1="305.0354005326682" y1="139.3418312721615" x2="418.23540053266817" y2="139.3418312721615" stroke="#c8c8c8" stroke-width="1" opacity="0.39"/>
<line x1="281.38116551627456" y1="46.22159602410235" x2="394.58116551627455" y2="46.22159602410235" stroke="#c8c8c8" stroke-width="1" opacity="0.39"/>
<line x1="494.8337837377721" y1="103.47543959667694" x2="608.0337837377721" y2="103.47543959667694" stroke="#c8c8c8" stroke-width="1" opacity="0.39"/>
<line x1="149.93803210087958" y1="78.9382160077515" x2="263.13803210087957" y2="78.9382160077515" stroke="#c8c8c8" stroke-width="1" opacity="0.39"/>
<line x1="474.8404260700757" y1="16.55867100533036" x2="588.0404260700757" y2="16.55867100533036" stroke="#c8c8c8" stroke-width="1" opacity="0.39"/>
<line x1="173.12815175071736" y1="916.5719751811456" x2="286.3281517507174" y2="916.5719751811456" stroke="#c8c8c8" stroke-width="1" opacity="0.39"/>
<line x1="32.46794702134465" y1="788.0628753397906" x2="145.66794702134465" y2="788.0628753397906" stroke="#c8c8c8" stroke-width="1" opacity="0.39"/>
<line x1="420.4175307324238" y1="231.1279357555918" x2="533.6175307324238" y2="231.1279357555918" stroke="#c8c8c8" stroke-width="1" opacity="0.39"/>
<line x1="373.16620784493455" y1="1209.9252825649107" x2="486.36620784493454" y2="1209.9252825649107" stroke="#c8c8c8" stroke-width="1" opacity="0.39"/>
<line x1="59.832787541594726" y1="630.6325483278523" x2="173.03278754159473" y2="630.6325483278523" stroke="#c8c8c8" stroke-width="1" opacity="0.39"/>
<line x1="319.5729519424834" y1="34.92187859254045" x2="432.7729519424834" y2="34.92187859254045" stroke="#c8c8c8" stroke-width="1" opacity="0.39"/>
<line x1="317.18807451296044" y1="685.6481018875019" x2="430.38807451296043" y2="685.6481018875019" stroke="#c8c8c8" stroke-width="1" opacity="0.39"/>
<line x1="454.3396641939598" y1="981.8734113973908" x2="567.5396641939598" y2="981.8734113973908" stroke="#c8c8c8" stroke-width="1" opacity="0.39"/>
<line x1="73.05416825835322" y1="65.8776149460476" x2="186.25416825835322" y2="65.8776149460476" stroke="#c8c8c8" stroke-width="1" opacity="0.39"/>
<line x1="185.34359344530088" y1="1136.8330215741103" x2="298.54359344530087" y2="1136.8330215741103" stroke="#c8c8c8" stroke-width="1" opacity="0.39"/>
<line x1="96.9097137902443" y1="765.8149171461421" x2="210.1097137902443" y2="765.8149171461421" stroke="#c8c8c8" stroke-width="1" opacity="0.39"/>
<line x1="390.2649523645011" y1="907.2139088563687" x2="503.4649523645011" y2="907.2139088563687" stroke="#c8c8c8" stroke-width="1" opacity="0.39"/>
<line x1="353.14644114726525" y1="1005.0905053527516" x2="466.34644114726524" y2="1005.0905053527516" stroke="#c8c8c8" stroke-width="1" opacity="0.39"/>
<line x1="478.0172183355397" y1="700.3216091079273" x2="591.2172183355398" y2="700.3216091079273" stroke="#c8c8c8" stroke-width="1" opacity="0.39"/>
<line x1="17.466394909409058" y1="721.8775976085466" x2="130.66639490940906" y2="721.8775976085466" stroke="#c8c8c8" stroke-width="1" opacity="0.39"/>
<line x1="65.62687400059163" y1="19.067005822000564" x2="178.82687400059163" y2="19.067005822000564" stroke="#c8c8c8" stroke-width="1" opacity="0.39"/>
<line x1="56.516513031216576" y1="637.8748546530841" x2="169.71651303121658" y2="637.8748546530841" stroke="#c8c8c8" stroke-width="1" opacity="0.39"/>
<line x1="113.62564807460906" y1="987.3773445316485" x2="226.82564807460906" y2="987.3773445316485" stroke="#c8c8c8" stroke-width="1" opacity="0.39"/>
<line x1="0.36847114580146556" y1="16.370737630115233" x2="113.56847114580147" y2="16.370737630115233" stroke="#c8c8c8" stroke-width="1" opacity="0.39"/>
<line x1="35.32910128837875" y1="114.30957918721697" x2="148.52910128837874" y2="114.30957918721697" stroke="#c8c8c8" stroke-width="1" opacity="0.39"/>
<line x1="309.55871536841556" y1="581.4856412734304" x2="422.75871536841555" y2="581.4856412734304" stroke="#c8c8c8" stroke-width="1" opacity="0.39"/>
<line x1="398.01385421213405" y1="1149.43846517682" x2="511.21385421213404" y2="1149.43846517682" stroke="#c8c8c8" stroke-width="1" opacity="0.39"/>
<line x1="268.549933558586" y1="919.1040877807438" x2="381.749933558586" y2="919.1040877807438" stroke="#c8c8c8" stroke-width="1" opacity="0.39"/>
<line x1="134.23280245355926" y1="94.00423769559909" x2="247.43280245355925" y2="94.00423769559909" stroke="#c8c8c8" stroke-width="1" opacity="0.39"/>
<line x1="397.3598404588922" y1="232.4234427103882" x2="510.5598404588922" y2="232.4234427103882" stroke="#c8c8c8" stroke-width="1" opacity="0.39"/>
<line x1="162.74845548102093" y1="149.7071743708603" x2="275.9484554810209" y2="149.7071743708603" stroke="#c8c8c8" stroke-width="1" opacity="0.39"/>
<line x1="430.87848385371194" y1="1234.1187542463276" x2="544.078483853712" y2="1234.1187542463276" stroke="#c8c8c8" stroke-width="1" opacity="0.39"/>
<line x1="146.82757622880283" y1="98.59290723623377" x2="260.02757622880284" y2="98.59290723623377" stroke="#c8c8c8" stroke-width="1" opacity="0.39"/>
<line x1="13.359670049212719" y1="401.53545551073523" x2="126.55967004921273" y2="401.53545551073523" stroke="#c8c8c8" stroke-width="1" opacity="0.39"/>
<line x1="483.11543248738883" y1="640.8728066090833" x2="596.3154324873889" y2="640.8728066090833" stroke="#c8c8c8" stroke-width="1" opacity="0.39"/>
<line x1="107.89850955265504" y1="571.727215019859" x2="221.09850955265506" y2="571.727215019859" stroke="#c8c8c8" stroke-width="1" opacity="0.39"/>
<line x1="344.80994240604804" y1="1138.6588817176682" x2="458.009942406048" y2="1138.6588817176682" stroke="#c8c8c8" stroke-width="1" opacity="0.39"/>
<line x1="217.9961300911364" y1="1286.38722956478" x2="331.1961300911364" y2="1286.38722956478" stroke="#c8c8c8" stroke-width="1" opacity="0.39"/>
<line x1="754.8114682244191" y1="740.2465585340963" x2="811.4114682244191" y2="740.2465585340963" stroke="#c8c8c8" stroke-width="1" opacity="0.39"/>
<line x1="688.3125973438437" y1="195.67143926195402" x2="744.9125973438437" y2="195.67143926195402" stroke="#c8c8c8" stroke-width="1" opacity="0.39"/>
<line x1="774.4467992682228" y1="633.6697879404154" x2="831.0467992682228" y2="633.6697879404154" stroke="#c8c8c8" stroke-width="1" opacity="0.39"/>
<line x1="565.0212121126341" y1="904.5398939887714" x2="621.6212121126341" y2="904.5398939887714" stroke="#c8c8c8" stroke-width="1" opacity="0.39"/>
<line x1="1024.995961415114" y1="339.4772173554996" x2="1081.5959614151138" y2="339.4772173554996" stroke="#c8c8c8" stroke-width="1" opacity="0.39"/>
<line x1="843.0139590720711" y1="1320.3288680502815" x2="899.6139590720711" y2="1320.3288680502815" stroke="#c8c8c8" stroke-width="1" opacity="0.39"/>
<line x1="751.4466906578498" y1="392.7111269872222" x2="808.0466906578498" y2="392.7111269872222" stroke="#c8c8c8" stroke-width="1" opacity="0.39"/>
<line x1="943.8952304813523" y1="278.5417200431888" x2="1000.4952304813523" y2="278.5417200431888" stroke="#c8c8c8" stroke-width="1" opacity="0.39"/>
<line x1="857.2223873423517" y1="511.43476390812305" x2="913.8223873423517" y2="511.43476390812305" stroke="#c8c8c8" stroke-width="1" opacity="0.39"/>
<line x1="893.1156708454321" y1="262.21463096431205" x2="949.7156708454321" y2="262.21463096431205" stroke="#c8c8c8" stroke-width="1" opacity="0.39"/>
<line x1="898.5729737759442" y1="1156.212115826184" x2="955.1729737759442" y2="1156.212115826184" stroke="#c8c8c8" stroke-width="1" opacity="0.39"/>
<line x1="649.5085430655203" y1="235.6780217195293" x2="706.1085430655203" y2="235.6780217195293" stroke="#c8c8c8" stroke-width="1" opacity="0.39"/>
<line x1="563.1371748555159" y1="618.515534986982" x2="619.737174855516" y2="618.515534986982" stroke="#c8c8c8" stroke-width="1" opacity="0.39"/>
<line x1="703.8560415077284" y1="1262.3360222495796" x2="760.4560415077284" y2="1262.3360222495796" stroke="#c8c8c8" stroke-width="1" opacity="0.39"/>
<line x1="966.5633513529615" y1="1242.7292889183059" x2="1023.1633513529615" y2="1242.7292889183059" stroke="#c8c8c8" stroke-width="1" opacity="0.39"/>
<line x1="716.3093877659688" y1="264.4177974501708" x2="772.9093877659689" y2="264.4177974501708" stroke="#c8c8c8" stroke-width="1" opacity="0.39"/>
<line x1="619.8873800411296" y1="1043.6176751943387" x2="676.4873800411297" y2="1043.6176751943387" stroke="#c8c8c8" stroke-width="1" opacity="0.39"/>
<line x1="1056.8563559077943" y1="1134.5145469226477" x2="1113.4563559077942" y2="1134.5145469226477" stroke="#c8c8c8" stroke-width="1" opacity="0.39"/>
<line x1="888.1722737979946" y1="308.72719302248544" x2="944.7722737979947" y2="308.72719302248544" stroke="#c8c8c8" stroke-width="1" opacity="0.39"/>
<line x1="895.0936766132218" y1="608.3081069441084" x2="951.6936766132218" y2="608.3081069441084" stroke="#c8c8c8" stroke-width="1" opacity="0.39"/>
<line x1="942.933561989541" y1="926.4022175811242" x2="999.533561989541" y2="926.4022175811242" stroke="#c8c8c8" stroke-width="1" opacity="0.39"/>
<line x1="550.6160759975277" y1="799.7457681222567" x2="607.2160759975277" y2="799.7457681222567" stroke="#c8c8c8" stroke-width="1" opacity="0.39"/>
<line x1="974.4768550034971" y1="781.8860832517437" x2="1031.076855003497" y2="781.8860832517437" stroke="#c8c8c8" stroke-width="1" opacity="0.39"/>
<line x1="767.9450441468251" y1="1252.7244871727771" x2="824.5450441468251" y2="1252.7244871727771" stroke="#c8c8c8" stroke-width="1" opacity="0.39"/>
<line x1="694.4974923853285" y1="405.2344145277675" x2="751.0974923853286" y2="405.2344145277675" stroke="#c8c8c8" stroke-width="1" opacity="0.39"/>
<line x1="628.7252641137342" y1="51.41846987019222" x2="685.3252641137342" y2="51.41846987019222" stroke="#c8c8c8" stroke-width="1" opacity="0.39"/>
<line x1="959.9663724470727" y1="167.22500332036287" x2="1016.5663724470727" y2="167.22500332036287" stroke="#c8c8c8" stroke-width="1" opacity="0.39"/>
<line x1="949.3091459988193" y1="893.2539765225976" x2="1005.9091459988193" y2="893.2539765225976" stroke="#c8c8c8" stroke-width="1" opacity="0.39"/>
<line x1="1036.2219073698957" y1="826.6755405937674" x2="1092.8219073698956" y2="826.6755405937674" stroke="#c8c8c8" stroke-width="1" opacity="0.39"/>
<rect x="7.7933485888845055" y="139.15949489416533" width="30.705998842933212" height="38.39461096137202" fill="#76b6a4" opacity="0.1523793339891044"/>
<rect x="273.5714448818804" y="864.2522243756113" width="55.55153609977641" height="76.71132457778388" fill="#708fb3" opacity="0.15360387635502926"/>
<rect x="236.66787874264077" y="1138.1642165166159" width="20.929274559453724" height="31.308723799742364" fill="#efc9a5" opacity="0.1263747266443073"/>
<ellipse cx="843.4307102316202" cy="1310.4595190428474" rx="38.79465104490269" ry="21.49145588540654" fill="#f1d7dd" opacity="0.23339170573519377"/>
<line x1="294.44050325753193" y1="823.5779110452058" x2="88.3510637694742" y2="770.2346075187598" stroke="#b3f9a5" stroke-width="2.2408640390452295" opacity="0.2903995397665992"/>
<line x1="767.3733476397458" y1="1266.0307115251342" x2="964.4979433736289" y2="435.41409393558934" stroke="#c6bed7" stroke-width="2.9289429196757" opacity="0.2942416902321658"/>
<line x1="867.1005396112337" y1="553.9460602001967" x2="203.16754827423372" y2="531.8700181934377" stroke="#d99be6" stroke-width="2.9370353826959783" opacity="0.20601486694530416"/>
<line x1="1033.5919480368457" y1="845.9840659266264" x2="73.92313960656669" y2="1095.1617529127568" stroke="#f9a0cf" stroke-width="2.164671898430526" opacity="0.30875759505818945"/>
<line x1="401.0608865698152" y1="621.1526158364269" x2="542.3560526512358" y2="149.96273524591825" stroke="#9aacfc" stroke-width="2.2557151919490264" opacity="0.20178010419057485"/>
<line x1="566.2417891278126" y1="909.5640067521315" x2="669.5002272862477" y2="646.641433540099" stroke="#e2db9c" stroke-width="2.347445727022107" opacity="0.30882262021951407"/>
<line x1="478.7695457780592" y1="552.2466125675694" x2="987.3194651432892" y2="854.404539267721" stroke="#c4dc9c" stroke-width="1.7378207448580398" opacity="0.2048412374645079"/>
<line x1="890.445993361271" y1="632.211256321618" x2="29.3159866469521" y2="815.0873063202422" stroke="#97d0f6" stroke-width="1.9772739414951177" opacity="0.3557249331932841"/>
<line x1="258.6198807966988" y1="432.93818702592426" x2="922.6438955788706" y2="904.2051140704217" stroke="#cecdc0" stroke-width="2.5076282031403987" opacity="0.3086685948050316"/>
<line x1="638.6481717222595" y1="748.3985963968554" x2="500.77147030307515" y2="103.98221616818672" stroke="#f7bbac" stroke-width="2.1426165109233075" opacity="0.3793066694323105"/>
<ellipse cx="404.49444670439436" cy="1060.3626256158402" rx="2.667627335371276" ry="2.667627335371276" fill="#e7dae5" opacity="0.20795126528319843"/>
<ellipse cx="663.5508731117243" cy="1063.5993008797984" rx="2.323692322393736" ry="2.323692322393736" fill="#e8f3d6" opacity="0.12366201365464059"/>
<ellipse cx="118.0817413879939" cy="496.4086937235709" rx="3.709816099475052" ry="3.709816099475052" fill="#e4d4c8" opacity="0.22453260377424863"/>
<ellipse cx="358.69262712015427" cy="39.846897143799296" rx="3.5414696533891696" ry="3.5414696533891696" fill="#ebf5fa" opacity="0.14693032062204742"/>
<ellipse cx="124.52625280456908" cy="735.728256747" rx="3.7100707305176517" ry="3.7100707305176517" fill="#e8efdf" opacity="0.1066733528717507"/>
<ellipse cx="924.914492799395" cy="612.8758552544173" rx="2.890523196147067" ry="2.890523196147067" fill="#edd6ce" opacity="0.09282456660473438"/>
<ellipse cx="259.71287024194044" cy="1126.5464147210803" rx="2.1464895015333267" ry="2.1464895015333267" fill="#f7cafb" opacity="0.14703556138783633"/>
<ellipse cx="429.4725610825571" cy="3.888773919962707" rx="2.562326034792851" ry="2.562326034792851" fill="#cddccc" opacity="0.10062754856470027"/>
<ellipse cx="638.915126621218" cy="1299.13727105555" rx="3.199831248354088" ry="3.199831248354088" fill="#d8edcd" opacity="0.1637592362819908"/>
<ellipse cx="924.383254481658" cy="385.27845758259224" rx="3.3655627976942637" ry="3.3655627976942637" fill="#edcce2" opacity="0.11358365827215185"/>
<ellipse cx="253.05653941494253" cy="301.62741257884886" rx="2.0792814796228343" ry="2.0792814796228343" fill="#eafcd8" opacity="0.23046117677475236"/>
<ellipse cx="1018.7538390135178" cy="1212.7469128057114" rx="2.2991300827353864" ry="2.2991300827353864" fill="#d8f1e0" opacity="0.16284013265912628"/>
<ellipse cx="949.5250372539857" cy="688.8065639365495" rx="3.3468981992206066" ry="3.3468981992206066" fill="#dcd2cf" opacity="0.14707525106896405"/>
</svg>