<svg xmlns="http://www.w3.org/2000/svg" width="1080" height="1350" viewBox="0 0 1080 1350" style="background-color: #e8ecf1;">
<rect x="0" y="0" width="1080" height="1350" fill="#e8ecf1"/>
<ellipse cx="430.6465317824141" cy="17.45039821483679" rx="37.022964904765104" ry="15.599870921431112" fill="#a9a9a9"/>
<ellipse cx="457.0945528938468" cy="17.45039821483679" rx="29.618371923812088" ry="7.799935460715556" fill="#a9a9a9"/>
<ellipse cx="406.7617829389344" cy="17.45039821483679" rx="25.916075433335575" ry="6.239948368572445" fill="#a9a9a9"/>
<ellipse cx="346.11156479740123" cy="67.21572879106539" rx="27.959883068306443" ry="12.329371216047212" fill="#a9a9a9"/>
<ellipse cx="361.94821719686047" cy="67.21572879106539" rx="22.367906454645155" ry="6.164685608023606" fill="#a9a9a9"/>
<ellipse cx="327.78173421574627" cy="67.21572879106539" rx="19.571918147814507" ry="4.931748486418885" fill="#a9a9a9"/>
<ellipse cx="331.2777687661712" cy="532.0650281999563" rx="22.20432845801176" ry="13.797143415509119" fill="#a9a9a9"/>
<ellipse cx="344.7934597692884" cy="532.0650281999563" rx="17.763462766409408" ry="6.898571707754559" fill="#a9a9a9"/>
<ellipse cx="312.4666959518157" cy="532.0650281999563" rx="15.543029920608232" ry="5.5188573662036475" fill="#a9a9a9"/>
<ellipse cx="157.97730453218207" cy="135.23676401713712" rx="31.218558303714776" ry="25.588894613188558" fill="#a9a9a9"/>
<ellipse cx="181.68052167457284" cy="135.23676401713712" rx="24.974846642971823" ry="12.794447306594279" fill="#a9a9a9"/>
<ellipse cx="136.61101363498165" cy="135.23676401713712" rx="21.852990812600343" ry="10.235557845275423" fill="#a9a9a9"/>
<ellipse cx="478.7183692300312" cy="202.21286425470043" rx="30.982267024569527" ry="15.8182743419503" fill="#a9a9a9"/>
<ellipse cx="497.5782786282669" cy="202.21286425470043" rx="24.785813619655624" ry="7.90913717097515" fill="#a9a9a9"/>
<ellipse cx="457.65415539113843" cy="202.21286425470043" rx="21.68758691719867" ry="6.32730973678012" fill="#a9a9a9"/>
<ellipse cx="528.0944683626734" cy="17.536175259173" rx="30.30179562273167" ry="18.806232601393965" fill="#a9a9a9"/>
<ellipse cx="549.4057554617092" cy="17.536175259173" rx="24.24143649818534" ry="9.403116300696983" fill="#a9a9a9"/>
<ellipse cx="511.4191879909786" cy="17.536175259173" rx="21.21125693591217" ry="7.522493040557586" fill="#a9a9a9"/>
<ellipse cx="397.10621077432586" cy="73.99050596821611" rx="17.20856482757097" ry="10.000819513606727" fill="#a9a9a9"/>
<ellipse cx="407.1494475000515" cy="73.99050596821611" rx="13.766851862056779" ry="5.000409756803363" fill="#a9a9a9"/>
<ellipse cx="387.79078885967886" cy="73.99050596821611" rx="12.04599537929968" ry="4.000327805442691" fill="#a9a9a9"/>
<ellipse cx="157.02909000079572" cy="509.16641974317207" rx="36.03446074050089" ry="23.80922037142832" fill="#a9a9a9"/>
<ellipse cx="179.4850343953346" cy="509.16641974317207" rx="28.827568592400713" ry="11.90461018571416" fill="#a9a9a9"/>
<ellipse cx="132.65043876010463" cy="509.16641974317207" rx="25.224122518350626" ry="9.523688148571328" fill="#a9a9a9"/>
<ellipse cx="337.1267654081465" cy="630.4850938871899" rx="33.133179118262504" ry="20.694990808852452" fill="#a9a9a9"/>
<ellipse cx="355.5534224901847" cy="630.4850938871899" rx="26.50654329461" ry="10.347495404426226" fill="#a9a9a9"/>
<ellipse cx="321.0742159143597" cy="630.4850938871899" rx="23.193225382783748" ry="8.277996323540982" fill="#a9a9a9"/>
<ellipse cx="399.27043158527016" cy="617.2685089601523" rx="38.57776542316038" ry="26.148122004590636" fill="#a9a9a9"/>
<ellipse cx="423.7891367737201" cy="617.2685089601523" rx="30.862212338528305" ry="13.074061002295318" fill="#a9a9a9"/>
<ellipse cx="376.2580833013194" cy="617.2685089601523" rx="27.004435796212267" ry="10.459248801836253" fill="#a9a9a9"/>
<ellipse cx="1033.3618142518037" cy="835.514277608839" rx="19.64644006962412" ry="9.254572266391838" fill="#a9a9a9"/>
<ellipse cx="1048.3726090075124" cy="835.514277608839" rx="15.717152055699296" ry="4.627286133195919" fill="#a9a9a9"/>
<ellipse cx="1019.807211621291" cy="835.514277608839" rx="13.752508048736884" ry="3.701828906556736" fill="#a9a9a9"/>
<ellipse cx="563.3874893297383" cy="1064.0654017515785" rx="12.189319196162613" ry="5.3621960436049125" fill="#a9a9a9"/>
<ellipse cx="570.9453285466807" cy="1064.0654017515785" rx="9.75145535693009" ry="2.6810980218024563" fill="#a9a9a9"/>
<ellipse cx="557.4306287782407" cy="1064.0654017515785" rx="8.532523437313829" ry="2.1448784174419653" fill="#a9a9a9"/>
<ellipse cx="966.171464522449" cy="1163.7698298151465" rx="42.795850309427955" ry="30.0558323060733" fill="#a9a9a9"/>
<ellipse cx="994.2150133362699" cy="1163.7698298151465" rx="34.23668024754237" ry="15.02791615303665" fill="#a9a9a9"/>
<ellipse cx="937.4150908155584" cy="1163.7698298151465" rx="29.957095216599566" ry="12.02233292242932" fill="#a9a9a9"/>
<ellipse cx="803.983311776064" cy="787.0653752177327" rx="22.928207814022585" ry="13.972881222402492" fill="#a9a9a9"/>
<ellipse cx="821.8691875726751" cy="787.0653752177327" rx="18.34256625121807" ry="6.986440611201246" fill="#a9a9a9"/>
<ellipse cx="784.9856117147027" cy="787.0653752177327" rx="16.04974546981581" ry="5.589152488960997" fill="#a9a9a9"/>
<ellipse cx="1025.6939580318024" cy="1307.2661346324096" rx="32.365060692640824" ry="24.092258861777303" fill="#a9a9a9"/>
<ellipse cx="1050.7292541404188" cy="1307.2661346324096" rx="25.892048554112662" ry="12.046129430888652" fill="#a9a9a9"/>
<ellipse cx="1004.3455875604611" cy="1307.2661346324096" rx="22.655542484848578" ry="9.636903544710922" fill="#a9a9a9"/>
<ellipse cx="732.9700256292568" cy="726.9208613442821" rx="15.850054347913964" ry="7.6505080771484115" fill="#a9a9a9"/>
<ellipse cx="744.0618297269094" cy="726.9208613442821" rx="12.680043478331172" ry="3.8252540385742058" fill="#a9a9a9"/>
<ellipse cx="723.1531710691758" cy="726.9208613442821" rx="11.095038043539775" ry="3.0602032308593645" fill="#a9a9a9"/>
<ellipse cx="1069.6951195084002" cy="618.5702922840464" rx="35.41626759826614" ry="26.518824569432397" fill="#a9a9a9"/>
<ellipse cx="1100.177991849998" cy="618.5702922840464" rx="28.333014078612916" ry="13.259412284716198" fill="#a9a9a9"/>
<ellipse cx="1043.44750232423" cy="618.5702922840464" rx="24.791387318786295" ry="10.60752982777296" fill="#a9a9a9"/>
<ellipse cx="863.4717036799861" cy="626.9246223508029" rx="22.07755463719862" ry="21.51959171991009" fill="#a9a9a9"/>
<ellipse cx="880.887184861087" cy="626.9246223508029" rx="17.662043709758898" ry="10.759795859955045" fill="#a9a9a9"/>
<ellipse cx="847.1510451982533" cy="626.9246223508029" rx="15.454288246039033" ry="8.607836687964037" fill="#a9a9a9"/>
<ellipse cx="948.3400585168694" cy="119.32278877092655" rx="38.40560233456241" ry="14.626689021772876" fill="#a9a9a9"/>
<ellipse cx="975.3163038191352" cy="119.32278877092655" rx="30.72448186764993" ry="7.313344510886438" fill="#a9a9a9"/>
<ellipse cx="927.7540400678554" cy="119.32278877092655" rx="26.883921634193687" ry="5.8506756087091505" fill="#a9a9a9"/>
<path d="M 0,675 L 10,669.3220305258772 L 20,663.8704237768188 L 30,658.8625181103699 L 40,654.4979629220917 L 50,650.9507592541903 L 60,648.3623229230567 L 70,646.8358467169298 L 80,646.4321864250738 L 90,647.1674347095012 L 100,649.0122795413221 L 110,651.8931727788361 L 120,655.6952622998481 L 130,660.2669707933426 L 140,665.4260386685443 L 150,670.966790169649 L 160,676.6683330191603 L 170,682.3033646959268 L 180,687.6472342693669 L 190,692.4868985231429 L 200,696.6294153159006 L 210,699.9096355755803 L 220,702.1967872717623 L 230,703.3996888838444 L 240,703.4703845205283 L 250,702.4060557698725 L 260,700.249134060482 L 270,697.0856090543501 L 280,693.0416005103909 L 290,688.2783302876452 L 300,682.9856949385253 L 310,677.374695132524 L 320,671.6690237253729 L 330,666.0961478307877 L 340,660.8782404244586 L 350,656.2233230086171 L 360,652.3169724511912 L 370,649.3149226217037 L 380,647.3368557733401 L 390,646.4616311891938 L 400,646.7241413115038 L 410,648.1139206900921 L 420,650.5755632068369 L 430,654.0109309427578 L 440,658.2830666271534 L 450,663.2216536917906 L 460,668.629806255015 L 470,674.291918340543 L 480,679.9822594073528 L 490,685.4739735140201 L 500,690.5481233492181 L 510,695.0024185714235 L 520,698.659280486468 L 530,701.372921549694" fill="none" stroke="#ff6464" stroke-width="3" opacity="0.59"/>
<path d="M 540,665.602630915963 L 550,665.4200938212442 L 560,665.6194773547304 L 570,666.1928327241324 L 580,667.1173020601998 L 590,668.3560296878352 L 600,669.8596314455558 L 610,671.5681634761712 L 620,673.4135119992052 L 630,675.3221087923785 L 640,677.2178641244727 L 650,679.0252002127992 L 660,680.6720642708952 L 670,682.0928010257445 L 680,683.2307701863252 L 690,684.0406045132745 L 700,684.4900184675569 L 710,684.5610953330228 L 720,684.2510014993421 L 730,683.5720994291061 L 740,682.5514548054555 L 750,681.2297575087052 L 760,679.6596994392194 L 770,677.9038738576238 L 780,676.0322799890287 L 790,674.1195323748188 L 800,672.2418862263487 L 810,670.4741973703027 L 820,668.8869379831067 L 830,667.5433870876415 L 840,666.4971078182892 L 850,665.7898120277938 L 860,665.4496973673215 L 870,665.4903231350913 L 880,665.9100697099444 L 890,666.6922031205281 L 900,667.8055421759274 L 910,669.2057015613478 L 920,670.8368613405513 L 930,672.6339923205632 L 940,674.5254485603853 L 950,676.4358236685711 L 960,678.2889570180946 L 970,680.0109700302107 L 980,681.5332114802527 L 990,682.7949944053181 L 1000,683.7460155019706 L 1010,684.3483605602077 L 1020,684.5780159833668 L 1030,684.4258261344463 L 1040,683.8978583424599 L 1050,683.0151610171754 L 1060,681.8129245154394 L 1070,680.3390782126992" fill="none" stroke="#ff6464" stroke-width="3" opacity="0.59"/>
<ellipse cx="282.85814000426706" cy="604.2635503244883" rx="1.5" ry="1.5" fill="#6496ff" opacity="0.5078431372549019"/>
<ellipse cx="288.1582762152694" cy="770.9986749901431" rx="1.5" ry="1.5" fill="#6496ff" opacity="0.5078431372549019"/>
<ellipse cx="172.09681757357754" cy="99.98851423151257" rx="1.5" ry="1.5" fill="#6496ff" opacity="0.5078431372549019"/>
<ellipse cx="151.20032257922009" cy="893.4842709887234" rx="1.5" ry="1.5" fill="#6496ff" opacity="0.5078431372549019"/>
<ellipse cx="497.85820507344704" cy="627.6417377533586" rx="1.5" ry="1.5" fill="#6496ff" opacity="0.5078431372549019"/>
<ellipse cx="54.643292452508256" cy="875.6504107618939" rx="1.5" ry="1.5" fill="#6496ff" opacity="0.5078431372549019"/>
<ellipse cx="46.5216708399922" cy="277.2515640953796" rx="1.5" ry="1.5" fill="#6496ff" opacity="0.5078431372549019"/>
<ellipse cx="534.7536316023924" cy="543.9149739890895" rx="1.5" ry="1.5" fill="#6496ff" opacity="0.5078431372549019"/>
<ellipse cx="400.4991676288187" cy="6.03207350058112" rx="1.5" ry="1.5" fill="#6496ff" opacity="0.5078431372549019"/>
<ellipse cx="365.50395006570216" cy="1243.5119038650355" rx="1.5" ry="1.5" fill="#6496ff" opacity="0.5078431372549019"/>
<ellipse cx="226.02099906002218" cy="1141.8102627349133" rx="1.5" ry="1.5" fill="#6496ff" opacity="0.5078431372549019"/>
<ellipse cx="95.48179154073902" cy="940.139942308953" rx="1.5" ry="1.5" fill="#6496ff" opacity="0.5078431372549019"/>
<ellipse cx="55.30137779903662" cy="1105.8179011129857" rx="1.5" ry="1.5" fill="#6496ff" opacity="0.5078431372549019"/>
<ellipse cx="401.5398218117374" cy="643.7546256202062" rx="1.5" ry="1.5" fill="#6496ff" opacity="0.5078431372549019"/>
<ellipse cx="512.14811348922" cy="475.43206237043813" rx="1.5" ry="1.5" fill="#6496ff" opacity="0.5078431372549019"/>
<ellipse cx="97.30779652358396" cy="327.8325007892365" rx="1.5" ry="1.5" fill="#6496ff" opacity="0.5078431372549019"/>
<ellipse cx="263.5773433482169" cy="164.7920251660012" rx="1.5" ry="1.5" fill="#6496ff" opacity="0.5078431372549019"/>
<ellipse cx="496.17319308974464" cy="949.7480575692599" rx="1.5" ry="1.5" fill="#6496ff" opacity="0.5078431372549019"/>
<ellipse cx="99.5127654539015" cy="448.391734272424" rx="1.5" ry="1.5" fill="#6496ff" opacity="0.5078431372549019"/>
<ellipse cx="188.48161706164555" cy="1082.3176865849262" rx="1.5" ry="1.5" fill="#6496ff" opacity="0.5078431372549019"/>
<ellipse cx="509.37646889564417" cy="72.16086390994529" rx="1.5" ry="1.5" fill="#6496ff" opacity="0.5078431372549019"/>
<ellipse cx="291.9687242675427" cy="406.0139717562189" rx="1.5" ry="1.5" fill="#6496ff" opacity="0.5078431372549019"/>
<ellipse cx="442.94345161083316" cy="744.6610990654032" rx="1.5" ry="1.5" fill="#6496ff" opacity="0.5078431372549019"/>
<ellipse cx="137.79217964866766" cy="1033.2002704186366" rx="1.5" ry="1.5" fill="#6496ff" opacity="0.5078431372549019"/>
<ellipse cx="265.66840422603696" cy="1054.3493812225524" rx="1.5" ry="1.5" fill="#6496ff" opacity="0.5078431372549019"/>
<ellipse cx="77.44736913472757" cy="563.7999999168329" rx="1.5" ry="1.5" fill="#6496ff" opacity="0.5078431372549019"/>
<ellipse cx="419.8059227037271" cy="772.8357199452984" rx="1.5" ry="1.5" fill="#6496ff" opacity="0.5078431372549019"/>
<ellipse cx="117.22493653987765" cy="1314.1948035518615" rx="1.5" ry="1.5" fill="#6496ff" opacity="0.5078431372549019"/>
<ellipse cx="197.57971295974204" cy="130.68333870297454" rx="1.5" ry="1.5" fill="#6496ff" opacity="0.5078431372549019"/>
<ellipse cx="423.63407333550697" cy="473.73148821002405" rx="1.5" ry="1.5" fill="#6496ff" opacity="0.5078431372549019"/>
<ellipse cx="33.14933539980526" cy="795.6802953014525" rx="1.5" ry="1.5" fill="#6496ff" opacity="0.5078431372549019"/>
<ellipse cx="160.9562302385253" cy="58.09020998798786" rx="1.5" ry="1.5" fill="#6496ff" opacity="0.5078431372549019"/>
<ellipse cx="490.8612605234893" cy="238.38534962310706" rx="1.5" ry="1.5" fill="#6496ff" opacity="0.5078431372549019"/>
<ellipse cx="268.50546789751644" cy="31.987917438143825" rx="1.5" ry="1.5" fill="#6496ff" opacity="0.5078431372549019"/>
<ellipse cx="472.9453468289903" cy="1336.441434052047" rx="1.5" ry="1.5" fill="#6496ff" opacity="0.5078431372549019"/>
<ellipse cx="75.74167731951069" cy="612.5823545328259" rx="1.5" ry="1.5" fill="#6496ff" opacity="0.5078431372549019"/>
<ellipse cx="352.0766903609395" cy="3.811687232838798" rx="1.5" ry="1.5" fill="#6496ff" opacity="0.5078431372549019"/>
<ellipse cx="227.46341957126901" cy="799.6112737802841" rx="1.5" ry="1.5" fill="#6496ff" opacity="0.5078431372549019"/>
<ellipse cx="331.81135669900635" cy="377.45858448439213" rx="1.5" ry="1.5" fill="#6496ff" opacity="0.5078431372549019"/>
<ellipse cx="156.27695567732536" cy="979.5394067557246" rx="1.5" ry="1.5" fill="#6496ff" opacity="0.5078431372549019"/>
<ellipse cx="51.94220068489304" cy="469.8519276780318" rx="1.5" ry="1.5" fill="#6496ff" opacity="0.5078431372549019"/>
<ellipse cx="397.56523866093033" cy="0.27117133153191364" rx="1.5" ry="1.5" fill="#6496ff" opacity="0.5078431372549019"/>
<ellipse cx="279.28833262030423" cy="234.05819546154615" rx="1.5" ry="1.5" fill="#6496ff" opacity="0.5078431372549019"/>
<ellipse cx="415.495843484763" cy="265.16114485690423" rx="1.5" ry="1.5" fill="#6496ff" opacity="0.5078431372549019"/>
<ellipse cx="117.99923127423936" cy="621.9285520827066" rx="1.5" ry="1.5" fill="#6496ff" opacity="0.5078431372549019"/>
<ellipse cx="161.78557999515235" cy="56.71222510594512" rx="1.5" ry="1.5" fill="#6496ff" opacity="0.5078431372549019"/>
<ellipse cx="161.25902481435753" cy="1234.0366786504335" rx="1.5" ry="1.5" fill="#6496ff" opacity="0.5078431372549019"/>
<ellipse cx="78.31988099884236" cy="271.4142189693704" rx="1.5" ry="1.5" fill="#6496ff" opacity="0.5078431372549019"/>
<ellipse cx="501.20241546128057" cy="986.9995956248601" rx="1.5" ry="1.5" fill="#6496ff" opacity="0.5078431372549019"/>
<ellipse cx="529.4769432626092" cy="135.5325580274372" rx="1.5" ry="1.5" fill="#6496ff" opacity="0.5078431372549019"/>
<ellipse cx="182.9946059840706" cy="205.39707551030307" rx="1.5" ry="1.5" fill="#6496ff" opacity="0.5078431372549019"/>
<ellipse cx="199.3988461230876" cy="1024.4386200906888" rx="1.5" ry="1.5" fill="#6496ff" opacity="0.5078431372549019"/>
<ellipse cx="364.16948335439406" cy="1095.542479071553" rx="1.5" ry="1.5" fill="#6496ff" opacity="0.5078431372549019"/>
<ellipse cx="875.0399209628999" cy="384.9828245048331" rx="1.5" ry="1.5" fill="#ff9664" opacity="0.4725490196078431"/>
<ellipse cx="962.5686838210415" cy="97.41053585773824" rx="1.5" ry="1.5" fill="#ff9664" opacity="0.4725490196078431"/>
<ellipse cx="837.0341081810343" cy="175.29593118247388" rx="1.5" ry="1.5" fill="#ff9664" opacity="0.4725490196078431"/>
<ellipse cx="602.5040906958767" cy="464.1176196113777" rx="1.5" ry="1.5" fill="#ff9664" opacity="0.4725490196078431"/>
<ellipse cx="590.3121793504396" cy="741.334261345367" rx="1.5" ry="1.5" fill="#ff9664" opacity="0.4725490196078431"/>
<ellipse cx="1021.7957212784308" cy="1247.361732110084" rx="1.5" ry="1.5" fill="#ff9664" opacity="0.4725490196078431"/>
<ellipse cx="548.8466548960873" cy="1151.3584255945675" rx="1.5" ry="1.5" fill="#ff9664" opacity="0.4725490196078431"/>
<ellipse cx="564.4676685447189" cy="690.3356242414264" rx="1.5" ry="1.5" fill="#ff9664" opacity="0.4725490196078431"/>
<ellipse cx="684.9097753245894" cy="364.37106745521123" rx="1.5" ry="1.5" fill="#ff9664" opacity="0.4725490196078431"/>
<ellipse cx="614.6077466358466" cy="123.54779100210769" rx="1.5" ry="1.5" fill="#ff9664" opacity="0.4725490196078431"/>
<ellipse cx="897.3682488675081" cy="251.53369915277403" rx="1.5" ry="1.5" fill="#ff9664" opacity="0.4725490196078431"/>
<ellipse cx="686.8333215205154" cy="1141.0649841376883" rx="1.5" ry="1.5" fill="#ff9664" opacity="0.4725490196078431"/>
<ellipse cx="818.1109358175243" cy="1032.365996126256" rx="1.5" ry="1.5" fill="#ff9664" opacity="0.4725490196078431"/>
<ellipse cx="585.7784199927833" cy="476.3209330273424" rx="1.5" ry="1.5" fill="#ff9664" opacity="0.4725490196078431"/>
<ellipse cx="905.415873697687" cy="1006.5522556223684" rx="1.5" ry="1.5" fill="#ff9664" opacity="0.4725490196078431"/>
<ellipse cx="1020.4787781091774" cy="1338.879240182638" rx="1.5" ry="1.5" fill="#ff9664" opacity="0.4725490196078431"/>
<ellipse cx="787.0251418310335" cy="704.7458055916921" rx="1.5" ry="1.5" fill="#ff9664" opacity="0.4725490196078431"/>
<ellipse cx="1063.2410004191293" cy="506.7215325807787" rx="1.5" ry="1.5" fill="#ff9664" opacity="0.4725490196078431"/>
<ellipse cx="664.9100447282708" cy="1117.7373697598173" rx="1.5" ry="1.5" fill="#ff9664" opacity="0.4725490196078431"/>
<ellipse cx="704.7210861019423" cy="4.524296524247292" rx="1.5" ry="1.5" fill="#ff9664" opacity="0.4725490196078431"/>
<ellipse cx="854.036114390025" cy="871.4688603167743" rx="1.5" ry="1.5" fill="#ff9664" opacity="0.4725490196078431"/>
<ellipse cx="841.8107630227743" cy="814.0674416041317" rx="1.5" ry="1.5" fill="#ff9664" opacity="0.4725490196078431"/>
<ellipse cx="819.9975801818061" cy="974.6382062205292" rx="1.5" ry="1.5" fill="#ff9664" opacity="0.4725490196078431"/>
<ellipse cx="609.1934609735354" cy="307.6398120762966" rx="1.5" ry="1.5" fill="#ff9664" opacity="0.4725490196078431"/>
<ellipse cx="614.8204028954824" cy="134.40647280514543" rx="1.5" ry="1.5" fill="#ff9664" opacity="0.4725490196078431"/>
<ellipse cx="659.238781984541" cy="384.7572373155305" rx="1.5" ry="1.5" fill="#ff9664" opacity="0.4725490196078431"/>
<ellipse cx="861.6261936731759" cy="661.0073986747336" rx="1.5" ry="1.5" fill="#ff9664" opacity="0.4725490196078431"/>
<ellipse cx="682.2803950972298" cy="1153.2665675288376" rx="1.5" ry="1.5" fill="#ff9664" opacity="0.4725490196078431"/>
<ellipse cx="1049.7117879380062" cy="259.6931399124177" rx="1.5" ry="1.5" fill="#ff9664" opacity="0.4725490196078431"/>
<ellipse cx="932.7326436679497" cy="287.3173715022008" rx="1.5" ry="1.5" fill="#ff9664" opacity="0.4725490196078431"/>
<ellipse cx="643.3490914587626" cy="1171.3487064332462" rx="1.5" ry="1.5" fill="#ff9664" opacity="0.4725490196078431"/>
<ellipse cx="763.2841158952956" cy="205.17708072679912" rx="1.5" ry="1.5" fill="#ff9664" opacity="0.4725490196078431"/>
<ellipse cx="820.4772396201627" cy="280.6085766668471" rx="1.5" ry="1.5" fill="#ff9664" opacity="0.4725490196078431"/>
<ellipse cx="994.1720529525411" cy="431.74145241814733" rx="1.5" ry="1.5" fill="#ff9664" opacity="0.4725490196078431"/>
<ellipse cx="868.007555160675" cy="16.08746052537461" rx="1.5" ry="1.5" fill="#ff9664" opacity="0.4725490196078431"/>
<ellipse cx="573.9310310193948" cy="177.5929414562848" rx="1.5" ry="1.5" fill="#ff9664" opacity="0.4725490196078431"/>
<ellipse cx="684.060743518202" cy="110.86562281049119" rx="1.5" ry="1.5" fill="#ff9664" opacity="0.4725490196078431"/>
<ellipse cx="664.3338579518413" cy="289.0841694032234" rx="1.5" ry="1.5" fill="#ff9664" opacity="0.4725490196078431"/>
<ellipse cx="990.4309185456628" cy="357.58727805576626" rx="1.5" ry="1.5" fill="#ff9664" opacity="0.4725490196078431"/>
<ellipse cx="987.5393631158114" cy="764.7929552778569" rx="1.5" ry="1.5" fill="#ff9664" opacity="0.4725490196078431"/>
<ellipse cx="1069.8904755198819" cy="810.5003718335649" rx="1.5" ry="1.5" fill="#ff9664" opacity="0.4725490196078431"/>
<ellipse cx="1072.0111801717483" cy="941.4685611340536" rx="1.5" ry="1.5" fill="#ff9664" opacity="0.4725490196078431"/>
<ellipse cx="1066.345324761395" cy="395.5210091525321" rx="1.5" ry="1.5" fill="#ff9664" opacity="0.4725490196078431"/>
<ellipse cx="1065.7469132010579" cy="397.24878091236985" rx="1.5" ry="1.5" fill="#ff9664" opacity="0.4725490196078431"/>
<ellipse cx="1036.1363556311169" cy="856.8386439498694" rx="1.5" ry="1.5" fill="#ff9664" opacity="0.4725490196078431"/>
<ellipse cx="605.4067182845467" cy="697.0262336996506" rx="1.5" ry="1.5" fill="#ff9664" opacity="0.4725490196078431"/>
<ellipse cx="837.7311874822393" cy="364.03471844458704" rx="1.5" ry="1.5" fill="#ff9664" opacity="0.4725490196078431"/>
<line x1="90.33111338053416" y1="117.07025622812577" x2="152.03111338053418" y2="117.07025622812577" stroke="#c8c8c8" stroke-width="1" opacity="0.39"/>
<line x1="329.45701018416185" y1="152.62423760845525" x2="391.15701018416183" y2="152.62423760845525" stroke="#c8c8c8" stroke-width="1" opacity="0.39"/>
<line x1="451.604921432028" y1="63.02391889645901" x2="513.304921432028" y2="63.02391889645901" stroke="#c8c8c8" stroke-width="1" opacity="0.39"/>
<line x1="447.8032442032375" y1="1221.5584522213594" x2="509.5032442032375" y2="1221.5584522213594" stroke="#c8c8c8" stroke-width="1" opacity="0.39"/>
<line x1="282.86662114917607" y1="86.00814346503846" x2="344.56662114917606" y2="86.00814346503846" stroke="#c8c8c8" stroke-width="1" opacity="0.39"/>
<line x1="425.4513235881232" y1="265.7522500798815" x2="487.1513235881232" y2="265.7522500798815" stroke="#c8c8c8" stroke-width="1" opacity="0.39"/>
<line x1="367.859553866023" y1="552.570569772539" x2="429.559553866023" y2="552.570569772539" stroke="#c8c8c8" stroke-width="1" opacity="0.39"/>
<line x1="319.35775294870035" y1="1109.3276386658324" x2="381.05775294870034" y2="1109.3276386658324" stroke="#c8c8c8" stroke-width="1" opacity="0.39"/>
<line x1="459.0245392075854" y1="1121.9936733702168" x2="520.7245392075854" y2="1121.9936733702168" stroke="#c8c8c8" stroke-width="1" opacity="0.39"/>
<line x1="252.41599571537972" y1="610.1792695979491" x2="314.1159957153797" y2="610.1792695979491" stroke="#c8c8c8" stroke-width="1" opacity="0.39"/>
<line x1="48.30409529074286" y1="1211.1220171726877" x2="110.00409529074287" y2="1211.1220171726877" stroke="#c8c8c8" stroke-width="1" opacity="0.39"/>
<line x1="193.14718017035497" y1="168.75016101112132" x2="254.847180170355" y2="168.75016101112132" stroke="#c8c8c8" stroke-width="1" opacity="0.39"/>
<line x1="94.10802309126967" y1="874.1811368959868" x2="155.80802309126966" y2="874.1811368959868" stroke="#c8c8c8" stroke-width="1" opacity="0.39"/>
<line x1="82.78022293130877" y1="616.657810200312" x2="144.4802229313088" y2="616.657810200312" stroke="#c8c8c8" stroke-width="1" opacity="0.39"/>
<line x1="174.99604948563316" y1="30.623692288353897" x2="236.69604948563318" y2="30.623692288353897" stroke="#c8c8c8" stroke-width="1" opacity="0.39"/>
<line x1="393.06351896052416" y1="460.7667627096021" x2="454.76351896052415" y2="460.7667627096021" stroke="#c8c8c8" stroke-width="1" opacity="0.39"/>
<line x1="1.0318350796736009" y1="300.54622313498805" x2="62.7318350796736" y2="300.54622313498805" stroke="#c8c8c8" stroke-width="1" opacity="0.39"/>
<line x1="480.8795323226971" y1="1298.6570483533" x2="542.5795323226971" y2="1298.6570483533" stroke="#c8c8c8" stroke-width="1" opacity="0.39"/>
<line x1="386.89714926616153" y1="808.6007241199728" x2="448.5971492661615" y2="808.6007241199728" stroke="#c8c8c8" stroke-width="1" opacity="0.39"/>
<line x1="227.57032881843406" y1="859.6691254804233" x2="289.27032881843405" y2="859.6691254804233" stroke="#c8c8c8" stroke-width="1" opacity="0.39"/>
<line x1="352.687783405505" y1="280.0055624358382" x2="414.387783405505" y2="280.0055624358382" stroke="#c8c8c8" stroke-width="1" opacity="0.39"/>
<line x1="395.5478687936197" y1="494.41067599431176" x2="457.2478687936197" y2="494.41067599431176" stroke="#c8c8c8" stroke-width="1" opacity="0.39"/>
<line x1="458.5705163230051" y1="1135.7937996908063" x2="520.2705163230052" y2="1135.7937996908063" stroke="#c8c8c8" stroke-width="1" opacity="0.39"/>
<line x1="420.65789957561435" y1="188.02859195881922" x2="482.35789957561434" y2="188.02859195881922" stroke="#c8c8c8" stroke-width="1" opacity="0.39"/>
<line x1="70.33120575842038" y1="1193.7777137354844" x2="132.03120575842038" y2="1193.7777137354844" stroke="#c8c8c8" stroke-width="1" opacity="0.39"/>
<line x1="213.9683104557769" y1="312.2377754711722" x2="275.6683104557769" y2="312.2377754711722" stroke="#c8c8c8" stroke-width="1" opacity="0.39"/>
<line x1="214.75419233308833" y1="792.1841565483177" x2="276.4541923330883" y2="792.1841565483177" stroke="#c8c8c8" stroke-width="1" opacity="0.39"/>
<line x1="56.587035682325734" y1="1089.3261780446983" x2="118.28703568232574" y2="1089.3261780446983" stroke="#c8c8c8" stroke-width="1" opacity="0.39"/>
<line x1="496.06026672574706" y1="539.3087628014893" x2="557.7602667257471" y2="539.3087628014893" stroke="#c8c8c8" stroke-width="1" opacity="0.39"/>
<line x1="314.5633794341997" y1="556.7976238936175" x2="376.2633794341997" y2="556.7976238936175" stroke="#c8c8c8" stroke-width="1" opacity="0.39"/>
<line x1="364.10897271898995" y1="673.9874127665475" x2="425.80897271898993" y2="673.9874127665475" stroke="#c8c8c8" stroke-width="1" opacity="0.39"/>
<line x1="811.8650151565042" y1="1219.1496139481428" x2="837.5650151565043" y2="1219.1496139481428" stroke="#c8c8c8" stroke-width="1" opacity="0.39"/>
<line x1="580.4682254979705" y1="885.7901264381549" x2="606.1682254979705" y2="885.7901264381549" stroke="#c8c8c8" stroke-width="1" opacity="0.39"/>
<line x1="695.925285888801" y1="97.8848040559724" x2="721.625285888801" y2="97.8848040559724" stroke="#c8c8c8" stroke-width="1" opacity="0.39"/>
<line x1="671.7246527093112" y1="1098.4247808802988" x2="697.4246527093112" y2="1098.4247808802988" stroke="#c8c8c8" stroke-width="1" opacity="0.39"/>
<line x1="549.1042757076697" y1="33.55350440067868" x2="574.8042757076697" y2="33.55350440067868" stroke="#c8c8c8" stroke-width="1" opacity="0.39"/>
<line x1="1044.8357290890235" y1="1327.5333351118181" x2="1070.5357290890236" y2="1327.5333351118181" stroke="#c8c8c8" stroke-width="1" opacity="0.39"/>
<line x1="803.7681771552973" y1="1252.9834276311954" x2="829.4681771552973" y2="1252.9834276311954" stroke="#c8c8c8" stroke-width="1" opacity="0.39"/>
<line x1="571.8090248256033" y1="368.23558079462293" x2="597.5090248256033" y2="368.23558079462293" stroke="#c8c8c8" stroke-width="1" opacity="0.39"/>
<line x1="867.6320673560873" y1="174.8845876077584" x2="893.3320673560874" y2="174.8845876077584" stroke="#c8c8c8" stroke-width="1" opacity="0.39"/>
<line x1="640.3361124267504" y1="488.4924622664659" x2="666.0361124267505" y2="488.4924622664659" stroke="#c8c8c8" stroke-width="1" opacity="0.39"/>
<line x1="691.0484827268164" y1="1113.8640855969227" x2="716.7484827268164" y2="1113.8640855969227" stroke="#c8c8c8" stroke-width="1" opacity="0.39"/>
<line x1="756.7287541445013" y1="1292.3700577078248" x2="782.4287541445013" y2="1292.3700577078248" stroke="#c8c8c8" stroke-width="1" opacity="0.39"/>
<line x1="1079.2076971657611" y1="816.7101148593753" x2="1104.9076971657612" y2="816.7101148593753" stroke="#c8c8c8" stroke-width="1" opacity="0.39"/>
<ellipse cx="1003.8704435731612" cy="965.0607888424122" rx="12.07611203290341" ry="13.08223204981973" fill="#87f4aa" opacity="0.2978443644465154"/>
<rect x="1020.4574971229107" y="613.9243891760354" width="39.522018441707836" height="59.24624231209013" fill="#92d7e8" opacity="0.29269416667637327"/>
<ellipse cx="215.9240914396588" cy="744.3600345143863" rx="23.841310745962573" ry="14.606919907493143" fill="#b1bfaa" opacity="0.19503031996048242"/>
<line x1="81.22355464902871" y1="708.2026768048306" x2="152.02086932585615" y2="876.4040578512495" stroke="#b7aab7" stroke-width="1.0863759518071898" opacity="0.3358006291194237"/>
<line x1="851.1723701149097" y1="1234.0052968049447" x2="40.72211267460236" y2="655.1399993966985" stroke="#bd9cc2" stroke-width="2.9973993310692717" opacity="0.26320405104858074"/>
<line x1="627.13583021757" y1="710.7044938535917" x2="193.7993431993757" y2="1189.897268074517" stroke="#d0c3e3" stroke-width="1.6828039291700367" opacity="0.19965183970630027"/>
<line x1="450.45636198039" y1="76.41431096774261" x2="759.8526803217142" y2="423.335141140658" stroke="#d2f9cb" stroke-width="1.2514259816386857" opacity="0.2238703989827146"/>
<line x1="863.0239574159608" y1="356.5904618970074" x2="713.3663180812105" y2="131.9595337528547" stroke="#c9a3f1" stroke-width="2.5522475249842964" opacity="0.37947181637228217"/>
<line x1="559.4702627879894" y1="479.02117989911756" x2="1040.3356652335895" y2="409.8716856957747" stroke="#b9ebc9" stroke-width="1.7207636836547235" opacity="0.24150251878678058"/>
<line x1="315.8899785559112" y1="496.06586717817277" x2="80.2847385780349" y2="350.56486593120025" stroke="#eed1b9" stroke-width="2.3681566721611453" opacity="0.3262951328094195"/>
<line x1="310.638041640929" y1="85.11287573963072" x2="224.59555517164785" y2="419.68317945473046" stroke="#eaecc0" stroke-width="2.3958625799957023" opacity="0.37865821998303034"/>
<ellipse cx="152.10368521143855" cy="966.6862879724644" rx="2.362970591226113" ry="2.362970591226113" fill="#f0faea" opacity="0.15119436678815298"/>
<ellipse cx="842.995806132907" cy="731.9350365232374" rx="3.2820370207922704" ry="3.2820370207922704" fill="#d9e2de" opacity="0.2001812131364085"/>
<ellipse cx="566.8664648788359" cy="977.2078161021731" rx="1.8883554939592049" ry="1.8883554939592049" fill="#effed7" opacity="0.15095950111325807"/>
<ellipse cx="1047.4795251001974" cy="143.96477944402247" rx="3.412379593780441" ry="3.412379593780441" fill="#f1ccce" opacity="0.2328045509159659"/>
<ellipse cx="412.13845272182414" cy="821.834528828894" rx="3.5728285324633253" ry="3.5728285324633253" fill="#c8fae3" opacity="0.10368223752468345"/>
<ellipse cx="579.4815483407497" cy="165.56627162060062" rx="2.346828431518203" ry="2.346828431518203" fill="#d8cfe4" opacity="0.12407951731096054"/>
<ellipse cx="674.0476659098863" cy="252.3291887027813" rx="1.9163238708471524" ry="1.9163238708471524" fill="#cfcfe5" opacity="0.16531641347106563"/>
<ellipse cx="801.8055728831355" cy="1238.1068235440678" rx="3.073760987293795" ry="3.073760987293795" fill="#d8fbce" opacity="0.12280393583830629"/>
<ellipse cx="183.51704129181664" cy="760.6468904580208" rx="1.2031319142333845" ry="1.2031319142333845" fill="#dad6db" opacity="0.2174260944190922"/>
<ellipse cx="921.1805681703522" cy="925.4871551531774" rx="3.6392096293341414" ry="3.6392096293341414" fill="#e1e6d8" opacity="0.223823192140553"/>
<ellipse cx="605.4257729488545" cy="67.3362672642508" rx="1.0731138885361673" ry="1.0731138885361673" fill="#f7e2d1" opacity="0.10521973349378796"/>
</svg>