<svg xmlns="http://www.w3.org/2000/svg" width="1080" height="1350" viewBox="0 0 1080 1350">
<rect x="0" y="0" width="1080" height="1350" fill="#10410910e"/>
<ellipse cx="506.4128961537093" cy="824.9891284969584" rx="25.07427951779017" ry="15.905679899579734" fill="#a9a9a9"/>
<ellipse cx="525.403127991034" cy="824.9891284969584" rx="20.059423614232138" ry="7.952839949789867" fill="#a9a9a9"/>
<ellipse cx="485.2025610551563" cy="824.9891284969584" rx="17.55199566245312" ry="6.362271959831894" fill="#a9a9a9"/>
<ellipse cx="534.2828395470432" cy="1118.7631135428153" rx="26.053624483732236" ry="18.991930698262994" fill="#a9a9a9"/>
<ellipse cx="547.69096876266" cy="1118.7631135428153" rx="20.84289958698579" ry="9.495965349131497" fill="#a9a9a9"/>
<ellipse cx="515.7196058230603" cy="1118.7631135428153" rx="18.237537138612563" ry="7.596772279305199" fill="#a9a9a9"/>
<ellipse cx="270.88184607721956" cy="1251.9043749440016" rx="17.848458792953355" ry="7.657001255138343" fill="#a9a9a9"/>
<ellipse cx="283.54354891691133" cy="1251.9043749440016" rx="14.278767034362684" ry="3.8285006275691713" fill="#a9a9a9"/>
<ellipse cx="258.99535151895316" cy="1251.9043749440016" rx="12.493921155067348" ry="3.062800502055337" fill="#a9a9a9"/>
<ellipse cx="369.9268128210338" cy="980.4578487670319" rx="29.224947931536555" ry="26.447339588604823" fill="#a9a9a9"/>
<ellipse cx="388.87559290337504" cy="980.4578487670319" rx="23.379958345229245" ry="13.223669794302412" fill="#a9a9a9"/>
<ellipse cx="343.4691582080144" cy="980.4578487670319" rx="20.457463552075588" ry="10.57893583544193" fill="#a9a9a9"/>
<ellipse cx="85.97808126638554" cy="622.818468801127" rx="41.14406065479895" ry="28.967267457280506" fill="#a9a9a9"/>
<ellipse cx="109.77869732812688" cy="622.818468801127" rx="32.91524852383916" ry="14.483633728640253" fill="#a9a9a9"/>
<ellipse cx="66.33415679230455" cy="622.818468801127" rx="28.800842458359263" ry="11.586906982912202" fill="#a9a9a9"/>
<ellipse cx="230.2989863186604" cy="1080.872190501947" rx="26.415141117070647" ry="12.179908107737425" fill="#a9a9a9"/>
<ellipse cx="245.8800407340146" cy="1080.872190501947" rx="21.132112893656515" ry="6.089954053868713" fill="#a9a9a9"/>
<ellipse cx="212.49070894808824" cy="1080.872190501947" rx="18.49059878194945" ry="4.87196324309497" fill="#a9a9a9"/>
<ellipse cx="376.38967054727937" cy="840.1003722288182" rx="32.136002150738825" ry="19.45605806546198" fill="#a9a9a9"/>
<ellipse cx="396.5380902373234" cy="840.1003722288182" rx="25.708801720591058" ry="9.72802903273099" fill="#a9a9a9"/>
<ellipse cx="353.9806268154749" cy="840.1003722288182" rx="22.495201505517176" ry="7.782423226184792" fill="#a9a9a9"/>
<ellipse cx="121.69416194860551" cy="38.13477607357073" rx="13.952029146036466" ry="7.840155530259552" fill="#a9a9a9"/>
<ellipse cx="128.48064281297516" cy="38.13477607357073" rx="11.161623316829173" ry="3.920077765129776" fill="#a9a9a9"/>
<ellipse cx="112.80515478140971" cy="38.13477607357073" rx="9.766420402225526" ry="3.136062212103821" fill="#a9a9a9"/>
<ellipse cx="117.83165221932887" cy="1117.5527801353264" rx="22.479773049565665" ry="14.278965083689528" fill="#a9a9a9"/>
<ellipse cx="128.7997978325878" cy="1117.5527801353264" rx="17.98381843965253" ry="7.139482541844764" fill="#a9a9a9"/>
<ellipse cx="107.06485421342275" cy="1117.5527801353264" rx="15.735841134695963" ry="5.711586033475811" fill="#a9a9a9"/>
<ellipse cx="381.518365322388" cy="211.72220716798782" rx="20.63139874748366" ry="13.533599139403412" fill="#a9a9a9"/>
<ellipse cx="393.92993126824564" cy="211.72220716798782" rx="16.50511899798693" ry="6.766799569701706" fill="#a9a9a9"/>
<ellipse cx="371.4316992499093" cy="211.72220716798782" rx="14.441979123238562" ry="5.4134396557613655" fill="#a9a9a9"/>
<ellipse cx="990.1841445873417" cy="195.2134252503577" rx="13.977816423975524" ry="7.587548278436582" fill="#a9a9a9"/>
<ellipse cx="1002.4481945190669" cy="195.2134252503577" rx="11.18225313918042" ry="3.793774139218291" fill="#a9a9a9"/>
<ellipse cx="978.1509390698227" cy="195.2134252503577" rx="9.784471496782865" ry="3.035019311374633" fill="#a9a9a9"/>
<ellipse cx="651.5353274864775" cy="1200.2112736926467" rx="23.79466759183844" ry="19.883024018011497" fill="#a9a9a9"/>
<ellipse cx="672.6844241659009" cy="1200.2112736926467" rx="19.035734073470753" ry="9.941512009005748" fill="#a9a9a9"/>
<ellipse cx="636.1977056157663" cy="1200.2112736926467" rx="16.65626731428691" ry="7.953209607204599" fill="#a9a9a9"/>
<ellipse cx="803.008010537833" cy="1226.1799520003517" rx="34.0440474712181" ry="16.17887120594191" fill="#a9a9a9"/>
<ellipse cx="829.9635519833015" cy="1226.1799520003517" rx="27.23523797697448" ry="8.089435602970955" fill="#a9a9a9"/>
<ellipse cx="783.129722383585" cy="1226.1799520003517" rx="23.830833229852672" ry="6.471548482376765" fill="#a9a9a9"/>
<ellipse cx="791.0470552421394" cy="807.6423708385055" rx="29.13252516255565" ry="20.227764273097563" fill="#a9a9a9"/>
<ellipse cx="811.839476422057" cy="807.6423708385055" rx="23.30602013004452" ry="10.113882136548781" fill="#a9a9a9"/>
<ellipse cx="774.7538439659309" cy="807.6423708385055" rx="20.39276761378895" ry="8.091105709239026" fill="#a9a9a9"/>
<ellipse cx="1017.6132776577087" cy="1160.6853967349443" rx="30.01921390762929" ry="21.41499340619194" fill="#a9a9a9"/>
<ellipse cx="1041.7525592610193" cy="1160.6853967349443" rx="24.01537112610343" ry="10.70749670309597" fill="#a9a9a9"/>
<ellipse cx="999.0724321019568" cy="1160.6853967349443" rx="21.0134497353405" ry="8.565997362476775" fill="#a9a9a9"/>
<ellipse cx="794.4263650171581" cy="139.07790190497315" rx="34.39596337551388" ry="24.493584281208125" fill="#a9a9a9"/>
<ellipse cx="819.697081969957" cy="139.07790190497315" rx="27.516770700411104" ry="12.246792140604063" fill="#a9a9a9"/>
<ellipse cx="773.7341995977276" cy="139.07790190497315" rx="24.077174362859715" ry="9.797433712483251" fill="#a9a9a9"/>
<ellipse cx="588.7249016988673" cy="626.9788968502445" rx="27.58034813445815" ry="20.956294314989783" fill="#a9a9a9"/>
<ellipse cx="606.6214091291857" cy="626.9788968502445" rx="22.06427850756652" ry="10.478147157494892" fill="#a9a9a9"/>
<ellipse cx="567.4129101305174" cy="626.9788968502445" rx="19.306243694120703" ry="8.382517725995914" fill="#a9a9a9"/>
<ellipse cx="1056.5989925882773" cy="1168.3686381058621" rx="41.39270129839802" ry="24.883571134881347" fill="#a9a9a9"/>
<ellipse cx="1075.722974417607" cy="1168.3686381058621" rx="33.11416103871842" ry="12.441785567440673" fill="#a9a9a9"/>
<ellipse cx="1037.4298399860295" cy="1168.3686381058621" rx="28.974890908878617" ry="9.95342845395254" fill="#a9a9a9"/>
<ellipse cx="1071.1452383786186" cy="217.57757673858552" rx="39.715356967028484" ry="23.390914614982805" fill="#a9a9a9"/>
<ellipse cx="1091.5410303565131" cy="217.57757673858552" rx="31.77228557362279" ry="11.695457307491402" fill="#a9a9a9"/>
<ellipse cx="1046.9830162456853" cy="217.57757673858552" rx="27.800749876919937" ry="9.356365845993121" fill="#a9a9a9"/>
<ellipse cx="756.8465567644903" cy="159.8655582218736" rx="27.320400830770662" ry="17.38657205422985" fill="#a9a9a9"/>
<ellipse cx="778.7667166514325" cy="159.8655582218736" rx="21.85632066461653" ry="8.693286027114924" fill="#a9a9a9"/>
<ellipse cx="737.6967057308887" cy="159.8655582218736" rx="19.124280581539463" ry="6.954628821691939" fill="#a9a9a9"/>
<path d="M 0,675 L 10,671.0822407967214 L 20,667.3206702896734 L 30,663.86525042465 L 40,660.8537378874614 L 50,658.4061921795883 L 60,656.6201892247263 L 70,655.5669313246276 L 80,655.2884085480215 L 90,655.795724719082 L 100,657.0686547429975 L 110,659.0564509166777 L 120,661.6798660795313 L 130,664.8343129476807 L 140,668.3940336789256 L 150,672.2171134410594 L 160,676.1511381083919 L 170,680.0392705319691 L 180,683.7265031417745 L 190,687.0658376093904 L 200,689.9241452074723 L 210,692.1874742319959 L 220,693.7655928971012 L 230,694.5955865916519 L 240,694.6443660862428 L 250,693.9099866963571 L 260,692.4217258108014 L 270,690.2389156946041 L 280,687.4485780988422 L 290,684.1619549780393 L 300,680.5100736244829 L 310,676.638523023561 L 320,672.7016496803483 L 330,668.8564043115161 L 340,665.2560847155466 L 350,662.0442242732655 L 360,659.3488697248947 L 370,657.2774763505947 L 380,655.9126240675391 L 390,655.3087252292128 L 400,655.4898553765869 L 410,656.4487934222749 L 420,658.1473095324991 L 430,660.5176892299224 L 440,663.4654329561745 L 450,666.8730234710325 L 460,670.6046108939431 L 470,674.5114286100597 L 480,678.4377241257172 L 490,682.2269684288481 L 500,685.7280963067384 L 510,688.8015288393447 L 520,691.3247379703691 L 530,693.1971313142045" fill="none" stroke="#ff6464" stroke-width="3" opacity="0.59"/>
<path d="M 540,663.6015210066274 L 550,663.3801137998809 L 560,663.6219547872616 L 570,664.3174025317765 L 580,665.4387317264636 L 590,666.9412385148898 L 600,668.7650226928349 L 610,670.8373757404081 L 620,673.0756794812906 L 630,675.3906998087097 L 640,677.6901441676799 L 650,679.8823409679255 L 660,681.8798942408979 L 670,683.6031678412475 L 680,684.9834602886325 L 690,685.9657436789405 L 700,686.5108574731744 L 710,686.5970697045641 L 720,686.2209433635026 L 730,685.3974734202726 L 740,684.1594890229012 L 750,682.5563447026257 L 760,680.6519527644812 L 770,678.522235305385 L 780,676.2520974397196 L 790,673.9320424003544 L 800,671.6545634603519 L 810,669.5104565180499 L 820,667.5852003511169 L 830,665.9555488474315 L 840,664.6864710697829 L 850,663.8285611443596 L 860,663.4160212325967 L 870,663.4652979989312 L 880,663.9744269341915 L 890,664.9231106743775 L 900,666.2735281925131 L 910,667.971842603639 L 920,669.9503474715247 L 930,672.1301660506205 L 940,674.4243958529934 L 950,676.7415731762835 L 960,678.9893194728871 L 970,681.0780241911325 L 980,682.9244172651918 L 990,684.4548888298326 L 1000,685.608423813455 L 1010,686.3390344164523 L 1020,686.6175934996578 L 1030,686.4329957914683 L 1040,685.7926006199775 L 1050,684.721938519789 L 1060,683.2636934101675 L 1070,681.4760009218752" fill="none" stroke="#ff6464" stroke-width="3" opacity="0.59"/>
<ellipse cx="399.61584109795086" cy="1274.352694151156" rx="1.5" ry="1.5" fill="#6496ff" opacity="0.49019607843137253"/>
<ellipse cx="59.11451342474414" cy="986.4714552585368" rx="1.5" ry="1.5" fill="#6496ff" opacity="0.49019607843137253"/>
<ellipse cx="91.29040007073917" cy="383.2549320455896" rx="1.5" ry="1.5" fill="#6496ff" opacity="0.49019607843137253"/>
<ellipse cx="94.72553734421987" cy="1203.7262013199395" rx="1.5" ry="1.5" fill="#6496ff" opacity="0.49019607843137253"/>
<ellipse cx="97.57925753368961" cy="685.1704943390426" rx="1.5" ry="1.5" fill="#6496ff" opacity="0.49019607843137253"/>
<ellipse cx="270.09707463444073" cy="1075.545001530808" rx="1.5" ry="1.5" fill="#6496ff" opacity="0.49019607843137253"/>
<ellipse cx="288.0473615080339" cy="245.31848442057077" rx="1.5" ry="1.5" fill="#6496ff" opacity="0.49019607843137253"/>
<ellipse cx="284.9368734494489" cy="569.2169490126972" rx="1.5" ry="1.5" fill="#6496ff" opacity="0.49019607843137253"/>
<ellipse cx="142.16259247724088" cy="935.7710663861461" rx="1.5" ry="1.5" fill="#6496ff" opacity="0.49019607843137253"/>
<ellipse cx="122.46702438335261" cy="734.7200143778325" rx="1.5" ry="1.5" fill="#6496ff" opacity="0.49019607843137253"/>
<ellipse cx="398.00741691049535" cy="1248.209202870824" rx="1.5" ry="1.5" fill="#6496ff" opacity="0.49019607843137253"/>
<ellipse cx="250.33983719085336" cy="605.7175758321386" rx="1.5" ry="1.5" fill="#6496ff" opacity="0.49019607843137253"/>
<ellipse cx="93.583817525573" cy="91.7042300532126" rx="1.5" ry="1.5" fill="#6496ff" opacity="0.49019607843137253"/>
<ellipse cx="259.0365995182826" cy="1120.6948672983306" rx="1.5" ry="1.5" fill="#6496ff" opacity="0.49019607843137253"/>
<ellipse cx="52.43298056183056" cy="1309.5708897847546" rx="1.5" ry="1.5" fill="#6496ff" opacity="0.49019607843137253"/>
<ellipse cx="425.10298510319694" cy="294.85883130452544" rx="1.5" ry="1.5" fill="#6496ff" opacity="0.49019607843137253"/>
<ellipse cx="246.36694383172642" cy="189.43176278352354" rx="1.5" ry="1.5" fill="#6496ff" opacity="0.49019607843137253"/>
<ellipse cx="108.60295956423644" cy="1288.6234676878078" rx="1.5" ry="1.5" fill="#6496ff" opacity="0.49019607843137253"/>
<ellipse cx="138.43636042365634" cy="396.7125536858628" rx="1.5" ry="1.5" fill="#6496ff" opacity="0.49019607843137253"/>
<ellipse cx="408.5527469630133" cy="1175.9376173726923" rx="1.5" ry="1.5" fill="#6496ff" opacity="0.49019607843137253"/>
<ellipse cx="14.191288954667415" cy="550.9657856779945" rx="1.5" ry="1.5" fill="#6496ff" opacity="0.49019607843137253"/>
<ellipse cx="34.382271782673094" cy="980.6209136641681" rx="1.5" ry="1.5" fill="#6496ff" opacity="0.49019607843137253"/>
<ellipse cx="36.13598586811497" cy="600.0088560394984" rx="1.5" ry="1.5" fill="#6496ff" opacity="0.49019607843137253"/>
<ellipse cx="466.5125372198003" cy="1114.8962264484242" rx="1.5" ry="1.5" fill="#6496ff" opacity="0.49019607843137253"/>
<ellipse cx="342.364282767458" cy="53.63752844447155" rx="1.5" ry="1.5" fill="#6496ff" opacity="0.49019607843137253"/>
<ellipse cx="406.01633746457117" cy="656.4616981225375" rx="1.5" ry="1.5" fill="#6496ff" opacity="0.49019607843137253"/>
<ellipse cx="339.7934176119945" cy="1227.2070234768125" rx="1.5" ry="1.5" fill="#6496ff" opacity="0.49019607843137253"/>
<ellipse cx="158.85013826137882" cy="850.4124466564565" rx="1.5" ry="1.5" fill="#6496ff" opacity="0.49019607843137253"/>
<ellipse cx="154.46401841680705" cy="918.8422505365883" rx="1.5" ry="1.5" fill="#6496ff" opacity="0.49019607843137253"/>
<ellipse cx="318.03276315239856" cy="311.8085683844092" rx="1.5" ry="1.5" fill="#6496ff" opacity="0.49019607843137253"/>
<ellipse cx="269.440421587527" cy="806.5259818018069" rx="1.5" ry="1.5" fill="#6496ff" opacity="0.49019607843137253"/>
<ellipse cx="136.9797278088423" cy="606.5550687753387" rx="1.5" ry="1.5" fill="#6496ff" opacity="0.49019607843137253"/>
<ellipse cx="305.5721427433063" cy="1218.837726683746" rx="1.5" ry="1.5" fill="#6496ff" opacity="0.49019607843137253"/>
<ellipse cx="320.1389838755778" cy="1002.5109176535676" rx="1.5" ry="1.5" fill="#6496ff" opacity="0.49019607843137253"/>
<ellipse cx="357.8018333193855" cy="382.58074539833734" rx="1.5" ry="1.5" fill="#6496ff" opacity="0.49019607843137253"/>
<ellipse cx="217.57680426238886" cy="25.313079368934538" rx="1.5" ry="1.5" fill="#6496ff" opacity="0.49019607843137253"/>
<ellipse cx="227.4058054701452" cy="652.3925188241492" rx="1.5" ry="1.5" fill="#6496ff" opacity="0.49019607843137253"/>
<ellipse cx="204.46582326873477" cy="583.6498620843747" rx="1.5" ry="1.5" fill="#6496ff" opacity="0.49019607843137253"/>
<ellipse cx="160.93833453996962" cy="467.67286084018315" rx="1.5" ry="1.5" fill="#6496ff" opacity="0.49019607843137253"/>
<ellipse cx="407.837176512851" cy="275.2928139061168" rx="1.5" ry="1.5" fill="#6496ff" opacity="0.49019607843137253"/>
<ellipse cx="517.1569939875775" cy="1094.7991316648197" rx="1.5" ry="1.5" fill="#6496ff" opacity="0.49019607843137253"/>
<ellipse cx="296.92806972979014" cy="806.6719476164654" rx="1.5" ry="1.5" fill="#6496ff" opacity="0.49019607843137253"/>
<ellipse cx="237.63949166873445" cy="870.9690038445262" rx="1.5" ry="1.5" fill="#6496ff" opacity="0.49019607843137253"/>
<ellipse cx="286.9384075547282" cy="1263.053459517217" rx="1.5" ry="1.5" fill="#6496ff" opacity="0.49019607843137253"/>
<ellipse cx="231.28355752270835" cy="113.24452763108748" rx="1.5" ry="1.5" fill="#6496ff" opacity="0.49019607843137253"/>
<ellipse cx="278.21768237194874" cy="457.6251985773562" rx="1.5" ry="1.5" fill="#6496ff" opacity="0.49019607843137253"/>
<ellipse cx="396.4461137710354" cy="1309.0639120475687" rx="1.5" ry="1.5" fill="#6496ff" opacity="0.49019607843137253"/>
<ellipse cx="380.4630662782411" cy="304.9530030716923" rx="1.5" ry="1.5" fill="#6496ff" opacity="0.49019607843137253"/>
<ellipse cx="116.57903378670059" cy="677.7286920127127" rx="1.5" ry="1.5" fill="#6496ff" opacity="0.49019607843137253"/>
<ellipse cx="64.67415335805815" cy="1137.1361782481597" rx="1.5" ry="1.5" fill="#6496ff" opacity="0.49019607843137253"/>
<ellipse cx="601.4222216892159" cy="610.6497156483352" rx="1.5" ry="1.5" fill="#ff9664" opacity="0.49019607843137253"/>
<ellipse cx="803.6278439795728" cy="706.1855081031963" rx="1.5" ry="1.5" fill="#ff9664" opacity="0.49019607843137253"/>
<ellipse cx="930.8289243610711" cy="1096.4095836022914" rx="1.5" ry="1.5" fill="#ff9664" opacity="0.49019607843137253"/>
<ellipse cx="582.3329830366806" cy="1163.8828446920415" rx="1.5" ry="1.5" fill="#ff9664" opacity="0.49019607843137253"/>
<ellipse cx="765.4259992695535" cy="1293.6895436112256" rx="1.5" ry="1.5" fill="#ff9664" opacity="0.49019607843137253"/>
<ellipse cx="782.9225851236482" cy="134.82461577971682" rx="1.5" ry="1.5" fill="#ff9664" opacity="0.49019607843137253"/>
<ellipse cx="597.9645055802374" cy="1267.2418093621925" rx="1.5" ry="1.5" fill="#ff9664" opacity="0.49019607843137253"/>
<ellipse cx="1032.5521948246994" cy="635.4099515059078" rx="1.5" ry="1.5" fill="#ff9664" opacity="0.49019607843137253"/>
<ellipse cx="693.98926742095" cy="1115.684152169006" rx="1.5" ry="1.5" fill="#ff9664" opacity="0.49019607843137253"/>
<ellipse cx="1000.0381567236213" cy="824.5533231760157" rx="1.5" ry="1.5" fill="#ff9664" opacity="0.49019607843137253"/>
<ellipse cx="646.5777683754347" cy="114.01945804898602" rx="1.5" ry="1.5" fill="#ff9664" opacity="0.49019607843137253"/>
<ellipse cx="610.044504436685" cy="445.9044413854855" rx="1.5" ry="1.5" fill="#ff9664" opacity="0.49019607843137253"/>
<ellipse cx="881.1861921945523" cy="1187.1702259346705" rx="1.5" ry="1.5" fill="#ff9664" opacity="0.49019607843137253"/>
<ellipse cx="707.5865865534109" cy="182.71813997194084" rx="1.5" ry="1.5" fill="#ff9664" opacity="0.49019607843137253"/>
<ellipse cx="741.2784094555668" cy="400.35864133404505" rx="1.5" ry="1.5" fill="#ff9664" opacity="0.49019607843137253"/>
<ellipse cx="1069.5534184060775" cy="852.13619510277" rx="1.5" ry="1.5" fill="#ff9664" opacity="0.49019607843137253"/>
<ellipse cx="809.7305346791309" cy="354.5508028727727" rx="1.5" ry="1.5" fill="#ff9664" opacity="0.49019607843137253"/>
<ellipse cx="665.9644747366963" cy="1139.090543025681" rx="1.5" ry="1.5" fill="#ff9664" opacity="0.49019607843137253"/>
<ellipse cx="771.5348697786848" cy="577.2349300688295" rx="1.5" ry="1.5" fill="#ff9664" opacity="0.49019607843137253"/>
<ellipse cx="1032.3398282436374" cy="586.3565864909239" rx="1.5" ry="1.5" fill="#ff9664" opacity="0.49019607843137253"/>
<ellipse cx="779.0381885687998" cy="200.06312737244326" rx="1.5" ry="1.5" fill="#ff9664" opacity="0.49019607843137253"/>
<ellipse cx="766.0281605580952" cy="947.5527767779085" rx="1.5" ry="1.5" fill="#ff9664" opacity="0.49019607843137253"/>
<ellipse cx="871.8392945881185" cy="893.7935833324649" rx="1.5" ry="1.5" fill="#ff9664" opacity="0.49019607843137253"/>
<ellipse cx="872.5087739585474" cy="71.63686755655188" rx="1.5" ry="1.5" fill="#ff9664" opacity="0.49019607843137253"/>
<ellipse cx="606.3588112901705" cy="111.71220844225596" rx="1.5" ry="1.5" fill="#ff9664" opacity="0.49019607843137253"/>
<ellipse cx="624.4999963438604" cy="1111.189467232297" rx="1.5" ry="1.5" fill="#ff9664" opacity="0.49019607843137253"/>
<ellipse cx="721.3098836789419" cy="489.3087925805286" rx="1.5" ry="1.5" fill="#ff9664" opacity="0.49019607843137253"/>
<ellipse cx="1049.4902160156007" cy="824.3819300198844" rx="1.5" ry="1.5" fill="#ff9664" opacity="0.49019607843137253"/>
<ellipse cx="662.3411107632988" cy="236.675642540993" rx="1.5" ry="1.5" fill="#ff9664" opacity="0.49019607843137253"/>
<ellipse cx="1057.0179643654346" cy="376.1250974499272" rx="1.5" ry="1.5" fill="#ff9664" opacity="0.49019607843137253"/>
<ellipse cx="567.934284223213" cy="960.3179861606648" rx="1.5" ry="1.5" fill="#ff9664" opacity="0.49019607843137253"/>
<ellipse cx="793.0108667598156" cy="325.27540341265285" rx="1.5" ry="1.5" fill="#ff9664" opacity="0.49019607843137253"/>
<ellipse cx="688.8991159894034" cy="562.0475652450917" rx="1.5" ry="1.5" fill="#ff9664" opacity="0.49019607843137253"/>
<ellipse cx="1029.7129585639168" cy="594.2314985181351" rx="1.5" ry="1.5" fill="#ff9664" opacity="0.49019607843137253"/>
<ellipse cx="967.4441673361903" cy="755.429256314146" rx="1.5" ry="1.5" fill="#ff9664" opacity="0.49019607843137253"/>
<ellipse cx="729.3968726086416" cy="404.09420747500576" rx="1.5" ry="1.5" fill="#ff9664" opacity="0.49019607843137253"/>
<ellipse cx="862.8879691673852" cy="943.4551124197687" rx="1.5" ry="1.5" fill="#ff9664" opacity="0.49019607843137253"/>
<ellipse cx="617.4413824442036" cy="453.15678587796015" rx="1.5" ry="1.5" fill="#ff9664" opacity="0.49019607843137253"/>
<ellipse cx="883.4705330540755" cy="292.38626374508544" rx="1.5" ry="1.5" fill="#ff9664" opacity="0.49019607843137253"/>
<ellipse cx="808.4213967381145" cy="916.9337515332428" rx="1.5" ry="1.5" fill="#ff9664" opacity="0.49019607843137253"/>
<ellipse cx="980.3214742803581" cy="407.4702503194428" rx="1.5" ry="1.5" fill="#ff9664" opacity="0.49019607843137253"/>
<ellipse cx="620.8378315348355" cy="1124.7401883475204" rx="1.5" ry="1.5" fill="#ff9664" opacity="0.49019607843137253"/>
<ellipse cx="631.0815740055784" cy="617.3776614560642" rx="1.5" ry="1.5" fill="#ff9664" opacity="0.49019607843137253"/>
<ellipse cx="648.7900114566041" cy="325.46775803224546" rx="1.5" ry="1.5" fill="#ff9664" opacity="0.49019607843137253"/>
<ellipse cx="830.9262193604029" cy="1062.3131280123782" rx="1.5" ry="1.5" fill="#ff9664" opacity="0.49019607843137253"/>
<ellipse cx="911.7675592246314" cy="74.46541789661414" rx="1.5" ry="1.5" fill="#ff9664" opacity="0.49019607843137253"/>
<ellipse cx="574.3808716695667" cy="715.2285489790274" rx="1.5" ry="1.5" fill="#ff9664" opacity="0.49019607843137253"/>
<ellipse cx="776.0253382828205" cy="1000.2314691432898" rx="1.5" ry="1.5" fill="#ff9664" opacity="0.49019607843137253"/>
<ellipse cx="985.7567455460116" cy="306.38562455139385" rx="1.5" ry="1.5" fill="#ff9664" opacity="0.49019607843137253"/>
<ellipse cx="973.5506077639528" cy="59.38555601024328" rx="1.5" ry="1.5" fill="#ff9664" opacity="0.49019607843137253"/>
<line x1="523.8385912235075" y1="163.2119894787725" x2="631.8385912235075" y2="163.2119894787725" stroke="#c8c8c8" stroke-width="1" opacity="0.39"/>
<line x1="109.09760182215722" y1="719.0799865494855" x2="217.09760182215723" y2="719.0799865494855" stroke="#c8c8c8" stroke-width="1" opacity="0.39"/>
<line x1="284.900164736854" y1="609.3321207022909" x2="392.900164736854" y2="609.3321207022909" stroke="#c8c8c8" stroke-width="1" opacity="0.39"/>
<line x1="400.0207473710276" y1="1136.673296027199" x2="508.0207473710276" y2="1136.673296027199" stroke="#c8c8c8" stroke-width="1" opacity="0.39"/>
<line x1="286.5295745276518" y1="718.4830072887628" x2="394.5295745276518" y2="718.4830072887628" stroke="#c8c8c8" stroke-width="1" opacity="0.39"/>
<line x1="278.960337768756" y1="487.0671632173784" x2="386.960337768756" y2="487.0671632173784" stroke="#c8c8c8" stroke-width="1" opacity="0.39"/>
<line x1="99.6006346212703" y1="112.67116522075197" x2="207.6006346212703" y2="112.67116522075197" stroke="#c8c8c8" stroke-width="1" opacity="0.39"/>
<line x1="194.04946455454896" y1="600.7997187789529" x2="302.049464554549" y2="600.7997187789529" stroke="#c8c8c8" stroke-width="1" opacity="0.39"/>
<line x1="462.22616336412085" y1="631.623530682001" x2="570.2261633641208" y2="631.623530682001" stroke="#c8c8c8" stroke-width="1" opacity="0.39"/>
<line x1="53.50092890369749" y1="448.5055135788887" x2="161.50092890369748" y2="448.5055135788887" stroke="#c8c8c8" stroke-width="1" opacity="0.39"/>
<line x1="368.1579710767409" y1="1255.6811398154503" x2="476.1579710767409" y2="1255.6811398154503" stroke="#c8c8c8" stroke-width="1" opacity="0.39"/>
<line x1="240.03352414818178" y1="1263.1316727321278" x2="348.03352414818175" y2="1263.1316727321278" stroke="#c8c8c8" stroke-width="1" opacity="0.39"/>
<line x1="201.27324352100177" y1="631.4971986373408" x2="309.27324352100175" y2="631.4971986373408" stroke="#c8c8c8" stroke-width="1" opacity="0.39"/>
<line x1="498.64104532573424" y1="158.63233216043204" x2="606.6410453257342" y2="158.63233216043204" stroke="#c8c8c8" stroke-width="1" opacity="0.39"/>
<line x1="362.9731269380884" y1="737.4621037102594" x2="470.9731269380884" y2="737.4621037102594" stroke="#c8c8c8" stroke-width="1" opacity="0.39"/>
<line x1="450.0378086278391" y1="1039.894259460221" x2="558.0378086278391" y2="1039.894259460221" stroke="#c8c8c8" stroke-width="1" opacity="0.39"/>
<line x1="167.19307430423473" y1="618.0733325975357" x2="275.19307430423476" y2="618.0733325975357" stroke="#c8c8c8" stroke-width="1" opacity="0.39"/>
<line x1="432.695203028943" y1="646.1631420283406" x2="540.6952030289431" y2="646.1631420283406" stroke="#c8c8c8" stroke-width="1" opacity="0.39"/>
<line x1="161.33667476537482" y1="295.739615101246" x2="269.3366747653748" y2="295.739615101246" stroke="#c8c8c8" stroke-width="1" opacity="0.39"/>
<line x1="325.0779552781386" y1="939.5281974875966" x2="433.0779552781386" y2="939.5281974875966" stroke="#c8c8c8" stroke-width="1" opacity="0.39"/>
<line x1="240.8604599166943" y1="1130.0427144067562" x2="348.8604599166943" y2="1130.0427144067562" stroke="#c8c8c8" stroke-width="1" opacity="0.39"/>
<line x1="67.34222176826663" y1="497.12854497932295" x2="175.34222176826663" y2="497.12854497932295" stroke="#c8c8c8" stroke-width="1" opacity="0.39"/>
<line x1="421.5608598764804" y1="980.9572224416571" x2="529.5608598764804" y2="980.9572224416571" stroke="#c8c8c8" stroke-width="1" opacity="0.39"/>
<line x1="81.26140598266451" y1="25.625650596630596" x2="189.2614059826645" y2="25.625650596630596" stroke="#c8c8c8" stroke-width="1" opacity="0.39"/>
<line x1="533.3059448251994" y1="1074.231470131423" x2="641.3059448251994" y2="1074.231470131423" stroke="#c8c8c8" stroke-width="1" opacity="0.39"/>
<line x1="218.71440420798697" y1="930.5483226340955" x2="326.71440420798695" y2="930.5483226340955" stroke="#c8c8c8" stroke-width="1" opacity="0.39"/>
<line x1="443.09402009616326" y1="391.91354531418233" x2="551.0940200961633" y2="391.91354531418233" stroke="#c8c8c8" stroke-width="1" opacity="0.39"/>
<line x1="309.9263335717499" y1="560.3107812629597" x2="417.9263335717499" y2="560.3107812629597" stroke="#c8c8c8" stroke-width="1" opacity="0.39"/>
<line x1="109.44816117614887" y1="1297.1475413521507" x2="217.44816117614886" y2="1297.1475413521507" stroke="#c8c8c8" stroke-width="1" opacity="0.39"/>
<line x1="251.92643892575356" y1="359.19386761225473" x2="359.9264389257536" y2="359.19386761225473" stroke="#c8c8c8" stroke-width="1" opacity="0.39"/>
<line x1="94.42626719103487" y1="463.07779423104495" x2="202.42626719103487" y2="463.07779423104495" stroke="#c8c8c8" stroke-width="1" opacity="0.39"/>
<line x1="206.791877842877" y1="938.8315205177439" x2="314.791877842877" y2="938.8315205177439" stroke="#c8c8c8" stroke-width="1" opacity="0.39"/>
<line x1="358.1745530842685" y1="738.7550357444003" x2="466.1745530842685" y2="738.7550357444003" stroke="#c8c8c8" stroke-width="1" opacity="0.39"/>
<line x1="353.9413835266332" y1="890.3921131465547" x2="461.9413835266332" y2="890.3921131465547" stroke="#c8c8c8" stroke-width="1" opacity="0.39"/>
<line x1="150.9820175873963" y1="277.42195142313" x2="258.9820175873963" y2="277.42195142313" stroke="#c8c8c8" stroke-width="1" opacity="0.39"/>
<line x1="420.2095576097302" y1="502.78850221204965" x2="528.2095576097302" y2="502.78850221204965" stroke="#c8c8c8" stroke-width="1" opacity="0.39"/>
<line x1="357.34227435539583" y1="76.32370594717734" x2="465.34227435539583" y2="76.32370594717734" stroke="#c8c8c8" stroke-width="1" opacity="0.39"/>
<line x1="251.35804128430692" y1="153.5280347585343" x2="359.3580412843069" y2="153.5280347585343" stroke="#c8c8c8" stroke-width="1" opacity="0.39"/>
<line x1="284.81907082946" y1="351.7214478700056" x2="392.81907082946" y2="351.7214478700056" stroke="#c8c8c8" stroke-width="1" opacity="0.39"/>
<line x1="294.91782917404447" y1="60.797899989782785" x2="402.91782917404447" y2="60.797899989782785" stroke="#c8c8c8" stroke-width="1" opacity="0.39"/>
<line x1="188.5906166716435" y1="810.5071310002855" x2="296.5906166716435" y2="810.5071310002855" stroke="#c8c8c8" stroke-width="1" opacity="0.39"/>
<line x1="29.41769601284419" y1="69.58920213840399" x2="137.4176960128442" y2="69.58920213840399" stroke="#c8c8c8" stroke-width="1" opacity="0.39"/>
<line x1="64.54550388480793" y1="849.8193700098523" x2="172.54550388480794" y2="849.8193700098523" stroke="#c8c8c8" stroke-width="1" opacity="0.39"/>
<line x1="186.1934781941555" y1="77.87638310244138" x2="294.1934781941555" y2="77.87638310244138" stroke="#c8c8c8" stroke-width="1" opacity="0.39"/>
<line x1="435.5977340580885" y1="441.80327674457953" x2="543.5977340580885" y2="441.80327674457953" stroke="#c8c8c8" stroke-width="1" opacity="0.39"/>
<line x1="520.631318334784" y1="48.378574870703076" x2="628.631318334784" y2="48.378574870703076" stroke="#c8c8c8" stroke-width="1" opacity="0.39"/>
<line x1="410.53699691339256" y1="548.7234773806871" x2="518.5369969133926" y2="548.7234773806871" stroke="#c8c8c8" stroke-width="1" opacity="0.39"/>
<line x1="178.8156867859958" y1="554.0188017087145" x2="286.8156867859958" y2="554.0188017087145" stroke="#c8c8c8" stroke-width="1" opacity="0.39"/>
<line x1="247.00628053723196" y1="791.6440669408274" x2="355.006280537232" y2="791.6440669408274" stroke="#c8c8c8" stroke-width="1" opacity="0.39"/>
<line x1="410.4854180340122" y1="749.499053111998" x2="518.4854180340121" y2="749.499053111998" stroke="#c8c8c8" stroke-width="1" opacity="0.39"/>
<line x1="194.80851897728095" y1="867.9981891382478" x2="302.808518977281" y2="867.9981891382478" stroke="#c8c8c8" stroke-width="1" opacity="0.39"/>
<line x1="20.169675359581447" y1="689.0940296878546" x2="128.16967535958145" y2="689.0940296878546" stroke="#c8c8c8" stroke-width="1" opacity="0.39"/>
<line x1="357.974739241402" y1="834.5987323832692" x2="465.974739241402" y2="834.5987323832692" stroke="#c8c8c8" stroke-width="1" opacity="0.39"/>
<line x1="285.49999250355177" y1="720.8747867126366" x2="393.49999250355177" y2="720.8747867126366" stroke="#c8c8c8" stroke-width="1" opacity="0.39"/>
<line x1="941.2375261267822" y1="152.02846534178985" x2="982.4375261267822" y2="152.02846534178985" stroke="#c8c8c8" stroke-width="1" opacity="0.39"/>
<line x1="780.2020044253217" y1="348.6795009806191" x2="821.4020044253217" y2="348.6795009806191" stroke="#c8c8c8" stroke-width="1" opacity="0.39"/>
<line x1="688.7757611967511" y1="176.61686547874328" x2="729.9757611967511" y2="176.61686547874328" stroke="#c8c8c8" stroke-width="1" opacity="0.39"/>
<line x1="815.663232335664" y1="366.829312018505" x2="856.8632323356641" y2="366.829312018505" stroke="#c8c8c8" stroke-width="1" opacity="0.39"/>
<line x1="654.7156763610968" y1="665.0283384439667" x2="695.9156763610969" y2="665.0283384439667" stroke="#c8c8c8" stroke-width="1" opacity="0.39"/>
<line x1="875.2840878140573" y1="891.1087457514875" x2="916.4840878140574" y2="891.1087457514875" stroke="#c8c8c8" stroke-width="1" opacity="0.39"/>
<line x1="632.6776385738876" y1="23.160968731698098" x2="673.8776385738877" y2="23.160968731698098" stroke="#c8c8c8" stroke-width="1" opacity="0.39"/>
<line x1="1049.00133313099" y1="784.54082644756" x2="1090.20133313099" y2="784.54082644756" stroke="#c8c8c8" stroke-width="1" opacity="0.39"/>
<line x1="622.6566911128614" y1="554.5682656367161" x2="663.8566911128614" y2="554.5682656367161" stroke="#c8c8c8" stroke-width="1" opacity="0.39"/>
<line x1="835.344300407611" y1="1279.736531376716" x2="876.544300407611" y2="1279.736531376716" stroke="#c8c8c8" stroke-width="1" opacity="0.39"/>
<line x1="720.0094843749001" y1="799.4855049995173" x2="761.2094843749002" y2="799.4855049995173" stroke="#c8c8c8" stroke-width="1" opacity="0.39"/>
<line x1="1005.068650462231" y1="994.1726808409079" x2="1046.2686504622309" y2="994.1726808409079" stroke="#c8c8c8" stroke-width="1" opacity="0.39"/>
<line x1="1063.839669471532" y1="771.0429314389094" x2="1105.039669471532" y2="771.0429314389094" stroke="#c8c8c8" stroke-width="1" opacity="0.39"/>
<line x1="738.4490061730374" y1="562.6829269168353" x2="779.6490061730375" y2="562.6829269168353" stroke="#c8c8c8" stroke-width="1" opacity="0.39"/>
<line x1="765.9254695037033" y1="987.568009359561" x2="807.1254695037034" y2="987.568009359561" stroke="#c8c8c8" stroke-width="1" opacity="0.39"/>
<line x1="1078.0439617755096" y1="1257.4840670719202" x2="1119.2439617755097" y2="1257.4840670719202" stroke="#c8c8c8" stroke-width="1" opacity="0.39"/>
<line x1="1024.91922877958" y1="706.8244102908412" x2="1066.11922877958" y2="706.8244102908412" stroke="#c8c8c8" stroke-width="1" opacity="0.39"/>
<line x1="712.3496104089309" y1="68.76164677960875" x2="753.5496104089309" y2="68.76164677960875" stroke="#c8c8c8" stroke-width="1" opacity="0.39"/>
<line x1="1022.9108067615473" y1="321.17258921320206" x2="1064.1108067615473" y2="321.17258921320206" stroke="#c8c8c8" stroke-width="1" opacity="0.39"/>
<line x1="663.1438583709038" y1="592.8427311558476" x2="704.3438583709038" y2="592.8427311558476" stroke="#c8c8c8" stroke-width="1" opacity="0.39"/>
<line x1="745.31248936677" y1="249.07859277402918" x2="786.5124893667701" y2="249.07859277402918" stroke="#c8c8c8" stroke-width="1" opacity="0.39"/>
<ellipse cx="232.96955119491068" cy="655.8542180135167" rx="10.854598284165654" ry="6.3357313376920805" fill="#d6b3bb" opacity="0.2777036971190076"/>
<rect x="412.85732885024385" y="1015.9969906816245" width="48.77558232693727" height="64.23935208861346" fill="#f27fe5" opacity="0.20503742558677945"/>
<ellipse cx="1016.6615872348946" cy="996.4794878831503" rx="15.484480860403032" ry="12.179265588900806" fill="#e898a7" opacity="0.23233565751909768"/>
<ellipse cx="214.89502439968987" cy="336.60509452997013" rx="29.678366193398073" ry="16.259219002305304" fill="#e58e68" opacity="0.2548728924810605"/>
<ellipse cx="43.95779015680672" cy="789.9562869174202" rx="34.24543858703479" ry="37.16278499317849" fill="#f0eac6" opacity="0.24866311696487514"/>
<line x1="272.0594216659942" y1="468.1405308042376" x2="1003.4522442722005" y2="1085.2563147830108" stroke="#d3c1e3" stroke-width="1.6022024753513757" opacity="0.19423050975669684"/>
<line x1="981.4720778267235" y1="1299.0981644480946" x2="281.94956315772123" y2="800.9475771342161" stroke="#fbe5bc" stroke-width="2.2445657259060843" opacity="0.3121470377280094"/>
<line x1="703.257565825832" y1="261.27961290128513" x2="448.0098333060787" y2="266.19561923024975" stroke="#f6aaf3" stroke-width="2.25450134335761" opacity="0.28224915155003893"/>
<line x1="336.6739656108776" y1="1291.5132528597085" x2="749.2586520822991" y2="444.94628926969426" stroke="#a8e2be" stroke-width="2.9232185491934506" opacity="0.19234388951476536"/>
<line x1="817.2862533560424" y1="59.19646027460529" x2="626.1221161420094" y2="640.7904091481075" stroke="#fc97b1" stroke-width="1.1442308426574948" opacity="0.376588971109422"/>
<line x1="862.7246228897593" y1="290.51011218247476" x2="136.59686929387829" y2="118.60124772349431" stroke="#dea6d2" stroke-width="2.8461744793905757" opacity="0.3505384315195828"/>
<line x1="1073.9341311687297" y1="298.3406068283788" x2="947.4946157576026" y2="1196.3176315633198" stroke="#e2a1cd" stroke-width="1.6981197002800739" opacity="0.17648212583370898"/>
<line x1="936.9890360427039" y1="336.87381164025226" x2="50.54170134036881" y2="989.2106880383616" stroke="#b2dfbe" stroke-width="1.2307653428198608" opacity="0.23311977764015532"/>
<line x1="918.4304563507579" y1="879.2824570458768" x2="687.4866917950505" y2="21.482402096261456" stroke="#aadaa9" stroke-width="2.999619961716058" opacity="0.2426065721163137"/>
<line x1="503.5306265314718" y1="603.9254310559135" x2="562.4551108118403" y2="800.0133637338939" stroke="#c6c4fd" stroke-width="1.4467616679364637" opacity="0.16631977231335177"/>
<line x1="658.7740734306975" y1="78.76231674047295" x2="571.3321819581706" y2="720.4677883165274" stroke="#dac3a6" stroke-width="1.2989460156759927" opacity="0.1609184204382241"/>
<ellipse cx="134.99588018981547" cy="65.36440107289907" rx="3.1792395721093003" ry="3.1792395721093003" fill="#f1dacf" opacity="0.19880673002724794"/>
<ellipse cx="1069.5232920858653" cy="387.195325078068" rx="1.372045993978179" ry="1.372045993978179" fill="#eddedf" opacity="0.12983641907336865"/>
<ellipse cx="626.412663751474" cy="386.1568273911983" rx="3.0857697735008642" ry="3.0857697735008642" fill="#d2e8dc" opacity="0.22588800923351243"/>
<ellipse cx="348.5167981817" cy="1291.2625199608797" rx="3.800936461799283" ry="3.800936461799283" fill="#d0f0e5" opacity="0.2071464576572588"/>
<ellipse cx="705.5010941929655" cy="1004.490870705103" rx="1.9338682894287018" ry="1.9338682894287018" fill="#d5fad9" opacity="0.21035295380396293"/>
<ellipse cx="481.8031885483317" cy="1106.3977008249599" rx="3.6105818760630592" ry="3.6105818760630592" fill="#ccdada" opacity="0.1803194495282875"/>
<ellipse cx="415.529236987014" cy="931.0853545233074" rx="3.187234521930681" ry="3.187234521930681" fill="#dee8f3" opacity="0.216397734313585"/>
<ellipse cx="419.564137654176" cy="1026.3361756812485" rx="1.2930356265478933" ry="1.2930356265478933" fill="#dccbd0" opacity="0.1503899051028969"/>
<ellipse cx="519.3279578719885" cy="1349.4987762297965" rx="3.4110498439572052" ry="3.4110498439572052" fill="#ede5fa" opacity="0.17740331916181964"/>
<ellipse cx="681.5310290649212" cy="554.337930937455" rx="2.969759942018315" ry="2.969759942018315" fill="#edefd3" opacity="0.23130065794190804"/>
<ellipse cx="146.13859183440852" cy="171.26638152229899" rx="3.6174295556812686" ry="3.6174295556812686" fill="#eef8cc" opacity="0.15668746073009937"/>
<ellipse cx="589.3237641217764" cy="207.92242894318068" rx="2.4653176970152733" ry="2.4653176970152733" fill="#f9d6d4" opacity="0.20514432595113585"/>
<ellipse cx="1000.0763945468126" cy="591.4314332378243" rx="1.213846802811067" ry="1.213846802811067" fill="#fdf6ee" opacity="0.15521617967777854"/>
<ellipse cx="241.27444278508165" cy="797.802190854122" rx="2.20437514838035" ry="2.20437514838035" fill="#e0f5e2" opacity="0.1398593117495088"/>
<ellipse cx="351.06996075765693" cy="671.5375366953842" rx="3.9734042896765307" ry="3.9734042896765307" fill="#e7ecf3" opacity="0.10662774480000956"/>
<ellipse cx="206.12912545266056" cy="137.01530999365045" rx="2.5688768930588277" ry="2.5688768930588277" fill="#def2ce" opacity="0.2199616386100252"/>
<ellipse cx="253.7277890433221" cy="298.8430784544177" rx="2.7413864739897598" ry="2.7413864739897598" fill="#d3e0de" opacity="0.12161088459305242"/>
<ellipse cx="444.58927652080973" cy="469.727164725646" rx="1.497796178095879" ry="1.497796178095879" fill="#cbd2fe" opacity="0.18628449538522227"/>
<ellipse cx="266.55758870139607" cy="1231.827557660559" rx="2.014575243468664" ry="2.014575243468664" fill="#d8eff6" opacity="0.22558590016953137"/>
<ellipse cx="370.4370977219367" cy="524.2046001014321" rx="2.6482145793960497" ry="2.6482145793960497" fill="#d2f9ca" opacity="0.12465782261177412"/>
<ellipse cx="199.6794320082662" cy="89.32596896278018" rx="2.175402463029792" ry="2.175402463029792" fill="#f3dbfc" opacity="0.13617758660107063"/>
</svg>