<svg xmlns="http://www.w3.org/2000/svg" width="1080" height="1350" viewBox="0 0 1080 1350">
<rect x="0" y="0" width="1080" height="1350" fill="#edf2f7"/>
<ellipse cx="275.24260295333465" cy="627.6312771381956" rx="18.608716442055044" ry="12.078485265454297" fill="#a9a9a9"/>
<ellipse cx="289.3615845461262" cy="627.6312771381956" rx="14.886973153644036" ry="6.039242632727149" fill="#a9a9a9"/>
<ellipse cx="259.08871819051245" cy="627.6312771381956" rx="13.026101509438531" ry="4.831394106181719" fill="#a9a9a9"/>
<ellipse cx="251.4404870250451" cy="1132.8968530208324" rx="25.09422923359983" ry="12.220742766970794" fill="#a9a9a9"/>
<ellipse cx="265.7649938657278" cy="1132.8968530208324" rx="20.075383386879867" ry="6.110371383485397" fill="#a9a9a9"/>
<ellipse cx="235.7526067887047" cy="1132.8968530208324" rx="17.56596046351988" ry="4.888297106788318" fill="#a9a9a9"/>
<ellipse cx="484.10928748739383" cy="849.1586212297709" rx="38.58880846647291" ry="20.559453764532147" fill="#a9a9a9"/>
<ellipse cx="513.2839669768698" cy="849.1586212297709" rx="30.871046773178332" ry="10.279726882266074" fill="#a9a9a9"/>
<ellipse cx="456.0741397942244" cy="849.1586212297709" rx="27.012165926531036" ry="8.223781505812859" fill="#a9a9a9"/>
<ellipse cx="6.623210910066595" cy="166.77120875882508" rx="24.279949497279354" ry="15.732891404522999" fill="#a9a9a9"/>
<ellipse cx="27.42571617568226" cy="166.77120875882508" rx="19.423959597823487" ry="7.866445702261499" fill="#a9a9a9"/>
<ellipse cx="-10.738022588524172" cy="166.77120875882508" rx="16.995964648095548" ry="6.2931565618092" fill="#a9a9a9"/>
<ellipse cx="13.318712717536238" cy="101.83927365664358" rx="33.49157350766326" ry="14.522298035533055" fill="#a9a9a9"/>
<ellipse cx="33.88401199780782" cy="101.83927365664358" rx="26.79325880613061" ry="7.261149017766527" fill="#a9a9a9"/>
<ellipse cx="-8.685574451755953" cy="101.83927365664358" rx="23.44410145536428" ry="5.808919214213223" fill="#a9a9a9"/>
<ellipse cx="283.904829157472" cy="896.2635759712493" rx="30.004317193536597" ry="24.55765474161246" fill="#a9a9a9"/>
<ellipse cx="302.512355191188" cy="896.2635759712493" rx="24.003453754829277" ry="12.27882737080623" fill="#a9a9a9"/>
<ellipse cx="264.5000073545508" cy="896.2635759712493" rx="21.003022035475613" ry="9.823061896644985" fill="#a9a9a9"/>
<ellipse cx="414.66641326186544" cy="1027.1487240805984" rx="19.259021870461726" ry="16.08174540938891" fill="#a9a9a9"/>
<ellipse cx="431.2687633697474" cy="1027.1487240805984" rx="15.40721749636938" ry="8.040872704694454" fill="#a9a9a9"/>
<ellipse cx="400.8231825250706" cy="1027.1487240805984" rx="13.481315309323207" ry="6.432698163755562" fill="#a9a9a9"/>
<ellipse cx="17.66498566496418" cy="37.30034084864908" rx="11.657623935169124" ry="6.856837056874547" fill="#a9a9a9"/>
<ellipse cx="27.854349033278815" cy="37.30034084864908" rx="9.3260991481353" ry="3.4284185284372737" fill="#a9a9a9"/>
<ellipse cx="6.933819582156611" cy="37.30034084864908" rx="8.160336754618386" ry="2.7427348227498194" fill="#a9a9a9"/>
<ellipse cx="334.74702373833725" cy="154.05138738176385" rx="31.732867906105547" ry="13.969276099701329" fill="#a9a9a9"/>
<ellipse cx="353.21787888390713" cy="154.05138738176385" rx="25.38629432488444" ry="6.984638049850664" fill="#a9a9a9"/>
<ellipse cx="309.93135299631945" cy="154.05138738176385" rx="22.21300753427388" ry="5.587710439880532" fill="#a9a9a9"/>
<ellipse cx="12.768130308374824" cy="247.20046475864967" rx="24.543254019042013" ry="10.884007899992678" fill="#a9a9a9"/>
<ellipse cx="29.08079775581688" cy="247.20046475864967" rx="19.634603215233614" ry="5.442003949996339" fill="#a9a9a9"/>
<ellipse cx="-2.9052578941683027" cy="247.20046475864967" rx="17.18027781332941" ry="4.353603159997071" fill="#a9a9a9"/>
<ellipse cx="1054.7045590890127" cy="603.1090202755803" rx="10.986072384132408" ry="5.222368429040522" fill="#a9a9a9"/>
<ellipse cx="1062.0515687064715" cy="603.1090202755803" rx="8.788857907305927" ry="2.611184214520261" fill="#a9a9a9"/>
<ellipse cx="1046.7182335945067" cy="603.1090202755803" rx="7.690250668892684" ry="2.0889473716162086" fill="#a9a9a9"/>
<ellipse cx="899.1357709649651" cy="300.30848993934154" rx="20.76886109470671" ry="12.52774190920381" fill="#a9a9a9"/>
<ellipse cx="913.7260921308672" cy="300.30848993934154" rx="16.61508887576537" ry="6.263870954601905" fill="#a9a9a9"/>
<ellipse cx="888.3143839662893" cy="300.30848993934154" rx="14.538202766294697" ry="5.0110967636815245" fill="#a9a9a9"/>
<ellipse cx="1025.8534884480077" cy="1122.8705947859542" rx="23.42511034877112" ry="16.351065958704158" fill="#a9a9a9"/>
<ellipse cx="1041.0325838767683" cy="1122.8705947859542" rx="18.7400882790169" ry="8.175532979352079" fill="#a9a9a9"/>
<ellipse cx="1011.5775567177101" cy="1122.8705947859542" rx="16.397577244139786" ry="6.540426383481663" fill="#a9a9a9"/>
<ellipse cx="967.939646443324" cy="375.5455793698996" rx="12.72750931855235" ry="6.453722471223033" fill="#a9a9a9"/>
<ellipse cx="976.5309183986574" cy="375.5455793698996" rx="10.18200745484188" ry="3.2268612356115165" fill="#a9a9a9"/>
<ellipse cx="958.502620957045" cy="375.5455793698996" rx="8.909256522986645" ry="2.5814889884892134" fill="#a9a9a9"/>
<ellipse cx="722.8856707470891" cy="1218.719924063757" rx="29.944436669316666" ry="16.812118601075134" fill="#a9a9a9"/>
<ellipse cx="737.7918926597846" cy="1218.719924063757" rx="23.955549335453334" ry="8.406059300537567" fill="#a9a9a9"/>
<ellipse cx="708.4123309440062" cy="1218.719924063757" rx="20.961105668521665" ry="6.724847440430054" fill="#a9a9a9"/>
<ellipse cx="980.5633558894338" cy="914.909863898023" rx="16.99812035122267" ry="9.12035383959365" fill="#a9a9a9"/>
<ellipse cx="993.9282900350825" cy="914.909863898023" rx="13.598496280978138" ry="4.560176919796825" fill="#a9a9a9"/>
<ellipse cx="970.595166849398" cy="914.909863898023" rx="11.898684245855868" ry="3.6481415358374596" fill="#a9a9a9"/>
<ellipse cx="853.4605570107049" cy="316.07843056138535" rx="27.12927465298388" ry="14.958383704362973" fill="#a9a9a9"/>
<ellipse cx="877.5419093392792" cy="316.07843056138535" rx="21.703419722387107" ry="7.479191852181486" fill="#a9a9a9"/>
<ellipse cx="832.4092778872475" cy="316.07843056138535" rx="18.990492257088714" ry="5.98335348174519" fill="#a9a9a9"/>
<ellipse cx="727.0728779710237" cy="827.3059133567409" rx="43.41672695224711" ry="27.647657554195312" fill="#a9a9a9"/>
<ellipse cx="748.7944097764176" cy="827.3059133567409" rx="34.73338156179769" ry="13.823828777097656" fill="#a9a9a9"/>
<ellipse cx="702.2700386526603" cy="827.3059133567409" rx="30.391708866572976" ry="11.059063021678126" fill="#a9a9a9"/>
<ellipse cx="930.3409125238381" cy="1091.7192046957646" rx="34.57118902179261" ry="21.260939569037532" fill="#a9a9a9"/>
<ellipse cx="949.0335714826082" cy="1091.7192046957646" rx="27.65695121743409" ry="10.630469784518766" fill="#a9a9a9"/>
<ellipse cx="911.7565883225112" cy="1091.7192046957646" rx="24.199832315254827" ry="8.504375827615013" fill="#a9a9a9"/>
<ellipse cx="603.7572884856525" cy="827.552341310099" rx="28.294862979429652" ry="21.757943556816535" fill="#a9a9a9"/>
<ellipse cx="626.1540860464548" cy="827.552341310099" rx="22.635890383543725" ry="10.878971778408268" fill="#a9a9a9"/>
<ellipse cx="583.6169484273455" cy="827.552341310099" rx="19.806404085600757" ry="8.703177422726615" fill="#a9a9a9"/>
<path d="M 0,675 L 10,671.0822407967214 L 20,667.3206702896734 L 30,663.86525042465 L 40,660.8537378874614 L 50,658.4061921795883 L 60,656.6201892247263 L 70,655.5669313246276 L 80,655.2884085480215 L 90,655.795724719082 L 100,657.0686547429975 L 110,659.0564509166777 L 120,661.6798660795313 L 130,664.8343129476807 L 140,668.3940336789256 L 150,672.2171134410594 L 160,676.1511381083919 L 170,680.0392705319691 L 180,683.7265031417745 L 190,687.0658376093904 L 200,689.9241452074723 L 210,692.1874742319959 L 220,693.7655928971012 L 230,694.5955865916519 L 240,694.6443660862428 L 250,693.9099866963571 L 260,692.4217258108014 L 270,690.2389156946041 L 280,687.4485780988422 L 290,684.1619549780393 L 300,680.5100736244829 L 310,676.638523023561 L 320,672.7016496803483 L 330,668.8564043115161 L 340,665.2560847155466 L 350,662.0442242732655 L 360,659.3488697248947 L 370,657.2774763505947 L 380,655.9126240675391 L 390,655.3087252292128 L 400,655.4898553765869 L 410,656.4487934222749 L 420,658.1473095324991 L 430,660.5176892299224 L 440,663.4654329561745 L 450,666.8730234710325 L 460,670.6046108939431 L 470,674.5114286100597 L 480,678.4377241257172 L 490,682.2269684288481 L 500,685.7280963067384 L 510,688.8015288393447 L 520,691.3247379703691 L 530,693.1971313142045" fill="none" stroke="#ff6464" stroke-width="3" opacity="0.59"/>
<path d="M 540,663.6015210066274 L 550,663.3801137998809 L 560,663.6219547872616 L 570,664.3174025317765 L 580,665.4387317264636 L 590,666.9412385148898 L 600,668.7650226928349 L 610,670.8373757404081 L 620,673.0756794812906 L 630,675.3906998087097 L 640,677.6901441676799 L 650,679.8823409679255 L 660,681.8798942408979 L 670,683.6031678412475 L 680,684.9834602886325 L 690,685.9657436789405 L 700,686.5108574731744 L 710,686.5970697045641 L 720,686.2209433635026 L 730,685.3974734202726 L 740,684.1594890229012 L 750,682.5563447026257 L 760,680.6519527644812 L 770,678.522235305385 L 780,676.2520974397196 L 790,673.9320424003544 L 800,671.6545634603519 L 810,669.5104565180499 L 820,667.5852003511169 L 830,665.9555488474315 L 840,664.6864710697829 L 850,663.8285611443596 L 860,663.4160212325967 L 870,663.4652979989312 L 880,663.9744269341915 L 890,664.9231106743775 L 900,666.2735281925131 L 910,667.971842603639 L 920,669.9503474715247 L 930,672.1301660506205 L 940,674.4243958529934 L 950,676.7415731762835 L 960,678.9893194728871 L 970,681.0780241911325 L 980,682.9244172651918 L 990,684.4548888298326 L 1000,685.608423813455 L 1010,686.3390344164523 L 1020,686.6175934996578 L 1030,686.4329957914683 L 1040,685.7926006199775 L 1050,684.721938519789 L 1060,683.2636934101675 L 1070,681.4760009218752" fill="none" stroke="#ff6464" stroke-width="3" opacity="0.59"/>
<ellipse cx="252.41522323918306" cy="1162.0317583726867" rx="1.5" ry="1.5" fill="#6496ff" opacity="0.49019607843137253"/>
<ellipse cx="456.51888391772235" cy="147.51559502795135" rx="1.5" ry="1.5" fill="#6496ff" opacity="0.49019607843137253"/>
<ellipse cx="465.11810503207056" cy="623.491448454322" rx="1.5" ry="1.5" fill="#6496ff" opacity="0.49019607843137253"/>
<ellipse cx="10.437505250069082" cy="1244.6460306852339" rx="1.5" ry="1.5" fill="#6496ff" opacity="0.49019607843137253"/>
<ellipse cx="480.12878201907915" cy="836.5442458710374" rx="1.5" ry="1.5" fill="#6496ff" opacity="0.49019607843137253"/>
<ellipse cx="342.3422028228372" cy="864.9211589549302" rx="1.5" ry="1.5" fill="#6496ff" opacity="0.49019607843137253"/>
<ellipse cx="14.155690676605184" cy="894.66796503154" rx="1.5" ry="1.5" fill="#6496ff" opacity="0.49019607843137253"/>
<ellipse cx="306.2804390426169" cy="678.5934630216069" rx="1.5" ry="1.5" fill="#6496ff" opacity="0.49019607843137253"/>
<ellipse cx="61.195886163597876" cy="303.4288512093149" rx="1.5" ry="1.5" fill="#6496ff" opacity="0.49019607843137253"/>
<ellipse cx="530.5608882990483" cy="615.2718189243561" rx="1.5" ry="1.5" fill="#6496ff" opacity="0.49019607843137253"/>
<ellipse cx="74.29920676830187" cy="605.129246695493" rx="1.5" ry="1.5" fill="#6496ff" opacity="0.49019607843137253"/>
<ellipse cx="505.15829825082716" cy="196.16212257936695" rx="1.5" ry="1.5" fill="#6496ff" opacity="0.49019607843137253"/>
<ellipse cx="82.8388828424918" cy="982.2344635530535" rx="1.5" ry="1.5" fill="#6496ff" opacity="0.49019607843137253"/>
<ellipse cx="496.1855366156369" cy="372.23020809340767" rx="1.5" ry="1.5" fill="#6496ff" opacity="0.49019607843137253"/>
<ellipse cx="355.73185460443227" cy="13.29914332055447" rx="1.5" ry="1.5" fill="#6496ff" opacity="0.49019607843137253"/>
<ellipse cx="237.13823307172314" cy="362.8896834155962" rx="1.5" ry="1.5" fill="#6496ff" opacity="0.49019607843137253"/>
<ellipse cx="66.3463068317372" cy="860.4493666721737" rx="1.5" ry="1.5" fill="#6496ff" opacity="0.49019607843137253"/>
<ellipse cx="212.47685203909728" cy="313.9299811394559" rx="1.5" ry="1.5" fill="#6496ff" opacity="0.49019607843137253"/>
<ellipse cx="515.4569669978027" cy="246.6632367329035" rx="1.5" ry="1.5" fill="#6496ff" opacity="0.49019607843137253"/>
<ellipse cx="115.62373822351161" cy="485.3061588878307" rx="1.5" ry="1.5" fill="#6496ff" opacity="0.49019607843137253"/>
<ellipse cx="170.29582150759913" cy="564.8216399200362" rx="1.5" ry="1.5" fill="#6496ff" opacity="0.49019607843137253"/>
<ellipse cx="226.9705976112609" cy="1185.3948986089765" rx="1.5" ry="1.5" fill="#6496ff" opacity="0.49019607843137253"/>
<ellipse cx="300.4441882578862" cy="249.60733663738117" rx="1.5" ry="1.5" fill="#6496ff" opacity="0.49019607843137253"/>
<ellipse cx="285.9762401720398" cy="1226.6936486711231" rx="1.5" ry="1.5" fill="#6496ff" opacity="0.49019607843137253"/>
<ellipse cx="69.16475060822664" cy="343.1573020029614" rx="1.5" ry="1.5" fill="#6496ff" opacity="0.49019607843137253"/>
<ellipse cx="306.8033410547317" cy="282.94644368949645" rx="1.5" ry="1.5" fill="#6496ff" opacity="0.49019607843137253"/>
<ellipse cx="33.802029506211184" cy="686.6932782748218" rx="1.5" ry="1.5" fill="#6496ff" opacity="0.49019607843137253"/>
<ellipse cx="304.9734736909035" cy="954.5163278256153" rx="1.5" ry="1.5" fill="#6496ff" opacity="0.49019607843137253"/>
<ellipse cx="246.6000224308111" cy="207.56531963477158" rx="1.5" ry="1.5" fill="#6496ff" opacity="0.49019607843137253"/>
<ellipse cx="357.4462528701156" cy="16.554325826724213" rx="1.5" ry="1.5" fill="#6496ff" opacity="0.49019607843137253"/>
<ellipse cx="264.7953914593884" cy="512.7801599506197" rx="1.5" ry="1.5" fill="#6496ff" opacity="0.49019607843137253"/>
<ellipse cx="290.22220386668215" cy="288.1247700602397" rx="1.5" ry="1.5" fill="#6496ff" opacity="0.49019607843137253"/>
<ellipse cx="470.21792850932945" cy="201.84996137481647" rx="1.5" ry="1.5" fill="#6496ff" opacity="0.49019607843137253"/>
<ellipse cx="510.42216026709514" cy="345.7202734172904" rx="1.5" ry="1.5" fill="#6496ff" opacity="0.49019607843137253"/>
<ellipse cx="177.56105669660542" cy="229.4355691547671" rx="1.5" ry="1.5" fill="#6496ff" opacity="0.49019607843137253"/>
<ellipse cx="315.8585162441519" cy="40.490949172755215" rx="1.5" ry="1.5" fill="#6496ff" opacity="0.49019607843137253"/>
<ellipse cx="10.342569132495006" cy="712.1577247568209" rx="1.5" ry="1.5" fill="#6496ff" opacity="0.49019607843137253"/>
<ellipse cx="159.08844716804495" cy="28.919738544579474" rx="1.5" ry="1.5" fill="#6496ff" opacity="0.49019607843137253"/>
<ellipse cx="40.201799664740356" cy="14.55427632413538" rx="1.5" ry="1.5" fill="#6496ff" opacity="0.49019607843137253"/>
<ellipse cx="338.46191608275376" cy="388.2726075073111" rx="1.5" ry="1.5" fill="#6496ff" opacity="0.49019607843137253"/>
<ellipse cx="500.28300785472754" cy="412.6802804007569" rx="1.5" ry="1.5" fill="#6496ff" opacity="0.49019607843137253"/>
<ellipse cx="88.42238907163143" cy="986.0816766443111" rx="1.5" ry="1.5" fill="#6496ff" opacity="0.49019607843137253"/>
<ellipse cx="454.1813065736468" cy="711.6335574126028" rx="1.5" ry="1.5" fill="#6496ff" opacity="0.49019607843137253"/>
<ellipse cx="57.085797813295294" cy="726.5694249079421" rx="1.5" ry="1.5" fill="#6496ff" opacity="0.49019607843137253"/>
<ellipse cx="265.3785325332445" cy="574.4956972890047" rx="1.5" ry="1.5" fill="#6496ff" opacity="0.49019607843137253"/>
<ellipse cx="440.04673024641664" cy="33.00533296214665" rx="1.5" ry="1.5" fill="#6496ff" opacity="0.49019607843137253"/>
<ellipse cx="189.23093305399217" cy="83.54716304854823" rx="1.5" ry="1.5" fill="#6496ff" opacity="0.49019607843137253"/>
<ellipse cx="203.05980393805532" cy="270.03241193947963" rx="1.5" ry="1.5" fill="#6496ff" opacity="0.49019607843137253"/>
<ellipse cx="12.233399754498805" cy="402.4637144070415" rx="1.5" ry="1.5" fill="#6496ff" opacity="0.49019607843137253"/>
<ellipse cx="40.276973266283505" cy="1052.7687420382952" rx="1.5" ry="1.5" fill="#6496ff" opacity="0.49019607843137253"/>
<ellipse cx="603.1033230121728" cy="804.1715789605731" rx="1.5" ry="1.5" fill="#ff9664" opacity="0.49019607843137253"/>
<ellipse cx="726.1945081624177" cy="1142.073065574315" rx="1.5" ry="1.5" fill="#ff9664" opacity="0.49019607843137253"/>
<ellipse cx="611.3113332126808" cy="212.06712583641854" rx="1.5" ry="1.5" fill="#ff9664" opacity="0.49019607843137253"/>
<ellipse cx="665.9421051135017" cy="638.5688561194431" rx="1.5" ry="1.5" fill="#ff9664" opacity="0.49019607843137253"/>
<ellipse cx="1072.7548172570555" cy="1141.4729481290435" rx="1.5" ry="1.5" fill="#ff9664" opacity="0.49019607843137253"/>
<ellipse cx="1031.5756561661026" cy="93.93085245691745" rx="1.5" ry="1.5" fill="#ff9664" opacity="0.49019607843137253"/>
<ellipse cx="685.5176658115897" cy="1212.8283446714415" rx="1.5" ry="1.5" fill="#ff9664" opacity="0.49019607843137253"/>
<ellipse cx="735.9314418751427" cy="108.43071346563787" rx="1.5" ry="1.5" fill="#ff9664" opacity="0.49019607843137253"/>
<ellipse cx="971.9389005526616" cy="16.11514092242119" rx="1.5" ry="1.5" fill="#ff9664" opacity="0.49019607843137253"/>
<ellipse cx="829.9767636367943" cy="849.8963359975704" rx="1.5" ry="1.5" fill="#ff9664" opacity="0.49019607843137253"/>
<ellipse cx="962.4950410902943" cy="957.347774951415" rx="1.5" ry="1.5" fill="#ff9664" opacity="0.49019607843137253"/>
<ellipse cx="693.5105896710934" cy="630.2762034490128" rx="1.5" ry="1.5" fill="#ff9664" opacity="0.49019607843137253"/>
<ellipse cx="877.1353913923424" cy="93.13230518863178" rx="1.5" ry="1.5" fill="#ff9664" opacity="0.49019607843137253"/>
<ellipse cx="971.9192667826634" cy="654.865891046294" rx="1.5" ry="1.5" fill="#ff9664" opacity="0.49019607843137253"/>
<ellipse cx="585.4359555456024" cy="330.9241758337823" rx="1.5" ry="1.5" fill="#ff9664" opacity="0.49019607843137253"/>
<ellipse cx="800.6387473366403" cy="1074.389827751736" rx="1.5" ry="1.5" fill="#ff9664" opacity="0.49019607843137253"/>
<ellipse cx="1017.9527809461358" cy="946.5166930791534" rx="1.5" ry="1.5" fill="#ff9664" opacity="0.49019607843137253"/>
<ellipse cx="769.3833304519687" cy="311.8785740397305" rx="1.5" ry="1.5" fill="#ff9664" opacity="0.49019607843137253"/>
<ellipse cx="772.5793380628244" cy="262.0607794551462" rx="1.5" ry="1.5" fill="#ff9664" opacity="0.49019607843137253"/>
<ellipse cx="844.2722745166498" cy="558.9908125619361" rx="1.5" ry="1.5" fill="#ff9664" opacity="0.49019607843137253"/>
<ellipse cx="595.9185219071426" cy="884.1672826950286" rx="1.5" ry="1.5" fill="#ff9664" opacity="0.49019607843137253"/>
<ellipse cx="791.9417597036538" cy="1339.1195124663038" rx="1.5" ry="1.5" fill="#ff9664" opacity="0.49019607843137253"/>
<ellipse cx="818.1663609846339" cy="924.4499449266353" rx="1.5" ry="1.5" fill="#ff9664" opacity="0.49019607843137253"/>
<ellipse cx="996.3673498371463" cy="177.57875927611195" rx="1.5" ry="1.5" fill="#ff9664" opacity="0.49019607843137253"/>
<ellipse cx="803.2524366412556" cy="104.37296037765823" rx="1.5" ry="1.5" fill="#ff9664" opacity="0.49019607843137253"/>
<ellipse cx="835.5604167168776" cy="984.3809013182208" rx="1.5" ry="1.5" fill="#ff9664" opacity="0.49019607843137253"/>
<ellipse cx="694.2667151215796" cy="233.66535912904206" rx="1.5" ry="1.5" fill="#ff9664" opacity="0.49019607843137253"/>
<ellipse cx="542.8933256878021" cy="409.39009003778455" rx="1.5" ry="1.5" fill="#ff9664" opacity="0.49019607843137253"/>
<ellipse cx="559.3018627256629" cy="1111.8771722129904" rx="1.5" ry="1.5" fill="#ff9664" opacity="0.49019607843137253"/>
<ellipse cx="673.2716489458791" cy="1273.9630764694714" rx="1.5" ry="1.5" fill="#ff9664" opacity="0.49019607843137253"/>
<ellipse cx="718.61033686372" cy="329.80533257583403" rx="1.5" ry="1.5" fill="#ff9664" opacity="0.49019607843137253"/>
<ellipse cx="584.1042065825799" cy="1324.6143809168666" rx="1.5" ry="1.5" fill="#ff9664" opacity="0.49019607843137253"/>
<ellipse cx="942.9340126006557" cy="716.9882658482475" rx="1.5" ry="1.5" fill="#ff9664" opacity="0.49019607843137253"/>
<ellipse cx="1032.4907829670658" cy="632.6827886666557" rx="1.5" ry="1.5" fill="#ff9664" opacity="0.49019607843137253"/>
<ellipse cx="747.0649481783923" cy="933.9768294868883" rx="1.5" ry="1.5" fill="#ff9664" opacity="0.49019607843137253"/>
<ellipse cx="774.2468405860694" cy="748.6108664183928" rx="1.5" ry="1.5" fill="#ff9664" opacity="0.49019607843137253"/>
<ellipse cx="1052.2713234425855" cy="879.960143975895" rx="1.5" ry="1.5" fill="#ff9664" opacity="0.49019607843137253"/>
<ellipse cx="867.0490409466667" cy="548.0502965618159" rx="1.5" ry="1.5" fill="#ff9664" opacity="0.49019607843137253"/>
<ellipse cx="940.4476692157089" cy="796.1979750526128" rx="1.5" ry="1.5" fill="#ff9664" opacity="0.49019607843137253"/>
<ellipse cx="759.8231650422435" cy="388.27646988829434" rx="1.5" ry="1.5" fill="#ff9664" opacity="0.49019607843137253"/>
<ellipse cx="598.8010168349375" cy="1071.6063787562803" rx="1.5" ry="1.5" fill="#ff9664" opacity="0.49019607843137253"/>
<ellipse cx="878.4587074902182" cy="511.3317670819032" rx="1.5" ry="1.5" fill="#ff9664" opacity="0.49019607843137253"/>
<ellipse cx="605.9687590906251" cy="240.8531294394532" rx="1.5" ry="1.5" fill="#ff9664" opacity="0.49019607843137253"/>
<ellipse cx="1007.4547328741544" cy="934.5671300471607" rx="1.5" ry="1.5" fill="#ff9664" opacity="0.49019607843137253"/>
<ellipse cx="621.0825777431403" cy="204.4767425416395" rx="1.5" ry="1.5" fill="#ff9664" opacity="0.49019607843137253"/>
<ellipse cx="1075.0294699776123" cy="24.089026462328167" rx="1.5" ry="1.5" fill="#ff9664" opacity="0.49019607843137253"/>
<ellipse cx="910.4067277397992" cy="402.7426959959523" rx="1.5" ry="1.5" fill="#ff9664" opacity="0.49019607843137253"/>
<ellipse cx="994.7945883007694" cy="549.245381611048" rx="1.5" ry="1.5" fill="#ff9664" opacity="0.49019607843137253"/>
<ellipse cx="868.5616780857376" cy="153.902363848827" rx="1.5" ry="1.5" fill="#ff9664" opacity="0.49019607843137253"/>
<ellipse cx="607.8561276513414" cy="87.63863150386076" rx="1.5" ry="1.5" fill="#ff9664" opacity="0.49019607843137253"/>
<line x1="108.16840951711332" y1="834.8921124054549" x2="216.16840951711333" y2="834.8921124054549" stroke="#c8c8c8" stroke-width="1" opacity="0.39"/>
<line x1="456.2637736537791" y1="484.2999281754251" x2="564.263773653779" y2="484.2999281754251" stroke="#c8c8c8" stroke-width="1" opacity="0.39"/>
<line x1="278.05197013451345" y1="857.1059529004182" x2="386.05197013451345" y2="857.1059529004182" stroke="#c8c8c8" stroke-width="1" opacity="0.39"/>
<line x1="246.1739374353429" y1="737.7004448034338" x2="354.1739374353429" y2="737.7004448034338" stroke="#c8c8c8" stroke-width="1" opacity="0.39"/>
<line x1="161.91995866686105" y1="188.62307676515684" x2="269.919958666861" y2="188.62307676515684" stroke="#c8c8c8" stroke-width="1" opacity="0.39"/>
<line x1="68.894786270752" y1="688.4801122771948" x2="176.89478627075198" y2="688.4801122771948" stroke="#c8c8c8" stroke-width="1" opacity="0.39"/>
<line x1="49.367408775429894" y1="961.1715723579617" x2="157.3674087754299" y2="961.1715723579617" stroke="#c8c8c8" stroke-width="1" opacity="0.39"/>
<line x1="425.4908968999474" y1="147.9341805670104" x2="533.4908968999474" y2="147.9341805670104" stroke="#c8c8c8" stroke-width="1" opacity="0.39"/>
<line x1="274.5073504534119" y1="822.1029643072295" x2="382.5073504534119" y2="822.1029643072295" stroke="#c8c8c8" stroke-width="1" opacity="0.39"/>
<line x1="20.110774049586976" y1="1255.34627943083" x2="128.11077404958698" y2="1255.34627943083" stroke="#c8c8c8" stroke-width="1" opacity="0.39"/>
<line x1="164.35235746407525" y1="1072.112149499409" x2="272.3523574640752" y2="1072.112149499409" stroke="#c8c8c8" stroke-width="1" opacity="0.39"/>
<line x1="48.561780475341614" y1="834.8293889476124" x2="156.5617804753416" y2="834.8293889476124" stroke="#c8c8c8" stroke-width="1" opacity="0.39"/>
<line x1="279.4973374714597" y1="482.6122286182885" x2="387.4973374714597" y2="482.6122286182885" stroke="#c8c8c8" stroke-width="1" opacity="0.39"/>
<line x1="182.28687294865347" y1="821.3739398966422" x2="290.28687294865347" y2="821.3739398966422" stroke="#c8c8c8" stroke-width="1" opacity="0.39"/>
<line x1="459.83654043629605" y1="408.0528261177488" x2="567.836540436296" y2="408.0528261177488" stroke="#c8c8c8" stroke-width="1" opacity="0.39"/>
<line x1="270.63755048002935" y1="612.7538683883631" x2="378.63755048002935" y2="612.7538683883631" stroke="#c8c8c8" stroke-width="1" opacity="0.39"/>
<line x1="153.7670517683807" y1="1015.2500157315517" x2="261.7670517683807" y2="1015.2500157315517" stroke="#c8c8c8" stroke-width="1" opacity="0.39"/>
<line x1="349.82563035088856" y1="860.4509357644482" x2="457.82563035088856" y2="860.4509357644482" stroke="#c8c8c8" stroke-width="1" opacity="0.39"/>
<line x1="539.3748095163027" y1="682.6217654545893" x2="647.3748095163027" y2="682.6217654545893" stroke="#c8c8c8" stroke-width="1" opacity="0.39"/>
<line x1="458.87455007940275" y1="48.35186006890231" x2="566.8745500794028" y2="48.35186006890231" stroke="#c8c8c8" stroke-width="1" opacity="0.39"/>
<line x1="314.12076666677405" y1="716.1515775677524" x2="422.12076666677405" y2="716.1515775677524" stroke="#c8c8c8" stroke-width="1" opacity="0.39"/>
<line x1="143.52704293258816" y1="1330.3255146976214" x2="251.52704293258816" y2="1330.3255146976214" stroke="#c8c8c8" stroke-width="1" opacity="0.39"/>
<line x1="159.07911308066878" y1="509.6373083580459" x2="267.0791130806688" y2="509.6373083580459" stroke="#c8c8c8" stroke-width="1" opacity="0.39"/>
<line x1="472.7971460636692" y1="1077.000475431327" x2="580.7971460636692" y2="1077.000475431327" stroke="#c8c8c8" stroke-width="1" opacity="0.39"/>
<line x1="62.91715624878051" y1="150.6213114366966" x2="170.91715624878051" y2="150.6213114366966" stroke="#c8c8c8" stroke-width="1" opacity="0.39"/>
<line x1="285.9585536857874" y1="1008.6913709569217" x2="393.9585536857874" y2="1008.6913709569217" stroke="#c8c8c8" stroke-width="1" opacity="0.39"/>
<line x1="413.0361988083628" y1="424.0942599364064" x2="521.0361988083628" y2="424.0942599364064" stroke="#c8c8c8" stroke-width="1" opacity="0.39"/>
<line x1="255.55920135954358" y1="172.40349062364712" x2="363.5592013595436" y2="172.40349062364712" stroke="#c8c8c8" stroke-width="1" opacity="0.39"/>
<line x1="62.32996168654876" y1="773.3660731340601" x2="170.32996168654876" y2="773.3660731340601" stroke="#c8c8c8" stroke-width="1" opacity="0.39"/>
<line x1="448.7291052046833" y1="194.98522290726436" x2="556.7291052046833" y2="194.98522290726436" stroke="#c8c8c8" stroke-width="1" opacity="0.39"/>
<line x1="191.08050057249167" y1="1014.4735162213788" x2="299.0805005724917" y2="1014.4735162213788" stroke="#c8c8c8" stroke-width="1" opacity="0.39"/>
<line x1="231.10086690220092" y1="351.3580621924987" x2="339.1008669022009" y2="351.3580621924987" stroke="#c8c8c8" stroke-width="1" opacity="0.39"/>
<line x1="161.01513154851978" y1="841.8379608736551" x2="269.0151315485198" y2="841.8379608736551" stroke="#c8c8c8" stroke-width="1" opacity="0.39"/>
<line x1="144.4836259561049" y1="152.99389965505986" x2="252.4836259561049" y2="152.99389965505986" stroke="#c8c8c8" stroke-width="1" opacity="0.39"/>
<line x1="273.09938383898674" y1="15.238702304306766" x2="381.09938383898674" y2="15.238702304306766" stroke="#c8c8c8" stroke-width="1" opacity="0.39"/>
<line x1="119.59851248171111" y1="503.5917165240234" x2="227.5985124817111" y2="503.5917165240234" stroke="#c8c8c8" stroke-width="1" opacity="0.39"/>
<line x1="32.48326779924485" y1="417.98851956519695" x2="140.48326779924486" y2="417.98851956519695" stroke="#c8c8c8" stroke-width="1" opacity="0.39"/>
<line x1="64.15755990154928" y1="1300.987874577282" x2="172.1575599015493" y2="1300.987874577282" stroke="#c8c8c8" stroke-width="1" opacity="0.39"/>
<line x1="355.06198899590504" y1="436.38210316951483" x2="463.06198899590504" y2="436.38210316951483" stroke="#c8c8c8" stroke-width="1" opacity="0.39"/>
<line x1="167.39559181378948" y1="615.7459261900493" x2="275.39559181378945" y2="615.7459261900493" stroke="#c8c8c8" stroke-width="1" opacity="0.39"/>
<line x1="152.3848343605105" y1="1163.3028035812558" x2="260.38483436051047" y2="1163.3028035812558" stroke="#c8c8c8" stroke-width="1" opacity="0.39"/>
<line x1="522.153740172346" y1="314.0991212400138" x2="630.153740172346" y2="314.0991212400138" stroke="#c8c8c8" stroke-width="1" opacity="0.39"/>
<line x1="127.2247857447829" y1="414.633599116762" x2="235.2247857447829" y2="414.633599116762" stroke="#c8c8c8" stroke-width="1" opacity="0.39"/>
<line x1="220.60307632228503" y1="605.457750244745" x2="328.603076322285" y2="605.457750244745" stroke="#c8c8c8" stroke-width="1" opacity="0.39"/>
<line x1="474.9452414340085" y1="146.4492560114941" x2="582.9452414340085" y2="146.4492560114941" stroke="#c8c8c8" stroke-width="1" opacity="0.39"/>
<line x1="220.93773554122902" y1="279.98898638411845" x2="328.937735541229" y2="279.98898638411845" stroke="#c8c8c8" stroke-width="1" opacity="0.39"/>
<line x1="85.24141256010226" y1="704.0197584331128" x2="193.24141256010228" y2="704.0197584331128" stroke="#c8c8c8" stroke-width="1" opacity="0.39"/>
<line x1="240.1576996967931" y1="640.3441432120019" x2="348.1576996967931" y2="640.3441432120019" stroke="#c8c8c8" stroke-width="1" opacity="0.39"/>
<line x1="460.7460024118172" y1="493.7230112467534" x2="568.7460024118172" y2="493.7230112467534" stroke="#c8c8c8" stroke-width="1" opacity="0.39"/>
<line x1="445.759964196831" y1="932.0002560187132" x2="553.759964196831" y2="932.0002560187132" stroke="#c8c8c8" stroke-width="1" opacity="0.39"/>
<line x1="172.65563972883655" y1="368.2007791326385" x2="280.65563972883655" y2="368.2007791326385" stroke="#c8c8c8" stroke-width="1" opacity="0.39"/>
<line x1="41.81877138177807" y1="413.68936766576456" x2="149.81877138177808" y2="413.68936766576456" stroke="#c8c8c8" stroke-width="1" opacity="0.39"/>
<line x1="520.4035022297891" y1="236.37498032132862" x2="628.4035022297891" y2="236.37498032132862" stroke="#c8c8c8" stroke-width="1" opacity="0.39"/>
<line x1="19.881686577518323" y1="1310.974905505299" x2="127.88168657751832" y2="1310.974905505299" stroke="#c8c8c8" stroke-width="1" opacity="0.39"/>
<line x1="805.5505372330316" y1="95.34158711104728" x2="846.7505372330317" y2="95.34158711104728" stroke="#c8c8c8" stroke-width="1" opacity="0.39"/>
<line x1="624.2205208932145" y1="910.5710421272419" x2="665.4205208932145" y2="910.5710421272419" stroke="#c8c8c8" stroke-width="1" opacity="0.39"/>
<line x1="630.0185823859733" y1="524.8895692289293" x2="671.2185823859734" y2="524.8895692289293" stroke="#c8c8c8" stroke-width="1" opacity="0.39"/>
<line x1="606.3567996334084" y1="226.9530640109224" x2="647.5567996334084" y2="226.9530640109224" stroke="#c8c8c8" stroke-width="1" opacity="0.39"/>
<line x1="787.5593413075243" y1="169.50614162232083" x2="828.7593413075243" y2="169.50614162232083" stroke="#c8c8c8" stroke-width="1" opacity="0.39"/>
<line x1="1005.7058628581957" y1="76.47932771429389" x2="1046.9058628581956" y2="76.47932771429389" stroke="#c8c8c8" stroke-width="1" opacity="0.39"/>
<line x1="868.3128280976382" y1="715.2571145050495" x2="909.5128280976382" y2="715.2571145050495" stroke="#c8c8c8" stroke-width="1" opacity="0.39"/>
<line x1="773.3980823650015" y1="609.0326252435486" x2="814.5980823650016" y2="609.0326252435486" stroke="#c8c8c8" stroke-width="1" opacity="0.39"/>
<line x1="838.2701183754345" y1="1004.9485628516175" x2="879.4701183754346" y2="1004.9485628516175" stroke="#c8c8c8" stroke-width="1" opacity="0.39"/>
<line x1="772.4803806433829" y1="109.78898411141195" x2="813.6803806433829" y2="109.78898411141195" stroke="#c8c8c8" stroke-width="1" opacity="0.39"/>
<line x1="877.4387975118304" y1="888.4454731309999" x2="918.6387975118305" y2="888.4454731309999" stroke="#c8c8c8" stroke-width="1" opacity="0.39"/>
<line x1="717.9053879612616" y1="278.688812385634" x2="759.1053879612616" y2="278.688812385634" stroke="#c8c8c8" stroke-width="1" opacity="0.39"/>
<line x1="874.1165705090932" y1="630.535465772513" x2="915.3165705090933" y2="630.535465772513" stroke="#c8c8c8" stroke-width="1" opacity="0.39"/>
<line x1="807.6567579562109" y1="786.0439363802058" x2="848.8567579562109" y2="786.0439363802058" stroke="#c8c8c8" stroke-width="1" opacity="0.39"/>
<line x1="712.581932625073" y1="486.6257252575018" x2="753.7819326250731" y2="486.6257252575018" stroke="#c8c8c8" stroke-width="1" opacity="0.39"/>
<line x1="832.3131681849776" y1="740.4137674441625" x2="873.5131681849776" y2="740.4137674441625" stroke="#c8c8c8" stroke-width="1" opacity="0.39"/>
<line x1="1060.821411852176" y1="34.178692118347946" x2="1102.021411852176" y2="34.178692118347946" stroke="#c8c8c8" stroke-width="1" opacity="0.39"/>
<line x1="575.681140215919" y1="122.29249706598581" x2="616.881140215919" y2="122.29249706598581" stroke="#c8c8c8" stroke-width="1" opacity="0.39"/>
<line x1="1039.4396489204091" y1="1211.1955231107752" x2="1080.6396489204092" y2="1211.1955231107752" stroke="#c8c8c8" stroke-width="1" opacity="0.39"/>
<line x1="802.4430586129628" y1="322.439772040788" x2="843.6430586129628" y2="322.439772040788" stroke="#c8c8c8" stroke-width="1" opacity="0.39"/>
<line x1="630.2607053938605" y1="100.5001992455219" x2="671.4607053938605" y2="100.5001992455219" stroke="#c8c8c8" stroke-width="1" opacity="0.39"/>
<ellipse cx="754.9675086675992" cy="1333.0258018025318" rx="24.054567820417958" ry="35.74528998731577" fill="#fba1ee" opacity="0.27774948239769515"/>
<rect x="383.36242455680036" y="1176.2069516937281" width="36.831154831140836" height="52.7875373761745" fill="#d5c47d" opacity="0.2433684013054559"/>
<rect x="969.4642396361866" y="94.6528426300049" width="38.87734592839952" height="39.9671779009953" fill="#cffac2" opacity="0.1419199167626409"/>
<line x1="188.70682605947687" y1="619.0406176350269" x2="733.0982569293576" y2="1134.7076659718098" stroke="#e7d9c5" stroke-width="1.6727018359455754" opacity="0.266649171468958"/>
<line x1="518.2733347445137" y1="226.5537501436443" x2="903.2178251180881" y2="136.78606158904083" stroke="#d4ebdc" stroke-width="2.0336499815032116" opacity="0.20033711080144648"/>
<line x1="27.873644841776063" y1="202.8730447417465" x2="454.2743255823265" y2="823.4520617981684" stroke="#d0a8ad" stroke-width="1.179317951285894" opacity="0.32429464665898056"/>
<line x1="461.16960904615445" y1="895.1861326094653" x2="469.71200488028677" y2="379.435962615272" stroke="#a6bce6" stroke-width="2.2124986654205707" opacity="0.24567574149882843"/>
<line x1="653.7811091606417" y1="144.7858572680437" x2="185.03022560152704" y2="2.5001674902160502" stroke="#dbfdaa" stroke-width="1.0654079914397596" opacity="0.36753462586208835"/>
<ellipse cx="903.5015491878155" cy="1082.0009713443" rx="3.949442864837797" ry="3.949442864837797" fill="#cadad9" opacity="0.1386554194712119"/>
<ellipse cx="948.7408451683543" cy="1237.4321943323278" rx="1.4748039247816447" ry="1.4748039247816447" fill="#cbfbe7" opacity="0.17713774891382145"/>
<ellipse cx="995.4671578274421" cy="109.84321837771834" rx="3.1849769066017943" ry="3.1849769066017943" fill="#f2dcd9" opacity="0.11678054287770186"/>
<ellipse cx="759.5038751324191" cy="618.6563911934646" rx="3.4017204057433275" ry="3.4017204057433275" fill="#fad6cd" opacity="0.17940747976330293"/>
<ellipse cx="490.22266410767224" cy="1044.2861085032514" rx="3.5298852932312923" ry="3.5298852932312923" fill="#fddbe5" opacity="0.10411326091690698"/>
<ellipse cx="186.15752586450313" cy="534.1343792779998" rx="3.194266379901332" ry="3.194266379901332" fill="#f9dcd9" opacity="0.12499132345535151"/>
<ellipse cx="538.7681582098678" cy="135.39190298663075" rx="1.8349839154793806" ry="1.8349839154793806" fill="#f8f5e4" opacity="0.233604711717048"/>
<ellipse cx="377.5446512073021" cy="401.8311740839068" rx="3.3585801135555746" ry="3.3585801135555746" fill="#d4f1e6" opacity="0.20696892463835337"/>
<ellipse cx="971.3361601584294" cy="219.32449947079854" rx="1.4562785329559254" ry="1.4562785329559254" fill="#d8e4ee" opacity="0.1931640401140309"/>
<ellipse cx="84.52254299285009" cy="1319.1888621631958" rx="1.7853643897852693" ry="1.7853643897852693" fill="#d3d2d9" opacity="0.1858394006219511"/>
<ellipse cx="849.48151627997" cy="655.1882389258539" rx="1.8060266975341488" ry="1.8060266975341488" fill="#f0d2c9" opacity="0.18173250443930608"/>
<ellipse cx="66.66984561210026" cy="175.61992862057872" rx="3.0408518919911476" ry="3.0408518919911476" fill="#f7ebca" opacity="0.1536906794356203"/>
<ellipse cx="861.3110880094167" cy="1229.171366071874" rx="2.9914869079326687" ry="2.9914869079326687" fill="#dce4d1" opacity="0.13441694019157133"/>
<ellipse cx="1026.4169316303064" cy="1215.9161573350038" rx="1.5248603823244853" ry="1.5248603823244853" fill="#cae3cf" opacity="0.1398309118893379"/>
<ellipse cx="943.6343912704077" cy="385.36986726586235" rx="3.3188565980265183" ry="3.3188565980265183" fill="#d5cad2" opacity="0.11472273342102164"/>
<ellipse cx="31.798210158850164" cy="672.0890877172766" rx="1.3306713105787855" ry="1.3306713105787855" fill="#efe6ee" opacity="0.17874749506217558"/>
<ellipse cx="744.0355542786585" cy="82.74684552231192" rx="3.5933739853060684" ry="3.5933739853060684" fill="#f5fcc9" opacity="0.22209777499792865"/>
<ellipse cx="859.3383125492085" cy="636.3114956004133" rx="1.8596365455815738" ry="1.8596365455815738" fill="#d6f5fb" opacity="0.2059309342921956"/>
<ellipse cx="606.6551688158211" cy="18.218529232879416" rx="2.4235699965728306" ry="2.4235699965728306" fill="#fcf0cb" opacity="0.18932668373185613"/>
<ellipse cx="546.3498833339429" cy="1302.7922099934856" rx="1.5013374092529237" ry="1.5013374092529237" fill="#facbd1" opacity="0.17352383748910988"/>
<ellipse cx="479.90469954903455" cy="416.1306740791214" rx="2.432466269206473" ry="2.432466269206473" fill="#f2fbd5" opacity="0.22635295818709567"/>
<ellipse cx="236.13425742654795" cy="69.5191964830827" rx="1.5633699300528363" ry="1.5633699300528363" fill="#cacafe" opacity="0.17044209503269725"/>
</svg>